<svg width="495" height="495" viewBox="0 0 495 495" fill="none" xmlns="http://www.w3.org/2000/svg">
<path d="M392.706 244.264C388.666 230.332 386.788 215.864 387.137 201.364C387.405 193.378 386.012 185.424 383.048 178.004C380.083 170.584 375.612 163.86 369.915 158.257L360.221 148.667C354.646 142.963 347.941 138.485 340.537 135.52C333.132 132.554 325.19 131.166 317.218 131.445C302.668 131.686 288.167 129.704 274.215 125.567C216.259 109.995 153.25 133.301 107.359 179.089C61.4684 224.876 38.2653 288.298 53.8371 346.357C57.8434 360.293 59.6868 374.762 59.3028 389.257C59.0797 397.246 60.5027 405.196 63.4832 412.612C66.4637 420.028 70.9379 426.751 76.6278 432.363L86.2184 441.954C91.8212 447.651 98.5452 452.122 105.965 455.087C113.385 458.051 121.339 459.444 129.325 459.176C143.825 458.84 158.291 460.718 172.225 464.745C230.284 480.317 293.293 457.01 339.081 411.223C384.868 365.435 408.175 302.323 392.706 244.264Z" fill="#2EE55C"/>
<path d="M107.356 230.96C153.246 185.173 216.255 161.867 274.212 177.439C288.179 181.471 302.681 183.349 317.215 183.007C325.186 182.729 333.128 184.117 340.533 187.082C347.938 190.048 354.642 194.525 360.218 200.229L369.912 209.82C375.608 215.423 380.08 222.147 383.044 229.566C386.009 236.986 387.401 244.94 387.134 252.926C386.791 267.426 388.669 281.894 392.702 295.826C393.63 299.539 394.456 303.251 395.177 307.067C398.846 286.196 398.002 264.781 392.702 244.264C388.663 230.332 386.785 215.864 387.134 201.364C387.401 193.378 386.009 185.424 383.044 178.004C380.08 170.584 375.608 163.86 369.912 158.257L360.218 148.667C354.642 142.963 347.938 138.485 340.533 135.52C333.128 132.554 325.186 131.166 317.215 131.445C302.665 131.686 288.163 129.704 274.212 125.567C216.255 109.995 153.246 133.301 107.356 179.089C64.7649 222.298 41.3555 280.254 51.2555 335.117C58.8789 295.483 78.4567 259.135 107.356 230.96Z" fill="#48F574"/>
<path d="M392.706 244.264C388.666 230.332 386.788 215.864 387.137 201.364C387.405 193.378 386.012 185.424 383.048 178.004C380.083 170.584 375.612 163.86 369.915 158.257L360.222 148.667C354.646 142.963 347.941 138.485 340.537 135.52C333.132 132.554 325.19 131.166 317.218 131.445C302.668 131.686 288.167 129.704 274.215 125.567C216.259 109.995 153.25 133.301 107.359 179.089C61.4684 224.876 38.2653 288.298 53.8371 346.357C57.8434 360.293 59.6868 374.762 59.3028 389.257C59.0797 397.246 60.5027 405.196 63.4832 412.612C66.4637 420.028 70.9379 426.751 76.6278 432.364L86.2184 441.954C91.8212 447.651 98.5452 452.122 105.965 455.087C113.385 458.051 121.339 459.444 129.325 459.176C143.825 458.84 158.291 460.718 172.225 464.745C230.284 480.317 293.293 457.01 339.081 411.223C384.868 365.435 408.175 302.323 392.706 244.264Z" stroke="#45413C" stroke-width="7" stroke-linecap="round" stroke-linejoin="round"/>
<path d="M345.984 156.503C364.275 136.015 387.753 120.839 413.944 112.572C439.519 105.663 444.881 121.234 446.325 133.197C446.555 136.185 445.604 139.145 443.675 141.439C441.747 143.734 438.996 145.181 436.012 145.469C409.35 148.358 383.794 157.703 361.556 172.694C347.634 173.725 345.984 156.503 345.984 156.503Z" fill="#DEBB7E"/>
<path d="M352.378 169.601C369.607 152.266 390.867 139.474 414.253 132.373C431.784 127.732 439.931 133.61 443.747 141.551C445.785 139.222 446.822 136.184 446.634 133.095C445.706 121.338 439.828 105.766 414.253 112.47C387.939 120.715 364.348 135.932 345.984 156.504C346.587 161.463 348.839 166.076 352.378 169.601Z" fill="#F0D5A8"/>
<path d="M345.984 156.504C364.305 136.051 387.772 120.881 413.944 112.572C439.519 105.766 444.881 121.338 446.325 133.197C446.555 136.186 445.604 139.145 443.675 141.44C441.747 143.734 438.996 145.181 436.012 145.469C409.359 148.399 383.812 157.74 361.556 172.694C347.634 173.622 345.984 156.504 345.984 156.504Z" stroke="#45413C" stroke-width="7" stroke-linecap="round" stroke-linejoin="round"/>
<path d="M346.505 156.504C352.548 138.754 353.135 119.601 348.19 101.514C343.246 83.427 332.996 67.2361 318.764 55.0288C305.061 40.6995 287.285 30.9273 267.843 27.0353C248.402 23.1433 228.234 25.3196 210.07 33.2694C208.075 34.1447 206.383 35.5911 205.209 37.4263C204.034 39.2615 203.429 41.4034 203.47 43.5819C203.258 59.2988 206.641 74.8561 213.362 89.0653C220.082 103.275 229.962 115.76 242.245 125.566C282.98 156.504 324.642 120.823 346.505 156.504Z" fill="#6DD627"/>
<path d="M210.071 63.6912C228.2 55.7208 248.335 53.4939 267.767 57.3103C287.199 61.1267 304.997 70.8033 318.764 85.0381C335.384 99.825 346.477 119.828 350.218 141.757C352.899 125.738 351.414 109.299 345.906 94.0197C340.397 78.7406 331.051 65.1357 318.764 54.5131C305.001 40.2702 287.197 30.5955 267.759 26.7963C248.32 22.9971 228.184 25.2566 210.071 33.2694C208.075 34.1446 206.384 35.591 205.209 37.4262C204.035 39.2615 203.43 41.4034 203.471 43.5819C203.565 51.4504 204.429 59.2908 206.049 66.9912C207.107 65.5864 208.486 64.455 210.071 63.6912Z" fill="#9CEB60"/>
<path d="M346.505 156.504C352.548 138.754 353.135 119.601 348.19 101.514C343.246 83.427 332.996 67.2361 318.764 55.0288C305.061 40.6995 287.285 30.9273 267.843 27.0353C248.402 23.1433 228.234 25.3196 210.07 33.2694C208.075 34.1447 206.383 35.5911 205.209 37.4263C204.034 39.2615 203.429 41.4034 203.47 43.5819C203.258 59.2988 206.641 74.8561 213.362 89.0653C220.082 103.275 229.962 115.76 242.245 125.566C282.98 156.504 324.642 120.823 346.505 156.504Z" stroke="#45413C" stroke-width="7" stroke-linecap="round" stroke-linejoin="round"/>
<path d="M346.502 156.504C346.502 156.504 346.502 95.3506 289.164 70.085" stroke="#45413C" stroke-width="7" stroke-linecap="round" stroke-linejoin="round"/>
</svg>
