<svg width="495" height="495" viewBox="0 0 495 495" fill="none" xmlns="http://www.w3.org/2000/svg">
<path d="M22 247.575C22 280.614 45.7181 312.3 87.9367 335.663C130.155 359.025 187.416 372.15 247.122 372.15C306.828 372.15 364.089 359.025 406.307 335.663C448.526 312.3 472.244 280.614 472.244 247.575C472.244 214.536 448.526 182.85 406.307 159.487C364.089 136.125 306.828 123 247.122 123C187.416 123 130.155 136.125 87.9367 159.487C45.7181 182.85 22 214.536 22 247.575Z" fill="white"/>
<path d="M247.122 183.741C359.012 183.741 433.778 236.541 460.9 277.894C467.444 269.048 471.375 258.544 472.244 247.575C472.244 209.316 389.744 123 247.122 123C104.5 123 22 209.316 22 247.575C22.8691 258.544 26.7994 269.048 33.3437 277.894C60.4656 236.541 135.231 183.741 247.122 183.741Z" fill="#E0E0E0"/>
<path d="M22 247.575C22 280.614 45.7181 312.3 87.9367 335.663C130.155 359.025 187.416 372.15 247.122 372.15C306.828 372.15 364.089 359.025 406.307 335.663C448.526 312.3 472.244 280.614 472.244 247.575C472.244 214.536 448.526 182.85 406.307 159.487C364.089 136.125 306.828 123 247.122 123C187.416 123 130.155 136.125 87.9367 159.487C45.7181 182.85 22 214.536 22 247.575V247.575Z" stroke="#45413C" stroke-width="7" stroke-linecap="round" stroke-linejoin="round"/>
<path d="M247.122 152.597C382.525 152.597 460.797 237.675 461.931 276.347C467.899 267.861 471.463 257.92 472.244 247.575C472.244 209.316 389.744 123 247.122 123C104.5 123 22 209.316 22 247.575C22.7811 257.92 26.3443 267.861 32.3125 276.347C33.4469 237.263 111.719 152.597 247.122 152.597Z" fill="#656769" stroke="#45413C" stroke-width="7" stroke-linecap="round" stroke-linejoin="round"/>
<path d="M154.516 247.575C154.516 259.736 156.911 271.778 161.565 283.014C166.219 294.249 173.04 304.458 181.639 313.058C190.239 321.657 200.447 328.478 211.683 333.132C222.919 337.786 234.961 340.181 247.122 340.181C259.283 340.181 271.325 337.786 282.561 333.132C293.796 328.478 304.005 321.657 312.604 313.058C321.204 304.458 328.025 294.249 332.679 283.014C337.333 271.778 339.728 259.736 339.728 247.575C339.728 235.414 337.333 223.372 332.679 212.136C328.025 200.901 321.204 190.692 312.604 182.092C304.005 173.493 293.796 166.672 282.561 162.018C271.325 157.364 259.283 154.969 247.122 154.969C234.961 154.969 222.919 157.364 211.683 162.018C200.447 166.672 190.239 173.493 181.639 182.092C173.04 190.692 166.219 200.901 161.565 212.136C156.911 223.372 154.516 235.414 154.516 247.575Z" fill="#B89558"/>
<path d="M311.372 180.854C321.324 193.016 327.62 207.753 329.527 223.353C331.434 238.952 328.874 254.772 322.145 268.974C315.416 283.176 304.793 295.176 291.513 303.578C278.233 311.981 262.84 316.442 247.125 316.442C231.41 316.442 216.017 311.981 202.737 303.578C189.457 295.176 178.834 283.176 172.105 268.974C165.376 254.772 162.816 238.952 164.723 223.353C166.63 207.753 172.926 193.016 182.878 180.854C169.512 193.674 160.287 210.201 156.39 228.308C152.493 246.415 154.103 265.273 161.012 282.457C167.921 299.642 179.814 314.366 195.16 324.736C210.506 335.106 228.604 340.647 247.125 340.647C265.646 340.647 283.744 335.106 299.09 324.736C314.436 314.366 326.329 299.642 333.238 282.457C340.147 265.273 341.757 246.415 337.86 228.308C333.963 210.201 324.738 193.674 311.372 180.854Z" fill="#947746"/>
<path d="M154.516 247.575C154.516 259.736 156.911 271.778 161.565 283.014C166.219 294.249 173.04 304.458 181.639 313.058C190.239 321.657 200.447 328.478 211.683 333.132C222.919 337.786 234.961 340.181 247.122 340.181C259.283 340.181 271.325 337.786 282.561 333.132C293.796 328.478 304.005 321.657 312.604 313.058C321.204 304.458 328.025 294.249 332.679 283.014C337.333 271.778 339.728 259.736 339.728 247.575C339.728 235.414 337.333 223.372 332.679 212.136C328.025 200.901 321.204 190.692 312.604 182.092C304.005 173.493 293.796 166.672 282.561 162.018C271.325 157.364 259.283 154.969 247.122 154.969C234.961 154.969 222.919 157.364 211.683 162.018C200.447 166.672 190.239 173.493 181.639 182.092C173.04 190.692 166.219 200.901 161.565 212.136C156.911 223.372 154.516 235.414 154.516 247.575V247.575Z" stroke="#45413C" stroke-width="7" stroke-linecap="round" stroke-linejoin="round"/>
<path d="M205.562 247.575C205.562 258.597 209.941 269.168 217.735 276.962C225.529 284.756 236.1 289.134 247.122 289.134C258.144 289.134 268.715 284.756 276.509 276.962C284.303 269.168 288.681 258.597 288.681 247.575C288.681 236.553 284.303 225.982 276.509 218.188C268.715 210.394 258.144 206.016 247.122 206.016C236.1 206.016 225.529 210.394 217.735 218.188C209.941 225.982 205.562 236.553 205.562 247.575Z" fill="#525252" stroke="#45413C" stroke-width="7" stroke-linecap="round" stroke-linejoin="round"/>
</svg>
