<svg width="495" height="495" viewBox="0 0 495 495" fill="none" xmlns="http://www.w3.org/2000/svg">
<path d="M247.972 479.062C233.767 479.063 219.702 476.26 206.582 470.814C193.462 465.369 181.545 457.388 171.515 447.329C161.485 437.27 153.538 425.331 148.13 412.195C142.722 399.06 139.96 384.986 140 370.781V123.281C139.96 109.076 142.722 95.0027 148.13 81.8672C153.538 68.7317 161.485 56.7924 171.515 46.7335C181.545 36.6746 193.462 28.6938 206.582 23.2484C219.702 17.8029 233.767 14.9999 247.972 15C262.177 14.9999 276.243 17.8029 289.363 23.2484C302.483 28.6938 314.399 36.6746 324.43 46.7335C334.46 56.7924 342.406 68.7317 347.814 81.8672C353.222 95.0027 355.985 109.076 355.944 123.281V370.781C355.985 384.986 353.222 399.06 347.814 412.195C342.406 425.331 334.46 437.27 324.43 447.329C314.399 457.388 302.483 465.369 289.363 470.814C276.243 476.26 262.177 479.063 247.972 479.062Z" fill="#DAEDF7"/>
<path d="M247.972 15C233.767 14.9999 219.702 17.8029 206.582 23.2484C193.462 28.6938 181.545 36.6746 171.515 46.7335C161.485 56.7924 153.538 68.7317 148.13 81.8672C142.722 95.0027 139.96 109.076 140 123.281V150.197C140 121.561 151.376 94.0979 171.625 73.8492C191.873 53.6006 219.336 42.225 247.972 42.225C276.608 42.225 304.071 53.6006 324.32 73.8492C344.569 94.0979 355.944 121.561 355.944 150.197V123.281C355.985 109.076 353.222 95.0027 347.814 81.8672C342.406 68.7317 334.46 56.7924 324.43 46.7335C314.399 36.6746 302.483 28.6938 289.363 23.2484C276.243 17.8029 262.177 14.9999 247.972 15Z" fill="white"/>
<path d="M247.972 479.062C233.767 479.063 219.702 476.26 206.582 470.814C193.462 465.369 181.545 457.388 171.515 447.329C161.485 437.27 153.538 425.331 148.13 412.195C142.722 399.06 139.96 384.986 140 370.781V123.281C139.96 109.076 142.722 95.0027 148.13 81.8672C153.538 68.7317 161.485 56.7924 171.515 46.7335C181.545 36.6746 193.462 28.6938 206.582 23.2484C219.702 17.8029 233.767 14.9999 247.972 15V15C262.177 14.9999 276.243 17.8029 289.363 23.2484C302.483 28.6938 314.399 36.6746 324.43 46.7335C334.46 56.7924 342.406 68.7317 347.814 81.8672C353.222 95.0027 355.985 109.076 355.944 123.281V370.781C355.985 384.986 353.222 399.06 347.814 412.195C342.406 425.331 334.46 437.27 324.43 447.329C314.399 457.388 302.483 465.369 289.363 470.814C276.243 476.26 262.177 479.063 247.972 479.062V479.062Z" stroke="#45413C" stroke-width="7" stroke-linecap="round" stroke-linejoin="round"/>
<path d="M247.973 452.044C237.316 452.044 226.764 449.94 216.922 445.852C207.08 441.764 198.142 435.774 190.621 428.224C183.1 420.674 177.143 411.713 173.093 401.855C169.043 391.998 166.979 381.438 167.02 370.781V123.281C166.979 112.624 169.043 102.064 173.093 92.2066C177.143 82.3492 183.1 73.3884 190.621 65.8385C198.142 58.2885 207.08 52.2978 216.922 48.2102C226.764 44.1226 237.316 42.0185 247.973 42.0186C258.63 42.0185 269.182 44.1226 279.024 48.2102C288.866 52.2978 297.804 58.2885 305.325 65.8385C312.847 73.3884 318.803 82.3492 322.853 92.2066C326.903 102.064 328.967 112.624 328.926 123.281V370.781C328.967 381.438 326.903 391.998 322.853 401.855C318.803 411.713 312.847 420.674 305.325 428.224C297.804 435.774 288.866 441.764 279.024 445.852C269.182 449.94 258.63 452.044 247.973 452.044Z" fill="#87898C"/>
<path d="M247.973 42.0186C237.316 42.0185 226.764 44.1226 216.922 48.2102C207.08 52.2978 198.142 58.2885 190.621 65.8385C183.1 73.3884 177.143 82.3492 173.093 92.2066C169.043 102.064 166.979 112.624 167.02 123.281V151.64C167.02 130.17 175.549 109.58 190.731 94.3979C205.912 79.2163 226.503 70.6873 247.973 70.6873C269.443 70.6873 290.034 79.2163 305.216 94.3979C320.397 109.58 328.926 130.17 328.926 151.64V123.281C328.967 112.624 326.903 102.064 322.853 92.2066C318.803 82.3492 312.847 73.3884 305.325 65.8385C297.804 58.2885 288.866 52.2978 279.024 48.2102C269.182 44.1226 258.63 42.0185 247.973 42.0186Z" fill="#656769"/>
<path d="M247.973 452.044C237.316 452.044 226.764 449.94 216.922 445.852C207.08 441.764 198.142 435.774 190.621 428.224C183.1 420.674 177.143 411.713 173.093 401.856C169.043 391.998 166.979 381.438 167.02 370.781V123.281C166.979 112.624 169.043 102.064 173.093 92.2066C177.143 82.3492 183.1 73.3884 190.621 65.8385C198.142 58.2885 207.08 52.2978 216.922 48.2102C226.764 44.1226 237.316 42.0185 247.973 42.0186V42.0186C258.63 42.0185 269.182 44.1226 279.024 48.2102C288.866 52.2978 297.804 58.2885 305.325 65.8385C312.847 73.3884 318.803 82.3492 322.853 92.2066C326.903 102.064 328.967 112.624 328.926 123.281V370.781C328.967 381.438 326.903 391.998 322.853 401.856C318.803 411.713 312.847 420.674 305.325 428.224C297.804 435.774 288.866 441.764 279.024 445.852C269.182 449.94 258.63 452.044 247.973 452.044V452.044Z" stroke="#45413C" stroke-width="7" stroke-linecap="round" stroke-linejoin="round"/>
<path d="M201.566 133.594C201.566 145.901 206.456 157.705 215.158 166.408C223.861 175.111 235.665 180 247.973 180C260.28 180 272.084 175.111 280.787 166.408C289.49 157.705 294.379 145.901 294.379 133.594C294.379 121.286 289.49 109.482 280.787 100.78C272.084 92.0767 260.28 87.1875 247.973 87.1875C235.665 87.1875 223.861 92.0767 215.158 100.78C206.456 109.482 201.566 121.286 201.566 133.594Z" fill="#6DD627"/>
<path d="M247.973 87.1872C237.411 87.1306 227.147 90.6867 218.885 97.2653C210.622 103.844 204.856 113.05 202.544 123.356C200.233 133.662 201.514 144.448 206.176 153.926C210.837 163.403 218.599 171.002 228.173 175.462L279.735 100.078C271.187 91.8758 259.82 87.2625 247.973 87.1872Z" fill="#9CEB60"/>
<path d="M201.566 370.781C201.566 383.089 206.456 394.893 215.158 403.595C223.861 412.298 235.665 417.188 247.973 417.188C260.28 417.188 272.084 412.298 280.787 403.595C289.49 394.893 294.379 383.089 294.379 370.781C294.379 358.474 289.49 346.67 280.787 337.967C272.084 329.264 260.28 324.375 247.973 324.375C235.665 324.375 223.861 329.264 215.158 337.967C206.456 346.67 201.566 358.474 201.566 370.781Z" fill="#FF6242"/>
<path d="M247.973 324.375C237.411 324.318 227.147 327.874 218.885 334.453C210.622 341.031 204.856 350.237 202.544 360.543C200.233 370.849 201.514 381.636 206.176 391.113C210.837 400.591 218.599 408.19 228.173 412.65L279.735 337.265C271.187 329.063 259.82 324.45 247.973 324.375Z" fill="#FF866E"/>
<path d="M201.566 133.594C201.566 145.901 206.456 157.705 215.158 166.408C223.861 175.111 235.665 180 247.973 180C260.28 180 272.084 175.111 280.787 166.408C289.49 157.705 294.379 145.901 294.379 133.594C294.379 121.286 289.49 109.482 280.787 100.78C272.084 92.0767 260.28 87.1875 247.973 87.1875C235.665 87.1875 223.861 92.0767 215.158 100.78C206.456 109.482 201.566 121.286 201.566 133.594Z" stroke="#45413C" stroke-width="7" stroke-linecap="round" stroke-linejoin="round"/>
<path d="M201.566 370.781C201.566 383.089 206.456 394.893 215.158 403.595C223.861 412.298 235.665 417.188 247.973 417.188C260.28 417.188 272.084 412.298 280.787 403.595C289.49 394.893 294.379 383.089 294.379 370.781C294.379 358.474 289.49 346.67 280.787 337.967C272.084 329.264 260.28 324.375 247.973 324.375C235.665 324.375 223.861 329.264 215.158 337.967C206.456 346.67 201.566 358.474 201.566 370.781Z" stroke="#45413C" stroke-width="7" stroke-linecap="round" stroke-linejoin="round"/>
<path d="M299.535 367.687C299.535 396.15 291.182 341.906 247.973 341.906C204.763 341.906 196.41 396.15 196.41 367.687C196.41 354.012 201.843 340.897 211.512 331.227C221.182 321.557 234.297 316.125 247.973 316.125C261.648 316.125 274.763 321.557 284.433 331.227C294.103 340.897 299.535 354.012 299.535 367.687Z" fill="#BDBEC0" stroke="#45413C" stroke-width="7" stroke-linecap="round" stroke-linejoin="round"/>
<path d="M299.535 130.5C299.535 158.962 291.182 104.719 247.973 104.719C204.763 104.719 196.41 158.962 196.41 130.5C196.41 116.825 201.843 103.71 211.512 94.0398C221.182 84.37 234.297 78.9375 247.973 78.9375C261.648 78.9375 274.763 84.37 284.433 94.0398C294.103 103.71 299.535 116.825 299.535 130.5Z" fill="#BDBEC0" stroke="#45413C" stroke-width="7" stroke-linecap="round" stroke-linejoin="round"/>
</svg>
