<svg width="495" height="495" viewBox="0 0 495 495" fill="none" xmlns="http://www.w3.org/2000/svg">
<path d="M374.189 96.8789L328.814 142.563C293.229 113.205 247.709 98.6713 201.696 101.976C155.682 105.28 112.706 126.17 81.6814 160.311C50.6568 194.453 33.9646 239.227 35.0669 285.345C36.1693 331.464 54.9816 375.389 87.6019 408.01C120.222 440.63 164.147 459.442 210.266 460.545C256.385 461.647 301.159 444.955 335.3 413.93C369.442 382.906 390.331 339.93 393.636 293.916C396.94 247.902 382.406 202.382 353.048 166.798L398.733 121.113L374.189 96.8789Z" fill="#87898C"/>
<path d="M357.793 113.277L328.815 142.564C301.677 120.113 268.531 106.146 233.51 102.402C198.488 98.6587 163.139 105.305 131.869 121.512C100.598 137.719 74.7888 162.77 57.6571 193.544C40.5254 224.318 32.8291 259.453 35.5275 294.57C37.8218 263.513 48.1596 233.587 65.5244 207.736C82.8892 181.885 106.683 160.998 134.566 147.129C162.45 133.26 193.462 126.887 224.555 128.636C255.648 130.385 285.75 140.196 311.902 157.105C316.837 160.308 322.719 161.728 328.572 161.128C334.425 160.527 339.896 157.943 344.077 153.805L371.199 126.683L357.793 113.277Z" fill="#BDBEC0"/>
<path d="M374.189 96.8789L328.814 142.563C293.229 113.205 247.709 98.6713 201.696 101.976C155.682 105.28 112.706 126.17 81.6814 160.311C50.6568 194.453 33.9646 239.227 35.0669 285.345C36.1693 331.464 54.9816 375.389 87.6019 408.01C120.222 440.63 164.147 459.442 210.266 460.545C256.385 461.647 301.159 444.955 335.3 413.93C369.442 382.906 390.331 339.93 393.636 293.916C396.94 247.902 382.406 202.382 353.048 166.798L398.733 121.113L374.189 96.8789Z" stroke="#45413C" stroke-width="7" stroke-linecap="round" stroke-linejoin="round"/>
<path d="M451.942 43.6667C449.254 40.9228 446.045 38.7429 442.503 37.2547C438.962 35.7665 435.159 35 431.317 35C427.476 35 423.673 35.7665 420.132 37.2547C416.59 38.7429 413.381 40.9228 410.692 43.6667L357.789 96.8792C356.707 97.9529 355.849 99.23 355.263 100.637C354.677 102.044 354.375 103.553 354.375 105.078C354.375 106.602 354.677 108.111 355.263 109.518C355.849 110.925 356.707 112.202 357.789 113.276L382.333 137.82C383.407 138.902 384.684 139.76 386.091 140.347C387.498 140.933 389.007 141.234 390.532 141.234C392.056 141.234 393.565 140.933 394.972 140.347C396.379 139.76 397.656 138.902 398.73 137.82L451.942 84.298C457.295 78.8914 460.298 71.5906 460.298 63.9823C460.298 56.3741 457.295 49.0733 451.942 43.6667Z" fill="#FFE500"/>
<path d="M451.942 43.6667C449.254 40.9228 446.045 38.7429 442.503 37.2547C438.962 35.7665 435.159 35 431.317 35C427.476 35 423.673 35.7665 420.132 37.2547C416.59 38.7429 413.381 40.9228 410.692 43.6667L357.789 96.8792C356.707 97.9529 355.849 99.23 355.263 100.637C354.677 102.044 354.375 103.553 354.375 105.078C354.375 106.602 354.677 108.111 355.263 109.518C355.849 110.925 356.707 112.202 357.789 113.276L366.555 122.042C366.905 121.327 367.357 120.667 367.896 120.082L421.624 66.7667C426.775 61.6376 433.671 58.6401 440.935 58.3724C448.199 58.1048 455.297 60.5868 460.811 65.323C460.959 61.29 460.244 57.272 458.715 53.5374C457.185 49.8028 454.877 46.4376 451.942 43.6667Z" fill="#FFF48C"/>
<path d="M451.942 43.6663C454.686 46.3548 456.866 49.5638 458.355 53.1053C459.843 56.6469 460.609 60.4498 460.609 64.2913C460.609 68.1328 459.843 71.9357 458.355 75.4772C456.866 79.0188 454.686 82.2278 451.942 84.9163L398.73 138.129C397.656 139.211 396.379 140.069 394.972 140.655C393.565 141.241 392.056 141.543 390.532 141.543C389.007 141.543 387.498 141.241 386.091 140.655C384.684 140.069 383.407 139.211 382.333 138.129L357.789 113.585C356.707 112.511 355.849 111.234 355.263 109.827C354.677 108.42 354.375 106.911 354.375 105.387C354.375 103.862 354.677 102.353 355.263 100.946C355.849 99.539 356.707 98.2618 357.789 97.1881L411.311 43.6663C416.718 38.3133 424.019 35.3105 431.627 35.3105C439.235 35.3105 446.536 38.3133 451.942 43.6663V43.6663Z" stroke="#45413C" stroke-width="7" stroke-linecap="round" stroke-linejoin="round"/>
<path d="M69.6641 281.163C69.6641 300.177 73.4091 319.005 80.6854 336.571C87.9616 354.138 98.6266 370.099 112.071 383.544C125.516 396.988 141.477 407.653 159.044 414.93C176.61 422.206 195.438 425.951 214.452 425.951C233.465 425.951 252.293 422.206 269.859 414.93C287.426 407.653 303.387 396.988 316.832 383.544C330.277 370.099 340.942 354.138 348.218 336.571C355.494 319.005 359.239 300.177 359.239 281.163C359.239 262.15 355.494 243.322 348.218 225.756C340.942 208.189 330.277 192.228 316.832 178.783C303.387 165.338 287.426 154.674 269.859 147.397C252.293 140.121 233.465 136.376 214.452 136.376C195.438 136.376 176.61 140.121 159.044 147.397C141.477 154.674 125.516 165.338 112.071 178.783C98.6266 192.228 87.9616 208.189 80.6854 225.756C73.4091 243.322 69.6641 262.15 69.6641 281.163Z" fill="#656769"/>
<path d="M112.253 213.514C131.389 194.172 155.6 180.631 182.097 174.451C208.595 168.272 236.298 169.705 262.016 178.587C287.734 187.469 310.418 203.436 327.455 224.65C344.492 245.864 355.188 271.46 358.309 298.489C360.324 278.414 358.11 258.14 351.808 238.974C345.506 219.807 335.257 202.175 321.722 187.213C308.186 172.251 291.666 160.292 273.225 152.108C254.784 143.923 234.832 139.694 214.656 139.694C194.481 139.694 174.529 143.923 156.088 152.108C137.647 160.292 121.126 172.251 107.591 187.213C94.0558 202.175 83.8068 219.807 77.5049 238.974C71.2029 258.14 68.9881 278.414 71.0031 298.489C74.8362 266.34 89.3641 236.412 112.253 213.514Z" fill="#525252"/>
<path d="M69.6641 281.163C69.6641 300.177 73.4091 319.005 80.6854 336.571C87.9616 354.138 98.6266 370.099 112.071 383.544C125.516 396.988 141.477 407.653 159.044 414.93C176.61 422.206 195.438 425.951 214.452 425.951C233.465 425.951 252.293 422.206 269.859 414.93C287.426 407.653 303.387 396.988 316.832 383.544C330.277 370.099 340.942 354.138 348.218 336.571C355.494 319.005 359.239 300.177 359.239 281.163C359.239 262.15 355.494 243.322 348.218 225.756C340.942 208.189 330.277 192.228 316.832 178.783C303.387 165.338 287.426 154.674 269.859 147.397C252.293 140.121 233.465 136.376 214.452 136.376C195.438 136.376 176.61 140.121 159.044 147.397C141.477 154.674 125.516 165.338 112.071 178.783C98.6266 192.228 87.9616 208.189 80.6854 225.756C73.4091 243.322 69.6641 262.15 69.6641 281.163V281.163Z" stroke="#45413C" stroke-width="7" stroke-linecap="round" stroke-linejoin="round"/>
<path d="M223.611 316.732C220.467 318.139 216.892 318.24 213.673 317.012C210.454 315.784 207.855 313.327 206.447 310.183C204.443 305.004 201.294 300.345 197.237 296.553C193.18 292.762 188.319 289.936 183.016 288.286C177.714 286.637 172.107 286.206 166.615 287.027C161.123 287.847 155.887 289.898 151.299 293.025C141.547 299.927 133.867 309.362 129.087 320.311C124.307 331.259 122.608 343.306 124.176 355.15C125.743 366.993 130.516 378.183 137.979 387.512C145.443 396.84 155.313 403.953 166.524 408.081C177.735 412.209 189.86 413.196 201.591 410.935C213.322 408.674 224.212 403.251 233.086 395.252C241.959 387.253 248.479 376.981 251.941 365.547C255.402 354.113 255.674 341.95 252.727 330.373C251.937 327.412 250.509 324.661 248.543 322.312C246.577 319.962 244.12 318.071 241.346 316.771C238.572 315.471 235.547 314.794 232.483 314.787C229.419 314.781 226.391 315.444 223.611 316.732Z" fill="#F0F0F0"/>
<path d="M135.271 383.633C132.382 370.965 133.318 357.725 137.959 345.589C142.6 333.454 150.738 322.968 161.341 315.46C165.93 312.333 171.166 310.282 176.658 309.461C182.15 308.641 187.757 309.071 193.059 310.721C198.362 312.371 203.223 315.197 207.28 318.988C211.337 322.78 214.486 327.439 216.49 332.617C217.901 335.768 220.501 338.233 223.723 339.474C226.945 340.714 230.526 340.629 233.686 339.237C237.022 337.749 240.68 337.13 244.32 337.438C247.96 337.746 251.463 338.971 254.501 340.998C254.211 337.438 253.628 333.908 252.759 330.444C251.969 327.484 250.541 324.732 248.575 322.383C246.609 320.033 244.152 318.142 241.378 316.842C238.604 315.543 235.579 314.865 232.515 314.859C229.451 314.852 226.423 315.515 223.643 316.803C220.499 318.21 216.924 318.311 213.705 317.083C210.486 315.855 207.887 313.398 206.479 310.254C204.475 305.075 201.327 300.416 197.269 296.625C193.212 292.833 188.351 290.007 183.048 288.357C177.746 286.708 172.139 286.277 166.647 287.098C161.155 287.918 155.919 289.969 151.331 293.096C140.711 300.59 132.561 311.074 127.919 323.214C123.276 335.354 122.35 348.601 125.26 361.269C127.236 369.399 130.683 377.098 135.429 383.988L135.271 383.633Z" fill="white"/>
<path d="M223.611 316.732C220.467 318.139 216.892 318.24 213.673 317.012C210.454 315.784 207.855 313.327 206.447 310.183C204.443 305.004 201.294 300.345 197.237 296.553C193.18 292.762 188.319 289.936 183.016 288.286C177.714 286.637 172.107 286.206 166.615 287.027C161.123 287.847 155.887 289.898 151.299 293.025C141.547 299.927 133.867 309.362 129.087 320.311C124.307 331.259 122.608 343.306 124.176 355.15C125.743 366.993 130.516 378.183 137.979 387.512C145.443 396.84 155.313 403.953 166.524 408.081C177.735 412.209 189.86 413.196 201.591 410.935C213.322 408.674 224.212 403.251 233.086 395.252C241.959 387.253 248.479 376.981 251.941 365.547C255.402 354.113 255.674 341.95 252.727 330.373C251.937 327.412 250.509 324.661 248.543 322.312C246.577 319.962 244.12 318.071 241.346 316.771C238.572 315.471 235.547 314.794 232.483 314.787C229.419 314.781 226.391 315.444 223.611 316.732Z" stroke="#45413C" stroke-width="7" stroke-linecap="round" stroke-linejoin="round"/>
<path d="M160.835 368.782C163.675 375.128 168.92 380.085 175.416 382.563C181.911 385.042 189.125 384.838 195.471 381.998C201.816 379.157 206.773 373.912 209.252 367.417C211.73 360.921 211.527 353.708 208.686 347.362C205.846 341.017 200.601 336.059 194.105 333.581C187.61 331.103 180.396 331.306 174.051 334.146C167.705 336.987 162.748 342.232 160.27 348.727C157.791 355.223 157.995 362.437 160.835 368.782Z" fill="#FFAA54"/>
<path d="M180.408 348.345C185.488 346.113 191.148 345.561 196.564 346.77C201.979 347.979 206.867 350.885 210.517 355.064C210.254 352.432 209.589 349.856 208.546 347.425C205.705 341.079 200.46 336.122 193.965 333.643C187.469 331.165 180.255 331.368 173.91 334.209C167.565 337.049 162.607 342.294 160.129 348.79C157.65 355.285 157.854 362.499 160.694 368.845C161.812 371.242 163.291 373.454 165.079 375.404C164.399 369.847 165.521 364.218 168.281 359.346C171.041 354.475 175.292 350.618 180.408 348.345Z" fill="#FFCC99"/>
<path d="M160.835 368.782C163.675 375.128 168.92 380.085 175.416 382.563C181.911 385.042 189.125 384.838 195.471 381.998C201.816 379.157 206.773 373.912 209.252 367.417C211.73 360.921 211.527 353.708 208.686 347.362C205.846 341.017 200.601 336.059 194.105 333.581C187.61 331.103 180.396 331.306 174.051 334.146C167.705 336.987 162.748 342.232 160.27 348.727C157.791 355.223 157.995 362.437 160.835 368.782V368.782Z" stroke="#45413C" stroke-width="7" stroke-linecap="round" stroke-linejoin="round"/>
<path d="M257.717 276.351C257.55 272.91 258.758 269.543 261.073 266.992C263.389 264.441 266.623 262.915 270.064 262.748C275.617 262.766 281.102 261.53 286.111 259.131C291.119 256.732 295.52 253.233 298.987 248.894C302.453 244.556 304.895 239.491 306.13 234.077C307.365 228.663 307.36 223.04 306.118 217.627C303.238 206.033 297.246 195.445 288.789 187.008C280.331 178.57 269.728 172.604 258.127 169.753C246.525 166.902 234.365 167.274 222.96 170.83C211.555 174.386 201.338 180.991 193.412 189.93C185.487 198.869 180.154 209.804 177.991 221.553C175.827 233.302 176.914 245.419 181.134 256.596C185.355 267.772 192.548 277.583 201.938 284.969C211.328 292.355 222.558 297.035 234.414 298.505C237.458 298.846 240.541 298.517 243.445 297.541C246.349 296.565 249.004 294.966 251.225 292.855C253.445 290.744 255.177 288.173 256.298 285.322C257.42 282.471 257.904 279.409 257.717 276.351Z" fill="#F0F0F0"/>
<path d="M227.556 169.719C240.406 171.64 252.397 177.331 262.011 186.07C271.625 194.81 278.429 206.206 281.562 218.815C282.805 224.228 282.809 229.851 281.575 235.265C280.34 240.679 277.898 245.744 274.432 250.082C270.965 254.421 266.564 257.92 261.555 260.319C256.547 262.718 251.062 263.954 245.509 263.936C242.06 264.103 238.818 265.628 236.49 268.177C234.162 270.726 232.938 274.093 233.084 277.543C233.256 281.192 232.501 284.825 230.889 288.103C229.278 291.381 226.862 294.198 223.867 296.289C227.289 297.315 230.789 298.057 234.332 298.509C237.377 298.85 240.459 298.521 243.363 297.545C246.267 296.569 248.922 294.97 251.143 292.859C253.363 290.748 255.095 288.177 256.217 285.326C257.338 282.475 257.822 279.413 257.635 276.355C257.469 272.914 258.676 269.547 260.991 266.996C263.307 264.445 266.541 262.919 269.982 262.752C275.535 262.77 281.021 261.534 286.029 259.135C291.037 256.736 295.439 253.237 298.905 248.898C302.372 244.56 304.813 239.495 306.048 234.081C307.283 228.667 307.279 223.044 306.036 217.631C302.921 205.013 296.123 193.606 286.505 184.863C276.888 176.12 264.887 170.436 252.029 168.535C243.738 167.417 235.312 167.824 227.167 169.738L227.556 169.719Z" fill="white"/>
<path d="M257.717 276.351C257.55 272.91 258.758 269.543 261.073 266.992C263.389 264.441 266.623 262.915 270.064 262.748C275.617 262.766 281.102 261.53 286.111 259.131C291.119 256.732 295.52 253.233 298.987 248.894C302.453 244.556 304.895 239.491 306.13 234.077C307.365 228.663 307.36 223.04 306.118 217.627C303.238 206.033 297.246 195.445 288.789 187.008C280.331 178.57 269.729 172.604 258.127 169.753C246.525 166.902 234.365 167.274 222.96 170.83C211.555 174.386 201.338 180.991 193.413 189.93C185.487 198.869 180.154 209.804 177.991 221.553C175.827 233.302 176.914 245.419 181.134 256.596C185.355 267.772 192.548 277.583 201.938 284.969C211.328 292.355 222.558 297.035 234.414 298.505C237.458 298.846 240.541 298.517 243.445 297.541C246.349 296.565 249.004 294.966 251.225 292.855C253.445 290.744 255.177 288.173 256.298 285.322C257.42 282.471 257.904 279.409 257.717 276.351Z" stroke="#45413C" stroke-width="7" stroke-linecap="round" stroke-linejoin="round"/>
<path d="M232.091 198.933C225.147 199.269 218.62 202.35 213.948 207.497C209.275 212.645 206.839 219.438 207.175 226.382C207.511 233.326 210.592 239.853 215.739 244.525C220.887 249.198 227.68 251.634 234.624 251.298C241.568 250.962 248.095 247.882 252.767 242.734C257.44 237.586 259.876 230.793 259.54 223.849C259.204 216.905 256.124 210.378 250.976 205.706C245.828 201.033 239.035 198.597 232.091 198.933Z" fill="#FFAA54"/>
<path d="M244.001 224.603C244.231 230.147 242.684 235.619 239.587 240.223C236.49 244.827 232.005 248.322 226.783 250.2C229.331 250.913 231.973 251.232 234.617 251.145C241.561 250.809 248.087 247.728 252.759 242.58C257.432 237.433 259.868 230.639 259.532 223.695C259.196 216.751 256.116 210.225 250.968 205.552C245.82 200.88 239.027 198.444 232.083 198.78C229.443 198.948 226.844 199.52 224.377 200.476C229.801 201.865 234.636 204.96 238.168 209.303C241.701 213.646 243.746 219.01 244.001 224.603Z" fill="#FFCC99"/>
<path d="M232.091 198.933C225.147 199.269 218.62 202.35 213.948 207.497C209.275 212.645 206.839 219.438 207.175 226.382C207.511 233.326 210.592 239.853 215.739 244.525C220.887 249.198 227.68 251.634 234.624 251.298C241.568 250.962 248.095 247.882 252.767 242.734C257.44 237.586 259.876 230.793 259.54 223.849C259.204 216.905 256.124 210.378 250.976 205.706C245.828 201.033 239.035 198.597 232.091 198.933V198.933Z" stroke="#45413C" stroke-width="7" stroke-linecap="round" stroke-linejoin="round"/>
</svg>
