<svg width="495" height="495" viewBox="0 0 495 495" fill="none" xmlns="http://www.w3.org/2000/svg">
<path d="M479.688 247.806C479.688 284.09 469.371 318.887 451.007 344.543C432.643 370.199 407.736 384.613 381.766 384.613C355.796 384.613 330.889 370.199 312.525 344.543C294.161 318.887 283.845 284.09 283.845 247.806C283.845 211.523 294.161 176.726 312.525 151.07C330.889 125.413 355.796 111 381.766 111C407.736 111 432.643 125.413 451.007 151.07C469.371 176.726 479.687 211.523 479.688 247.806V247.806Z" fill="white"/>
<path d="M381.766 140.902C329.958 140.902 287.678 192.164 284.173 257.117C284.173 253.94 284.173 250.983 284.173 247.806C284.173 172.229 327.986 111 382.095 111C436.203 111 479.688 172.229 479.688 247.806C479.688 250.983 479.688 253.94 479.688 257.117C475.854 192.164 434.013 140.902 381.766 140.902Z" fill="#E0E0E0"/>
<path d="M479.688 247.806C479.688 284.09 469.371 318.887 451.007 344.543C432.643 370.199 407.736 384.613 381.766 384.613C355.796 384.613 330.889 370.199 312.525 344.543C294.161 318.887 283.845 284.09 283.845 247.806C283.845 211.523 294.161 176.726 312.525 151.07C330.889 125.413 355.796 111 381.766 111C407.736 111 432.643 125.413 451.007 151.07C469.371 176.726 479.687 211.523 479.688 247.806V247.806Z" stroke="#45413C" stroke-width="7" stroke-linecap="round" stroke-linejoin="round"/>
<path d="M479.688 249.778C479.688 266.946 472.867 283.412 460.728 295.552C448.588 307.691 432.123 314.512 414.954 314.512C397.786 314.512 381.321 307.691 369.181 295.552C357.041 283.412 350.221 266.946 350.221 249.778C350.221 232.609 357.041 216.144 369.181 204.004C381.321 191.864 397.786 185.044 414.954 185.044C432.123 185.044 448.588 191.864 460.728 204.004C472.867 216.144 479.688 232.609 479.688 249.778V249.778Z" fill="#656769"/>
<path d="M414.939 287.35C429.676 287.254 443.939 282.132 455.371 272.832C466.803 263.531 474.719 250.608 477.81 236.198C478.819 240.656 479.333 245.21 479.344 249.78C479.344 266.949 472.524 283.414 460.384 295.554C448.244 307.694 431.779 314.514 414.61 314.514C397.442 314.514 380.977 307.694 368.837 295.554C356.697 283.414 349.877 266.949 349.877 249.78C349.888 245.21 350.402 240.656 351.411 236.198C354.507 250.727 362.515 263.746 374.086 273.062C385.657 282.379 400.084 287.425 414.939 287.35V287.35Z" fill="#525252"/>
<path d="M479.688 249.778C479.688 266.946 472.867 283.412 460.728 295.552C448.588 307.691 432.123 314.512 414.954 314.512C397.786 314.512 381.321 307.691 369.181 295.552C357.041 283.412 350.221 266.946 350.221 249.778C350.221 232.609 357.041 216.144 369.181 204.004C381.321 191.864 397.786 185.044 414.954 185.044C432.123 185.044 448.588 191.864 460.728 204.004C472.867 216.144 479.688 232.609 479.688 249.778V249.778Z" stroke="#45413C" stroke-width="7" stroke-linecap="round" stroke-linejoin="round"/>
<path d="M431.766 207.389C431.766 209.829 429.988 212.17 426.825 213.895C423.662 215.621 419.371 216.59 414.898 216.59C410.424 216.59 406.134 215.621 402.97 213.895C399.807 212.17 398.03 209.829 398.03 207.389C398.03 204.949 399.807 202.609 402.97 200.883C406.134 199.158 410.424 198.188 414.898 198.188C419.371 198.188 423.662 199.158 426.825 200.883C429.988 202.609 431.766 204.949 431.766 207.389V207.389Z" fill="#87898C"/>
<path d="M211.844 247.806C211.844 284.09 201.527 318.887 183.163 344.543C164.799 370.199 139.893 384.613 113.922 384.613C87.9519 384.613 63.0452 370.199 44.6814 344.543C26.3176 318.887 16.0009 284.09 16.0009 247.806C16.0009 211.523 26.3176 176.726 44.6814 151.07C63.0452 125.413 87.9519 111 113.922 111C139.893 111 164.799 125.413 183.163 151.07C201.527 176.726 211.844 211.523 211.844 247.806V247.806Z" fill="white"/>
<path d="M113.766 140.902C61.957 140.902 19.6777 192.164 16.1727 257.117C16.1727 253.94 16.1727 250.983 16.1727 247.806C16.1727 172.229 59.9854 111 114.094 111C168.203 111 212.016 172.229 212.016 247.806C212.016 250.983 212.016 253.94 212.016 257.117C207.853 192.164 165.574 140.902 113.766 140.902Z" fill="#E0E0E0"/>
<path d="M211.844 247.806C211.844 284.09 201.527 318.887 183.163 344.543C164.799 370.199 139.893 384.613 113.922 384.613C87.9519 384.613 63.0452 370.199 44.6814 344.543C26.3176 318.887 16.0009 284.09 16.0009 247.806C16.0009 211.523 26.3176 176.726 44.6814 151.07C63.0452 125.413 87.9519 111 113.922 111C139.893 111 164.799 125.413 183.163 151.07C201.527 176.726 211.844 211.523 211.844 247.806V247.806Z" stroke="#45413C" stroke-width="7" stroke-linecap="round" stroke-linejoin="round"/>
<path d="M211.844 249.776C211.844 266.944 205.024 283.41 192.884 295.55C180.744 307.69 164.279 314.51 147.11 314.51C129.942 314.51 113.477 307.69 101.337 295.55C89.1972 283.41 82.3771 266.944 82.3771 249.776C82.3771 232.607 89.1972 216.142 101.337 204.002C113.477 191.862 129.942 185.042 147.11 185.042C164.279 185.042 180.744 191.862 192.884 204.002C205.024 216.142 211.844 232.607 211.844 249.776V249.776Z" fill="#656769"/>
<path d="M147.11 287.35C161.909 287.349 176.259 282.269 187.763 272.959C199.266 263.648 207.225 250.672 210.31 236.198C211.319 240.656 211.833 245.21 211.844 249.78C211.844 258.281 210.169 266.699 206.916 274.553C203.663 282.407 198.895 289.543 192.884 295.554C186.873 301.565 179.737 306.333 171.883 309.587C164.029 312.84 155.611 314.514 147.11 314.514C138.61 314.514 130.192 312.84 122.338 309.587C114.484 306.333 107.348 301.565 101.337 295.554C95.326 289.543 90.5578 282.407 87.3047 274.553C84.0515 266.699 82.3771 258.281 82.3771 249.78C82.2799 245.222 82.684 240.668 83.582 236.198C86.6788 250.727 94.6865 263.746 106.257 273.062C117.828 282.379 132.255 287.425 147.11 287.35Z" fill="#525252"/>
<path d="M211.844 249.776C211.844 266.944 205.024 283.41 192.884 295.55C180.744 307.69 164.279 314.51 147.11 314.51C129.942 314.51 113.477 307.69 101.337 295.55C89.1972 283.41 82.3771 266.944 82.3771 249.776C82.3771 232.607 89.1972 216.142 101.337 204.002C113.477 191.862 129.942 185.042 147.11 185.042C164.279 185.042 180.744 191.862 192.884 204.002C205.024 216.142 211.844 232.607 211.844 249.776V249.776Z" stroke="#45413C" stroke-width="7" stroke-linecap="round" stroke-linejoin="round"/>
<path d="M163.93 207.389C163.93 209.829 162.153 212.17 158.989 213.895C155.826 215.621 151.535 216.59 147.062 216.59C142.588 216.59 138.298 215.621 135.134 213.895C131.971 212.17 130.194 209.829 130.194 207.389C130.194 204.949 131.971 202.609 135.134 200.883C138.298 199.158 142.588 198.188 147.062 198.188C151.535 198.188 155.826 199.158 158.989 200.883C162.153 202.609 163.93 204.949 163.93 207.389V207.389Z" fill="#87898C"/>
</svg>
