<svg width="495" height="495" viewBox="0 0 495 495" fill="none" xmlns="http://www.w3.org/2000/svg">
<path d="M65.0625 208.481C65.0625 258.204 84.8149 305.891 119.974 341.051C155.134 376.21 202.821 395.963 252.544 395.963C302.267 395.963 349.953 376.21 385.113 341.051C420.273 305.891 440.025 258.204 440.025 208.481C440.025 158.758 420.273 111.072 385.113 75.912C349.953 40.7524 302.267 21 252.544 21C202.821 21 155.134 40.7524 119.974 75.912C84.8149 111.072 65.0625 158.758 65.0625 208.481V208.481Z" fill="#FFE500"/>
<path d="M252.539 21C215.43 20.9796 179.148 31.9665 148.284 52.5707C117.42 73.1749 93.361 102.471 79.1504 136.751C64.9398 171.032 61.2163 208.758 68.451 245.155C75.6857 281.552 93.5535 314.986 119.794 341.227C146.034 367.467 179.468 385.335 215.865 392.569C252.263 399.804 289.988 396.081 324.269 381.87C358.55 367.659 387.845 343.6 408.45 312.736C429.054 281.872 440.041 245.591 440.02 208.481C440.02 158.758 420.268 111.072 385.108 75.912C349.949 40.7525 302.262 21 252.539 21ZM252.539 367.913C218.673 367.933 185.561 357.908 157.394 339.105C129.226 320.303 107.269 293.568 94.2991 262.283C81.3296 230.999 77.9308 196.57 84.5328 163.353C91.1348 130.137 107.441 99.6244 131.388 75.6772C155.335 51.73 185.848 35.4239 219.064 28.8219C252.281 22.2198 286.71 25.6186 317.994 38.5882C349.279 51.5577 376.014 73.5152 394.816 101.683C413.619 129.85 423.644 162.962 423.624 196.828C423.624 219.295 419.198 241.542 410.6 262.299C402.003 283.056 389.401 301.916 373.514 317.803C357.627 333.69 338.767 346.292 318.01 354.89C297.253 363.487 275.006 367.913 252.539 367.913V367.913Z" fill="#EBCB00"/>
<path d="M196.336 58.5377C196.336 60.3795 197.79 62.2032 200.614 63.9048C203.439 65.6064 207.579 67.1525 212.797 68.4549C218.016 69.7572 224.212 70.7903 231.031 71.4951C237.85 72.1999 245.158 72.5627 252.539 72.5627C259.92 72.5627 267.228 72.1999 274.047 71.4951C280.866 70.7903 287.062 69.7572 292.281 68.4549C297.5 67.1525 301.64 65.6064 304.464 63.9048C307.288 62.2032 308.742 60.3795 308.742 58.5377C308.742 56.6959 307.288 54.8722 304.464 53.1706C301.64 51.469 297.5 49.9229 292.281 48.6205C287.062 47.3182 280.866 46.2851 274.047 45.5803C267.228 44.8755 259.92 44.5127 252.539 44.5127C245.158 44.5127 237.85 44.8755 231.031 45.5803C224.212 46.2851 218.016 47.3182 212.797 48.6205C207.579 49.9229 203.439 51.469 200.614 53.1706C197.79 54.8722 196.336 56.6959 196.336 58.5377V58.5377Z" fill="#FFF48C"/>
<path d="M65.0625 208.481C65.0625 258.204 84.8149 305.891 119.974 341.051C155.134 376.21 202.821 395.963 252.544 395.963C302.267 395.963 349.953 376.21 385.113 341.051C420.273 305.891 440.025 258.204 440.025 208.481C440.025 158.758 420.273 111.072 385.113 75.912C349.953 40.7524 302.267 21 252.544 21C202.821 21 155.134 40.7524 119.974 75.912C84.8149 111.072 65.0625 158.758 65.0625 208.481V208.481Z" stroke="#45413C" stroke-width="7" stroke-linecap="round" stroke-linejoin="round"/>
<path d="M388.459 255.404C388.459 263.138 378.147 269.429 365.05 269.429C351.953 269.429 341.641 263.138 341.641 255.404C341.641 247.669 351.953 241.275 365.05 241.275C378.147 241.275 388.459 247.669 388.459 255.404Z" fill="#FFAA54"/>
<path d="M116.625 255.404C116.625 263.138 126.938 269.429 140.034 269.429C153.131 269.429 163.444 263.138 163.444 255.404C163.444 247.669 153.131 241.275 140.034 241.275C126.938 241.275 116.625 247.669 116.625 255.404Z" fill="#FFAA54"/>
<path d="M149.414 316.35C149.414 331.256 160.279 345.551 179.619 356.091C198.958 366.631 225.189 372.553 252.539 372.553C279.89 372.553 306.12 366.631 325.459 356.091C344.799 345.551 355.664 331.256 355.664 316.35C355.664 301.444 344.799 287.148 325.459 276.608C306.12 266.068 279.89 260.146 252.539 260.146C225.189 260.146 198.958 266.068 179.619 276.608C160.279 287.148 149.414 301.444 149.414 316.35V316.35Z" fill="#FFB0CA" stroke="#45413C" stroke-width="7" stroke-linecap="round" stroke-linejoin="round"/>
<path d="M353.397 158.466C331.343 154.873 310.89 144.701 294.719 129.281" stroke="#45413C" stroke-width="7" stroke-linecap="round" stroke-linejoin="round"/>
<path d="M151.688 158.466C173.741 154.873 194.194 144.701 210.366 129.281" stroke="#45413C" stroke-width="7" stroke-linecap="round" stroke-linejoin="round"/>
<path d="M345.351 405.965C350.727 405.716 356.08 406.815 360.923 409.162C363.787 410.43 366.325 412.333 368.344 414.727C370.363 417.121 371.811 419.944 372.576 422.981C394.026 432.572 399.595 443.606 398.358 455.981C397.12 468.356 388.045 474.75 351.539 474.75H154.158C117.754 474.75 108.37 468.459 107.236 455.981C106.101 443.503 112.804 430.2 140.648 419.99C138.17 416.743 136.535 412.932 135.888 408.898C135.241 404.865 135.602 400.734 136.94 396.874C138.278 393.014 140.55 389.545 143.554 386.777C146.559 384.009 150.201 382.027 154.158 381.009C172.101 378.019 172.823 362.24 172.823 338.831V280.669C196.909 266.391 224.551 259.239 252.539 260.044C280.527 259.239 308.169 266.391 332.254 280.669V348.215C332.254 365.025 334.214 390.29 345.351 405.965Z" fill="#6DD627"/>
<path d="M332.259 316.762V280.669C308.174 266.391 280.532 259.239 252.544 260.044C224.556 259.239 196.914 266.391 172.828 280.669V316.762C196.914 302.484 224.556 295.333 252.544 296.137C280.532 295.333 308.174 302.484 332.259 316.762V316.762Z" fill="#46B000"/>
<path d="M345.351 405.965C350.727 405.716 356.08 406.815 360.923 409.162C363.787 410.43 366.325 412.333 368.344 414.727C370.363 417.121 371.811 419.944 372.576 422.981C394.026 432.572 399.595 443.606 398.358 455.981C397.12 468.356 388.045 474.75 351.539 474.75H154.158C117.754 474.75 108.37 468.459 107.236 455.981C106.101 443.503 112.804 430.2 140.648 419.99C138.17 416.743 136.535 412.932 135.888 408.898C135.241 404.865 135.602 400.734 136.94 396.874C138.278 393.014 140.55 389.545 143.554 386.777C146.559 384.009 150.201 382.027 154.158 381.009C172.101 378.019 172.823 362.24 172.823 338.831V280.669C196.909 266.391 224.551 259.239 252.539 260.044C280.527 259.239 308.169 266.391 332.254 280.669V348.215C332.254 365.025 334.214 390.29 345.351 405.965Z" stroke="#45413C" stroke-width="7" stroke-linecap="round" stroke-linejoin="round"/>
<path d="M294.719 320.062C294.719 356.362 301.525 398.541 318.231 404.419C334.938 410.297 345.147 401.841 360.409 409.162C363.981 410.816 367.006 413.457 369.125 416.773C371.245 420.09 372.371 423.944 372.371 427.88C372.371 431.816 371.245 435.67 369.125 438.986C367.006 442.303 363.981 444.944 360.409 446.597" stroke="#45413C" stroke-width="7" stroke-linecap="round" stroke-linejoin="round"/>
<path d="M172.827 338.831C172.827 362.24 172.105 378.019 154.161 381.009C136.217 384 128.071 413.597 144.777 423.187C151.696 426.695 159.375 428.436 167.13 428.256C174.885 428.076 182.475 425.981 189.224 422.156" stroke="#45413C" stroke-width="7" stroke-linecap="round" stroke-linejoin="round"/>
<path d="M205.722 348.216C205.722 348.216 203.557 408.235 182.21 432.572C168.597 448.144 167.36 474.75 182.21 474.75" stroke="#45413C" stroke-width="7" stroke-linecap="round" stroke-linejoin="round"/>
<path d="M266.57 371.625C266.57 371.625 274.82 423.187 285.339 432.572C295.858 441.956 310.605 437.212 322.877 441.956C335.148 446.7 337.314 474.75 318.236 474.75" stroke="#45413C" stroke-width="7" stroke-linecap="round" stroke-linejoin="round"/>
<path d="M233.772 474.75C229.039 472.014 225.471 467.639 223.742 462.453C222.013 457.266 222.243 451.626 224.388 446.597" stroke="#45413C" stroke-width="7" stroke-linecap="round" stroke-linejoin="round"/>
<path d="M410.633 381.938C410.633 381.938 414.758 364.613 419.708 348.835C420.092 345.357 421.718 342.135 424.287 339.759C426.855 337.383 430.194 336.013 433.691 335.9C437.188 335.787 440.609 336.939 443.325 339.145C446.042 341.35 447.872 344.461 448.48 347.906C454.977 364.716 434.764 380.906 410.633 381.938Z" fill="#6DD627" stroke="#45413C" stroke-width="7" stroke-linecap="round" stroke-linejoin="round"/>
<path d="M411.562 419.784C418.307 415.779 424.51 410.927 430.022 405.347C439.097 395.034 458.588 411.019 444.459 423.909C430.331 436.8 411.562 419.784 411.562 419.784Z" fill="#6DD627" stroke="#45413C" stroke-width="7" stroke-linecap="round" stroke-linejoin="round"/>
<path d="M85.8925 422.053C82.0248 411.899 79.4606 401.296 78.2613 390.497C77.23 371.625 42.4769 371.934 46.2925 398.025C50.1082 424.116 85.8925 422.053 85.8925 422.053Z" fill="#6DD627" stroke="#45413C" stroke-width="7" stroke-linecap="round" stroke-linejoin="round"/>
<path d="M171.047 184.844C171.047 186.883 171.652 188.877 172.785 190.573C173.918 192.269 175.529 193.591 177.413 194.371C179.297 195.152 181.371 195.356 183.371 194.958C185.372 194.56 187.209 193.578 188.651 192.136C190.094 190.694 191.076 188.856 191.474 186.856C191.872 184.855 191.667 182.782 190.887 180.897C190.106 179.013 188.785 177.402 187.089 176.269C185.393 175.136 183.399 174.531 181.359 174.531C178.624 174.531 176.001 175.618 174.067 177.552C172.133 179.486 171.047 182.109 171.047 184.844Z" fill="#45413C" stroke="#45413C" stroke-width="7" stroke-linecap="round" stroke-linejoin="round"/>
<path d="M304 179.812C304 181.852 304.605 183.846 305.738 185.542C306.871 187.238 308.482 188.559 310.366 189.34C312.25 190.121 314.324 190.325 316.324 189.927C318.325 189.529 320.162 188.547 321.605 187.105C323.047 185.662 324.029 183.825 324.427 181.824C324.825 179.824 324.621 177.75 323.84 175.866C323.059 173.982 321.738 172.371 320.042 171.238C318.346 170.105 316.352 169.5 314.312 169.5C311.577 169.5 308.954 170.586 307.02 172.52C305.086 174.454 304 177.077 304 179.812Z" fill="#45413C" stroke="#45413C" stroke-width="7" stroke-linecap="round" stroke-linejoin="round"/>
</svg>
