<svg width="495" height="495" viewBox="0 0 495 495" fill="none" xmlns="http://www.w3.org/2000/svg">
<path d="M40.4005 126.628C40.4005 126.628 32.6662 166.537 30.088 201.806C28.2936 223.219 28.2936 244.744 30.088 266.156H83.713V126.628H40.4005Z" fill="#00B8F0"/>
<path d="M29.0547 246.665C29.0547 258.627 30.1891 266.155 30.1891 266.155H83.8141V160.968L29.0547 246.665Z" fill="#4ACFFF"/>
<path d="M40.4005 126.628C40.4005 126.628 32.6662 166.537 30.088 201.806C28.2936 223.219 28.2936 244.744 30.088 266.156H83.713V126.628H40.4005Z" stroke="#45413C" stroke-width="7" stroke-linecap="round" stroke-linejoin="round"/>
<path d="M461.356 335.868H24.3125V266.155C24.3125 263.42 25.399 260.797 27.333 258.863C29.2669 256.929 31.89 255.843 34.625 255.843H41.3281C43.8935 255.856 46.3716 254.912 48.2785 253.196C50.1854 251.479 51.3841 249.114 51.6406 246.562L65.6656 143.437C65.7681 142.683 65.709 141.916 65.4923 141.187C65.2756 140.458 64.9063 139.783 64.4089 139.208C63.9115 138.632 63.2973 138.169 62.6072 137.849C61.9171 137.529 61.1669 137.36 60.4062 137.352H35.7594C34.9999 137.357 34.2481 137.201 33.5536 136.894C32.8591 136.586 32.2378 136.135 31.7308 135.57C31.2238 135.004 30.8427 134.337 30.6128 133.614C30.3828 132.89 30.3092 132.125 30.3969 131.371L32.6656 113.324C33.2968 108.111 35.8185 103.31 39.753 99.8317C43.6874 96.3535 48.7611 94.4394 54.0125 94.4522H429.181C437.715 94.4522 445.898 97.8421 451.932 103.876C457.966 109.91 461.356 118.094 461.356 126.627V335.868Z" fill="#FFE500"/>
<path d="M429.182 94.4522H54.0134C48.7619 94.4394 43.6882 96.3535 39.7538 99.8317C35.8194 103.31 33.2977 108.111 32.6665 113.324L30.3977 131.371C30.2802 132.478 30.5036 133.595 31.038 134.572C31.5725 135.548 32.3925 136.339 33.3884 136.837C34.6663 132.352 37.3709 128.406 41.0925 125.596C44.8142 122.786 49.3501 121.266 54.0134 121.265H429.182C437.715 121.265 445.899 124.655 451.933 130.689C457.967 136.723 461.357 144.906 461.357 153.44V126.627C461.357 118.094 457.967 109.91 451.933 103.876C445.899 97.8421 437.715 94.4522 429.182 94.4522Z" fill="#FFF48C"/>
<path d="M461.356 335.868H24.3125V266.155C24.3125 263.42 25.399 260.797 27.333 258.863C29.2669 256.929 31.89 255.843 34.625 255.843H41.3281C43.8935 255.856 46.3716 254.912 48.2785 253.196C50.1854 251.479 51.3841 249.114 51.6406 246.562L65.6656 143.437C65.7681 142.683 65.709 141.916 65.4923 141.187C65.2756 140.458 64.9063 139.783 64.4089 139.208C63.9115 138.632 63.2973 138.169 62.6072 137.849C61.9171 137.529 61.1669 137.36 60.4062 137.352H35.7594C34.9999 137.357 34.2481 137.201 33.5536 136.894C32.8591 136.586 32.2378 136.135 31.7308 135.57C31.2238 135.004 30.8427 134.337 30.6128 133.614C30.3828 132.89 30.3092 132.125 30.3969 131.371L32.6656 113.324C33.2968 108.111 35.8185 103.31 39.753 99.8317C43.6874 96.3535 48.7611 94.4394 54.0125 94.4522H429.181C437.715 94.4522 445.898 97.8421 451.932 103.876C457.966 109.91 461.356 118.094 461.356 126.627V335.868Z" stroke="#45413C" stroke-width="7" stroke-linecap="round" stroke-linejoin="round"/>
<path d="M24.3133 335.868H461.357C462.779 335.868 464.143 336.433 465.149 337.439C466.155 338.444 466.72 339.808 466.72 341.231V368.043C466.72 370.778 465.633 373.401 463.699 375.335C461.765 377.269 459.142 378.356 456.407 378.356H29.6758C26.9408 378.356 24.3177 377.269 22.3838 375.335C20.4498 373.401 19.3633 370.778 19.3633 368.043V341.231C19.3593 339.877 19.8673 338.572 20.7854 337.577C21.7035 336.583 22.9638 335.972 24.3133 335.868Z" fill="#656769"/>
<path d="M461.355 335.868H24.3109C23.5896 335.84 22.87 335.959 22.1954 336.216C21.5208 336.473 20.905 336.863 20.385 337.364C19.865 337.865 19.4515 338.465 19.1692 339.13C18.8869 339.794 18.7417 340.509 18.7422 341.231V346.593C18.7422 349.328 19.8287 351.951 21.7626 353.885C23.6966 355.819 26.3196 356.906 29.0547 356.906H455.992C458.727 356.906 461.35 355.819 463.284 353.885C465.218 351.951 466.305 349.328 466.305 346.593V341.231C466.309 339.877 465.801 338.572 464.883 337.578C463.965 336.583 462.704 335.972 461.355 335.868Z" fill="#87898C"/>
<path d="M24.3133 335.868H461.357C462.779 335.868 464.143 336.433 465.149 337.439C466.155 338.444 466.72 339.808 466.72 341.231V368.043C466.72 370.778 465.633 373.401 463.699 375.335C461.765 377.269 459.142 378.356 456.407 378.356H29.6758C26.9408 378.356 24.3177 377.269 22.3838 375.335C20.4498 373.401 19.3633 370.778 19.3633 368.043V341.231C19.3593 339.877 19.8673 338.572 20.7854 337.577C21.7035 336.583 22.9638 335.972 24.3133 335.868V335.868Z" stroke="#45413C" stroke-width="7" stroke-linecap="round" stroke-linejoin="round"/>
<path d="M380.919 94.4526H110.113L113.516 81.1494C114.02 78.8041 115.325 76.7074 117.207 75.2205C119.089 73.7335 121.431 72.9492 123.829 73.0026H367.204C369.602 72.9492 371.944 73.7335 373.826 75.2205C375.708 76.7074 377.013 78.8041 377.516 81.1494L380.919 94.4526Z" fill="#FFF48C" stroke="#45413C" stroke-width="7" stroke-linecap="round" stroke-linejoin="round"/>
<path d="M149.299 255.43H94.8488C94.0795 255.437 93.3177 255.279 92.6152 254.965C91.9126 254.652 91.2857 254.191 90.777 253.614C90.2683 253.036 89.8898 252.357 89.6671 251.62C89.4444 250.884 89.3827 250.108 89.4863 249.346L103.511 146.221C103.768 143.668 104.967 141.303 106.873 139.587C108.78 137.871 111.258 136.927 113.824 136.94H418.455C421.19 136.94 423.813 138.026 425.747 139.96C427.681 141.894 428.768 144.517 428.768 147.252V211.705C428.768 214.44 427.681 217.063 425.747 218.997C423.813 220.931 421.19 222.018 418.455 222.018H172.811C170.309 221.993 167.883 222.879 165.986 224.511C164.088 226.143 162.849 228.409 162.499 230.886L160.127 245.221C159.969 247.984 158.759 250.582 156.745 252.481C154.731 254.379 152.067 255.435 149.299 255.43Z" fill="#00B8F0"/>
<path d="M201.789 223.462L254.795 137.662L396.386 137.353L343.277 223.256L201.789 223.462Z" fill="#4ACFFF"/>
<path d="M149.299 255.43H94.8488C94.0795 255.437 93.3177 255.279 92.6152 254.965C91.9126 254.652 91.2857 254.191 90.777 253.614C90.2683 253.036 89.8898 252.357 89.6671 251.62C89.4444 250.884 89.3827 250.108 89.4863 249.346L103.511 146.221C103.768 143.668 104.967 141.303 106.873 139.587C108.78 137.871 111.258 136.927 113.824 136.94H418.455C421.19 136.94 423.813 138.026 425.747 139.96C427.681 141.894 428.768 144.517 428.768 147.252V211.705C428.768 214.44 427.681 217.063 425.747 218.997C423.813 220.931 421.19 222.018 418.455 222.018H172.811C170.309 221.993 167.883 222.879 165.986 224.511C164.088 226.143 162.849 228.409 162.499 230.886L160.127 245.221C159.969 247.984 158.759 250.582 156.745 252.481C154.731 254.379 152.067 255.435 149.299 255.43V255.43Z" stroke="#45413C" stroke-width="7" stroke-linecap="round" stroke-linejoin="round"/>
<path d="M24.3125 287.605H461.356V335.868H24.3125V287.605Z" fill="#FF8A14" stroke="#45413C" stroke-width="7" stroke-linecap="round" stroke-linejoin="round"/>
<path d="M24.3125 282.449H34.625V314.418H24.3125C21.5775 314.418 18.9544 313.331 17.0205 311.397C15.0865 309.464 14 306.841 14 304.105V292.762C14 290.027 15.0865 287.404 17.0205 285.47C18.9544 283.536 21.5775 282.449 24.3125 282.449Z" fill="#FF6242" stroke="#45413C" stroke-width="7" stroke-linecap="round" stroke-linejoin="round"/>
<path d="M461.355 276.881H471.668C474.403 276.881 477.026 277.967 478.96 279.901C480.894 281.835 481.98 284.458 481.98 287.193V303.281C481.98 306.016 480.894 308.639 478.96 310.573C477.026 312.507 474.403 313.593 471.668 313.593H461.355V276.881Z" fill="#FF6242" stroke="#45413C" stroke-width="7" stroke-linecap="round" stroke-linejoin="round"/>
<path d="M56.4883 378.768C56.4883 390.146 61.0081 401.058 69.0534 409.103C77.0987 417.148 88.0105 421.668 99.3883 421.668C110.766 421.668 121.678 417.148 129.723 409.103C137.768 401.058 142.288 390.146 142.288 378.768C142.288 367.39 137.768 356.479 129.723 348.433C121.678 340.388 110.766 335.868 99.3883 335.868C88.0105 335.868 77.0987 340.388 69.0534 348.433C61.0081 356.479 56.4883 367.39 56.4883 378.768Z" fill="#525252"/>
<path d="M343.383 378.768C343.383 390.146 347.903 401.058 355.948 409.103C363.993 417.148 374.905 421.668 386.283 421.668C397.661 421.668 408.572 417.148 416.618 409.103C424.663 401.058 429.183 390.146 429.183 378.768C429.183 367.39 424.663 356.479 416.618 348.433C408.572 340.388 397.661 335.868 386.283 335.868C374.905 335.868 363.993 340.388 355.948 348.433C347.903 356.479 343.383 367.39 343.383 378.768Z" fill="#525252"/>
<path d="M99.3875 357.318C108.849 357.381 118.024 360.571 125.484 366.39C132.945 372.209 138.272 380.332 140.637 389.493C141.511 386.122 141.996 382.662 142.081 379.18C142.081 367.802 137.561 356.891 129.516 348.845C121.471 340.8 110.559 336.28 99.1812 336.28C87.8035 336.28 76.8917 340.8 68.8464 348.845C60.8011 356.891 56.2813 367.802 56.2812 379.18C56.3586 382.669 56.8783 386.135 57.8281 389.493C60.1906 380.272 65.56 372.101 73.0868 366.274C80.6137 360.447 89.8685 357.295 99.3875 357.318Z" fill="#656769"/>
<path d="M386.28 357.318C395.746 357.364 404.93 360.547 412.394 366.369C419.858 372.191 425.181 380.323 427.53 389.493C428.48 386.135 429 382.669 429.077 379.18C429.077 367.802 424.558 356.891 416.512 348.845C408.467 340.8 397.555 336.28 386.177 336.28C374.8 336.28 363.888 340.8 355.842 348.845C347.797 356.891 343.277 367.802 343.277 379.18C343.363 382.662 343.847 386.122 344.721 389.493C347.1 380.28 352.473 372.12 359.997 366.296C367.52 360.471 376.766 357.313 386.28 357.318Z" fill="#656769"/>
<path d="M56.4883 378.768C56.4883 390.146 61.0081 401.058 69.0534 409.103C77.0987 417.148 88.0105 421.668 99.3883 421.668C110.766 421.668 121.678 417.148 129.723 409.103C137.768 401.058 142.288 390.146 142.288 378.768C142.288 367.39 137.768 356.479 129.723 348.433C121.678 340.388 110.766 335.868 99.3883 335.868C88.0105 335.868 77.0987 340.388 69.0534 348.433C61.0081 356.479 56.4883 367.39 56.4883 378.768V378.768Z" stroke="#45413C" stroke-width="7" stroke-linecap="round" stroke-linejoin="round"/>
<path d="M343.383 378.768C343.383 390.146 347.903 401.058 355.948 409.103C363.993 417.148 374.905 421.668 386.283 421.668C397.661 421.668 408.572 417.148 416.618 409.103C424.663 401.058 429.183 390.146 429.183 378.768C429.183 367.39 424.663 356.479 416.618 348.433C408.572 340.388 397.661 335.868 386.283 335.868C374.905 335.868 363.993 340.388 355.948 348.433C347.903 356.479 343.383 367.39 343.383 378.768V378.768Z" stroke="#45413C" stroke-width="7" stroke-linecap="round" stroke-linejoin="round"/>
<path d="M83.3008 378.768C83.3008 383.035 84.9957 387.127 88.0127 390.144C91.0297 393.161 95.1216 394.856 99.3883 394.856C103.655 394.856 107.747 393.161 110.764 390.144C113.781 387.127 115.476 383.035 115.476 378.768C115.476 374.502 113.781 370.41 110.764 367.393C107.747 364.376 103.655 362.681 99.3883 362.681C95.1216 362.681 91.0297 364.376 88.0127 367.393C84.9957 370.41 83.3008 374.502 83.3008 378.768Z" fill="#DAEDF7" stroke="#45413C" stroke-width="7" stroke-linecap="round" stroke-linejoin="round"/>
<path d="M370.195 378.768C370.195 383.035 371.89 387.127 374.907 390.144C377.924 393.161 382.016 394.856 386.283 394.856C390.549 394.856 394.641 393.161 397.658 390.144C400.675 387.127 402.37 383.035 402.37 378.768C402.37 374.502 400.675 370.41 397.658 367.393C394.641 364.376 390.549 362.681 386.283 362.681C382.016 362.681 377.924 364.376 374.907 367.393C371.89 370.41 370.195 374.502 370.195 378.768Z" fill="#DAEDF7" stroke="#45413C" stroke-width="7" stroke-linecap="round" stroke-linejoin="round"/>
<path d="M72.5742 115.902H94.0242" stroke="#45413C" stroke-width="7" stroke-linecap="round" stroke-linejoin="round"/>
<path d="M397.008 115.902H418.458" stroke="#45413C" stroke-width="7" stroke-linecap="round" stroke-linejoin="round"/>
</svg>
