<svg width="495" height="495" viewBox="0 0 495 495" fill="none" xmlns="http://www.w3.org/2000/svg">
<path d="M15 247.25C15 301.951 36.7298 354.411 75.4092 393.091C114.089 431.77 166.549 453.5 221.25 453.5C275.951 453.5 328.411 431.77 367.091 393.091C405.77 354.411 427.5 301.951 427.5 247.25C427.5 192.549 405.77 140.089 367.091 101.409C328.411 62.7298 275.951 41 221.25 41C166.549 41 114.089 62.7298 75.4092 101.409C36.7298 140.089 15 192.549 15 247.25Z" fill="#FFE500"/>
<path d="M221.25 41C180.458 41 140.581 53.0964 106.664 75.7594C72.7461 98.4224 46.3105 130.634 30.6999 168.322C15.0894 206.009 11.0049 247.479 18.9631 287.487C26.9213 327.496 46.5647 364.246 75.4093 393.091C104.254 421.935 141.004 441.579 181.013 449.537C221.021 457.495 262.491 453.411 300.179 437.8C337.866 422.19 370.078 395.754 392.741 361.836C415.404 327.919 427.5 288.042 427.5 247.25C427.5 220.165 422.165 193.345 411.8 168.322C401.435 143.298 386.243 120.561 367.091 101.409C347.939 82.2571 325.202 67.0649 300.179 56.6998C275.155 46.3348 248.335 41 221.25 41ZM221.25 422.562C184.027 422.562 147.64 411.525 116.69 390.845C85.7402 370.165 61.6177 340.771 47.3731 306.382C33.1284 271.992 29.4014 234.151 36.6632 197.643C43.9251 161.135 61.8497 127.6 88.1704 101.28C114.491 74.959 148.026 57.0344 184.534 49.7725C221.041 42.5107 258.883 46.2377 293.272 60.4824C327.662 74.727 357.055 98.8495 377.735 129.799C398.415 160.749 409.453 197.136 409.453 234.359C409.453 284.274 389.625 332.144 354.33 367.439C319.035 402.734 271.165 422.562 221.25 422.562Z" fill="#EBCB00"/>
<path d="M159.375 82.25C159.375 86.3526 165.894 90.2871 177.498 93.1881C189.102 96.089 204.84 97.7188 221.25 97.7188C237.66 97.7188 253.398 96.089 265.002 93.1881C276.606 90.2871 283.125 86.3526 283.125 82.25C283.125 78.1474 276.606 74.2129 265.002 71.3119C253.398 68.411 237.66 66.7812 221.25 66.7812C204.84 66.7812 189.102 68.411 177.498 71.3119C165.894 74.2129 159.375 78.1474 159.375 82.25Z" fill="#FFF48C"/>
<path d="M15 247.25C15 301.951 36.7298 354.411 75.4092 393.091C114.089 431.77 166.549 453.5 221.25 453.5C275.951 453.5 328.411 431.77 367.091 393.091C405.77 354.411 427.5 301.951 427.5 247.25C427.5 192.549 405.77 140.089 367.091 101.409C328.411 62.7298 275.951 41 221.25 41C166.549 41 114.089 62.7298 75.4092 101.409C36.7298 140.089 15 192.549 15 247.25V247.25Z" stroke="#45413C" stroke-width="7" stroke-linecap="round" stroke-linejoin="round"/>
<path d="M71.7188 298.812C71.7188 307.372 83.2688 314.281 97.5 314.281C111.731 314.281 123.281 307.372 123.281 298.812C123.281 290.253 111.731 283.344 97.5 283.344C83.2688 283.344 71.7188 290.253 71.7188 298.812Z" fill="#FFAA54"/>
<path d="M308.906 249.828C308.906 245.042 310.808 240.452 314.192 237.067C317.577 233.683 322.167 231.781 326.953 231.781C331.739 231.781 336.33 233.683 339.714 237.067C343.099 240.452 345 245.042 345 249.828" stroke="#45413C" stroke-width="7" stroke-linecap="round" stroke-linejoin="round"/>
<path d="M97.5 236.938C97.5 238.977 98.1048 240.971 99.238 242.667C100.371 244.363 101.982 245.684 103.866 246.465C105.75 247.246 107.824 247.45 109.824 247.052C111.825 246.654 113.662 245.672 115.105 244.23C116.547 242.787 117.529 240.95 117.927 238.949C118.325 236.949 118.121 234.875 117.34 232.991C116.559 231.107 115.238 229.496 113.542 228.363C111.846 227.23 109.852 226.625 107.812 226.625C105.077 226.625 102.454 227.711 100.52 229.645C98.5865 231.579 97.5 234.202 97.5 236.938Z" fill="#45413C" stroke="#45413C" stroke-width="7" stroke-linecap="round" stroke-linejoin="round"/>
<path d="M221.352 316.86C224.485 315.042 228.042 314.082 231.664 314.075C237.134 314.075 242.38 316.248 246.248 320.116C250.116 323.984 252.289 329.23 252.289 334.7C252.289 340.17 250.116 345.416 246.248 349.284C242.38 353.152 237.134 355.325 231.664 355.325C237.134 355.325 242.38 357.498 246.248 361.366C250.116 365.234 252.289 370.48 252.289 375.95C252.289 381.42 250.116 386.666 246.248 390.534C242.38 394.402 237.134 396.575 231.664 396.575C228.042 396.569 224.485 395.608 221.352 393.791" stroke="#45413C" stroke-width="7" stroke-linecap="round" stroke-linejoin="round"/>
</svg>
