<svg width="495" height="495" viewBox="0 0 495 495" fill="none" xmlns="http://www.w3.org/2000/svg">
<path d="M317.828 316.182L284.416 344.541C261.258 360.903 234.956 372.28 207.175 377.954C179.434 383.655 153.172 395.031 130.038 411.366L96.8313 434.776C95.7757 435.535 94.5781 436.074 93.3098 436.361C92.0415 436.648 90.7284 436.677 89.4486 436.446C88.1689 436.215 86.9488 435.729 85.8608 435.017C84.7728 434.305 83.8392 433.381 83.1156 432.301L11.8563 329.176C10.9173 327.765 10.3823 326.125 10.3094 324.432L5.35938 262.557L316.797 248.429L321.541 308.241C321.589 309.763 321.278 311.276 320.633 312.655C319.988 314.035 319.027 315.243 317.828 316.182Z" fill="#6DD627" stroke="#45413C" stroke-width="7" stroke-linecap="round" stroke-linejoin="round"/>
<path d="M119.728 196.453C91.9726 202.109 65.7012 213.488 42.5904 229.866L9.28105 253.275C7.2441 254.852 5.87106 257.134 5.43211 259.672C4.99315 262.211 5.52007 264.821 6.90917 266.991L77.8592 367.538C79.436 369.575 81.7182 370.948 84.2565 371.387C86.7948 371.826 89.4055 371.299 91.5748 369.91L124.884 346.397C148.042 330.103 174.295 318.731 202.022 312.985C229.803 307.311 256.104 295.934 279.262 279.572L312.469 256.163C314.505 254.586 315.879 252.304 316.318 249.765C316.756 247.227 316.23 244.616 314.84 242.447L243.89 141.9C242.314 139.863 240.031 138.49 237.493 138.051C234.955 137.612 232.344 138.139 230.175 139.528L196.969 163.041C173.792 179.369 147.498 190.743 119.728 196.453Z" fill="#6DD627" stroke="#45413C" stroke-width="7" stroke-linecap="round" stroke-linejoin="round"/>
<path d="M41.2479 272.972L83.8385 333.197C85.4154 335.234 87.6975 336.607 90.2358 337.046C92.7741 337.485 95.3848 336.958 97.5541 335.569L114.673 323.504C137.82 307.123 164.126 295.744 191.913 290.091C219.654 284.39 245.917 273.014 269.051 256.679L278.229 250.285C280.249 248.693 281.602 246.404 282.022 243.867C282.442 241.329 281.898 238.726 280.498 236.569L238.01 176.241C236.433 174.204 234.151 172.831 231.613 172.392C229.075 171.953 226.464 172.48 224.295 173.869L207.073 185.625C183.962 202.003 157.691 213.383 129.935 219.038C102.183 224.802 75.8989 236.171 52.6947 252.45L43.6197 258.947C41.4993 260.533 40.0703 262.874 39.6288 265.485C39.1872 268.096 39.767 270.777 41.2479 272.972Z" fill="#E4FFD1" stroke="#45413C" stroke-width="7" stroke-linecap="round" stroke-linejoin="round"/>
<path d="M188.718 244.509C192.327 254.822 182.84 267.506 167.474 272.869C152.108 278.231 136.537 274.416 133.03 264.206C129.524 253.997 138.908 241.209 154.377 235.744C169.846 230.278 185.624 234.3 188.718 244.509Z" fill="#9CEB60" stroke="#45413C" stroke-width="7" stroke-linecap="round" stroke-linejoin="round"/>
<path d="M84.6641 371.869L89.8203 436.425" stroke="#45413C" stroke-width="7" stroke-linecap="round" stroke-linejoin="round"/>
<path d="M319.688 291.844L285.347 320.925C261.17 338.025 233.711 349.928 204.703 355.884V355.884C175.719 361.759 148.285 373.632 124.162 390.741L88.1719 416.419" stroke="#45413C" stroke-width="7" stroke-linecap="round" stroke-linejoin="round"/>
<path d="M318.348 270.188L284.008 299.062C259.862 316.129 232.437 327.998 203.467 333.919V333.919C174.487 339.906 147.041 351.768 122.823 368.775L86.5234 394.659" stroke="#45413C" stroke-width="7" stroke-linecap="round" stroke-linejoin="round"/>
<path d="M87.6562 409.509L7.73438 293.906L87.6562 409.509Z" fill="#FFAA54"/>
<path d="M87.6562 409.509L7.73438 293.906" stroke="#45413C" stroke-width="7" stroke-linecap="round" stroke-linejoin="round"/>
</svg>
