<svg width="495" height="495" viewBox="0 0 495 495" fill="none" xmlns="http://www.w3.org/2000/svg">
<path d="M348.727 84.9533C348.717 106.885 366.052 138.373 366.052 138.373C366.052 138.373 403.023 160.454 428.134 157.142C454.03 153.727 495.264 144.82 484.442 121.048C477.441 105.67 454.455 116.582 445.46 102.279C436.455 87.9599 457.029 71.3053 445.46 58.9653C433.12 45.8025 414.718 68.2679 399.259 58.9653C383.913 49.731 394.144 25.4037 377.602 18.5394C351.48 7.70008 348.738 56.6717 348.727 84.9533Z" fill="#FF0099" stroke="black" stroke-width="10"/>
<ellipse cx="246.697" cy="246.011" rx="160.961" ry="113.037" transform="rotate(-41.6958 246.697 246.011)" fill="#FFD366" stroke="black" stroke-width="10"/>
<path d="M363.445 270C332.381 217.994 285.283 169.02 230.712 131C191.886 146.105 164.42 162.385 139.945 206C202.558 239.528 257.033 292.362 280.945 353.5C320.735 330.973 340.218 311.491 363.445 270Z" fill="#FF0099"/>
</svg>
