<svg width="496" height="496" viewBox="0 0 496 496" fill="none" xmlns="http://www.w3.org/2000/svg">
<path d="M31.7246 334.284H121.728C129.347 333.958 136.954 335.177 144.089 337.868C151.225 340.559 157.742 344.666 163.249 349.942C168.755 355.218 173.137 361.554 176.131 368.568C179.124 375.582 180.668 383.13 180.668 390.756C180.668 398.382 179.124 405.929 176.131 412.943C173.137 419.957 168.755 426.293 163.249 431.569C157.742 436.845 151.225 440.952 144.089 443.643C136.954 446.334 129.347 447.553 121.728 447.227H84.0113C79.2509 446.875 74.8 444.735 71.5517 441.237C68.3035 437.739 66.4982 433.143 66.4982 428.369C66.4982 423.596 68.3035 418.999 71.5517 415.501C74.8 412.003 79.2509 409.863 84.0113 409.511H55.698C50.7101 409.511 45.9266 407.529 42.3996 404.002C38.8727 400.476 36.8913 395.692 36.8913 390.704C36.8913 385.716 38.8727 380.933 42.3996 377.406C45.9266 373.879 50.7101 371.897 55.698 371.897H31.7246C26.7368 371.897 21.9532 369.916 18.4263 366.389C14.8994 362.862 12.918 358.079 12.918 353.091C12.918 348.103 14.8994 343.319 18.4263 339.792C21.9532 336.266 26.7368 334.284 31.7246 334.284Z" fill="white"/>
<path d="M84.0372 426.871H121.754C134.959 426.868 147.744 422.234 157.883 413.775C168.023 405.316 174.874 393.568 177.244 380.578C177.918 383.982 178.264 387.442 178.277 390.911C178.277 405.902 172.322 420.279 161.722 430.879C151.122 441.48 136.745 447.435 121.754 447.435H84.0372C79.0578 447.408 74.29 445.418 70.7689 441.896C67.2478 438.375 65.2577 433.608 65.2306 428.628C65.2196 424.968 66.2597 421.381 68.2272 418.295C69.9223 420.945 72.2616 423.121 75.0266 424.621C77.7915 426.121 80.8917 426.895 84.0372 426.871Z" fill="#E5FEFF"/>
<path d="M31.7246 334.284H121.728C129.347 333.958 136.954 335.177 144.089 337.868C151.225 340.559 157.742 344.666 163.249 349.942C168.755 355.218 173.137 361.554 176.131 368.568C179.124 375.582 180.668 383.13 180.668 390.756C180.668 398.382 179.124 405.929 176.131 412.943C173.137 419.957 168.755 426.293 163.249 431.569C157.742 436.845 151.225 440.952 144.089 443.643C136.954 446.334 129.347 447.553 121.728 447.227H84.0113C79.2509 446.875 74.8 444.735 71.5517 441.237C68.3035 437.739 66.4982 433.143 66.4982 428.369C66.4982 423.596 68.3035 418.999 71.5517 415.501C74.8 412.003 79.2509 409.863 84.0113 409.511H55.698C50.7101 409.511 45.9266 407.529 42.3996 404.002C38.8727 400.476 36.8913 395.692 36.8913 390.704C36.8913 385.716 38.8727 380.933 42.3996 377.406C45.9266 373.879 50.7101 371.897 55.698 371.897H31.7246C26.7368 371.897 21.9532 369.916 18.4263 366.389C14.8994 362.862 12.918 358.079 12.918 353.091C12.918 348.103 14.8994 343.319 18.4263 339.792C21.9532 336.266 26.7368 334.284 31.7246 334.284V334.284Z" stroke="#45413C" stroke-width="7" stroke-linecap="round" stroke-linejoin="round"/>
<path d="M98.5865 371.899H55.7031" stroke="#45413C" stroke-width="7" stroke-linecap="round" stroke-linejoin="round"/>
<path d="M83.9609 409.509H116.201" stroke="#45413C" stroke-width="7" stroke-linecap="round" stroke-linejoin="round"/>
<path d="M464.271 334.286H374.268C366.648 333.96 359.042 335.179 351.907 337.87C344.771 340.561 338.254 344.668 332.747 349.944C327.24 355.22 322.858 361.556 319.865 368.57C316.871 375.584 315.328 383.132 315.328 390.758C315.328 398.384 316.871 405.931 319.865 412.945C322.858 419.959 327.24 426.295 332.747 431.571C338.254 436.847 344.771 440.954 351.907 443.645C359.042 446.336 366.648 447.555 374.268 447.229H411.984C416.745 446.877 421.196 444.737 424.444 441.239C427.692 437.741 429.497 433.145 429.497 428.371C429.497 423.598 427.692 419.001 424.444 415.503C421.196 412.005 416.745 409.865 411.984 409.513H440.298C445.286 409.513 450.069 407.531 453.596 404.004C457.123 400.477 459.104 395.694 459.104 390.706C459.104 385.718 457.123 380.935 453.596 377.408C450.069 373.881 445.286 371.899 440.298 371.899H464.271C469.259 371.899 474.042 369.918 477.569 366.391C481.096 362.864 483.078 358.081 483.078 353.093C483.078 348.105 481.096 343.321 477.569 339.794C474.042 336.267 469.259 334.286 464.271 334.286Z" fill="white"/>
<path d="M411.99 426.87H374.273C361.069 426.867 348.284 422.233 338.144 413.774C328.005 405.315 321.153 393.567 318.783 380.577C318.109 383.981 317.763 387.441 317.75 390.91C317.75 398.333 319.212 405.683 322.053 412.541C324.893 419.399 329.057 425.63 334.305 430.879C339.554 436.127 345.785 440.291 352.643 443.131C359.501 445.972 366.851 447.434 374.273 447.434H411.99C416.969 447.407 421.737 445.417 425.258 441.895C428.779 438.374 430.77 433.607 430.797 428.627C430.808 424.967 429.768 421.38 427.8 418.294C426.105 420.944 423.766 423.12 421.001 424.62C418.236 426.12 415.135 426.894 411.99 426.87Z" fill="#E5FEFF"/>
<path d="M464.271 334.286H374.268C366.648 333.96 359.042 335.179 351.907 337.87C344.771 340.561 338.254 344.668 332.747 349.944C327.24 355.22 322.858 361.556 319.865 368.57C316.871 375.584 315.328 383.132 315.328 390.758C315.328 398.384 316.871 405.931 319.865 412.945C322.858 419.959 327.24 426.295 332.747 431.571C338.254 436.847 344.771 440.954 351.907 443.645C359.042 446.336 366.648 447.555 374.268 447.229H411.984C416.745 446.877 421.196 444.737 424.444 441.239C427.692 437.741 429.497 433.145 429.497 428.371C429.497 423.598 427.692 419.001 424.444 415.503C421.196 412.005 416.745 409.865 411.984 409.513H440.298C445.286 409.513 450.069 407.531 453.596 404.004C457.123 400.477 459.104 395.694 459.104 390.706C459.104 385.718 457.123 380.935 453.596 377.408C450.069 373.881 445.286 371.899 440.298 371.899H464.271C469.259 371.899 474.042 369.918 477.569 366.391C481.096 362.864 483.078 358.081 483.078 353.093C483.078 348.105 481.096 343.321 477.569 339.794C474.042 336.267 469.259 334.286 464.271 334.286V334.286Z" stroke="#45413C" stroke-width="7" stroke-linecap="round" stroke-linejoin="round"/>
<path d="M397.352 371.899H440.235" stroke="#45413C" stroke-width="7" stroke-linecap="round" stroke-linejoin="round"/>
<path d="M411.99 409.511H379.75" stroke="#45413C" stroke-width="7" stroke-linecap="round" stroke-linejoin="round"/>
<path d="M61.8398 267.946C61.8398 272.356 62.6256 276.723 64.1524 280.797C65.6791 284.872 67.9169 288.574 70.7379 291.693C73.559 294.811 76.9081 297.285 80.5939 298.973C84.2798 300.66 88.2303 301.529 92.2199 301.529C96.2094 301.529 100.16 300.66 103.846 298.973C107.532 297.285 110.881 294.811 113.702 291.693C116.523 288.574 118.761 284.872 120.287 280.797C121.814 276.723 122.6 272.356 122.6 267.946C122.6 263.535 121.814 259.168 120.287 255.094C118.761 251.019 116.523 247.317 113.702 244.199C110.881 241.08 107.532 238.606 103.846 236.919C100.16 235.231 96.2094 234.362 92.2199 234.362C88.2303 234.362 84.2798 235.231 80.5939 236.919C76.9081 238.606 73.559 241.08 70.7379 244.199C67.9169 247.317 65.6791 251.019 64.1524 255.094C62.6256 259.168 61.8398 263.535 61.8398 267.946Z" fill="#FFE500" stroke="#45413C" stroke-width="7" stroke-linecap="round" stroke-linejoin="round"/>
<path d="M373.293 267.946C373.293 272.356 374.079 276.723 375.605 280.797C377.132 284.872 379.37 288.574 382.191 291.693C385.012 294.811 388.361 297.285 392.047 298.973C395.733 300.66 399.683 301.529 403.673 301.529C407.663 301.529 411.613 300.66 415.299 298.973C418.985 297.285 422.334 294.811 425.155 291.693C427.976 288.574 430.214 284.872 431.74 280.797C433.267 276.723 434.053 272.356 434.053 267.946C434.053 263.535 433.267 259.168 431.74 255.094C430.214 251.019 427.976 247.317 425.155 244.199C422.334 241.08 418.985 238.606 415.299 236.919C411.613 235.231 407.663 234.362 403.673 234.362C399.683 234.362 395.733 235.231 392.047 236.919C388.361 238.606 385.012 241.08 382.191 244.199C379.37 247.317 377.132 251.019 375.605 255.094C374.079 259.168 373.293 263.535 373.293 267.946Z" fill="#FFE500" stroke="#45413C" stroke-width="7" stroke-linecap="round" stroke-linejoin="round"/>
<path d="M92.3555 267.942C92.3555 288.392 96.3834 308.642 104.209 327.535C112.035 346.428 123.506 363.595 137.966 378.055C152.426 392.515 169.593 403.986 188.486 411.812C207.379 419.637 227.629 423.665 248.079 423.665C268.529 423.665 288.778 419.637 307.672 411.812C326.565 403.986 343.732 392.515 358.192 378.055C372.652 363.595 384.123 346.428 391.948 327.535C399.774 308.642 403.802 288.392 403.802 267.942C403.802 247.492 399.774 227.243 391.948 208.349C384.123 189.456 372.652 172.289 358.192 157.829C343.732 143.369 326.565 131.898 307.672 124.072C288.778 116.247 268.529 112.219 248.079 112.219C227.629 112.219 207.379 116.247 188.486 124.072C169.593 131.898 152.426 143.369 137.966 157.829C123.506 172.289 112.035 189.456 104.209 208.349C96.3834 227.243 92.3555 247.492 92.3555 267.942Z" fill="#FFE500"/>
<path d="M248.079 112.325C217.275 112.325 187.164 121.461 161.553 138.577C135.942 155.692 115.983 180.019 104.199 208.48C92.4161 236.94 89.3383 268.257 95.3553 298.467C101.372 328.677 116.214 356.424 138.002 378.198C159.791 399.972 187.548 414.795 217.762 420.792C247.976 426.789 279.29 423.691 307.743 411.888C336.196 400.086 360.51 380.111 377.608 354.489C394.707 328.866 403.823 298.749 403.802 267.945C403.775 226.663 387.356 187.08 358.155 157.899C328.955 128.718 289.361 112.325 248.079 112.325ZM248.079 400.315C219.973 400.315 192.499 391.98 169.131 376.363C145.763 360.746 127.552 338.549 116.801 312.581C106.05 286.613 103.243 258.039 108.733 230.475C114.224 202.91 127.766 177.594 147.647 157.727C167.528 137.861 192.855 124.337 220.423 118.866C247.991 113.395 276.563 116.224 302.523 126.994C328.484 137.763 350.667 155.991 366.267 179.37C381.867 202.749 390.183 230.229 390.162 258.335C390.135 296 375.153 332.113 348.51 358.737C321.868 385.36 285.744 400.315 248.079 400.315Z" fill="#EBCB00"/>
<path d="M92.3555 267.942C92.3555 288.392 96.3834 308.642 104.209 327.535C112.035 346.428 123.506 363.595 137.966 378.055C152.426 392.515 169.593 403.986 188.486 411.812C207.379 419.637 227.629 423.665 248.079 423.665C268.529 423.665 288.778 419.637 307.672 411.812C326.565 403.986 343.732 392.515 358.192 378.055C372.652 363.595 384.123 346.428 391.948 327.535C399.774 308.642 403.802 288.392 403.802 267.942C403.802 247.492 399.774 227.243 391.948 208.349C384.123 189.456 372.652 172.289 358.192 157.829C343.732 143.369 326.565 131.898 307.672 124.072C288.778 116.247 268.529 112.219 248.079 112.219C227.629 112.219 207.379 116.247 188.486 124.072C169.593 131.898 152.426 143.369 137.966 157.829C123.506 172.289 112.035 189.456 104.209 208.349C96.3834 227.243 92.3555 247.492 92.3555 267.942V267.942Z" stroke="#45413C" stroke-width="7" stroke-linecap="round" stroke-linejoin="round"/>
<path d="M174.054 267.222C174.034 268.75 173.562 270.238 172.698 271.499C171.834 272.759 170.617 273.737 169.199 274.307C167.781 274.878 166.226 275.017 164.73 274.706C163.233 274.396 161.862 273.65 160.788 272.562C159.715 271.474 158.987 270.093 158.696 268.593C158.405 267.092 158.565 265.539 159.154 264.129C159.744 262.719 160.737 261.515 162.009 260.667C163.281 259.82 164.776 259.368 166.304 259.368C167.331 259.368 168.347 259.572 169.294 259.968C170.241 260.364 171.1 260.944 171.821 261.675C172.542 262.405 173.111 263.272 173.494 264.224C173.877 265.176 174.068 266.195 174.054 267.222Z" fill="#45413C" stroke="#45413C" stroke-width="7" stroke-linecap="round" stroke-linejoin="round"/>
<path d="M321.95 267.222C321.97 268.75 322.442 270.238 323.306 271.499C324.17 272.759 325.387 273.737 326.805 274.307C328.223 274.878 329.778 275.017 331.274 274.706C332.771 274.396 334.142 273.65 335.215 272.562C336.289 271.474 337.017 270.093 337.308 268.593C337.598 267.092 337.439 265.539 336.85 264.129C336.26 262.719 335.267 261.515 333.995 260.667C332.722 259.82 331.228 259.368 329.7 259.368C328.673 259.368 327.657 259.572 326.71 259.968C325.763 260.364 324.904 260.944 324.183 261.675C323.462 262.405 322.893 263.272 322.51 264.224C322.127 265.176 321.936 266.195 321.95 267.222Z" fill="#45413C" stroke="#45413C" stroke-width="7" stroke-linecap="round" stroke-linejoin="round"/>
<path d="M360.803 313.927C360.803 320.333 352.123 325.603 341.376 325.603C330.629 325.603 321.949 320.333 321.949 313.927C321.949 307.52 330.629 302.25 340.963 302.25C351.296 302.25 360.803 307.417 360.803 313.927Z" fill="#FFAA54"/>
<path d="M135.141 313.927C135.141 320.333 143.821 325.603 154.567 325.603C165.314 325.603 173.994 320.333 173.994 313.927C173.994 307.52 165.314 302.25 154.981 302.25C144.647 302.25 135.141 307.417 135.141 313.927Z" fill="#FFAA54"/>
<path d="M410.701 231.778C410.701 231.778 405.534 78.7412 247.951 78.7412C96.8776 78.7412 84.5809 212.455 83.9609 229.918C85.9558 229.764 87.9595 229.764 89.9543 229.918C99.443 231.426 109.152 230.708 118.316 227.821C127.48 224.933 135.847 219.956 142.758 213.281L145.341 230.745L199.591 202.948C217.113 219.704 239.447 230.546 263.451 233.948C282.792 237.424 302.597 237.424 321.938 233.948L326.794 206.668L346.221 219.998C355.552 226.351 366.11 230.681 377.215 232.71C388.319 234.739 399.726 234.421 410.701 231.778Z" fill="#724F3D"/>
<path d="M247.951 109.225C361.618 109.225 395.718 188.171 406.154 233.225C407.704 233.225 409.254 232.708 410.701 232.295C412.148 231.881 405.534 78.7412 247.951 78.7412C96.8776 78.7412 84.5809 212.455 83.9609 229.918C85.4403 229.815 86.9249 229.815 88.4043 229.918C98.9443 185.381 134.284 109.225 247.951 109.225Z" fill="#A86C4D"/>
<path d="M410.701 231.778C410.701 231.778 405.534 78.7412 247.951 78.7412C96.8776 78.7412 84.5809 212.455 83.9609 229.918C85.9558 229.764 87.9595 229.764 89.9543 229.918C99.443 231.426 109.152 230.708 118.316 227.821C127.48 224.933 135.847 219.956 142.758 213.281V213.281L145.341 230.745L199.591 202.948C217.113 219.704 239.447 230.546 263.451 233.948C282.792 237.424 302.597 237.424 321.938 233.948L326.794 206.668L346.221 219.998C355.552 226.351 366.11 230.681 377.215 232.71C388.319 234.739 399.726 234.421 410.701 231.778Z" stroke="#45413C" stroke-width="7" stroke-linecap="round" stroke-linejoin="round"/>
<path d="M248.027 25.834C159.884 25.834 88.4805 53.8373 88.4805 88.454C88.4805 123.071 159.884 151.177 248.027 151.177C336.17 151.177 407.574 123.071 407.574 88.454C407.574 53.8373 336.17 25.834 248.027 25.834ZM248.027 119.557C186.027 119.557 135.187 105.607 135.187 88.5573C135.187 71.5073 185.717 57.5573 248.027 57.5573C310.337 57.5573 360.867 71.5073 360.867 88.5573C360.867 105.607 310.027 119.557 248.027 119.557Z" fill="#FFE500"/>
<path d="M248.027 45.2607C327.697 45.2607 393.624 68.2006 405.507 98.1673C406.803 95.089 407.504 91.7932 407.574 88.454C407.574 53.8373 336.17 25.834 248.027 25.834C159.884 25.834 88.4805 53.8373 88.4805 88.454C88.55 91.7932 89.2512 95.089 90.5471 98.1673C102.43 68.2006 168.357 45.2607 248.027 45.2607Z" fill="#FFF59A"/>
<path d="M248.027 25.834C159.884 25.834 88.4805 53.8373 88.4805 88.454C88.4805 123.071 159.884 151.177 248.027 151.177C336.17 151.177 407.574 123.071 407.574 88.454C407.574 53.8373 336.17 25.834 248.027 25.834ZM248.027 119.557C186.027 119.557 135.187 105.607 135.187 88.5573C135.187 71.5073 185.717 57.5573 248.027 57.5573C310.337 57.5573 360.867 71.5073 360.867 88.5573C360.867 105.607 310.027 119.557 248.027 119.557Z" stroke="#45413C" stroke-width="7" stroke-linecap="round" stroke-linejoin="round"/>
<path d="M205.055 346.167C210.351 352.251 216.969 357.043 224.401 360.177C231.834 363.311 239.884 364.705 247.938 364.25C255.992 364.705 264.042 363.311 271.475 360.177C278.907 357.043 285.525 352.251 290.821 346.167" stroke="#45413C" stroke-width="7" stroke-linecap="round" stroke-linejoin="round"/>
</svg>
