<svg width="493" height="493" viewBox="0 0 493 493" fill="none" xmlns="http://www.w3.org/2000/svg">
<path d="M15.2695 246.513C15.2695 294.918 34.4985 341.341 68.7263 375.569C102.954 409.796 149.377 429.025 197.782 429.025C246.188 429.025 292.61 409.796 326.838 375.569C361.066 341.341 380.295 294.918 380.295 246.513C380.295 198.107 361.066 151.685 326.838 117.457C292.61 83.229 246.188 64 197.782 64C149.377 64 102.954 83.229 68.7263 117.457C34.4985 151.685 15.2695 198.107 15.2695 246.513Z" fill="#FFE500"/>
<path d="M197.725 64C161.603 64 126.292 74.7128 96.2585 94.7834C66.2253 114.854 42.8191 143.381 29.0004 176.755C15.1817 210.13 11.5713 246.853 18.6259 282.28C25.6805 317.706 43.0831 350.245 68.6326 375.78C94.1821 401.315 126.731 418.7 162.161 425.734C197.592 432.769 234.313 429.138 267.68 415.301C301.047 401.463 329.56 378.041 349.614 347.996C369.668 317.952 380.361 282.635 380.34 246.513C380.313 198.098 361.061 151.675 326.817 117.45C292.573 83.2257 246.14 64 197.725 64ZM197.725 401.705C164.776 401.705 132.567 391.934 105.171 373.629C77.7747 355.324 56.4221 329.305 43.8131 298.864C31.204 268.424 27.9049 234.927 34.333 202.611C40.761 170.296 56.6274 140.612 79.9259 117.313C103.224 94.0147 132.908 78.1482 165.224 71.7202C197.54 65.2922 231.036 68.5913 261.477 81.2003C291.918 93.8093 317.936 115.162 336.242 142.558C354.547 169.954 364.318 202.163 364.318 235.112C364.318 256.989 360.009 278.652 351.637 298.864C343.265 319.076 330.993 337.441 315.524 352.911C300.054 368.381 281.689 380.652 261.477 389.024C241.265 397.396 219.602 401.705 197.725 401.705Z" fill="#EBCB00"/>
<path d="M143.016 100.464C143.016 104.087 148.783 107.561 159.05 110.123C169.316 112.685 183.24 114.124 197.759 114.124C212.278 114.124 226.202 112.685 236.469 110.123C246.735 107.561 252.503 104.087 252.503 100.464C252.503 96.841 246.735 93.3665 236.469 90.8047C226.202 88.2429 212.278 86.8037 197.759 86.8037C183.24 86.8037 169.316 88.2429 159.05 90.8047C148.783 93.3665 143.016 96.841 143.016 100.464Z" fill="#FFF48C"/>
<path d="M111.078 255.654C111.078 258.078 112.041 260.403 113.755 262.117C115.47 263.832 117.795 264.795 120.219 264.795C122.644 264.795 124.969 263.832 126.683 262.117C128.397 260.403 129.36 258.078 129.36 255.654C129.36 253.229 128.397 250.904 126.683 249.19C124.969 247.476 122.644 246.513 120.219 246.513C117.795 246.513 115.47 247.476 113.755 249.19C112.041 250.904 111.078 253.229 111.078 255.654Z" fill="#45413C" stroke="#45413C" stroke-width="7" stroke-linecap="round" stroke-linejoin="round"/>
<path d="M155.16 241.994C155.16 241.994 127.736 200.911 97.4375 214.571" stroke="#45413C" stroke-width="7" stroke-linecap="round" stroke-linejoin="round"/>
<path d="M240.426 241.994C240.426 241.994 267.849 200.911 298.251 214.571" stroke="#45413C" stroke-width="7" stroke-linecap="round" stroke-linejoin="round"/>
<path d="M266.266 255.654C266.266 258.078 267.229 260.403 268.943 262.117C270.657 263.832 272.982 264.795 275.407 264.795C277.831 264.795 280.156 263.832 281.87 262.117C283.585 260.403 284.548 258.078 284.548 255.654C284.548 253.229 283.585 250.904 281.87 249.19C280.156 247.476 277.831 246.513 275.407 246.513C272.982 246.513 270.657 247.476 268.943 249.19C267.229 250.904 266.266 253.229 266.266 255.654Z" fill="#45413C" stroke="#45413C" stroke-width="7" stroke-linecap="round" stroke-linejoin="round"/>
<path d="M152.16 337.821C165.673 328.791 181.561 323.971 197.814 323.971C214.067 323.971 229.955 328.791 243.468 337.821" stroke="#45413C" stroke-width="7" stroke-linecap="round"/>
<path d="M330.161 296.737C330.161 304.338 319.89 310.5 307.36 310.5C294.829 310.5 284.559 304.338 284.559 296.737C284.559 289.137 294.829 283.077 307.36 283.077C319.89 283.077 330.161 289.24 330.161 296.737Z" fill="#FFAA54"/>
<path d="M65.5 296.737C65.5 304.338 75.7708 310.5 88.3013 310.5C100.832 310.5 111.103 304.338 111.103 296.737C111.103 289.137 100.832 283.077 88.3013 283.077C75.7708 283.077 65.5 289.24 65.5 296.737Z" fill="#FFAA54"/>
<path d="M15.2695 246.513C15.2695 294.918 34.4985 341.341 68.7263 375.569C102.954 409.796 149.377 429.025 197.782 429.025C246.188 429.025 292.61 409.796 326.838 375.569C361.066 341.341 380.295 294.918 380.295 246.513C380.295 198.107 361.066 151.684 326.838 117.457C292.61 83.229 246.188 64 197.782 64C149.377 64 102.954 83.229 68.7263 117.457C34.4985 151.684 15.2695 198.107 15.2695 246.513V246.513Z" stroke="#45413C" stroke-width="7" stroke-linecap="round" stroke-linejoin="round"/>
<path d="M343.84 137.025H33.1477C31.7386 137.029 30.349 137.355 29.0851 137.978C27.8212 138.601 26.7165 139.505 25.8554 140.62C17.9074 151.043 11.187 162.347 5.82728 174.309C5.19167 175.699 4.91503 177.227 5.02269 178.752C5.13035 180.277 5.61887 181.751 6.44353 183.039C7.29097 184.312 8.43464 185.36 9.77636 186.093C11.1181 186.827 12.6178 187.224 14.1467 187.25H370.545C364.338 169.209 355.326 152.259 343.84 137.025Z" fill="#F0F0F0"/>
<path d="M343.85 137.024H33.1569C31.7478 137.028 30.3582 137.354 29.0943 137.977C27.8304 138.6 26.7257 139.504 25.8646 140.619C22.1821 145.329 18.7536 150.232 15.5938 155.307H355.969C352.301 148.974 348.254 142.869 343.85 137.024Z" fill="white"/>
<path d="M343.84 137.025H33.1477C31.7386 137.029 30.349 137.355 29.0851 137.978C27.8212 138.601 26.7165 139.505 25.8554 140.62C17.9074 151.043 11.187 162.347 5.82728 174.309C5.19167 175.699 4.91503 177.227 5.02269 178.752C5.13035 180.277 5.61887 181.751 6.44353 183.039C7.29097 184.312 8.43464 185.36 9.77636 186.093C11.1181 186.827 12.6178 187.224 14.1467 187.25H370.545C364.338 169.209 355.326 152.259 343.84 137.025Z" stroke="#45413C" stroke-width="7" stroke-linecap="round" stroke-linejoin="round"/>
<path d="M352.926 164.446C352.926 164.446 403.047 220.422 477.614 213.644C479.116 213.482 480.635 213.7 482.032 214.277C483.428 214.854 484.658 215.772 485.608 216.947C486.558 218.122 487.198 219.516 487.471 221.002C487.743 222.489 487.638 224.02 487.166 225.455C481.923 240.376 475.678 254.925 468.473 269.003C467.47 271.036 465.749 272.623 463.643 273.458C461.536 274.293 459.194 274.316 457.072 273.523C432.011 264.279 354.261 229.461 352.926 164.446Z" fill="white" stroke="#45413C" stroke-width="7" stroke-linecap="round" stroke-linejoin="round"/>
<path d="M384.853 162.086C384.853 169.959 381.725 177.509 376.159 183.075C370.592 188.642 363.042 191.769 355.17 191.769H350.651C346.613 192.007 342.569 191.417 338.767 190.035C334.965 188.654 331.486 186.51 328.543 183.735C325.6 180.96 323.255 177.613 321.652 173.899C320.049 170.185 319.223 166.183 319.223 162.138C319.223 158.093 320.049 154.091 321.652 150.377C323.255 146.663 325.6 143.316 328.543 140.541C331.486 137.766 334.965 135.622 338.767 134.24C342.569 132.859 346.613 132.269 350.651 132.506H355.17C359.063 132.493 362.92 133.248 366.521 134.729C370.122 136.209 373.395 138.386 376.152 141.134C378.91 143.882 381.098 147.147 382.591 150.743C384.084 154.338 384.853 158.193 384.853 162.086Z" fill="#F0F0F0"/>
<path d="M350.671 151.305H355.19C361.465 151.304 367.579 153.291 372.653 156.982C377.728 160.673 381.503 165.877 383.435 171.846C384.382 168.856 384.867 165.739 384.873 162.603C384.873 158.709 384.104 154.855 382.611 151.259C381.118 147.664 378.93 144.398 376.173 141.65C373.415 138.902 370.142 136.725 366.541 135.245C362.941 133.764 359.083 133.009 355.19 133.023H350.671C346.778 133.009 342.92 133.764 339.32 135.245C335.719 136.725 332.446 138.902 329.688 141.65C326.931 144.398 324.743 147.664 323.25 151.259C321.757 154.855 320.988 158.709 320.988 162.603C320.994 165.739 321.479 168.856 322.426 171.846C324.372 165.885 328.15 160.69 333.222 157.002C338.294 153.313 344.4 151.319 350.671 151.305Z" fill="white"/>
<path d="M384.853 162.086C384.853 169.959 381.725 177.509 376.159 183.075C370.592 188.642 363.042 191.769 355.17 191.769H350.651C346.613 192.007 342.569 191.417 338.767 190.035C334.965 188.654 331.486 186.51 328.543 183.735C325.6 180.96 323.255 177.613 321.652 173.899C320.049 170.185 319.223 166.183 319.223 162.138C319.223 158.093 320.049 154.091 321.652 150.377C323.255 146.663 325.6 143.316 328.543 140.541C331.486 137.766 334.965 135.622 338.767 134.24C342.569 132.859 346.613 132.269 350.651 132.506H355.17C359.063 132.493 362.92 133.248 366.521 134.729C370.122 136.209 373.395 138.386 376.152 141.134C378.91 143.882 381.098 147.147 382.591 150.743C384.084 154.338 384.853 158.193 384.853 162.086V162.086Z" stroke="#45413C" stroke-width="7" stroke-linecap="round" stroke-linejoin="round"/>
</svg>
