<svg width="495" height="495" viewBox="0 0 495 495" fill="none" xmlns="http://www.w3.org/2000/svg">
<path opacity="0.15" d="M288.961 464.553C288.961 466.584 291.362 468.596 296.026 470.472C300.69 472.349 307.527 474.054 316.145 475.491C324.764 476.927 334.995 478.067 346.256 478.844C357.516 479.621 369.585 480.021 381.773 480.021C393.962 480.021 406.031 479.621 417.291 478.844C428.552 478.067 438.783 476.927 447.402 475.491C456.02 474.054 462.857 472.349 467.521 470.472C472.185 468.596 474.586 466.584 474.586 464.553C474.586 462.521 472.185 460.51 467.521 458.633C462.857 456.756 456.02 455.051 447.402 453.615C438.783 452.178 428.552 451.039 417.291 450.261C406.031 449.484 393.962 449.084 381.773 449.084C369.585 449.084 357.516 449.484 346.256 450.261C334.995 451.039 324.764 452.178 316.145 453.615C307.527 455.051 300.69 456.756 296.026 458.633C291.362 460.51 288.961 462.521 288.961 464.553Z" fill="#45413C"/>
<path opacity="0.15" d="M20.4219 464.553C20.4219 466.584 22.8225 468.596 27.4868 470.472C32.1511 472.349 38.9876 474.054 47.606 475.491C56.2245 476.927 66.456 478.067 77.7166 478.844C88.9771 479.621 101.046 480.021 113.234 480.021C125.423 480.021 137.492 479.621 148.752 478.844C160.013 478.067 170.244 476.927 178.863 475.491C187.481 474.054 194.318 472.349 198.982 470.472C203.646 468.596 206.047 466.584 206.047 464.553C206.047 462.521 203.646 460.51 198.982 458.633C194.318 456.756 187.481 455.051 178.863 453.615C170.244 452.178 160.013 451.039 148.752 450.261C137.492 449.484 125.423 449.084 113.234 449.084C101.046 449.084 88.9771 449.484 77.7166 450.261C66.456 451.039 56.2245 452.178 47.606 453.615C38.9876 455.051 32.1511 456.756 27.4868 458.633C22.8225 460.51 20.4219 462.521 20.4219 464.553Z" fill="#45413C"/>
<path d="M125.195 314.3C126.639 354.415 110.036 417.425 110.036 417.425C109.667 419.008 108.726 420.4 107.393 421.332C106.061 422.265 104.432 422.673 102.817 422.478C76.2109 418.662 54.6578 420.622 48.9859 427.531C48.7422 427.856 48.5648 428.226 48.464 428.619C48.3632 429.013 48.3408 429.423 48.3983 429.825C48.4557 430.227 48.5919 430.614 48.7988 430.964C49.0058 431.313 49.2797 431.619 49.6047 431.862C68.0448 444.832 89.2113 453.404 111.48 456.922C133.34 462.703 156.233 463.408 178.408 458.984C179.206 458.766 179.889 458.246 180.312 457.534C180.736 456.823 180.866 455.975 180.677 455.169C178.305 446.609 159.33 436.194 133.548 428.975C131.967 428.538 130.61 427.519 129.75 426.122C128.889 424.726 128.588 423.056 128.908 421.447C128.908 421.447 139.22 356.684 156.648 320.59L125.195 314.3Z" fill="#00B8F0" stroke="#45413C" stroke-width="7" stroke-linecap="round" stroke-linejoin="round"/>
<path d="M228.012 266.346C219.556 306.668 178.718 338.534 138.396 330.284C98.0744 322.034 73.5306 275.937 82.5025 235.615L141.284 19.0527L261.321 44.6277L228.012 266.346Z" fill="#00B8F0"/>
<path d="M244.717 155.591L261.321 44.6285L140.767 19.2598L82.5019 235.616C80.597 245.234 80.3876 255.111 81.8831 264.8C144.27 242.25 200.179 204.753 244.717 155.591Z" fill="#4ACFFF"/>
<path d="M228.012 266.346C219.556 306.668 178.718 338.534 138.396 330.284C98.0744 322.034 73.5306 275.937 82.5025 235.615L141.284 19.0527L261.321 44.6277L228.012 266.346Z" stroke="#45413C" stroke-width="7" stroke-linecap="round" stroke-linejoin="round"/>
<path d="M261.322 44.6281C259.878 51.6406 231.725 51.6406 198.416 44.6281C165.107 37.6156 139.222 26.2719 140.769 19.2594C142.316 12.2469 170.366 12.2469 203.675 19.2594C236.985 26.2719 262.869 37.6156 261.322 44.6281Z" fill="#00B8F0" stroke="#45413C" stroke-width="7" stroke-linecap="round" stroke-linejoin="round"/>
<path d="M341.757 321.416C360.01 357.097 371.251 421.654 371.251 421.654C371.604 423.264 371.331 424.948 370.489 426.365C369.646 427.782 368.296 428.826 366.713 429.285C341.035 437.019 322.369 447.847 320.101 456.407C320.01 456.806 319.999 457.22 320.069 457.624C320.14 458.028 320.289 458.414 320.51 458.759C320.731 459.104 321.018 459.402 321.355 459.636C321.692 459.869 322.072 460.034 322.472 460.119C344.706 464.153 367.569 463.024 389.297 456.819C411.647 452.971 432.816 444.045 451.172 430.729C451.469 430.44 451.704 430.095 451.865 429.715C452.026 429.334 452.109 428.925 452.109 428.511C452.109 428.098 452.026 427.689 451.865 427.308C451.704 426.927 451.469 426.582 451.172 426.294C445.397 419.591 423.844 418.044 397.341 422.272C395.721 422.523 394.067 422.152 392.709 421.234C391.351 420.316 390.39 418.919 390.019 417.322C390.019 417.322 372.179 354.21 373.004 314.197L341.757 321.416Z" fill="#00B8F0" stroke="#45413C" stroke-width="7" stroke-linecap="round" stroke-linejoin="round"/>
<path d="M415.081 234.688C424.362 274.803 400.644 321.21 360.528 330.388C320.412 339.566 278.441 308.216 269.675 267.997L232.344 46.8971L352.484 19.4658L415.081 234.688Z" fill="#00B8F0"/>
<path d="M383.834 127.231L352.897 19.4658L232.344 46.8971L269.675 267.894C271.954 277.35 275.9 286.325 281.328 294.397C328.596 247.851 363.784 190.467 383.834 127.231Z" fill="#4ACFFF"/>
<path d="M415.081 234.688C424.362 274.803 400.644 321.21 360.528 330.388C320.412 339.566 278.441 308.216 269.675 267.997L232.344 46.8971L352.484 19.4658L415.081 234.688Z" stroke="#45413C" stroke-width="7" stroke-linecap="round" stroke-linejoin="round"/>
<path d="M352.481 19.4657C354.028 26.3751 328.453 38.2344 295.247 45.8657C262.04 53.4969 233.887 53.9094 232.34 47.0001C230.793 40.0907 256.265 28.1282 289.472 20.4969C322.678 12.8657 350.625 12.4532 352.481 19.4657Z" fill="#00B8F0" stroke="#45413C" stroke-width="7" stroke-linecap="round" stroke-linejoin="round"/>
<path d="M284.109 214.784C285.225 209.472 287.87 204.601 291.717 200.772C295.565 196.943 300.448 194.322 305.766 193.231C312.351 191.759 319.174 191.696 325.785 193.047C332.397 194.397 338.648 197.131 344.128 201.069L284.109 214.784Z" fill="#FFE500"/>
<path d="M397.858 232.521C405.077 263.459 388.267 307.906 356.608 315.021C324.948 322.137 290.917 289.962 283.698 258.509L275.242 206.946C275.242 206.946 283.802 214.99 306.18 209.937C328.558 204.884 330.311 184.465 352.483 179C374.655 173.534 383.42 181.99 383.42 181.99L397.858 232.521Z" fill="#FFE500"/>
<path d="M364.652 177.557C360.555 177.683 356.48 178.201 352.483 179.104C330.311 184.26 328.352 204.679 306.18 210.041C284.008 215.404 275.242 207.05 275.242 207.05L283.698 258.613C285.799 266.875 289.286 274.72 294.011 281.816C322.557 250.726 346.36 215.595 364.652 177.557Z" fill="#FFF48C"/>
<path d="M358.567 147.753C358.766 148.586 358.798 149.45 358.662 150.295C358.526 151.141 358.224 151.951 357.773 152.68C357.323 153.408 356.733 154.04 356.037 154.54C355.342 155.039 354.554 155.396 353.72 155.59C352.893 155.788 352.036 155.819 351.197 155.682C350.358 155.545 349.556 155.242 348.835 154.79C348.115 154.339 347.492 153.749 347.003 153.054C346.514 152.359 346.168 151.573 345.986 150.743C345.691 149.886 345.579 148.976 345.657 148.073C345.735 147.17 346.001 146.293 346.438 145.499C346.875 144.705 347.474 144.011 348.195 143.462C348.917 142.913 349.745 142.521 350.627 142.311C351.509 142.101 352.425 142.078 353.317 142.244C354.208 142.41 355.055 142.76 355.803 143.273C356.551 143.785 357.183 144.449 357.659 145.22C358.135 145.992 358.444 146.854 358.567 147.753Z" fill="#FFE500"/>
<path d="M381.568 219.116C381.951 220.798 381.65 222.563 380.732 224.023C379.813 225.483 378.352 226.519 376.67 226.902C375.837 227.091 374.975 227.115 374.133 226.971C373.291 226.828 372.485 226.52 371.762 226.065C370.302 225.146 369.267 223.685 368.884 222.003C368.54 220.311 368.864 218.551 369.786 217.091C370.708 215.631 372.158 214.583 373.834 214.166C375.513 213.825 377.26 214.151 378.703 215.075C380.146 215.999 381.174 217.448 381.568 219.116Z" fill="#FFF48C"/>
<path d="M339.389 282.022C339.665 283.277 339.563 284.586 339.095 285.784C338.627 286.981 337.815 288.012 336.761 288.747C335.706 289.483 334.458 289.889 333.173 289.914C331.888 289.94 330.624 289.584 329.542 288.891C328.459 288.198 327.606 287.2 327.091 286.022C326.576 284.845 326.422 283.541 326.648 282.275C326.874 281.01 327.471 279.841 328.362 278.914C329.253 277.988 330.399 277.347 331.654 277.072C333.336 276.704 335.096 277.019 336.546 277.947C337.996 278.875 339.019 280.341 339.389 282.022Z" fill="#FFF48C"/>
<path d="M350.628 242.834C350.827 243.667 350.86 244.531 350.724 245.377C350.587 246.222 350.286 247.033 349.835 247.761C349.385 248.489 348.795 249.122 348.099 249.621C347.403 250.121 346.616 250.478 345.782 250.672C344.089 251.015 342.329 250.692 340.869 249.77C339.409 248.848 338.361 247.398 337.944 245.722C337.604 244.042 337.93 242.296 338.854 240.853C339.777 239.409 341.226 238.382 342.894 237.987C343.721 237.789 344.578 237.758 345.417 237.896C346.256 238.033 347.058 238.336 347.779 238.787C348.499 239.239 349.122 239.829 349.611 240.524C350.1 241.219 350.446 242.004 350.628 242.834Z" fill="#FFF48C"/>
<path d="M380.535 272.534C380.734 273.367 380.766 274.231 380.63 275.077C380.494 275.923 380.192 276.733 379.741 277.461C379.291 278.19 378.701 278.822 378.005 279.321C377.31 279.821 376.522 280.178 375.688 280.372C373.995 280.715 372.236 280.392 370.776 279.47C369.315 278.548 368.268 277.098 367.85 275.422C367.51 273.742 367.836 271.996 368.76 270.553C369.684 269.109 371.133 268.082 372.8 267.687C374.468 267.316 376.215 267.617 377.662 268.524C379.11 269.431 380.142 270.872 380.535 272.534Z" fill="#FFF48C"/>
<path d="M298.24 174.978C298.438 175.805 298.469 176.662 298.332 177.501C298.195 178.34 297.891 179.142 297.44 179.863C296.989 180.583 296.398 181.206 295.704 181.695C295.009 182.184 294.223 182.53 293.393 182.712C292.56 182.911 291.696 182.944 290.851 182.808C290.005 182.671 289.195 182.369 288.466 181.919C287.738 181.469 287.106 180.879 286.606 180.183C286.107 179.487 285.75 178.7 285.556 177.866C285.212 176.173 285.535 174.413 286.458 172.953C287.38 171.493 288.83 170.445 290.506 170.028C292.185 169.688 293.931 170.014 295.375 170.938C296.818 171.861 297.846 173.31 298.24 174.978Z" fill="#FFE500"/>
<path d="M311.336 231.8C311.679 233.493 311.356 235.252 310.434 236.713C309.512 238.173 308.062 239.221 306.386 239.638C304.704 240.021 302.938 239.72 301.478 238.801C300.018 237.882 298.983 236.421 298.6 234.739C298.217 233.057 298.518 231.292 299.436 229.832C300.355 228.372 301.816 227.336 303.498 226.953C305.179 226.58 306.939 226.877 308.403 227.783C309.867 228.688 310.92 230.13 311.336 231.8Z" fill="#FFFACF"/>
<path d="M322.577 136.1C322.874 137.354 322.791 138.668 322.338 139.874C321.886 141.081 321.085 142.126 320.038 142.876C318.99 143.627 317.743 144.049 316.455 144.088C315.167 144.128 313.897 143.784 312.805 143.1C311.713 142.416 310.849 141.422 310.323 140.246C309.797 139.069 309.633 137.763 309.852 136.493C310.07 135.223 310.662 134.047 311.55 133.114C312.439 132.181 313.585 131.533 314.843 131.253C315.669 131.055 316.527 131.024 317.366 131.161C318.204 131.299 319.007 131.602 319.727 132.053C320.448 132.504 321.07 133.095 321.56 133.79C322.049 134.484 322.395 135.27 322.577 136.1Z" fill="#FFE500"/>
<path d="M293.806 82.7844C294.404 85.2965 294.24 87.9299 293.335 90.3486C292.431 92.7672 290.826 94.8614 288.725 96.3638C286.625 97.8661 284.124 98.7086 281.543 98.7836C278.962 98.8586 276.417 98.1628 274.233 96.7849C272.049 95.4071 270.325 93.4096 269.281 91.0476C268.237 88.6856 267.921 86.0661 268.372 83.5235C268.824 80.9809 270.022 78.6305 271.816 76.7723C273.609 74.9141 275.915 73.6323 278.44 73.0907C281.762 72.3506 285.242 72.9545 288.121 74.7705C290.999 76.5866 293.043 79.4674 293.806 82.7844Z" fill="#E5F8FF"/>
<path d="M272.868 107.534C273.211 109.227 272.888 110.987 271.966 112.447C271.044 113.907 269.594 114.955 267.918 115.372C266.238 115.712 264.492 115.386 263.049 114.463C261.605 113.539 260.578 112.09 260.184 110.422C259.986 109.595 259.955 108.738 260.092 107.899C260.229 107.06 260.532 106.258 260.984 105.537C261.435 104.817 262.025 104.194 262.72 103.705C263.415 103.216 264.2 102.87 265.031 102.688C265.864 102.489 266.728 102.456 267.573 102.592C268.419 102.729 269.229 103.031 269.957 103.481C270.686 103.931 271.318 104.521 271.817 105.217C272.317 105.913 272.674 106.7 272.868 107.534Z" fill="#E5F8FF"/>
</svg>
