<svg width="495" height="495" viewBox="0 0 495 495" fill="none" xmlns="http://www.w3.org/2000/svg">
<path d="M444.739 332.597V383.334C444.739 423.862 356.361 456.656 247.358 456.656C138.355 456.656 49.9766 423.862 49.9766 383.334V332.597H444.739Z" fill="#DEBB7E"/>
<path d="M49.9766 355.181C49.9766 395.606 138.355 428.503 247.358 428.503C356.361 428.503 444.739 395.606 444.739 355.181V332.597H49.9766V355.181Z" fill="#B89558"/>
<path d="M444.739 332.597V383.334C444.739 423.862 356.361 456.656 247.358 456.656C138.355 456.656 49.9766 423.862 49.9766 383.334V332.597H444.739Z" stroke="#45413C" stroke-width="7" stroke-linecap="round" stroke-linejoin="round"/>
<path d="M247.362 399.938C490.53 399.938 484.549 321.047 455.983 276.188C427.83 236.794 362.552 202.969 247.362 202.969C132.171 202.969 66.8928 236.794 38.7397 276.188C10.174 321.356 4.19278 399.938 247.362 399.938Z" fill="#BF8256" stroke="#45413C" stroke-width="7" stroke-linecap="round" stroke-linejoin="round"/>
<path d="M439.07 287.943H343.164V321.356C343.164 327.346 345.543 333.09 349.779 337.325C354.014 341.561 359.759 343.94 365.748 343.94H376.989V369C377.35 373.991 379.587 378.66 383.251 382.068C386.915 385.477 391.733 387.372 396.737 387.372C401.742 387.372 406.56 385.477 410.224 382.068C413.888 378.66 416.125 373.991 416.486 369V326.718C422.476 326.718 428.22 324.339 432.455 320.104C436.691 315.868 439.07 310.124 439.07 304.134V287.943Z" fill="#FFE500" stroke="#45413C" stroke-width="7" stroke-linecap="round" stroke-linejoin="round"/>
<path d="M247.362 321.356C490.53 321.356 484.549 242.362 455.983 197.606C427.83 157.8 362.552 123.975 247.362 123.975C132.171 123.975 66.8928 157.8 38.7397 197.296C10.174 242.362 4.19278 321.356 247.362 321.356Z" fill="#BF8256" stroke="#45413C" stroke-width="7" stroke-linecap="round" stroke-linejoin="round"/>
<path d="M72.5618 197.297C72.5618 197.297 53.793 236.279 95.1462 248.035C134.643 259.275 174.037 225.45 207.862 225.45C241.687 225.45 273.346 275.363 315.009 264.947C360.074 253.707 337.593 231.122 365.746 219.882C393.899 208.641 489.496 248.035 433.396 180.385L72.5618 197.297Z" fill="#FF6242" stroke="#45413C" stroke-width="7" stroke-linecap="round" stroke-linejoin="round"/>
<path d="M275.514 231.122H179.711V259.275C179.711 265.265 182.09 271.009 186.326 275.245C190.561 279.48 196.306 281.86 202.295 281.86H213.536V307.125C213.34 309.839 213.705 312.563 214.608 315.129C215.512 317.695 216.935 320.048 218.788 322.04C220.641 324.031 222.884 325.62 225.378 326.706C227.873 327.793 230.564 328.353 233.284 328.353C236.005 328.353 238.696 327.793 241.19 326.706C243.685 325.62 245.928 324.031 247.781 322.04C249.634 320.048 251.057 317.695 251.96 315.129C252.864 312.563 253.229 309.839 253.033 307.125V264.844C259.005 264.817 264.723 262.425 268.936 258.193C273.149 253.96 275.514 248.231 275.514 242.26V231.122Z" fill="#FFE500" stroke="#45413C" stroke-width="7" stroke-linecap="round" stroke-linejoin="round"/>
<path d="M444.739 169.144C444.739 209.569 356.361 242.362 247.358 242.362C138.355 242.362 49.9766 209.569 49.9766 169.144C49.9766 169.144 61.7328 39 247.358 39C432.983 39 444.739 169.144 444.739 169.144Z" fill="#F0D5A8"/>
<path d="M247.358 202.968C154.545 202.968 76.0672 178.94 55.4422 146.662C52.8016 153.933 50.9687 161.472 49.9766 169.143C49.9766 209.568 138.355 242.362 247.358 242.362C356.361 242.362 444.739 209.568 444.739 169.143C443.747 161.472 441.914 153.933 439.273 146.662C418.648 178.94 340.17 202.968 247.358 202.968Z" fill="#DEBB7E"/>
<path d="M444.739 169.144C444.739 209.569 356.361 242.362 247.358 242.362C138.355 242.362 49.9766 209.569 49.9766 169.144C49.9766 169.144 61.7328 39 247.358 39C432.983 39 444.739 169.144 444.739 169.144Z" stroke="#45413C" stroke-width="7" stroke-linecap="round" stroke-linejoin="round"/>
<path d="M131.651 99.1222C128.765 99.9017 126.308 101.796 124.819 104.387C123.33 106.979 122.931 110.055 123.71 112.941C124.49 115.826 126.384 118.284 128.975 119.773C131.567 121.262 134.644 121.661 137.529 120.882L148.46 117.994C149.889 117.608 151.228 116.945 152.4 116.041C153.572 115.138 154.555 114.012 155.293 112.729C156.03 111.446 156.507 110.03 156.698 108.563C156.888 107.095 156.787 105.604 156.401 104.175C156.015 102.747 155.351 101.408 154.448 100.236C153.545 99.0633 152.419 98.0804 151.136 97.3431C149.853 96.6057 148.437 96.1283 146.969 95.9382C145.502 95.748 144.011 95.8488 142.582 96.2347L131.651 99.1222Z" fill="#DEBB7E" stroke="#45413C" stroke-width="7" stroke-linecap="round" stroke-linejoin="round"/>
<path d="M197.652 129.647C196.422 132.382 196.328 135.494 197.391 138.298C198.455 141.102 200.589 143.369 203.324 144.6C206.059 145.831 209.171 145.925 211.975 144.861C214.78 143.797 217.047 141.663 218.277 138.928L222.918 128.616C223.534 127.261 223.878 125.799 223.929 124.312C223.98 122.825 223.737 121.343 223.215 119.949C222.693 118.556 221.902 117.279 220.887 116.192C219.871 115.104 218.652 114.227 217.298 113.611C215.943 112.995 214.481 112.651 212.994 112.6C211.507 112.549 210.025 112.792 208.631 113.314C207.238 113.836 205.961 114.627 204.874 115.642C203.786 116.657 202.909 117.877 202.293 119.231L197.652 129.647Z" fill="#DEBB7E" stroke="#45413C" stroke-width="7" stroke-linecap="round" stroke-linejoin="round"/>
<path d="M363.062 99.1222C364.491 99.5082 365.829 100.172 367.002 101.075C368.174 101.978 369.157 103.104 369.894 104.387C370.632 105.67 371.109 107.086 371.299 108.554C371.489 110.021 371.388 111.512 371.003 112.941C370.617 114.37 369.953 115.708 369.05 116.881C368.146 118.053 367.021 119.036 365.738 119.773C364.455 120.511 363.039 120.988 361.571 121.178C360.103 121.368 358.613 121.268 357.184 120.882L346.253 117.994C344.824 117.608 343.485 116.945 342.313 116.041C341.14 115.138 340.158 114.012 339.42 112.729C338.683 111.446 338.205 110.03 338.015 108.563C337.825 107.095 337.926 105.604 338.312 104.175C338.698 102.747 339.361 101.408 340.265 100.236C341.168 99.0633 342.294 98.0804 343.577 97.3431C344.86 96.6057 346.276 96.1283 347.743 95.9382C349.211 95.748 350.702 95.8488 352.131 96.2347L363.062 99.1222Z" fill="#DEBB7E" stroke="#45413C" stroke-width="7" stroke-linecap="round" stroke-linejoin="round"/>
<path d="M297.064 129.647C297.674 131.001 298.01 132.462 298.055 133.947C298.1 135.431 297.852 136.91 297.325 138.298C296.798 139.687 296.003 140.958 294.985 142.039C293.968 143.121 292.747 143.991 291.392 144.6C290.038 145.21 288.577 145.546 287.093 145.591C285.608 145.636 284.13 145.388 282.741 144.861C281.353 144.334 280.081 143.539 279 142.521C277.919 141.503 277.049 140.282 276.439 138.928L271.799 128.616C271.182 127.261 270.839 125.799 270.788 124.312C270.737 122.825 270.979 121.343 271.501 119.949C272.555 117.135 274.684 114.855 277.419 113.611C278.773 112.995 280.235 112.651 281.722 112.6C283.209 112.549 284.692 112.792 286.085 113.314C288.899 114.368 291.179 116.496 292.424 119.231L297.064 129.647Z" fill="#DEBB7E" stroke="#45413C" stroke-width="7" stroke-linecap="round" stroke-linejoin="round"/>
</svg>
