<svg width="496" height="496" viewBox="0 0 496 496" fill="none" xmlns="http://www.w3.org/2000/svg">
<path d="M126.417 13.0962C117.987 13.1278 109.592 14.1685 101.41 16.1962C82.5002 20.5362 57.8035 27.7695 35.3802 23.4295C34.4847 29.2021 34.7838 35.0971 36.2591 40.7494C37.7344 46.4017 40.3544 51.6909 43.9568 56.2895C32.2099 73.0642 25.9304 93.0575 25.9768 113.536V166.029H227.167V113.536C227.167 100.32 224.559 87.2339 219.492 75.0277C214.425 62.8215 206.999 51.7353 197.639 42.4045C188.28 33.0738 177.171 25.6819 164.949 20.6526C152.727 15.6232 139.633 13.0554 126.417 13.0962Z" fill="#A86C4D"/>
<path d="M126.417 13.0962C117.988 13.1278 109.593 14.1685 101.411 16.1962C82.5007 20.5362 57.8041 27.7695 35.3807 23.4295C33.8677 34.2599 36.327 45.2719 42.3041 54.4295C62.3109 54.7985 82.2529 52.0443 101.411 46.2662C109.593 44.2385 117.988 43.1978 126.417 43.1662C139.616 43.1254 152.693 45.6864 164.902 50.7029C177.11 55.7193 188.21 63.0927 197.567 72.4016C206.923 81.7104 214.354 92.7723 219.433 104.955C224.512 117.137 227.14 130.201 227.167 143.4V113.536C227.167 100.32 224.559 87.2339 219.492 75.0277C214.425 62.8215 206.999 51.7353 197.64 42.4046C188.28 33.0738 177.171 25.6819 164.949 20.6526C152.728 15.6232 139.633 13.0554 126.417 13.0962Z" fill="#DE926A"/>
<path d="M126.417 13.0962C117.987 13.1278 109.592 14.1685 101.41 16.1962C82.5002 20.5362 57.8035 27.7695 35.3802 23.4295C34.4847 29.2021 34.7838 35.0971 36.2591 40.7494C37.7344 46.4017 40.3544 51.6909 43.9568 56.2895C32.2099 73.0642 25.9304 93.0575 25.9768 113.536V166.029H227.167V113.536C227.167 100.32 224.559 87.2339 219.492 75.0277C214.425 62.8215 206.999 51.7353 197.639 42.4045C188.28 33.0738 177.171 25.6819 164.949 20.6526C152.727 15.6232 139.633 13.0554 126.417 13.0962V13.0962Z" stroke="#45413C" stroke-width="7" stroke-linecap="round" stroke-linejoin="round"/>
<path d="M126.417 261.613C142.361 261.613 158.15 264.754 172.881 270.856C187.612 276.957 200.997 285.901 212.271 297.175C223.546 308.45 232.489 321.835 238.591 336.566C244.693 351.297 247.833 367.085 247.833 383.03V489.05H5V383.03C5 367.085 8.14053 351.297 14.2423 336.566C20.3441 321.835 29.2875 308.45 40.5621 297.175C63.3322 274.405 94.215 261.613 126.417 261.613Z" fill="#FF87AF"/>
<path d="M126.417 261.613C94.215 261.613 63.3322 274.405 40.5621 297.175C17.7921 319.945 5 350.828 5 383.03V420.127C5 387.925 17.7921 357.042 40.5621 334.272C63.3322 311.502 94.215 298.71 126.417 298.71C158.618 298.71 189.501 311.502 212.271 334.272C235.041 357.042 247.833 387.925 247.833 420.127V383.03C247.833 367.085 244.693 351.297 238.591 336.566C232.489 321.835 223.546 308.45 212.271 297.175C200.997 285.901 187.612 276.957 172.881 270.856C158.15 264.754 142.361 261.613 126.417 261.613Z" fill="#FF6196"/>
<path d="M126.417 261.613C142.361 261.613 158.15 264.754 172.881 270.856C187.612 276.957 200.997 285.901 212.271 297.175C223.546 308.45 232.489 321.835 238.591 336.566C244.693 351.297 247.833 367.085 247.833 383.03V489.05H5V383.03C5 367.085 8.14053 351.297 14.2423 336.566C20.3441 321.835 29.2875 308.45 40.5621 297.175C63.3322 274.405 94.215 261.613 126.417 261.613V261.613Z" stroke="#45413C" stroke-width="7" stroke-linecap="round" stroke-linejoin="round"/>
<path d="M100.375 220.177H152.352V301.293H100.375V220.177Z" fill="#FFCEBF"/>
<path d="M100.375 220.177H152.352V280.317H100.375V220.177Z" fill="#FFB59E"/>
<path d="M100.375 220.177H152.352V301.293H100.375V220.177Z" stroke="#45413C" stroke-width="7" stroke-linecap="round" stroke-linejoin="round"/>
<path d="M237.5 156.937C236.627 152.508 234.222 148.527 230.708 145.693C227.194 142.858 222.794 141.352 218.28 141.437C213.95 141.437 209.797 139.717 206.735 136.655C203.673 133.593 201.953 129.441 201.953 125.11V99.6905C202 95.4027 200.612 91.2223 198.009 87.8145C195.406 84.4067 191.739 81.9671 187.59 80.8838C168.146 88.6434 147.347 92.4377 126.416 92.0438C105.485 92.4377 84.6867 88.6434 65.243 80.8838C61.2095 82.0819 57.6805 84.5707 55.1979 87.968C52.7152 91.3653 51.416 95.4835 51.4997 99.6905V125.11C51.4997 127.255 51.0774 129.378 50.2569 131.358C49.4364 133.339 48.2338 135.139 46.7177 136.655C45.2017 138.171 43.4018 139.374 41.421 140.194C39.4401 141.015 37.3171 141.437 35.173 141.437C30.6591 141.352 26.2592 142.858 22.7449 145.693C19.2305 148.527 16.8261 152.508 15.953 156.937C15.5012 159.595 15.6358 162.32 16.3475 164.92C17.0592 167.52 18.3307 169.934 20.0731 171.991C21.8155 174.048 23.9865 175.7 26.4342 176.83C28.8819 177.96 31.547 178.542 34.243 178.534H35.3797C39.2154 200.025 50.4896 219.483 67.2279 233.498C83.9663 247.514 105.102 255.194 126.933 255.194C148.764 255.194 169.9 247.514 186.638 233.498C203.377 219.483 214.651 200.025 218.486 178.534H219.623C222.284 178.482 224.903 177.857 227.3 176.701C229.697 175.545 231.817 173.885 233.514 171.835C235.211 169.785 236.446 167.392 237.133 164.821C237.821 162.25 237.946 159.561 237.5 156.937Z" fill="#FFCEBF" stroke="#45413C" stroke-width="7" stroke-linecap="round" stroke-linejoin="round"/>
<path d="M70.8242 156.214C70.8514 158.306 71.7017 160.303 73.1909 161.773C74.6801 163.243 76.6884 164.067 78.7809 164.067C80.8637 164.067 82.8613 163.24 84.334 161.767C85.8068 160.294 86.6342 158.297 86.6342 156.214C86.6342 154.131 85.8068 152.133 84.334 150.661C82.8613 149.188 80.8637 148.36 78.7809 148.36C76.6884 148.36 74.6801 149.184 73.1909 150.654C71.7017 152.124 70.8514 154.121 70.8242 156.214Z" fill="#45413C" stroke="#45413C" stroke-width="7" stroke-linecap="round" stroke-linejoin="round"/>
<path d="M182.009 156.214C181.982 158.306 181.132 160.303 179.643 161.773C178.153 163.243 176.145 164.067 174.053 164.067C171.97 164.067 169.972 163.24 168.499 161.767C167.027 160.294 166.199 158.297 166.199 156.214C166.199 154.131 167.027 152.133 168.499 150.661C169.972 149.188 171.97 148.36 174.053 148.36C176.145 148.36 178.153 149.184 179.643 150.654C181.132 152.124 181.982 154.121 182.009 156.214Z" fill="#45413C" stroke="#45413C" stroke-width="7" stroke-linecap="round" stroke-linejoin="round"/>
<path d="M97.3781 204.16C96.7255 204.181 96.0846 204.339 95.497 204.624C94.9095 204.909 94.3886 205.314 93.9681 205.813C93.5418 206.304 93.2284 206.882 93.0499 207.507C92.8713 208.132 92.832 208.788 92.9348 209.43C94.3229 217.301 98.4398 224.432 104.563 229.569C110.685 234.706 118.422 237.522 126.415 237.522C134.407 237.522 142.144 234.706 148.267 229.569C154.39 224.432 158.507 217.301 159.895 209.43C159.997 208.788 159.958 208.132 159.78 207.507C159.601 206.882 159.288 206.304 158.861 205.813C158.441 205.314 157.92 204.909 157.332 204.624C156.745 204.339 156.104 204.181 155.451 204.16H97.3781Z" fill="#FF6242"/>
<path d="M126.415 237.744C135.286 237.754 143.811 234.306 150.182 228.134C143.804 221.972 135.283 218.527 126.415 218.527C117.547 218.527 109.026 221.972 102.648 228.134C109.019 234.306 117.544 237.754 126.415 237.744Z" fill="#FFA694"/>
<path d="M97.3781 204.16C96.7255 204.181 96.0846 204.339 95.497 204.624C94.9095 204.909 94.3886 205.314 93.9681 205.813C93.5418 206.304 93.2284 206.882 93.0499 207.507C92.8713 208.132 92.832 208.788 92.9348 209.43C94.3229 217.301 98.4398 224.432 104.563 229.569C110.685 234.706 118.422 237.522 126.415 237.522C134.407 237.522 142.144 234.706 148.267 229.569C154.39 224.432 158.507 217.301 159.895 209.43C159.997 208.788 159.958 208.132 159.78 207.507C159.601 206.882 159.288 206.304 158.861 205.813C158.441 205.314 157.92 204.909 157.332 204.624C156.745 204.339 156.104 204.181 155.451 204.16H97.3781Z" stroke="#45413C" stroke-width="7" stroke-linecap="round" stroke-linejoin="round"/>
<path d="M55.4258 489.05V377.76" stroke="#45413C" stroke-width="7" stroke-linecap="round" stroke-linejoin="round"/>
<path d="M55.4258 189.797C55.4258 191.414 56.5036 192.965 58.4221 194.108C60.3406 195.251 62.9426 195.894 65.6558 195.894C68.3689 195.894 70.971 195.251 72.8895 194.108C74.808 192.965 75.8858 191.414 75.8858 189.797C75.8858 188.18 74.808 186.629 72.8895 185.486C70.971 184.343 68.3689 183.7 65.6558 183.7C62.9426 183.7 60.3406 184.343 58.4221 185.486C56.5036 186.629 55.4258 188.18 55.4258 189.797Z" fill="#FFB59E"/>
<path d="M176.945 189.797C176.945 191.414 178.023 192.965 179.942 194.108C181.86 195.251 184.462 195.894 187.175 195.894C189.888 195.894 192.491 195.251 194.409 194.108C196.328 192.965 197.405 191.414 197.405 189.797C197.405 188.18 196.328 186.629 194.409 185.486C192.491 184.343 189.888 183.7 187.175 183.7C184.462 183.7 181.86 184.343 179.942 185.486C178.023 186.629 176.945 188.18 176.945 189.797Z" fill="#FFB59E"/>
<path d="M369.248 7C398.737 7 427.017 18.7143 447.869 39.5658C468.721 60.4174 480.435 88.6981 480.435 118.187V262.853C480.421 265.357 479.669 267.8 478.272 269.878C476.874 271.955 474.895 273.573 472.581 274.53C406.253 301.091 332.243 301.091 265.915 274.53C263.684 273.586 261.769 272.025 260.396 270.029C259.023 268.034 258.249 265.687 258.165 263.267V118.6C258.11 103.973 260.943 89.4784 266.5 75.9476C272.056 62.4169 280.229 50.1155 290.548 39.7484C300.867 29.3813 313.13 21.1522 326.635 15.5327C340.14 9.91309 354.621 7.01349 369.248 7Z" fill="#A86C4D"/>
<path d="M369.251 7C339.781 7.02739 311.527 18.7538 290.697 39.6023C269.868 60.4509 258.168 88.716 258.168 118.187V150.943C258.141 136.333 260.993 121.861 266.562 108.354C272.132 94.8475 280.308 82.5706 290.624 72.2254C300.941 61.8802 313.195 53.6696 326.686 48.063C340.177 42.4563 354.642 39.5635 369.251 39.55C383.87 39.55 398.345 42.4327 411.849 48.0333C425.352 53.6339 437.618 61.8423 447.945 72.1889C458.273 82.5354 466.458 94.8169 472.034 108.331C477.609 121.844 480.465 136.325 480.438 150.943V118.187C480.438 88.6981 468.724 60.4174 447.872 39.5658C427.021 18.7143 398.74 7 369.251 7Z" fill="#DE926A"/>
<path d="M369.248 7C398.737 7 427.017 18.7143 447.869 39.5658C468.721 60.4174 480.435 88.6981 480.435 118.187V262.853C480.421 265.357 479.669 267.8 478.272 269.878C476.874 271.955 474.895 273.573 472.581 274.53V274.53C406.253 301.091 332.243 301.091 265.915 274.53V274.53C263.684 273.586 261.769 272.025 260.396 270.029C259.023 268.034 258.249 265.687 258.165 263.267V118.6C258.11 103.973 260.943 89.4784 266.5 75.9476C272.056 62.4169 280.229 50.1155 290.548 39.7484C300.867 29.3813 313.13 21.1522 326.635 15.5327C340.14 9.91309 354.621 7.01349 369.248 7V7Z" stroke="#45413C" stroke-width="7" stroke-linecap="round" stroke-linejoin="round"/>
<path d="M369.249 261.613C385.193 261.613 400.982 264.754 415.713 270.856C430.444 276.957 443.829 285.901 455.103 297.175C466.378 308.45 475.321 321.835 481.423 336.566C487.525 351.297 490.665 367.085 490.665 383.03V489.05H247.832V383.03C247.832 367.085 250.973 351.297 257.074 336.566C263.176 321.835 272.12 308.45 283.394 297.175C306.164 274.405 337.047 261.613 369.249 261.613Z" fill="#FF87AF"/>
<path d="M369.249 261.613C337.047 261.613 306.164 274.405 283.394 297.175C260.624 319.945 247.832 350.828 247.832 383.03V420.127C247.832 387.925 260.624 357.042 283.394 334.272C306.164 311.502 337.047 298.71 369.249 298.71C401.45 298.71 432.333 311.502 455.103 334.272C477.873 357.042 490.665 387.925 490.665 420.127V383.03C490.665 367.085 487.525 351.297 481.423 336.566C475.321 321.835 466.378 308.45 455.103 297.175C443.829 285.901 430.444 276.957 415.713 270.856C400.982 264.754 385.193 261.613 369.249 261.613Z" fill="#FF6196"/>
<path d="M369.249 261.613C385.193 261.613 400.982 264.754 415.713 270.856C430.444 276.957 443.829 285.901 455.103 297.175C466.378 308.45 475.321 321.835 481.423 336.566C487.525 351.297 490.665 367.085 490.665 383.03V489.05H247.832V383.03C247.832 367.085 250.973 351.297 257.074 336.566C263.176 321.835 272.12 308.45 283.394 297.175C306.164 274.405 337.047 261.613 369.249 261.613V261.613Z" stroke="#45413C" stroke-width="7" stroke-linecap="round" stroke-linejoin="round"/>
<path d="M343.211 220.177H395.188V301.293H343.211V220.177Z" fill="#FFCEBF" stroke="#45413C" stroke-width="7" stroke-linecap="round" stroke-linejoin="round"/>
<path d="M461.938 141.437C449.003 137.732 437.067 131.165 427.014 122.221C416.961 113.277 409.05 102.187 403.865 89.7701L397.562 74.5801C372.918 107.777 336.564 130.35 295.882 137.717L276.558 141.127C271.878 141.476 267.503 143.582 264.311 147.022C261.118 150.462 259.344 154.982 259.344 159.675C259.344 164.368 261.118 168.888 264.311 172.328C267.503 175.768 271.878 177.874 276.558 178.223H277.695C281.531 199.715 292.805 219.172 309.543 233.188C326.282 247.203 347.417 254.884 369.248 254.884C391.08 254.884 412.215 247.203 428.953 233.188C445.692 219.172 456.966 199.715 460.802 178.223H461.938C466.619 177.874 470.994 175.768 474.186 172.328C477.379 168.888 479.153 164.368 479.153 159.675C479.153 154.982 477.379 150.462 474.186 147.022C470.994 143.582 466.619 141.476 461.938 141.127V141.437Z" fill="#FFCEBF" stroke="#45413C" stroke-width="7" stroke-linecap="round" stroke-linejoin="round"/>
<path d="M313.656 156.214C313.683 158.306 314.534 160.303 316.023 161.773C317.512 163.243 319.52 164.067 321.613 164.067C323.696 164.067 325.693 163.24 327.166 161.767C328.639 160.294 329.466 158.297 329.466 156.214C329.466 154.131 328.639 152.133 327.166 150.661C325.693 149.188 323.696 148.36 321.613 148.36C319.52 148.36 317.512 149.184 316.023 150.654C314.534 152.124 313.683 154.121 313.656 156.214Z" fill="#45413C" stroke="#45413C" stroke-width="7" stroke-linecap="round" stroke-linejoin="round"/>
<path d="M424.845 156.214C424.818 158.306 423.968 160.303 422.478 161.773C420.989 163.243 418.981 164.067 416.889 164.067C414.806 164.067 412.808 163.24 411.335 161.767C409.863 160.294 409.035 158.297 409.035 156.214C409.035 154.131 409.863 152.133 411.335 150.661C412.808 149.188 414.806 148.36 416.889 148.36C418.981 148.36 420.989 149.184 422.478 150.654C423.968 152.124 424.818 154.121 424.845 156.214Z" fill="#45413C" stroke="#45413C" stroke-width="7" stroke-linecap="round" stroke-linejoin="round"/>
<path d="M340.214 204.16C339.561 204.181 338.921 204.339 338.333 204.624C337.745 204.909 337.225 205.314 336.804 205.813C336.378 206.304 336.064 206.882 335.886 207.507C335.707 208.132 335.668 208.788 335.771 209.43C337.159 217.301 341.276 224.432 347.399 229.569C353.521 234.706 361.258 237.522 369.251 237.522C377.243 237.522 384.98 234.706 391.103 229.569C397.226 224.432 401.343 217.301 402.731 209.43C402.833 208.788 402.794 208.132 402.616 207.507C402.437 206.882 402.124 206.304 401.697 205.813C401.277 205.314 400.756 204.909 400.168 204.624C399.581 204.339 398.94 204.181 398.287 204.16H340.214Z" fill="#FF6242"/>
<path d="M369.251 237.744C378.122 237.754 386.647 234.306 393.018 228.134C386.64 221.972 378.119 218.527 369.251 218.527C360.383 218.527 351.862 221.972 345.484 228.134C351.855 234.306 360.38 237.754 369.251 237.744Z" fill="#FFA694"/>
<path d="M340.214 204.16C339.561 204.181 338.921 204.339 338.333 204.624C337.745 204.909 337.225 205.314 336.804 205.813C336.378 206.304 336.064 206.882 335.886 207.507C335.707 208.132 335.668 208.788 335.771 209.43C337.159 217.301 341.276 224.432 347.399 229.569C353.521 234.706 361.258 237.522 369.251 237.522C377.243 237.522 384.98 234.706 391.103 229.569C397.226 224.432 401.343 217.301 402.731 209.43C402.833 208.788 402.794 208.132 402.616 207.507C402.437 206.882 402.124 206.304 401.697 205.813C401.277 205.314 400.756 204.909 400.168 204.624C399.581 204.339 398.94 204.181 398.287 204.16H340.214Z" stroke="#45413C" stroke-width="7" stroke-linecap="round" stroke-linejoin="round"/>
<path d="M440.238 489.05V377.76" stroke="#45413C" stroke-width="7" stroke-linecap="round" stroke-linejoin="round"/>
<path d="M298.262 189.797C298.262 191.414 299.34 192.965 301.258 194.108C303.177 195.251 305.779 195.894 308.492 195.894C311.205 195.894 313.807 195.251 315.725 194.108C317.644 192.965 318.722 191.414 318.722 189.797C318.722 188.18 317.644 186.629 315.725 185.486C313.807 184.343 311.205 183.7 308.492 183.7C305.779 183.7 303.177 184.343 301.258 185.486C299.34 186.629 298.262 188.18 298.262 189.797Z" fill="#FFB59E"/>
<path d="M419.781 189.797C419.781 191.414 420.859 192.965 422.778 194.108C424.696 195.251 427.298 195.894 430.011 195.894C432.724 195.894 435.326 195.251 437.245 194.108C439.163 192.965 440.241 191.414 440.241 189.797C440.241 188.18 439.163 186.629 437.245 185.486C435.326 184.343 432.724 183.7 430.011 183.7C427.298 183.7 424.696 184.343 422.778 185.486C420.859 186.629 419.781 188.18 419.781 189.797Z" fill="#FFB59E"/>
<path d="M247.835 489.05C240.839 470.566 228.381 454.65 212.12 443.417C195.858 432.185 176.562 426.169 156.798 426.169C137.035 426.169 117.739 432.185 101.477 443.417C85.2155 454.65 72.7582 470.566 65.7617 489.05H247.835Z" fill="#D91A1E"/>
<path d="M156.798 454.64C170.928 454.608 184.893 457.673 197.711 463.617C210.529 469.562 221.889 478.243 230.992 489.05H247.835C240.839 470.566 228.381 454.65 212.12 443.417C195.858 432.185 176.562 426.169 156.798 426.169C137.035 426.169 117.739 432.185 101.477 443.417C85.2155 454.65 72.7582 470.566 65.7617 489.05H82.5017C91.6341 478.252 103.014 469.578 115.847 463.634C128.68 457.691 142.656 454.621 156.798 454.64Z" fill="#C8161A"/>
<path d="M247.835 489.05C240.839 470.566 228.381 454.65 212.12 443.417C195.858 432.185 176.562 426.169 156.798 426.169C137.035 426.169 117.739 432.185 101.477 443.417C85.2155 454.65 72.7582 470.566 65.7617 489.05H247.835Z" stroke="#45413C" stroke-width="7" stroke-linecap="round" stroke-linejoin="round"/>
<path d="M137.578 393.156H176.018V459.29H137.578V393.156Z" fill="#FFCEBF"/>
<path d="M137.578 393.156H176.018V441.103H137.578V393.156Z" fill="#FFB59E"/>
<path d="M137.578 393.156H176.018V459.29H137.578V393.156Z" stroke="#45413C" stroke-width="7" stroke-linecap="round" stroke-linejoin="round"/>
<path d="M156.797 243.84C150.488 243.84 144.203 244.639 138.094 246.217C122.19 251.291 105.428 253.118 88.804 251.59C88.1499 255.886 88.3711 260.27 89.4543 264.479C90.5375 268.687 92.4604 272.633 95.1073 276.08C86.4815 288.568 81.8347 303.373 81.7773 318.55V357.816H231.817V318.55C231.735 298.707 223.795 279.705 209.735 265.703C195.675 251.701 176.64 243.84 156.797 243.84Z" fill="#A86C4D"/>
<path d="M156.798 243.84C150.489 243.84 144.204 244.639 138.095 246.217C122.191 251.291 105.429 253.118 88.8051 251.59C88.1592 255.846 88.3752 260.189 89.4403 264.361C90.5053 268.532 92.3977 272.447 95.0051 275.873C109.589 275.958 124.107 273.904 138.095 269.777C149.153 266.93 160.714 266.645 171.899 268.943C183.083 271.241 193.595 276.062 202.634 283.038C211.674 290.014 219.001 298.962 224.059 309.199C229.116 319.435 231.77 330.692 231.818 342.11V318.55C231.736 298.707 223.796 279.705 209.736 265.703C195.676 251.701 176.641 243.84 156.798 243.84Z" fill="#DE926A"/>
<path d="M156.797 243.84C150.488 243.84 144.203 244.639 138.094 246.217C122.19 251.291 105.428 253.118 88.804 251.59C88.1499 255.886 88.3711 260.27 89.4543 264.479C90.5375 268.687 92.4604 272.633 95.1073 276.08C86.4815 288.568 81.8347 303.373 81.7773 318.55V357.816H231.817V318.55C231.735 298.707 223.795 279.705 209.735 265.703C195.675 251.701 176.64 243.84 156.797 243.84V243.84Z" stroke="#45413C" stroke-width="7" stroke-linecap="round" stroke-linejoin="round"/>
<path d="M84.3602 340.56C81.6758 341.3 79.2667 342.81 77.4305 344.904C75.5942 346.997 74.411 349.582 74.0269 352.34C73.8702 354.257 74.1114 356.185 74.7354 358.004C75.3594 359.823 76.3528 361.493 77.653 362.91C78.9533 364.326 80.5324 365.459 82.2912 366.236C84.0501 367.014 85.9506 367.419 87.8735 367.427H88.7002C91.0962 383.859 99.3273 398.88 111.888 409.742C124.449 420.605 140.501 426.583 157.107 426.583C173.713 426.583 189.764 420.605 202.325 409.742C214.886 398.88 223.118 383.859 225.514 367.427H226.34C229.815 367.667 233.248 366.559 235.927 364.333C238.605 362.107 240.323 358.934 240.722 355.474C241.121 352.014 240.171 348.534 238.07 345.756C235.969 342.978 232.878 341.117 229.44 340.56C198.44 334.463 181.494 301.707 181.08 300.983C180.254 301.913 154.834 341.49 84.3602 340.56Z" fill="#FFCEBF" stroke="#45413C" stroke-width="7" stroke-linecap="round" stroke-linejoin="round"/>
<path d="M120.422 356.37C120.422 357.74 120.966 359.054 121.935 360.023C122.904 360.992 124.218 361.536 125.589 361.536C126.959 361.536 128.273 360.992 129.242 360.023C130.211 359.054 130.755 357.74 130.755 356.37C130.755 355 130.211 353.685 129.242 352.716C128.273 351.747 126.959 351.203 125.589 351.203C124.218 351.203 122.904 351.747 121.935 352.716C120.966 353.685 120.422 355 120.422 356.37Z" fill="#45413C" stroke="#45413C" stroke-width="7" stroke-linecap="round" stroke-linejoin="round"/>
<path d="M193.169 356.37C193.143 357.732 192.59 359.031 191.627 359.994C190.663 360.957 189.365 361.51 188.003 361.536C186.632 361.536 185.318 360.992 184.349 360.023C183.38 359.054 182.836 357.74 182.836 356.37C182.836 355 183.38 353.685 184.349 352.716C185.318 351.747 186.632 351.203 188.003 351.203C189.373 351.203 190.687 351.747 191.656 352.716C192.625 353.685 193.169 355 193.169 356.37Z" fill="#45413C" stroke="#45413C" stroke-width="7" stroke-linecap="round" stroke-linejoin="round"/>
<path d="M105.129 378.277C105.129 379.346 105.837 380.371 107.096 381.127C108.356 381.882 110.064 382.307 111.846 382.307C113.627 382.307 115.335 381.882 116.595 381.127C117.855 380.371 118.562 379.346 118.562 378.277C118.562 377.208 117.855 376.183 116.595 375.427C115.335 374.672 113.627 374.247 111.846 374.247C110.064 374.247 108.356 374.672 107.096 375.427C105.837 376.183 105.129 377.208 105.129 378.277Z" fill="#FFB59E"/>
<path d="M194.926 378.277C194.926 379.346 195.633 380.371 196.893 381.127C198.153 381.882 199.861 382.307 201.642 382.307C203.424 382.307 205.132 381.882 206.392 381.127C207.651 380.371 208.359 379.346 208.359 378.277C208.359 377.208 207.651 376.183 206.392 375.427C205.132 374.672 203.424 374.247 201.642 374.247C199.861 374.247 198.153 374.672 196.893 375.427C195.633 376.183 194.926 377.208 194.926 378.277Z" fill="#FFB59E"/>
<path d="M139.332 397.394C144.195 401.474 150.467 403.478 156.795 402.974C163.123 403.478 169.396 401.474 174.259 397.394" stroke="#45413C" stroke-width="7" stroke-linecap="round" stroke-linejoin="round"/>
<path d="M236.879 423.64C243.473 417.665 249.087 410.691 253.516 402.973C261.782 388.713 281.312 385.51 289.372 398.22C296.296 409.173 292.162 422.503 273.872 429.22C267.727 431.431 261.128 432.079 254.67 431.105C248.213 430.131 242.098 427.565 236.879 423.64Z" fill="#A86C4D" stroke="#45413C" stroke-width="7" stroke-linecap="round" stroke-linejoin="round"/>
<path d="M440.963 423.64C434.32 417.685 428.669 410.708 424.223 402.973C415.956 388.713 396.426 385.51 388.47 398.22C381.546 409.173 385.576 422.503 403.866 429.22C410.03 431.422 416.643 432.064 423.116 431.091C429.588 430.117 435.719 427.557 440.963 423.64Z" fill="#A86C4D" stroke="#45413C" stroke-width="7" stroke-linecap="round" stroke-linejoin="round"/>
<path d="M429.905 489.05C422.909 470.566 410.452 454.65 394.19 443.417C377.928 432.185 358.633 426.169 338.869 426.169C319.105 426.169 299.809 432.185 283.548 443.417C267.286 454.65 254.828 470.566 247.832 489.05H429.905Z" fill="#401B97"/>
<path d="M338.869 454.64C353.011 454.621 366.987 457.691 379.82 463.634C392.653 469.578 404.033 478.252 413.165 489.05H429.905C422.909 470.566 410.452 454.65 394.19 443.417C377.928 432.185 358.633 426.169 338.869 426.169C319.105 426.169 299.809 432.185 283.548 443.417C267.286 454.65 254.828 470.566 247.832 489.05H264.675C273.778 478.243 285.138 469.562 297.956 463.617C310.774 457.673 324.739 454.608 338.869 454.64Z" fill="#21006E"/>
<path d="M429.905 489.05C422.909 470.566 410.452 454.65 394.19 443.417C377.928 432.185 358.633 426.169 338.869 426.169C319.105 426.169 299.809 432.185 283.548 443.417C267.286 454.65 254.828 470.566 247.832 489.05H429.905Z" stroke="#45413C" stroke-width="7" stroke-linecap="round" stroke-linejoin="round"/>
<path d="M319.648 393.156H358.088V459.29H319.648V393.156Z" fill="#FFCEBF"/>
<path d="M319.648 393.156H358.088V441.103H319.648V393.156Z" fill="#FFB59E"/>
<path d="M319.648 393.156H358.088V459.29H319.648V393.156Z" stroke="#45413C" stroke-width="7" stroke-linecap="round" stroke-linejoin="round"/>
<path d="M338.872 243.84C358.715 243.84 377.749 251.701 391.809 265.703C405.87 279.705 413.81 298.707 413.892 318.55V357.816H263.852V318.55C263.934 298.707 271.874 279.705 285.934 265.703C299.994 251.701 319.029 243.84 338.872 243.84Z" fill="#A86C4D"/>
<path d="M338.872 243.84C319.029 243.84 299.994 251.701 285.934 265.703C271.874 279.705 263.934 298.707 263.852 318.55V342.11C263.852 322.213 271.755 303.132 285.824 289.063C299.893 274.994 318.975 267.09 338.872 267.09C358.768 267.09 377.85 274.994 391.919 289.063C405.988 303.132 413.892 322.213 413.892 342.11V318.55C413.81 298.707 405.87 279.705 391.809 265.703C377.749 251.701 358.715 243.84 338.872 243.84Z" fill="#DE926A"/>
<path d="M338.872 243.84C319.029 243.84 299.994 251.701 285.934 265.703C271.874 279.705 263.934 298.707 263.852 318.55V357.816H413.892V318.55C413.81 298.707 405.87 279.705 391.809 265.703C377.749 251.701 358.715 243.84 338.872 243.84V243.84Z" stroke="#45413C" stroke-width="7" stroke-linecap="round" stroke-linejoin="round"/>
<path d="M421.949 352.34C421.565 349.582 420.382 346.997 418.545 344.904C416.709 342.81 414.3 341.3 411.616 340.56C397.084 341.258 382.643 337.932 369.88 330.949C357.118 323.967 346.53 313.597 339.282 300.983C332.043 313.605 321.457 323.981 308.693 330.965C295.928 337.949 281.482 341.27 266.949 340.56C263.511 341.117 260.42 342.978 258.319 345.756C256.218 348.534 255.268 352.014 255.667 355.474C256.067 358.934 257.784 362.107 260.462 364.333C263.141 366.559 266.574 367.667 270.049 367.427H270.876C273.272 383.859 281.503 398.88 294.064 409.742C306.625 420.605 322.676 426.583 339.282 426.583C355.888 426.583 371.94 420.605 384.501 409.742C397.062 398.88 405.293 383.859 407.689 367.427H408.516C410.403 367.363 412.259 366.917 413.969 366.115C415.679 365.313 417.208 364.172 418.464 362.761C419.721 361.351 420.677 359.7 421.276 357.908C421.875 356.117 422.104 354.223 421.949 352.34Z" fill="#FFCEBF" stroke="#45413C" stroke-width="7" stroke-linecap="round" stroke-linejoin="round"/>
<path d="M302.496 356.37C302.523 357.732 303.075 359.031 304.039 359.994C305.002 360.957 306.301 361.51 307.663 361.536C309.033 361.536 310.347 360.992 311.316 360.023C312.285 359.054 312.829 357.74 312.829 356.37C312.829 355 312.285 353.685 311.316 352.716C310.347 351.747 309.033 351.203 307.663 351.203C306.292 351.203 304.978 351.747 304.009 352.716C303.04 353.685 302.496 355 302.496 356.37Z" fill="#45413C" stroke="#45413C" stroke-width="7" stroke-linecap="round" stroke-linejoin="round"/>
<path d="M375.243 356.37C375.243 357.74 374.699 359.054 373.73 360.023C372.761 360.992 371.447 361.536 370.077 361.536C368.707 361.536 367.392 360.992 366.423 360.023C365.454 359.054 364.91 357.74 364.91 356.37C364.91 355 365.454 353.685 366.423 352.716C367.392 351.747 368.707 351.203 370.077 351.203C371.447 351.203 372.761 351.747 373.73 352.716C374.699 353.685 375.243 355 375.243 356.37Z" fill="#45413C" stroke="#45413C" stroke-width="7" stroke-linecap="round" stroke-linejoin="round"/>
<path d="M287.309 378.277C287.309 379.346 288.016 380.371 289.276 381.127C290.535 381.882 292.244 382.307 294.025 382.307C295.807 382.307 297.515 381.882 298.775 381.127C300.034 380.371 300.742 379.346 300.742 378.277C300.742 377.208 300.034 376.183 298.775 375.427C297.515 374.672 295.807 374.247 294.025 374.247C292.244 374.247 290.535 374.672 289.276 375.427C288.016 376.183 287.309 377.208 287.309 378.277Z" fill="#FFB59E"/>
<path d="M377.102 378.277C377.102 379.346 377.809 380.371 379.069 381.127C380.328 381.882 382.037 382.307 383.818 382.307C385.6 382.307 387.308 381.882 388.568 381.127C389.827 380.371 390.535 379.346 390.535 378.277C390.535 377.208 389.827 376.183 388.568 375.427C387.308 374.672 385.6 374.247 383.818 374.247C382.037 374.247 380.328 374.672 379.069 375.427C377.809 376.183 377.102 377.208 377.102 378.277Z" fill="#FFB59E"/>
<path d="M321.406 398.736C326.269 402.817 332.542 404.821 338.87 404.316C345.197 404.821 351.47 402.817 356.333 398.736" stroke="#45413C" stroke-width="7" stroke-linecap="round" stroke-linejoin="round"/>
</svg>
