<svg width="491" height="491" viewBox="0 0 491 491" fill="none" xmlns="http://www.w3.org/2000/svg">
<path d="M15.3438 245.772C15.3438 293.981 34.4948 340.216 68.5838 374.305C102.673 408.394 148.907 427.545 197.117 427.545C245.326 427.545 291.56 408.394 325.649 374.305C359.738 340.216 378.889 293.981 378.889 245.772C378.889 197.563 359.738 151.329 325.649 117.24C291.56 83.151 245.326 64 197.117 64C148.907 64 102.673 83.151 68.5838 117.24C34.4948 151.329 15.3438 197.563 15.3438 245.772Z" fill="#FFE500"/>
<path d="M197.059 64C161.083 64 125.915 74.6693 96.0037 94.6585C66.0923 114.648 42.781 143.059 29.0183 176.298C15.2556 209.537 11.6599 246.111 18.6858 281.394C25.7118 316.677 43.0439 349.084 68.4898 374.516C93.9358 399.947 126.352 417.261 161.639 424.267C196.926 431.273 233.499 427.657 266.73 413.875C299.962 400.094 328.36 376.767 348.332 346.844C368.305 316.922 378.954 281.748 378.934 245.772C378.907 197.554 359.733 151.32 325.628 117.234C291.522 83.1477 245.277 64 197.059 64ZM197.059 400.335C164.243 400.335 132.165 390.604 104.88 372.373C77.5949 354.142 56.3288 328.229 43.7709 297.912C31.213 267.594 27.9273 234.234 34.3293 202.049C40.7312 169.864 56.5333 140.301 79.7373 117.097C102.941 93.8929 132.505 78.0908 164.69 71.6889C196.875 65.2869 230.235 68.5726 260.553 81.1305C290.87 93.6884 316.783 114.954 335.014 142.239C353.245 169.524 362.976 201.603 362.976 234.418C362.976 256.206 358.685 277.782 350.347 297.912C342.008 318.042 329.787 336.332 314.38 351.739C298.973 367.146 280.683 379.367 260.553 387.705C240.423 396.043 218.847 400.335 197.059 400.335Z" fill="#EBCB00"/>
<path d="M142.57 100.316C142.57 103.924 148.315 107.384 158.539 109.936C168.764 112.487 182.632 113.921 197.092 113.921C211.552 113.921 225.42 112.487 235.644 109.936C245.869 107.384 251.613 103.924 251.613 100.316C251.613 96.7075 245.869 93.2471 235.644 90.6957C225.42 88.1443 211.552 86.7109 197.092 86.7109C182.632 86.7109 168.764 88.1443 158.539 90.6957C148.315 93.2471 142.57 96.7075 142.57 100.316Z" fill="#FFF48C"/>
<path d="M110.762 254.876C110.762 257.291 111.721 259.607 113.428 261.314C115.136 263.021 117.451 263.98 119.866 263.98C122.28 263.98 124.596 263.021 126.303 261.314C128.01 259.607 128.97 257.291 128.97 254.876C128.97 252.462 128.01 250.146 126.303 248.439C124.596 246.732 122.28 245.772 119.866 245.772C117.451 245.772 115.136 246.732 113.428 248.439C111.721 250.146 110.762 252.462 110.762 254.876Z" fill="#45413C" stroke="#45413C" stroke-width="7" stroke-linecap="round" stroke-linejoin="round"/>
<path d="M154.664 241.271C154.664 241.271 127.352 200.355 97.1758 213.959" stroke="#45413C" stroke-width="7" stroke-linecap="round" stroke-linejoin="round"/>
<path d="M239.586 241.271C239.586 241.271 266.898 200.355 297.176 213.959" stroke="#45413C" stroke-width="7" stroke-linecap="round" stroke-linejoin="round"/>
<path d="M265.32 254.876C265.32 257.291 266.279 259.607 267.987 261.314C269.694 263.021 272.01 263.98 274.424 263.98C276.839 263.98 279.154 263.021 280.862 261.314C282.569 259.607 283.528 257.291 283.528 254.876C283.528 252.462 282.569 250.146 280.862 248.439C279.154 246.732 276.839 245.772 274.424 245.772C272.01 245.772 269.694 246.732 267.987 248.439C266.279 250.146 265.32 252.462 265.32 254.876Z" fill="#45413C" stroke="#45413C" stroke-width="7" stroke-linecap="round" stroke-linejoin="round"/>
<path d="M151.68 336.71C165.138 327.717 180.961 322.916 197.148 322.916C213.335 322.916 229.159 327.717 242.617 336.71" stroke="#45413C" stroke-width="7" stroke-linecap="round"/>
<path d="M328.957 295.793C328.957 303.363 318.727 309.5 306.248 309.5C293.768 309.5 283.539 303.363 283.539 295.793C283.539 288.224 293.768 282.188 306.248 282.188C318.727 282.188 328.957 288.326 328.957 295.793Z" fill="#FFAA54"/>
<path d="M65.3711 295.792C65.3711 303.362 75.6003 309.499 88.0798 309.499C100.559 309.499 110.789 303.362 110.789 295.792C110.789 288.223 100.559 282.188 88.0798 282.188C75.6003 282.188 65.3711 288.325 65.3711 295.792Z" fill="#FFAA54"/>
<path d="M15.3438 245.772C15.3438 293.981 34.4948 340.216 68.5838 374.305C102.673 408.394 148.907 427.545 197.117 427.545C245.326 427.545 291.56 408.394 325.649 374.305C359.738 340.216 378.889 293.981 378.889 245.772C378.889 197.563 359.738 151.329 325.649 117.24C291.56 83.151 245.326 64 197.117 64C148.907 64 102.673 83.151 68.5838 117.24C34.4948 151.329 15.3438 197.563 15.3438 245.772V245.772Z" stroke="#45413C" stroke-width="7" stroke-linecap="round" stroke-linejoin="round"/>
</svg>
