<svg width="495" height="495" viewBox="0 0 495 495" fill="none" xmlns="http://www.w3.org/2000/svg">
<path d="M377.951 120.107C361.22 114.368 343.399 112.528 325.849 114.726C308.298 116.925 291.482 123.103 276.683 132.791C268.093 138.688 257.918 141.845 247.498 141.845C237.079 141.845 226.904 138.688 218.314 132.791C203.515 123.103 186.698 116.925 169.148 114.726C151.597 112.528 133.776 114.368 117.045 120.107C52.1795 139.082 22.3764 232.719 50.6326 329.141C78.8889 425.563 154.686 488.366 219.242 469.288C224.386 467.815 229.363 465.81 234.092 463.307C238.209 461.077 242.817 459.91 247.498 459.91C252.18 459.91 256.788 461.077 260.905 463.307C265.634 465.81 270.61 467.815 275.755 469.288C340.311 488.366 416.108 425.563 444.364 329.141C472.62 232.719 442.817 139.082 377.951 120.107Z" fill="#FF6242"/>
<path d="M117.048 165.687C133.8 160.477 151.452 158.803 168.884 160.774C186.317 162.744 203.15 168.316 218.317 177.134C227.125 182.446 237.215 185.253 247.501 185.253C257.787 185.253 267.877 182.446 276.685 177.134C291.852 168.316 308.685 162.744 326.117 160.774C343.55 158.803 361.202 160.477 377.954 165.687C422.092 177.34 450.142 220.344 454.37 273.969C459.732 199.306 430.238 135.472 377.954 120.209C361.223 114.471 343.402 112.631 325.851 114.829C308.301 117.027 291.484 123.206 276.685 132.894C268.095 138.791 257.92 141.948 247.501 141.948C237.081 141.948 226.906 138.791 218.317 132.894C203.518 123.206 186.701 117.027 169.15 114.829C151.6 112.631 133.779 114.471 117.048 120.209C64.7634 135.472 35.2697 199.306 40.6322 273.969C45.0665 220.24 72.9103 177.237 117.048 165.687Z" fill="#FF866E"/>
<path d="M377.951 120.107C361.22 114.368 343.399 112.528 325.849 114.726C308.298 116.925 291.482 123.103 276.683 132.791C268.093 138.688 257.918 141.845 247.498 141.845C237.079 141.845 226.904 138.688 218.314 132.791C203.515 123.103 186.698 116.925 169.148 114.726C151.597 112.528 133.776 114.368 117.045 120.107C52.1795 139.082 22.3764 232.719 50.6326 329.141C78.8889 425.563 154.686 488.366 219.242 469.288C224.386 467.815 229.363 465.81 234.092 463.307C238.209 461.077 242.817 459.91 247.498 459.91C252.18 459.91 256.788 461.077 260.905 463.307C265.634 465.81 270.61 467.815 275.755 469.288C340.311 488.366 416.108 425.563 444.364 329.141C472.62 232.719 442.817 139.082 377.951 120.107Z" stroke="#45413C" stroke-width="7" stroke-linecap="round" stroke-linejoin="round"/>
</svg>
