<svg width="495" height="495" viewBox="0 0 495 495" fill="none" xmlns="http://www.w3.org/2000/svg">
<path d="M374.189 96.8789L328.814 142.563C293.229 113.205 247.709 98.6713 201.696 101.976C155.682 105.28 112.706 126.17 81.6814 160.311C50.6568 194.453 33.9646 239.227 35.0669 285.345C36.1693 331.464 54.9816 375.389 87.6019 408.01C120.222 440.63 164.147 459.442 210.266 460.545C256.385 461.647 301.159 444.955 335.3 413.93C369.442 382.906 390.331 339.93 393.636 293.916C396.94 247.902 382.406 202.382 353.048 166.798L398.733 121.113L374.189 96.8789Z" fill="#87898C"/>
<path d="M357.793 113.277L328.815 142.564C301.677 120.113 268.531 106.146 233.51 102.402C198.488 98.6587 163.139 105.305 131.869 121.512C100.598 137.719 74.7888 162.77 57.6571 193.544C40.5254 224.318 32.8291 259.453 35.5275 294.57C37.8218 263.513 48.1596 233.587 65.5244 207.736C82.8892 181.885 106.683 160.998 134.566 147.129C162.45 133.26 193.462 126.887 224.555 128.636C255.648 130.385 285.75 140.196 311.902 157.105C316.837 160.308 322.719 161.728 328.572 161.128C334.425 160.527 339.896 157.943 344.077 153.805L371.199 126.683L357.793 113.277Z" fill="#BDBEC0"/>
<path d="M374.189 96.8789L328.814 142.563C293.229 113.205 247.709 98.6713 201.696 101.976C155.682 105.28 112.706 126.17 81.6814 160.311C50.6568 194.453 33.9646 239.227 35.0669 285.345C36.1693 331.464 54.9816 375.389 87.6019 408.01C120.222 440.63 164.147 459.442 210.266 460.545C256.385 461.647 301.159 444.955 335.3 413.93C369.442 382.906 390.331 339.93 393.636 293.916C396.94 247.902 382.406 202.382 353.048 166.798L398.733 121.113L374.189 96.8789Z" stroke="#45413C" stroke-width="7" stroke-linecap="round" stroke-linejoin="round"/>
<path d="M451.943 43.6667C449.254 40.9228 446.045 38.7429 442.503 37.2547C438.962 35.7665 435.159 35 431.317 35C427.476 35 423.673 35.7665 420.132 37.2547C416.59 38.7429 413.381 40.9228 410.692 43.6667L357.789 96.8792C356.707 97.9529 355.849 99.23 355.263 100.637C354.677 102.044 354.375 103.553 354.375 105.078C354.375 106.602 354.677 108.111 355.263 109.518C355.849 110.925 356.707 112.202 357.789 113.276L382.333 137.82C383.407 138.902 384.684 139.76 386.091 140.347C387.498 140.933 389.007 141.234 390.532 141.234C392.056 141.234 393.565 140.933 394.972 140.347C396.379 139.76 397.656 138.902 398.73 137.82L451.943 84.298C457.295 78.8914 460.298 71.5906 460.298 63.9823C460.298 56.3741 457.295 49.0733 451.943 43.6667V43.6667Z" fill="#FFE500"/>
<path d="M451.942 43.6667C449.254 40.9228 446.045 38.7429 442.503 37.2547C438.962 35.7665 435.159 35 431.317 35C427.476 35 423.673 35.7665 420.132 37.2547C416.59 38.7429 413.381 40.9228 410.692 43.6667L357.789 96.8792C356.707 97.9529 355.849 99.23 355.263 100.637C354.677 102.044 354.375 103.553 354.375 105.078C354.375 106.602 354.677 108.111 355.263 109.518C355.849 110.925 356.707 112.202 357.789 113.276L366.555 122.042C366.905 121.327 367.357 120.667 367.896 120.082L421.624 66.7667C426.775 61.6376 433.671 58.6401 440.935 58.3724C448.199 58.1048 455.297 60.5868 460.811 65.323C460.959 61.29 460.244 57.272 458.715 53.5374C457.185 49.8028 454.877 46.4376 451.942 43.6667V43.6667Z" fill="#FFF48C"/>
<path d="M451.942 43.6663C454.686 46.3548 456.866 49.5638 458.355 53.1053C459.843 56.6469 460.609 60.4498 460.609 64.2913C460.609 68.1328 459.843 71.9357 458.355 75.4772C456.866 79.0188 454.686 82.2278 451.942 84.9163L398.73 138.129C397.656 139.211 396.379 140.069 394.972 140.655C393.565 141.241 392.056 141.543 390.532 141.543C389.007 141.543 387.498 141.241 386.091 140.655C384.684 140.069 383.407 139.211 382.333 138.129L357.789 113.585C356.707 112.511 355.849 111.234 355.263 109.827C354.677 108.42 354.375 106.911 354.375 105.387C354.375 103.862 354.677 102.353 355.263 100.946C355.849 99.539 356.707 98.2618 357.789 97.1881L411.311 43.6663C416.718 38.3133 424.019 35.3105 431.627 35.3105C439.235 35.3105 446.536 38.3133 451.942 43.6663V43.6663Z" stroke="#45413C" stroke-width="7" stroke-linecap="round" stroke-linejoin="round"/>
<path d="M69.6641 281.163C69.6641 300.177 73.4091 319.005 80.6854 336.571C87.9616 354.138 98.6266 370.099 112.071 383.544C125.516 396.988 141.477 407.653 159.044 414.93C176.61 422.206 195.438 425.951 214.452 425.951C233.465 425.951 252.293 422.206 269.859 414.93C287.426 407.653 303.387 396.988 316.832 383.544C330.277 370.099 340.942 354.138 348.218 336.571C355.494 319.005 359.239 300.177 359.239 281.163C359.239 262.15 355.494 243.322 348.218 225.756C340.942 208.189 330.277 192.228 316.832 178.783C303.387 165.338 287.426 154.674 269.859 147.397C252.293 140.121 233.465 136.376 214.452 136.376C195.438 136.376 176.61 140.121 159.044 147.397C141.477 154.674 125.516 165.338 112.071 178.783C98.6266 192.228 87.9616 208.189 80.6854 225.756C73.4091 243.322 69.6641 262.15 69.6641 281.163V281.163Z" fill="#656769"/>
<path d="M112.253 213.514C131.389 194.172 155.6 180.631 182.097 174.451C208.595 168.272 236.298 169.705 262.016 178.587C287.734 187.469 310.418 203.436 327.455 224.65C344.492 245.864 355.188 271.46 358.309 298.489C360.324 278.414 358.11 258.14 351.808 238.974C345.506 219.807 335.257 202.175 321.722 187.213C308.186 172.251 291.666 160.292 273.225 152.108C254.784 143.923 234.832 139.694 214.656 139.694C194.481 139.694 174.529 143.923 156.088 152.108C137.647 160.292 121.126 172.251 107.591 187.213C94.0558 202.175 83.8068 219.807 77.5049 238.974C71.2029 258.14 68.9881 278.414 71.0031 298.489C74.8362 266.34 89.3641 236.412 112.253 213.514V213.514Z" fill="#525252"/>
<path d="M69.6641 281.163C69.6641 300.177 73.4091 319.005 80.6854 336.571C87.9616 354.138 98.6266 370.099 112.071 383.544C125.516 396.988 141.477 407.653 159.044 414.93C176.61 422.206 195.438 425.951 214.452 425.951C233.465 425.951 252.293 422.206 269.859 414.93C287.426 407.653 303.387 396.988 316.832 383.544C330.277 370.099 340.942 354.138 348.218 336.571C355.494 319.005 359.239 300.177 359.239 281.163C359.239 262.15 355.494 243.322 348.218 225.756C340.942 208.189 330.277 192.228 316.832 178.783C303.387 165.338 287.426 154.674 269.859 147.397C252.293 140.121 233.465 136.376 214.452 136.376C195.438 136.376 176.61 140.121 159.044 147.397C141.477 154.674 125.516 165.338 112.071 178.783C98.6266 192.228 87.9616 208.189 80.6854 225.756C73.4091 243.322 69.6641 262.15 69.6641 281.163V281.163Z" stroke="#45413C" stroke-width="7" stroke-linecap="round" stroke-linejoin="round"/>
<path d="M155.385 300.057C159.953 300.057 164.333 301.871 167.563 305.101C170.793 308.331 172.607 312.711 172.607 317.278C172.228 324.631 173.514 331.974 176.37 338.76C179.225 345.545 183.577 351.598 189.1 356.467C194.623 361.335 201.174 364.893 208.264 366.875C215.355 368.857 222.801 369.212 230.048 367.913C245.586 364.843 259.991 357.587 271.706 346.927C283.421 336.267 292.001 322.61 296.52 307.429C301.038 292.249 301.324 276.122 297.346 260.791C293.368 245.46 285.277 231.508 273.947 220.44C262.617 209.372 248.478 201.61 233.058 197.991C217.638 194.373 201.523 195.036 186.452 199.909C171.382 204.782 157.929 213.68 147.547 225.641C137.164 237.602 130.247 252.172 127.542 267.778C126.894 271.788 127.132 275.891 128.239 279.799C129.345 283.708 131.293 287.326 133.946 290.402C136.599 293.478 139.893 295.936 143.597 297.603C147.3 299.271 151.324 300.108 155.385 300.057Z" fill="#F0F0F0"/>
<path d="M298.522 266.953C295.155 283.846 286.851 299.361 274.662 311.532C262.472 323.703 246.945 331.984 230.047 335.325C222.8 336.624 215.354 336.269 208.264 334.287C201.173 332.305 194.622 328.747 189.099 323.879C183.577 319.011 179.225 312.958 176.369 306.172C173.513 299.386 172.227 292.043 172.607 284.691C172.607 280.114 170.795 275.722 167.569 272.476C164.342 269.23 159.962 267.393 155.385 267.366C150.542 267.36 145.779 266.127 141.541 263.783C137.303 261.439 133.729 258.059 131.15 253.959C129.573 258.425 128.366 263.012 127.541 267.675C126.894 271.685 127.132 275.788 128.238 279.696C129.344 283.604 131.292 287.223 133.945 290.299C136.599 293.374 139.892 295.832 143.596 297.5C147.3 299.168 151.323 300.005 155.385 299.953C159.952 299.953 164.333 301.768 167.562 304.997C170.792 308.227 172.607 312.607 172.607 317.175C172.227 324.527 173.513 331.871 176.369 338.656C179.225 345.442 183.577 351.495 189.099 356.363C194.622 361.232 201.173 364.79 208.264 366.772C215.354 368.754 222.8 369.108 230.047 367.809C246.957 364.494 262.498 356.221 274.692 344.046C286.885 331.87 295.181 316.342 298.522 299.437C300.534 288.529 300.534 277.345 298.522 266.437V266.953Z" fill="white"/>
<path d="M155.385 300.057C159.953 300.057 164.333 301.871 167.563 305.101C170.793 308.331 172.607 312.711 172.607 317.278C172.228 324.631 173.514 331.974 176.37 338.76C179.225 345.545 183.577 351.598 189.1 356.467C194.623 361.335 201.174 364.893 208.264 366.875C215.355 368.857 222.801 369.212 230.048 367.913C245.586 364.843 259.991 357.587 271.706 346.927C283.421 336.267 292.001 322.61 296.52 307.429C301.038 292.249 301.324 276.122 297.346 260.791C293.368 245.46 285.277 231.508 273.947 220.44C262.617 209.372 248.478 201.61 233.058 197.991C217.638 194.373 201.523 195.036 186.452 199.909C171.382 204.782 157.929 213.68 147.547 225.641C137.164 237.602 130.247 252.172 127.542 267.778C126.894 271.788 127.132 275.891 128.239 279.799C129.345 283.708 131.293 287.326 133.946 290.402C136.599 293.478 139.893 295.936 143.597 297.603C147.3 299.271 151.324 300.108 155.385 300.057Z" stroke="#45413C" stroke-width="7" stroke-linecap="round" stroke-linejoin="round"/>
<path d="M259.547 271.078C259.547 261.861 255.885 253.021 249.368 246.504C242.85 239.986 234.011 236.325 224.794 236.325C215.577 236.325 206.737 239.986 200.22 246.504C193.702 253.021 190.041 261.861 190.041 271.078C190.041 280.295 193.702 289.135 200.22 295.652C206.737 302.17 215.577 305.831 224.794 305.831C234.011 305.831 242.85 302.17 249.368 295.652C255.885 289.135 259.547 280.295 259.547 271.078V271.078Z" fill="#FFAA54"/>
<path d="M224.791 285.206C217.434 285.155 210.287 282.756 204.388 278.36C198.49 273.964 194.149 267.8 191.997 260.765C190.889 264.093 190.298 267.571 190.244 271.078C190.244 280.295 193.905 289.135 200.423 295.652C206.94 302.17 215.78 305.831 224.997 305.831C234.214 305.831 243.054 302.17 249.571 295.652C256.089 289.135 259.75 280.295 259.75 271.078C259.696 267.571 259.104 264.093 257.997 260.765C255.81 267.859 251.403 274.062 245.425 278.462C239.446 282.862 232.213 285.226 224.791 285.206V285.206Z" fill="#FFCC99"/>
<path d="M259.547 271.078C259.547 261.861 255.885 253.021 249.368 246.504C242.85 239.986 234.011 236.325 224.794 236.325C215.577 236.325 206.737 239.986 200.22 246.504C193.702 253.021 190.041 261.861 190.041 271.078C190.041 280.295 193.702 289.135 200.22 295.652C206.737 302.17 215.577 305.831 224.794 305.831C234.011 305.831 242.85 302.17 249.368 295.652C255.885 289.135 259.547 280.295 259.547 271.078V271.078Z" stroke="#45413C" stroke-width="7" stroke-linecap="round" stroke-linejoin="round"/>
</svg>
