<svg width="496" height="496" viewBox="0 0 496 496" fill="none" xmlns="http://www.w3.org/2000/svg">
<path d="M423.621 211.91C423.609 203.734 420.66 195.835 415.311 189.652C409.962 183.468 402.57 179.413 394.481 178.223C380.324 103.513 320.288 48.0234 247.954 48.0234C175.621 48.0234 115.584 103.513 101.428 178.223C93.2798 179.331 85.8094 183.355 80.4008 189.549C74.9921 195.743 72.0117 203.687 72.0117 211.91C72.0117 220.133 74.9921 228.077 80.4008 234.271C85.8094 240.465 93.2798 244.489 101.428 245.597C115.584 320.513 175.621 375.9 247.954 375.9C320.288 375.9 380.324 320.513 394.481 245.597C402.57 244.408 409.962 240.352 415.311 234.168C420.66 227.985 423.609 220.086 423.621 211.91Z" fill="#FFDA8F"/>
<path d="M101.493 212.43C108.259 178.549 126.557 148.06 153.273 126.152C179.988 104.245 213.47 92.2718 248.02 92.2718C282.569 92.2718 316.051 104.245 342.767 126.152C369.482 148.06 387.78 178.549 394.546 212.43C399.619 213.066 404.486 214.824 408.794 217.577C413.101 220.329 416.742 224.007 419.45 228.343C422.116 223.527 423.573 218.136 423.695 212.632C423.818 207.129 422.602 201.678 420.152 196.748C417.702 191.819 414.092 187.558 409.632 184.331C405.172 181.105 399.995 179.01 394.546 178.226C380.39 103.516 320.353 48.0264 248.02 48.0264C175.686 48.0264 115.65 103.516 101.493 178.226C96.0444 179.01 90.8675 181.105 86.4073 184.331C81.9471 187.558 78.3371 191.819 75.8875 196.748C73.4379 201.678 72.222 207.129 72.3443 212.632C72.4667 218.136 73.9235 223.527 76.5898 228.343C79.298 224.007 82.9383 220.329 87.246 217.577C91.5538 214.824 96.4207 213.066 101.493 212.43Z" fill="#FFE9BD"/>
<path d="M423.621 211.91C423.609 203.734 420.66 195.835 415.311 189.652C409.962 183.468 402.57 179.413 394.481 178.223C380.324 103.513 320.288 48.0234 247.954 48.0234C175.621 48.0234 115.584 103.513 101.428 178.223C93.2798 179.331 85.8094 183.355 80.4008 189.549C74.9921 195.743 72.0117 203.687 72.0117 211.91C72.0117 220.133 74.9921 228.077 80.4008 234.271C85.8094 240.465 93.2798 244.489 101.428 245.597C115.584 320.513 175.621 375.9 247.954 375.9C320.288 375.9 380.324 320.513 394.481 245.597C402.57 244.408 409.962 240.352 415.311 234.168C420.66 227.985 423.609 220.086 423.621 211.91Z" stroke="#45413C" stroke-width="7" stroke-linecap="round" stroke-linejoin="round"/>
<path d="M202.104 279.179C201.064 279.166 200.033 279.38 199.085 279.808C198.137 280.235 197.293 280.864 196.614 281.652C195.934 282.44 195.435 283.366 195.152 284.367C194.869 285.368 194.808 286.419 194.974 287.446C197.055 300.002 203.526 311.412 213.234 319.643C222.942 327.874 235.256 332.392 247.984 332.392C260.712 332.392 273.026 327.874 282.734 319.643C292.442 311.412 298.913 300.002 300.994 287.446C301.16 286.419 301.099 285.368 300.816 284.367C300.533 283.366 300.034 282.44 299.355 281.652C298.675 280.864 297.832 280.235 296.883 279.808C295.935 279.38 294.904 279.166 293.864 279.179H202.104Z" fill="#FF6242"/>
<path d="M247.969 301.085C233.354 300.619 218.998 305.017 207.152 313.589C212.244 319.404 218.52 324.065 225.559 327.258C232.599 330.451 240.239 332.103 247.969 332.103C255.699 332.103 263.339 330.451 270.379 327.258C277.418 324.065 283.694 319.404 288.786 313.589C276.94 305.017 262.584 300.619 247.969 301.085Z" fill="#FFA694"/>
<path d="M202.104 279.179C201.064 279.166 200.033 279.38 199.085 279.808C198.137 280.235 197.293 280.864 196.614 281.652C195.934 282.44 195.435 283.366 195.152 284.367C194.869 285.368 194.808 286.419 194.974 287.446C197.055 300.002 203.526 311.412 213.234 319.643C222.942 327.874 235.256 332.392 247.984 332.392C260.712 332.392 273.026 327.874 282.734 319.643C292.442 311.412 298.913 300.002 300.994 287.446C301.16 286.419 301.099 285.368 300.816 284.367C300.533 283.366 300.034 282.44 299.355 281.652C298.675 280.864 297.832 280.235 296.883 279.808C295.935 279.38 294.904 279.166 293.864 279.179H202.104Z" stroke="#45413C" stroke-width="7" stroke-linecap="round" stroke-linejoin="round"/>
<path d="M135.633 256.241C135.633 258.817 137.342 261.287 140.385 263.109C143.427 264.931 147.553 265.954 151.856 265.954C156.159 265.954 160.285 264.931 163.328 263.109C166.37 261.287 168.079 258.817 168.079 256.241C168.079 253.665 166.37 251.194 163.328 249.372C160.285 247.551 156.159 246.527 151.856 246.527C147.553 246.527 143.427 247.551 140.385 249.372C137.342 251.194 135.633 253.665 135.633 256.241Z" fill="#FFBE3D"/>
<path d="M327.762 256.243C327.762 257.518 328.181 258.781 328.997 259.96C329.812 261.138 331.007 262.209 332.513 263.111C334.02 264.013 335.808 264.728 337.777 265.217C339.745 265.705 341.855 265.956 343.985 265.956C346.116 265.956 348.225 265.705 350.193 265.217C352.162 264.728 353.95 264.013 355.457 263.111C356.963 262.209 358.158 261.138 358.973 259.96C359.789 258.781 360.208 257.518 360.208 256.243C360.208 254.967 359.789 253.704 358.973 252.525C358.158 251.347 356.963 250.276 355.457 249.374C353.95 248.472 352.162 247.757 350.193 247.269C348.225 246.781 346.116 246.529 343.985 246.529C341.855 246.529 339.745 246.781 337.777 247.269C335.808 247.757 334.02 248.472 332.513 249.374C331.007 250.276 329.812 251.347 328.997 252.525C328.181 253.704 327.762 254.967 327.762 256.243Z" fill="#FFBE3D"/>
<path d="M247.925 38C235.61 38.1266 223.841 43.1016 215.168 51.8467C218.067 50.8826 221.103 50.394 224.158 50.4C228.874 50.4096 233.51 51.6189 237.63 53.914C241.75 56.2092 245.218 59.5148 247.708 63.5197C250.198 67.5246 251.628 72.0972 251.864 76.8072C252.099 81.5172 251.133 86.2098 249.055 90.4433C246.977 94.6769 243.857 98.3122 239.987 101.007C236.117 103.702 231.625 105.368 226.933 105.849C222.242 106.329 217.506 105.608 213.17 103.753C208.834 101.899 205.041 98.9712 202.148 95.2467C204.094 103.864 208.434 111.757 214.668 118.017C220.903 124.277 228.778 128.65 237.387 130.631C245.997 132.613 254.991 132.123 263.335 129.218C271.678 126.313 279.032 121.112 284.549 114.212C290.067 107.312 293.524 98.9941 294.522 90.216C295.521 81.438 294.021 72.5563 290.194 64.5933C286.367 56.6304 280.37 49.9098 272.892 45.2051C265.414 40.5005 256.76 38.0029 247.925 38Z" fill="#F4C704"/>
<path d="M249.12 65.3836C259.122 68.0331 267.964 73.9217 274.264 82.1291C280.565 90.3365 283.968 100.4 283.943 110.747C284.046 112.33 284.046 113.917 283.943 115.5C291.405 106.91 295.45 95.8778 295.31 84.5002C295.16 75.2883 292.307 66.3234 287.105 58.7192C281.904 51.115 274.582 45.2066 266.051 41.728C257.52 38.2495 248.155 37.3541 239.119 39.1531C230.083 40.9521 221.775 45.3661 215.227 51.8469C218.126 50.8828 221.161 50.3943 224.217 50.4002C229.346 50.3568 234.387 51.7335 238.782 54.3779C243.178 57.0224 246.756 60.8315 249.12 65.3836Z" fill="#FFDE51"/>
<path d="M247.925 38C235.61 38.1266 223.841 43.1016 215.168 51.8467C218.067 50.8826 221.103 50.394 224.158 50.4C228.874 50.4096 233.51 51.6189 237.63 53.914C241.75 56.2092 245.218 59.5148 247.708 63.5197C250.198 67.5246 251.628 72.0972 251.864 76.8072C252.099 81.5172 251.133 86.2098 249.055 90.4433C246.977 94.6769 243.857 98.3122 239.987 101.007C236.117 103.702 231.625 105.368 226.933 105.849C222.242 106.329 217.506 105.608 213.17 103.753C208.834 101.899 205.041 98.9712 202.148 95.2467C204.094 103.864 208.434 111.757 214.668 118.017C220.903 124.277 228.778 128.65 237.387 130.631C245.997 132.613 254.991 132.123 263.335 129.218C271.678 126.313 279.032 121.112 284.549 114.212C290.067 107.312 293.524 98.9941 294.522 90.216C295.521 81.438 294.021 72.5563 290.194 64.5933C286.367 56.6304 280.37 49.9098 272.892 45.2051C265.414 40.5005 256.76 38.0029 247.925 38Z" stroke="#45413C" stroke-width="7" stroke-linecap="round" stroke-linejoin="round"/>
<path d="M193.266 201.577C191.938 198.573 189.766 196.02 187.015 194.228C184.263 192.436 181.05 191.481 177.766 191.481C174.482 191.481 171.268 192.436 168.517 194.228C165.765 196.02 163.593 198.573 162.266 201.577" stroke="#45413C" stroke-width="7" stroke-linecap="round" stroke-linejoin="round"/>
<path d="M333.898 201.577C332.571 198.573 330.399 196.02 327.647 194.228C324.896 192.436 321.682 191.481 318.398 191.481C315.114 191.481 311.901 192.436 309.15 194.228C306.398 196.02 304.226 198.573 302.898 201.577" stroke="#45413C" stroke-width="7" stroke-linecap="round" stroke-linejoin="round"/>
</svg>
