<svg width="495" height="495" viewBox="0 0 495 495" fill="none" xmlns="http://www.w3.org/2000/svg">
<path d="M325.372 318.404L247.616 289.116L169.859 318.713C156.674 323.744 145.327 332.659 137.317 344.277C129.307 355.896 125.012 369.673 125 383.785V443.804H370.231V383.476C370.219 369.363 365.924 355.587 357.914 343.968C349.904 332.349 338.557 323.435 325.372 318.404Z" fill="#656769"/>
<path d="M325.372 318.404L247.616 289.116L169.859 318.713C156.674 323.744 145.327 332.659 137.317 344.277C129.307 355.896 125.012 369.673 125 383.785V414.722C125.012 400.61 129.307 386.834 137.317 375.215C145.327 363.596 156.674 354.682 169.859 349.651L247.616 320.054L325.372 349.651C338.557 354.682 349.904 363.596 357.914 375.215C365.924 386.834 370.219 400.61 370.231 414.722V383.785C370.282 369.62 366.016 355.776 358.002 344.095C349.988 332.415 338.606 323.454 325.372 318.404Z" fill="#525252"/>
<path d="M325.372 318.404L247.616 289.116L169.859 318.713C156.674 323.744 145.327 332.659 137.317 344.277C129.307 355.896 125.012 369.673 125 383.785V443.804H370.231V383.476C370.219 369.363 365.924 355.587 357.914 343.968C349.904 332.349 338.557 323.435 325.372 318.404V318.404Z" stroke="#45413C" stroke-width="6" stroke-linecap="round" stroke-linejoin="round"/>
<path d="M311.862 349.238L333.827 343.772L317.946 315.516L247.615 288.807L177.284 315.516L161.402 343.772L183.368 349.238L175.84 372.132L226.165 443.804H269.065L319.39 372.132L311.862 349.238Z" fill="#656769" stroke="#45413C" stroke-width="6" stroke-linecap="round" stroke-linejoin="round"/>
<path d="M247.617 289.116C247.617 289.116 196.055 289.116 196.055 318.094C197.011 339.814 204.807 360.677 218.33 377.701L247.617 352.538L277.42 377.701C290.943 360.677 298.739 339.814 299.695 318.094C299.695 289.116 247.617 289.116 247.617 289.116Z" fill="white" stroke="#45413C" stroke-width="6" stroke-linecap="round" stroke-linejoin="round"/>
<path d="M247.616 352.538L224.413 329.335C222.507 327.415 221.433 324.822 221.422 322.117V291.179C221.422 284.232 224.182 277.57 229.094 272.657C234.006 267.745 240.669 264.985 247.616 264.985C254.563 264.985 261.225 267.745 266.137 272.657C271.05 277.57 273.809 284.232 273.809 291.179V322.117C273.798 324.822 272.724 327.415 270.819 329.335L247.616 352.538Z" fill="#FFCEBF"/>
<path d="M247.616 264.985C240.669 264.985 234.006 267.745 229.094 272.657C224.182 277.57 221.422 284.232 221.422 291.179V297.263C221.422 304.211 224.182 310.873 229.094 315.785C234.006 320.698 240.669 323.457 247.616 323.457C254.563 323.457 261.225 320.698 266.137 315.785C271.05 310.873 273.809 304.211 273.809 297.263V291.179C273.809 284.232 271.05 277.57 266.137 272.657C261.225 267.745 254.563 264.985 247.616 264.985Z" fill="#FFB59E"/>
<path d="M247.616 352.538L224.413 329.335C222.507 327.415 221.433 324.822 221.422 322.117V291.179C221.422 284.232 224.182 277.57 229.094 272.657C234.006 267.745 240.669 264.985 247.616 264.985V264.985C254.563 264.985 261.225 267.745 266.137 272.657C271.05 277.57 273.809 284.232 273.809 291.179V322.117C273.798 324.822 272.724 327.415 270.819 329.335L247.616 352.538Z" stroke="#45413C" stroke-width="6" stroke-linecap="round" stroke-linejoin="round"/>
<path d="M277.419 377.701L268.756 443.804H226.166L217.812 377.701L247.616 352.538L277.419 377.701Z" fill="white" stroke="#45413C" stroke-width="6" stroke-linecap="round" stroke-linejoin="round"/>
<path d="M242.461 398.944C242.461 400.312 243.004 401.623 243.971 402.59C244.938 403.557 246.25 404.101 247.617 404.101C248.985 404.101 250.296 403.557 251.263 402.59C252.23 401.623 252.773 400.312 252.773 398.944C252.773 397.577 252.23 396.265 251.263 395.298C250.296 394.331 248.985 393.788 247.617 393.788C246.25 393.788 244.938 394.331 243.971 395.298C243.004 396.265 242.461 397.577 242.461 398.944Z" fill="#45413C"/>
<path d="M242.461 422.147C242.461 423.515 243.004 424.826 243.971 425.793C244.938 426.76 246.25 427.304 247.617 427.304C248.985 427.304 250.296 426.76 251.263 425.793C252.23 424.826 252.773 423.515 252.773 422.147C252.773 420.78 252.23 419.468 251.263 418.501C250.296 417.534 248.985 416.991 247.617 416.991C246.25 416.991 244.938 417.534 243.971 418.501C243.004 419.468 242.461 420.78 242.461 422.147Z" fill="#45413C"/>
<path d="M247.616 51.0005C239.132 50.9737 230.679 52.0131 222.454 54.0943C203.273 58.4255 178.316 65.7474 155.732 61.4161C154.864 67.2329 155.184 73.1652 156.673 78.8548C158.162 84.5444 160.789 89.8731 164.395 94.5193C152.629 111.478 146.331 131.629 146.348 152.269V205.276H348.885V152.269C348.885 125.411 338.216 99.653 319.224 80.6614C300.233 61.6699 274.475 51.0005 247.616 51.0005Z" fill="#A86C4D"/>
<path d="M247.616 51.0005C239.132 50.9737 230.678 52.0131 222.453 54.0943C203.272 58.4255 178.316 65.7474 155.731 61.4161C154.308 72.2348 156.795 83.2062 162.744 92.3536C182.95 92.7719 203.097 90.0229 222.453 84.2068C237.413 80.4317 253.036 80.1141 268.137 83.2781C283.238 86.4421 297.42 93.0044 309.606 102.467C321.793 111.93 331.663 124.044 338.469 137.891C345.274 151.738 348.836 166.953 348.884 182.382V152.269C348.884 125.411 338.215 99.653 319.223 80.6614C300.232 61.6699 274.474 51.0005 247.616 51.0005Z" fill="#DE926A"/>
<path d="M247.616 51.0005C239.132 50.9737 230.679 52.0131 222.454 54.0943C203.273 58.4255 178.316 65.7474 155.732 61.4161C154.864 67.2329 155.184 73.1652 156.673 78.8548C158.162 84.5444 160.789 89.8731 164.395 94.5193C152.629 111.478 146.331 131.629 146.348 152.269V205.276H348.885V152.269C348.885 125.411 338.216 99.653 319.224 80.6614C300.233 61.6699 274.475 51.0005 247.616 51.0005V51.0005Z" stroke="#45413C" stroke-width="6" stroke-linecap="round" stroke-linejoin="round"/>
<path d="M359.714 197.541C359.213 193.754 357.574 190.209 355.015 187.373C352.455 184.537 349.096 182.545 345.38 181.66L339.295 179.907C334.757 178.737 330.753 176.058 327.941 172.309C325.13 168.56 323.678 163.965 323.827 159.282V138.244C323.822 133.987 322.4 129.852 319.786 126.491C317.172 123.13 313.514 120.735 309.389 119.682C289.71 127.484 268.68 131.304 247.514 130.922C226.349 131.304 205.318 127.484 185.639 119.682C181.514 120.735 177.856 123.13 175.242 126.491C172.628 129.852 171.207 133.987 171.202 138.244V159.591C171.35 164.275 169.899 168.869 167.087 172.618C164.275 176.367 160.271 179.047 155.733 180.216L149.648 181.969C145.933 182.855 142.573 184.847 140.014 187.682C137.454 190.518 135.815 194.064 135.314 197.85C135.038 200.461 135.317 203.101 136.13 205.596C136.944 208.092 138.275 210.388 140.037 212.335C141.799 214.281 143.951 215.834 146.353 216.892C148.756 217.951 151.355 218.49 153.98 218.475H155.114C157.527 241.272 168.291 262.369 185.333 277.702C202.374 293.035 224.487 301.518 247.411 301.518C270.335 301.518 292.448 293.035 309.489 277.702C326.531 262.369 337.295 241.272 339.708 218.475H340.842C343.514 218.525 346.165 218 348.616 216.937C351.068 215.873 353.262 214.296 355.051 212.311C356.84 210.326 358.182 207.981 358.987 205.432C359.791 202.884 360.039 200.193 359.714 197.541Z" fill="#FFCEBF" stroke="#45413C" stroke-width="6" stroke-linecap="round" stroke-linejoin="round"/>
<path d="M191.617 195.375C191.617 197.481 192.454 199.501 193.943 200.99C195.432 202.479 197.452 203.316 199.558 203.316C201.664 203.316 203.684 202.479 205.173 200.99C206.662 199.501 207.498 197.481 207.498 195.375C207.498 193.269 206.662 191.249 205.173 189.76C203.684 188.271 201.664 187.435 199.558 187.435C197.452 187.435 195.432 188.271 193.943 189.76C192.454 191.249 191.617 193.269 191.617 195.375Z" fill="#45413C" stroke="#45413C" stroke-width="6" stroke-linecap="round" stroke-linejoin="round"/>
<path d="M303.612 195.375C303.612 197.481 302.775 199.501 301.286 200.99C299.797 202.479 297.777 203.316 295.671 203.316C293.565 203.316 291.545 202.479 290.056 200.99C288.567 199.501 287.73 197.481 287.73 195.375C287.73 193.269 288.567 191.249 290.056 189.76C291.545 188.271 293.565 187.435 295.671 187.435C297.777 187.435 299.797 188.271 301.286 189.76C302.775 191.249 303.612 193.269 303.612 195.375Z" fill="#45413C" stroke="#45413C" stroke-width="6" stroke-linecap="round" stroke-linejoin="round"/>
<path d="M218.329 243.741C217.687 243.755 217.054 243.899 216.469 244.165C215.884 244.431 215.359 244.813 214.926 245.288C214.486 245.789 214.165 246.384 213.986 247.026C213.807 247.669 213.776 248.344 213.895 249.001C215.287 256.933 219.432 264.121 225.599 269.3C231.767 274.479 239.563 277.318 247.617 277.318C255.67 277.318 263.466 274.479 269.634 269.3C275.802 264.121 279.946 256.933 281.338 249.001C281.457 248.344 281.426 247.669 281.247 247.026C281.069 246.384 280.747 245.789 280.307 245.288C279.878 244.808 279.354 244.423 278.768 244.157C278.182 243.891 277.548 243.749 276.904 243.741H218.329Z" fill="#FF6242"/>
<path d="M247.616 258.179C238.317 257.902 229.185 260.692 221.629 266.12C224.861 269.767 228.83 272.688 233.274 274.688C237.718 276.688 242.537 277.723 247.41 277.723C252.284 277.723 257.102 276.688 261.546 274.688C265.99 272.688 269.96 269.767 273.191 266.12C265.749 260.778 256.776 257.992 247.616 258.179Z" fill="#FFA694"/>
<path d="M218.329 243.741C217.687 243.755 217.054 243.899 216.469 244.165C215.884 244.431 215.359 244.813 214.926 245.288C214.486 245.789 214.165 246.384 213.986 247.026C213.807 247.669 213.776 248.344 213.895 249.001C215.287 256.933 219.432 264.121 225.599 269.3C231.767 274.479 239.563 277.318 247.617 277.318C255.67 277.318 263.466 274.479 269.634 269.3C275.802 264.121 279.946 256.933 281.338 249.001C281.457 248.344 281.426 247.669 281.247 247.026C281.069 246.384 280.747 245.789 280.307 245.288C279.878 244.808 279.354 244.423 278.768 244.157C278.182 243.891 277.548 243.749 276.904 243.741H218.329Z" stroke="#45413C" stroke-width="6" stroke-linecap="round" stroke-linejoin="round"/>
<path d="M176.047 229.2C176.047 230.841 177.133 232.415 179.067 233.575C181.001 234.736 183.624 235.388 186.359 235.388C189.094 235.388 191.717 234.736 193.651 233.575C195.585 232.415 196.672 230.841 196.672 229.2C196.672 227.559 195.585 225.985 193.651 224.825C191.717 223.665 189.094 223.013 186.359 223.013C183.624 223.013 181.001 223.665 179.067 224.825C177.133 225.985 176.047 227.559 176.047 229.2Z" fill="#FFB59E"/>
<path d="M298.559 229.2C298.559 230.841 299.645 232.415 301.579 233.575C303.513 234.736 306.136 235.388 308.871 235.388C311.606 235.388 314.229 234.736 316.163 233.575C318.097 232.415 319.184 230.841 319.184 229.2C319.184 227.559 318.097 225.985 316.163 224.825C314.229 223.665 311.606 223.013 308.871 223.013C306.136 223.013 303.513 223.665 301.579 224.825C299.645 225.985 298.559 227.559 298.559 229.2Z" fill="#FFB59E"/>
</svg>
