<svg width="495" height="495" viewBox="0 0 495 495" fill="none" xmlns="http://www.w3.org/2000/svg">
<path d="M419.002 126.678C365.684 100.289 306.996 86.5596 247.505 86.5596C188.014 86.5596 129.325 100.289 76.0078 126.678L99.3141 174.218C112.016 199.864 118.616 228.1 118.598 256.718V302.506C118.475 307.523 120.123 312.424 123.254 316.346C126.385 320.269 130.797 322.963 135.717 323.956C138.704 324.471 141.767 324.322 144.69 323.519C147.613 322.716 150.322 321.279 152.626 319.31C154.93 317.341 156.772 314.888 158.02 312.126C159.268 309.364 159.893 306.361 159.848 303.331V296.318L238.327 454.718C239.192 456.408 240.507 457.825 242.126 458.815C243.746 459.805 245.607 460.329 247.505 460.329C249.403 460.329 251.264 459.805 252.883 458.815C254.503 457.825 255.817 456.408 256.683 454.718L283.598 400.372V421.718C283.598 425.821 285.228 429.756 288.129 432.656C291.03 435.557 294.965 437.187 299.067 437.187C303.17 437.187 307.104 435.557 310.005 432.656C312.906 429.756 314.536 425.821 314.536 421.718V361.906C314.379 346.084 317.91 330.442 324.848 316.222C337.842 289.822 351.764 261.875 366.098 233.722V261.875C366.098 265.977 367.728 269.912 370.629 272.813C373.53 275.714 377.465 277.343 381.567 277.343C385.67 277.343 389.604 275.714 392.505 272.813C395.406 269.912 397.036 265.977 397.036 261.875V194.843C396.927 178.993 400.455 163.329 407.348 149.056L419.002 126.678Z" fill="#FFE500"/>
<path d="M247.505 120.078C302.087 120.065 356.047 131.666 405.802 154.109C406.42 152.562 407.039 150.912 407.761 149.468L419.002 126.678C365.684 100.289 306.996 86.5596 247.505 86.5596C188.014 86.5596 129.325 100.289 76.0078 126.678L89.5172 153.593C139.216 131.373 193.064 119.95 247.505 120.078Z" fill="#EBCB00"/>
<path d="M242.345 349.531C242.359 343.433 241.168 337.393 238.841 331.756C236.513 326.12 233.095 320.999 228.784 316.687C224.472 312.375 219.35 308.957 213.714 306.63C208.078 304.303 202.037 303.112 195.939 303.125C185.82 303.146 175.992 306.518 167.992 312.716L208.314 394.081C218.077 391.398 226.692 385.588 232.838 377.542C238.984 369.496 242.324 359.657 242.345 349.531Z" fill="#FF6242" stroke="#45413C" stroke-width="7" stroke-linecap="round" stroke-linejoin="round"/>
<path d="M268.125 158.75C268.125 171.058 273.014 182.861 281.717 191.564C290.42 200.267 302.224 205.156 314.531 205.156C326.839 205.156 338.643 200.267 347.345 191.564C356.048 182.861 360.938 171.058 360.938 158.75C360.938 146.442 356.048 134.639 347.345 125.936C338.643 117.233 326.839 112.344 314.531 112.344C302.224 112.344 290.42 117.233 281.717 125.936C273.014 134.639 268.125 146.442 268.125 158.75Z" fill="#FF6242" stroke="#45413C" stroke-width="7" stroke-linecap="round" stroke-linejoin="round"/>
<path d="M247.501 86.5625C307.001 86.4795 365.708 100.212 418.998 126.678C418.998 126.678 444.47 129.875 448.595 107.187C458.907 50.4687 290.504 35 247.501 35C204.498 35 36.0945 50.4687 46.407 107.187C50.532 129.875 76.0039 126.678 76.0039 126.678C129.294 100.212 188.001 86.4795 247.501 86.5625Z" fill="#F0D5A8"/>
<path d="M46.8206 108.837C84.3581 71.8156 210.377 60.7812 247.502 60.7812C284.627 60.7812 410.646 71.8156 448.183 108.837C448.183 108.219 448.183 107.806 448.183 107.187C458.496 50.4687 290.092 35 247.089 35C204.086 35 36.0956 50.4687 46.4081 107.187C46.5112 107.806 46.7175 108.219 46.8206 108.837Z" fill="#F7E5C6"/>
<path d="M247.501 86.5625C307.001 86.4795 365.708 100.212 418.998 126.678C418.998 126.678 444.47 129.875 448.595 107.187C458.907 50.4687 290.504 35 247.501 35C204.498 35 36.0945 50.4687 46.407 107.187C50.532 129.875 76.0039 126.678 76.0039 126.678C129.294 100.212 188.001 86.4795 247.501 86.5625V86.5625Z" stroke="#45413C" stroke-width="7" stroke-linecap="round" stroke-linejoin="round"/>
<path d="M159.844 296.112V272.188" stroke="#45413C" stroke-width="7" stroke-linecap="round" stroke-linejoin="round"/>
<path d="M419.002 126.678C365.684 100.289 306.996 86.5596 247.505 86.5596C188.014 86.5596 129.325 100.289 76.0078 126.678L99.3141 174.218C112.016 199.864 118.616 228.099 118.598 256.718V302.506C118.475 307.523 120.123 312.424 123.254 316.346C126.385 320.269 130.797 322.963 135.717 323.956C138.704 324.471 141.767 324.322 144.69 323.519C147.613 322.716 150.322 321.279 152.626 319.31C154.93 317.341 156.772 314.888 158.02 312.126C159.268 309.364 159.893 306.361 159.848 303.331V296.318L238.327 454.718C239.192 456.408 240.507 457.825 242.126 458.815C243.746 459.805 245.607 460.329 247.505 460.329C249.403 460.329 251.264 459.805 252.883 458.815C254.503 457.825 255.817 456.408 256.683 454.718L283.598 400.372V421.718C283.598 425.821 285.228 429.756 288.129 432.656C291.03 435.557 294.965 437.187 299.067 437.187C303.17 437.187 307.104 435.557 310.005 432.656C312.906 429.756 314.536 425.821 314.536 421.718V361.906C314.379 346.084 317.91 330.442 324.848 316.222C337.842 289.822 351.764 261.875 366.098 233.722V261.875C366.098 265.977 367.728 269.912 370.629 272.813C373.53 275.714 377.465 277.343 381.567 277.343C385.67 277.343 389.604 275.714 392.505 272.813C395.406 269.912 397.036 265.977 397.036 261.875V194.843C396.927 178.993 400.455 163.329 407.348 149.056L419.002 126.678Z" stroke="#45413C" stroke-width="7" stroke-linecap="round" stroke-linejoin="round"/>
<path d="M283.594 375.312V400.372" stroke="#45413C" stroke-width="7" stroke-linecap="round" stroke-linejoin="round"/>
<path d="M366.094 215.469V233.619" stroke="#45413C" stroke-width="7" stroke-linecap="round" stroke-linejoin="round"/>
</svg>
