<svg width="496" height="496" viewBox="0 0 496 496" fill="none" xmlns="http://www.w3.org/2000/svg">
<path d="M89.8771 94.2271C86.4514 90.7877 84.5323 86.1283 84.5419 81.2739C84.5516 76.4195 86.4893 71.7678 89.9287 68.3421C93.3682 64.9164 98.0276 62.9973 102.882 63.0069C107.736 63.0166 112.388 64.9543 115.814 68.3937L122.84 75.4204C125.266 77.8458 128.555 79.2084 131.985 79.2084C135.415 79.2084 138.705 77.8458 141.13 75.4204C143.556 72.995 144.918 69.7054 144.918 66.2754C144.918 62.8454 143.556 59.5558 141.13 57.1304L134.104 50.1037C125.591 43.5893 115.001 40.3885 104.305 41.0967C93.6087 41.8049 83.5337 46.3738 75.9537 53.9537C68.3738 61.5337 63.8049 71.6087 63.0967 82.305C62.3885 93.0012 65.5893 103.591 72.1037 112.104L172.027 213.06L190.317 194.667L89.8771 94.2271Z" fill="#87898C" stroke="#45413C" stroke-width="7" stroke-linecap="round" stroke-linejoin="round"/>
<path d="M427.82 432.128L400.333 404.745L382.043 423.035L409.53 450.728C410.694 452.11 412.132 453.234 413.754 454.029C415.376 454.824 417.145 455.274 418.95 455.348C420.755 455.422 422.555 455.12 424.237 454.461C425.919 453.802 427.445 452.8 428.719 451.52C429.993 450.239 430.986 448.707 431.635 447.021C432.285 445.336 432.577 443.534 432.492 441.729C432.408 439.925 431.948 438.158 431.144 436.541C430.34 434.923 429.208 433.491 427.82 432.335V432.128Z" fill="#87898C" stroke="#45413C" stroke-width="7" stroke-linecap="round" stroke-linejoin="round"/>
<path d="M402.817 402.058L243.271 116.341C242.859 115.655 242.232 115.125 241.487 114.834C240.743 114.542 239.922 114.506 239.155 114.73C238.387 114.955 237.715 115.427 237.245 116.074C236.774 116.721 236.531 117.505 236.554 118.305C237.05 126.725 235.757 135.156 232.76 143.041C229.762 150.926 225.129 158.086 219.164 164.051C213.199 170.016 206.039 174.649 198.154 177.647C190.269 180.644 181.838 181.937 173.417 181.441L161.844 180.821C161.348 180.791 160.851 180.867 160.386 181.043C159.921 181.219 159.498 181.492 159.147 181.844C158.795 182.195 158.522 182.618 158.346 183.083C158.169 183.548 158.094 184.045 158.124 184.541L158.744 196.115C159.253 204.512 157.979 212.922 155.006 220.792C152.032 228.661 147.428 235.813 141.494 241.776C135.56 247.739 128.431 252.379 120.576 255.391C112.721 258.403 104.317 259.719 95.9174 259.251C95.1054 259.172 94.291 259.378 93.6141 259.833C92.9372 260.289 92.44 260.966 92.2078 261.748C91.9756 262.53 92.0228 263.369 92.3415 264.12C92.6601 264.871 93.2303 265.488 93.9541 265.865L379.361 425.515C382.638 427.329 386.417 428.029 390.126 427.507C393.836 426.985 397.275 425.27 399.924 422.621C402.572 419.972 404.287 416.533 404.809 412.823C405.332 409.114 404.632 405.335 402.817 402.058Z" fill="#47FF75"/>
<path d="M215.902 167.078L391.569 427.168C394.086 426.458 396.409 425.185 398.362 423.445C400.316 421.706 401.848 419.545 402.843 417.126C403.839 414.708 404.271 412.094 404.108 409.484C403.945 406.873 403.191 404.334 401.902 402.058L243.182 116.341C242.771 115.655 242.144 115.125 241.399 114.834C240.654 114.542 239.834 114.506 239.066 114.73C238.298 114.955 237.627 115.427 237.156 116.074C236.686 116.721 236.443 117.505 236.466 118.305C237.017 127.468 235.448 136.635 231.882 145.094C228.316 153.552 222.848 161.075 215.902 167.078Z" fill="#34C759"/>
<path d="M402.817 402.058L243.271 116.341C242.859 115.655 242.232 115.125 241.487 114.834C240.743 114.542 239.922 114.506 239.155 114.73C238.387 114.955 237.715 115.427 237.245 116.074C236.774 116.721 236.531 117.505 236.554 118.305C237.05 126.725 235.757 135.156 232.76 143.041C229.762 150.926 225.129 158.086 219.164 164.051C213.199 170.016 206.039 174.649 198.154 177.647C190.269 180.644 181.838 181.937 173.417 181.441L161.844 180.821C161.348 180.791 160.851 180.867 160.386 181.043C159.921 181.219 159.498 181.492 159.147 181.844C158.795 182.195 158.522 182.618 158.346 183.083C158.169 183.548 158.094 184.045 158.124 184.541L158.744 196.115C159.253 204.512 157.979 212.922 155.006 220.792C152.032 228.661 147.428 235.813 141.494 241.776C135.56 247.739 128.431 252.379 120.576 255.391C112.721 258.403 104.317 259.719 95.9174 259.251C95.1054 259.172 94.291 259.378 93.6141 259.833C92.9372 260.289 92.44 260.966 92.2078 261.748C91.9756 262.53 92.0228 263.369 92.3415 264.12C92.6601 264.871 93.2303 265.488 93.9541 265.865L379.361 425.515C382.638 427.329 386.417 428.029 390.126 427.507C393.836 426.985 397.275 425.27 399.924 422.621C402.572 419.972 404.287 416.533 404.809 412.823C405.332 409.114 404.632 405.335 402.817 402.058Z" stroke="#45413C" stroke-width="7" stroke-linecap="round" stroke-linejoin="round"/>
</svg>
