<svg width="495" height="495" viewBox="0 0 495 495" fill="none" xmlns="http://www.w3.org/2000/svg">
<path d="M144.891 271.188L203.363 199.001C174.68 191.754 144.753 190.909 115.707 196.526C83.532 204.466 78.4788 265.207 77.9632 293.979C77.9272 295.576 78.3182 297.153 79.0958 298.549C79.8734 299.944 81.0094 301.106 82.3865 301.916C83.7635 302.725 85.3317 303.152 86.929 303.153C88.5263 303.154 90.0949 302.728 91.4726 301.919L144.891 271.188Z" fill="#399EE2"/>
<path d="M115.912 223.957C138.394 219.333 161.534 218.879 184.181 222.617L203.362 199.104C174.679 191.858 144.752 191.013 115.706 196.629C83.5306 204.467 78.4775 265.207 77.9619 293.979C77.936 295.737 78.439 297.461 79.4056 298.929C82.4994 268.611 90.6463 230.248 115.912 223.957Z" fill="#53AEF9"/>
<path d="M144.891 271.188L203.363 199.001C174.68 191.754 144.753 190.909 115.707 196.526C83.532 204.466 78.4788 265.207 77.9632 293.979C77.9272 295.576 78.3182 297.153 79.0958 298.549C79.8734 299.944 81.0094 301.106 82.3865 301.916C83.7635 302.725 85.3317 303.152 86.929 303.153C88.5263 303.154 90.0949 302.728 91.4726 301.919L144.891 271.188Z" stroke="#45413C" stroke-width="7" stroke-linecap="round" stroke-linejoin="round"/>
<path d="M215.118 341.52L287.306 283.048C294.547 311.697 295.392 341.589 289.781 370.601C282.253 402.776 221.925 407.829 192.74 408.345C191.143 408.381 189.566 407.99 188.171 407.212C186.775 406.434 185.613 405.298 184.804 403.921C183.994 402.544 183.567 400.976 183.566 399.379C183.566 397.782 183.992 396.213 184.8 394.835L215.118 341.52Z" fill="#399EE2"/>
<path d="M262.041 370.498C266.719 347.987 267.173 324.803 263.382 302.126L286.895 283.048C294.136 311.697 294.981 341.589 289.37 370.601C281.841 402.776 221.513 407.829 192.329 408.345C190.573 408.358 188.852 407.856 187.379 406.901C217.698 404.22 256.06 395.66 262.041 370.498Z" fill="#53AEF9"/>
<path d="M215.119 341.52L287.306 283.048C294.547 311.697 295.392 341.589 289.781 370.601C282.253 402.776 221.925 407.829 192.74 408.345C191.143 408.381 189.566 407.99 188.171 407.212C186.775 406.434 185.613 405.298 184.804 403.921C183.994 402.544 183.567 400.976 183.566 399.379C183.566 397.782 183.992 396.213 184.8 394.835L215.119 341.52Z" stroke="#45413C" stroke-width="7" stroke-linecap="round" stroke-linejoin="round"/>
<path d="M407.137 219.419C463.031 160.638 445.397 88.141 436.631 62.6691C435.626 59.6411 433.931 56.8876 431.681 54.6254C429.421 52.4242 426.712 50.7359 423.741 49.6754C398.269 40.9097 325.669 23.2754 266.887 79.5816C194.287 148.263 144.375 270.363 144.375 270.363L216.562 342.55C216.562 342.55 338.044 292.019 407.137 219.419Z" fill="#E8F4FA"/>
<path d="M289.266 119.491C346.294 65.1441 416.212 80.3035 443.953 89.1722C442.367 80.1766 440.091 71.3161 437.147 62.6691C436.092 59.6016 434.328 56.8262 431.998 54.5685C429.669 52.3107 426.84 50.6343 423.741 49.6754C398.269 40.9097 325.669 23.2754 266.887 79.5816C194.287 148.263 144.375 270.363 144.375 270.363L172.116 298.103C186.863 265.207 230.691 175.178 289.266 119.491Z" fill="white"/>
<path d="M407.137 219.419C463.031 160.638 445.397 88.141 436.631 62.6691C435.626 59.6411 433.931 56.8876 431.681 54.6254C429.421 52.4242 426.712 50.7359 423.741 49.6754C398.269 40.9097 325.669 23.2754 266.887 79.5816C194.287 148.263 144.375 270.363 144.375 270.363L216.562 342.55C216.562 342.55 338.044 292.019 407.137 219.419Z" stroke="#45413C" stroke-width="7" stroke-linecap="round" stroke-linejoin="round"/>
<path d="M234.093 261.598C234.843 260.269 235.139 258.733 234.936 257.221C234.734 255.709 234.044 254.304 232.971 253.219C231.898 252.135 230.501 251.43 228.992 251.211C227.482 250.992 225.942 251.272 224.605 252.007C204.515 262.29 186.061 275.496 169.846 291.195C152.67 308.495 139.105 329.037 129.937 351.626C129.66 352.265 129.58 352.972 129.707 353.656C129.834 354.34 130.161 354.972 130.648 355.469C131.134 355.967 131.758 356.309 132.44 356.451C133.121 356.593 133.829 356.529 134.474 356.267C157.029 347.221 177.568 333.797 194.905 316.77C210.664 300.451 223.874 281.852 234.093 261.598Z" fill="#399EE2" stroke="#45413C" stroke-width="7" stroke-linecap="round" stroke-linejoin="round"/>
<path d="M291.223 138.57C291.223 153.585 297.188 167.986 307.805 178.603C318.422 189.221 332.823 195.185 347.838 195.185C362.854 195.185 377.254 189.221 387.872 178.603C398.489 167.986 404.454 153.585 404.454 138.57C404.454 123.554 398.489 109.154 387.872 98.5364C377.254 87.919 362.854 81.9541 347.838 81.9541C332.823 81.9541 318.422 87.919 307.805 98.5364C297.188 109.154 291.223 123.554 291.223 138.57Z" fill="#C0DCEB" stroke="#45413C" stroke-width="7" stroke-linecap="round" stroke-linejoin="round"/>
<path d="M308.961 138.26C308.961 143.406 309.975 148.502 311.944 153.256C313.913 158.011 316.8 162.331 320.439 165.97C324.078 169.608 328.398 172.495 333.152 174.464C337.906 176.434 343.002 177.447 348.148 177.447C353.295 177.447 358.39 176.434 363.145 174.464C367.899 172.495 372.219 169.608 375.858 165.97C379.497 162.331 382.384 158.011 384.353 153.256C386.322 148.502 387.336 143.406 387.336 138.26C387.336 133.114 386.322 128.018 384.353 123.263C382.384 118.509 379.497 114.189 375.858 110.55C372.219 106.911 367.899 104.025 363.145 102.055C358.39 100.086 353.295 99.0723 348.148 99.0723C343.002 99.0723 337.906 100.086 333.152 102.055C328.398 104.025 324.078 106.911 320.439 110.55C316.8 114.189 313.913 118.509 311.944 123.263C309.975 128.018 308.961 133.114 308.961 138.26Z" fill="#00B8F0"/>
<path d="M320.407 110.519C316.759 114.159 313.865 118.483 311.89 123.243C309.915 128.003 308.898 133.106 308.898 138.26C308.898 143.413 309.915 148.516 311.89 153.276C313.865 158.036 316.759 162.36 320.407 166C323.03 168.514 325.978 170.664 329.173 172.394L365.782 103.404C358.444 99.6169 350.09 98.2653 341.932 99.5446C333.773 100.824 326.234 104.668 320.407 110.519Z" fill="#4ACFFF"/>
<path d="M308.961 138.26C308.961 143.406 309.975 148.502 311.944 153.256C313.913 158.011 316.8 162.331 320.439 165.97C324.078 169.608 328.398 172.495 333.152 174.464C337.906 176.434 343.002 177.447 348.148 177.447C353.295 177.447 358.39 176.434 363.145 174.464C367.899 172.495 372.219 169.608 375.858 165.97C379.497 162.331 382.384 158.011 384.353 153.256C386.322 148.502 387.336 143.406 387.336 138.26C387.336 133.114 386.322 128.018 384.353 123.263C382.384 118.509 379.497 114.189 375.858 110.55C372.219 106.911 367.899 104.025 363.145 102.055C358.39 100.086 353.295 99.0723 348.148 99.0723C343.002 99.0723 337.906 100.086 333.152 102.055C328.398 104.025 324.078 106.911 320.439 110.55C316.8 114.189 313.913 118.509 311.944 123.263C309.975 128.018 308.961 133.114 308.961 138.26Z" stroke="#45413C" stroke-width="7" stroke-linecap="round" stroke-linejoin="round"/>
<path d="M116.943 424.741C109.724 431.96 63.7303 447.532 40.424 455.06C36.0928 456.503 30.1115 450.213 31.2459 445.882C38.774 422.678 54.3459 376.685 62.1834 369.363C71.9803 359.05 97.5553 359.05 112.818 374.107C128.08 389.163 126.74 414.944 116.943 424.741Z" fill="#FF8A14" stroke="#45413C" stroke-width="7" stroke-linecap="round" stroke-linejoin="round"/>
<path d="M104.465 407.417C99.3084 412.47 77.9615 417.729 73.5271 413.192C69.0927 408.654 74.249 386.998 79.4052 382.254C82.8215 379.922 87.0008 378.986 91.0855 379.638C95.1701 380.29 98.8503 382.481 101.371 385.76C104.522 388.315 106.592 391.966 107.165 395.982C107.739 399.998 106.774 404.082 104.465 407.417Z" fill="#FFE500" stroke="#45413C" stroke-width="7" stroke-linecap="round" stroke-linejoin="round"/>
</svg>
