<svg width="495" height="495" viewBox="0 0 495 495" fill="none" xmlns="http://www.w3.org/2000/svg">
<path d="M218.523 197.624C216.207 186.675 211.754 176.289 205.418 167.064C199.083 157.838 190.989 149.953 181.601 143.86C172.213 137.768 161.715 133.587 150.709 131.558C139.702 129.529 128.404 129.692 117.46 132.037C59.1946 144.102 46.5103 207.937 56.204 253.621C82.5009 374.896 213.882 428.521 257.813 443.165C262.103 444.607 266.702 444.87 271.128 443.926C275.555 442.983 279.646 440.868 282.976 437.802C316.904 406.865 415.698 303.74 389.917 182.774C380.017 136.781 342.582 84.1868 284.213 96.2524C273.242 98.592 262.839 103.07 253.6 109.432C244.36 115.793 236.464 123.913 230.364 133.327C224.263 142.741 220.077 153.265 218.046 164.298C216.014 175.33 216.176 186.655 218.523 197.624Z" fill="#FF6242"/>
<path d="M297.309 137.09C280.368 140.684 264.833 149.114 252.588 161.36C240.342 173.605 231.912 189.14 228.318 206.081C227.967 207.665 227.168 209.115 226.015 210.257C224.863 211.4 223.406 212.186 221.819 212.523C220.231 212.86 218.581 212.733 217.063 212.158C215.546 211.582 214.227 210.583 213.262 209.278C203.094 195.26 189.083 184.489 172.923 178.267C156.763 172.044 139.146 170.637 122.203 174.215C80.9528 183.084 61.0496 216.806 55.9965 252.59C46.6121 206.7 59.5028 144 117.872 131.728C139.957 127.122 162.967 131.477 181.842 143.835C200.716 156.192 213.91 175.541 218.521 197.625C213.874 175.516 218.178 152.466 230.49 133.523C242.803 114.581 262.12 101.29 284.212 96.5621C342.168 84.1871 379.397 135.75 389.503 181.846C370.425 151.115 338.971 128.221 297.309 137.09Z" fill="#FF866E"/>
<path d="M218.523 197.624C216.207 186.675 211.754 176.289 205.418 167.064C199.083 157.838 190.989 149.953 181.601 143.86C172.213 137.768 161.715 133.587 150.709 131.558C139.702 129.529 128.404 129.692 117.46 132.037C59.1946 144.102 46.5103 207.937 56.204 253.621C82.5009 374.896 213.882 428.521 257.813 443.165C262.103 444.607 266.702 444.87 271.128 443.926C275.555 442.983 279.646 440.868 282.976 437.802C316.904 406.865 415.698 303.74 389.917 182.774C380.017 136.781 342.582 84.1868 284.213 96.2524C273.242 98.592 262.839 103.07 253.6 109.432C244.36 115.793 236.464 123.913 230.364 133.327C224.263 142.741 220.077 153.265 218.046 164.298C216.014 175.33 216.176 186.655 218.523 197.624V197.624Z" stroke="#45413C" stroke-width="7" stroke-linecap="round" stroke-linejoin="round"/>
<path d="M66.5165 118.94C48.7974 122.613 33.2611 133.17 23.3218 148.291C13.3826 163.413 9.85353 181.862 13.5102 199.584" stroke="#45413C" stroke-width="7" stroke-linecap="round" stroke-linejoin="round"/>
<path d="M74.4594 89.4468C69.7808 87.568 64.7777 86.6298 59.7362 86.686C54.6948 86.7421 49.7138 87.7915 45.0782 89.7741C40.4426 91.7567 36.2433 94.6336 32.7204 98.2403C29.1974 101.847 26.42 106.113 24.5469 110.794" stroke="#45413C" stroke-width="7" stroke-linecap="round" stroke-linejoin="round"/>
</svg>
