<svg width="495" height="495" viewBox="0 0 495 495" fill="none" xmlns="http://www.w3.org/2000/svg">
<path d="M195.938 242.624C177.375 224.784 161.391 177.965 149.222 143.005C148.861 142.01 148.202 141.15 147.334 140.542C146.467 139.934 145.434 139.608 144.375 139.608C143.316 139.608 142.283 139.934 141.416 140.542C140.548 141.15 139.889 142.01 139.528 143.005C127.359 177.965 111.375 224.784 92.8125 242.624H195.938Z" fill="#EBCB00" stroke="#45413C" stroke-width="7" stroke-linecap="round" stroke-linejoin="round"/>
<path d="M299.062 242.624C317.625 224.784 333.609 177.965 345.778 143.005C346.139 142.01 346.798 141.15 347.666 140.542C348.533 139.934 349.566 139.608 350.625 139.608C351.684 139.608 352.717 139.934 353.584 140.542C354.452 141.15 355.111 142.01 355.472 143.005C367.641 177.965 383.625 224.784 402.188 242.624H299.062Z" fill="#EBCB00" stroke="#45413C" stroke-width="7" stroke-linecap="round" stroke-linejoin="round"/>
<path d="M242.706 110.832C243.062 109.86 243.708 109.022 244.557 108.43C245.405 107.837 246.415 107.52 247.45 107.52C248.484 107.52 249.494 107.837 250.342 108.43C251.191 109.022 251.837 109.86 252.193 110.832C266.012 145.997 307.468 242.625 345.006 242.625C377.697 242.625 410.49 196.425 426.887 169.2C427.529 168.268 428.454 167.568 429.525 167.203C430.597 166.839 431.757 166.829 432.834 167.177C433.911 167.524 434.848 168.21 435.504 169.132C436.16 170.054 436.502 171.163 436.478 172.294L427.918 319.969C427.918 356.991 347.068 387 247.45 387C147.831 387 66.9809 356.991 66.9809 319.969L58.009 172.294C57.9849 171.163 58.3264 170.054 58.9828 169.132C59.6392 168.21 60.5755 167.524 61.6525 167.177C62.7296 166.829 63.89 166.839 64.9614 167.203C66.0328 167.568 66.958 168.268 67.5996 169.2C83.9965 196.219 116.79 242.625 149.481 242.625C187.431 242.625 228.887 145.997 242.706 110.832Z" fill="#FFE500"/>
<path d="M127.793 370.088L296.815 201.066C279.199 172.435 264.285 142.226 252.265 110.832C251.909 109.86 251.263 109.022 250.414 108.43C249.566 107.837 248.556 107.52 247.522 107.52C246.487 107.52 245.477 107.837 244.629 108.43C243.78 109.022 243.134 109.86 242.778 110.832C228.959 145.997 187.503 242.625 149.965 242.625C117.275 242.625 84.4809 196.425 68.084 169.2C67.4424 168.268 66.5172 167.568 65.4458 167.203C64.3744 166.839 63.214 166.829 62.1369 167.177C61.0599 167.524 60.1236 168.21 59.4672 169.132C58.8108 170.054 58.4693 171.163 58.4934 172.294L67.0528 319.969C67.0528 339.872 90.6684 357.713 127.793 370.088Z" fill="#FFF48C"/>
<path d="M242.706 110.832C243.062 109.86 243.708 109.022 244.557 108.43C245.405 107.837 246.415 107.52 247.45 107.52C248.484 107.52 249.494 107.837 250.342 108.43C251.191 109.022 251.837 109.86 252.193 110.832C266.012 145.997 307.468 242.625 345.006 242.625C377.696 242.625 410.49 196.425 426.887 169.2C427.529 168.268 428.454 167.568 429.525 167.203C430.597 166.839 431.757 166.829 432.834 167.177C433.911 167.524 434.848 168.21 435.504 169.132C436.16 170.054 436.502 171.163 436.478 172.294L427.918 319.969C427.918 356.991 347.068 387 247.45 387C147.831 387 66.9809 356.991 66.9809 319.969L58.009 172.294C57.9849 171.163 58.3264 170.054 58.9828 169.132C59.6392 168.21 60.5755 167.524 61.6525 167.177C62.7296 166.829 63.89 166.839 64.9614 167.203C66.0328 167.568 66.958 168.268 67.5996 169.2C83.9965 196.219 116.79 242.625 149.481 242.625C187.431 242.625 228.887 145.997 242.706 110.832Z" stroke="#45413C" stroke-width="7" stroke-linecap="round" stroke-linejoin="round"/>
<path d="M283.594 278.719C283.594 269.146 279.791 259.965 273.022 253.197C266.253 246.428 257.073 242.625 247.5 242.625C237.927 242.625 228.747 246.428 221.978 253.197C215.209 259.965 211.406 269.146 211.406 278.719V299.344C211.406 308.916 215.209 318.097 221.978 324.866C228.747 331.635 237.927 335.437 247.5 335.437C257.073 335.437 266.253 331.635 273.022 324.866C279.791 318.097 283.594 308.916 283.594 299.344V278.719Z" fill="#34C759"/>
<path d="M247.5 319.969C237.927 319.969 228.747 316.166 221.978 309.397C215.209 302.628 211.406 293.448 211.406 283.875V299.344C211.406 308.916 215.209 318.097 221.978 324.866C228.747 331.635 237.927 335.437 247.5 335.437C257.073 335.437 266.253 331.635 273.022 324.866C279.791 318.097 283.594 308.916 283.594 299.344V283.875C283.594 293.448 279.791 302.628 273.022 309.397C266.253 316.166 257.073 319.969 247.5 319.969Z" fill="#2CB24D"/>
<path d="M247.542 242.625C237.97 242.625 228.789 246.428 222.02 253.197C215.251 259.965 211.449 269.146 211.449 278.719V299.344C211.392 300.202 211.392 301.063 211.449 301.922C212.134 292.901 216.202 284.471 222.837 278.321C229.472 272.17 238.186 268.753 247.233 268.753C256.28 268.753 264.994 272.17 271.629 278.321C278.265 284.471 282.332 292.901 283.017 301.922C283.074 301.063 283.074 300.202 283.017 299.344V278.719C283.019 269.252 279.301 260.164 272.666 253.413C266.03 246.662 257.007 242.787 247.542 242.625Z" fill="#00FF40"/>
<path d="M283.594 278.719C283.594 269.146 279.791 259.965 273.022 253.197C266.253 246.428 257.073 242.625 247.5 242.625C237.927 242.625 228.747 246.428 221.978 253.197C215.209 259.965 211.406 269.146 211.406 278.719V299.344C211.406 308.916 215.209 318.097 221.978 324.866C228.747 331.635 237.927 335.437 247.5 335.437C257.073 335.437 266.253 331.635 273.022 324.866C279.791 318.097 283.594 308.916 283.594 299.344V278.719Z" stroke="#45413C" stroke-width="7" stroke-linecap="round" stroke-linejoin="round"/>
<path d="M345.469 294.187C345.469 299.658 347.642 304.904 351.51 308.772C355.378 312.64 360.624 314.812 366.094 314.812C371.564 314.812 376.81 312.64 380.678 308.772C384.546 304.904 386.719 299.658 386.719 294.187C386.719 288.717 384.546 283.471 380.678 279.603C376.81 275.735 371.564 273.562 366.094 273.562C360.624 273.562 355.378 275.735 351.51 279.603C347.642 283.471 345.469 288.717 345.469 294.187Z" fill="#34C759" stroke="#45413C" stroke-width="7" stroke-linecap="round" stroke-linejoin="round"/>
<path d="M108.281 294.187C108.281 299.658 110.454 304.904 114.322 308.772C118.19 312.64 123.436 314.812 128.906 314.812C134.376 314.812 139.622 312.64 143.49 308.772C147.358 304.904 149.531 299.658 149.531 294.187C149.531 288.717 147.358 283.471 143.49 279.603C139.622 275.735 134.376 273.562 128.906 273.562C123.436 273.562 118.19 275.735 114.322 279.603C110.454 283.471 108.281 288.717 108.281 294.187Z" fill="#34C759" stroke="#45413C" stroke-width="7" stroke-linecap="round" stroke-linejoin="round"/>
<path d="M67.0312 371.531C67.0312 408.553 147.881 438.562 247.5 438.562C347.119 438.562 427.969 408.553 427.969 371.531V319.969C427.969 356.991 347.119 387 247.5 387C147.881 387 67.0312 356.991 67.0312 319.969V371.531Z" fill="#C0DCEB"/>
<path d="M247.5 387C147.881 387 67.0312 356.991 67.0312 319.969V345.75C67.0312 382.772 147.881 412.781 247.5 412.781C347.119 412.781 427.969 382.772 427.969 345.75V319.969C427.969 356.991 347.119 387 247.5 387Z" fill="#E8F4FA"/>
<path d="M67.0312 371.531C67.0312 408.553 147.881 438.562 247.5 438.562C347.119 438.562 427.969 408.553 427.969 371.531V319.969C427.969 356.991 347.119 387 247.5 387C147.881 387 67.0312 356.991 67.0312 319.969V371.531Z" stroke="#45413C" stroke-width="7" stroke-linecap="round" stroke-linejoin="round"/>
<path d="M118.594 118.875C118.594 125.713 121.31 132.27 126.145 137.105C130.98 141.94 137.537 144.656 144.375 144.656C151.213 144.656 157.77 141.94 162.605 137.105C167.44 132.27 170.156 125.713 170.156 118.875C170.156 112.037 167.44 105.48 162.605 100.645C157.77 95.81 151.213 93.0938 144.375 93.0938C137.537 93.0938 130.98 95.81 126.145 100.645C121.31 105.48 118.594 112.037 118.594 118.875Z" fill="#34C759"/>
<path d="M126.154 137.13C121.313 132.289 118.594 125.724 118.594 118.877C118.594 112.031 121.313 105.465 126.154 100.624C130.995 95.7831 137.561 93.0635 144.408 93.0635C151.254 93.0635 157.82 95.7831 162.661 100.624L126.154 137.13Z" fill="#00FF40"/>
<path d="M118.594 118.875C118.594 125.713 121.31 132.27 126.145 137.105C130.98 141.94 137.537 144.656 144.375 144.656C151.213 144.656 157.77 141.94 162.605 137.105C167.44 132.27 170.156 125.713 170.156 118.875C170.156 112.037 167.44 105.48 162.605 100.645C157.77 95.81 151.213 93.0938 144.375 93.0938C137.537 93.0938 130.98 95.81 126.145 100.645C121.31 105.48 118.594 112.037 118.594 118.875V118.875Z" stroke="#45413C" stroke-width="7" stroke-linecap="round" stroke-linejoin="round"/>
<path d="M324.844 118.875C324.844 125.713 327.56 132.27 332.395 137.105C337.23 141.94 343.787 144.656 350.625 144.656C357.463 144.656 364.02 141.94 368.855 137.105C373.69 132.27 376.406 125.713 376.406 118.875C376.406 112.037 373.69 105.48 368.855 100.645C364.02 95.81 357.463 93.0938 350.625 93.0938C343.787 93.0938 337.23 95.81 332.395 100.645C327.56 105.48 324.844 112.037 324.844 118.875Z" fill="#34C759"/>
<path d="M332.404 137.13C327.563 132.289 324.844 125.724 324.844 118.877C324.844 115.487 325.511 112.131 326.809 108.999C328.106 105.867 330.007 103.021 332.404 100.624C334.801 98.2271 337.647 96.3257 340.779 95.0284C343.911 93.7312 347.268 93.0635 350.658 93.0635C357.504 93.0635 364.07 95.7831 368.911 100.624L332.404 137.13Z" fill="#00FF40"/>
<path d="M324.844 118.875C324.844 125.713 327.56 132.27 332.395 137.105C337.23 141.94 343.787 144.656 350.625 144.656C357.463 144.656 364.02 141.94 368.855 137.105C373.69 132.27 376.406 125.713 376.406 118.875C376.406 112.037 373.69 105.48 368.855 100.645C364.02 95.81 357.463 93.0938 350.625 93.0938C343.787 93.0938 337.23 95.81 332.395 100.645C327.56 105.48 324.844 112.037 324.844 118.875Z" stroke="#45413C" stroke-width="7" stroke-linecap="round" stroke-linejoin="round"/>
<path d="M25.7813 139.5C25.7812 143.563 26.5815 147.586 28.1362 151.339C29.691 155.093 31.9698 158.503 34.8426 161.376C37.7154 164.249 41.126 166.528 44.8795 168.083C48.633 169.637 52.656 170.438 56.7188 170.438C60.7815 170.438 64.8045 169.637 68.558 168.083C72.3115 166.528 75.7221 164.249 78.5949 161.376C81.4677 158.503 83.7465 155.093 85.3013 151.339C86.856 147.586 87.6562 143.563 87.6562 139.5C87.6562 135.437 86.856 131.414 85.3013 127.661C83.7465 123.907 81.4677 120.497 78.5949 117.624C75.7221 114.751 72.3115 112.472 68.558 110.917C64.8045 109.363 60.7815 108.563 56.7188 108.562C52.656 108.563 48.633 109.363 44.8795 110.917C41.126 112.472 37.7154 114.751 34.8426 117.624C31.9698 120.497 29.691 123.907 28.1362 127.661C26.5815 131.414 25.7812 135.437 25.7813 139.5Z" fill="#34C759"/>
<path d="M34.8892 161.361C29.4244 155.497 26.4493 147.74 26.5908 139.725C26.7322 131.71 29.979 124.063 35.6473 118.394C41.3156 112.726 48.9627 109.479 56.9777 109.338C64.9926 109.196 72.7495 112.171 78.6142 117.636L34.8892 161.361Z" fill="#00FF40"/>
<path d="M25.7813 139.5C25.7812 143.563 26.5815 147.586 28.1362 151.339C29.691 155.093 31.9698 158.503 34.8426 161.376C37.7154 164.249 41.126 166.528 44.8795 168.083C48.633 169.637 52.656 170.438 56.7188 170.438C60.7815 170.438 64.8045 169.637 68.558 168.083C72.3115 166.528 75.7221 164.249 78.5949 161.376C81.4677 158.503 83.7465 155.093 85.3013 151.339C86.856 147.586 87.6563 143.563 87.6562 139.5C87.6563 135.437 86.856 131.414 85.3013 127.661C83.7465 123.907 81.4677 120.497 78.5949 117.624C75.7221 114.751 72.3115 112.472 68.558 110.917C64.8045 109.363 60.7815 108.563 56.7188 108.562C52.656 108.563 48.633 109.363 44.8795 110.917C41.126 112.472 37.7154 114.751 34.8426 117.624C31.9698 120.497 29.691 123.907 28.1362 127.661C26.5815 131.414 25.7812 135.437 25.7813 139.5V139.5Z" stroke="#45413C" stroke-width="7" stroke-linecap="round" stroke-linejoin="round"/>
<path d="M216.562 87.9375C216.563 96.1426 219.822 104.012 225.624 109.814C231.426 115.616 239.295 118.875 247.5 118.875C255.705 118.875 263.574 115.616 269.376 109.814C275.178 104.012 278.438 96.1426 278.438 87.9375C278.438 79.7324 275.178 71.8633 269.376 66.0614C263.574 60.2595 255.705 57 247.5 57C239.295 57 231.426 60.2595 225.624 66.0614C219.822 71.8633 216.563 79.7324 216.562 87.9375Z" fill="#34C759"/>
<path d="M225.67 109.799C220.206 103.934 217.231 96.1772 217.372 88.1622C217.513 80.1473 220.76 72.5002 226.429 66.8319C232.097 61.1636 239.744 57.9167 247.759 57.7753C255.774 57.6339 263.531 60.609 269.395 66.0738L225.67 109.799Z" fill="#00FF40"/>
<path d="M216.562 87.9375C216.563 96.1426 219.822 104.012 225.624 109.814C231.426 115.616 239.295 118.875 247.5 118.875C255.705 118.875 263.574 115.616 269.376 109.814C275.178 104.012 278.437 96.1426 278.438 87.9375C278.437 79.7324 275.178 71.8633 269.376 66.0614C263.574 60.2595 255.705 57 247.5 57C239.295 57 231.426 60.2595 225.624 66.0614C219.822 71.8633 216.563 79.7324 216.562 87.9375V87.9375Z" stroke="#45413C" stroke-width="7" stroke-linecap="round" stroke-linejoin="round"/>
<path d="M407.344 139.5C407.344 147.705 410.603 155.574 416.405 161.376C422.207 167.178 430.076 170.438 438.281 170.438C446.486 170.438 454.355 167.178 460.157 161.376C465.959 155.574 469.219 147.705 469.219 139.5C469.219 131.295 465.959 123.426 460.157 117.624C454.355 111.822 446.486 108.562 438.281 108.562C430.076 108.562 422.207 111.822 416.405 117.624C410.603 123.426 407.344 131.295 407.344 139.5Z" fill="#34C759"/>
<path d="M416.386 161.364C413.346 158.531 410.908 155.116 409.217 151.321C407.526 147.526 406.617 143.429 406.544 139.275C406.471 135.121 407.235 130.995 408.791 127.143C410.347 123.291 412.663 119.791 415.6 116.853C418.538 113.916 422.038 111.6 425.89 110.044C429.742 108.488 433.868 107.724 438.022 107.797C442.176 107.87 446.273 108.779 450.068 110.47C453.863 112.161 457.278 114.599 460.111 117.639L416.386 161.364Z" fill="#00FF40"/>
<path d="M407.344 139.5C407.344 147.705 410.603 155.574 416.405 161.376C422.207 167.178 430.076 170.437 438.281 170.438C446.486 170.437 454.355 167.178 460.157 161.376C465.959 155.574 469.219 147.705 469.219 139.5C469.219 131.295 465.959 123.426 460.157 117.624C454.355 111.822 446.486 108.562 438.281 108.562C430.076 108.562 422.207 111.822 416.405 117.624C410.603 123.426 407.344 131.295 407.344 139.5Z" stroke="#45413C" stroke-width="7" stroke-linecap="round" stroke-linejoin="round"/>
</svg>
