<svg width="495" height="495" viewBox="0 0 495 495" fill="none" xmlns="http://www.w3.org/2000/svg">
<path d="M235.01 70.5C240.693 60.6561 254.769 60.5024 260.714 70.0391L260.99 70.5L408.215 325.5C413.988 335.5 406.771 348 395.225 348H100.775C89.409 348 82.2387 335.888 87.5244 325.971L87.7852 325.5L235.01 70.5Z" fill="#D91A1E" stroke="#3C3C3B" stroke-width="10"/>
<circle cx="247.317" cy="306.317" r="10.3171" fill="#3C3C3B"/>
<path d="M263.113 173.295L252.566 249.938C251.77 255.724 243.394 255.684 242.653 249.89L232.848 173.153C232.708 172.061 232.932 170.945 233.504 170.004C243.623 153.346 251.322 153.377 262.354 169.922C263.014 170.912 263.275 172.116 263.113 173.295Z" fill="#3C3C3B" stroke="#3C3C3B" stroke-width="10" stroke-linecap="round"/>
</svg>
