<svg width="495" height="495" viewBox="0 0 495 495" fill="none" xmlns="http://www.w3.org/2000/svg">
<path d="M325.255 318.404L247.498 289.116L169.742 318.713C156.557 323.744 145.21 332.659 137.2 344.277C129.19 355.896 124.895 369.673 124.883 383.785V443.804H370.114V383.476C370.102 369.363 365.807 355.587 357.797 343.968C349.787 332.349 338.44 323.435 325.255 318.404Z" fill="#656769"/>
<path d="M325.255 318.404L247.498 289.116L169.742 318.713C156.557 323.744 145.21 332.659 137.2 344.277C129.19 355.896 124.895 369.673 124.883 383.785V414.722C124.895 400.61 129.19 386.834 137.2 375.215C145.21 363.596 156.557 354.682 169.742 349.651L247.498 320.054L325.255 349.651C338.44 354.682 349.787 363.596 357.797 375.215C365.807 386.834 370.102 400.61 370.114 414.722V383.785C370.165 369.62 365.899 355.776 357.885 344.095C349.871 332.415 338.489 323.454 325.255 318.404Z" fill="#525252"/>
<path d="M325.255 318.404L247.498 289.116L169.742 318.713C156.557 323.744 145.21 332.659 137.2 344.277C129.19 355.896 124.895 369.673 124.883 383.785V443.804H370.114V383.476C370.102 369.363 365.807 355.587 357.797 343.968C349.787 332.349 338.44 323.435 325.255 318.404V318.404Z" stroke="#45413C" stroke-width="6" stroke-linecap="round" stroke-linejoin="round"/>
<path d="M311.745 349.238L333.71 343.772L317.829 315.516L247.498 288.807L177.166 315.516L161.285 343.772L183.251 349.238L175.723 372.132L226.048 443.804H268.948L319.273 372.132L311.745 349.238Z" fill="#656769" stroke="#45413C" stroke-width="6" stroke-linecap="round" stroke-linejoin="round"/>
<path d="M247.5 289.116C247.5 289.116 195.938 289.116 195.938 318.094C196.894 339.814 204.69 360.677 218.212 377.701L247.5 352.538L277.303 377.701C290.826 360.677 298.622 339.814 299.578 318.094C299.578 289.116 247.5 289.116 247.5 289.116Z" fill="white" stroke="#45413C" stroke-width="6" stroke-linecap="round" stroke-linejoin="round"/>
<path d="M247.498 352.538L224.295 329.335C222.39 327.415 221.316 324.822 221.305 322.117V291.179C221.305 284.232 224.064 277.57 228.977 272.657C233.889 267.745 240.551 264.985 247.498 264.985C254.445 264.985 261.108 267.745 266.02 272.657C270.933 277.57 273.692 284.232 273.692 291.179V322.117C273.681 324.822 272.607 327.415 270.702 329.335L247.498 352.538Z" fill="#FFCEBF"/>
<path d="M247.498 264.985C240.551 264.985 233.889 267.745 228.977 272.657C224.064 277.57 221.305 284.232 221.305 291.179V297.263C221.305 304.211 224.064 310.873 228.977 315.785C233.889 320.698 240.551 323.457 247.498 323.457C254.445 323.457 261.108 320.698 266.02 315.785C270.933 310.873 273.692 304.211 273.692 297.263V291.179C273.692 284.232 270.933 277.57 266.02 272.657C261.108 267.745 254.445 264.985 247.498 264.985Z" fill="#FFB59E"/>
<path d="M247.498 352.538L224.295 329.335C222.39 327.415 221.316 324.822 221.305 322.117V291.179C221.305 284.232 224.064 277.57 228.977 272.657C233.889 267.745 240.551 264.985 247.498 264.985V264.985C254.445 264.985 261.108 267.745 266.02 272.657C270.933 277.57 273.692 284.232 273.692 291.179V322.117C273.681 324.822 272.607 327.415 270.702 329.335L247.498 352.538Z" stroke="#45413C" stroke-width="6" stroke-linecap="round" stroke-linejoin="round"/>
<path d="M277.302 377.701L268.639 443.804H226.048L217.695 377.701L247.498 352.538L277.302 377.701Z" fill="white" stroke="#45413C" stroke-width="6" stroke-linecap="round" stroke-linejoin="round"/>
<path d="M242.344 398.944C242.344 400.312 242.887 401.623 243.854 402.59C244.821 403.557 246.132 404.101 247.5 404.101C248.868 404.101 250.179 403.557 251.146 402.59C252.113 401.623 252.656 400.312 252.656 398.944C252.656 397.577 252.113 396.265 251.146 395.298C250.179 394.331 248.868 393.788 247.5 393.788C246.132 393.788 244.821 394.331 243.854 395.298C242.887 396.265 242.344 397.577 242.344 398.944Z" fill="#45413C"/>
<path d="M242.344 422.147C242.344 423.515 242.887 424.826 243.854 425.793C244.821 426.76 246.132 427.304 247.5 427.304C248.868 427.304 250.179 426.76 251.146 425.793C252.113 424.826 252.656 423.515 252.656 422.147C252.656 420.78 252.113 419.468 251.146 418.501C250.179 417.534 248.868 416.991 247.5 416.991C246.132 416.991 244.821 417.534 243.854 418.501C242.887 419.468 242.344 420.78 242.344 422.147Z" fill="#45413C"/>
<path d="M247.499 51.0005C239.015 50.9737 230.562 52.0131 222.337 54.0943C203.155 58.4255 178.199 65.7474 155.615 61.4161C154.747 67.2329 155.067 73.1652 156.556 78.8548C158.045 84.5444 160.672 89.8731 164.277 94.5193C152.511 111.478 146.214 131.629 146.231 152.269V205.276H348.768V152.269C348.768 125.411 338.099 99.653 319.107 80.6614C300.115 61.6699 274.357 51.0005 247.499 51.0005Z" fill="#A86C4D"/>
<path d="M247.498 51.0005C239.014 50.9737 230.561 52.0131 222.336 54.0943C203.155 58.4255 178.198 65.7474 155.614 61.4161C154.19 72.2348 156.677 83.2062 162.627 92.3536C182.833 92.7719 202.98 90.0229 222.336 84.2068C237.296 80.4317 252.919 80.1141 268.02 83.2781C283.121 86.4421 297.303 93.0044 309.489 102.467C321.675 111.93 331.546 124.044 338.352 137.891C345.157 151.738 348.719 166.953 348.767 182.382V152.269C348.767 125.411 338.098 99.653 319.106 80.6614C300.115 61.6699 274.357 51.0005 247.498 51.0005Z" fill="#DE926A"/>
<path d="M247.499 51.0005C239.015 50.9737 230.562 52.0131 222.337 54.0943C203.155 58.4255 178.199 65.7474 155.615 61.4161C154.747 67.2329 155.067 73.1652 156.556 78.8548C158.045 84.5444 160.672 89.8731 164.277 94.5193C152.511 111.478 146.214 131.629 146.231 152.269V205.276H348.768V152.269C348.768 125.411 338.099 99.653 319.107 80.6614C300.115 61.6699 274.357 51.0005 247.499 51.0005V51.0005Z" stroke="#45413C" stroke-width="6" stroke-linecap="round" stroke-linejoin="round"/>
<path d="M359.597 197.541C359.096 193.754 357.457 190.209 354.897 187.373C352.338 184.537 348.978 182.545 345.263 181.66L339.178 179.907C334.64 178.737 330.636 176.058 327.824 172.309C325.012 168.56 323.561 163.965 323.709 159.282V138.244C323.704 133.987 322.283 129.852 319.669 126.491C317.055 123.13 313.397 120.735 309.272 119.682C289.593 127.484 268.562 131.304 247.397 130.922C226.231 131.304 205.201 127.484 185.522 119.682C181.397 120.735 177.739 123.13 175.125 126.491C172.511 129.852 171.089 133.987 171.084 138.244V159.591C171.233 164.275 169.781 168.869 166.97 172.618C164.158 176.367 160.154 179.047 155.616 180.216L149.531 181.969C145.815 182.855 142.456 184.847 139.896 187.682C137.337 190.518 135.698 194.064 135.197 197.85C134.921 200.461 135.199 203.101 136.013 205.596C136.827 208.092 138.158 210.388 139.92 212.335C141.681 214.281 143.834 215.834 146.236 216.892C148.639 217.951 151.237 218.49 153.863 218.475H154.997C157.41 241.272 168.174 262.369 185.216 277.702C202.257 293.035 224.37 301.518 247.294 301.518C270.218 301.518 292.331 293.035 309.372 277.702C326.413 262.369 337.178 241.272 339.591 218.475H340.725C343.397 218.525 346.048 218 348.499 216.937C350.95 215.873 353.145 214.296 354.934 212.311C356.723 210.326 358.065 207.981 358.87 205.432C359.674 202.884 359.922 200.193 359.597 197.541Z" fill="#FFCEBF" stroke="#45413C" stroke-width="6" stroke-linecap="round" stroke-linejoin="round"/>
<path d="M191.5 195.375C191.5 197.481 192.337 199.501 193.826 200.99C195.315 202.479 197.335 203.316 199.441 203.316C201.547 203.316 203.566 202.479 205.055 200.99C206.545 199.501 207.381 197.481 207.381 195.375C207.381 193.269 206.545 191.249 205.055 189.76C203.566 188.271 201.547 187.435 199.441 187.435C197.335 187.435 195.315 188.271 193.826 189.76C192.337 191.249 191.5 193.269 191.5 195.375Z" fill="#45413C" stroke="#45413C" stroke-width="6" stroke-linecap="round" stroke-linejoin="round"/>
<path d="M303.495 195.375C303.495 197.481 302.658 199.501 301.169 200.99C299.68 202.479 297.66 203.316 295.554 203.316C293.448 203.316 291.428 202.479 289.939 200.99C288.45 199.501 287.613 197.481 287.613 195.375C287.613 193.269 288.45 191.249 289.939 189.76C291.428 188.271 293.448 187.435 295.554 187.435C297.66 187.435 299.68 188.271 301.169 189.76C302.658 191.249 303.495 193.269 303.495 195.375Z" fill="#45413C" stroke="#45413C" stroke-width="6" stroke-linecap="round" stroke-linejoin="round"/>
<path d="M218.212 243.741C217.569 243.755 216.936 243.899 216.351 244.165C215.766 244.431 215.242 244.813 214.809 245.288C214.369 245.789 214.047 246.384 213.869 247.026C213.69 247.669 213.659 248.344 213.777 249.001C215.17 256.933 219.314 264.121 225.482 269.3C231.65 274.479 239.446 277.318 247.499 277.318C255.553 277.318 263.349 274.479 269.517 269.3C275.684 264.121 279.829 256.933 281.221 249.001C281.34 248.344 281.308 247.669 281.13 247.026C280.951 246.384 280.63 245.789 280.19 245.288C279.761 244.808 279.237 244.423 278.651 244.157C278.065 243.891 277.43 243.749 276.787 243.741H218.212Z" fill="#FF6242"/>
<path d="M247.499 258.179C238.2 257.902 229.068 260.692 221.512 266.12C224.744 269.767 228.713 272.688 233.157 274.688C237.601 276.688 242.419 277.723 247.293 277.723C252.167 277.723 256.985 276.688 261.429 274.688C265.873 272.688 269.842 269.767 273.074 266.12C265.631 260.778 256.658 257.992 247.499 258.179Z" fill="#FFA694"/>
<path d="M218.212 243.741C217.569 243.755 216.936 243.899 216.351 244.165C215.766 244.431 215.242 244.813 214.809 245.288C214.369 245.789 214.047 246.384 213.869 247.026C213.69 247.669 213.659 248.344 213.777 249.001C215.17 256.933 219.314 264.121 225.482 269.3C231.65 274.479 239.446 277.318 247.499 277.318C255.553 277.318 263.349 274.479 269.517 269.3C275.684 264.121 279.829 256.933 281.221 249.001C281.34 248.344 281.308 247.669 281.13 247.026C280.951 246.384 280.63 245.789 280.19 245.288C279.761 244.808 279.237 244.423 278.651 244.157C278.065 243.891 277.43 243.749 276.787 243.741H218.212Z" stroke="#45413C" stroke-width="6" stroke-linecap="round" stroke-linejoin="round"/>
<path d="M175.93 229.2C175.93 230.841 177.016 232.415 178.95 233.575C180.884 234.736 183.507 235.388 186.242 235.388C188.977 235.388 191.6 234.736 193.534 233.575C195.468 232.415 196.555 230.841 196.555 229.2C196.555 227.559 195.468 225.985 193.534 224.825C191.6 223.665 188.977 223.013 186.242 223.013C183.507 223.013 180.884 223.665 178.95 224.825C177.016 225.985 175.93 227.559 175.93 229.2Z" fill="#FFB59E"/>
<path d="M298.441 229.2C298.441 230.841 299.528 232.415 301.462 233.575C303.396 234.736 306.019 235.388 308.754 235.388C311.489 235.388 314.112 234.736 316.046 233.575C317.98 232.415 319.066 230.841 319.066 229.2C319.066 227.559 317.98 225.985 316.046 224.825C314.112 223.665 311.489 223.013 308.754 223.013C306.019 223.013 303.396 223.665 301.462 224.825C299.528 225.985 298.441 227.559 298.441 229.2Z" fill="#FFB59E"/>
</svg>
