<svg width="496" height="496" viewBox="0 0 496 496" fill="none" xmlns="http://www.w3.org/2000/svg">
<path d="M428.834 355.054C378.614 292.33 319.817 259.057 304.834 191.684H191.167C176.184 259.057 117.387 292.33 67.1673 355.054C62.4447 361.698 59.883 369.635 59.8306 377.787C59.7544 384.412 61.4199 390.941 64.6605 396.72C67.901 402.499 72.603 407.325 78.2954 410.716C83.9879 414.106 90.4711 415.942 97.096 416.038C103.721 416.135 110.255 414.49 116.044 411.267C118.016 422.811 124.001 433.287 132.943 440.849C141.885 448.411 153.21 452.573 164.921 452.6C171.59 452.607 178.191 451.254 184.321 448.625C190.45 445.995 195.979 442.144 200.571 437.307C204.571 446.566 211.193 454.452 219.621 459.992C228.049 465.532 237.915 468.484 248.001 468.484C258.087 468.484 267.952 465.532 276.38 459.992C284.808 454.452 291.431 446.566 295.431 437.307C299.965 442.113 305.424 445.954 311.478 448.6C317.533 451.245 324.06 452.641 330.667 452.704C342.378 452.676 353.703 448.514 362.645 440.952C371.587 433.39 377.572 422.914 379.544 411.37C385.333 414.593 391.867 416.238 398.492 416.142C405.117 416.045 411.6 414.21 417.293 410.819C422.985 407.429 427.687 402.602 430.928 396.823C434.168 391.044 435.834 384.515 435.757 377.89C435.868 369.745 433.449 361.766 428.834 355.054Z" fill="#4ACFFF"/>
<path d="M191.168 155.517H304.835V191.683H191.168V155.517Z" fill="#FFB0CA" stroke="#45413C" stroke-width="7" stroke-linecap="round" stroke-linejoin="round"/>
<path d="M318.579 99.4067C326.65 80.695 328.813 59.9647 324.779 39.99L321.472 22.01C321.155 20.1853 320.204 18.5312 318.786 17.34C317.368 16.1488 315.574 15.4971 313.722 15.5H290.679V29.5533C290.679 40.8719 286.183 51.7269 278.179 59.7303C270.176 67.7337 259.321 72.23 248.002 72.23C236.684 72.23 225.829 67.7337 217.825 59.7303C209.822 51.7269 205.326 40.8719 205.326 29.5533V15.5H182.282C180.43 15.4971 178.637 16.1488 177.219 17.34C175.801 18.5312 174.849 20.1853 174.532 22.01L171.226 39.99C167.192 59.9647 169.355 80.695 177.426 99.4067C184.85 117.297 189.485 136.22 191.169 155.517H304.836C306.519 136.22 311.154 117.297 318.579 99.4067Z" fill="#4ACFFF"/>
<path d="M170.396 75.64C171.016 71.5067 173.703 56.6267 174.53 52.4933C174.846 50.6686 175.798 49.0145 177.216 47.8233C178.634 46.6321 180.428 45.9804 182.28 45.9833H191.27C193.124 45.9833 194.96 46.3502 196.672 47.0629C198.383 47.7756 199.937 48.82 201.243 50.1359C202.55 51.4519 203.583 53.0133 204.283 54.7303C204.983 56.4473 205.337 58.2858 205.323 60.14C205.323 71.4586 209.819 82.3135 217.823 90.317C225.826 98.3204 236.681 102.817 248 102.817C259.318 102.817 270.173 98.3204 278.177 90.317C286.18 82.3135 290.676 71.4586 290.676 60.14C290.663 58.2858 291.016 56.4473 291.716 54.7303C292.416 53.0133 293.449 51.4519 294.756 50.1359C296.062 48.82 297.616 47.7756 299.328 47.0629C301.039 46.3502 302.875 45.9833 304.73 45.9833H313.72C315.572 45.9804 317.365 46.6321 318.783 47.8233C320.201 49.0145 321.153 50.6686 321.47 52.4933C322.296 56.6267 324.983 71.5067 325.603 75.64C327.292 63.7922 327.012 51.7468 324.776 39.99L321.47 22.01C321.153 20.1853 320.201 18.5312 318.783 17.34C317.365 16.1488 315.572 15.4971 313.72 15.5H290.676V29.5533C290.676 40.8719 286.18 51.7269 278.177 59.7303C270.173 67.7337 259.318 72.23 248 72.23C236.681 72.23 225.826 67.7337 217.823 59.7303C209.819 51.7269 205.323 40.8719 205.323 29.5533V15.5H182.28C180.428 15.4971 178.634 16.1488 177.216 17.34C175.798 18.5312 174.846 20.1853 174.53 22.01L171.223 39.99C168.987 51.7468 168.708 63.7922 170.396 75.64Z" fill="#8BE0FF"/>
<path d="M318.579 99.4067C326.65 80.695 328.813 59.9647 324.779 39.99L321.472 22.01C321.155 20.1853 320.204 18.5312 318.786 17.34C317.368 16.1488 315.574 15.4971 313.722 15.5H290.679V29.5533C290.679 40.8719 286.183 51.7269 278.179 59.7303C270.176 67.7337 259.321 72.23 248.002 72.23C236.684 72.23 225.829 67.7337 217.825 59.7303C209.822 51.7269 205.326 40.8719 205.326 29.5533V15.5H182.282C180.43 15.4971 178.637 16.1488 177.219 17.34C175.801 18.5312 174.849 20.1853 174.532 22.01L171.226 39.99C167.192 59.9647 169.355 80.695 177.426 99.4067C184.85 117.297 189.485 136.22 191.169 155.517H304.836C306.519 136.22 311.154 117.297 318.579 99.4067V99.4067Z" stroke="#45413C" stroke-width="7" stroke-linecap="round" stroke-linejoin="round"/>
<path d="M333.663 251.514C319.783 233.925 309.941 213.499 304.833 191.684H191.166C186.058 213.499 176.215 233.925 162.336 251.514C218.094 269.079 277.904 269.079 333.663 251.514Z" fill="#00B8F0"/>
<path d="M428.834 355.054C378.614 292.33 319.817 259.057 304.834 191.684H191.167C176.184 259.057 117.387 292.33 67.1673 355.054C62.4447 361.698 59.883 369.635 59.8306 377.787C59.7544 384.412 61.4199 390.941 64.6605 396.72C67.901 402.499 72.603 407.325 78.2954 410.716C83.9879 414.106 90.4711 415.942 97.096 416.038C103.721 416.135 110.255 414.49 116.044 411.267C118.016 422.811 124.001 433.287 132.943 440.849C141.885 448.411 153.21 452.573 164.921 452.6C171.59 452.607 178.191 451.254 184.321 448.625C190.45 445.995 195.979 442.144 200.571 437.307C204.571 446.566 211.193 454.452 219.621 459.992C228.049 465.532 237.915 468.484 248.001 468.484C258.087 468.484 267.952 465.532 276.38 459.992C284.808 454.452 291.431 446.566 295.431 437.307C299.965 442.113 305.424 445.954 311.478 448.6C317.533 451.245 324.06 452.641 330.667 452.704C342.378 452.676 353.703 448.514 362.645 440.952C371.587 433.39 377.572 422.914 379.544 411.37C385.333 414.593 391.867 416.238 398.492 416.142C405.117 416.045 411.6 414.21 417.293 410.819C422.985 407.429 427.687 402.602 430.928 396.823C434.168 391.044 435.834 384.515 435.757 377.89C435.868 369.745 433.449 361.766 428.834 355.054V355.054Z" stroke="#45413C" stroke-width="7" stroke-linecap="round" stroke-linejoin="round"/>
<path d="M125.551 390.083C133.184 366.805 146.922 346 165.334 329.84" stroke="#45413C" stroke-width="7" stroke-linecap="round" stroke-linejoin="round"/>
<path d="M370.452 390.29C363.959 366.748 350.658 345.646 332.219 329.634" stroke="#45413C" stroke-width="7" stroke-linecap="round" stroke-linejoin="round"/>
<path d="M201.914 417.467C202.297 396.743 205.78 376.193 212.247 356.5" stroke="#45413C" stroke-width="7" stroke-linecap="round" stroke-linejoin="round"/>
<path d="M297.082 417.467C298.125 396.846 295.501 376.204 289.332 356.5" stroke="#45413C" stroke-width="7" stroke-linecap="round" stroke-linejoin="round"/>
</svg>
