<svg width="495" height="495" viewBox="0 0 495 495" fill="none" xmlns="http://www.w3.org/2000/svg">
<path d="M16 247.806C16 284.09 26.3167 318.887 44.6805 344.543C63.0444 370.199 87.9511 384.613 113.921 384.613C139.892 384.613 164.799 370.199 183.162 344.543C201.526 318.887 211.843 284.09 211.843 247.806C211.843 211.523 201.526 176.726 183.162 151.07C164.799 125.413 139.892 111 113.921 111C87.9511 111 63.0444 125.413 44.6805 151.07C26.3167 176.726 16 211.523 16 247.806Z" fill="white"/>
<path d="M113.921 140.902C165.73 140.902 208.009 192.164 211.514 257.117C211.514 253.94 211.514 250.983 211.514 247.806C211.514 172.229 167.702 111 113.593 111C59.4841 111 16 172.229 16 247.806C16 250.983 16 253.94 16 257.117C19.8336 192.164 61.6748 140.902 113.921 140.902Z" fill="#E0E0E0"/>
<path d="M16 247.806C16 284.09 26.3167 318.887 44.6805 344.543C63.0444 370.199 87.9511 384.613 113.921 384.613C139.892 384.613 164.799 370.199 183.162 344.543C201.526 318.887 211.843 284.09 211.843 247.806C211.843 211.523 201.526 176.726 183.162 151.07C164.799 125.413 139.892 111 113.921 111C87.9511 111 63.0444 125.413 44.6805 151.07C26.3167 176.726 16 211.523 16 247.806V247.806Z" stroke="#45413C" stroke-width="7" stroke-linecap="round" stroke-linejoin="round"/>
<path d="M16 249.778C16 266.946 22.8201 283.412 34.9599 295.552C47.0998 307.691 63.565 314.512 80.7333 314.512C97.9016 314.512 114.367 307.691 126.507 295.552C138.647 283.412 145.467 266.946 145.467 249.778C145.467 232.609 138.647 216.144 126.507 204.004C114.367 191.864 97.9016 185.044 80.7333 185.044C63.565 185.044 47.0998 191.864 34.9599 204.004C22.8201 216.144 16 232.609 16 249.778Z" fill="#399EE2"/>
<path d="M80.7485 287.35C66.0115 287.254 51.7484 282.132 40.3166 272.832C28.8849 263.531 20.969 250.608 17.8772 236.198C16.8688 240.656 16.3545 245.21 16.3438 249.78C16.3438 266.949 23.1638 283.414 35.3037 295.554C47.4435 307.694 63.9087 314.514 81.0771 314.514C98.2454 314.514 114.711 307.694 126.85 295.554C138.99 283.414 145.81 266.949 145.81 249.78C145.8 245.21 145.285 240.656 144.277 236.198C141.18 250.727 133.172 263.746 121.602 273.062C110.031 282.379 95.6036 287.425 80.7485 287.35Z" fill="#2A5FD5"/>
<path d="M16 249.778C16 266.946 22.8201 283.412 34.9599 295.552C47.0998 307.691 63.565 314.512 80.7333 314.512C97.9016 314.512 114.367 307.691 126.507 295.552C138.647 283.412 145.467 266.946 145.467 249.778C145.467 232.609 138.647 216.144 126.507 204.004C114.367 191.864 97.9016 185.044 80.7333 185.044C63.565 185.044 47.0998 191.864 34.9599 204.004C22.8201 216.144 16 232.609 16 249.778V249.778Z" stroke="#45413C" stroke-width="7" stroke-linecap="round" stroke-linejoin="round"/>
<path d="M63.9219 207.389C63.9219 209.829 65.699 212.17 68.8624 213.895C72.0257 215.621 76.3161 216.59 80.7898 216.59C85.2634 216.59 89.5538 215.621 92.7172 213.895C95.8805 212.17 97.6577 209.829 97.6577 207.389C97.6577 204.949 95.8805 202.609 92.7172 200.883C89.5538 199.158 85.2634 198.188 80.7898 198.188C76.3161 198.188 72.0257 199.158 68.8624 200.883C65.699 202.609 63.9219 204.949 63.9219 207.389Z" fill="white"/>
<path d="M283.844 247.806C283.844 284.09 294.16 318.887 312.524 344.543C330.888 370.199 355.795 384.613 381.765 384.613C407.736 384.613 432.642 370.199 451.006 344.543C469.37 318.887 479.687 284.09 479.687 247.806C479.687 211.523 469.37 176.726 451.006 151.07C432.642 125.413 407.736 111 381.765 111C355.795 111 330.888 125.413 312.524 151.07C294.16 176.726 283.844 211.523 283.844 247.806Z" fill="white"/>
<path d="M381.922 140.902C433.73 140.902 476.01 192.164 479.515 257.117C479.515 253.94 479.515 250.983 479.515 247.806C479.515 172.229 435.702 111 381.593 111C327.485 111 283.672 172.229 283.672 247.806C283.672 250.983 283.672 253.94 283.672 257.117C287.834 192.164 330.113 140.902 381.922 140.902Z" fill="#E0E0E0"/>
<path d="M283.844 247.806C283.844 284.09 294.16 318.887 312.524 344.543C330.888 370.199 355.795 384.613 381.765 384.613C407.736 384.613 432.642 370.199 451.006 344.543C469.37 318.887 479.687 284.09 479.687 247.806C479.687 211.523 469.37 176.726 451.006 151.07C432.642 125.413 407.736 111 381.765 111C355.795 111 330.888 125.413 312.524 151.07C294.16 176.726 283.844 211.523 283.844 247.806V247.806Z" stroke="#45413C" stroke-width="7" stroke-linecap="round" stroke-linejoin="round"/>
<path d="M283.844 249.776C283.844 266.944 290.664 283.41 302.804 295.55C314.944 307.69 331.409 314.51 348.577 314.51C365.745 314.51 382.211 307.69 394.35 295.55C406.49 283.41 413.31 266.944 413.31 249.776C413.31 232.607 406.49 216.142 394.35 204.002C382.211 191.862 365.745 185.042 348.577 185.042C331.409 185.042 314.944 191.862 302.804 204.002C290.664 216.142 283.844 232.607 283.844 249.776Z" fill="#399EE2"/>
<path d="M348.577 287.35C333.778 287.349 319.428 282.269 307.925 272.959C296.422 263.648 288.462 250.672 285.377 236.198C284.369 240.656 283.855 245.21 283.844 249.78C283.844 258.281 285.518 266.699 288.771 274.553C292.024 282.407 296.793 289.543 302.804 295.554C308.815 301.565 315.951 306.333 323.805 309.587C331.658 312.84 340.076 314.514 348.577 314.514C357.078 314.514 365.496 312.84 373.349 309.587C381.203 306.333 388.339 301.565 394.35 295.554C400.361 289.543 405.13 282.407 408.383 274.553C411.636 266.699 413.31 258.281 413.31 249.78C413.408 245.222 413.004 240.668 412.105 236.198C409.009 250.727 401.001 263.746 389.43 273.062C377.859 282.379 363.432 287.425 348.577 287.35Z" fill="#2A5FD5"/>
<path d="M283.844 249.776C283.844 266.944 290.664 283.41 302.804 295.55C314.944 307.69 331.409 314.51 348.577 314.51C365.745 314.51 382.211 307.69 394.35 295.55C406.49 283.41 413.31 266.944 413.31 249.776C413.31 232.607 406.49 216.142 394.35 204.002C382.211 191.862 365.745 185.042 348.577 185.042C331.409 185.042 314.944 191.862 302.804 204.002C290.664 216.142 283.844 232.607 283.844 249.776V249.776Z" stroke="#45413C" stroke-width="7" stroke-linecap="round" stroke-linejoin="round"/>
<path d="M331.758 207.389C331.758 209.829 333.535 212.17 336.698 213.895C339.862 215.621 344.152 216.59 348.626 216.59C353.099 216.59 357.39 215.621 360.553 213.895C363.716 212.17 365.494 209.829 365.494 207.389C365.494 204.949 363.716 202.609 360.553 200.883C357.39 199.158 353.099 198.188 348.626 198.188C344.152 198.188 339.862 199.158 336.698 200.883C333.535 202.609 331.758 204.949 331.758 207.389Z" fill="white"/>
</svg>
