<svg width="495" height="495" viewBox="0 0 495 495" fill="none" xmlns="http://www.w3.org/2000/svg">
<path d="M230.553 141.491C230.547 143.369 230.931 145.227 231.678 146.95C232.426 148.672 233.522 150.222 234.897 151.5C236.273 152.779 237.898 153.759 239.67 154.379C241.443 154.999 243.324 155.246 245.197 155.103C257.262 155.103 258.603 141.903 258.603 141.903C260.612 115.447 255.782 88.9194 244.578 64.869C221.478 15.7815 190.334 8.45963 174.556 50.5346C158.778 92.6096 185.384 58.8877 209.618 85.494C222.494 101.39 229.843 121.047 230.553 141.491V141.491Z" fill="#6DD627"/>
<path d="M232.203 88.7943C213.434 49.2974 189.303 37.2318 172.493 56.4131L174.556 50.5349C190.334 8.45993 221.478 15.7818 244.578 64.4568C255.782 88.5072 260.612 115.035 258.603 141.491C258.603 141.491 257.778 153.66 246.64 155.104C246.688 132.216 241.762 109.591 232.203 88.7943V88.7943Z" fill="#9CEB60"/>
<path d="M230.553 141.491C230.547 143.369 230.931 145.227 231.678 146.95C232.426 148.672 233.522 150.222 234.897 151.5C236.273 152.779 237.898 153.759 239.67 154.379C241.443 154.999 243.324 155.246 245.197 155.103C257.262 155.103 258.603 141.903 258.603 141.903C260.612 115.447 255.782 88.9194 244.578 64.869C221.478 15.7815 190.334 8.45963 174.556 50.5346C158.778 92.6096 185.384 58.8877 209.618 85.494C222.494 101.39 229.843 121.047 230.553 141.491V141.491Z" stroke="#45413C" stroke-width="7" stroke-linecap="round" stroke-linejoin="round"/>
<path d="M117.01 119.835C133.741 114.097 151.562 112.257 169.112 114.455C186.663 116.653 203.479 122.832 218.278 132.52C226.868 138.417 237.043 141.574 247.463 141.574C257.882 141.574 268.057 138.417 276.647 132.52C291.446 122.832 308.263 116.653 325.813 114.455C343.364 112.257 361.185 114.097 377.916 119.835C442.781 138.81 472.585 232.448 444.328 328.869C416.072 425.291 340.275 488.094 275.719 469.016C270.575 467.543 265.598 465.539 260.869 463.035C256.752 460.806 252.144 459.638 247.463 459.638C242.781 459.638 238.173 460.806 234.056 463.035C229.327 465.539 224.35 467.543 219.206 469.016C154.65 488.094 78.8533 425.291 50.597 328.869C22.3408 232.448 52.1439 138.81 117.01 119.835Z" fill="#FF6242"/>
<path d="M377.913 165.416C361.161 160.205 343.509 158.532 326.076 160.502C308.644 162.473 291.811 168.044 276.644 176.863C267.836 182.174 257.746 184.982 247.46 184.982C237.174 184.982 227.084 182.174 218.276 176.863C203.109 168.044 186.276 162.473 168.844 160.502C151.411 158.532 133.759 160.205 117.007 165.416C72.8694 177.069 44.8194 220.072 40.5912 273.697C35.2287 199.035 64.7225 135.2 117.007 119.938C133.738 114.199 151.559 112.359 169.11 114.558C186.66 116.756 203.477 122.935 218.276 132.622C226.866 138.519 237.041 141.676 247.46 141.676C257.88 141.676 268.055 138.519 276.644 132.622C291.443 122.935 308.26 116.756 325.81 114.558C343.361 112.359 361.182 114.199 377.913 119.938C430.198 135.2 459.691 199.035 454.329 273.697C449.894 219.969 422.051 176.966 377.913 165.416Z" fill="#FF866E"/>
<path d="M117.01 119.835C133.741 114.097 151.562 112.257 169.112 114.455C186.663 116.653 203.479 122.832 218.278 132.52C226.868 138.417 237.043 141.574 247.463 141.574C257.882 141.574 268.057 138.417 276.647 132.52C291.446 122.832 308.263 116.653 325.813 114.455C343.364 112.257 361.185 114.097 377.916 119.835C442.781 138.81 472.585 232.448 444.328 328.869C416.072 425.291 340.275 488.094 275.719 469.016C270.575 467.543 265.598 465.539 260.869 463.035C256.752 460.806 252.144 459.638 247.463 459.638C242.781 459.638 238.173 460.806 234.056 463.035C229.327 465.539 224.35 467.543 219.206 469.016C154.65 488.094 78.8533 425.291 50.597 328.869C22.3408 232.448 52.1439 138.81 117.01 119.835Z" stroke="#45413C" stroke-width="7" stroke-linecap="round" stroke-linejoin="round"/>
<path d="M258.7 140.253C258.7 140.253 243.437 81.1627 293.659 56.3096C321.915 42.2846 358.834 55.2784 372.343 60.9502C373.869 61.5524 375.121 62.6932 375.863 64.1566C376.604 65.62 376.783 67.3044 376.365 68.8909C372.447 85.1846 357.493 130.766 314.49 133.241C260.865 136.335 258.7 140.253 258.7 140.253Z" fill="#6DD627"/>
<path d="M370.079 87.8667C355.126 81.8854 320.579 70.851 293.664 84.1542C283.933 88.8485 275.543 95.9209 269.27 104.717C262.998 113.514 259.044 123.75 257.776 134.479C255.404 118.907 253.342 76.626 293.87 56.5167C322.126 42.4917 359.045 55.4854 372.554 61.1573C374.08 61.7595 375.332 62.9003 376.074 64.3637C376.815 65.8271 376.994 67.5115 376.576 69.0979C374.943 75.5261 372.77 81.8047 370.079 87.8667V87.8667Z" fill="#9CEB60"/>
<path d="M258.7 140.253C258.7 140.253 243.437 81.1627 293.659 56.3096C321.915 42.2846 358.834 55.2784 372.343 60.9502C373.869 61.5524 375.121 62.6932 375.863 64.1566C376.604 65.62 376.783 67.3044 376.365 68.8909C372.447 85.1846 357.493 130.766 314.49 133.241C260.865 136.335 258.7 140.253 258.7 140.253Z" stroke="#45413C" stroke-width="7" stroke-linecap="round" stroke-linejoin="round"/>
<path d="M258.703 140.254C267.353 116.06 284.859 96.0478 307.688 84.2568Z" fill="#6DD627"/>
<path d="M258.703 140.254C267.353 116.06 284.859 96.0478 307.688 84.2568" stroke="#45413C" stroke-width="7" stroke-linecap="round" stroke-linejoin="round"/>
</svg>
