<svg width="587" height="495" viewBox="0 0 587 495" fill="none" xmlns="http://www.w3.org/2000/svg">
<path d="M30.0859 16H557.284V478.668H30.0859V16Z" fill="white"/>
<path d="M512.034 445.903H75.3418C69.3462 445.947 63.4004 444.945 57.85 442.955C52.2995 440.965 47.2549 438.027 43.0094 434.311C38.7639 430.596 35.4021 426.177 33.1192 421.311C30.8364 416.446 29.6781 411.231 29.7116 405.969V439.064C29.6781 444.326 30.8364 449.541 33.1192 454.406C35.4021 459.272 38.7639 463.691 43.0094 467.406C47.2549 471.122 52.2995 474.06 57.85 476.05C63.4004 478.04 69.3462 479.042 75.3418 478.998H512.034C524.035 478.998 535.546 474.814 544.032 467.366C552.519 459.919 557.287 449.817 557.287 439.284V406.189C557.287 411.405 556.116 416.569 553.842 421.387C551.568 426.206 548.234 430.584 544.032 434.271C539.83 437.959 534.842 440.885 529.351 442.88C523.861 444.876 517.976 445.903 512.034 445.903Z" fill="#F0F0F0"/>
<path d="M30.0859 16H557.284V478.668H30.0859V16Z" stroke="#45413C" stroke-width="7" stroke-linecap="round" stroke-linejoin="round"/>
<path d="M67.793 49.0947H519.695V445.683H67.793V49.0947Z" fill="#80F6FD"/>
<path d="M67.793 49.0947H519.695V445.683H67.793V49.0947Z" stroke="#45413C" stroke-width="7" stroke-linecap="round" stroke-linejoin="round"/>
<path d="M67.418 273.921H519.948V432.336C519.948 434.074 519.558 435.795 518.8 437.402C518.042 439.008 516.931 440.467 515.53 441.696C514.13 442.925 512.467 443.901 510.637 444.566C508.806 445.231 506.845 445.574 504.864 445.574H82.8794C80.867 445.618 78.8649 445.308 76.991 444.662C75.1171 444.017 73.4095 443.049 71.9686 441.815C70.5277 440.582 69.3827 439.107 68.6012 437.479C67.8196 435.851 67.4173 434.102 67.418 432.336V273.921Z" fill="#6DD627"/>
<path d="M504.484 412.81H82.8766C80.8428 412.855 78.8198 412.538 76.929 411.879C75.0383 411.22 73.3191 410.232 71.8747 408.975C70.4303 407.718 69.2906 406.217 68.5242 404.563C67.7578 402.91 67.3806 401.137 67.4151 399.352V432.447C67.3625 434.236 67.7275 436.016 68.4875 437.677C69.2475 439.338 70.3866 440.845 71.8347 442.106C73.2828 443.366 75.0093 444.353 76.9082 445.007C78.8071 445.66 80.8381 445.966 82.8766 445.905H504.484C506.47 445.92 508.439 445.588 510.276 444.927C512.114 444.267 513.784 443.293 515.188 442.061C516.592 440.828 517.702 439.363 518.454 437.75C519.206 436.138 519.585 434.41 519.568 432.667V399.572C519.568 401.311 519.178 403.032 518.42 404.638C517.662 406.244 516.551 407.704 515.15 408.933C513.75 410.162 512.087 411.137 510.257 411.803C508.427 412.468 506.465 412.81 504.484 412.81Z" fill="#46B000"/>
<path d="M410.455 94.1047C424.419 94.0715 437.966 98.2813 448.795 106.019C448.795 106.019 459.707 114.494 464 121.944C469.479 131.453 472.125 138.424 472 149.398C471.901 158.119 465.765 171.326 465.765 171.326C460.989 179.944 453.674 187.283 444.578 192.584C435.481 197.885 424.935 200.954 414.032 201.474C403.129 201.993 392.266 199.944 382.57 195.539C372.873 191.133 364.695 184.532 358.885 176.419C353.074 168.306 349.841 158.977 349.522 149.398C349.203 139.82 351.809 130.341 357.07 121.944C362.331 113.547 370.055 106.538 379.442 101.643C388.829 96.7477 399.537 94.1451 410.455 94.1047Z" fill="#FFE500" stroke="#45413C" stroke-width="7" stroke-linecap="round" stroke-linejoin="round"/>
<path d="M67.418 273.921H519.948V432.336C519.948 434.074 519.558 435.795 518.8 437.402C518.042 439.008 516.931 440.467 515.53 441.696C514.13 442.925 512.467 443.901 510.637 444.566C508.806 445.231 506.845 445.574 504.864 445.574H82.8794C80.867 445.618 78.8649 445.308 76.991 444.662C75.1171 444.017 73.4095 443.049 71.9686 441.815C70.5277 440.582 69.3827 439.107 68.6012 437.479C67.8196 435.851 67.4173 434.102 67.418 432.336V273.921Z" stroke="#45413C" stroke-width="7" stroke-linecap="round" stroke-linejoin="round"/>
<path d="M293.684 228.469L260.75 386.332L366.718 344.742C367.702 344.365 368.581 343.805 369.294 343.1C370.007 342.396 370.538 341.564 370.849 340.661C371.159 339.759 371.243 338.808 371.094 337.875C370.945 336.942 370.567 336.048 369.986 335.255L293.684 228.469Z" fill="#FFAA54" stroke="#45413C" stroke-width="7" stroke-linecap="round" stroke-linejoin="round"/>
<path d="M293.681 228.469L164.835 201.993C163.861 201.799 162.852 201.776 161.868 201.926C160.883 202.077 159.942 202.397 159.1 202.869C158.258 203.341 157.532 203.956 156.962 204.676C156.393 205.397 155.993 206.21 155.784 207.068C153.899 215.452 149.374 232.992 139.317 266.528C131.789 292.613 121.085 317.911 107.389 341.985C106.883 342.855 106.606 343.814 106.58 344.791C106.554 345.767 106.779 346.737 107.237 347.627C107.696 348.517 108.377 349.305 109.231 349.932C110.084 350.56 111.087 351.011 112.166 351.252L260.746 386.332L293.681 228.469Z" fill="#FF8A14"/>
<path d="M284.505 272.487L293.681 228.36L164.962 201.884C163.979 201.673 162.957 201.638 161.958 201.78C160.959 201.922 160.003 202.24 159.147 202.713C158.291 203.187 157.552 203.807 156.974 204.536C156.397 205.266 155.992 206.089 155.785 206.959C154.277 213.688 151.009 226.375 144.598 248.548L284.505 272.487Z" fill="#FFAA54"/>
<path d="M293.681 228.469L164.835 201.993C163.861 201.799 162.852 201.776 161.868 201.926C160.883 202.077 159.942 202.397 159.1 202.869C158.258 203.341 157.532 203.956 156.962 204.676C156.393 205.397 155.993 206.21 155.784 207.068C153.899 215.452 149.374 232.992 139.317 266.528C131.789 292.613 121.085 317.911 107.389 341.985C106.883 342.855 106.606 343.814 106.58 344.791C106.554 345.767 106.779 346.737 107.237 347.627C107.696 348.517 108.377 349.305 109.231 349.932C110.084 350.56 111.087 351.011 112.166 351.252L260.746 386.332L293.681 228.469Z" stroke="#45413C" stroke-width="7" stroke-linecap="round" stroke-linejoin="round"/>
<path d="M293.684 228.469L319.704 363.165" stroke="#45413C" stroke-width="7" stroke-linecap="round" stroke-linejoin="round"/>
</svg>
