<svg width="496" height="496" viewBox="0 0 496 496" fill="none" xmlns="http://www.w3.org/2000/svg">
<path d="M247.998 316.853C280.556 316.853 311.781 329.786 334.803 352.808C357.825 375.83 370.758 407.055 370.758 439.613V459.246H125.238V439.613C125.238 407.055 138.172 375.83 161.194 352.808C184.216 329.786 215.44 316.853 247.998 316.853Z" fill="white"/>
<path d="M247.998 316.853C215.44 316.853 184.216 329.786 161.194 352.808C138.172 375.83 125.238 407.055 125.238 439.613V459.246H126.375C130.403 429.85 144.942 402.907 167.301 383.403C189.661 363.899 218.327 353.153 247.998 353.153C277.669 353.153 306.336 363.899 328.695 383.403C351.055 402.907 365.593 429.85 369.622 459.246H370.758V439.613C370.758 407.055 357.825 375.83 334.803 352.808C311.781 329.786 280.556 316.853 247.998 316.853Z" fill="#F0F0F0"/>
<path d="M247.998 316.853C280.556 316.853 311.781 329.786 334.803 352.808C357.825 375.83 370.758 407.055 370.758 439.613V459.246H125.238V439.613C125.238 407.055 138.172 375.83 161.194 352.808C184.216 329.786 215.44 316.853 247.998 316.853V316.853Z" stroke="#45413C" stroke-width="7" stroke-linecap="round" stroke-linejoin="round"/>
<path d="M199.328 341.963C199.328 351.664 204.456 360.969 213.583 367.829C222.711 374.689 235.09 378.543 247.998 378.543C260.906 378.543 273.286 374.689 282.413 367.829C291.54 360.969 296.668 351.664 296.668 341.963C296.668 332.261 291.54 322.957 282.413 316.097C273.286 309.237 260.906 305.383 247.998 305.383C235.09 305.383 222.711 309.237 213.583 316.097C204.456 322.957 199.328 332.261 199.328 341.963Z" fill="#00DBA8"/>
<path d="M248 305.382C238.597 304.755 229.212 306.847 220.966 311.41C212.721 315.972 205.963 322.812 201.5 331.112C205.938 339.44 212.688 346.309 220.937 350.892C229.187 355.475 238.584 357.577 248 356.946C257.416 357.577 266.813 355.475 275.063 350.892C283.312 346.309 290.062 339.44 294.5 331.112C290.037 322.812 283.279 315.972 275.034 311.41C266.788 306.847 257.403 304.755 248 305.382Z" fill="#00AD85"/>
<path d="M199.328 341.963C199.328 351.664 204.456 360.969 213.583 367.829C222.711 374.689 235.09 378.543 247.998 378.543C260.906 378.543 273.286 374.689 282.413 367.829C291.54 360.969 296.668 351.664 296.668 341.963C296.668 332.261 291.54 322.957 282.413 316.097C273.286 309.237 260.906 305.383 247.998 305.383C235.09 305.383 222.711 309.237 213.583 316.097C204.456 322.957 199.328 332.261 199.328 341.963V341.963Z" stroke="#45413C" stroke-width="7" stroke-linecap="round" stroke-linejoin="round"/>
<path d="M248.001 274.899C244.545 274.899 241.124 275.582 237.933 276.907C234.742 278.233 231.844 280.175 229.405 282.623C226.966 285.072 225.035 287.977 223.722 291.174C222.409 294.37 221.741 297.794 221.754 301.249V330.596C221.754 337.557 224.519 344.233 229.442 349.155C234.364 354.077 241.04 356.843 248.001 356.843C254.962 356.843 261.638 354.077 266.56 349.155C271.482 344.233 274.247 337.557 274.247 330.596V301.249C274.261 297.794 273.592 294.37 272.279 291.174C270.966 287.977 269.035 285.072 266.597 282.623C264.158 280.175 261.26 278.233 258.069 276.907C254.878 275.582 251.456 274.899 248.001 274.899Z" fill="#FFCEBF"/>
<path d="M248.001 274.899C241.04 274.899 234.364 277.665 229.441 282.587C224.519 287.509 221.754 294.185 221.754 301.146V307.346C221.754 314.307 224.519 320.983 229.441 325.905C234.364 330.827 241.04 333.593 248.001 333.593C254.962 333.593 261.638 330.827 266.56 325.905C271.482 320.983 274.247 314.307 274.247 307.346V301.249C274.261 297.794 273.592 294.37 272.279 291.174C270.966 287.977 269.035 285.072 266.596 282.623C264.158 280.175 261.26 278.233 258.069 276.907C254.878 275.582 251.456 274.899 248.001 274.899Z" fill="#FFB59E"/>
<path d="M248.001 274.899C244.545 274.899 241.124 275.582 237.933 276.907C234.742 278.233 231.844 280.175 229.405 282.623C226.966 285.072 225.035 287.977 223.722 291.174C222.409 294.37 221.741 297.794 221.754 301.249V330.596C221.754 337.557 224.519 344.233 229.442 349.155C234.364 354.077 241.04 356.843 248.001 356.843C254.962 356.843 261.638 354.077 266.56 349.155C271.482 344.233 274.247 337.557 274.247 330.596V301.249C274.261 297.794 273.592 294.37 272.279 291.174C270.966 287.977 269.035 285.072 266.597 282.623C264.158 280.175 261.26 278.233 258.069 276.907C254.878 275.582 251.456 274.899 248.001 274.899V274.899Z" stroke="#45413C" stroke-width="7" stroke-linecap="round" stroke-linejoin="round"/>
<path d="M176.285 459.246V434.343" stroke="#45413C" stroke-width="7" stroke-linecap="round" stroke-linejoin="round"/>
<path d="M319.715 459.246V434.239" stroke="#45413C" stroke-width="7" stroke-linecap="round" stroke-linejoin="round"/>
<path d="M269.701 377.405C274.853 384.417 282.085 389.624 290.368 392.285C303.801 396.005 312.481 390.425 318.268 394.042C309.795 370.689 289.748 358.599 276.935 364.489C264.121 370.379 269.701 377.405 269.701 377.405Z" fill="#00DBA8" stroke="#45413C" stroke-width="7" stroke-linecap="round" stroke-linejoin="round"/>
<path d="M258.331 377.819C253.885 387.066 252.474 397.482 254.301 407.579C258.021 423.389 268.458 429.176 268.045 437.133C287.265 415.433 288.711 388.153 275.278 378.233C261.845 368.313 258.331 377.819 258.331 377.819Z" fill="#00DBA8" stroke="#45413C" stroke-width="7" stroke-linecap="round" stroke-linejoin="round"/>
<path d="M248 356.946C251.669 358.79 254.616 361.809 256.37 365.522C257.642 369.499 258.304 373.644 258.333 377.819C261.345 379.149 264.6 379.835 267.892 379.835C271.183 379.835 274.439 379.149 277.45 377.819C279.575 376.459 281.397 374.677 282.804 372.583C284.21 370.489 285.171 368.129 285.627 365.648C286.082 363.167 286.023 360.618 285.451 358.162C284.88 355.705 283.81 353.391 282.307 351.366C275.28 342.272 260.09 340.206 248 356.946Z" fill="#00DBA8" stroke="#45413C" stroke-width="7" stroke-linecap="round" stroke-linejoin="round"/>
<path d="M248.001 65.6494C239.495 65.6574 231.025 66.7336 222.787 68.8527C203.567 73.1927 178.561 80.4261 155.931 76.0861C155.049 81.9146 155.364 87.8617 156.856 93.5646C158.349 99.2674 160.987 104.606 164.611 109.256C152.821 126.249 146.511 146.441 146.527 167.123V220.236H349.474V167.123C349.474 140.21 338.783 114.4 319.753 95.3703C300.723 76.3403 274.913 65.6494 248.001 65.6494Z" fill="#A86C4D" stroke="#45413C" stroke-width="7" stroke-linecap="round" stroke-linejoin="round"/>
<path d="M360.322 212.485C359.82 208.691 358.178 205.138 355.613 202.297C353.049 199.455 349.682 197.459 345.959 196.572L339.862 194.919C335.37 193.65 331.419 190.94 328.619 187.206C325.818 183.471 324.322 178.92 324.362 174.252V153.172C324.351 148.911 322.939 144.771 320.343 141.392C317.748 138.012 314.113 135.579 309.999 134.469C290.294 142.335 269.211 146.165 247.999 145.732C226.787 146.165 205.703 142.335 185.999 134.469C181.866 135.56 178.208 137.985 175.592 141.366C172.977 144.747 171.55 148.897 171.532 153.172V174.459C171.572 179.126 170.076 183.678 167.276 187.412C164.475 191.146 160.524 193.857 156.032 195.125L149.935 196.779C146.212 197.666 142.846 199.662 140.281 202.504C137.716 205.345 136.074 208.898 135.572 212.692C135.296 215.308 135.575 217.953 136.39 220.454C137.206 222.955 138.539 225.255 140.305 227.206C142.07 229.156 144.226 230.712 146.634 231.773C149.041 232.833 151.645 233.373 154.275 233.359H155.412C157.83 256.201 168.616 277.341 185.692 292.705C202.768 308.069 224.925 316.569 247.895 316.569C270.866 316.569 293.023 308.069 310.099 292.705C327.175 277.341 337.961 256.201 340.379 233.359H341.515C344.174 233.391 346.809 232.857 349.245 231.791C351.68 230.725 353.861 229.152 355.64 227.176C357.42 225.201 358.758 222.869 359.566 220.336C360.373 217.802 360.631 215.126 360.322 212.485Z" fill="#FFCEBF" stroke="#45413C" stroke-width="7" stroke-linecap="round" stroke-linejoin="round"/>
<path d="M191.891 210.316C191.891 211.889 192.358 213.428 193.232 214.736C194.107 216.045 195.349 217.065 196.803 217.667C198.257 218.269 199.857 218.427 201.4 218.12C202.944 217.813 204.361 217.055 205.474 215.942C206.587 214.829 207.345 213.411 207.652 211.868C207.959 210.325 207.801 208.725 207.199 207.271C206.597 205.817 205.577 204.574 204.268 203.7C202.96 202.826 201.422 202.359 199.848 202.359C198.799 202.345 197.758 202.542 196.787 202.936C195.815 203.331 194.932 203.917 194.191 204.659C193.449 205.4 192.864 206.283 192.469 207.255C192.074 208.226 191.877 209.267 191.891 210.316Z" fill="#45413C" stroke="#45413C" stroke-width="7" stroke-linecap="round" stroke-linejoin="round"/>
<path d="M304.109 210.316C304.109 211.889 303.642 213.428 302.768 214.736C301.893 216.045 300.651 217.065 299.197 217.667C297.743 218.269 296.143 218.427 294.6 218.12C293.056 217.813 291.639 217.055 290.526 215.942C289.413 214.829 288.655 213.411 288.348 211.868C288.041 210.325 288.199 208.725 288.801 207.271C289.403 205.817 290.423 204.574 291.731 203.7C293.04 202.826 294.578 202.359 296.152 202.359C297.201 202.345 298.242 202.542 299.213 202.936C300.185 203.331 301.068 203.917 301.809 204.659C302.551 205.4 303.136 206.283 303.531 207.255C303.926 208.226 304.123 209.267 304.109 210.316Z" fill="#45413C" stroke="#45413C" stroke-width="7" stroke-linecap="round" stroke-linejoin="round"/>
<path d="M218.654 258.779C218 258.793 217.357 258.948 216.769 259.234C216.18 259.519 215.66 259.928 215.244 260.433C214.812 260.919 214.494 261.497 214.315 262.123C214.137 262.749 214.101 263.408 214.211 264.049C215.606 271.998 219.759 279.2 225.939 284.39C232.119 289.579 239.931 292.424 248.001 292.424C256.071 292.424 263.883 289.579 270.063 284.39C276.243 279.2 280.396 271.998 281.791 264.049C281.901 263.408 281.865 262.749 281.686 262.123C281.508 261.497 281.19 260.919 280.758 260.433C280.342 259.928 279.822 259.519 279.233 259.234C278.645 258.948 278.001 258.793 277.348 258.779H218.654Z" fill="#FF6242"/>
<path d="M248.001 273.245C238.671 272.881 229.493 275.685 221.961 281.202C225.217 284.828 229.2 287.728 233.651 289.714C238.102 291.699 242.921 292.725 247.794 292.725C252.668 292.725 257.487 291.699 261.938 289.714C266.388 287.728 270.371 284.828 273.628 281.202C266.208 275.774 257.19 272.974 248.001 273.245Z" fill="#FFA694"/>
<path d="M218.654 258.779C218 258.793 217.357 258.948 216.769 259.234C216.18 259.519 215.66 259.928 215.244 260.433C214.812 260.919 214.494 261.497 214.315 262.123C214.137 262.749 214.101 263.408 214.211 264.049C215.606 271.998 219.759 279.2 225.939 284.39C232.119 289.579 239.931 292.424 248.001 292.424C256.071 292.424 263.883 289.579 270.063 284.39C276.243 279.2 280.396 271.998 281.791 264.049C281.901 263.408 281.865 262.749 281.686 262.123C281.508 261.497 281.19 260.919 280.758 260.433C280.342 259.928 279.822 259.519 279.233 259.234C278.645 258.948 278.001 258.793 277.348 258.779H218.654Z" stroke="#45413C" stroke-width="7" stroke-linecap="round" stroke-linejoin="round"/>
<path d="M176.285 244.209C176.285 245.853 177.374 247.43 179.312 248.593C181.25 249.756 183.878 250.409 186.618 250.409C189.359 250.409 191.987 249.756 193.925 248.593C195.863 247.43 196.952 245.853 196.952 244.209C196.952 242.564 195.863 240.987 193.925 239.825C191.987 238.662 189.359 238.009 186.618 238.009C183.878 238.009 181.25 238.662 179.312 239.825C177.374 240.987 176.285 242.564 176.285 244.209Z" fill="#FFB59E"/>
<path d="M299.047 244.209C299.047 245.853 300.136 247.43 302.073 248.593C304.011 249.756 306.64 250.409 309.38 250.409C312.121 250.409 314.749 249.756 316.687 248.593C318.625 247.43 319.714 245.853 319.714 244.209C319.714 242.564 318.625 240.987 316.687 239.825C314.749 238.662 312.121 238.009 309.38 238.009C306.64 238.009 304.011 238.662 302.073 239.825C300.136 240.987 299.047 242.564 299.047 244.209Z" fill="#FFB59E"/>
<path d="M141.258 176.732C141.258 165.779 188.998 156.892 248.001 156.892C307.004 156.892 354.744 165.779 354.744 176.732L351.334 137.052C351.334 126.099 305.041 117.315 248.001 117.315C190.961 117.315 144.668 126.099 144.668 137.052L141.258 176.732Z" fill="#8CA4B8"/>
<path d="M248.001 117.315C190.961 117.315 144.668 126.099 144.668 137.052L141.258 176.112C143.014 165.779 190.134 156.892 248.001 156.892H264.638C284.933 148.718 303.748 137.268 320.334 122.999C296.438 118.976 272.233 117.074 248.001 117.315Z" fill="#627B8C"/>
<path d="M141.258 176.732C141.258 165.779 188.998 156.892 248.001 156.892C307.004 156.892 354.744 165.779 354.744 176.732L351.334 137.052C351.334 126.099 305.041 117.315 248.001 117.315C190.961 117.315 144.668 126.099 144.668 137.052L141.258 176.732Z" stroke="#45413C" stroke-width="7" stroke-linecap="round" stroke-linejoin="round"/>
<path d="M364.663 87.2459C342.756 52.1125 287.37 43.0192 248 45.9125C201.82 51.3432 157.716 68.1752 119.66 94.8925C101.68 107.913 95.3762 121.759 100.646 129.923C111.703 150.589 170.396 155.446 260.296 117.419C311.963 118.556 351.333 126.926 351.333 137.053C351.333 137.053 384.09 117.316 364.663 87.2459Z" fill="#8CA4B8"/>
<path d="M104.573 134.883C108.875 129.355 113.957 124.482 119.66 120.416C157.746 93.8086 201.848 77.084 248 71.7459C287.37 68.5425 342.756 77.6359 364.663 112.253C365.964 114.207 367.071 116.283 367.97 118.453C370.245 113.427 371.138 107.886 370.557 102.4C369.975 96.9141 367.941 91.6828 364.663 87.2459C342.756 52.1125 287.37 43.0192 248 45.9125C201.82 51.3432 157.716 68.1752 119.66 94.8925C101.68 107.913 95.3762 121.759 100.646 129.923C101.707 131.758 103.03 133.429 104.573 134.883Z" fill="#ADC4D9"/>
<path d="M364.663 87.2459C342.756 52.1125 287.37 43.0192 248 45.9125C201.82 51.3432 157.716 68.1752 119.66 94.8925C101.68 107.913 95.3762 121.759 100.646 129.923C111.703 150.589 170.396 155.446 260.296 117.419C311.963 118.556 351.333 126.926 351.333 137.053C351.333 137.053 384.09 117.316 364.663 87.2459Z" stroke="#45413C" stroke-width="7" stroke-linecap="round" stroke-linejoin="round"/>
<path d="M260.297 117.419C274.144 111.529 288.817 104.605 304.11 96.752" stroke="#45413C" stroke-width="7" stroke-linecap="round" stroke-linejoin="round"/>
<path d="M230.945 48.2635C231.121 49.7321 231.736 51.1336 232.754 52.3879C233.772 53.6422 235.175 54.7248 236.881 55.5739C238.586 56.4229 240.563 57.0218 242.696 57.3363C244.83 57.6508 247.079 57.6748 249.316 57.4069C251.553 57.139 253.733 56.5845 255.732 55.775C257.731 54.9655 259.51 53.9168 260.967 52.6889C262.424 51.461 263.531 50.0779 264.224 48.6186C264.918 47.1592 265.184 45.6522 265.008 44.1836C264.832 42.715 264.218 41.3135 263.199 40.0592C262.181 38.8049 260.778 37.7223 259.073 36.8732C257.367 36.0242 255.39 35.4253 253.257 35.1108C251.123 34.7962 248.874 34.7722 246.637 35.0401C244.4 35.308 242.22 35.8626 240.221 36.6721C238.222 37.4816 236.443 38.5302 234.986 39.7581C233.529 40.986 232.422 42.3691 231.729 43.8285C231.035 45.2878 230.769 46.7949 230.945 48.2635Z" fill="#627B8C" stroke="#45413C" stroke-width="7" stroke-linecap="round" stroke-linejoin="round"/>
<path d="M363.942 369.044C368.04 370.051 371.571 372.646 373.757 376.256C375.942 379.866 376.604 384.197 375.597 388.296L358.997 455.829C352.769 454.298 347.405 450.356 344.083 444.87C340.762 439.384 339.757 432.803 341.287 426.576L354.04 374.697C354.556 372.594 355.887 370.783 357.739 369.662C359.592 368.541 361.813 368.201 363.916 368.718L363.942 369.044Z" fill="#FFCEBF"/>
<path d="M363.938 369.036C362.866 368.694 361.735 368.58 360.616 368.701C359.497 368.823 358.416 369.178 357.443 369.742C356.47 370.307 355.625 371.069 354.964 371.979C354.303 372.89 353.84 373.929 353.605 375.029L348.852 394.249C349.101 393.157 349.573 392.127 350.237 391.225C350.902 390.323 351.745 389.567 352.714 389.005C353.684 388.443 354.759 388.086 355.872 387.957C356.985 387.828 358.113 387.93 359.185 388.256C361.231 388.74 363.16 389.626 364.859 390.864C366.558 392.102 367.994 393.666 369.081 395.466C370.168 397.265 370.886 399.263 371.192 401.343C371.497 403.423 371.385 405.543 370.862 407.579L375.615 388.359C376.124 386.324 376.226 384.207 375.913 382.132C375.601 380.057 374.882 378.064 373.797 376.268C372.712 374.472 371.282 372.909 369.59 371.668C367.898 370.426 365.977 369.532 363.938 369.036Z" fill="#FFDCD1"/>
<path d="M363.942 369.044C368.04 370.051 371.571 372.646 373.757 376.256C375.942 379.866 376.604 384.197 375.597 388.296L358.997 455.829C352.769 454.298 347.405 450.356 344.083 444.87C340.762 439.384 339.757 432.803 341.287 426.576L354.04 374.697C354.556 372.594 355.887 370.783 357.739 369.662C359.592 368.541 361.813 368.201 363.916 368.718L363.942 369.044Z" stroke="#45413C" stroke-width="7" stroke-linecap="round" stroke-linejoin="round"/>
<path d="M401.968 393.009L382.335 388.049C379.313 387.288 376.114 387.745 373.425 389.321C370.737 390.896 368.775 393.464 367.962 396.472C367.149 399.48 367.55 402.687 369.079 405.402C370.607 408.118 373.141 410.124 376.135 410.989C373.172 410.58 370.164 411.303 367.711 413.015C365.258 414.726 363.54 417.299 362.901 420.221C362.262 423.143 362.748 426.198 364.263 428.778C365.777 431.357 368.208 433.27 371.071 434.136C369.551 433.762 367.973 433.692 366.426 433.929C364.879 434.166 363.394 434.705 362.055 435.516C360.717 436.327 359.551 437.393 358.625 438.655C357.698 439.916 357.029 441.347 356.656 442.867C356.283 444.387 356.213 445.966 356.45 447.512C356.687 449.059 357.226 450.545 358.037 451.883C358.847 453.222 359.914 454.387 361.175 455.314C362.437 456.24 363.868 456.909 365.388 457.282L385.331 462.139C391.155 463.575 397.31 462.64 402.445 459.539C407.579 456.439 411.273 451.428 412.715 445.606L418.915 420.392C420.35 414.569 419.415 408.413 416.315 403.279C413.215 398.144 408.203 394.45 402.381 393.009H401.968Z" fill="#FFCEBF"/>
<path d="M401.968 393.009L382.335 388.049C380.815 387.68 379.237 387.614 377.692 387.856C376.146 388.098 374.664 388.642 373.329 389.458C371.995 390.274 370.835 391.346 369.915 392.611C368.996 393.876 368.335 395.311 367.971 396.832C367.4 398.824 367.4 400.937 367.971 402.929C369.391 401.432 371.176 400.33 373.151 399.732C375.126 399.134 377.223 399.061 379.235 399.519L399.281 404.479C402.16 405.181 404.872 406.444 407.262 408.196C409.652 409.948 411.673 412.154 413.208 414.688C414.744 417.223 415.765 420.035 416.212 422.964C416.66 425.893 416.524 428.882 415.815 431.759L418.605 420.392C419.314 417.502 419.446 414.5 418.994 411.558C418.541 408.616 417.512 405.793 415.967 403.249C414.422 400.706 412.39 398.492 409.988 396.735C407.586 394.978 404.86 393.711 401.968 393.009Z" fill="#FFDCD1"/>
<path d="M401.968 393.009L382.335 388.049C379.313 387.288 376.114 387.745 373.425 389.321C370.737 390.896 368.775 393.464 367.962 396.472C367.149 399.48 367.55 402.687 369.079 405.402C370.607 408.118 373.141 410.124 376.135 410.989C373.172 410.58 370.164 411.303 367.711 413.015C365.258 414.726 363.54 417.299 362.901 420.221C362.262 423.143 362.748 426.198 364.263 428.778C365.777 431.357 368.208 433.27 371.071 434.136C369.551 433.762 367.973 433.692 366.426 433.929C364.879 434.166 363.394 434.705 362.055 435.516C360.717 436.327 359.551 437.393 358.625 438.655C357.698 439.916 357.029 441.347 356.656 442.867C356.283 444.387 356.213 445.966 356.45 447.512C356.687 449.059 357.226 450.545 358.037 451.883C358.847 453.222 359.914 454.387 361.175 455.314C362.437 456.24 363.868 456.909 365.388 457.282L385.331 462.139C391.155 463.575 397.31 462.64 402.445 459.539C407.579 456.439 411.273 451.428 412.715 445.606L418.915 420.392C420.35 414.569 419.415 408.413 416.315 403.279C413.215 398.144 408.203 394.45 402.381 393.009H401.968Z" stroke="#45413C" stroke-width="7" stroke-linecap="round" stroke-linejoin="round"/>
</svg>
