<svg width="537" height="495" viewBox="0 0 537 495" fill="none" xmlns="http://www.w3.org/2000/svg">
<path d="M205.594 317.122C205.594 333.949 200.181 350.398 190.039 364.389C179.897 378.38 165.482 389.285 148.617 395.724C131.752 402.163 113.195 403.848 95.2907 400.565C77.3869 397.283 60.9411 389.18 48.0332 377.281C35.1252 365.383 26.3348 350.224 22.7735 333.72C19.2122 317.216 21.04 300.11 28.0257 284.564C35.0115 269.018 46.8414 255.731 62.0195 246.382C77.1977 237.034 95.0423 232.044 113.297 232.044C125.418 232.044 137.419 234.245 148.617 238.52C159.815 242.796 169.99 249.063 178.561 256.963C187.131 264.863 193.93 274.242 198.568 284.564C203.206 294.886 205.594 305.949 205.594 317.122V317.122Z" fill="#656769"/>
<path d="M113.297 256.381C135.472 256.416 156.894 263.799 173.654 277.184C190.413 290.569 201.392 309.063 204.587 329.291C205.205 325.259 205.541 321.194 205.594 317.122C205.594 294.558 195.87 272.918 178.561 256.963C161.252 241.008 137.776 232.044 113.297 232.044C88.8182 232.044 65.3421 241.008 48.0331 256.963C30.7241 272.918 21 294.558 21 317.122C21.0529 321.194 21.3892 325.259 22.0069 329.291C25.2016 309.063 36.1806 290.569 52.9401 277.184C69.6996 263.799 91.1218 256.416 113.297 256.381V256.381Z" fill="#87898C"/>
<path d="M205.594 317.122C205.594 333.949 200.181 350.398 190.039 364.389C179.897 378.38 165.482 389.285 148.617 395.724C131.752 402.163 113.195 403.848 95.2907 400.565C77.3869 397.283 60.9411 389.18 48.0332 377.281C35.1252 365.383 26.3348 350.224 22.7735 333.72C19.2122 317.216 21.04 300.11 28.0257 284.564C35.0115 269.018 46.8414 255.731 62.0195 246.382C77.1977 237.034 95.0423 232.044 113.297 232.044C125.418 232.044 137.419 234.245 148.617 238.52C159.815 242.796 169.99 249.063 178.561 256.963C187.131 264.863 193.93 274.242 198.568 284.564C203.206 294.886 205.594 305.949 205.594 317.122V317.122Z" stroke="#45413C" stroke-width="7" stroke-linecap="round" stroke-linejoin="round"/>
<path d="M516.047 317.122C516.047 333.949 510.634 350.398 500.492 364.389C490.35 378.38 475.936 389.285 459.071 395.724C442.205 402.163 423.648 403.848 405.744 400.565C387.84 397.283 371.394 389.18 358.486 377.281C345.578 365.383 336.788 350.224 333.227 333.72C329.665 317.216 331.493 300.11 338.479 284.564C345.465 269.018 357.295 255.731 372.473 246.382C387.651 237.034 405.495 232.044 423.75 232.044C448.229 232.044 471.705 241.008 489.014 256.963C506.323 272.918 516.047 294.558 516.047 317.122V317.122Z" fill="#656769"/>
<path d="M423.75 256.381C445.925 256.416 467.347 263.799 484.107 277.184C500.866 290.569 511.845 309.063 515.04 329.291C515.658 325.259 515.994 321.194 516.047 317.122C516.047 294.558 506.323 272.918 489.014 256.963C471.705 241.008 448.229 232.044 423.75 232.044C399.271 232.044 375.795 241.008 358.486 256.963C341.177 272.918 331.453 294.558 331.453 317.122C331.506 321.194 331.842 325.259 332.46 329.291C335.655 309.063 346.634 290.569 363.393 277.184C380.153 263.799 401.575 256.416 423.75 256.381V256.381Z" fill="#87898C"/>
<path d="M516.047 317.122C516.047 333.949 510.634 350.398 500.492 364.389C490.35 378.38 475.936 389.285 459.071 395.724C442.205 402.163 423.648 403.848 405.744 400.565C387.84 397.283 371.394 389.18 358.486 377.281C345.578 365.383 336.788 350.224 333.227 333.72C329.665 317.216 331.493 300.11 338.479 284.564C345.465 269.018 357.295 255.731 372.473 246.382C387.651 237.034 405.495 232.044 423.75 232.044C448.229 232.044 471.705 241.008 489.014 256.963C506.323 272.918 516.047 294.558 516.047 317.122V317.122Z" stroke="#45413C" stroke-width="7" stroke-linecap="round" stroke-linejoin="round"/>
<path d="M483.045 316.606C483.045 327.416 479.567 337.984 473.052 346.972C466.536 355.96 457.276 362.965 446.442 367.102C435.607 371.239 423.685 372.321 412.183 370.213C400.681 368.104 390.116 362.898 381.824 355.254C373.531 347.61 367.884 337.872 365.596 327.269C363.309 316.667 364.483 305.678 368.971 295.69C373.458 285.703 381.058 277.167 390.809 271.161C400.56 265.156 412.024 261.95 423.751 261.95C439.476 261.95 454.558 267.709 465.678 277.959C476.798 288.209 483.045 302.111 483.045 316.606V316.606Z" fill="#E8F4FA"/>
<path d="M423.751 286.185C437.179 286.225 450.196 290.457 460.679 298.192C471.163 305.926 478.494 316.707 481.478 328.775C482.515 324.789 483.041 320.705 483.045 316.606C483.045 302.111 476.798 288.209 465.678 277.959C454.558 267.709 439.476 261.95 423.751 261.95C408.025 261.95 392.944 267.709 381.824 277.959C370.704 288.209 364.457 302.111 364.457 316.606C364.461 320.705 364.987 324.789 366.023 328.775C369.007 316.707 376.339 305.926 386.822 298.192C397.306 290.457 410.323 286.225 423.751 286.185V286.185Z" fill="#C0DCEB"/>
<path d="M483.045 316.606C483.045 327.416 479.567 337.984 473.052 346.972C466.536 355.96 457.276 362.965 446.442 367.102C435.607 371.239 423.685 372.321 412.183 370.213C400.681 368.104 390.116 362.898 381.824 355.254C373.531 347.61 367.884 337.872 365.596 327.269C363.309 316.667 364.483 305.678 368.971 295.69C373.458 285.703 381.058 277.167 390.809 271.161C400.56 265.156 412.024 261.95 423.751 261.95C439.476 261.95 454.558 267.709 465.678 277.959C476.798 288.209 483.045 302.111 483.045 316.606V316.606Z" stroke="#45413C" stroke-width="7" stroke-linecap="round" stroke-linejoin="round"/>
<path d="M364.457 317.122H483.045" stroke="#45413C" stroke-width="7" stroke-linecap="round" stroke-linejoin="round"/>
<path d="M394.328 364.044L453.622 269.375" stroke="#45413C" stroke-width="7" stroke-linecap="round" stroke-linejoin="round"/>
<path d="M453.173 364.044L393.879 269.375" stroke="#45413C" stroke-width="7" stroke-linecap="round" stroke-linejoin="round"/>
<path d="M172.814 317.122C172.814 327.932 169.337 338.499 162.821 347.487C156.306 356.476 147.046 363.481 136.211 367.618C125.377 371.755 113.455 372.837 101.953 370.728C90.4508 368.619 79.8857 363.414 71.5933 355.77C63.3009 348.126 57.6538 338.387 55.3659 327.785C53.078 317.183 54.2523 306.193 58.7401 296.206C63.2279 286.219 70.8277 277.683 80.5785 271.677C90.3293 265.671 101.793 262.466 113.52 262.466C121.307 262.466 129.017 263.88 136.211 266.626C143.405 269.373 149.941 273.399 155.447 278.474C160.953 283.55 165.321 289.575 168.301 296.206C171.28 302.837 172.814 309.944 172.814 317.122V317.122Z" fill="#E8F4FA"/>
<path d="M113.52 286.185C126.998 286.212 140.065 290.463 150.576 298.24C161.086 306.017 168.415 316.858 171.36 328.981C172.304 325.088 172.792 321.112 172.814 317.122C172.814 302.626 166.567 288.724 155.447 278.474C144.328 268.224 129.246 262.466 113.52 262.466C97.7946 262.466 82.713 268.224 71.5933 278.474C60.4736 288.724 54.2266 302.626 54.2266 317.122C54.2491 321.112 54.7367 325.088 55.6809 328.981C58.6252 316.858 65.9544 306.017 76.4649 298.24C86.9754 290.463 100.043 286.212 113.52 286.185V286.185Z" fill="#C0DCEB"/>
<path d="M172.814 317.122C172.814 327.932 169.337 338.499 162.821 347.487C156.306 356.476 147.046 363.481 136.211 367.618C125.377 371.755 113.455 372.837 101.953 370.728C90.4508 368.619 79.8857 363.414 71.5933 355.77C63.3009 348.126 57.6538 338.387 55.3659 327.785C53.078 317.183 54.2523 306.193 58.7401 296.206C63.2279 286.219 70.8277 277.683 80.5785 271.677C90.3293 265.671 101.793 262.466 113.52 262.466C121.307 262.466 129.017 263.88 136.211 266.626C143.405 269.373 149.941 273.399 155.447 278.474C160.953 283.55 165.321 289.575 168.301 296.206C171.28 302.837 172.814 309.944 172.814 317.122V317.122Z" stroke="#45413C" stroke-width="7" stroke-linecap="round" stroke-linejoin="round"/>
<path d="M343.422 143.666V165.734H181.315C181.315 162.744 181.986 159.856 182.098 156.866L185.231 109.016C185.338 107.358 185.075 105.698 184.46 104.137C183.844 102.576 182.889 101.148 181.652 99.9405C180.416 98.7329 178.924 97.7714 177.269 97.1153C175.614 96.4591 173.831 96.1221 172.029 96.125H96.5137C93.0126 96.125 89.6548 97.4071 87.1791 99.6892C84.7033 101.971 83.3125 105.066 83.3125 108.294C83.3125 111.521 84.7033 114.616 87.1791 116.898C89.6548 119.18 93.0126 120.463 96.5137 120.463H150.885C151.795 120.461 152.697 120.631 153.534 120.961C154.371 121.291 155.126 121.775 155.754 122.383C156.382 122.991 156.869 123.71 157.186 124.496C157.503 125.283 157.643 126.121 157.598 126.959L155.808 155.525C152.244 210.628 133.742 264.026 101.996 310.831C100.837 312.182 100.003 313.745 99.5487 315.415C99.094 317.085 99.0292 318.825 99.3584 320.521C99.6876 322.216 100.403 323.827 101.458 325.248C102.513 326.669 103.884 327.868 105.478 328.765C107.073 329.662 108.856 330.236 110.71 330.45C112.564 330.665 114.446 330.514 116.231 330.008C118.017 329.502 119.666 328.653 121.069 327.516C122.472 326.379 123.597 324.98 124.371 323.413C146.853 290.013 163.219 253.43 172.813 215.131C173.101 214.071 173.699 213.103 174.541 212.334C175.384 211.565 176.439 211.024 177.593 210.768C178.746 210.513 179.953 210.554 181.082 210.887C182.212 211.22 183.221 211.832 184 212.656L278.534 324.547C279.784 325.994 281.364 327.169 283.162 327.989C284.961 328.809 286.933 329.253 288.939 329.291H423.748C425.95 329.294 428.118 328.79 430.055 327.823C431.992 326.857 433.635 325.46 434.836 323.758C436.037 322.057 436.757 320.105 436.931 318.081C437.105 316.058 436.726 314.026 435.831 312.172L369.824 175.325V143.666H343.422ZM332.234 198.631L286.366 293.609L207.27 199.869C206.516 198.967 206.052 197.887 205.931 196.754C205.809 195.621 206.035 194.479 206.583 193.458C207.131 192.437 207.979 191.579 209.03 190.98C210.081 190.382 211.293 190.067 212.528 190.072H326.193C327.294 190.07 328.378 190.322 329.347 190.805C330.315 191.289 331.137 191.987 331.737 192.838C332.338 193.689 332.698 194.665 332.785 195.676C332.871 196.688 332.682 197.704 332.234 198.631V198.631ZM309.859 304.953L356.623 207.913L403.387 304.953H309.859Z" fill="#6DD627" stroke="#45413C" stroke-width="7" stroke-linecap="round" stroke-linejoin="round"/>
<path d="M323.063 316.606C323.063 322.725 321.094 328.707 317.406 333.794C313.718 338.882 308.477 342.847 302.344 345.189C296.211 347.531 289.463 348.143 282.952 346.949C276.442 345.756 270.462 342.809 265.768 338.483C261.074 334.156 257.877 328.643 256.582 322.642C255.287 316.641 255.952 310.42 258.492 304.767C261.033 299.114 265.334 294.282 270.854 290.883C276.373 287.483 282.862 285.669 289.5 285.669C298.401 285.669 306.938 288.928 313.232 294.73C319.526 300.532 323.063 308.401 323.063 316.606Z" fill="#DAEDF7"/>
<path d="M289.5 304.953C296.558 304.98 303.428 307.057 309.132 310.889C314.836 314.722 319.084 320.114 321.273 326.3C322.383 323.168 322.986 319.901 323.062 316.606C323.062 308.401 319.526 300.532 313.232 294.73C306.938 288.928 298.401 285.669 289.5 285.669C280.599 285.669 272.062 288.928 265.768 294.73C259.474 300.532 255.938 308.401 255.938 316.606C256.014 319.901 256.617 323.168 257.727 326.3C259.916 320.114 264.164 314.722 269.868 310.889C275.572 307.057 282.442 304.98 289.5 304.953V304.953Z" fill="#E8F4FA"/>
<path d="M255.938 316.606C255.938 324.812 259.474 332.681 265.768 338.483C272.062 344.284 280.599 347.544 289.5 347.544C298.401 347.544 306.938 344.284 313.232 338.483C319.526 332.681 323.062 324.812 323.062 316.606C323.062 308.401 319.526 300.532 313.232 294.73C306.938 288.928 298.401 285.669 289.5 285.669C280.599 285.669 272.062 288.928 265.768 294.73C259.474 300.532 255.938 308.401 255.938 316.606V316.606Z" stroke="#45413C" stroke-width="7" stroke-linecap="round" stroke-linejoin="round"/>
<path d="M297.218 143.666H402.828C426.77 143.666 428.112 101.075 402.828 101.075C377.545 101.075 342.304 114.791 317.02 113.45C270.592 110.46 281.556 143.666 297.218 143.666Z" fill="#DEBB7E"/>
<path d="M317.023 127.681C342.307 128.403 377.547 121.185 402.831 121.185C406.235 120.741 409.705 121.216 412.822 122.552C415.94 123.888 418.57 126.028 420.396 128.713C423.528 116.441 418.046 101.075 402.831 101.075C377.547 101.075 342.307 114.791 317.023 113.244C287.488 111.491 281.223 124.175 284.467 133.869C287.152 130.053 296.326 126.96 317.023 127.681Z" fill="#F0D5A8"/>
<path d="M402.828 143.666C404.3 143.66 405.765 143.487 407.191 143.15C405.756 143.437 404.296 143.609 402.828 143.666V143.666Z" fill="#F0D5A8"/>
<path d="M297.218 143.666H402.828C426.77 143.666 428.112 101.075 402.828 101.075C377.545 101.075 342.304 114.791 317.02 113.45C270.592 110.46 281.556 143.666 297.218 143.666Z" stroke="#45413C" stroke-width="7"/>
<path d="M106.922 92H82.9807C71.0987 92.0911 59.5663 95.717 50.1004 102.338C40.6345 108.959 33.7413 118.22 30.4471 128.744C27.1529 139.268 27.6337 150.491 31.8181 160.742C36.0025 170.994 43.6666 179.725 53.6695 185.638L62.9551 191C64.9017 192.097 67.0637 192.83 69.3176 193.157C71.5714 193.483 73.8731 193.398 76.091 192.904C78.309 192.411 80.3998 191.52 82.2442 190.282C84.0886 189.044 85.6504 187.483 86.8404 185.689C88.0304 183.895 88.8254 181.902 89.1799 179.824C89.5344 177.747 89.4414 175.625 88.9064 173.581C88.3714 171.536 87.4048 169.609 86.0617 167.909C84.7187 166.208 83.0255 164.769 81.0788 163.672L70.8982 158.103C66.9675 155.875 63.9353 152.524 62.264 148.559C60.5928 144.595 60.3743 140.235 61.642 136.145C62.9096 132.056 65.5937 128.46 69.2849 125.908C72.976 123.356 77.4716 121.987 82.0857 122.009H106.922C110.423 122.009 113.781 120.727 116.257 118.445C118.732 116.163 120.123 113.068 120.123 109.841V104.169C120.123 100.941 118.732 97.8462 116.257 95.5641C113.781 93.2821 110.423 92 106.922 92V92Z" fill="#DEBB7E"/>
<path d="M106.918 92H82.9772C68.3197 92 54.2625 97.3673 43.8981 106.921C33.5336 116.475 27.7109 129.433 27.7109 142.944C27.7315 145.987 28.0309 149.022 28.6059 152.019C31.0515 140.388 37.8181 129.907 47.7416 122.378C57.6651 114.849 70.1249 110.744 82.9772 110.769H106.918C109.196 110.798 111.427 111.374 113.389 112.441C115.351 113.509 116.977 115.029 118.106 116.853C119.282 115.009 119.9 112.908 119.896 110.769V104.169C119.896 100.977 118.536 97.9125 116.109 95.6362C113.681 93.36 110.381 92.0541 106.918 92V92Z" fill="#F0D5A8"/>
<path d="M106.922 92H82.9807C71.0987 92.0911 59.5663 95.717 50.1004 102.338C40.6345 108.959 33.7413 118.22 30.4471 128.744C27.1529 139.268 27.6337 150.491 31.8181 160.742C36.0025 170.994 43.6666 179.725 53.6695 185.638L62.9551 191C64.9017 192.097 67.0637 192.83 69.3176 193.157C71.5714 193.483 73.8731 193.398 76.091 192.904C78.309 192.411 80.3998 191.52 82.2442 190.282C84.0886 189.044 85.6504 187.483 86.8404 185.689C88.0304 183.895 88.8254 181.902 89.1799 179.824C89.5344 177.747 89.4414 175.625 88.9064 173.581C88.3714 171.536 87.4048 169.609 86.0617 167.909C84.7187 166.208 83.0255 164.769 81.0788 163.672L70.8982 158.103C66.9675 155.875 63.9353 152.524 62.264 148.559C60.5928 144.595 60.3743 140.235 61.642 136.145C62.9096 132.056 65.5937 128.46 69.2849 125.908C72.976 123.356 77.4716 121.987 82.0857 122.009H106.922C110.423 122.009 113.781 120.727 116.257 118.445C118.732 116.163 120.123 113.068 120.123 109.841V104.169C120.123 100.941 118.732 97.8462 116.257 95.5641C113.781 93.2821 110.423 92 106.922 92V92Z" stroke="#45413C" stroke-width="7" stroke-linecap="round" stroke-linejoin="round"/>
</svg>
