<svg width="497" height="497" viewBox="0 0 497 497" fill="none" xmlns="http://www.w3.org/2000/svg">
<path d="M167.806 262.828L303.951 222.629C305.873 222.062 307.943 222.281 309.704 223.239C311.465 224.197 312.773 225.815 313.34 227.738L365.766 405.293C366.297 407.092 366.469 408.979 366.271 410.845C366.073 412.711 365.51 414.519 364.613 416.168C363.717 417.816 362.504 419.271 361.045 420.451C359.585 421.631 357.908 422.511 356.108 423.043L232.873 459.43C231.073 459.961 229.187 460.133 227.321 459.935C225.455 459.737 223.646 459.174 221.998 458.277C220.349 457.38 218.894 456.168 217.714 454.708C216.535 453.249 215.654 451.572 215.123 449.772L162.668 272.118C162.1 270.196 162.319 268.126 163.278 266.365C164.236 264.605 165.854 263.296 167.777 262.729L167.806 262.828Z" fill="#87898C"/>
<path d="M365.674 405.336L313.282 227.762C312.728 225.843 311.437 224.221 309.691 223.251C307.944 222.281 305.885 222.041 303.963 222.585L279.941 229.729L338.546 428.219L356.045 423.042C357.844 422.519 359.523 421.645 360.983 420.47C362.442 419.295 363.655 417.843 364.551 416.196C365.446 414.55 366.006 412.743 366.199 410.879C366.392 409.015 366.213 407.131 365.674 405.336Z" fill="#BDBEC0"/>
<path d="M167.806 262.828L303.951 222.629C305.873 222.062 307.943 222.281 309.704 223.239C311.465 224.197 312.773 225.815 313.34 227.738L365.766 405.293C366.297 407.092 366.469 408.979 366.271 410.845C366.073 412.711 365.51 414.519 364.613 416.168C363.717 417.816 362.504 419.271 361.045 420.451C359.585 421.631 357.908 422.511 356.108 423.043L232.873 459.43C231.073 459.961 229.187 460.133 227.321 459.935C225.455 459.737 223.646 459.174 221.998 458.277C220.349 457.38 218.894 456.168 217.714 454.708C216.535 453.249 215.654 451.572 215.123 449.772L162.668 272.118C162.1 270.196 162.319 268.126 163.278 266.365C164.236 264.605 165.854 263.296 167.777 262.729L167.806 262.828Z" stroke="#45413C" stroke-width="7" stroke-linecap="round" stroke-linejoin="round"/>
<path d="M304.276 222.482L167.393 262.967L164.701 232.526C164.541 230.886 164.961 229.242 165.888 227.88C166.815 226.517 168.191 225.523 169.775 225.071L281.807 191.937C283.382 191.485 285.065 191.588 286.573 192.229C288.081 192.87 289.323 194.01 290.09 195.458L304.276 222.482Z" fill="#DAEDF7"/>
<path d="M251.262 201.049L265.55 234.079L304.482 222.482L290.09 195.975C289.322 194.528 288.08 193.388 286.572 192.747C285.064 192.106 283.382 192.003 281.806 192.455L251.262 201.463V201.049Z" fill="#E8F4FA"/>
<path d="M304.276 222.482L167.393 262.967L164.701 232.526C164.541 230.886 164.961 229.242 165.888 227.88C166.815 226.517 168.191 225.523 169.775 225.071L281.807 191.937C283.382 191.485 285.065 191.588 286.573 192.229C288.081 192.87 289.323 194.01 290.09 195.458L304.276 222.482Z" stroke="#45413C" stroke-width="7" stroke-linecap="round" stroke-linejoin="round"/>
<path d="M273.73 194.318L177.85 222.689L127.529 52.2593C126.812 49.6879 126.824 46.9676 127.564 44.4027C128.304 41.8377 129.743 39.5291 131.72 37.735C133.696 35.9409 136.133 34.7319 138.758 34.2432C141.382 33.7545 144.091 34.0054 146.581 34.9678L218.025 63.4418C224.034 65.8507 229.42 69.5895 233.777 74.3775C238.135 79.1656 241.351 84.8785 243.185 91.0874L273.73 194.318Z" fill="#FF0099"/>
<path d="M133.328 71.7251L195.453 96.4716C201.462 98.8805 206.847 102.619 211.205 107.407C215.563 112.195 218.779 117.908 220.613 124.117L243.91 202.912L273.627 194.111L243.082 90.5697C241.191 84.4663 237.96 78.8628 233.624 74.1691C229.289 69.4754 223.959 65.8102 218.025 63.4418L146.581 34.9678C144.091 34.0054 141.382 33.7545 138.758 34.2432C136.133 34.7319 133.696 35.9409 131.72 37.735C129.743 39.5291 128.304 41.8377 127.564 44.4027C126.824 46.9676 126.812 49.6879 127.529 52.2593L133.328 71.7251Z" fill="#FF74C8"/>
<path d="M273.73 194.318L177.85 222.689L127.529 52.2593C126.812 49.6879 126.824 46.9676 127.564 44.4027C128.304 41.8377 129.743 39.5291 131.72 37.735C133.696 35.9409 136.133 34.7319 138.758 34.2432C141.382 33.7545 144.091 34.0054 146.581 34.9678L218.025 63.4418C224.034 65.8507 229.42 69.5895 233.777 74.3775C238.135 79.1656 241.351 84.8785 243.185 91.0874L273.73 194.318Z" stroke="#45413C" stroke-width="7" stroke-linecap="round" stroke-linejoin="round"/>
<path d="M192.938 374.438L343.481 329.988L353.597 364.248L203.053 408.698L192.938 374.438Z" fill="#FF0099"/>
<path d="M353.561 364.334L322.395 373.445L312.352 339.277L343.518 330.062L353.561 364.334Z" fill="#FF74C8"/>
<path d="M192.938 374.438L343.481 329.988L353.597 364.248L203.053 408.698L192.938 374.438Z" stroke="#45413C" stroke-width="7" stroke-linecap="round" stroke-linejoin="round"/>
</svg>
