<svg width="495" height="495" viewBox="0 0 495 495" fill="none" xmlns="http://www.w3.org/2000/svg">
<path d="M191.679 460.556L33.6918 302.671C32.7175 301.898 31.9629 300.883 31.5034 299.727C31.0438 298.571 30.8953 297.315 31.0727 296.083C31.2501 294.852 31.7471 293.689 32.5143 292.71C33.2815 291.731 34.2919 290.97 35.4449 290.503L45.1387 286.378C47.7916 285.553 50.6326 285.553 53.2856 286.378L131.97 302.568L191.989 362.587L208.386 441.065C208.926 443.828 208.676 446.688 207.664 449.315L203.745 458.906C203.283 460.053 202.526 461.057 201.55 461.816C200.575 462.576 199.416 463.065 198.191 463.232C196.966 463.4 195.718 463.24 194.575 462.77C193.431 462.3 192.432 461.536 191.679 460.556Z" fill="#FF383C"/>
<path d="M159.195 355.885L171.054 341.963L131.97 302.569L53.2856 286.378C50.5597 285.785 47.7177 286.037 45.1387 287.1L35.4449 290.916C34.2919 291.383 33.2815 292.144 32.5143 293.123C31.7471 294.102 31.2501 295.265 31.0727 296.497C30.8953 297.728 31.0438 298.984 31.5034 300.14C31.9629 301.296 32.7175 302.311 33.6918 303.085L44.0043 313.397H45.2418C47.8208 312.334 50.6628 312.082 53.3887 312.675L131.97 328.35L159.195 355.885Z" fill="#D91A1E"/>
<path d="M191.68 362.587L186.421 357.328L122.277 391.359L155.277 424.256C160.342 424.282 165.381 423.552 170.23 422.091C181.547 418.474 192.054 412.696 201.168 405.075L191.68 362.587Z" fill="#D91A1E"/>
<path d="M191.679 460.556L33.6918 302.671C32.7175 301.898 31.9629 300.883 31.5034 299.727C31.0438 298.571 30.8953 297.315 31.0727 296.083C31.2501 294.852 31.7471 293.689 32.5143 292.71C33.2815 291.731 34.2919 290.97 35.4449 290.503L45.1387 286.378C47.7916 285.553 50.6326 285.553 53.2856 286.378L131.97 302.568L191.989 362.587L208.386 441.065C208.926 443.828 208.676 446.688 207.664 449.315L203.745 458.906C203.283 460.053 202.526 461.057 201.55 461.816C200.575 462.576 199.416 463.065 198.191 463.232C196.966 463.4 195.718 463.24 194.575 462.77C193.431 462.3 192.432 461.536 191.679 460.556Z" stroke="#45413C" stroke-width="6" stroke-linecap="round" stroke-linejoin="round"/>
<path d="M424.295 274.304L444.712 294.721C447.42 297.429 448.941 301.101 448.941 304.93C448.941 308.759 447.42 312.431 444.712 315.139L388.491 371.361L347.655 330.525L403.877 274.304C405.218 272.963 406.809 271.899 408.561 271.174C410.313 270.448 412.19 270.075 414.086 270.075C415.982 270.075 417.859 270.448 419.611 271.174C421.363 271.899 422.954 272.963 424.295 274.304Z" fill="#C0DCEB" stroke="#45413C" stroke-width="6" stroke-linecap="round" stroke-linejoin="round"/>
<path d="M199.482 49.6385L219.9 70.0562C222.608 72.7638 224.129 76.436 224.129 80.2651C224.129 84.0942 222.608 87.7664 219.9 90.474L163.751 146.623L122.916 105.787L179.065 49.6385C181.772 46.931 185.444 45.4099 189.273 45.4099C193.102 45.4099 196.775 46.931 199.482 49.6385Z" fill="#C0DCEB" stroke="#45413C" stroke-width="6" stroke-linecap="round" stroke-linejoin="round"/>
<path d="M398.548 418.275L301.611 294.525L199.517 192.328L75.7673 95.3907C73.7742 93.8279 72.2273 91.7683 71.2819 89.4187C70.3364 87.069 70.0258 84.512 70.381 82.0043C70.7363 79.4966 71.745 77.1265 73.3058 75.1319C74.8667 73.1373 76.9248 71.5884 79.2735 70.6407L98.9704 62.8032C104.263 60.6362 110.091 60.1326 115.677 61.3595L276.345 95.7001L398.755 218.316L432.683 378.263C433.745 383.874 433.172 389.673 431.033 394.969L423.092 414.666C422.139 416.978 420.601 419.002 418.629 420.541C416.658 422.08 414.32 423.081 411.846 423.445C409.372 423.809 406.845 423.523 404.514 422.617C402.183 421.711 400.127 420.215 398.548 418.275Z" fill="#4ACFFF"/>
<path d="M389.473 209.034L398.754 218.212L410.407 273.178L330.795 331.856L301.713 294.834L294.082 287.306L389.473 209.034Z" fill="#00B8F0"/>
<path d="M282.634 102.093L263.659 124.884L116.19 93.9463C110.57 92.7112 104.707 93.2147 99.3805 95.3901L83.3962 101.784L76.1774 96.1119C74.1843 94.5492 72.6374 92.4895 71.692 90.1399C70.7466 87.7902 70.4359 85.2332 70.7912 82.7255C71.1464 80.2178 72.1551 77.8477 73.716 75.8531C75.2768 73.8585 77.3349 72.3097 79.6837 71.3619L99.3805 63.4213C104.732 61.3482 110.564 60.8473 116.19 61.9776L276.343 95.5963L282.634 102.093Z" fill="#80DDFF"/>
<path d="M398.548 418.275L301.611 294.525L199.517 192.328L75.7673 95.3907C73.7742 93.8279 72.2273 91.7683 71.2819 89.4187C70.3364 87.069 70.0258 84.512 70.381 82.0043C70.7363 79.4966 71.745 77.1265 73.3058 75.1319C74.8667 73.1373 76.9248 71.5884 79.2735 70.6407L98.9704 62.8032C104.263 60.6362 110.091 60.1326 115.677 61.3595L276.345 95.7001L398.755 218.316L432.683 378.263C433.745 383.874 433.172 389.673 431.033 394.969L423.092 414.666C422.139 416.978 420.601 419.002 418.629 420.541C416.658 422.08 414.32 423.081 411.846 423.445C409.372 423.809 406.845 423.523 404.514 422.617C402.183 421.711 400.127 420.215 398.548 418.275Z" stroke="#45413C" stroke-width="6" stroke-linecap="round" stroke-linejoin="round"/>
<path d="M101.032 358.565L288.101 133.546C292.694 128.036 297.921 123.086 303.673 118.8C349.46 79.1996 418.554 51.2527 449.801 82.4996C455.173 87.9941 459.043 94.7765 461.041 102.196C465.785 79.0965 463.413 58.059 449.801 44.4465C418.863 13.509 349.46 41.2496 303.673 80.8496C297.898 85.07 292.668 89.9886 288.101 95.4933L101.032 320.821C94.6916 328.22 90.4485 337.182 88.7437 346.776C87.039 356.369 87.9349 366.244 91.3383 375.375C93.6073 369.269 96.884 363.587 101.032 358.565Z" fill="white"/>
<path d="M413.499 190.678C453.099 144.89 481.149 75.7967 449.799 44.4467C418.449 13.0967 349.459 41.2498 303.671 80.8498C297.897 85.0703 292.666 89.9889 288.099 95.4936L101.031 320.822C92.3215 330.672 87.6093 343.422 87.8192 356.568C88.0291 369.715 93.1459 382.308 102.165 391.875C111.73 400.886 124.312 406.007 137.452 406.236C150.592 406.465 163.345 401.785 173.218 393.112L398.856 206.147C404.332 201.588 409.247 196.395 413.499 190.678Z" fill="#E8F4FA"/>
<path d="M413.499 190.678C453.099 144.89 481.149 75.7967 449.799 44.4467C418.449 13.0967 349.459 41.2498 303.671 80.8498C297.897 85.0703 292.666 89.9889 288.099 95.4936L101.031 320.822C92.3215 330.672 87.6093 343.422 87.8192 356.568C88.0291 369.715 93.1459 382.308 102.165 391.875C111.73 400.886 124.312 406.007 137.452 406.236C150.592 406.465 163.345 401.785 173.218 393.112L398.856 206.147C404.332 201.588 409.247 196.395 413.499 190.678Z" stroke="#45413C" stroke-width="6" stroke-linecap="round" stroke-linejoin="round"/>
<path d="M408.655 85.5934C400.023 77.1853 389.527 70.9347 378.022 67.3506C366.517 63.7665 354.329 62.9503 342.448 64.9684L338.942 95.9059C338.798 97.0238 338.917 98.1601 339.291 99.2235C339.665 100.287 340.282 101.248 341.094 102.03C341.906 102.812 342.89 103.393 343.967 103.726C345.044 104.06 346.184 104.136 347.295 103.95C357.608 102.197 374.417 102.3 383.08 110.962C391.742 119.625 391.948 136.847 390.092 146.85C389.906 147.961 389.982 149.101 390.316 150.178C390.649 151.255 391.23 152.239 392.012 153.051C392.794 153.863 393.755 154.48 394.818 154.854C395.882 155.228 397.018 155.347 398.136 155.203L429.074 151.697C431.06 139.849 430.248 127.701 426.702 116.224C423.157 104.746 416.977 94.2567 408.655 85.5934Z" fill="#00B8F0"/>
<path d="M342.448 64.7623L338.942 95.6998C338.798 96.8177 338.917 97.954 339.291 99.0174C339.665 100.081 340.282 101.042 341.094 101.824C341.906 102.606 342.89 103.187 343.967 103.52C345.044 103.853 346.184 103.93 347.295 103.744C353.192 102.775 359.193 102.601 365.136 103.228L407.623 84.1498C398.976 76.1334 388.6 70.2151 377.298 66.8531C365.996 63.4911 354.071 62.7757 342.448 64.7623Z" fill="#4ACFFF"/>
<path d="M408.655 85.5934C400.023 77.1853 389.527 70.9347 378.022 67.3506C366.517 63.7665 354.329 62.9503 342.448 64.9684L338.942 95.9059C338.798 97.0238 338.917 98.1601 339.291 99.2235C339.665 100.287 340.282 101.248 341.094 102.03C341.906 102.812 342.89 103.393 343.967 103.726C345.044 104.06 346.184 104.136 347.295 103.95C357.608 102.197 374.417 102.3 383.08 110.962C391.742 119.625 391.948 136.847 390.092 146.85C389.906 147.961 389.982 149.101 390.316 150.178C390.649 151.255 391.23 152.239 392.012 153.051C392.794 153.863 393.755 154.48 394.818 154.854C395.882 155.228 397.018 155.347 398.136 155.203L429.074 151.697C431.06 139.849 430.248 127.701 426.702 116.224C423.157 104.746 416.977 94.2567 408.655 85.5934V85.5934Z" stroke="#45413C" stroke-width="6" stroke-linecap="round" stroke-linejoin="round"/>
<path d="M413.5 190.678C425.322 175.448 431.328 156.502 430.439 137.243C429.551 117.984 421.827 99.6713 408.653 85.5939C394.6 72.4047 376.293 64.677 357.04 63.807C337.787 62.937 318.857 68.9821 303.672 80.8501" stroke="#45413C" stroke-width="6" stroke-linecap="round" stroke-linejoin="round"/>
<path d="M102.372 391.875C101.012 390.524 99.9334 388.917 99.1972 387.147C98.461 385.377 98.082 383.479 98.082 381.563C98.082 379.646 98.461 377.748 99.1972 375.978C99.9334 374.208 101.012 372.601 102.372 371.25L158.575 315.047C159.929 313.693 161.537 312.618 163.306 311.886C165.076 311.153 166.972 310.775 168.887 310.775C170.803 310.775 172.699 311.153 174.468 311.886C176.238 312.618 177.846 313.693 179.2 315.047C180.554 316.401 181.628 318.009 182.361 319.778C183.094 321.548 183.471 323.444 183.471 325.359C183.471 327.275 183.094 329.171 182.361 330.941C181.628 332.71 180.554 334.318 179.2 335.672L122.997 391.875C121.645 393.235 120.039 394.313 118.269 395.05C116.499 395.786 114.601 396.165 112.684 396.165C110.767 396.165 108.869 395.786 107.1 395.05C105.33 394.313 103.723 393.235 102.372 391.875Z" fill="#FF383C" stroke="#45413C" stroke-width="6" stroke-linecap="round" stroke-linejoin="round"/>
</svg>
