<svg width="474" height="496" viewBox="0 0 474 496" fill="none" xmlns="http://www.w3.org/2000/svg">
<path d="M50.9084 68.6424C42.0494 68.6225 33.22 69.668 24.6094 71.7566V359.719C69.317 363.932 114.38 357.31 156.001 340.411C158.355 339.459 160.371 337.824 161.792 335.716C163.212 333.607 163.972 331.121 163.973 328.577V181.481C163.96 166.623 161.022 151.914 155.329 138.196C149.636 124.478 141.299 112.021 130.796 101.539C120.293 91.0566 107.83 82.7552 94.1212 77.1103C80.4127 71.4653 65.728 68.5877 50.9084 68.6424Z" fill="#724F3D"/>
<path d="M50.9084 68.6424C42.0494 68.6225 33.22 69.668 24.6094 71.7566V104.975C33.2115 102.817 42.041 101.701 50.9084 101.653C65.7454 101.598 80.4471 104.483 94.1691 110.141C107.891 115.799 120.363 124.119 130.869 134.623C141.375 145.127 149.708 157.608 155.389 171.35C161.07 185.092 163.987 199.824 163.973 214.7V181.481C163.96 166.623 161.022 151.914 155.329 138.196C149.636 124.478 141.299 112.021 130.796 101.539C120.293 91.0566 107.83 82.7552 94.1213 77.1103C80.4127 71.4653 65.728 68.5877 50.9084 68.6424Z" fill="#A86C4D"/>
<path d="M50.9084 68.6424C42.0494 68.6225 33.22 69.668 24.6094 71.7566V359.719C69.317 363.932 114.38 357.31 156.001 340.411C158.355 339.459 160.371 337.824 161.792 335.716C163.212 333.607 163.972 331.121 163.973 328.577V181.481C163.96 166.623 161.022 151.914 155.329 138.196C149.636 124.478 141.299 112.021 130.796 101.539C120.293 91.0566 107.83 82.7552 94.1212 77.1103C80.4127 71.4653 65.728 68.5877 50.9084 68.6424V68.6424Z" stroke="#45413C" stroke-width="7" stroke-linecap="round" stroke-linejoin="round"/>
<path d="M50.9825 327.123C42.2757 327.167 33.5985 328.142 25.0977 330.029V470.17H174.401V450.446C174.402 434.216 171.206 418.146 164.999 403.156C158.791 388.167 149.694 374.553 138.228 363.096C126.762 351.639 113.153 342.564 98.1816 336.391C83.2101 330.218 67.1705 327.068 50.9825 327.123Z" fill="#FF87AF"/>
<path d="M50.9825 327.123C42.2757 327.167 33.5985 328.142 25.0977 330.029V363.871C41.9008 360.138 59.2991 359.987 76.1638 363.43C93.0286 366.873 108.983 373.831 122.993 383.854C137.002 393.877 148.754 406.741 157.486 421.611C166.217 436.481 171.733 453.025 173.677 470.17H174.401V450.446C174.402 434.216 171.206 418.146 164.999 403.156C158.791 388.167 149.694 374.553 138.228 363.096C126.762 351.639 113.153 342.564 98.1816 336.391C83.2101 330.218 67.1705 327.068 50.9825 327.123Z" fill="#FF6196"/>
<path d="M50.9825 327.123C42.2757 327.167 33.5985 328.142 25.0977 330.029V470.17H174.401V450.446C174.402 434.216 171.206 418.146 164.999 403.156C158.791 388.167 149.694 374.553 138.228 363.096C126.762 351.639 113.153 342.564 98.1816 336.391C83.2101 330.218 67.1705 327.068 50.9825 327.123V327.123Z" stroke="#45413C" stroke-width="7" stroke-linecap="round" stroke-linejoin="round"/>
<path d="M25.0977 285.081H77.7992V367.504H25.0977V285.081Z" fill="#FFE500"/>
<path d="M50.9825 285.079C44.0796 285.188 37.4963 288.014 32.6535 292.947C27.8107 297.88 25.0968 304.525 25.0977 311.447V317.675C25.518 324.396 28.4772 330.703 33.3727 335.313C38.2682 339.923 44.7321 342.489 51.4484 342.489C58.1647 342.489 64.6286 339.923 69.5241 335.313C74.4196 330.703 77.3788 324.396 77.7992 317.675V311.55C77.7996 308.039 77.1032 304.563 75.7505 301.324C74.3979 298.085 72.416 295.148 69.9202 292.684C67.4245 290.221 64.4648 288.28 61.2135 286.974C57.9623 285.668 54.4844 285.024 50.9825 285.079Z" fill="#EBCB00"/>
<path d="M25.0977 285.081H77.7992V367.504H25.0977V285.081Z" stroke="#45413C" stroke-width="7" stroke-linecap="round" stroke-linejoin="round"/>
<path d="M145.307 205.459C132.267 201.772 120.221 195.193 110.059 186.209C99.8974 177.224 91.8801 166.065 86.6 153.555L80.0771 138.088C65.4203 157.516 46.6414 173.436 25.0977 184.698V318.921C33.5004 321.426 42.2161 322.719 50.9825 322.762C73.528 322.86 95.3549 314.815 112.467 300.098C129.58 285.381 140.834 264.978 144.168 242.622H145.307C150.277 242.622 155.044 240.643 158.559 237.119C162.073 233.595 164.048 228.816 164.048 223.833C164.048 218.85 162.073 214.071 158.559 210.547C155.044 207.023 150.277 205.044 145.307 205.044V205.459Z" fill="#FFE500" stroke="#45413C" stroke-width="7" stroke-linecap="round" stroke-linejoin="round"/>
<path d="M107.691 220.095C107.691 221.676 107.224 223.221 106.348 224.536C105.472 225.85 104.226 226.875 102.77 227.479C101.313 228.084 99.7098 228.243 98.1633 227.934C96.6167 227.626 95.1962 226.865 94.0812 225.747C92.9662 224.629 92.2069 223.205 91.8993 221.654C91.5917 220.104 91.7495 218.496 92.353 217.036C92.9564 215.575 93.9783 214.327 95.2893 213.449C96.6004 212.57 98.1418 212.102 99.7186 212.102C101.833 212.102 103.861 212.944 105.356 214.443C106.851 215.942 107.691 217.975 107.691 220.095Z" fill="#45413C" stroke="#45413C" stroke-width="7" stroke-linecap="round" stroke-linejoin="round"/>
<path d="M123.137 470.169V445.151" stroke="#45413C" stroke-width="7" stroke-linecap="round" stroke-linejoin="round"/>
<path d="M102.426 254.145C102.426 255.797 103.517 257.382 105.458 258.55C107.4 259.718 110.034 260.374 112.78 260.374C115.526 260.374 118.159 259.718 120.101 258.55C122.043 257.382 123.134 255.797 123.134 254.145C123.134 252.494 122.043 250.909 120.101 249.741C118.159 248.573 115.526 247.917 112.78 247.917C110.034 247.917 107.4 248.573 105.458 249.741C103.517 250.909 102.426 252.494 102.426 254.145Z" fill="#FFAA54"/>
<path d="M84.3222 270.447C83.885 269.937 83.3455 269.526 82.7389 269.24C82.1322 268.954 81.4722 268.799 80.8018 268.786H25.0977V290.69C29.3489 295.702 34.939 299.395 41.2109 301.333C47.4829 303.27 54.1762 303.373 60.5044 301.629C66.8326 299.885 72.5328 296.366 76.9353 291.486C81.3378 286.606 84.2597 280.568 85.3576 274.08C85.4469 273.436 85.4009 272.78 85.2226 272.154C85.0443 271.528 84.7376 270.947 84.3222 270.447Z" fill="#FF6242"/>
<path d="M50.8531 283.734C41.9814 283.707 33.4449 287.13 27.0391 293.284C33.4829 299.41 42.0248 302.825 50.9049 302.825C59.785 302.825 68.3269 299.41 74.7707 293.284C68.3331 287.115 59.7586 283.691 50.8531 283.734Z" fill="#FFA694"/>
<path d="M84.3222 270.447C83.885 269.937 83.3455 269.526 82.7389 269.24C82.1322 268.954 81.4722 268.799 80.8018 268.786H25.0977V290.69C29.3489 295.702 34.939 299.395 41.2109 301.333C47.4829 303.27 54.1762 303.373 60.5044 301.629C66.8326 299.885 72.5328 296.366 76.9353 291.486C81.3378 286.606 84.2597 280.568 85.3576 274.08C85.4469 273.436 85.4009 272.78 85.2226 272.154C85.0443 271.528 84.7376 270.947 84.3222 270.447V270.447Z" stroke="#45413C" stroke-width="7" stroke-linecap="round" stroke-linejoin="round"/>
<path d="M423.702 68.6424C432.561 68.6225 441.39 69.668 450.001 71.7566V359.719C405.293 363.932 360.23 357.31 318.609 340.411C316.256 339.459 314.239 337.824 312.819 335.716C311.398 333.607 310.638 331.121 310.637 328.577V181.481C310.65 166.623 313.588 151.914 319.281 138.196C324.974 124.478 333.311 112.021 343.814 101.539C354.317 91.0566 366.78 82.7552 380.489 77.1103C394.197 71.4653 408.882 68.5877 423.702 68.6424Z" fill="#724F3D"/>
<path d="M423.702 68.6424C432.561 68.6225 441.39 69.668 450.001 71.7566V104.975C441.399 102.817 432.569 101.701 423.702 101.653C408.865 101.598 394.163 104.483 380.441 110.141C366.719 115.799 354.247 124.119 343.741 134.623C333.235 145.127 324.902 157.608 319.221 171.35C313.54 185.092 310.623 199.824 310.637 214.7V181.481C310.65 166.623 313.588 151.914 319.281 138.196C324.974 124.478 333.311 112.021 343.814 101.539C354.318 91.0566 366.78 82.7552 380.489 77.1103C394.197 71.4653 408.882 68.5877 423.702 68.6424Z" fill="#A86C4D"/>
<path d="M423.702 68.6424C432.561 68.6225 441.39 69.668 450.001 71.7566V359.719C405.293 363.932 360.23 357.31 318.609 340.411C316.256 339.459 314.239 337.824 312.819 335.716C311.398 333.607 310.638 331.121 310.637 328.577V181.481C310.65 166.623 313.588 151.914 319.281 138.196C324.974 124.478 333.311 112.021 343.814 101.539C354.317 91.0566 366.78 82.7552 380.489 77.1103C394.197 71.4653 408.882 68.5877 423.702 68.6424V68.6424Z" stroke="#45413C" stroke-width="7" stroke-linecap="round" stroke-linejoin="round"/>
<path d="M423.7 327.123C432.407 327.167 441.084 328.142 449.585 330.029V470.17H300.281V450.446C300.281 434.216 303.476 418.146 309.684 403.156C315.891 388.167 324.989 374.553 336.455 363.096C347.921 351.639 361.53 342.564 376.501 336.391C391.473 330.218 407.512 327.068 423.7 327.123Z" fill="#87BBFF"/>
<path d="M423.7 327.123C432.407 327.167 441.084 328.142 449.585 330.029V363.871C432.782 360.138 415.384 359.987 398.519 363.43C381.654 366.873 365.699 373.831 351.69 383.854C337.68 393.877 325.929 406.741 317.197 421.611C308.466 436.481 302.949 453.025 301.006 470.17H300.281V450.446C300.281 434.216 303.476 418.146 309.684 403.156C315.891 388.167 324.989 374.553 336.455 363.096C347.921 351.639 361.53 342.564 376.501 336.391C391.473 330.218 407.512 327.068 423.7 327.123Z" fill="#6DACFF"/>
<path d="M423.7 327.123C432.407 327.167 441.084 328.142 449.585 330.029V470.17H300.281V450.446C300.281 434.216 303.476 418.146 309.684 403.156C315.891 388.167 324.989 374.553 336.455 363.096C347.921 351.639 361.53 342.564 376.501 336.391C391.473 330.218 407.512 327.068 423.7 327.123Z" stroke="#45413C" stroke-width="7" stroke-linecap="round" stroke-linejoin="round"/>
<path d="M449.605 367.505H396.904V285.082H449.605V367.505Z" fill="#FFE500"/>
<path d="M423.594 285.081C430.569 285.081 437.258 287.859 442.19 292.804C447.122 297.749 449.893 304.455 449.893 311.448V317.677C449.473 324.397 446.513 330.704 441.618 335.314C436.722 339.924 430.258 342.491 423.542 342.491C416.826 342.491 410.362 339.924 405.466 335.314C400.571 330.704 397.612 324.397 397.191 317.677V311.552C397.191 304.531 399.973 297.798 404.925 292.834C409.876 287.87 416.592 285.081 423.594 285.081Z" fill="#EBCB00"/>
<path d="M449.605 367.505H396.904V285.082H449.605V367.505Z" stroke="#45413C" stroke-width="7" stroke-linecap="round" stroke-linejoin="round"/>
<path d="M329.377 205.459C342.417 201.772 354.463 195.193 364.625 186.209C374.787 177.224 382.804 166.065 388.084 153.555L394.607 138.088C409.264 157.516 428.043 173.436 449.587 184.698V318.921C441.184 321.426 432.468 322.719 423.702 322.762C401.156 322.86 379.329 314.815 362.217 300.098C345.104 285.381 333.851 264.978 330.516 242.622H329.377C324.407 242.622 319.64 240.643 316.126 237.119C312.611 233.595 310.637 228.816 310.637 223.833C310.637 218.85 312.611 214.071 316.126 210.547C319.64 207.023 324.407 205.044 329.377 205.044V205.459Z" fill="#FFE500" stroke="#45413C" stroke-width="7" stroke-linecap="round" stroke-linejoin="round"/>
<path d="M366.938 220.095C366.938 221.676 367.405 223.221 368.281 224.536C369.157 225.85 370.402 226.875 371.859 227.479C373.316 228.084 374.919 228.243 376.465 227.934C378.012 227.626 379.432 226.865 380.547 225.747C381.662 224.629 382.422 223.205 382.729 221.654C383.037 220.104 382.879 218.496 382.276 217.036C381.672 215.575 380.65 214.327 379.339 213.449C378.028 212.57 376.487 212.102 374.91 212.102C373.863 212.102 372.826 212.308 371.859 212.71C370.892 213.112 370.013 213.7 369.273 214.443C368.532 215.185 367.945 216.066 367.544 217.036C367.144 218.006 366.937 219.045 366.938 220.095Z" fill="#45413C" stroke="#45413C" stroke-width="7" stroke-linecap="round" stroke-linejoin="round"/>
<path d="M351.406 470.169V445.151" stroke="#45413C" stroke-width="7" stroke-linecap="round" stroke-linejoin="round"/>
<path d="M351.406 254.145C351.406 255.797 352.497 257.382 354.439 258.55C356.381 259.718 359.014 260.374 361.76 260.374C364.506 260.374 367.14 259.718 369.082 258.55C371.023 257.382 372.114 255.797 372.114 254.145C372.114 252.494 371.023 250.909 369.082 249.741C367.14 248.573 364.506 247.917 361.76 247.917C359.014 247.917 356.381 248.573 354.439 249.741C352.497 250.909 351.406 252.494 351.406 254.145Z" fill="#FFAA54"/>
<path d="M390.345 270.447C390.782 269.937 391.322 269.526 391.929 269.24C392.535 268.954 393.195 268.799 393.866 268.786H449.57V290.69C445.319 295.702 439.729 299.395 433.457 301.333C427.185 303.27 420.491 303.373 414.163 301.629C407.835 299.885 402.135 296.366 397.732 291.486C393.33 286.606 390.408 280.568 389.31 274.08C389.221 273.436 389.267 272.78 389.445 272.154C389.623 271.528 389.93 270.947 390.345 270.447Z" fill="#FF6242"/>
<path d="M423.691 283.734C432.563 283.707 441.099 287.13 447.505 293.284C441.061 299.41 432.519 302.825 423.639 302.825C414.759 302.825 406.217 299.41 399.773 293.284C406.211 287.115 414.786 283.691 423.691 283.734Z" fill="#FFA694"/>
<path d="M390.345 270.447C390.782 269.937 391.322 269.526 391.929 269.24C392.535 268.954 393.195 268.799 393.866 268.786H449.57V290.69C445.319 295.702 439.729 299.395 433.457 301.333C427.185 303.27 420.491 303.373 414.163 301.629C407.835 299.885 402.135 296.366 397.732 291.486C393.33 286.606 390.408 280.568 389.31 274.08C389.221 273.436 389.267 272.78 389.445 272.154C389.623 271.528 389.93 270.947 390.345 270.447Z" stroke="#45413C" stroke-width="7" stroke-linecap="round" stroke-linejoin="round"/>
<path d="M332.2 36.0467C321.261 27.6546 307.516 23.8131 293.825 25.3211C280.133 26.8292 267.548 33.5707 258.687 44.1437L237.358 67.9156L216.029 44.1437C207.168 33.5707 194.583 26.8292 180.891 25.3211C167.199 23.8131 153.455 27.6546 142.516 36.0467C134.177 42.5719 127.482 50.9679 122.968 60.5594C118.454 70.151 116.248 80.6705 116.527 91.2723C116.389 103.229 118.707 115.087 123.339 126.106C127.97 137.125 134.815 147.07 143.448 155.322L237.358 241.793L331.268 155.01C339.862 146.795 346.685 136.9 351.315 125.938C355.945 114.975 358.284 103.177 358.188 91.2723C358.467 80.6705 356.262 70.151 351.748 60.5594C347.234 50.9679 340.539 42.5719 332.2 36.0467Z" fill="#6DACFF"/>
<path d="M142.516 97.1894C153.455 88.7972 167.199 84.9557 180.891 86.4638C194.583 87.9719 207.168 94.7134 216.029 105.286L228.453 119.093C229.579 120.34 230.954 121.337 232.487 122.019C234.021 122.701 235.68 123.053 237.358 123.053C239.036 123.053 240.695 122.701 242.229 122.019C243.762 121.337 245.136 120.34 246.262 119.093L258.687 105.286C267.548 94.7134 280.133 87.9719 293.825 86.4638C307.516 84.9557 321.261 88.7972 332.2 97.1894C341.32 103.8 348.477 112.77 352.908 123.141C356.517 112.911 358.304 102.123 358.188 91.2723C358.419 80.7226 356.189 70.2647 351.677 60.7311C347.165 51.1976 340.496 42.8518 332.2 36.3581C321.261 27.966 307.516 24.1245 293.825 25.6325C280.133 27.1406 267.548 33.8821 258.687 44.4551L237.358 67.9156L216.029 44.1437C207.168 33.5707 194.583 26.8292 180.891 25.3211C167.199 23.8131 153.455 27.6546 142.516 36.0467C134.177 42.5719 127.482 50.9679 122.968 60.5594C118.454 70.151 116.248 80.6705 116.527 91.2723C116.541 102.259 118.504 113.156 122.326 123.453C126.565 113.03 133.542 103.954 142.516 97.1894Z" fill="#87BBFF"/>
<path d="M332.2 36.0467C321.261 27.6546 307.516 23.8131 293.825 25.3211C280.133 26.8292 267.548 33.5707 258.687 44.1437L237.358 67.9156L216.029 44.1437C207.168 33.5707 194.583 26.8292 180.891 25.3211C167.199 23.8131 153.455 27.6546 142.516 36.0467C134.177 42.5719 127.482 50.9679 122.968 60.5594C118.454 70.151 116.248 80.6705 116.527 91.2723C116.389 103.229 118.707 115.087 123.339 126.106C127.97 137.125 134.815 147.07 143.448 155.322L237.358 241.793L331.268 155.01C339.862 146.795 346.685 136.9 351.315 125.938C355.945 114.975 358.284 103.177 358.188 91.2723C358.467 80.6705 356.262 70.151 351.748 60.5594C347.234 50.9679 340.539 42.5719 332.2 36.0467V36.0467Z" stroke="#45413C" stroke-width="7" stroke-linecap="round" stroke-linejoin="round"/>
</svg>
