<svg width="496" height="496" viewBox="0 0 496 496" fill="none" xmlns="http://www.w3.org/2000/svg">
<path d="M18 273.09C18 293.892 22.0974 314.491 30.0582 333.711C38.0191 352.93 49.6875 370.393 64.3972 385.103C79.1069 399.812 96.5699 411.481 115.789 419.441C135.008 427.402 155.607 431.5 176.41 431.5C197.213 431.5 217.812 427.402 237.031 419.441C256.25 411.481 273.713 399.812 288.423 385.103C303.133 370.393 314.801 352.93 322.762 333.711C330.723 314.491 334.82 293.892 334.82 273.09C334.82 252.287 330.723 231.688 322.762 212.469C314.801 193.25 303.133 175.787 288.423 161.077C273.713 146.367 256.25 134.699 237.031 126.738C217.812 118.777 197.213 114.68 176.41 114.68C155.607 114.68 135.008 118.777 115.789 126.738C96.5699 134.699 79.1069 146.367 64.3972 161.077C49.6875 175.787 38.0191 193.25 30.0582 212.469C22.0974 231.688 18 252.287 18 273.09Z" fill="#FFE500"/>
<path d="M176.41 114.68C145.08 114.68 114.453 123.97 88.4022 141.377C62.3518 158.783 42.048 183.523 30.0583 212.469C18.0686 241.414 14.9316 273.265 21.0439 303.994C27.1562 334.722 42.2432 362.948 64.3973 385.103C86.5513 407.257 114.777 422.344 145.506 428.456C176.234 434.568 208.085 431.431 237.031 419.441C265.977 407.452 290.717 387.148 308.123 361.098C325.53 335.047 334.82 304.42 334.82 273.09C334.82 231.077 318.131 190.785 288.423 161.077C258.715 131.369 218.423 114.68 176.41 114.68ZM176.41 407.733C147.798 407.733 119.828 399.249 96.0376 383.352C72.2473 367.456 53.705 344.862 42.7555 318.428C31.806 291.994 28.9411 262.906 34.5231 234.843C40.1051 206.781 53.8833 181.004 74.1153 160.772C94.3473 140.54 120.124 126.761 148.187 121.179C176.25 115.597 205.337 118.462 231.772 129.412C258.206 140.361 280.8 158.904 296.696 182.694C312.592 206.484 321.077 234.454 321.077 263.066C321.077 301.434 305.835 338.231 278.705 365.361C251.575 392.491 214.778 407.733 176.41 407.733Z" fill="#EBCB00"/>
<path d="M128.875 146.403C128.875 149.555 133.883 152.577 142.797 154.806C151.711 157.034 163.802 158.286 176.408 158.286C189.015 158.286 201.105 157.034 210.019 154.806C218.934 152.577 223.942 149.555 223.942 146.403C223.942 143.251 218.934 140.229 210.019 138C201.105 135.772 189.015 134.52 176.408 134.52C163.802 134.52 151.711 135.772 142.797 138C133.883 140.229 128.875 143.251 128.875 146.403Z" fill="#FFF48C"/>
<path d="M18 273.09C18 293.892 22.0974 314.491 30.0582 333.711C38.0191 352.93 49.6875 370.393 64.3972 385.103C79.1069 399.812 96.5699 411.481 115.789 419.441C135.008 427.402 155.607 431.5 176.41 431.5C197.213 431.5 217.812 427.402 237.031 419.441C256.25 411.481 273.713 399.812 288.423 385.103C303.133 370.393 314.801 352.93 322.762 333.711C330.723 314.491 334.82 293.892 334.82 273.09C334.82 252.287 330.723 231.688 322.762 212.469C314.801 193.25 303.133 175.787 288.423 161.077C273.713 146.367 256.25 134.699 237.031 126.738C217.812 118.777 197.213 114.68 176.41 114.68C155.607 114.68 135.008 118.777 115.789 126.738C96.5699 134.699 79.1069 146.367 64.3972 161.077C49.6875 175.787 38.0191 193.25 30.0582 212.469C22.0974 231.688 18 252.287 18 273.09V273.09Z" stroke="#45413C" stroke-width="7" stroke-linecap="round" stroke-linejoin="round"/>
<path d="M176.412 322.69C178.511 321.497 180.856 320.8 183.266 320.653C185.676 320.507 188.088 320.914 190.316 321.844C192.544 322.774 194.53 324.202 196.12 326.019C197.711 327.835 198.865 329.992 199.492 332.324C200.12 334.655 200.205 337.1 199.742 339.47C199.278 341.839 198.278 344.071 196.818 345.994C195.358 347.917 193.477 349.481 191.319 350.564C189.161 351.647 186.783 352.222 184.369 352.243C188.354 352.565 192.073 354.376 194.784 357.315C197.495 360.254 199.001 364.106 199.001 368.105C199.001 372.104 197.495 375.956 194.784 378.895C192.073 381.834 188.354 383.645 184.369 383.967C181.539 383.959 178.76 383.211 176.309 381.797" stroke="#45413C" stroke-width="7" stroke-linecap="round" stroke-linejoin="round"/>
<path d="M61.6055 312.667C61.6055 319.28 70.3888 324.55 81.3421 324.55C92.2955 324.55 101.182 319.28 101.182 312.667C101.182 306.053 92.2955 300.783 81.3421 300.783C70.3888 300.783 61.6055 305.847 61.6055 312.667Z" fill="#FFAA54"/>
<path d="M291.213 312.667C291.213 319.28 282.327 324.55 271.477 324.55C260.627 324.55 251.637 319.28 251.637 312.667C251.637 306.053 260.833 300.783 271.167 300.783C281.5 300.783 291.213 305.847 291.213 312.667Z" fill="#FFAA54"/>
<path d="M101.183 269.164C101.183 270.737 100.716 272.276 99.8419 273.584C98.9676 274.893 97.725 275.912 96.2711 276.515C94.8172 277.117 93.2174 277.274 91.6739 276.967C90.1305 276.66 88.7127 275.903 87.6 274.79C86.4872 273.677 85.7294 272.259 85.4224 270.716C85.1154 269.173 85.273 267.573 85.8752 266.119C86.4774 264.665 87.4972 263.422 88.8057 262.548C90.1142 261.674 91.6525 261.207 93.2262 261.207C95.3364 261.207 97.3602 262.045 98.8524 263.537C100.345 265.03 101.183 267.053 101.183 269.164Z" fill="#45413C" stroke="#45413C" stroke-width="7" stroke-linecap="round" stroke-linejoin="round"/>
<path d="M251.637 269.163C251.637 270.737 252.104 272.275 252.978 273.584C253.853 274.892 255.095 275.912 256.549 276.514C258.003 277.117 259.603 277.274 261.146 276.967C262.69 276.66 264.108 275.902 265.22 274.79C266.333 273.677 267.091 272.259 267.398 270.716C267.705 269.172 267.547 267.572 266.945 266.119C266.343 264.665 265.323 263.422 264.015 262.548C262.706 261.673 261.168 261.207 259.594 261.207C258.545 261.193 257.504 261.389 256.533 261.784C255.561 262.179 254.679 262.765 253.937 263.506C253.195 264.248 252.61 265.131 252.215 266.102C251.82 267.074 251.624 268.115 251.637 269.163Z" fill="#45413C" stroke="#45413C" stroke-width="7" stroke-linecap="round" stroke-linejoin="round"/>
<path d="M393.928 192.18C393.948 195.561 392.963 198.872 391.097 201.692C389.232 204.511 386.57 206.713 383.45 208.016C380.331 209.319 376.894 209.665 373.577 209.011C370.26 208.356 367.213 206.73 364.822 204.34C362.431 201.949 360.805 198.901 360.151 195.584C359.496 192.267 359.842 188.831 361.146 185.711C362.449 182.591 364.65 179.93 367.47 178.064C370.29 176.198 373.6 175.213 376.981 175.234C381.467 175.261 385.762 177.055 388.934 180.227C392.107 183.399 393.901 187.694 393.928 192.18Z" stroke="#00AED9" stroke-width="7" stroke-linecap="round" stroke-linejoin="round"/>
<path d="M478.764 174.716C478.764 178.093 477.761 181.393 475.883 184.199C474.005 187.006 471.336 189.191 468.215 190.478C465.093 191.766 461.66 192.097 458.35 191.431C455.039 190.764 452.002 189.13 449.621 186.735C447.241 184.341 445.625 181.293 444.979 177.979C444.333 174.665 444.685 171.233 445.992 168.12C447.298 165.006 449.5 162.35 452.317 160.489C455.134 158.628 458.441 157.646 461.817 157.666C466.321 157.694 470.632 159.502 473.807 162.697C476.982 165.891 478.764 170.212 478.764 174.716V174.716Z" stroke="#00AED9" stroke-width="7" stroke-linecap="round" stroke-linejoin="round"/>
<path d="M393.926 191.664V115.3L478.762 81.3037V174.614" stroke="#00AED9" stroke-width="7" stroke-linecap="round" stroke-linejoin="round"/>
<path d="M375.636 435.53C375.656 438.849 374.689 442.1 372.858 444.868C371.026 447.637 368.413 449.799 365.35 451.079C362.287 452.358 358.913 452.699 355.656 452.056C352.399 451.413 349.407 449.817 347.059 447.47C344.712 445.122 343.116 442.13 342.473 438.873C341.83 435.616 342.171 432.242 343.45 429.179C344.73 426.116 346.892 423.503 349.66 421.671C352.429 419.839 355.68 418.872 358.999 418.893C363.403 418.92 367.619 420.681 370.733 423.796C373.847 426.91 375.609 431.126 375.636 435.53V435.53Z" stroke="#00AED9" stroke-width="7" stroke-linecap="round" stroke-linejoin="round"/>
<path d="M375.637 435.53V360.406L400.643 377.146" stroke="#00AED9" stroke-width="7" stroke-linecap="round" stroke-linejoin="round"/>
<path d="M282.534 92.567C282.531 94.5881 281.936 96.5642 280.822 98.2505C279.708 99.9369 278.123 101.259 276.265 102.054C274.407 102.849 272.356 103.082 270.367 102.723C268.378 102.365 266.538 101.431 265.074 100.037C263.61 98.6429 262.588 96.8503 262.133 94.8811C261.677 92.9118 261.81 90.8523 262.513 88.9575C263.217 87.0627 264.46 85.4158 266.09 84.2206C267.72 83.0255 269.665 82.3347 271.684 82.2336C273.084 82.1635 274.483 82.379 275.797 82.8668C277.111 83.3546 278.312 84.1047 279.327 85.0713C280.342 86.0379 281.15 87.2009 281.701 88.4895C282.252 89.7781 282.536 91.1654 282.534 92.567Z" stroke="#00AED9" stroke-width="7" stroke-linecap="round" stroke-linejoin="round"/>
<path d="M282.535 92.5667V44L298.758 54.7467" stroke="#00AED9" stroke-width="7" stroke-linecap="round" stroke-linejoin="round"/>
<path d="M403.535 262.757V256.764" stroke="#00AED9" stroke-width="7" stroke-linecap="round" stroke-linejoin="round"/>
<path d="M416.145 267.923L420.278 263.79" stroke="#00AED9" stroke-width="7" stroke-linecap="round" stroke-linejoin="round"/>
<path d="M421.309 280.53H427.302" stroke="#00AED9" stroke-width="7" stroke-linecap="round" stroke-linejoin="round"/>
<path d="M416.145 293.137L420.278 297.373" stroke="#00AED9" stroke-width="7" stroke-linecap="round" stroke-linejoin="round"/>
<path d="M403.535 298.406V304.296" stroke="#00AED9" stroke-width="7" stroke-linecap="round" stroke-linejoin="round"/>
<path d="M390.932 293.137L386.695 297.373" stroke="#00AED9" stroke-width="7" stroke-linecap="round" stroke-linejoin="round"/>
<path d="M385.66 280.53H379.77" stroke="#00AED9" stroke-width="7" stroke-linecap="round" stroke-linejoin="round"/>
<path d="M390.932 267.923L386.695 263.79" stroke="#00AED9" stroke-width="7" stroke-linecap="round" stroke-linejoin="round"/>
<path d="M462.023 347.18V315.56" stroke="#00AED9" stroke-width="7" stroke-linecap="round" stroke-linejoin="round"/>
<path d="M446.215 331.37H477.938" stroke="#00AED9" stroke-width="7" stroke-linecap="round" stroke-linejoin="round"/>
<path d="M427.305 59.81V44" stroke="#00AED9" stroke-width="7" stroke-linecap="round" stroke-linejoin="round"/>
<path d="M419.348 51.957H435.158" stroke="#00AED9" stroke-width="7" stroke-linecap="round" stroke-linejoin="round"/>
<path d="M438.051 422.2V406.287" stroke="#00AED9" stroke-width="7" stroke-linecap="round" stroke-linejoin="round"/>
<path d="M430.094 414.243H445.904" stroke="#00AED9" stroke-width="7" stroke-linecap="round" stroke-linejoin="round"/>
<path d="M325.211 113.336V97.4229" stroke="#00AED9" stroke-width="7" stroke-linecap="round" stroke-linejoin="round"/>
<path d="M317.254 105.38H333.064" stroke="#00AED9" stroke-width="7" stroke-linecap="round" stroke-linejoin="round"/>
</svg>
