<svg width="495" height="495" viewBox="0 0 495 495" fill="none" xmlns="http://www.w3.org/2000/svg">
<path d="M235.01 70.5C240.783 60.5001 255.217 60.5001 260.99 70.5L408.215 325.5C413.988 335.5 406.771 348 395.225 348H100.775C89.2286 348 82.0118 335.5 87.7852 325.5L235.01 70.5Z" fill="#F4C704" stroke="#3C3C3B" stroke-width="10"/>
<circle cx="10.3171" cy="10.3171" r="10.3171" transform="matrix(1 0 0 -1 237 178.146)" fill="#3C3C3B"/>
<path d="M263.113 300.85L252.566 224.207C251.77 218.421 243.394 218.462 242.653 224.255L232.848 300.993C232.708 302.085 232.932 303.2 233.504 304.141C243.623 320.8 251.322 320.769 262.354 304.223C263.014 303.233 263.275 302.029 263.113 300.85Z" fill="#3C3C3B" stroke="#3C3C3B" stroke-width="10" stroke-linecap="round"/>
</svg>
