<svg width="495" height="495" viewBox="0 0 495 495" fill="none" xmlns="http://www.w3.org/2000/svg">
<path d="M233.887 267.385L51.5625 203.551V376.698C51.571 378.829 52.2399 380.906 53.4773 382.642C54.7146 384.378 56.4595 385.688 58.4719 386.391L233.784 448.266C242.612 451.26 252.181 451.26 261.009 448.266L436.322 386.391C438.334 385.688 440.079 384.378 441.316 382.642C442.554 380.906 443.223 378.829 443.231 376.698V203.551L261.113 267.385C252.299 270.466 242.701 270.466 233.887 267.385Z" fill="#FF866E"/>
<path d="M261.113 267.385C252.299 270.466 242.701 270.466 233.887 267.385L51.5625 203.551V255.113L233.887 318.948C242.701 322.029 252.299 322.029 261.113 318.948L443.438 255.113V203.551L261.113 267.385Z" fill="#FF6242"/>
<path d="M233.888 267.385L51.5625 203.551V376.698C51.571 378.829 52.2399 380.906 53.4773 382.642C54.7146 384.378 56.4595 385.688 58.4719 386.391L233.784 448.266C242.612 451.26 252.181 451.26 261.009 448.266L436.322 386.391C438.334 385.688 440.079 384.378 441.316 382.642C442.554 380.906 443.223 378.829 443.231 376.698V203.551L261.112 267.385C252.299 270.466 242.701 270.466 233.888 267.385Z" stroke="#45413C" stroke-width="7" stroke-linecap="round" stroke-linejoin="round"/>
<path d="M247.5 431.973V292.754" stroke="#E04122" stroke-width="7" stroke-linecap="round" stroke-linejoin="round"/>
<path d="M233.887 195.198L41.25 127.754V192.62C41.2585 194.751 41.9274 196.828 43.1648 198.564C44.4021 200.3 46.147 201.61 48.1594 202.313L233.784 267.385C242.598 270.466 252.196 270.466 261.009 267.385L446.634 202.313C448.647 201.61 450.392 200.3 451.629 198.564C452.866 196.828 453.535 194.751 453.544 192.62V127.754L261.113 195.198C252.299 198.279 242.701 198.279 233.887 195.198Z" fill="#FF866E"/>
<path d="M261.112 195.198C252.299 198.279 242.701 198.279 233.887 195.198L41.25 127.754V158.691L233.887 226.135C242.701 229.216 252.299 229.216 261.112 226.135L453.75 158.691V127.754L261.112 195.198Z" fill="#FFA694"/>
<path d="M233.888 195.198L41.25 127.754V192.62C41.2585 194.751 41.9274 196.828 43.1648 198.564C44.4021 200.3 46.147 201.61 48.1594 202.313L233.784 267.385C242.598 270.466 252.196 270.466 261.009 267.385L446.634 202.313C448.647 201.61 450.392 200.3 451.629 198.564C452.866 196.828 453.535 194.751 453.544 192.62V127.754L261.112 195.198C252.299 198.279 242.701 198.279 233.888 195.198Z" stroke="#45413C" stroke-width="7" stroke-linecap="round" stroke-linejoin="round"/>
<path d="M41.25 127.755L233.887 60.3108C242.701 57.2297 252.299 57.2297 261.112 60.3108L453.75 127.755L261.112 195.198C252.299 198.279 242.701 198.279 233.887 195.198L41.25 127.755Z" fill="#FF866E" stroke="#45413C" stroke-width="7" stroke-linecap="round" stroke-linejoin="round"/>
<path d="M290.4 70.623L82.5 142.192V214.379L175.312 246.864V174.676L383.212 103.107L290.4 70.623Z" fill="#EDDBFF" stroke="#45413C" stroke-width="7" stroke-linecap="round" stroke-linejoin="round"/>
<path d="M110.031 151.886L156.953 168.283" stroke="#BF8DF2" stroke-width="7" stroke-linecap="round" stroke-linejoin="round"/>
<path d="M92.8125 217.988V398.457L185.625 430.941V250.473L92.8125 217.988Z" fill="#EDDBFF"/>
<path d="M92.8125 217.988V269.551L185.625 302.035V250.473L92.8125 217.988Z" fill="#DABFF5"/>
<path d="M92.8125 217.988V398.457L185.625 430.941V250.473L92.8125 217.988Z" stroke="#45413C" stroke-width="7" stroke-linecap="round" stroke-linejoin="round"/>
<path d="M204.602 70.623L412.502 142.192V214.379L319.689 246.864V174.676L111.789 103.107L204.602 70.623Z" fill="#EDDBFF" stroke="#45413C" stroke-width="7" stroke-linecap="round" stroke-linejoin="round"/>
<path d="M384.969 151.886L338.047 168.283" stroke="#BF8DF2" stroke-width="7" stroke-linecap="round" stroke-linejoin="round"/>
<path d="M402.188 217.988V398.457L309.375 430.941V250.473L402.188 217.988Z" fill="#EDDBFF"/>
<path d="M402.188 217.988V269.551L309.375 302.035V250.473L402.188 217.988Z" fill="#DABFF5"/>
<path d="M402.188 217.988V398.457L309.375 430.941V250.473L402.188 217.988Z" stroke="#45413C" stroke-width="7" stroke-linecap="round" stroke-linejoin="round"/>
</svg>
