<svg width="496" height="496" viewBox="0 0 496 496" fill="none" xmlns="http://www.w3.org/2000/svg">
<path d="M248.221 248.243C237.888 248.243 233.755 253.513 227.555 260.747L228.278 278.727C230.593 275.539 233.578 272.897 237.024 270.987C240.469 269.077 244.291 267.944 248.221 267.67C252.276 267.839 256.24 268.921 259.819 270.836C263.397 272.75 266.497 275.447 268.888 278.727V260.437C262.688 253.513 258.555 248.243 248.221 248.243Z" fill="#E8F4FA" stroke="#45413C" stroke-width="8" stroke-linecap="round" stroke-linejoin="round"/>
<path d="M10.5547 257.751L81.7514 125.071C89.187 111.301 101.327 100.665 115.955 95.1045L142.821 84.7712C144.549 84.1056 146.423 83.9162 148.248 84.2228C150.074 84.5294 151.783 85.3206 153.198 86.5139C154.614 87.7072 155.682 89.2587 156.292 91.0062C156.903 92.7537 157.032 94.6331 156.668 96.4479C154.737 106.089 149.793 114.867 142.55 121.516C135.307 128.165 126.139 132.341 116.368 133.441C112.432 133.859 108.665 135.261 105.414 137.518C102.164 139.776 99.5339 142.816 97.768 146.358L31.2214 279.245L10.5547 257.751Z" fill="#87898C"/>
<path d="M485.921 257.751L414.724 125.071C407.289 111.301 395.149 100.665 380.521 95.1045L353.654 84.7712C351.927 84.1056 350.053 83.9162 348.227 84.2228C346.402 84.5294 344.692 85.3206 343.277 86.5139C341.862 87.7072 340.794 89.2587 340.183 91.0062C339.573 92.7537 339.443 94.6331 339.808 96.4479C341.739 106.089 346.682 114.867 353.926 121.516C361.169 128.165 370.337 132.341 380.108 133.441C384.043 133.859 387.811 135.261 391.061 137.518C394.312 139.776 396.942 142.816 398.708 146.358L465.254 279.245L485.921 257.751Z" fill="#87898C"/>
<path d="M81.7514 146.778C89.0214 132.643 101.175 121.627 115.955 115.778L142.821 105.444C144.517 104.747 146.368 104.513 148.184 104.768C150 105.022 151.716 105.755 153.155 106.891C154.903 103.387 156.188 99.6701 156.978 95.8344C157.243 94.0288 157.025 92.1852 156.347 90.4911C155.668 88.797 154.553 87.3128 153.115 86.1895C151.677 85.0662 149.966 84.3438 148.158 84.0958C146.35 83.8479 144.509 84.0831 142.821 84.7777L115.955 95.1111C101.346 100.704 89.2161 111.331 81.7514 125.078L10.5547 257.758L17.8914 265.404L81.7514 146.778Z" fill="#BDBEC0"/>
<path d="M343.631 107.298C345.07 106.162 346.786 105.429 348.602 105.175C350.418 104.92 352.269 105.154 353.964 105.851L380.831 116.185C395.426 121.994 407.452 132.847 414.724 146.771L478.584 265.811L485.921 258.165L414.724 125.071C407.26 111.325 395.13 100.697 380.521 95.1045L353.654 84.7712C351.927 84.1056 350.053 83.9162 348.227 84.2228C346.402 84.5294 344.692 85.3206 343.277 86.5139C341.862 87.7072 340.794 89.2587 340.183 91.0062C339.573 92.7537 339.443 94.6331 339.808 96.4479C340.614 100.213 341.899 103.859 343.631 107.298Z" fill="#BDBEC0"/>
<path d="M10.5547 257.751L81.7514 125.071C89.187 111.301 101.327 100.665 115.955 95.1045L142.821 84.7712C144.549 84.1056 146.423 83.9162 148.248 84.2228C150.074 84.5294 151.783 85.3206 153.198 86.5139C154.614 87.7072 155.682 89.2587 156.292 91.0062C156.903 92.7537 157.032 94.6331 156.668 96.4479C154.737 106.089 149.793 114.867 142.55 121.516C135.307 128.165 126.139 132.341 116.368 133.441V133.441C112.432 133.859 108.665 135.261 105.414 137.518C102.164 139.776 99.5339 142.816 97.768 146.358L31.2214 279.245L10.5547 257.751Z" stroke="#45413C" stroke-width="8" stroke-linecap="round" stroke-linejoin="round"/>
<path d="M485.921 257.751L414.724 125.071C407.289 111.301 395.149 100.665 380.521 95.1045L353.654 84.7712C351.927 84.1056 350.053 83.9162 348.227 84.2228C346.402 84.5294 344.692 85.3206 343.277 86.5139C341.862 87.7072 340.794 89.2587 340.183 91.0062C339.573 92.7537 339.443 94.6331 339.808 96.4479V96.4479C341.739 106.089 346.682 114.867 353.926 121.516C361.169 128.165 370.337 132.341 380.108 133.441V133.441C384.043 133.859 387.811 135.261 391.061 137.518C394.312 139.776 396.942 142.816 398.708 146.358L465.254 279.245L485.921 257.751Z" stroke="#45413C" stroke-width="8" stroke-linecap="round" stroke-linejoin="round"/>
<path d="M19.9586 248.243H46.7219V284.41H19.9586C17.4647 284.41 15.0729 283.419 13.3094 281.656C11.546 279.892 10.5553 277.5 10.5553 275.007V257.75C10.5416 256.506 10.7747 255.272 11.2412 254.12C11.7076 252.967 12.3981 251.918 13.2726 251.034C14.1472 250.15 15.1884 249.448 16.3361 248.969C17.4837 248.49 18.715 248.243 19.9586 248.243Z" fill="#E8F4FA" stroke="#45413C" stroke-width="8" stroke-linecap="round" stroke-linejoin="round"/>
<path d="M476.483 284.511H449.719V248.344H476.483C478.977 248.344 481.369 249.335 483.132 251.098C484.895 252.862 485.886 255.253 485.886 257.747V275.004C485.9 276.248 485.667 277.481 485.2 278.634C484.734 279.787 484.043 280.836 483.169 281.72C482.294 282.604 481.253 283.306 480.105 283.785C478.958 284.264 477.726 284.511 476.483 284.511Z" fill="#E8F4FA" stroke="#45413C" stroke-width="8" stroke-linecap="round" stroke-linejoin="round"/>
<path d="M41.5521 279.243C41.5521 279.243 31.2188 279.966 31.2188 263.743C31.2188 247.52 42.7921 232.743 134.552 232.743C226.312 232.743 232.719 254.133 232.719 268.91C232.719 283.687 222.385 279.243 222.385 279.243H41.5521Z" fill="#87898C"/>
<path d="M454.885 279.243C454.885 279.243 465.219 279.966 465.219 263.743C465.219 247.52 453.645 232.743 361.885 232.743C270.125 232.743 263.719 254.133 263.719 268.91C263.719 283.687 274.052 279.243 274.052 279.243H454.885Z" fill="#87898C"/>
<path d="M134.565 250.113C206.898 250.113 226.325 263.546 231.078 276.463C232.342 274.01 232.913 271.26 232.732 268.507C232.732 253.73 226.325 232.34 134.565 232.34C42.805 232.34 31.2316 247.22 31.2316 263.34C31.1275 266.478 31.6546 269.606 32.7816 272.537C38.155 260.447 59.545 250.113 134.565 250.113Z" fill="#BDBEC0"/>
<path d="M361.918 250.113C436.938 250.113 458.328 260.447 463.702 272.537C464.829 269.606 465.356 266.478 465.252 263.34C465.252 247.22 453.678 232.34 361.918 232.34C270.158 232.34 263.752 253.73 263.752 268.507C263.57 271.26 264.142 274.01 265.405 276.463C270.158 263.96 289.585 250.113 361.918 250.113Z" fill="#BDBEC0"/>
<path d="M41.5521 279.243C41.5521 279.243 31.2188 279.967 31.2188 263.743C31.2188 247.52 42.7921 232.743 134.552 232.743C226.312 232.743 232.719 254.133 232.719 268.91C232.719 283.686 222.385 279.243 222.385 279.243H41.5521Z" stroke="#45413C" stroke-width="8" stroke-linecap="round" stroke-linejoin="round"/>
<path d="M454.885 279.243C454.885 279.243 465.219 279.967 465.219 263.743C465.219 247.52 453.645 232.743 361.885 232.743C270.125 232.743 263.719 254.133 263.719 268.91C263.719 283.686 274.052 279.243 274.052 279.243H454.885Z" stroke="#45413C" stroke-width="8" stroke-linecap="round" stroke-linejoin="round"/>
<path d="M41.5702 279.247C70.1895 271.548 99.779 268.067 129.404 268.913C160.715 268.43 191.962 271.902 222.404 279.247C222.404 279.247 225.814 380.927 196.57 398.08C167.327 415.233 88.0702 418.747 62.2369 387.747C36.4035 356.747 41.5702 279.247 41.5702 279.247Z" fill="#C9C9C9"/>
<path d="M195.744 273.873C173.789 270.532 151.611 268.873 129.404 268.913C99.779 268.067 70.1895 271.548 41.5702 279.247C41.5702 279.247 36.4035 356.747 62.2369 387.747C72.5702 400.767 93.2369 407.69 115.247 410.067L195.744 273.873Z" fill="white"/>
<path d="M41.5702 279.247C70.1895 271.548 99.779 268.067 129.404 268.913C160.715 268.43 191.962 271.902 222.404 279.247C222.404 279.247 225.814 380.927 196.57 398.08C167.327 415.233 88.0702 418.747 62.2369 387.747C36.4035 356.747 41.5702 279.247 41.5702 279.247Z" stroke="#45413C" stroke-width="8" stroke-linecap="round" stroke-linejoin="round"/>
<path d="M454.846 279.247C426.227 271.548 396.637 268.067 367.013 268.913C335.701 268.43 304.454 271.902 274.013 279.247C274.013 279.247 270.603 380.927 299.846 398.08C329.089 415.233 408.346 418.747 434.179 387.747C460.013 356.747 454.846 279.247 454.846 279.247Z" fill="#C9C9C9"/>
<path d="M421.366 272.427C403.346 270.054 385.188 268.88 367.013 268.914C335.701 268.43 304.454 271.902 274.013 279.247C274.013 279.247 270.603 380.927 299.846 398.08C312.393 404.555 326.081 408.521 340.146 409.757L421.366 272.427Z" fill="white"/>
<path d="M454.846 279.247C426.227 271.548 396.637 268.067 367.013 268.913C335.701 268.43 304.454 271.902 274.013 279.247C274.013 279.247 270.603 380.927 299.846 398.08C329.089 415.233 408.346 418.747 434.179 387.747C460.013 356.747 454.846 279.247 454.846 279.247Z" stroke="#45413C" stroke-width="8" stroke-linecap="round" stroke-linejoin="round"/>
</svg>
