<svg width="497" height="497" viewBox="0 0 497 497" fill="none" xmlns="http://www.w3.org/2000/svg">
<path d="M280.805 89.8746C280.805 89.8746 368.09 30.4417 400.602 57.259C433.114 84.0763 388.074 194.038 388.074 194.038L280.805 89.8746Z" fill="#FFE500"/>
<path d="M294.992 112.55C294.992 112.55 357.117 67.5098 379.275 85.6296C401.433 103.749 367.678 183.062 367.678 183.062L294.992 112.55Z" fill="#FFA694"/>
<path d="M216.193 89.8746C216.193 89.8746 128.908 30.4417 96.3956 57.259C63.8835 84.0763 108.924 194.038 108.924 194.038L216.193 89.8746Z" fill="#FFE500"/>
<path d="M400.602 79.9346C407.401 86.3863 411.445 95.2152 411.888 104.578C413.752 83.8692 411.888 66.1636 400.602 57.259C368.09 30.4417 280.805 89.8746 280.805 89.8746L294.99 103.542C320.979 88.218 376.27 59.8475 400.602 79.9346Z" fill="#FFF48C"/>
<path d="M96.3975 79.9346C120.73 59.8475 175.917 88.218 202.01 103.646L216.195 89.8746C216.195 89.8746 128.91 30.4417 96.3975 57.259C85.5256 66.1636 82.8335 84.2834 85.1114 104.578C85.555 95.2152 89.5985 86.3863 96.3975 79.9346Z" fill="#FFF48C"/>
<path d="M280.805 89.8746C280.805 89.8746 368.09 30.4417 400.602 57.259C433.114 84.0763 388.074 194.038 388.074 194.038L280.805 89.8746Z" stroke="#45413C" stroke-width="7" stroke-linecap="round" stroke-linejoin="round"/>
<path d="M216.193 89.8746C216.193 89.8746 128.908 30.4417 96.3956 57.259C63.8835 84.0763 108.924 194.038 108.924 194.038L216.193 89.8746Z" stroke="#45413C" stroke-width="7" stroke-linecap="round" stroke-linejoin="round"/>
<path d="M202.011 112.55C202.011 112.55 139.886 67.5098 117.728 85.6296C95.5702 103.749 129.325 183.062 129.325 183.062L202.011 112.55Z" fill="#FFA694"/>
<path d="M379.275 108.926C382.767 112.103 385.068 116.377 385.798 121.041C387.869 105.717 386.937 91.9456 379.275 85.6296C357.221 67.5098 294.992 112.55 294.992 112.55L309.281 126.425C328.954 113.896 363.847 96.1908 379.275 108.926Z" fill="#FF866E"/>
<path d="M117.726 108.926C133.154 96.1908 168.048 114.311 187.72 126.425L202.009 112.55C202.009 112.55 139.884 67.5098 117.726 85.6296C110.064 91.9456 109.132 105.717 111.203 121.041C111.933 116.377 114.235 112.103 117.726 108.926Z" fill="#FF866E"/>
<path d="M294.992 112.55C294.992 112.55 357.117 67.5098 379.275 85.6296C401.433 103.749 367.678 183.062 367.678 183.062L294.992 112.55Z" stroke="#45413C" stroke-width="7" stroke-linecap="round" stroke-linejoin="round"/>
<path d="M202.011 112.55C202.011 112.55 139.886 67.5098 117.728 85.6296C95.5702 103.749 129.325 183.062 129.325 183.062L202.011 112.55Z" stroke="#45413C" stroke-width="7" stroke-linecap="round" stroke-linejoin="round"/>
<path d="M407.23 299.34L397.497 209.155C392.888 173.094 375.137 140.001 347.644 116.214C320.151 92.428 284.849 79.6207 248.5 80.2455C212.151 79.6207 176.85 92.428 149.357 116.214C121.864 140.001 104.113 173.094 99.5039 209.155L89.771 299.34C88.7793 311.058 90.2663 322.854 94.135 333.96C98.0038 345.065 104.168 355.232 112.226 363.798C120.284 372.364 130.055 379.137 140.904 383.676C151.753 388.216 163.436 390.42 175.193 390.146H179.956C192.899 406.195 218.68 417.17 248.5 417.17C278.32 417.17 304.102 406.195 317.045 390.146H321.808C333.565 390.42 345.248 388.216 356.097 383.676C366.946 379.137 376.717 372.364 384.775 363.798C392.833 355.232 398.997 345.065 402.866 333.96C406.735 322.854 408.221 311.058 407.23 299.34Z" fill="#FFE500"/>
<path d="M99.5039 247.258C104.136 211.215 121.897 178.147 149.388 154.382C176.878 130.617 212.167 117.824 248.5 118.452C284.834 117.824 320.122 130.617 347.613 154.382C375.103 178.147 392.864 211.215 397.497 247.258L405.884 324.81C407.689 316.446 408.144 307.847 407.23 299.339L397.497 209.154C392.866 173.103 375.109 140.023 347.621 116.241C320.133 92.4585 284.843 79.643 248.5 80.2449C212.157 79.643 176.868 92.4585 149.38 116.241C121.892 140.023 104.135 173.103 99.5039 209.154L89.771 299.339C88.857 307.847 89.3114 316.446 91.117 324.81L99.5039 247.258Z" fill="#FFF48C"/>
<path d="M407.23 299.34L397.497 209.155C392.888 173.094 375.137 140.001 347.644 116.214C320.151 92.428 284.849 79.6207 248.5 80.2455C212.151 79.6207 176.85 92.428 149.357 116.214C121.864 140.001 104.113 173.094 99.5039 209.155L89.771 299.34C88.7793 311.058 90.2663 322.854 94.135 333.96C98.0038 345.065 104.168 355.232 112.226 363.798C120.284 372.364 130.055 379.137 140.904 383.676C151.753 388.216 163.436 390.42 175.193 390.146H179.956C192.899 406.195 218.68 417.17 248.5 417.17C278.32 417.17 304.102 406.195 317.045 390.146H321.808C333.565 390.42 345.248 388.216 356.097 383.676C366.946 379.137 376.717 372.364 384.775 363.798C392.833 355.232 398.997 345.065 402.866 333.96C406.735 322.854 408.221 311.058 407.23 299.34V299.34Z" stroke="#45413C" stroke-width="7" stroke-linecap="round" stroke-linejoin="round"/>
<path d="M331.332 311.558L366.847 303.067" stroke="#45413C" stroke-width="7" stroke-linecap="round" stroke-linejoin="round"/>
<path d="M331.332 337.028L366.847 344.794" stroke="#45413C" stroke-width="7" stroke-linecap="round" stroke-linejoin="round"/>
<path d="M250.777 342.93C253.027 341.572 255.605 340.856 258.232 340.859C262.187 340.859 265.979 342.43 268.775 345.226C271.571 348.023 273.142 351.815 273.142 355.769C273.142 359.724 271.571 363.516 268.775 366.312C265.979 369.109 262.187 370.679 258.232 370.679" stroke="#45413C" stroke-width="7" stroke-linecap="round"/>
<path d="M258.232 370.68C260.288 370.508 262.357 370.765 264.308 371.433C266.259 372.102 268.05 373.168 269.568 374.565C271.086 375.961 272.298 377.658 273.127 379.546C273.956 381.435 274.384 383.475 274.384 385.538C274.384 387.601 273.956 389.641 273.127 391.53C272.298 393.418 271.086 395.115 269.568 396.511C268.05 397.908 266.259 398.974 264.308 399.643C262.357 400.311 260.288 400.568 258.232 400.396C255.619 400.396 253.051 399.718 250.777 398.429" stroke="#45413C" stroke-width="7" stroke-linecap="round"/>
<path d="M335.165 253.471C335.165 258.276 333.256 262.885 329.858 266.283C326.46 269.681 321.851 271.59 317.046 271.59C312.24 271.59 307.631 269.681 304.233 266.283C300.835 262.885 298.926 258.276 298.926 253.471" stroke="#45413C" stroke-width="7" stroke-linecap="round" stroke-linejoin="round"/>
<path d="M198.076 253.471C198.076 258.276 196.166 262.885 192.768 266.283C189.37 269.681 184.761 271.59 179.956 271.59C175.15 271.59 170.541 269.681 167.143 266.283C163.745 262.885 161.836 258.276 161.836 253.471" stroke="#45413C" stroke-width="7" stroke-linecap="round" stroke-linejoin="round"/>
<path d="M174.881 312.489L118.762 303.896" stroke="#45413C" stroke-width="7" stroke-linecap="round" stroke-linejoin="round"/>
<path d="M174.881 337.961L118.762 345.727" stroke="#45413C" stroke-width="7" stroke-linecap="round" stroke-linejoin="round"/>
<path d="M276.248 319.738C274.586 325.978 271.021 331.546 266.047 335.666C261.074 339.785 254.94 342.252 248.499 342.724C242.058 342.252 235.924 339.785 230.951 335.666C225.978 331.546 222.412 325.978 220.75 319.738C220.75 312.593 233.175 306.898 248.499 306.898C263.823 306.898 276.248 312.593 276.248 319.738Z" fill="#FF866E"/>
<path d="M248.499 322.43C256.964 322.028 265.348 324.232 272.521 328.746C274.592 326.157 275.884 323.033 276.248 319.738C276.248 312.593 263.823 306.898 248.499 306.898C233.175 306.898 220.75 312.593 220.75 319.738C221.114 323.033 222.407 326.157 224.478 328.746C231.65 324.232 240.034 322.028 248.499 322.43Z" fill="#FFA694"/>
<path d="M276.248 319.738C274.586 325.978 271.021 331.546 266.047 335.666C261.074 339.785 254.94 342.252 248.499 342.724C242.058 342.252 235.924 339.785 230.951 335.666C225.978 331.546 222.412 325.978 220.75 319.738C220.75 312.593 233.175 306.898 248.499 306.898C263.823 306.898 276.248 312.593 276.248 319.738Z" stroke="#45413C" stroke-width="7" stroke-linecap="round" stroke-linejoin="round"/>
</svg>
