<svg width="495" height="495" viewBox="0 0 495 495" fill="none" xmlns="http://www.w3.org/2000/svg">
<path d="M247.497 46.8779C138.185 46.8779 50.2193 103.597 52.7974 173L86.2099 451.437C87.0092 457.177 89.8647 462.432 94.246 466.225C98.6274 470.019 104.237 472.093 110.032 472.062H384.963C390.758 472.093 396.367 470.019 400.749 466.225C405.13 462.432 407.986 457.177 408.785 451.437L442.197 173C444.776 103.597 356.81 46.8779 247.497 46.8779Z" fill="#E04122" stroke="#45413C" stroke-width="7" stroke-linecap="round" stroke-linejoin="round"/>
<path d="M404.556 173C402.045 172.969 399.589 173.73 397.534 175.174C395.48 176.617 393.932 178.671 393.109 181.043C377.641 231.368 318.344 268.803 247.497 268.803C176.65 268.803 117.353 230.956 101.884 180.631C100.994 178.336 99.4163 176.371 97.3677 175.005C95.3191 173.639 92.8989 172.939 90.4375 173H52.7969L86.2094 451.437C87.0086 457.177 89.8642 462.432 94.2455 466.225C98.6268 470.019 104.236 472.093 110.031 472.062H384.963C390.758 472.093 396.367 470.019 400.748 466.225C405.13 462.432 407.985 457.177 408.784 451.437L442.197 173H404.556Z" fill="#FF6242"/>
<path d="M77.3406 226.522C79.7312 226.411 82.0998 227.021 84.1404 228.271C86.181 229.521 87.7998 231.354 88.7875 233.534C104.256 277.878 176.65 310.878 247.497 310.878C318.344 310.878 390.738 277.878 406.206 233.534C407.194 231.354 408.813 229.521 410.853 228.271C412.894 227.021 415.263 226.411 417.653 226.522H435.7L442.197 173H404.556C402.045 172.969 399.589 173.73 397.534 175.174C395.48 176.617 393.932 178.671 393.109 181.043C377.641 231.368 318.344 268.803 247.497 268.803C176.65 268.803 117.353 230.956 101.884 180.631C100.994 178.336 99.4163 176.371 97.3677 175.005C95.3191 173.639 92.8989 172.939 90.4375 173H52.7969L59.2938 226.934L77.3406 226.522Z" fill="#FF866E"/>
<path d="M404.556 173C402.045 172.969 399.589 173.73 397.534 175.174C395.48 176.617 393.932 178.671 393.109 181.043C377.641 231.368 318.344 268.803 247.497 268.803C176.65 268.803 117.353 230.956 101.884 180.631C100.994 178.336 99.4163 176.371 97.3677 175.005C95.3191 173.639 92.8989 172.939 90.4375 173H52.7969L86.2094 451.437C87.0086 457.177 89.8642 462.432 94.2455 466.225C98.6268 470.019 104.236 472.093 110.031 472.062H384.963C390.758 472.093 396.367 470.019 400.748 466.225C405.13 462.432 407.985 457.177 408.784 451.437L442.197 173H404.556Z" stroke="#45413C" stroke-width="7" stroke-linecap="round" stroke-linejoin="round"/>
<path d="M181.602 370.279C181.602 381.41 188.544 392.086 200.902 399.957C213.26 407.828 230.021 412.25 247.498 412.25C264.975 412.25 281.736 407.828 294.095 399.957C306.453 392.086 313.395 381.41 313.395 370.279C313.395 359.147 306.453 348.471 294.095 340.6C281.736 332.729 264.975 328.307 247.498 328.307C230.021 328.307 213.26 332.729 200.902 340.6C188.544 348.471 181.602 359.147 181.602 370.279Z" fill="#FFE500" stroke="#45413C" stroke-width="7" stroke-linecap="round" stroke-linejoin="round"/>
</svg>
