<svg width="495" height="495" viewBox="0 0 495 495" fill="none" xmlns="http://www.w3.org/2000/svg">
<path d="M183.461 460.556L25.4731 302.671C24.4987 301.898 23.7442 300.883 23.2846 299.727C22.8251 298.571 22.6766 297.315 22.854 296.083C23.0313 294.852 23.5284 293.689 24.2956 292.71C25.0627 291.731 26.0732 290.97 27.2262 290.503L36.9199 286.378C39.5729 285.553 42.4139 285.553 45.0668 286.378L123.751 302.568L183.77 362.587L200.167 441.065C200.708 443.828 200.457 446.688 199.445 449.315L195.526 458.906C195.064 460.053 194.307 461.057 193.331 461.816C192.356 462.576 191.197 463.065 189.972 463.232C188.747 463.4 187.5 463.24 186.356 462.77C185.213 462.3 184.214 461.536 183.461 460.556Z" fill="#FF383C"/>
<path d="M150.976 355.885L162.836 341.963L123.751 302.569L45.0668 286.378C42.341 285.785 39.499 286.037 36.9199 287.1L27.2262 290.916C26.0732 291.383 25.0627 292.144 24.2956 293.123C23.5284 294.102 23.0313 295.265 22.854 296.497C22.6766 297.728 22.8251 298.984 23.2846 300.14C23.7442 301.296 24.4987 302.311 25.4731 303.085L35.7856 313.397H37.0231C39.6021 312.334 42.4441 312.082 45.1699 312.675L123.751 328.35L150.976 355.885Z" fill="#D91A1E"/>
<path d="M183.462 362.587L178.202 357.328L114.059 391.359L147.059 424.256C152.123 424.282 157.163 423.552 162.012 422.091C173.328 418.474 183.835 412.696 192.949 405.075L183.462 362.587Z" fill="#D91A1E"/>
<path d="M183.461 460.556L25.4731 302.671C24.4987 301.898 23.7442 300.883 23.2846 299.727C22.8251 298.571 22.6766 297.315 22.854 296.083C23.0313 294.852 23.5284 293.689 24.2956 292.71C25.0627 291.731 26.0732 290.97 27.2262 290.503L36.9199 286.378C39.5729 285.553 42.4139 285.553 45.0668 286.378L123.751 302.568L183.77 362.587L200.167 441.065C200.708 443.828 200.457 446.688 199.445 449.315L195.526 458.906C195.064 460.053 194.307 461.057 193.331 461.816C192.356 462.576 191.197 463.065 189.972 463.232C188.747 463.4 187.5 463.24 186.356 462.77C185.213 462.3 184.214 461.536 183.461 460.556Z" stroke="#45413C" stroke-width="6" stroke-linecap="round" stroke-linejoin="round"/>
<path d="M416.076 274.304L436.494 294.721C439.201 297.429 440.722 301.101 440.722 304.93C440.722 308.759 439.201 312.431 436.494 315.139L380.272 371.361L339.437 330.525L395.658 274.304C396.999 272.963 398.591 271.899 400.342 271.174C402.094 270.448 403.971 270.075 405.867 270.075C407.763 270.075 409.641 270.448 411.392 271.174C413.144 271.899 414.735 272.963 416.076 274.304Z" fill="#C0DCEB" stroke="#45413C" stroke-width="6" stroke-linecap="round" stroke-linejoin="round"/>
<path d="M191.264 49.6385L211.681 70.0562C214.389 72.7638 215.91 76.436 215.91 80.2651C215.91 84.0942 214.389 87.7664 211.681 90.474L155.533 146.623L114.697 105.787L170.846 49.6385C173.553 46.931 177.226 45.4099 181.055 45.4099C184.884 45.4099 188.556 46.931 191.264 49.6385Z" fill="#C0DCEB" stroke="#45413C" stroke-width="6" stroke-linecap="round" stroke-linejoin="round"/>
<path d="M390.33 418.275L293.392 294.525L191.298 192.328L67.5485 95.3907C65.5554 93.8279 64.0085 91.7683 63.0631 89.4187C62.1177 87.069 61.807 84.512 62.1623 82.0043C62.5175 79.4966 63.5262 77.1265 65.0871 75.1319C66.6479 73.1373 68.706 71.5884 71.0548 70.6407L90.7516 62.8032C96.0445 60.6362 101.872 60.1326 107.458 61.3595L268.127 95.7001L390.536 218.316L424.464 378.263C425.526 383.874 424.954 389.673 422.814 394.969L414.873 414.666C413.92 416.978 412.382 419.002 410.411 420.541C408.439 422.08 406.102 423.081 403.627 423.445C401.153 423.809 398.626 423.523 396.295 422.617C393.964 421.711 391.909 420.215 390.33 418.275Z" fill="#4ACFFF"/>
<path d="M381.254 209.034L390.535 218.212L402.188 273.178L322.576 331.856L293.495 294.834L285.863 287.306L381.254 209.034Z" fill="#00B8F0"/>
<path d="M274.415 102.093L255.44 124.884L107.971 93.9463C102.351 92.7112 96.4887 93.2147 91.1618 95.3901L75.1774 101.784L67.9587 96.1119C65.9656 94.5492 64.4187 92.4895 63.4733 90.1399C62.5278 87.7902 62.2172 85.2332 62.5724 82.7255C62.9277 80.2178 63.9364 77.8477 65.4972 75.8531C67.0581 73.8585 69.1162 72.3097 71.4649 71.3619L91.1618 63.4213C96.5129 61.3482 102.345 60.8473 107.971 61.9776L268.124 95.5963L274.415 102.093Z" fill="#80DDFF"/>
<path d="M390.33 418.275L293.392 294.525L191.298 192.328L67.5485 95.3907C65.5554 93.8279 64.0085 91.7683 63.0631 89.4187C62.1177 87.069 61.807 84.512 62.1623 82.0043C62.5175 79.4966 63.5262 77.1265 65.0871 75.1319C66.6479 73.1373 68.706 71.5884 71.0548 70.6407L90.7516 62.8032C96.0445 60.6362 101.872 60.1326 107.458 61.3595L268.127 95.7001L390.536 218.316L424.464 378.263C425.526 383.874 424.954 389.673 422.814 394.969L414.873 414.666C413.92 416.978 412.382 419.002 410.411 420.541C408.439 422.08 406.102 423.081 403.627 423.445C401.153 423.809 398.626 423.523 396.295 422.617C393.964 421.711 391.909 420.215 390.33 418.275Z" stroke="#45413C" stroke-width="6" stroke-linecap="round" stroke-linejoin="round"/>
<path d="M92.8133 358.565L279.882 133.546C284.475 128.036 289.702 123.086 295.454 118.8C341.241 79.1996 410.335 51.2527 441.582 82.4996C446.954 87.9941 450.825 94.7765 452.823 102.196C457.566 79.0965 455.195 58.059 441.582 44.4465C410.645 13.509 341.241 41.2496 295.454 80.8496C289.679 85.07 284.449 89.9886 279.882 95.4933L92.8133 320.821C86.4728 328.22 82.2297 337.182 80.525 346.776C78.8203 356.369 79.7162 366.244 83.1196 375.375C85.3885 369.269 88.6652 363.587 92.8133 358.565Z" fill="white"/>
<path d="M405.281 190.678C444.881 144.89 472.931 75.7967 441.581 44.4467C410.231 13.0967 341.24 41.2498 295.452 80.8498C289.678 85.0703 284.447 89.9889 279.881 95.4936L92.8118 320.822C84.1028 330.672 79.3906 343.422 79.6005 356.568C79.8104 369.715 84.9271 382.308 93.9462 391.875C103.511 400.886 116.094 406.007 129.233 406.236C142.373 406.465 155.126 401.785 164.999 393.112L390.637 206.147C396.113 201.588 401.029 196.395 405.281 190.678Z" fill="#E8F4FA"/>
<path d="M405.281 190.678C444.881 144.89 472.931 75.7967 441.581 44.4467C410.231 13.0967 341.24 41.2498 295.452 80.8498C289.678 85.0703 284.447 89.9889 279.881 95.4936L92.8118 320.822C84.1028 330.672 79.3906 343.422 79.6005 356.568C79.8104 369.715 84.9271 382.308 93.9462 391.875C103.511 400.886 116.094 406.007 129.233 406.236C142.373 406.465 155.126 401.785 164.999 393.112L390.637 206.147C396.113 201.588 401.029 196.395 405.281 190.678Z" stroke="#45413C" stroke-width="6" stroke-linecap="round" stroke-linejoin="round"/>
<path d="M400.436 85.5934C391.804 77.1853 381.308 70.9347 369.803 67.3506C358.298 63.7665 346.11 62.9503 334.23 64.9684L330.723 95.9059C330.579 97.0238 330.699 98.1601 331.072 99.2235C331.446 100.287 332.064 101.248 332.876 102.03C333.688 102.812 334.671 103.393 335.748 103.726C336.825 104.06 337.965 104.136 339.077 103.95C349.389 102.197 366.198 102.3 374.861 110.962C383.523 119.625 383.73 136.847 381.873 146.85C381.687 147.961 381.764 149.101 382.097 150.178C382.43 151.255 383.011 152.239 383.793 153.051C384.575 153.863 385.536 154.48 386.6 154.854C387.663 155.228 388.799 155.347 389.917 155.203L420.855 151.697C422.841 139.849 422.029 127.701 418.484 116.224C414.938 104.746 408.758 94.2567 400.436 85.5934Z" fill="#00B8F0"/>
<path d="M334.23 64.7623L330.723 95.6998C330.579 96.8177 330.699 97.954 331.072 99.0174C331.446 100.081 332.064 101.042 332.876 101.824C333.688 102.606 334.671 103.187 335.748 103.52C336.825 103.853 337.965 103.93 339.077 103.744C344.974 102.775 350.974 102.601 356.917 103.228L399.405 84.1498C390.757 76.1334 380.381 70.2151 369.079 66.8531C357.777 63.4911 345.853 62.7757 334.23 64.7623Z" fill="#4ACFFF"/>
<path d="M400.436 85.5934C391.804 77.1853 381.308 70.9347 369.803 67.3506C358.298 63.7665 346.11 62.9503 334.23 64.9684L330.723 95.9059C330.579 97.0238 330.699 98.1601 331.072 99.2235C331.446 100.287 332.064 101.248 332.876 102.03C333.688 102.812 334.671 103.393 335.748 103.726C336.825 104.06 337.965 104.136 339.077 103.95C349.389 102.197 366.198 102.3 374.861 110.962C383.523 119.625 383.73 136.847 381.873 146.85C381.687 147.961 381.764 149.101 382.097 150.178C382.43 151.255 383.011 152.239 383.793 153.051C384.575 153.863 385.536 154.48 386.6 154.854C387.663 155.228 388.799 155.347 389.917 155.203L420.855 151.697C422.841 139.849 422.029 127.701 418.484 116.224C414.938 104.746 408.758 94.2567 400.436 85.5934V85.5934Z" stroke="#45413C" stroke-width="6" stroke-linecap="round" stroke-linejoin="round"/>
<path d="M405.281 190.678C417.103 175.448 423.109 156.502 422.22 137.243C421.332 117.984 413.608 99.6713 400.434 85.5939C386.381 72.4047 368.074 64.677 348.821 63.807C329.568 62.937 310.638 68.9821 295.453 80.8501" stroke="#45413C" stroke-width="6" stroke-linecap="round" stroke-linejoin="round"/>
<path d="M94.153 391.875C92.7935 390.524 91.7147 388.917 90.9785 387.147C90.2423 385.377 89.8633 383.479 89.8633 381.563C89.8633 379.646 90.2423 377.748 90.9785 375.978C91.7147 374.208 92.7935 372.601 94.153 371.25L150.356 315.047C151.71 313.693 153.318 312.618 155.087 311.886C156.857 311.153 158.753 310.775 160.669 310.775C162.584 310.775 164.48 311.153 166.25 311.886C168.019 312.618 169.627 313.693 170.981 315.047C172.335 316.401 173.41 318.009 174.142 319.778C174.875 321.548 175.253 323.444 175.253 325.359C175.253 327.275 174.875 329.171 174.142 330.941C173.41 332.71 172.335 334.318 170.981 335.672L114.778 391.875C113.427 393.235 111.82 394.313 110.05 395.05C108.28 395.786 106.382 396.165 104.465 396.165C102.549 396.165 100.651 395.786 98.8809 395.05C97.1111 394.313 95.5043 393.235 94.153 391.875Z" fill="#FF383C" stroke="#45413C" stroke-width="6" stroke-linecap="round" stroke-linejoin="round"/>
</svg>
