<svg width="507" height="507" viewBox="0 0 507 507" fill="none" xmlns="http://www.w3.org/2000/svg">
<path d="M253.502 331.774C286.782 331.774 318.699 344.995 342.232 368.527C365.764 392.06 378.985 423.977 378.985 457.257V477.326H128.02V457.257C128.02 423.977 141.24 392.06 164.773 368.527C188.305 344.995 220.222 331.774 253.502 331.774Z" fill="white"/>
<path d="M253.502 331.774C220.222 331.774 188.305 344.995 164.773 368.527C141.24 392.06 128.02 423.977 128.02 457.257V477.326H129.076C132.93 447.043 147.692 419.204 170.596 399.022C193.499 378.84 222.975 367.7 253.502 367.687C284.029 367.7 313.505 378.84 336.409 399.022C359.312 419.204 374.074 447.043 377.928 477.326H378.985V457.257C378.985 423.977 365.764 392.06 342.232 368.527C318.699 344.995 286.782 331.774 253.502 331.774Z" fill="#F0F0F0"/>
<path d="M253.502 331.774C286.782 331.774 318.699 344.995 342.232 368.527C365.764 392.06 378.985 423.977 378.985 457.257V477.326H128.02V457.257C128.02 423.977 141.24 392.06 164.773 368.527C188.305 344.995 220.222 331.774 253.502 331.774V331.774Z" stroke="#45413C" stroke-width="6" stroke-linecap="round" stroke-linejoin="round"/>
<path d="M253.501 289.103C246.385 289.103 239.561 291.929 234.53 296.96C229.498 301.992 226.672 308.816 226.672 315.931V346.034C226.672 353.15 229.498 359.974 234.53 365.005C239.561 370.037 246.385 372.863 253.501 372.863C260.616 372.863 267.44 370.037 272.471 365.005C277.503 359.974 280.329 353.15 280.329 346.034V315.931C280.329 308.816 277.503 301.992 272.471 296.96C267.44 291.929 260.616 289.103 253.501 289.103Z" fill="#FFB59E" stroke="#45413C" stroke-width="6" stroke-linecap="round" stroke-linejoin="round"/>
<path d="M180.199 477.326V451.87" stroke="#45413C" stroke-width="6" stroke-linecap="round" stroke-linejoin="round"/>
<path d="M326.805 477.326V451.87" stroke="#45413C" stroke-width="6" stroke-linecap="round" stroke-linejoin="round"/>
<path d="M226.672 331.774C226.672 343.393 234.383 352.899 253.501 352.899C272.619 352.899 280.33 343.499 280.33 331.774C285.417 337.253 288.214 344.472 288.146 351.949C288.146 365.363 272.619 373.074 253.501 373.074C234.383 373.074 218.856 364.941 218.856 351.949C218.722 344.46 221.528 337.218 226.672 331.774Z" fill="#00DFEB" stroke="#45413C" stroke-width="6" stroke-linecap="round" stroke-linejoin="round"/>
<path d="M253.5 372.968H282.864C284.953 372.954 287.025 373.354 288.959 374.144C290.894 374.934 292.653 376.099 294.135 377.571C295.618 379.044 296.794 380.795 297.597 382.724C298.4 384.653 298.813 386.722 298.813 388.812V477.326" fill="white"/>
<path d="M253.5 372.968H282.864C284.953 372.954 287.025 373.354 288.959 374.144C290.894 374.934 292.653 376.099 294.135 377.571C295.618 379.044 296.794 380.795 297.597 382.724C298.4 384.653 298.813 386.722 298.813 388.812V477.326" stroke="#45413C" stroke-width="6" stroke-linecap="round" stroke-linejoin="round"/>
<path d="M253.5 372.968V352.794" stroke="#45413C" stroke-width="6" stroke-linecap="round" stroke-linejoin="round"/>
<path d="M230.688 397.051C228.586 397.051 226.572 397.885 225.086 399.371C223.6 400.857 222.766 402.872 222.766 404.973C222.766 407.074 223.6 409.089 225.086 410.574C226.572 412.06 228.586 412.895 230.688 412.895C232.789 412.895 234.803 412.06 236.289 410.574C237.775 409.089 238.609 407.074 238.609 404.973C238.609 402.872 237.775 400.857 236.289 399.371C234.803 397.885 232.789 397.051 230.688 397.051Z" fill="#45413C"/>
<path d="M276.211 397.051C274.644 397.051 273.113 397.515 271.81 398.386C270.507 399.256 269.492 400.494 268.892 401.941C268.292 403.389 268.136 404.981 268.441 406.518C268.747 408.055 269.501 409.466 270.609 410.574C271.717 411.682 273.129 412.437 274.665 412.742C276.202 413.048 277.795 412.891 279.242 412.292C280.69 411.692 281.927 410.677 282.798 409.374C283.668 408.071 284.133 406.539 284.133 404.973C284.133 402.872 283.298 400.857 281.813 399.371C280.327 397.885 278.312 397.051 276.211 397.051Z" fill="#45413C"/>
<path d="M230.688 433.069C229.121 433.069 227.589 433.534 226.286 434.404C224.984 435.275 223.968 436.512 223.369 437.96C222.769 439.407 222.612 441 222.918 442.537C223.224 444.073 223.978 445.485 225.086 446.593C226.194 447.701 227.605 448.455 229.142 448.761C230.679 449.067 232.272 448.91 233.719 448.31C235.167 447.71 236.404 446.695 237.274 445.392C238.145 444.09 238.609 442.558 238.609 440.991C238.609 438.89 237.775 436.875 236.289 435.39C234.803 433.904 232.789 433.069 230.688 433.069Z" fill="#45413C"/>
<path d="M276.211 433.069C274.11 433.069 272.095 433.904 270.609 435.39C269.124 436.875 268.289 438.89 268.289 440.991C268.289 443.092 269.124 445.107 270.609 446.593C272.095 448.078 274.11 448.913 276.211 448.913C278.312 448.913 280.327 448.078 281.813 446.593C283.298 445.107 284.133 443.092 284.133 440.991C284.133 438.89 283.298 436.875 281.813 435.39C280.327 433.904 278.312 433.069 276.211 433.069Z" fill="#45413C"/>
<path d="M253.501 75C244.807 75.0081 236.148 76.1082 227.729 78.2744C208.082 82.7106 182.521 90.1044 159.389 85.6681C158.488 91.626 158.81 97.7049 160.335 103.534C161.861 109.364 164.558 114.821 168.262 119.574C156.211 136.943 149.761 157.583 149.777 178.724V233.015H357.225V178.724C357.225 151.215 346.297 124.832 326.845 105.38C307.393 85.928 281.01 75 253.501 75Z" fill="#A86C4D"/>
<path d="M253.5 75C244.806 75.0081 236.148 76.1082 227.728 78.2744C208.082 82.7106 182.52 90.1044 159.389 85.6681C157.958 96.7477 160.503 107.975 166.571 117.356C187.261 117.678 207.881 114.865 227.728 109.011C243.048 105.06 259.069 104.669 274.564 107.869C290.058 111.069 304.614 117.775 317.115 127.472C329.616 137.169 339.731 149.6 346.683 163.812C353.636 178.024 357.242 193.639 357.224 209.461V178.724C357.224 151.215 346.296 124.832 326.844 105.38C307.392 85.928 281.01 75 253.5 75Z" fill="#DE926A"/>
<path d="M253.501 75C244.807 75.0081 236.148 76.1082 227.729 78.2744C208.082 82.7106 182.521 90.1044 159.389 85.6681C158.488 91.626 158.81 97.7049 160.335 103.534C161.861 109.364 164.558 114.821 168.262 119.574C156.211 136.943 149.761 157.583 149.777 178.724V233.015H357.225V178.724C357.225 151.215 346.297 124.832 326.845 105.38C307.393 85.928 281.01 75 253.501 75V75Z" stroke="#45413C" stroke-width="6" stroke-linecap="round" stroke-linejoin="round"/>
<path d="M368.317 225.094C367.803 221.215 366.125 217.583 363.503 214.679C360.882 211.775 357.441 209.734 353.635 208.827L347.403 207.137C342.811 205.84 338.773 203.07 335.91 199.253C333.047 195.436 331.518 190.784 331.559 186.012V164.465C331.547 160.109 330.104 155.878 327.451 152.423C324.798 148.968 321.083 146.482 316.877 145.347C296.736 153.387 275.185 157.302 253.502 156.86C231.82 157.302 210.269 153.387 190.127 145.347C185.902 146.462 182.163 148.94 179.49 152.397C176.816 155.853 175.358 160.095 175.34 164.465V186.224C175.38 190.995 173.852 195.647 170.989 199.464C168.126 203.281 164.088 206.052 159.496 207.349L153.264 209.039C149.458 209.945 146.017 211.986 143.396 214.89C140.774 217.795 139.096 221.426 138.582 225.305C138.3 227.979 138.585 230.682 139.418 233.239C140.252 235.795 141.615 238.147 143.42 240.14C145.224 242.134 147.428 243.725 149.889 244.808C152.35 245.892 155.012 246.445 157.7 246.43H158.862C161.334 269.779 172.359 291.387 189.813 307.092C207.268 322.796 229.917 331.486 253.397 331.486C276.876 331.486 299.525 322.796 316.98 307.092C334.434 291.387 345.459 269.779 347.931 246.43H349.093C351.81 246.463 354.504 245.917 356.994 244.827C359.483 243.737 361.712 242.129 363.531 240.11C365.35 238.091 366.718 235.707 367.543 233.118C368.368 230.529 368.632 227.793 368.317 225.094Z" fill="#FFCEBF" stroke="#45413C" stroke-width="6" stroke-linecap="round" stroke-linejoin="round"/>
<path d="M196.149 222.875C196.149 224.484 196.626 226.056 197.52 227.394C198.413 228.731 199.684 229.773 201.17 230.389C202.656 231.005 204.291 231.166 205.869 230.852C207.447 230.538 208.896 229.763 210.033 228.626C211.171 227.489 211.945 226.039 212.259 224.462C212.573 222.884 212.412 221.249 211.796 219.763C211.181 218.276 210.138 217.006 208.801 216.113C207.463 215.219 205.891 214.742 204.282 214.742C203.21 214.728 202.146 214.928 201.153 215.332C200.16 215.736 199.258 216.334 198.5 217.092C197.742 217.85 197.143 218.753 196.739 219.746C196.336 220.739 196.135 221.803 196.149 222.875Z" fill="#45413C" stroke="#45413C" stroke-width="6" stroke-linecap="round" stroke-linejoin="round"/>
<path d="M310.856 222.875C310.856 224.484 310.379 226.056 309.485 227.394C308.592 228.731 307.322 229.773 305.835 230.389C304.349 231.005 302.714 231.166 301.136 230.852C299.559 230.538 298.109 229.763 296.972 228.626C295.835 227.489 295.06 226.039 294.746 224.462C294.432 222.884 294.593 221.249 295.209 219.763C295.825 218.276 296.867 217.006 298.204 216.113C299.542 215.219 301.114 214.742 302.723 214.742C303.795 214.728 304.859 214.928 305.852 215.332C306.845 215.736 307.748 216.334 308.506 217.092C309.264 217.85 309.862 218.753 310.266 219.746C310.67 220.739 310.87 221.803 310.856 222.875Z" fill="#45413C" stroke="#45413C" stroke-width="6" stroke-linecap="round" stroke-linejoin="round"/>
<path d="M223.504 272.413C222.833 272.413 222.171 272.565 221.567 272.858C220.963 273.15 220.434 273.576 220.019 274.103C219.576 274.601 219.252 275.191 219.069 275.831C218.886 276.471 218.85 277.144 218.962 277.8C220.389 285.925 224.633 293.287 230.951 298.592C237.268 303.896 245.253 306.804 253.502 306.804C261.751 306.804 269.736 303.896 276.053 298.592C282.37 293.287 286.615 285.925 288.041 277.8C288.154 277.144 288.117 276.471 287.934 275.831C287.751 275.191 287.427 274.601 286.985 274.103C286.56 273.587 286.028 273.169 285.426 272.878C284.825 272.586 284.168 272.428 283.499 272.413H223.504Z" fill="#FF6242"/>
<path d="M253.5 287.201C243.964 286.828 234.582 289.695 226.883 295.334C230.211 299.041 234.283 302.005 238.832 304.035C243.382 306.064 248.307 307.113 253.289 307.113C258.271 307.113 263.196 306.064 267.746 304.035C272.296 302.005 276.367 299.041 279.695 295.334C272.111 289.786 262.893 286.924 253.5 287.201Z" fill="#FFA694"/>
<path d="M223.504 272.413C222.833 272.413 222.171 272.565 221.567 272.858C220.963 273.15 220.434 273.576 220.019 274.103C219.576 274.601 219.252 275.191 219.069 275.831C218.886 276.471 218.85 277.144 218.962 277.8C220.389 285.925 224.633 293.287 230.951 298.592C237.268 303.896 245.253 306.804 253.502 306.804C261.751 306.804 269.736 303.896 276.053 298.592C282.37 293.287 286.615 285.925 288.041 277.8C288.154 277.144 288.117 276.471 287.934 275.831C287.751 275.191 287.427 274.601 286.985 274.103C286.56 273.587 286.028 273.169 285.426 272.878C284.825 272.586 284.168 272.428 283.499 272.413H223.504Z" stroke="#45413C" stroke-width="6" stroke-linecap="round" stroke-linejoin="round"/>
<path d="M180.199 257.52C180.199 259.201 181.312 260.813 183.293 262.001C185.274 263.19 187.96 263.858 190.762 263.858C193.563 263.858 196.25 263.19 198.231 262.001C200.211 260.813 201.324 259.201 201.324 257.52C201.324 255.839 200.211 254.227 198.231 253.039C196.25 251.85 193.563 251.183 190.762 251.183C187.96 251.183 185.274 251.85 183.293 253.039C181.312 254.227 180.199 255.839 180.199 257.52Z" fill="#FFB59E"/>
<path d="M305.68 257.52C305.68 259.201 306.793 260.813 308.773 262.001C310.754 263.19 313.441 263.858 316.242 263.858C319.044 263.858 321.73 263.19 323.711 262.001C325.692 260.813 326.805 259.201 326.805 257.52C326.805 255.839 325.692 254.227 323.711 253.039C321.73 251.85 319.044 251.183 316.242 251.183C313.441 251.183 310.754 251.85 308.773 253.039C306.793 254.227 305.68 255.839 305.68 257.52Z" fill="#FFB59E"/>
<path d="M316.875 97.9209C316.875 126.123 288.462 148.938 253.5 148.938C218.538 148.938 190.125 126.123 190.125 97.9209" stroke="#45413C" stroke-width="6" stroke-linecap="round" stroke-linejoin="round"/>
</svg>
