<svg width="495" height="495" viewBox="0 0 495 495" fill="none" xmlns="http://www.w3.org/2000/svg">
<path d="M30 30H464.053V464.053H30V30Z" fill="white"/>
<path d="M426.928 432.703H67.2281C57.5152 432.569 48.2394 428.644 41.3803 421.766C34.5213 414.888 30.6223 405.601 30.5156 395.888V426.825C30.5156 436.699 34.4379 446.168 41.4195 453.149C48.4011 460.131 57.8702 464.053 67.7438 464.053H426.928C436.802 464.053 446.271 460.131 453.252 453.149C460.234 446.168 464.156 436.699 464.156 426.825V395.888C464.048 405.69 460.078 415.053 453.108 421.946C446.138 428.838 436.731 432.704 426.928 432.703Z" fill="#F0F0F0"/>
<path d="M30 30H464.053V464.053H30V30Z" stroke="#45413C" stroke-width="6" stroke-linecap="round" stroke-linejoin="round"/>
<path d="M61.0391 61.041H433.114V433.116H61.0391V61.041Z" fill="#00B8F0"/>
<path d="M420.741 401.766H73.4156C70.2584 401.661 67.2606 400.353 65.0365 398.11C62.8124 395.867 61.5304 392.858 61.4531 389.7V420.638C61.5304 423.796 62.8124 426.804 65.0365 429.048C67.2606 431.291 70.2584 432.599 73.4156 432.703H420.741C424.023 432.703 427.17 431.399 429.491 429.079C431.812 426.758 433.116 423.61 433.116 420.328V389.391C433.116 392.673 431.812 395.82 429.491 398.141C427.17 400.462 424.023 401.766 420.741 401.766Z" fill="#009FD9"/>
<path d="M61.0391 61.041H433.114V433.116H61.0391V61.041Z" stroke="#45413C" stroke-width="6" stroke-linecap="round" stroke-linejoin="round"/>
<path d="M222.228 247.078L141.688 433.116H191.291L247.081 271.931L302.872 433.116H352.475L271.934 247.078H222.228Z" fill="#FF6242"/>
<path d="M155.094 402.075L141.688 433.116H191.291L202.016 402.075H155.094Z" fill="#E04122"/>
<path d="M292.141 402.075L302.866 433.116H352.469L339.062 402.075H292.141Z" fill="#E04122"/>
<path d="M222.228 245.531L141.688 431.569H191.291L247.081 270.384L302.872 431.569H352.475L271.934 245.531H222.228Z" stroke="#45413C" stroke-width="6" stroke-linecap="round" stroke-linejoin="round"/>
<path d="M247.075 116.831C221.315 116.831 196.133 124.47 174.714 138.782C153.295 153.093 136.601 173.435 126.743 197.235C116.885 221.034 114.305 247.222 119.331 272.488C124.356 297.753 136.761 320.961 154.977 339.176C173.192 357.392 196.4 369.797 221.665 374.822C246.931 379.848 273.119 377.268 296.918 367.41C320.718 357.552 341.06 340.858 355.371 319.439C369.683 298.02 377.322 272.838 377.322 247.078C377.295 212.543 363.563 179.43 339.143 155.01C314.723 130.59 281.61 116.858 247.075 116.831ZM247.075 346.284C227.454 346.284 208.273 340.466 191.959 329.565C175.645 318.664 162.929 303.17 155.42 285.043C147.912 266.915 145.947 246.968 149.775 227.724C153.603 208.48 163.051 190.803 176.926 176.929C190.8 163.054 208.477 153.606 227.721 149.778C246.965 145.95 266.912 147.915 285.04 155.423C303.167 162.932 318.661 175.648 329.562 191.962C340.463 208.276 346.281 227.457 346.281 247.078C346.281 273.389 335.829 298.623 317.224 317.227C298.62 335.832 273.386 346.284 247.075 346.284Z" fill="white" stroke="#45413C" stroke-width="6" stroke-linecap="round" stroke-linejoin="round"/>
<path d="M216.039 364.95C216.039 373.182 219.309 381.078 225.131 386.899C230.952 392.72 238.847 395.99 247.08 395.99C255.312 395.99 263.207 392.72 269.029 386.899C274.85 381.078 278.12 373.182 278.12 364.95C278.12 356.717 274.85 348.822 269.029 343.001C263.207 337.18 255.312 333.909 247.08 333.909C238.847 333.909 230.952 337.18 225.131 343.001C219.309 348.822 216.039 356.717 216.039 364.95Z" fill="#FF6242"/>
<path d="M163.24 165.919C168.523 168.991 172.778 173.559 175.467 179.047C178.157 184.534 179.161 190.696 178.353 196.754C177.545 202.811 174.961 208.494 170.927 213.085C166.893 217.676 161.59 220.969 155.686 222.549C149.783 224.129 143.543 223.925 137.755 221.963C131.967 220.001 126.89 216.369 123.164 211.524C119.439 206.68 117.231 200.841 116.82 194.743C116.409 188.646 117.813 182.563 120.856 177.263C122.885 173.726 125.594 170.626 128.826 168.14C132.058 165.654 135.75 163.832 139.689 162.777C143.628 161.723 147.736 161.458 151.778 161.997C155.82 162.536 159.715 163.869 163.24 165.919Z" fill="#FF6242"/>
<path d="M330.918 165.919C336.241 162.925 342.33 161.573 348.419 162.033C354.508 162.494 360.325 164.746 365.136 168.506C369.948 172.266 373.539 177.366 375.457 183.164C377.376 188.961 377.535 195.196 375.917 201.084C374.298 206.972 370.973 212.25 366.36 216.251C361.748 220.253 356.054 222.8 349.996 223.572C343.939 224.344 337.788 223.306 332.32 220.589C326.851 217.872 322.309 213.597 319.265 208.303C317.228 204.76 315.913 200.848 315.397 196.793C314.88 192.739 315.172 188.622 316.255 184.681C317.339 180.74 319.193 177.053 321.709 173.833C324.226 170.612 327.356 167.922 330.918 165.919Z" fill="#FF6242"/>
<path d="M247.077 355.565C253.459 355.583 259.68 357.575 264.887 361.268C270.093 364.96 274.03 370.173 276.158 376.19C277.384 372.887 278.046 369.401 278.117 365.878C278.117 357.673 274.858 349.804 269.056 344.002C263.254 338.2 255.385 334.94 247.18 334.94C238.975 334.94 231.105 338.2 225.304 344.002C219.502 349.804 216.242 357.673 216.242 365.878C216.313 369.401 216.975 372.887 218.202 376.19C220.317 370.206 224.223 365.016 229.388 361.327C234.554 357.637 240.729 355.626 247.077 355.565Z" fill="#FF866E"/>
<path d="M120.855 199.022C122.884 195.486 125.593 192.386 128.825 189.9C132.058 187.414 135.749 185.591 139.688 184.537C143.627 183.483 147.735 183.218 151.777 183.757C155.819 184.296 159.714 185.629 163.239 187.679C169.462 191.275 174.239 196.927 176.748 203.663C178.472 198.986 179.039 193.963 178.403 189.02C177.768 184.076 175.947 179.36 173.096 175.272C170.246 171.184 166.45 167.845 162.031 165.539C157.613 163.233 152.703 162.029 147.719 162.029C142.735 162.029 137.825 163.233 133.406 165.539C128.988 167.845 125.192 171.184 122.341 175.272C119.491 179.36 117.67 184.076 117.034 189.02C116.398 193.963 116.966 198.986 118.689 203.663C119.326 202.078 120.049 200.528 120.855 199.022Z" fill="#FF866E"/>
<path d="M330.917 187.679C334.442 185.629 338.337 184.296 342.379 183.757C346.421 183.218 350.529 183.483 354.468 184.537C358.407 185.591 362.099 187.414 365.331 189.9C368.563 192.386 371.272 195.486 373.302 199.022C374.108 200.528 374.831 202.078 375.467 203.663C377.19 198.986 377.758 193.963 377.122 189.02C376.486 184.076 374.666 179.36 371.815 175.272C368.964 171.184 365.168 167.845 360.75 165.539C356.331 163.233 351.421 162.029 346.437 162.029C341.454 162.029 336.544 163.233 332.125 165.539C327.707 167.845 323.911 171.184 321.06 175.272C318.209 179.36 316.389 184.076 315.753 189.02C315.117 193.963 315.685 198.986 317.408 203.663C319.917 196.927 324.694 191.275 330.917 187.679Z" fill="#FF866E"/>
<path d="M222.227 247.078C222.227 250.341 222.869 253.573 224.118 256.589C225.367 259.604 227.198 262.344 229.506 264.652C231.814 266.959 234.553 268.79 237.569 270.039C240.584 271.288 243.816 271.931 247.08 271.931C250.343 271.931 253.575 271.288 256.591 270.039C259.606 268.79 262.346 266.959 264.654 264.652C266.961 262.344 268.792 259.604 270.041 256.589C271.29 253.573 271.933 250.341 271.933 247.078C271.933 243.814 271.29 240.582 270.041 237.567C268.792 234.552 266.961 231.812 264.654 229.504C262.346 227.196 259.606 225.365 256.591 224.116C253.575 222.867 250.343 222.225 247.08 222.225C243.816 222.225 240.584 222.867 237.569 224.116C234.553 225.365 231.814 227.196 229.506 229.504C227.198 231.812 225.367 234.552 224.118 237.567C222.869 240.582 222.227 243.814 222.227 247.078Z" fill="#FF6242"/>
<path d="M247.08 240.891C252.189 240.912 257.169 242.507 261.339 245.46C265.51 248.412 268.669 252.578 270.386 257.391C271.375 254.644 271.898 251.751 271.933 248.832C271.933 242.24 269.314 235.919 264.653 231.258C259.993 226.597 253.671 223.979 247.08 223.979C240.488 223.979 234.167 226.597 229.506 231.258C224.845 235.919 222.227 242.24 222.227 248.832C222.262 251.751 222.784 254.644 223.773 257.391C225.491 252.578 228.65 248.412 232.82 245.46C236.991 242.507 241.97 240.912 247.08 240.891Z" fill="#FF866E"/>
<path d="M163.24 165.919C168.523 168.991 172.778 173.559 175.467 179.047C178.157 184.534 179.161 190.696 178.353 196.754C177.545 202.811 174.961 208.494 170.927 213.085C166.893 217.676 161.59 220.969 155.686 222.549C149.783 224.129 143.543 223.925 137.755 221.963C131.967 220.001 126.89 216.369 123.164 211.524C119.439 206.68 117.231 200.841 116.82 194.743C116.409 188.646 117.813 182.563 120.856 177.263C122.885 173.726 125.594 170.626 128.826 168.14C132.058 165.654 135.75 163.832 139.689 162.777C143.628 161.723 147.736 161.458 151.778 161.997C155.82 162.536 159.715 163.869 163.24 165.919V165.919Z" stroke="#45413C" stroke-width="6" stroke-linecap="round" stroke-linejoin="round"/>
<path d="M330.918 165.919C336.241 162.925 342.33 161.573 348.419 162.033C354.508 162.494 360.325 164.746 365.136 168.506C369.948 172.266 373.539 177.366 375.457 183.164C377.376 188.961 377.535 195.196 375.917 201.084C374.298 206.972 370.973 212.25 366.36 216.251C361.748 220.253 356.054 222.8 349.996 223.572C343.939 224.344 337.788 223.306 332.32 220.589C326.851 217.872 322.309 213.597 319.265 208.303C317.228 204.76 315.913 200.848 315.397 196.793C314.88 192.739 315.172 188.622 316.255 184.681C317.339 180.74 319.193 177.053 321.709 173.833C324.226 170.612 327.356 167.922 330.918 165.919Z" stroke="#45413C" stroke-width="6" stroke-linecap="round" stroke-linejoin="round"/>
<path d="M222.227 248.625C222.227 251.888 222.869 255.12 224.118 258.135C225.367 261.151 227.198 263.891 229.506 266.198C231.814 268.506 234.553 270.337 237.569 271.586C240.584 272.835 243.816 273.478 247.08 273.478C250.343 273.478 253.575 272.835 256.591 271.586C259.606 270.337 262.346 268.506 264.654 266.198C266.961 263.891 268.792 261.151 270.041 258.135C271.29 255.12 271.933 251.888 271.933 248.625C271.933 245.361 271.29 242.129 270.041 239.114C268.792 236.098 266.961 233.359 264.654 231.051C262.346 228.743 259.606 226.912 256.591 225.663C253.575 224.414 250.343 223.771 247.08 223.771C243.816 223.771 240.584 224.414 237.569 225.663C234.553 226.912 231.814 228.743 229.506 231.051C227.198 233.359 225.367 236.098 224.118 239.114C222.869 242.129 222.227 245.361 222.227 248.625V248.625Z" stroke="#45413C" stroke-width="6" stroke-linecap="round" stroke-linejoin="round"/>
<path d="M178.914 209.85L222.227 234.703" stroke="#45413C" stroke-width="6" stroke-linecap="round" stroke-linejoin="round"/>
<path d="M271.93 234.703L315.242 209.85" stroke="#45413C" stroke-width="6" stroke-linecap="round" stroke-linejoin="round"/>
<path d="M216.039 364.95C216.039 373.182 219.309 381.078 225.131 386.899C230.952 392.72 238.847 395.99 247.08 395.99C255.312 395.99 263.207 392.72 269.029 386.899C274.85 381.078 278.12 373.182 278.12 364.95C278.12 356.717 274.85 348.822 269.029 343.001C263.207 337.18 255.312 333.909 247.08 333.909C238.847 333.909 230.952 337.18 225.131 343.001C219.309 348.822 216.039 356.717 216.039 364.95V364.95Z" stroke="#45413C" stroke-width="6" stroke-linecap="round" stroke-linejoin="round"/>
<path d="M247.078 276.435V332.225" stroke="#45413C" stroke-width="6" stroke-linecap="round" stroke-linejoin="round"/>
</svg>
