<svg width="497" height="497" viewBox="0 0 497 497" fill="none" xmlns="http://www.w3.org/2000/svg">
<path d="M161.111 253.227L297.255 213.029C299.178 212.461 301.247 212.68 303.008 213.638C304.769 214.596 306.077 216.215 306.645 218.137L359.071 395.692C359.602 397.492 359.774 399.378 359.576 401.244C359.378 403.11 358.815 404.919 357.918 406.567C357.021 408.215 355.809 409.671 354.349 410.85C352.89 412.03 351.213 412.911 349.413 413.442L226.177 449.829C224.378 450.36 222.491 450.532 220.625 450.334C218.759 450.137 216.95 449.573 215.302 448.677C213.654 447.78 212.199 446.567 211.019 445.108C209.839 443.648 208.959 441.971 208.427 440.172L155.972 262.518C155.405 260.595 155.624 258.526 156.582 256.765C157.54 255.004 159.159 253.696 161.081 253.128L161.111 253.227Z" fill="#87898C"/>
<path d="M358.979 395.735L306.587 218.162C306.033 216.242 304.741 214.621 302.995 213.65C301.249 212.68 299.19 212.441 297.268 212.984L273.246 220.129L331.851 418.618L349.349 413.441C351.149 412.919 352.827 412.045 354.287 410.87C355.747 409.695 356.96 408.242 357.855 406.596C358.751 404.95 359.311 403.142 359.504 401.278C359.696 399.414 359.518 397.53 358.979 395.735Z" fill="#BDBEC0"/>
<path d="M161.111 253.227L297.255 213.029C299.178 212.461 301.247 212.68 303.008 213.638C304.769 214.596 306.077 216.215 306.645 218.137L359.071 395.692C359.602 397.492 359.774 399.378 359.576 401.244C359.378 403.11 358.815 404.919 357.918 406.567C357.021 408.215 355.809 409.671 354.349 410.85C352.89 412.03 351.213 412.911 349.413 413.442L226.177 449.829C224.378 450.36 222.491 450.532 220.625 450.334C218.759 450.137 216.95 449.573 215.302 448.677C213.654 447.78 212.199 446.567 211.019 445.108C209.839 443.648 208.959 441.971 208.427 440.172L155.972 262.518C155.405 260.595 155.624 258.526 156.582 256.765C157.54 255.004 159.159 253.696 161.081 253.128L161.111 253.227Z" stroke="#45413C" stroke-width="7" stroke-linecap="round" stroke-linejoin="round"/>
<path d="M297.58 212.881L160.698 253.366L158.006 222.924C157.846 221.284 158.266 219.64 159.193 218.278C160.12 216.916 161.495 215.922 163.08 215.469L275.112 182.336C276.687 181.884 278.369 181.987 279.877 182.628C281.385 183.269 282.627 184.409 283.395 185.856L297.58 212.881Z" fill="#DAEDF7"/>
<path d="M244.566 191.448L258.855 224.478L297.787 212.882L283.395 186.375C282.627 184.927 281.385 183.787 279.877 183.146C278.369 182.505 276.686 182.402 275.111 182.854L244.566 191.863V191.448Z" fill="#E8F4FA"/>
<path d="M297.58 212.881L160.698 253.366L158.006 222.924C157.846 221.284 158.266 219.64 159.193 218.278C160.12 216.916 161.495 215.922 163.08 215.469L275.112 182.336C276.687 181.884 278.369 181.987 279.877 182.628C281.386 183.269 282.627 184.409 283.395 185.856L297.58 212.881Z" stroke="#45413C" stroke-width="7" stroke-linecap="round" stroke-linejoin="round"/>
<path d="M267.035 184.718L171.155 213.088L120.834 42.6587C120.117 40.0873 120.129 37.3671 120.869 34.8021C121.609 32.2371 123.048 29.9286 125.024 28.1344C127.001 26.3403 129.438 25.1313 132.062 24.6426C134.687 24.1539 137.396 24.4048 139.886 25.3672L211.329 53.8412C217.339 56.2501 222.724 59.9889 227.082 64.7769C231.439 69.565 234.656 75.2779 236.49 81.4868L267.035 184.718Z" fill="#34C759"/>
<path d="M126.632 62.1245L188.757 86.871C194.767 89.2799 200.152 93.0187 204.51 97.8067C208.867 102.595 212.084 108.308 213.918 114.517L237.215 193.312L266.931 184.511L236.386 80.9691C234.496 74.8657 231.264 69.2622 226.929 64.5685C222.594 59.8748 217.264 56.2096 211.329 53.8412L139.886 25.3672C137.396 24.4048 134.687 24.1539 132.062 24.6426C129.438 25.1313 127.001 26.3403 125.024 28.1344C123.048 29.9286 121.609 32.2372 120.869 34.8021C120.129 37.3671 120.117 40.0873 120.834 42.6587L126.632 62.1245Z" fill="#60FF88"/>
<path d="M267.035 184.718L171.155 213.088L120.834 42.6587C120.117 40.0873 120.129 37.3671 120.869 34.8021C121.609 32.2371 123.048 29.9286 125.024 28.1344C127.001 26.3403 129.438 25.1313 132.062 24.6426C134.687 24.1539 137.396 24.4048 139.886 25.3672L211.329 53.8412C217.339 56.2501 222.724 59.9889 227.082 64.7769C231.439 69.565 234.656 75.2779 236.49 81.4868L267.035 184.718Z" stroke="#45413C" stroke-width="7" stroke-linecap="round" stroke-linejoin="round"/>
<path d="M186.242 364.838L336.786 320.388L346.902 354.647L196.358 399.098L186.242 364.838Z" fill="#34C759"/>
<path d="M346.866 354.733L315.7 363.845L305.656 329.676L336.822 320.461L346.866 354.733Z" fill="#60FF88"/>
<path d="M186.242 364.838L336.786 320.388L346.902 354.647L196.358 399.098L186.242 364.838Z" stroke="#45413C" stroke-width="7" stroke-linecap="round" stroke-linejoin="round"/>
</svg>
