<svg width="496" height="496" viewBox="0 0 496 496" fill="none" xmlns="http://www.w3.org/2000/svg">
<path d="M57 247.999C57 295.207 75.7535 340.482 109.135 373.863C142.516 407.245 187.791 425.998 235 425.998C282.208 425.998 327.483 407.245 360.865 373.863C394.246 340.482 413 295.207 413 247.999C413 200.791 394.246 155.516 360.865 122.135C327.483 88.7534 282.208 70 235 70C187.791 70 142.516 88.7534 109.135 122.135C75.7535 155.516 57 200.791 57 247.999Z" fill="#FFE500"/>
<path d="M235 70C199.795 70 165.38 80.4395 136.109 99.9982C106.837 119.557 84.0219 147.357 70.5495 179.882C57.0771 212.407 53.5521 248.196 60.4203 282.725C67.2885 317.253 84.2413 348.97 109.135 373.863C134.029 398.757 165.745 415.71 200.274 422.578C234.803 429.446 270.592 425.921 303.118 412.449C335.643 398.976 363.443 376.162 383.002 346.89C402.56 317.618 413 283.204 413 247.999C413 200.791 394.246 155.516 360.865 122.135C327.483 88.7534 282.209 70 235 70ZM235 399.298C202.875 399.298 171.472 389.772 144.762 371.925C118.051 354.077 97.2325 328.71 84.9389 299.031C72.6454 269.352 69.4288 236.694 75.696 205.187C81.9632 173.68 97.4327 144.738 120.148 122.023C142.864 99.3075 171.805 83.8381 203.312 77.5709C234.82 71.3037 267.478 74.5203 297.157 86.8138C326.837 99.1073 352.204 119.926 370.051 146.636C387.899 173.347 397.425 204.75 397.425 236.874C397.425 279.952 380.312 321.265 349.852 351.725C319.391 382.186 278.078 399.298 235 399.298Z" fill="#EBCB00"/>
<path d="M181.598 105.601C181.598 109.142 187.224 112.537 197.238 115.041C207.253 117.544 220.835 118.951 234.998 118.951C249.16 118.951 262.743 117.544 272.757 115.041C282.772 112.537 288.398 109.142 288.398 105.601C288.398 102.06 282.772 98.6647 272.757 96.1611C262.743 93.6575 249.16 92.251 234.998 92.251C220.835 92.251 207.253 93.6575 197.238 96.1611C187.224 98.6647 181.598 102.06 181.598 105.601Z" fill="#FFF48C"/>
<path d="M57 247.999C57 295.207 75.7535 340.482 109.135 373.863C142.516 407.245 187.791 425.998 235 425.998C282.208 425.998 327.483 407.245 360.865 373.863C394.246 340.482 413 295.207 413 247.999C413 200.791 394.246 155.516 360.865 122.135C327.483 88.7534 282.208 70 235 70C187.791 70 142.516 88.7534 109.135 122.135C75.7535 155.516 57 200.791 57 247.999V247.999Z" stroke="#45413C" stroke-width="7" stroke-linecap="round" stroke-linejoin="round"/>
<path d="M364.055 292.5C364.055 299.887 354.087 305.85 341.805 305.85C329.523 305.85 319.555 299.887 319.555 292.5C319.555 285.113 329.523 279.15 341.805 279.15C354.087 279.15 364.055 285.113 364.055 292.5Z" fill="#FFAA54"/>
<path d="M105.949 292.5C105.949 299.887 115.917 305.85 128.199 305.85C140.481 305.85 150.449 299.887 150.449 292.5C150.449 285.113 140.481 279.15 128.199 279.15C115.917 279.15 105.949 285.113 105.949 292.5Z" fill="#FFAA54"/>
<path d="M150.452 212.4C150.452 214.16 149.93 215.881 148.952 217.345C147.974 218.808 146.584 219.949 144.958 220.622C143.332 221.296 141.542 221.472 139.816 221.129C138.09 220.785 136.504 219.938 135.259 218.693C134.014 217.448 133.167 215.863 132.823 214.136C132.48 212.41 132.656 210.62 133.33 208.994C134.003 207.368 135.144 205.978 136.608 205C138.071 204.022 139.792 203.5 141.552 203.5C143.913 203.5 146.177 204.438 147.846 206.107C149.515 207.776 150.452 210.04 150.452 212.4Z" fill="#45413C" stroke="#45413C" stroke-width="7" stroke-linecap="round" stroke-linejoin="round"/>
<path d="M319.555 239.1C319.555 240.86 320.077 242.581 321.055 244.045C322.033 245.508 323.423 246.649 325.049 247.323C326.675 247.996 328.465 248.172 330.191 247.829C331.917 247.486 333.503 246.638 334.748 245.393C335.993 244.149 336.84 242.563 337.184 240.836C337.527 239.11 337.351 237.321 336.677 235.694C336.004 234.068 334.863 232.678 333.399 231.7C331.936 230.722 330.215 230.2 328.455 230.2C326.094 230.2 323.831 231.138 322.161 232.807C320.492 234.476 319.555 236.74 319.555 239.1Z" fill="#45413C" stroke="#45413C" stroke-width="7" stroke-linecap="round" stroke-linejoin="round"/>
<path d="M399.652 181.25H413.002C416.543 181.25 419.939 182.657 422.442 185.16C424.946 187.664 426.352 191.059 426.352 194.6V207.95C426.352 211.49 424.946 214.886 422.442 217.39C419.939 219.893 416.543 221.3 413.002 221.3H399.652V181.25Z" fill="#87898C"/>
<path d="M413.002 181.25H399.652V194.6H413.002C416.543 194.6 419.939 196.006 422.442 198.51C424.946 201.014 426.352 204.409 426.352 207.95V194.6C426.352 191.059 424.946 187.664 422.442 185.16C419.939 182.657 416.543 181.25 413.002 181.25Z" fill="#BDBEC0"/>
<path d="M399.652 181.25H413.002C416.543 181.25 419.939 182.657 422.442 185.16C424.946 187.664 426.352 191.059 426.352 194.6V207.95C426.352 211.49 424.946 214.886 422.442 217.39C419.939 219.893 416.543 221.3 413.002 221.3H399.652V181.25Z" stroke="#45413C" stroke-width="7" stroke-linecap="round" stroke-linejoin="round"/>
<path d="M257.25 203.499C257.25 213.434 259.207 223.271 263.009 232.449C266.81 241.627 272.383 249.967 279.407 256.992C286.432 264.016 294.772 269.589 303.95 273.39C313.128 277.192 322.965 279.149 332.9 279.149C342.834 279.149 352.672 277.192 361.85 273.39C371.028 269.589 379.368 264.016 386.393 256.992C393.417 249.967 398.99 241.627 402.791 232.449C406.593 223.271 408.55 213.434 408.55 203.499C408.55 193.565 406.593 183.728 402.791 174.549C398.99 165.371 393.417 157.032 386.393 150.007C379.368 142.982 371.028 137.41 361.85 133.608C352.672 129.806 342.834 127.85 332.9 127.85C322.965 127.85 313.128 129.806 303.95 133.608C294.772 137.41 286.432 142.982 279.407 150.007C272.383 157.032 266.81 165.371 263.009 174.549C259.207 183.728 257.25 193.565 257.25 203.499Z" fill="#87898C"/>
<path d="M332.9 145.65C351.421 145.652 369.298 152.448 383.142 164.75C396.987 177.053 405.837 194.007 408.016 212.399C408.016 209.462 408.55 206.525 408.55 203.499C408.55 183.436 400.58 164.194 386.393 150.007C372.205 135.82 352.964 127.85 332.9 127.85C312.836 127.85 293.594 135.82 279.407 150.007C265.22 164.194 257.25 183.436 257.25 203.499C257.25 206.525 257.25 209.462 257.784 212.399C259.963 194.007 268.813 177.053 282.658 164.75C296.502 152.448 314.379 145.652 332.9 145.65Z" fill="#BDBEC0"/>
<path d="M257.25 203.499C257.25 213.434 259.207 223.271 263.009 232.449C266.81 241.627 272.383 249.967 279.407 256.992C286.432 264.016 294.772 269.589 303.95 273.39C313.128 277.192 322.965 279.149 332.9 279.149C342.834 279.149 352.672 277.192 361.85 273.39C371.028 269.589 379.368 264.016 386.393 256.992C393.417 249.967 398.99 241.627 402.791 232.449C406.593 223.271 408.55 213.434 408.55 203.499C408.55 193.565 406.593 183.728 402.791 174.549C398.99 165.371 393.417 157.032 386.393 150.007C379.368 142.982 371.028 137.41 361.85 133.608C352.672 129.806 342.834 127.85 332.9 127.85C322.965 127.85 313.128 129.806 303.95 133.608C294.772 137.41 286.432 142.982 279.407 150.007C272.383 157.032 266.81 165.371 263.009 174.549C259.207 183.728 257.25 193.565 257.25 203.499Z" stroke="#45413C" stroke-width="7" stroke-linecap="round" stroke-linejoin="round"/>
<path d="M275.051 203.5C275.051 218.843 281.146 233.557 291.995 244.406C302.844 255.255 317.558 261.35 332.901 261.35C348.244 261.35 362.958 255.255 373.807 244.406C384.656 233.557 390.751 218.843 390.751 203.5C390.751 188.157 384.656 173.443 373.807 162.594C362.958 151.745 348.244 145.65 332.901 145.65C317.558 145.65 302.844 151.745 291.995 162.594C281.146 173.443 275.051 188.157 275.051 203.5Z" fill="#2A5FD5"/>
<path d="M332.902 145.65C322.783 145.654 312.843 148.311 304.072 153.356C295.302 158.402 288.008 165.66 282.919 174.406C277.83 183.151 275.124 193.079 275.071 203.197C275.018 213.315 277.62 223.27 282.617 232.069L352.215 149.032C346.016 146.816 339.485 145.672 332.902 145.65Z" fill="#399EE2"/>
<path d="M275.051 203.5C275.051 218.843 281.146 233.557 291.995 244.406C302.844 255.255 317.558 261.35 332.901 261.35C348.244 261.35 362.958 255.255 373.807 244.406C384.656 233.557 390.751 218.843 390.751 203.5C390.751 188.157 384.656 173.443 373.807 162.594C362.958 151.745 348.244 145.65 332.901 145.65C317.558 145.65 302.844 151.745 291.995 162.594C281.146 173.443 275.051 188.157 275.051 203.5Z" stroke="#45413C" stroke-width="7" stroke-linecap="round" stroke-linejoin="round"/>
<path d="M426.349 199.051C426.349 199.051 439.699 199.585 439.699 216.851V368.15C440.074 372.92 439.411 377.715 437.754 382.205C436.098 386.694 433.488 390.771 430.104 394.154C426.721 397.538 422.644 400.148 418.154 401.804C413.665 403.461 408.87 404.125 404.1 403.75C399.315 404.187 394.493 403.567 389.975 401.933C385.457 400.299 381.353 397.69 377.956 394.293C374.559 390.896 371.951 386.793 370.316 382.275C368.682 377.757 368.062 372.934 368.5 368.15V365.747" stroke="#45413C" stroke-width="7" stroke-linecap="round" stroke-linejoin="round"/>
<path d="M208.301 311.368C216.646 307.463 225.791 305.573 235.001 305.85C244.21 305.573 253.356 307.463 261.701 311.368" stroke="#45413C" stroke-width="7" stroke-linecap="round" stroke-linejoin="round"/>
<path d="M119.305 190.149C119.305 190.149 123.043 167.899 141.555 167.899C160.067 167.899 163.805 190.149 163.805 190.149" stroke="#45413C" stroke-width="7" stroke-linecap="round" stroke-linejoin="round"/>
</svg>
