<svg width="496" height="496" viewBox="0 0 496 496" fill="none" xmlns="http://www.w3.org/2000/svg">
<path d="M126.585 14.8794C118.155 14.911 109.76 15.9517 101.578 17.9794C82.6681 22.3194 57.9715 29.5527 35.5481 25.2127C34.6526 30.9853 34.9518 36.8803 36.4271 42.5326C37.9024 48.1849 40.5224 53.4741 44.1248 58.0727C32.3778 74.8474 26.0984 94.8407 26.1448 115.319V167.813H227.335V115.319C227.335 102.103 224.727 89.0171 219.66 76.8109C214.593 64.6047 207.167 53.5185 197.807 44.1877C188.447 34.857 177.338 27.4651 165.117 22.4358C152.895 17.4064 139.801 14.8386 126.585 14.8794Z" fill="#A86C4D"/>
<path d="M126.585 14.8794C118.156 14.911 109.761 15.9517 101.579 17.9794C82.6687 22.3194 57.972 29.5527 35.5487 25.2127C34.0356 36.0431 36.495 47.0551 42.472 56.2127C62.4789 56.5817 82.4208 53.8275 101.579 48.0494C109.761 46.0217 118.156 44.981 126.585 44.9494C139.784 44.9086 152.861 47.4697 165.07 52.4861C177.278 57.5025 188.378 64.8759 197.735 74.1848C207.091 83.4936 214.522 94.5555 219.601 106.738C224.68 118.92 227.308 131.984 227.335 145.183V115.319C227.335 102.103 224.727 89.0171 219.66 76.8109C214.593 64.6047 207.167 53.5185 197.808 44.1878C188.448 34.857 177.339 27.4651 165.117 22.4358C152.896 17.4064 139.801 14.8386 126.585 14.8794Z" fill="#DE926A"/>
<path d="M126.585 14.8794C118.155 14.911 109.76 15.9517 101.578 17.9794C82.6681 22.3194 57.9715 29.5527 35.5481 25.2127C34.6526 30.9853 34.9518 36.8803 36.4271 42.5326C37.9024 48.1849 40.5224 53.4741 44.1248 58.0727C32.3778 74.8474 26.0984 94.8407 26.1448 115.319V167.813H227.335V115.319C227.335 102.103 224.727 89.0171 219.66 76.8109C214.593 64.6047 207.167 53.5185 197.807 44.1877C188.447 34.857 177.338 27.4651 165.117 22.4358C152.895 17.4064 139.801 14.8386 126.585 14.8794V14.8794Z" stroke="#45413C" stroke-width="7" stroke-linecap="round" stroke-linejoin="round"/>
<path d="M126.585 263.396C142.529 263.396 158.318 266.537 173.049 272.639C187.78 278.741 201.165 287.684 212.439 298.959C223.714 310.233 232.657 323.618 238.759 338.349C244.861 353.08 248.001 368.869 248.001 384.813V490.833H5.16797V384.813C5.16797 368.869 8.3085 353.08 14.4103 338.349C20.512 323.618 29.4555 310.233 40.7301 298.959C63.5001 276.189 94.3829 263.396 126.585 263.396Z" fill="#FF87AF"/>
<path d="M126.585 263.396C94.3829 263.396 63.5001 276.189 40.7301 298.959C17.96 321.729 5.16797 352.611 5.16797 384.813V421.91C5.16797 389.708 17.96 358.825 40.7301 336.055C63.5001 313.285 94.3829 300.493 126.585 300.493C158.786 300.493 189.669 313.285 212.439 336.055C235.209 358.825 248.001 389.708 248.001 421.91V384.813C248.001 368.869 244.861 353.08 238.759 338.349C232.657 323.618 223.714 310.233 212.439 298.959C201.165 287.684 187.78 278.741 173.049 272.639C158.318 266.537 142.529 263.396 126.585 263.396Z" fill="#FF6196"/>
<path d="M126.585 263.396C142.529 263.396 158.318 266.537 173.049 272.639C187.78 278.741 201.165 287.684 212.439 298.959C223.714 310.233 232.657 323.618 238.759 338.349C244.861 353.08 248.001 368.869 248.001 384.813V490.833H5.16797V384.813C5.16797 368.869 8.3085 353.08 14.4103 338.349C20.512 323.618 29.4555 310.233 40.7301 298.959C63.5001 276.189 94.3829 263.396 126.585 263.396V263.396Z" stroke="#45413C" stroke-width="7" stroke-linecap="round" stroke-linejoin="round"/>
<path d="M100.543 221.96H152.52V303.077H100.543V221.96Z" fill="#FFCEBF"/>
<path d="M100.543 221.96H152.52V282.1H100.543V221.96Z" fill="#FFB59E"/>
<path d="M100.543 221.96H152.52V303.077H100.543V221.96Z" stroke="#45413C" stroke-width="7" stroke-linecap="round" stroke-linejoin="round"/>
<path d="M237.668 158.72C236.795 154.291 234.39 150.31 230.876 147.476C227.362 144.642 222.962 143.135 218.448 143.22C214.118 143.22 209.965 141.5 206.903 138.438C203.841 135.377 202.121 131.224 202.121 126.894V101.474C202.168 97.1859 200.78 93.0056 198.177 89.5977C195.574 86.1899 191.907 83.7503 187.758 82.667C168.314 90.4266 147.515 94.2209 126.584 93.827C105.653 94.2209 84.8546 90.4266 65.411 82.667C61.3774 83.8652 57.8485 86.3539 55.3658 89.7512C52.8832 93.1485 51.584 97.2667 51.6677 101.474V126.894C51.6677 129.038 51.2454 131.161 50.4249 133.142C49.6044 135.122 48.4018 136.922 46.8857 138.438C45.3696 139.954 43.5698 141.157 41.589 141.978C39.6081 142.798 37.4851 143.22 35.341 143.22C30.8271 143.135 26.4272 144.642 22.9129 147.476C19.3985 150.31 16.994 154.291 16.121 158.72C15.6692 161.378 15.8038 164.103 16.5155 166.703C17.2272 169.304 18.4987 171.717 20.2411 173.774C21.9834 175.832 24.1545 177.483 26.6022 178.613C29.0498 179.744 31.715 180.325 34.411 180.317H35.5477C39.3834 201.809 50.6576 221.266 67.3959 235.282C84.1342 249.297 105.27 256.977 127.101 256.977C148.932 256.977 170.068 249.297 186.806 235.282C203.544 221.266 214.819 201.809 218.654 180.317H219.791C222.452 180.266 225.071 179.64 227.468 178.484C229.865 177.328 231.985 175.668 233.682 173.618C235.379 171.568 236.614 169.175 237.301 166.604C237.989 164.033 238.114 161.344 237.668 158.72Z" fill="#FFCEBF" stroke="#45413C" stroke-width="7" stroke-linecap="round" stroke-linejoin="round"/>
<path d="M70.9922 157.997C71.0194 160.089 71.8696 162.087 73.3589 163.556C74.8481 165.026 76.8564 165.85 78.9489 165.85C81.0317 165.85 83.0292 165.023 84.502 163.55C85.9748 162.077 86.8022 160.08 86.8022 157.997C86.8022 155.914 85.9748 153.917 84.502 152.444C83.0292 150.971 81.0317 150.144 78.9489 150.144C76.8564 150.143 74.8481 150.967 73.3589 152.437C71.8696 153.907 71.0194 155.905 70.9922 157.997Z" fill="#45413C" stroke="#45413C" stroke-width="7" stroke-linecap="round" stroke-linejoin="round"/>
<path d="M182.177 157.997C182.15 160.089 181.3 162.087 179.811 163.556C178.321 165.026 176.313 165.85 174.221 165.85C172.138 165.85 170.14 165.023 168.667 163.55C167.195 162.077 166.367 160.08 166.367 157.997C166.367 155.914 167.195 153.917 168.667 152.444C170.14 150.971 172.138 150.144 174.221 150.144C176.313 150.143 178.321 150.967 179.811 152.437C181.3 153.907 182.15 155.905 182.177 157.997Z" fill="#45413C" stroke="#45413C" stroke-width="7" stroke-linecap="round" stroke-linejoin="round"/>
<path d="M97.5461 205.943C96.8935 205.964 96.2525 206.122 95.665 206.407C95.0775 206.692 94.5565 207.097 94.1361 207.597C93.7098 208.087 93.3964 208.665 93.2178 209.29C93.0393 209.915 93 210.572 93.1027 211.213C94.4909 219.084 98.6078 226.215 104.731 231.352C110.853 236.49 118.59 239.306 126.583 239.306C134.575 239.306 142.312 236.49 148.435 231.352C154.558 226.215 158.675 219.084 160.063 211.213C160.165 210.572 160.126 209.915 159.948 209.29C159.769 208.665 159.456 208.087 159.029 207.597C158.609 207.097 158.088 206.692 157.5 206.407C156.913 206.122 156.272 205.964 155.619 205.943H97.5461Z" fill="#FF6242"/>
<path d="M126.583 239.527C135.454 239.537 143.979 236.09 150.35 229.917C143.972 223.755 135.451 220.311 126.583 220.311C117.715 220.311 109.194 223.755 102.816 229.917C109.187 236.09 117.712 239.537 126.583 239.527Z" fill="#FFA694"/>
<path d="M97.5461 205.943C96.8935 205.964 96.2525 206.122 95.665 206.407C95.0775 206.692 94.5565 207.097 94.1361 207.597C93.7098 208.087 93.3964 208.665 93.2178 209.29C93.0393 209.915 93 210.572 93.1027 211.213C94.4909 219.084 98.6078 226.215 104.731 231.352C110.853 236.49 118.59 239.306 126.583 239.306C134.575 239.306 142.312 236.49 148.435 231.352C154.558 226.215 158.675 219.084 160.063 211.213C160.165 210.572 160.126 209.915 159.948 209.29C159.769 208.665 159.456 208.087 159.029 207.597C158.609 207.097 158.088 206.692 157.5 206.407C156.913 206.122 156.272 205.964 155.619 205.943H97.5461Z" stroke="#45413C" stroke-width="7" stroke-linecap="round" stroke-linejoin="round"/>
<path d="M55.5938 490.833V379.543" stroke="#45413C" stroke-width="7" stroke-linecap="round" stroke-linejoin="round"/>
<path d="M55.5938 191.58C55.5938 193.197 56.6715 194.748 58.59 195.891C60.5085 197.034 63.1106 197.677 65.8237 197.677C68.5369 197.677 71.139 197.034 73.0575 195.891C74.976 194.748 76.0538 193.197 76.0538 191.58C76.0538 189.963 74.976 188.412 73.0575 187.269C71.139 186.126 68.5369 185.483 65.8237 185.483C63.1106 185.483 60.5085 186.126 58.59 187.269C56.6715 188.412 55.5938 189.963 55.5938 191.58Z" fill="#FFB59E"/>
<path d="M177.113 191.58C177.113 193.197 178.191 194.748 180.11 195.891C182.028 197.034 184.63 197.677 187.343 197.677C190.056 197.677 192.658 197.034 194.577 195.891C196.495 194.748 197.573 193.197 197.573 191.58C197.573 189.963 196.495 188.412 194.577 187.269C192.658 186.126 190.056 185.483 187.343 185.483C184.63 185.483 182.028 186.126 180.11 187.269C178.191 188.412 177.113 189.963 177.113 191.58Z" fill="#FFB59E"/>
<path d="M369.416 8.7832C398.905 8.7832 427.185 20.4975 448.037 41.349C468.889 62.2006 480.603 90.4813 480.603 119.97V264.637C480.589 267.14 479.837 269.584 478.44 271.661C477.042 273.738 475.063 275.357 472.749 276.313C406.421 302.874 332.411 302.874 266.083 276.313C263.852 275.369 261.937 273.808 260.564 271.812C259.191 269.817 258.417 267.471 258.333 265.05V120.383C258.278 105.756 261.111 91.2616 266.668 77.7309C272.224 64.2001 280.397 51.8987 290.716 41.5316C301.035 31.1645 313.298 22.9354 326.803 17.3159C340.308 11.6963 354.789 8.7967 369.416 8.7832Z" fill="#A86C4D"/>
<path d="M369.419 8.7832C339.949 8.81059 311.695 20.537 290.865 41.3855C270.036 62.2341 258.336 90.4992 258.336 119.97V152.727C258.309 138.117 261.161 123.645 266.73 110.138C272.299 96.6307 280.476 84.3538 290.792 74.0086C301.109 63.6634 313.363 55.4528 326.854 49.8462C340.345 44.2395 354.81 41.3468 369.419 41.3332C384.038 41.3332 398.513 44.2159 412.017 49.8165C425.52 55.4171 437.786 63.6255 448.113 73.9721C458.441 84.3186 466.626 96.6001 472.202 110.114C477.777 123.627 480.633 138.108 480.606 152.727V119.97C480.606 90.4813 468.892 62.2006 448.04 41.349C427.189 20.4975 398.908 8.7832 369.419 8.7832Z" fill="#DE926A"/>
<path d="M369.416 8.7832C398.905 8.7832 427.185 20.4975 448.037 41.349C468.888 62.2006 480.603 90.4813 480.603 119.97V264.637C480.589 267.14 479.837 269.584 478.44 271.661C477.042 273.738 475.063 275.357 472.749 276.313V276.313C406.421 302.874 332.411 302.874 266.083 276.313V276.313C263.852 275.369 261.937 273.808 260.564 271.812C259.191 269.817 258.417 267.471 258.333 265.05V120.383C258.278 105.756 261.111 91.2616 266.668 77.7309C272.224 64.2001 280.397 51.8987 290.716 41.5316C301.035 31.1645 313.298 22.9354 326.803 17.3159C340.308 11.6963 354.789 8.7967 369.416 8.7832V8.7832Z" stroke="#45413C" stroke-width="7" stroke-linecap="round" stroke-linejoin="round"/>
<path d="M369.417 263.396C385.361 263.396 401.15 266.537 415.881 272.639C430.612 278.741 443.997 287.684 455.271 298.959C466.546 310.233 475.489 323.618 481.591 338.349C487.693 353.08 490.833 368.869 490.833 384.813V490.833H248V384.813C248 368.869 251.141 353.08 257.242 338.349C263.344 323.618 272.288 310.233 283.562 298.959C306.332 276.189 337.215 263.396 369.417 263.396Z" fill="#FF87AF"/>
<path d="M369.417 263.396C337.215 263.396 306.332 276.189 283.562 298.959C260.792 321.729 248 352.611 248 384.813V421.91C248 389.708 260.792 358.825 283.562 336.055C306.332 313.285 337.215 300.493 369.417 300.493C401.618 300.493 432.501 313.285 455.271 336.055C478.041 358.825 490.833 389.708 490.833 421.91V384.813C490.833 368.869 487.693 353.08 481.591 338.349C475.489 323.618 466.546 310.233 455.271 298.959C443.997 287.684 430.612 278.741 415.881 272.639C401.15 266.537 385.361 263.396 369.417 263.396Z" fill="#FF6196"/>
<path d="M369.417 263.396C385.361 263.396 401.15 266.537 415.881 272.639C430.612 278.741 443.997 287.684 455.271 298.959C466.546 310.233 475.489 323.618 481.591 338.349C487.693 353.08 490.833 368.869 490.833 384.813V490.833H248V384.813C248 368.869 251.141 353.08 257.242 338.349C263.344 323.618 272.288 310.233 283.562 298.959C306.332 276.189 337.215 263.396 369.417 263.396V263.396Z" stroke="#45413C" stroke-width="7" stroke-linecap="round" stroke-linejoin="round"/>
<path d="M343.379 221.96H395.356V303.077H343.379V221.96Z" fill="#FFCEBF" stroke="#45413C" stroke-width="7" stroke-linecap="round" stroke-linejoin="round"/>
<path d="M462.106 143.22C449.171 139.515 437.235 132.948 427.182 124.004C417.129 115.061 409.218 103.97 404.033 91.5533L397.73 76.3633C373.086 109.56 336.732 132.133 296.05 139.5L276.726 142.91C272.046 143.26 267.671 145.365 264.479 148.805C261.286 152.245 259.512 156.765 259.512 161.458C259.512 166.151 261.286 170.671 264.479 174.111C267.671 177.551 272.046 179.657 276.726 180.007H277.863C281.699 201.498 292.973 220.956 309.711 234.971C326.45 248.987 347.585 256.667 369.416 256.667C391.248 256.667 412.383 248.987 429.121 234.971C445.86 220.956 457.134 201.498 460.97 180.007H462.106C466.786 179.657 471.161 177.551 474.354 174.111C477.547 170.671 479.321 166.151 479.321 161.458C479.321 156.765 477.547 152.245 474.354 148.805C471.161 145.365 466.786 143.26 462.106 142.91V143.22Z" fill="#FFCEBF" stroke="#45413C" stroke-width="7" stroke-linecap="round" stroke-linejoin="round"/>
<path d="M313.824 157.997C313.851 160.089 314.702 162.087 316.191 163.556C317.68 165.026 319.688 165.85 321.781 165.85C323.864 165.85 325.861 165.023 327.334 163.55C328.807 162.077 329.634 160.08 329.634 157.997C329.634 155.914 328.807 153.917 327.334 152.444C325.861 150.971 323.864 150.144 321.781 150.144C319.688 150.143 317.68 150.967 316.191 152.437C314.702 153.907 313.851 155.905 313.824 157.997Z" fill="#45413C" stroke="#45413C" stroke-width="7" stroke-linecap="round" stroke-linejoin="round"/>
<path d="M425.013 157.997C424.986 160.089 424.136 162.087 422.646 163.556C421.157 165.026 419.149 165.85 417.056 165.85C414.974 165.85 412.976 165.023 411.503 163.55C410.031 162.077 409.203 160.08 409.203 157.997C409.203 155.914 410.031 153.917 411.503 152.444C412.976 150.971 414.974 150.144 417.056 150.144C419.149 150.143 421.157 150.967 422.646 152.437C424.136 153.907 424.986 155.905 425.013 157.997Z" fill="#45413C" stroke="#45413C" stroke-width="7" stroke-linecap="round" stroke-linejoin="round"/>
<path d="M340.382 205.943C339.729 205.964 339.088 206.122 338.501 206.407C337.913 206.692 337.392 207.097 336.972 207.597C336.546 208.087 336.232 208.665 336.054 209.29C335.875 209.915 335.836 210.572 335.939 211.213C337.327 219.084 341.444 226.215 347.566 231.352C353.689 236.49 361.426 239.306 369.419 239.306C377.411 239.306 385.148 236.49 391.271 231.352C397.394 226.215 401.511 219.084 402.899 211.213C403.001 210.572 402.962 209.915 402.784 209.29C402.605 208.665 402.292 208.087 401.865 207.597C401.445 207.097 400.924 206.692 400.336 206.407C399.749 206.122 399.108 205.964 398.455 205.943H340.382Z" fill="#FF6242"/>
<path d="M369.419 239.527C378.29 239.537 386.815 236.09 393.186 229.917C386.808 223.755 378.287 220.311 369.419 220.311C360.551 220.311 352.03 223.755 345.652 229.917C352.023 236.09 360.548 239.537 369.419 239.527Z" fill="#FFA694"/>
<path d="M340.382 205.943C339.729 205.964 339.088 206.122 338.501 206.407C337.913 206.692 337.392 207.097 336.972 207.597C336.546 208.087 336.232 208.665 336.054 209.29C335.875 209.915 335.836 210.572 335.939 211.213C337.327 219.084 341.444 226.215 347.566 231.352C353.689 236.49 361.426 239.306 369.419 239.306C377.411 239.306 385.148 236.49 391.271 231.352C397.394 226.215 401.511 219.084 402.899 211.213C403.001 210.572 402.962 209.915 402.784 209.29C402.605 208.665 402.292 208.087 401.865 207.597C401.445 207.097 400.924 206.692 400.336 206.407C399.749 206.122 399.108 205.964 398.455 205.943H340.382Z" stroke="#45413C" stroke-width="7" stroke-linecap="round" stroke-linejoin="round"/>
<path d="M440.406 490.833V379.543" stroke="#45413C" stroke-width="7" stroke-linecap="round" stroke-linejoin="round"/>
<path d="M298.43 191.58C298.43 193.197 299.507 194.748 301.426 195.891C303.344 197.034 305.947 197.677 308.66 197.677C311.373 197.677 313.975 197.034 315.893 195.891C317.812 194.748 318.89 193.197 318.89 191.58C318.89 189.963 317.812 188.412 315.893 187.269C313.975 186.126 311.373 185.483 308.66 185.483C305.947 185.483 303.344 186.126 301.426 187.269C299.507 188.412 298.43 189.963 298.43 191.58Z" fill="#FFB59E"/>
<path d="M419.949 191.58C419.949 193.197 421.027 194.748 422.946 195.891C424.864 197.034 427.466 197.677 430.179 197.677C432.892 197.677 435.494 197.034 437.413 195.891C439.331 194.748 440.409 193.197 440.409 191.58C440.409 189.963 439.331 188.412 437.413 187.269C435.494 186.126 432.892 185.483 430.179 185.483C427.466 185.483 424.864 186.126 422.946 187.269C421.027 188.412 419.949 189.963 419.949 191.58Z" fill="#FFB59E"/>
<path d="M248.003 490.833C241.007 472.349 228.549 456.433 212.288 445.201C196.026 433.968 176.73 427.952 156.966 427.952C137.203 427.952 117.907 433.968 101.645 445.201C85.3835 456.433 72.9262 472.349 65.9297 490.833H248.003Z" fill="#FF87AF"/>
<path d="M156.966 456.423C171.096 456.392 185.061 459.456 197.879 465.401C210.697 471.346 222.057 480.027 231.16 490.833H248.003C241.007 472.349 228.549 456.433 212.288 445.201C196.026 433.968 176.73 427.952 156.966 427.952C137.203 427.952 117.907 433.968 101.645 445.201C85.3835 456.433 72.9262 472.349 65.9297 490.833H82.6697C91.8021 480.035 103.182 471.361 116.015 465.417C128.848 459.474 142.824 456.405 156.966 456.423Z" fill="#FF6196"/>
<path d="M248.003 490.833C241.007 472.349 228.549 456.433 212.288 445.201C196.026 433.968 176.73 427.952 156.966 427.952C137.203 427.952 117.907 433.968 101.645 445.201C85.3835 456.433 72.9262 472.349 65.9297 490.833H248.003Z" stroke="#45413C" stroke-width="7" stroke-linecap="round" stroke-linejoin="round"/>
<path d="M137.746 394.939H176.186V461.073H137.746V394.939Z" fill="#FFCEBF"/>
<path d="M137.746 394.939H176.186V442.886H137.746V394.939Z" fill="#FFB59E"/>
<path d="M137.746 394.939H176.186V461.073H137.746V394.939Z" stroke="#45413C" stroke-width="7" stroke-linecap="round" stroke-linejoin="round"/>
<path d="M156.965 245.623C150.656 245.623 144.371 246.422 138.262 248C122.358 253.074 105.596 254.901 88.972 253.373C88.3179 257.669 88.5391 262.053 89.6223 266.262C90.7055 270.47 92.6284 274.416 95.2753 277.863C86.6495 290.351 82.0026 305.156 81.9453 320.333V359.6H231.985V320.333C231.903 300.49 223.963 281.488 209.903 267.486C195.843 253.484 176.808 245.623 156.965 245.623Z" fill="#A86C4D"/>
<path d="M156.966 245.623C150.657 245.623 144.372 246.422 138.263 248C122.359 253.074 105.597 254.901 88.973 253.373C88.3272 257.63 88.5432 261.973 89.6083 266.144C90.6733 270.315 92.5657 274.23 95.173 277.656C109.757 277.741 124.275 275.687 138.263 271.56C149.321 268.713 160.882 268.428 172.067 270.726C183.251 273.024 193.763 277.845 202.802 284.821C211.842 291.797 219.169 300.745 224.227 310.982C229.284 321.219 231.938 332.475 231.986 343.893V320.333C231.904 300.49 223.964 281.488 209.904 267.486C195.844 253.484 176.809 245.623 156.966 245.623Z" fill="#DE926A"/>
<path d="M156.965 245.623C150.656 245.623 144.371 246.422 138.262 248C122.358 253.074 105.596 254.901 88.972 253.373C88.3179 257.669 88.5391 262.053 89.6223 266.262C90.7055 270.47 92.6284 274.416 95.2753 277.863C86.6495 290.351 82.0026 305.156 81.9453 320.333V359.6H231.985V320.333C231.903 300.49 223.963 281.488 209.903 267.486C195.843 253.484 176.808 245.623 156.965 245.623V245.623Z" stroke="#45413C" stroke-width="7" stroke-linecap="round" stroke-linejoin="round"/>
<path d="M84.5282 342.343C81.8437 343.083 79.4347 344.593 77.5984 346.687C75.7621 348.78 74.5789 351.365 74.1948 354.123C74.0381 356.04 74.2794 357.968 74.9034 359.787C75.5274 361.606 76.5207 363.276 77.821 364.693C79.1212 366.11 80.7004 367.242 82.4592 368.019C84.218 368.797 86.1186 369.202 88.0415 369.21H88.8682C91.2642 385.642 99.4953 400.663 112.056 411.526C124.617 422.388 140.669 428.366 157.275 428.366C173.881 428.366 189.932 422.388 202.493 411.526C215.054 400.663 223.286 385.642 225.682 369.21H226.508C229.983 369.45 233.416 368.342 236.095 366.116C238.773 363.89 240.49 360.717 240.89 357.257C241.289 353.797 240.339 350.317 238.238 347.539C236.137 344.761 233.046 342.901 229.608 342.343C198.608 336.247 181.662 303.49 181.248 302.767C180.422 303.697 155.002 343.273 84.5282 342.343Z" fill="#FFCEBF" stroke="#45413C" stroke-width="7" stroke-linecap="round" stroke-linejoin="round"/>
<path d="M120.59 358.153C120.59 359.523 121.134 360.837 122.103 361.806C123.072 362.775 124.386 363.32 125.757 363.32C127.127 363.32 128.441 362.775 129.41 361.806C130.379 360.837 130.923 359.523 130.923 358.153C130.923 356.783 130.379 355.469 129.41 354.5C128.441 353.531 127.127 352.986 125.757 352.986C124.386 352.986 123.072 353.531 122.103 354.5C121.134 355.469 120.59 356.783 120.59 358.153Z" fill="#45413C" stroke="#45413C" stroke-width="7" stroke-linecap="round" stroke-linejoin="round"/>
<path d="M193.337 358.153C193.311 359.515 192.758 360.814 191.795 361.777C190.831 362.74 189.533 363.293 188.171 363.32C186.8 363.32 185.486 362.775 184.517 361.806C183.548 360.837 183.004 359.523 183.004 358.153C183.004 356.783 183.548 355.469 184.517 354.5C185.486 353.531 186.8 352.986 188.171 352.986C189.541 352.986 190.855 353.531 191.824 354.5C192.793 355.469 193.337 356.783 193.337 358.153Z" fill="#45413C" stroke="#45413C" stroke-width="7" stroke-linecap="round" stroke-linejoin="round"/>
<path d="M105.297 380.06C105.297 381.129 106.005 382.154 107.264 382.91C108.524 383.666 110.232 384.09 112.014 384.09C113.795 384.09 115.503 383.666 116.763 382.91C118.023 382.154 118.73 381.129 118.73 380.06C118.73 378.991 118.023 377.966 116.763 377.211C115.503 376.455 113.795 376.03 112.014 376.03C110.232 376.03 108.524 376.455 107.264 377.211C106.005 377.966 105.297 378.991 105.297 380.06Z" fill="#FFB59E"/>
<path d="M195.094 380.06C195.094 381.129 195.801 382.154 197.061 382.91C198.321 383.666 200.029 384.09 201.81 384.09C203.592 384.09 205.3 383.666 206.56 382.91C207.819 382.154 208.527 381.129 208.527 380.06C208.527 378.991 207.819 377.966 206.56 377.211C205.3 376.455 203.592 376.03 201.81 376.03C200.029 376.03 198.321 376.455 197.061 377.211C195.801 377.966 195.094 378.991 195.094 380.06Z" fill="#FFB59E"/>
<path d="M139.5 399.177C144.363 403.257 150.635 405.261 156.963 404.757C163.291 405.261 169.564 403.257 174.427 399.177" stroke="#45413C" stroke-width="7" stroke-linecap="round" stroke-linejoin="round"/>
<path d="M237.047 425.423C243.641 419.448 249.255 412.474 253.684 404.756C261.95 390.496 281.48 387.293 289.54 400.003C296.464 410.956 292.33 424.286 274.04 431.003C267.895 433.214 261.296 433.862 254.838 432.888C248.381 431.914 242.266 429.349 237.047 425.423Z" fill="#A86C4D" stroke="#45413C" stroke-width="7" stroke-linecap="round" stroke-linejoin="round"/>
<path d="M441.131 425.423C434.488 419.468 428.837 412.491 424.391 404.756C416.124 390.496 396.594 387.293 388.638 400.003C381.714 410.956 385.744 424.286 404.034 431.003C410.198 433.205 416.811 433.847 423.284 432.874C429.756 431.9 435.887 429.341 441.131 425.423Z" fill="#A86C4D" stroke="#45413C" stroke-width="7" stroke-linecap="round" stroke-linejoin="round"/>
<path d="M430.073 490.833C423.077 472.349 410.62 456.433 394.358 445.201C378.096 433.968 358.801 427.952 339.037 427.952C319.273 427.952 299.977 433.968 283.715 445.201C267.454 456.433 254.996 472.349 248 490.833H430.073Z" fill="#FF87AF"/>
<path d="M339.037 456.423C353.179 456.405 367.155 459.474 379.988 465.417C392.821 471.361 404.201 480.035 413.333 490.833H430.073C423.077 472.349 410.62 456.433 394.358 445.201C378.096 433.968 358.801 427.952 339.037 427.952C319.273 427.952 299.977 433.968 283.715 445.201C267.454 456.433 254.996 472.349 248 490.833H264.843C273.946 480.027 285.306 471.346 298.124 465.401C310.942 459.456 324.907 456.392 339.037 456.423Z" fill="#FF6196"/>
<path d="M430.073 490.833C423.077 472.349 410.62 456.433 394.358 445.201C378.096 433.968 358.801 427.952 339.037 427.952C319.273 427.952 299.977 433.968 283.715 445.201C267.454 456.433 254.996 472.349 248 490.833H430.073Z" stroke="#45413C" stroke-width="7" stroke-linecap="round" stroke-linejoin="round"/>
<path d="M319.816 394.939H358.256V461.073H319.816V394.939Z" fill="#FFCEBF"/>
<path d="M319.816 394.939H358.256V442.886H319.816V394.939Z" fill="#FFB59E"/>
<path d="M319.816 394.939H358.256V461.073H319.816V394.939Z" stroke="#45413C" stroke-width="7" stroke-linecap="round" stroke-linejoin="round"/>
<path d="M339.04 245.623C358.883 245.623 377.917 253.484 391.977 267.486C406.038 281.488 413.978 300.49 414.06 320.333V359.6H264.02V320.333C264.102 300.49 272.042 281.488 286.102 267.486C300.162 253.484 319.197 245.623 339.04 245.623Z" fill="#A86C4D"/>
<path d="M339.04 245.623C319.197 245.623 300.162 253.484 286.102 267.486C272.042 281.488 264.102 300.49 264.02 320.333V343.893C264.02 323.996 271.923 304.915 285.992 290.846C300.061 276.777 319.143 268.873 339.04 268.873C358.936 268.873 378.018 276.777 392.087 290.846C406.156 304.915 414.06 323.996 414.06 343.893V320.333C413.978 300.49 406.038 281.488 391.977 267.486C377.917 253.484 358.883 245.623 339.04 245.623Z" fill="#DE926A"/>
<path d="M339.04 245.623C319.197 245.623 300.162 253.484 286.102 267.486C272.042 281.488 264.102 300.49 264.02 320.333V359.6H414.06V320.333C413.978 300.49 406.037 281.488 391.977 267.486C377.917 253.484 358.883 245.623 339.04 245.623V245.623Z" stroke="#45413C" stroke-width="7" stroke-linecap="round" stroke-linejoin="round"/>
<path d="M422.117 354.123C421.733 351.365 420.55 348.78 418.713 346.687C416.877 344.593 414.468 343.083 411.784 342.343C397.252 343.041 382.811 339.716 370.048 332.733C357.286 325.75 346.698 315.381 339.45 302.767C332.211 315.388 321.625 325.764 308.861 332.748C296.096 339.732 281.65 343.053 267.117 342.343C263.679 342.901 260.588 344.761 258.487 347.539C256.386 350.317 255.436 353.797 255.835 357.257C256.235 360.717 257.952 363.89 260.63 366.116C263.309 368.342 266.742 369.45 270.217 369.21H271.044C273.44 385.642 281.671 400.663 294.232 411.526C306.793 422.388 322.844 428.366 339.45 428.366C356.056 428.366 372.108 422.388 384.669 411.526C397.23 400.663 405.461 385.642 407.857 369.21H408.684C410.571 369.146 412.427 368.7 414.137 367.898C415.847 367.096 417.376 365.955 418.632 364.545C419.888 363.134 420.845 361.483 421.444 359.691C422.043 357.9 422.272 356.006 422.117 354.123Z" fill="#FFCEBF" stroke="#45413C" stroke-width="7" stroke-linecap="round" stroke-linejoin="round"/>
<path d="M302.664 358.153C302.691 359.515 303.243 360.814 304.207 361.777C305.17 362.74 306.469 363.293 307.831 363.32C309.201 363.32 310.515 362.775 311.484 361.806C312.453 360.837 312.997 359.523 312.997 358.153C312.997 356.783 312.453 355.469 311.484 354.5C310.515 353.531 309.201 352.986 307.831 352.986C306.46 352.986 305.146 353.531 304.177 354.5C303.208 355.469 302.664 356.783 302.664 358.153Z" fill="#45413C" stroke="#45413C" stroke-width="7" stroke-linecap="round" stroke-linejoin="round"/>
<path d="M375.411 358.153C375.411 359.523 374.867 360.837 373.898 361.806C372.929 362.775 371.615 363.32 370.245 363.32C368.875 363.32 367.56 362.775 366.591 361.806C365.622 360.837 365.078 359.523 365.078 358.153C365.078 356.783 365.622 355.469 366.591 354.5C367.56 353.531 368.875 352.986 370.245 352.986C371.615 352.986 372.929 353.531 373.898 354.5C374.867 355.469 375.411 356.783 375.411 358.153Z" fill="#45413C" stroke="#45413C" stroke-width="7" stroke-linecap="round" stroke-linejoin="round"/>
<path d="M287.477 380.06C287.477 381.129 288.184 382.154 289.444 382.91C290.703 383.666 292.412 384.09 294.193 384.09C295.975 384.09 297.683 383.666 298.943 382.91C300.202 382.154 300.91 381.129 300.91 380.06C300.91 378.991 300.202 377.966 298.943 377.211C297.683 376.455 295.975 376.03 294.193 376.03C292.412 376.03 290.703 376.455 289.444 377.211C288.184 377.966 287.477 378.991 287.477 380.06Z" fill="#FFB59E"/>
<path d="M377.27 380.06C377.27 381.129 377.977 382.154 379.237 382.91C380.496 383.666 382.205 384.09 383.986 384.09C385.768 384.09 387.476 383.666 388.736 382.91C389.995 382.154 390.703 381.129 390.703 380.06C390.703 378.991 389.995 377.966 388.736 377.211C387.476 376.455 385.768 376.03 383.986 376.03C382.205 376.03 380.496 376.455 379.237 377.211C377.977 377.966 377.27 378.991 377.27 380.06Z" fill="#FFB59E"/>
<path d="M321.574 400.52C326.437 404.6 332.71 406.604 339.038 406.1C345.365 406.604 351.638 404.6 356.501 400.52" stroke="#45413C" stroke-width="7" stroke-linecap="round" stroke-linejoin="round"/>
</svg>
