<svg width="495" height="495" viewBox="0 0 495 495" fill="none" xmlns="http://www.w3.org/2000/svg">
<path d="M214.513 295.521C247.005 295.521 278.166 308.429 301.142 331.405C324.117 354.38 337.025 385.542 337.025 418.034V437.628H92V418.034C92 385.542 104.908 354.38 127.883 331.405C150.859 308.429 182.02 295.521 214.513 295.521Z" fill="#00B8F0"/>
<path d="M214.513 295.521C182.02 295.521 150.859 308.429 127.883 331.405C104.908 354.38 92 385.542 92 418.034V437.628H93.5469C98.0209 408.756 112.674 382.436 134.859 363.425C157.043 344.413 185.296 333.963 214.513 333.963C243.729 333.963 271.982 344.413 294.166 363.425C316.351 382.436 331.004 408.756 335.478 437.628H337.025V418.034C337.025 385.542 324.117 354.38 301.142 331.405C278.166 308.429 247.005 295.521 214.513 295.521Z" fill="#009FD9"/>
<path d="M214.513 295.521C247.005 295.521 278.166 308.429 301.142 331.405C324.117 354.38 337.025 385.542 337.025 418.034V437.628H92V418.034C92 385.542 104.908 354.38 127.883 331.405C150.859 308.429 182.02 295.521 214.513 295.521V295.521Z" stroke="#45413C" stroke-width="6" stroke-linecap="round" stroke-linejoin="round"/>
<path d="M275.769 311.919V377.506C275.769 380.241 274.682 382.864 272.748 384.798C270.814 386.732 268.191 387.819 265.456 387.819H163.569C160.834 387.819 158.211 386.732 156.277 384.798C154.343 382.864 153.256 380.241 153.256 377.506V311.919C145.138 316.642 137.564 322.245 130.672 328.625V437.628H298.353V328.625C291.461 322.245 283.887 316.642 275.769 311.919Z" fill="#FF8A14"/>
<path d="M275.77 350.178C283.913 354.904 291.49 360.544 298.354 366.988V328.625C291.462 322.245 283.888 316.642 275.77 311.919V350.178Z" fill="#EB6D00"/>
<path d="M153.256 350.178V311.919C145.138 316.642 137.564 322.245 130.672 328.625V366.988C137.536 360.544 145.113 354.904 153.256 350.178Z" fill="#EB6D00"/>
<path d="M275.769 311.919V377.506C275.769 380.241 274.682 382.864 272.748 384.798C270.814 386.732 268.191 387.819 265.456 387.819H163.569C160.834 387.819 158.211 386.732 156.277 384.798C154.343 382.864 153.256 380.241 153.256 377.506V311.919C145.138 316.642 137.564 322.245 130.672 328.625V437.628H298.353V328.625C291.461 322.245 283.887 316.642 275.769 311.919Z" stroke="#45413C" stroke-width="6" stroke-linecap="round" stroke-linejoin="round"/>
<path d="M214.516 282.94C214.516 282.94 162.953 282.322 162.953 311.712C163.931 333.397 171.726 354.22 185.228 371.215L214.516 346.156L244.319 371.215C257.821 354.22 265.616 333.397 266.594 311.712C266.594 282.322 214.516 282.94 214.516 282.94Z" fill="#009FD9" stroke="#45413C" stroke-width="6" stroke-linecap="round" stroke-linejoin="round"/>
<path d="M214.514 346.156L191.311 322.953C190.355 321.99 189.599 320.847 189.086 319.59C188.573 318.334 188.313 316.988 188.32 315.631V284.694C188.32 277.747 191.08 271.084 195.992 266.172C200.905 261.26 207.567 258.5 214.514 258.5C217.963 258.5 221.377 259.181 224.562 260.504C227.747 261.827 230.639 263.765 233.073 266.208C235.506 268.652 237.434 271.551 238.744 274.741C240.054 277.931 240.722 281.348 240.708 284.797V315.734C240.716 317.092 240.456 318.437 239.943 319.693C239.429 320.95 238.673 322.093 237.717 323.056L214.514 346.156Z" fill="#FFCEBF"/>
<path d="M214.514 258.5C211.066 258.5 207.651 259.181 204.466 260.504C201.282 261.827 198.39 263.765 195.956 266.208C193.522 268.652 191.595 271.551 190.285 274.741C188.974 277.931 188.307 281.348 188.321 284.797V290.881C188.321 297.828 191.08 304.491 195.992 309.403C200.905 314.315 207.567 317.075 214.514 317.075C221.461 317.075 228.124 314.315 233.036 309.403C237.948 304.491 240.708 297.828 240.708 290.881V284.797C240.722 281.348 240.054 277.931 238.744 274.741C237.434 271.551 235.506 268.652 233.073 266.208C230.639 263.765 227.747 261.827 224.562 260.504C221.377 259.181 217.963 258.5 214.514 258.5Z" fill="#FFB59E"/>
<path d="M214.514 346.156L191.311 322.953C190.355 321.99 189.599 320.847 189.086 319.59C188.573 318.334 188.313 316.988 188.32 315.631V284.694C188.32 277.747 191.08 271.084 195.992 266.172C200.905 261.26 207.567 258.5 214.514 258.5V258.5C217.963 258.5 221.377 259.181 224.562 260.504C227.747 261.827 230.639 263.765 233.073 266.208C235.506 268.652 237.434 271.551 238.744 274.741C240.054 277.931 240.722 281.348 240.708 284.797V315.734C240.716 317.092 240.456 318.437 239.943 319.693C239.429 320.95 238.673 322.093 237.717 323.056L214.514 346.156Z" stroke="#45413C" stroke-width="6" stroke-linecap="round" stroke-linejoin="round"/>
<path d="M214.516 346.156V387.819" stroke="#45413C" stroke-width="6" stroke-linecap="round" stroke-linejoin="round"/>
<path d="M350.226 384.209L313.72 371.422C312.195 370.731 310.542 370.366 308.868 370.348C307.194 370.331 305.534 370.662 303.995 371.321C302.456 371.98 301.071 372.952 299.928 374.176C298.785 375.399 297.909 376.847 297.356 378.427C296.803 380.008 296.584 381.686 296.715 383.355C296.846 385.024 297.322 386.648 298.115 388.123C298.907 389.598 299.998 390.892 301.317 391.922C302.637 392.953 304.156 393.698 305.779 394.109C304.254 393.419 302.602 393.053 300.927 393.036C299.253 393.019 297.594 393.35 296.055 394.009C294.515 394.668 293.13 395.64 291.987 396.863C290.844 398.087 289.968 399.535 289.415 401.115C288.862 402.695 288.644 404.373 288.774 406.043C288.905 407.712 289.382 409.335 290.174 410.81C290.966 412.285 292.057 413.579 293.377 414.61C294.696 415.64 296.216 416.385 297.839 416.797L297.014 417.003C294.45 416.605 291.828 417.114 289.6 418.443C287.372 419.772 285.678 421.838 284.81 424.283C283.942 426.727 283.955 429.398 284.846 431.835C285.737 434.271 287.451 436.32 289.692 437.628L327.126 450.725C332.19 452.394 337.703 452.038 342.51 449.731C347.316 447.424 351.043 443.345 352.907 438.35L363.22 410.093C364.889 404.937 364.462 399.331 362.031 394.487C359.599 389.643 355.359 385.951 350.226 384.209Z" fill="#FFCEBF"/>
<path d="M357.857 423.707L362.601 409.888C364.24 404.838 363.868 399.35 361.563 394.567C359.258 389.784 355.197 386.074 350.226 384.21L313.72 371.422C311.656 370.684 309.426 370.537 307.283 370.999C305.14 371.461 303.169 372.513 301.592 374.036C300.016 375.559 298.896 377.493 298.36 379.619C297.825 381.744 297.894 383.978 298.56 386.066C300.065 385.074 301.775 384.437 303.562 384.205C305.349 383.973 307.165 384.151 308.873 384.725L345.379 397.513C350.49 399.356 354.666 403.14 357.003 408.045C359.339 412.949 359.646 418.577 357.857 423.707Z" fill="#FFDCD1"/>
<path d="M350.226 384.209L313.72 371.422C312.195 370.731 310.542 370.366 308.868 370.348C307.194 370.331 305.534 370.662 303.995 371.321C302.456 371.98 301.071 372.952 299.928 374.176C298.785 375.399 297.909 376.847 297.356 378.427C296.803 380.008 296.584 381.686 296.715 383.355C296.846 385.024 297.322 386.648 298.115 388.123C298.907 389.598 299.998 390.892 301.317 391.922C302.637 392.953 304.156 393.698 305.779 394.109C304.254 393.419 302.602 393.053 300.927 393.036C299.253 393.019 297.594 393.35 296.055 394.009C294.515 394.668 293.13 395.64 291.987 396.863C290.844 398.087 289.968 399.535 289.415 401.115C288.862 402.695 288.644 404.373 288.774 406.043C288.905 407.712 289.382 409.335 290.174 410.81C290.966 412.285 292.057 413.579 293.377 414.61C294.696 415.64 296.216 416.385 297.839 416.797L297.014 417.003C294.45 416.605 291.828 417.114 289.6 418.443C287.372 419.772 285.678 421.838 284.81 424.283C283.942 426.727 283.955 429.398 284.846 431.835C285.737 434.271 287.451 436.32 289.692 437.628L327.126 450.725C332.19 452.394 337.703 452.038 342.51 449.731C347.316 447.424 351.043 443.345 352.907 438.35L363.22 410.093C364.889 404.937 364.462 399.331 362.031 394.487C359.599 389.643 355.359 385.951 350.226 384.209V384.209Z" stroke="#45413C" stroke-width="6" stroke-linecap="round" stroke-linejoin="round"/>
<path d="M305.781 394.109L321.456 399.575" stroke="#45413C" stroke-width="6" stroke-linecap="round" stroke-linejoin="round"/>
<path d="M297.84 416.797L313.618 422.366" stroke="#45413C" stroke-width="6" stroke-linecap="round" stroke-linejoin="round"/>
<path d="M214.515 44C206.027 44.0079 197.573 45.082 189.352 47.1969C170.171 51.5281 145.215 58.7469 122.63 54.4156C121.732 60.2325 122.037 66.1718 123.527 71.8659C125.017 77.56 127.661 82.8875 131.293 87.5188C119.527 104.477 113.23 124.628 113.246 145.269V198.275H315.784V145.269C315.784 118.411 305.114 92.6525 286.123 73.6609C267.131 54.6694 241.373 44 214.515 44Z" fill="#A86C4D"/>
<path d="M214.514 44C206.025 44.0079 197.572 45.082 189.351 47.1969C170.17 51.5281 145.214 58.7469 122.629 54.4156C121.233 65.233 123.718 76.195 129.642 85.3531C149.848 85.7714 169.995 83.0224 189.351 77.2063C204.309 73.3485 219.951 72.9671 235.078 76.0913C250.206 79.2156 264.417 85.7625 276.623 95.2301C288.828 104.698 298.703 116.835 305.491 130.71C312.279 144.586 315.8 159.831 315.782 175.278V145.269C315.782 118.411 305.113 92.6525 286.122 73.6609C267.13 54.6694 241.372 44 214.514 44Z" fill="#DE926A"/>
<path d="M214.515 44C206.027 44.0079 197.573 45.082 189.352 47.1969C170.171 51.5281 145.215 58.7469 122.631 54.4156C121.732 60.2325 122.037 66.1718 123.527 71.8659C125.017 77.56 127.661 82.8875 131.293 87.5188C119.527 104.477 113.23 124.628 113.246 145.269V198.275H315.784V145.269C315.784 118.411 305.114 92.6525 286.123 73.6609C267.131 54.6694 241.373 44 214.515 44V44Z" stroke="#45413C" stroke-width="6" stroke-linecap="round" stroke-linejoin="round"/>
<path d="M326.609 190.129C326.094 186.347 324.451 182.808 321.894 179.975C319.337 177.142 315.984 175.146 312.275 174.247L306.191 172.597C301.708 171.331 297.765 168.626 294.97 164.9C292.175 161.173 290.682 156.631 290.722 151.972V131.347C290.711 127.095 289.301 122.964 286.711 119.591C284.121 116.218 280.493 113.79 276.388 112.682C256.723 120.532 235.682 124.354 214.513 123.922C193.343 124.354 172.302 120.532 152.638 112.682C148.513 113.771 144.862 116.19 142.252 119.565C139.642 122.94 138.217 127.081 138.2 131.347V152.591C138.24 157.249 136.747 161.792 133.952 165.518C131.157 169.245 127.214 171.95 122.731 173.216L116.647 174.866C113.043 175.741 109.774 177.653 107.245 180.365C104.716 183.078 103.037 186.472 102.416 190.129C102.14 192.739 102.418 195.379 103.232 197.875C104.046 200.37 105.377 202.667 107.139 204.613C108.9 206.559 111.052 208.112 113.455 209.171C115.857 210.229 118.456 210.768 121.081 210.754H122.216C123.96 234.107 134.468 255.938 151.633 271.869C168.799 287.8 191.352 296.653 214.77 296.653C238.189 296.653 260.742 287.8 277.907 271.869C295.072 255.938 305.581 234.107 307.325 210.754H308.459C311.041 210.697 313.583 210.105 315.924 209.015C318.265 207.925 320.354 206.362 322.06 204.423C323.766 202.485 325.051 200.214 325.834 197.753C326.617 195.293 326.881 192.696 326.609 190.129Z" fill="#FFCEBF" stroke="#45413C" stroke-width="6" stroke-linecap="round" stroke-linejoin="round"/>
<path d="M158.516 188.375C158.516 190.481 159.352 192.501 160.841 193.99C162.331 195.479 164.35 196.316 166.456 196.316C168.562 196.316 170.582 195.479 172.071 193.99C173.56 192.501 174.397 190.481 174.397 188.375C174.397 186.269 173.56 184.249 172.071 182.76C170.582 181.271 168.562 180.435 166.456 180.435C164.35 180.435 162.331 181.271 160.841 182.76C159.352 184.249 158.516 186.269 158.516 188.375Z" fill="#45413C" stroke="#45413C" stroke-width="6" stroke-linecap="round" stroke-linejoin="round"/>
<path d="M270.51 188.375C270.51 190.481 269.674 192.501 268.184 193.99C266.695 195.479 264.676 196.316 262.57 196.316C260.464 196.316 258.444 195.479 256.955 193.99C255.466 192.501 254.629 190.481 254.629 188.375C254.629 186.269 255.466 184.249 256.955 182.76C258.444 181.271 260.464 180.435 262.57 180.435C264.676 180.435 266.695 181.271 268.184 182.76C269.674 184.249 270.51 186.269 270.51 188.375Z" fill="#45413C" stroke="#45413C" stroke-width="6" stroke-linecap="round" stroke-linejoin="round"/>
<path d="M185.227 236.844C184.579 236.824 183.935 236.953 183.345 237.221C182.755 237.489 182.235 237.889 181.824 238.391C181.392 238.876 181.076 239.453 180.897 240.078C180.719 240.703 180.683 241.36 180.793 242C182.185 249.933 186.33 257.12 192.497 262.3C198.665 267.479 206.461 270.318 214.515 270.318C222.569 270.318 230.365 267.479 236.532 262.3C242.7 257.12 246.844 249.933 248.237 242C248.346 241.36 248.311 240.703 248.132 240.078C247.954 239.453 247.637 238.876 247.205 238.391C246.785 237.901 246.263 237.508 245.675 237.241C245.087 236.974 244.448 236.838 243.802 236.844H185.227Z" fill="#FF6242"/>
<path d="M214.515 250.868C205.204 250.504 196.044 253.303 188.527 258.809C191.777 262.428 195.752 265.322 200.194 267.303C204.636 269.285 209.445 270.309 214.309 270.309C219.172 270.309 223.982 269.285 228.423 267.303C232.865 265.322 236.84 262.428 240.09 258.809C232.685 253.392 223.686 250.597 214.515 250.868Z" fill="#FFA694"/>
<path d="M185.227 236.844C184.582 236.838 183.942 236.974 183.355 237.241C182.767 237.508 182.245 237.901 181.824 238.391C181.392 238.877 181.076 239.453 180.897 240.078C180.719 240.703 180.683 241.36 180.793 242C182.185 249.933 186.33 257.12 192.497 262.3C198.665 267.479 206.461 270.318 214.515 270.318C222.569 270.318 230.365 267.479 236.532 262.3C242.7 257.12 246.844 249.933 248.237 242C248.346 241.36 248.311 240.703 248.132 240.078C247.954 239.453 247.637 238.877 247.205 238.391C246.785 237.901 246.263 237.508 245.675 237.241C245.087 236.974 244.448 236.838 243.802 236.844H185.227Z" stroke="#45413C" stroke-width="6" stroke-linecap="round" stroke-linejoin="round"/>
<path d="M142.945 222.303C142.945 223.944 144.032 225.518 145.966 226.678C147.9 227.838 150.523 228.49 153.258 228.49C155.993 228.49 158.616 227.838 160.55 226.678C162.484 225.518 163.57 223.944 163.57 222.303C163.57 220.662 162.484 219.088 160.55 217.928C158.616 216.767 155.993 216.115 153.258 216.115C150.523 216.115 147.9 216.767 145.966 217.928C144.032 219.088 142.945 220.662 142.945 222.303Z" fill="#FFB59E"/>
<path d="M265.457 222.303C265.457 223.944 266.544 225.518 268.477 226.678C270.411 227.838 273.034 228.49 275.77 228.49C278.505 228.49 281.128 227.838 283.062 226.678C284.996 225.518 286.082 223.944 286.082 222.303C286.082 220.662 284.996 219.088 283.062 217.928C281.128 216.767 278.505 216.115 275.77 216.115C273.034 216.115 270.411 216.767 268.477 217.928C266.544 219.088 265.457 220.662 265.457 222.303Z" fill="#FFB59E"/>
</svg>
