<svg width="497" height="497" viewBox="0 0 497 497" fill="none" xmlns="http://www.w3.org/2000/svg">
<path d="M259.441 101.566C259.441 101.566 346.727 42.1331 379.239 68.9504C411.751 95.7677 366.711 205.729 366.711 205.729L259.441 101.566Z" fill="#FFE500"/>
<path d="M273.629 124.242C273.629 124.242 335.754 79.2012 357.912 97.321C380.07 115.441 346.315 194.754 346.315 194.754L273.629 124.242Z" fill="#FFA694"/>
<path d="M194.83 101.566C194.83 101.566 107.544 42.1331 75.0323 68.9504C42.5202 95.7677 87.5608 205.729 87.5608 205.729L194.83 101.566Z" fill="#FFE500"/>
<path d="M379.239 91.626C386.038 98.0777 390.082 106.907 390.525 116.269C392.389 95.5606 390.525 77.855 379.239 68.9504C346.727 42.1331 259.441 101.566 259.441 101.566L273.627 115.234C299.616 99.9094 354.907 71.539 379.239 91.626Z" fill="#FFF48C"/>
<path d="M75.0342 91.626C99.3665 71.539 154.554 99.9094 180.647 115.337L194.832 101.566C194.832 101.566 107.546 42.1331 75.0342 68.9504C64.1623 77.855 61.4702 95.9748 63.7481 116.269C64.1917 106.907 68.2352 98.0777 75.0342 91.626Z" fill="#FFF48C"/>
<path d="M259.441 101.566C259.441 101.566 346.727 42.1331 379.239 68.9504C411.751 95.7677 366.711 205.729 366.711 205.729L259.441 101.566Z" stroke="#45413C" stroke-width="7" stroke-linecap="round" stroke-linejoin="round"/>
<path d="M194.83 101.566C194.83 101.566 107.544 42.1331 75.0323 68.9504C42.5202 95.7677 87.5608 205.729 87.5608 205.729L194.83 101.566Z" stroke="#45413C" stroke-width="7" stroke-linecap="round" stroke-linejoin="round"/>
<path d="M180.648 124.242C180.648 124.242 118.523 79.2012 96.3649 97.321C74.2069 115.441 107.962 194.754 107.962 194.754L180.648 124.242Z" fill="#FFA694"/>
<path d="M357.912 120.618C361.403 123.794 363.705 128.069 364.435 132.732C366.506 117.408 365.574 103.637 357.912 97.321C335.857 79.2012 273.629 124.242 273.629 124.242L287.918 138.116C307.591 125.588 342.484 107.882 357.912 120.618Z" fill="#FF866E"/>
<path d="M96.363 120.618C111.791 107.882 146.684 126.002 166.357 138.116L180.646 124.242C180.646 124.242 118.521 79.2012 96.363 97.321C88.7009 103.637 87.7691 117.408 89.8399 132.732C90.57 128.069 92.8715 123.794 96.363 120.618Z" fill="#FF866E"/>
<path d="M273.629 124.242C273.629 124.242 335.754 79.2012 357.912 97.321C380.07 115.441 346.315 194.754 346.315 194.754L273.629 124.242Z" stroke="#45413C" stroke-width="7" stroke-linecap="round" stroke-linejoin="round"/>
<path d="M180.648 124.242C180.648 124.242 118.523 79.2012 96.3649 97.321C74.2069 115.441 107.962 194.754 107.962 194.754L180.648 124.242Z" stroke="#45413C" stroke-width="7" stroke-linecap="round" stroke-linejoin="round"/>
<path d="M385.866 311.031L376.134 220.846C371.525 184.785 353.774 151.692 326.281 127.906C298.788 104.119 263.486 91.3121 227.137 91.9369C190.788 91.3121 155.486 104.119 127.993 127.906C100.501 151.692 82.7497 184.785 78.1407 220.846L68.4077 311.031C67.416 322.749 68.903 334.545 72.7718 345.651C76.6406 356.757 82.8045 366.923 90.8625 375.489C98.9204 384.055 108.692 390.828 119.541 395.368C130.389 399.907 142.073 402.112 153.83 401.837H158.593C171.535 417.886 197.317 428.861 227.137 428.861C256.957 428.861 282.739 417.886 295.682 401.837H300.445C312.202 402.112 323.885 399.907 334.734 395.368C345.582 390.828 355.354 384.055 363.412 375.489C371.47 366.923 377.634 356.757 381.502 345.651C385.371 334.545 386.858 322.749 385.866 311.031Z" fill="#FFE500"/>
<path d="M78.1406 258.949C82.7731 222.907 100.534 189.839 128.025 166.073C155.515 142.308 190.804 129.515 227.137 130.143C263.47 129.515 298.759 142.308 326.25 166.073C353.74 189.839 371.501 222.907 376.134 258.949L384.52 336.502C386.326 328.138 386.78 319.538 385.866 311.03L376.134 220.846C371.503 184.794 353.746 151.714 326.258 127.932C298.77 104.15 263.48 91.3344 227.137 91.9363C190.794 91.3344 155.505 104.15 128.017 127.932C100.529 151.714 82.7715 184.794 78.1406 220.846L68.4077 311.03C67.4937 319.538 67.9482 328.138 69.7538 336.502L78.1406 258.949Z" fill="#FFF48C"/>
<path d="M385.866 311.031L376.134 220.846C371.525 184.785 353.774 151.692 326.281 127.906C298.788 104.119 263.486 91.3121 227.137 91.9369C190.788 91.3121 155.486 104.119 127.993 127.906C100.501 151.692 82.7497 184.785 78.1407 220.846L68.4077 311.031C67.416 322.749 68.903 334.545 72.7718 345.651C76.6406 356.757 82.8045 366.923 90.8625 375.489C98.9204 384.055 108.692 390.828 119.541 395.368C130.389 399.907 142.073 402.112 153.83 401.837H158.593C171.535 417.886 197.317 428.861 227.137 428.861C256.957 428.861 282.739 417.886 295.682 401.837H300.445C312.202 402.112 323.885 399.907 334.734 395.368C345.582 390.828 355.354 384.055 363.412 375.489C371.47 366.923 377.634 356.757 381.502 345.651C385.371 334.545 386.858 322.749 385.866 311.031V311.031Z" stroke="#45413C" stroke-width="7" stroke-linecap="round" stroke-linejoin="round"/>
<path d="M309.969 323.249L345.484 314.759" stroke="#45413C" stroke-width="7" stroke-linecap="round" stroke-linejoin="round"/>
<path d="M309.969 348.72L345.484 356.485" stroke="#45413C" stroke-width="7" stroke-linecap="round" stroke-linejoin="round"/>
<path d="M253.027 352.195C254.388 354.442 255.109 357.019 255.11 359.646C255.117 363.601 253.553 367.396 250.761 370.197C247.97 372.998 244.18 374.575 240.226 374.582C236.272 374.589 232.476 373.024 229.676 370.233C226.875 367.442 225.297 363.652 225.29 359.697" stroke="#45413C" stroke-width="7" stroke-linecap="round"/>
<path d="M225.418 359.92C225.593 361.975 225.34 364.044 224.675 365.997C224.009 367.949 222.946 369.742 221.552 371.263C220.158 372.783 218.464 373.998 216.577 374.83C214.69 375.662 212.65 376.093 210.587 376.097C208.525 376.1 206.484 375.676 204.594 374.85C202.704 374.025 201.005 372.816 199.606 371.3C198.207 369.784 197.138 367.995 196.466 366.045C195.794 364.095 195.533 362.027 195.702 359.971C195.698 357.358 196.371 354.788 197.656 352.512" stroke="#45413C" stroke-width="7" stroke-linecap="round"/>
<path d="M429.767 346.96C425.99 339.752 419.534 334.314 411.789 331.817C404.044 329.319 395.628 329.96 388.351 333.603L371.37 341.369L365.882 323.456C363.607 315.694 358.44 309.1 351.447 305.035C344.454 300.97 336.168 299.744 328.297 301.609C322.287 303.075 316.704 305.927 311.994 309.936C307.284 313.945 303.576 319.001 301.169 324.698C298.193 331.06 296.566 337.967 296.387 344.988C296.209 352.008 297.485 358.99 300.133 365.494L329.539 434.66L400.776 410.741C407.374 408.361 413.419 404.665 418.546 399.877C423.672 395.089 427.771 389.309 430.596 382.889C433.264 377.249 434.579 371.064 434.435 364.826C434.292 358.589 432.693 352.471 429.767 346.96Z" fill="#FF6242"/>
<path d="M313.594 334.328C321.529 332.274 329.954 333.44 337.033 337.571C344.112 341.702 349.271 348.463 351.387 356.382L356.564 374.088L373.648 366.426C380.925 362.783 389.341 362.141 397.087 364.639C404.832 367.137 411.287 372.575 415.065 379.782C418.157 385.497 419.692 391.925 419.517 398.42C424.114 393.832 427.864 388.469 430.596 382.578C433.231 376.966 434.528 370.818 434.384 364.62C434.24 358.421 432.66 352.34 429.768 346.856C425.99 339.648 419.534 334.211 411.789 331.713C404.044 329.215 395.628 329.857 388.351 333.499L371.37 341.265L365.883 323.352C363.586 315.609 358.411 309.04 351.42 304.996C344.429 300.951 336.154 299.739 328.297 301.608C322.288 303.075 316.705 305.927 311.994 309.936C307.284 313.945 303.577 319 301.169 324.698C298.574 330.488 297.032 336.694 296.613 343.025C301.407 338.678 307.265 335.677 313.594 334.328Z" fill="#FF866E"/>
<path d="M429.767 346.96C425.99 339.752 419.534 334.314 411.789 331.817C404.044 329.319 395.628 329.96 388.351 333.603L371.37 341.369L365.882 323.456C363.607 315.694 358.44 309.1 351.447 305.035C344.454 300.97 336.168 299.744 328.297 301.609C322.287 303.075 316.704 305.927 311.994 309.936C307.284 313.945 303.576 319.001 301.169 324.698C298.193 331.06 296.566 337.967 296.387 344.988C296.209 352.008 297.485 358.99 300.133 365.494L329.539 434.66L400.776 410.741C407.374 408.361 413.419 404.665 418.546 399.877C423.672 395.089 427.771 389.309 430.596 382.889C433.264 377.249 434.579 371.064 434.435 364.826C434.292 358.589 432.693 352.471 429.767 346.96V346.96Z" stroke="#45413C" stroke-width="7" stroke-linecap="round" stroke-linejoin="round"/>
<path d="M313.802 265.162C313.802 269.968 311.893 274.577 308.495 277.975C305.097 281.373 300.488 283.282 295.682 283.282C290.877 283.282 286.268 281.373 282.87 277.975C279.472 274.577 277.562 269.968 277.562 265.162" stroke="#45413C" stroke-width="7" stroke-linecap="round" stroke-linejoin="round"/>
<path d="M176.712 265.162C176.712 269.968 174.803 274.577 171.405 277.975C168.007 281.373 163.398 283.282 158.592 283.282C153.787 283.282 149.178 281.373 145.78 277.975C142.382 274.577 140.473 269.968 140.473 265.162" stroke="#45413C" stroke-width="7" stroke-linecap="round" stroke-linejoin="round"/>
<path d="M254.885 331.429C253.223 337.67 249.657 343.237 244.684 347.357C239.711 351.477 233.577 353.944 227.136 354.415C220.695 353.944 214.561 351.477 209.588 347.357C204.614 343.237 201.049 337.67 199.387 331.429C199.387 324.285 211.812 318.59 227.136 318.59C242.46 318.59 254.885 324.285 254.885 331.429Z" fill="#FF866E"/>
<path d="M227.136 334.121C235.601 333.719 243.985 335.924 251.158 340.437C253.228 337.848 254.521 334.724 254.885 331.429C254.885 324.285 242.46 318.59 227.136 318.59C211.812 318.59 199.387 324.285 199.387 331.429C199.751 334.724 201.043 337.848 203.114 340.437C210.287 335.924 218.671 333.719 227.136 334.121Z" fill="#FFA694"/>
<path d="M254.885 331.429C253.223 337.67 249.657 343.237 244.684 347.357C239.711 351.477 233.577 353.944 227.136 354.415C220.695 353.944 214.561 351.477 209.588 347.357C204.614 343.237 201.049 337.67 199.387 331.429C199.387 324.285 211.812 318.59 227.136 318.59C242.46 318.59 254.885 324.285 254.885 331.429Z" stroke="#45413C" stroke-width="7" stroke-linecap="round" stroke-linejoin="round"/>
</svg>
