<svg width="495" height="495" viewBox="0 0 495 495" fill="none" xmlns="http://www.w3.org/2000/svg">
<path d="M334.504 295.198C337.049 326.726 335.972 358.347 329.391 388.375C328.161 394.027 326.728 399.604 325.095 405.13C322.834 412.752 320.172 420.249 317.094 427.588H303.424H191.583H177.913C174.836 420.249 172.172 412.753 169.913 405.12C168.28 399.604 166.847 394.016 165.616 388.375C159.036 358.347 157.958 326.714 160.504 295.188C163.96 252.578 174.056 210.146 186.211 172.118C205.243 178.556 225.909 182.079 247.498 182.079C269.087 182.079 289.753 178.556 308.797 172.118C320.952 210.146 331.048 252.577 334.504 295.198Z" fill="#399EE2"/>
<path d="M306.264 295.198C307.983 326.726 307.255 358.347 302.81 388.375C301.979 394.027 301.011 399.604 299.907 405.13C298.38 412.752 296.581 420.249 294.503 427.588H285.268H209.72H200.486C198.407 420.249 196.608 412.753 195.081 405.12C193.978 399.604 193.011 394.016 192.179 388.375C187.733 358.347 187.005 326.714 188.724 295.188C191.059 252.578 197.879 210.146 206.09 172.118C218.947 178.556 232.907 182.079 247.491 182.079C262.074 182.079 276.034 178.556 288.898 172.118C297.108 210.146 303.929 252.577 306.264 295.198Z" fill="#53AEF9"/>
<path d="M303.421 427.59L319.34 465.23H175.664L191.582 427.59H303.421Z" fill="#E81F1F"/>
<path d="M283.378 427.59L293.593 465.23H201.406L211.621 427.59H283.378Z" fill="#F73E3E"/>
<path d="M308.789 172.116C302.22 174.328 295.473 176.205 288.561 177.694C275.4 180.567 261.647 182.077 247.49 182.077C233.334 182.077 219.58 180.567 206.431 177.694C199.506 176.205 192.76 174.339 186.203 172.116C188.83 163.896 191.553 155.875 194.323 148.106C198.596 149.616 202.964 150.948 207.426 152.09C220.138 155.351 233.584 157.102 247.491 157.102C261.399 157.102 274.844 155.351 287.568 152.09C292.03 150.948 296.398 149.616 300.671 148.106C303.44 155.875 306.162 163.895 308.789 172.116Z" fill="#399EE2"/>
<path d="M291.461 175.788C290.502 176.448 289.544 177.078 288.573 177.697C275.412 180.57 261.659 182.08 247.502 182.08C233.347 182.08 219.592 180.57 206.443 177.697C205.472 177.078 204.514 176.449 203.555 175.788C204.821 167.757 206.123 159.841 207.437 152.093C220.149 155.354 233.595 157.105 247.502 157.105C261.41 157.105 274.855 155.354 287.579 152.093C288.893 159.841 290.195 167.757 291.461 175.788Z" fill="#80C8F9"/>
<path d="M300.66 148.107C292.956 150.833 284.919 152.982 276.609 154.481C267.199 156.201 257.459 157.103 247.481 157.103C237.503 157.103 227.762 156.201 218.352 154.481C210.055 152.982 202.018 150.833 194.312 148.107C218.932 79.1183 247.481 29.7139 247.481 29.7139C247.481 29.7139 276.029 79.1183 300.66 148.107Z" fill="#E81F1F"/>
<path d="M276.625 154.482C267.214 156.201 257.474 157.104 247.496 157.104C237.518 157.104 227.777 156.202 218.367 154.482C231.967 81.6238 247.496 29.7139 247.496 29.7139C247.496 29.7139 263.025 81.6238 276.625 154.482Z" fill="#F73E3E"/>
<path d="M247.503 204.256C274.43 204.256 296.255 223.589 296.255 247.442C296.255 271.296 274.43 290.629 247.503 290.629C220.575 290.629 198.75 271.296 198.75 247.442C198.75 223.589 220.576 204.256 247.503 204.256ZM279.886 247.442C279.886 231.6 265.387 218.757 247.504 218.757C229.62 218.757 215.121 231.601 215.121 247.442C215.121 263.284 229.62 276.128 247.504 276.128C265.387 276.128 279.886 263.285 279.886 247.442Z" fill="#399EE2"/>
<path d="M247.503 312.802C274.43 312.802 296.255 332.135 296.255 355.978C296.255 379.831 274.43 399.165 247.503 399.165C220.575 399.165 198.75 379.83 198.75 355.978C198.75 332.135 220.576 312.802 247.503 312.802ZM279.886 355.978C279.886 340.135 265.387 327.292 247.504 327.292C229.62 327.292 215.12 340.135 215.12 355.978C215.12 371.831 229.619 384.675 247.503 384.675C265.386 384.675 279.886 371.83 279.886 355.978Z" fill="#399EE2"/>
<path d="M224.594 227.157C211.948 238.36 211.948 256.524 224.594 267.725C230.921 273.33 239.207 276.133 247.492 276.133C255.778 276.133 264.063 273.33 270.39 267.725C283.037 256.523 283.037 238.359 270.39 227.157C264.063 221.552 255.778 218.75 247.492 218.75C239.207 218.75 230.921 221.552 224.594 227.157Z" fill="white"/>
<path d="M270.398 335.696C257.752 324.493 237.246 324.493 224.601 335.696C211.947 346.906 211.947 365.069 224.593 376.271C237.239 387.474 257.744 387.474 270.398 376.264C283.043 365.061 283.043 346.898 270.398 335.696Z" fill="white"/>
<path d="M169.896 405.121L104.289 421.991C104.289 421.991 116.93 396.136 165.599 388.377C166.83 394.018 168.262 399.607 169.896 405.121Z" fill="#399EE2"/>
<path d="M160.496 295.186C157.951 326.713 159.028 358.346 165.609 388.373C116.939 396.132 104.298 421.987 104.298 421.987C90.0012 338.802 156.247 297.733 160.496 295.186Z" fill="#53AEF9"/>
<path d="M317.086 432.304H303.415C300.475 432.304 298.092 430.192 298.092 427.589C298.092 424.985 300.475 422.874 303.415 422.874H313.356C315.822 416.718 318.033 410.361 319.94 403.933C321.542 398.512 322.962 392.976 324.158 387.483C330.196 359.929 331.889 328.995 329.189 295.535C326.139 257.932 317.553 216.839 303.669 173.403C301.151 165.526 298.434 157.494 295.595 149.528C277.29 98.2585 256.604 57.5057 247.491 40.4843C238.378 57.5057 217.695 98.2585 199.398 149.529C196.563 157.48 193.847 165.512 191.324 173.403C177.441 216.838 168.855 257.927 165.805 295.526C163.103 328.987 164.796 359.925 170.834 387.477C172.043 393.017 173.462 398.548 175.053 403.923C176.957 410.351 179.166 416.711 181.636 422.874H191.577C194.516 422.874 196.9 424.985 196.9 427.589C196.9 430.192 194.516 432.304 191.577 432.304H177.907C175.682 432.304 173.693 431.078 172.918 429.23C169.814 421.827 167.067 414.119 164.757 406.316C163.108 400.742 161.635 395.007 160.383 389.27C154.168 360.909 152.42 329.14 155.188 294.851C158.29 256.611 167.001 214.886 181.082 170.833C183.634 162.853 186.382 154.729 189.248 146.688C213.719 78.115 242.466 28.0637 242.754 27.5658C243.663 25.991 245.493 25 247.49 25C249.487 25 251.316 25.991 252.228 27.5667C252.516 28.0646 281.262 78.115 305.744 146.687C308.616 154.745 311.362 162.868 313.91 170.834C327.992 214.887 336.703 256.616 339.805 294.861C342.572 329.148 340.823 360.913 334.607 389.275C333.368 394.963 331.897 400.701 330.236 406.325C327.919 414.132 325.174 421.838 322.075 429.23C321.301 431.078 319.311 432.304 317.086 432.304Z" fill="#333333"/>
<path d="M104.3 426.705C103.295 426.705 102.299 426.453 101.434 425.963C100.143 425.232 99.2692 424.042 99.0392 422.7C92.9568 387.314 100.542 353.803 120.974 325.791C136.519 304.479 154.14 293.307 157.515 291.283C157.611 291.226 157.708 291.171 157.807 291.12C160.236 289.682 163.461 290.283 165.105 292.424C166.749 294.566 166.074 297.518 163.671 298.991C163.671 298.991 163.569 299.053 163.362 299.164C160.974 300.612 144.374 311.086 129.915 330.909C111.672 355.92 104.562 384.5 108.747 415.938L168.424 400.593C168.462 400.583 168.5 400.573 168.539 400.565L168.716 400.523C171.558 399.856 174.472 401.351 175.229 403.867C175.985 406.383 174.294 408.965 171.454 409.636L171.334 409.664L105.785 426.52C105.297 426.643 104.798 426.705 104.3 426.705Z" fill="#333333"/>
<path d="M247.49 161.821C228.44 161.821 209.889 158.681 192.353 152.49C189.623 151.526 188.291 148.783 189.38 146.364C190.468 143.945 193.563 142.767 196.295 143.73C212.573 149.478 229.798 152.391 247.492 152.391C265.193 152.391 282.423 149.478 298.7 143.73C301.436 142.765 304.527 143.946 305.615 146.364C306.703 148.783 305.371 151.526 302.642 152.49C285.104 158.682 266.548 161.821 247.49 161.821Z" fill="#333333"/>
<path d="M288.554 182.422C286.159 182.422 283.985 180.981 283.388 178.829C282.689 176.3 284.436 173.747 287.291 173.128C293.92 171.689 300.512 169.867 306.886 167.713C309.628 166.783 312.709 168.004 313.756 170.437C314.804 172.87 313.426 175.594 310.68 176.523C303.895 178.816 296.878 180.755 289.824 182.286C289.4 182.378 288.974 182.422 288.554 182.422Z" fill="#333333"/>
<path d="M269.598 185.368C266.98 185.368 264.698 183.657 264.332 181.296C263.93 178.716 265.966 176.337 268.878 175.983C270.349 175.803 271.813 175.607 273.27 175.394C276.176 174.968 278.909 176.711 279.388 179.28C279.866 181.85 277.902 184.275 275.002 184.699C273.451 184.926 271.894 185.134 270.329 185.325C270.083 185.354 269.838 185.368 269.598 185.368Z" fill="#333333"/>
<path d="M247.494 186.793C225.717 186.793 204.458 183.337 184.308 176.522C181.562 175.593 180.185 172.868 181.235 170.435C182.283 168.002 185.359 166.784 188.106 167.713C207.038 174.117 227.02 177.363 247.495 177.363C249.646 177.363 251.83 177.326 253.986 177.253C256.934 177.154 259.395 179.183 259.508 181.785C259.62 184.386 257.33 186.577 254.392 186.676C252.1 186.753 249.78 186.793 247.494 186.793Z" fill="#333333"/>
<path d="M247.497 403.878C217.679 403.878 193.422 382.39 193.422 355.977C193.422 329.569 217.679 308.086 247.497 308.086C256.497 308.086 265.412 310.086 273.276 313.869C275.859 315.112 276.816 317.975 275.413 320.262C274.012 322.55 270.779 323.399 268.197 322.156C261.886 319.12 254.729 317.516 247.497 317.516C223.549 317.516 204.067 334.769 204.067 355.977C204.067 377.191 223.549 394.449 247.497 394.449C271.445 394.449 290.927 377.191 290.927 355.977C290.927 345.704 286.409 336.047 278.207 328.782C276.128 326.941 276.128 323.956 278.206 322.114C280.285 320.273 283.654 320.272 285.733 322.114C295.947 331.16 301.572 343.187 301.572 355.978C301.573 382.389 277.315 403.878 247.497 403.878Z" fill="#333333"/>
<path d="M247.497 295.342C217.679 295.342 193.422 273.854 193.422 247.44C193.422 221.027 217.679 199.539 247.497 199.539C256.024 199.539 264.52 201.344 272.064 204.757C274.682 205.942 275.721 208.782 274.384 211.101C273.046 213.42 269.839 214.339 267.222 213.154C261.083 210.377 254.447 208.969 247.497 208.969C223.549 208.969 204.067 226.227 204.067 247.44C204.067 268.654 223.549 285.912 247.497 285.912C271.445 285.912 290.927 268.654 290.927 247.44C290.927 237.164 286.409 227.502 278.207 220.236C276.128 218.394 276.128 215.41 278.206 213.568C280.285 211.728 283.657 211.728 285.733 213.568C295.947 222.615 301.572 234.644 301.572 247.44C301.573 273.854 277.315 295.342 247.497 295.342Z" fill="#333333"/>
<path d="M319.342 469.943H175.666C173.92 469.943 172.286 469.185 171.292 467.914C170.298 466.644 170.07 465.022 170.682 463.574L186.601 425.934C187.38 424.093 189.366 422.873 191.585 422.873H303.424C305.643 422.873 307.63 424.092 308.409 425.934L324.328 463.574C324.94 465.022 324.711 466.643 323.718 467.914C322.722 469.185 321.088 469.943 319.342 469.943ZM183.343 460.513H311.664L299.733 432.303H195.275L183.343 460.513Z" fill="#333333"/>
<path d="M224.594 227.157C211.948 238.36 211.948 256.524 224.594 267.725C230.921 273.33 239.207 276.133 247.492 276.133V218.75C239.207 218.75 230.921 221.552 224.594 227.157Z" fill="#C3E7FC"/>
<path d="M224.883 335.444C212.237 346.646 212.237 364.809 224.883 376.012C231.21 381.616 239.496 384.419 247.781 384.419V327.036C239.496 327.036 231.21 329.839 224.883 335.444Z" fill="#C3E7FC"/>
<path d="M247.495 280.84C237.424 280.84 227.955 277.365 220.833 271.057C213.712 264.749 209.789 256.361 209.789 247.439C209.789 238.516 213.712 230.129 220.833 223.82C227.955 217.512 237.423 214.037 247.495 214.037C257.568 214.037 267.036 217.512 274.157 223.82C281.278 230.129 285.201 238.516 285.201 247.439C285.201 256.361 281.278 264.749 274.157 271.057C267.036 277.365 257.568 280.84 247.495 280.84ZM247.495 223.479C240.566 223.479 233.636 225.816 228.36 230.489C217.809 239.836 217.809 255.044 228.36 264.389C238.911 273.737 256.079 273.736 266.631 264.389C277.181 255.043 277.181 239.835 266.631 230.489C261.355 225.816 254.426 223.479 247.495 223.479Z" fill="#333333"/>
<path d="M247.494 389.39C226.704 389.39 209.789 374.401 209.789 355.979C209.789 337.561 226.704 322.577 247.494 322.577C268.286 322.577 285.2 337.561 285.2 355.979C285.201 374.401 268.286 389.39 247.494 389.39ZM247.494 332.007C232.572 332.007 220.434 342.76 220.434 355.979C220.434 369.202 232.573 379.96 247.494 379.96C262.415 379.96 274.555 369.202 274.555 355.979C274.556 342.76 262.416 332.007 247.494 332.007Z" fill="#333333"/>
</svg>
