<svg width="495" height="495" viewBox="0 0 495 495" fill="none" xmlns="http://www.w3.org/2000/svg">
<path d="M247.972 478.562C233.767 478.563 219.702 475.76 206.582 470.314C193.462 464.869 181.545 456.888 171.515 446.829C161.485 436.77 153.538 424.831 148.13 411.695C142.722 398.56 139.96 384.486 140 370.281V122.781C139.96 108.576 142.722 94.5027 148.13 81.3672C153.538 68.2317 161.485 56.2924 171.515 46.2335C181.545 36.1746 193.462 28.1938 206.582 22.7484C219.702 17.3029 233.767 14.4999 247.972 14.5V14.5C262.177 14.4999 276.243 17.3029 289.363 22.7484C302.483 28.1938 314.399 36.1746 324.43 46.2335C334.46 56.2924 342.406 68.2317 347.814 81.3672C353.222 94.5027 355.985 108.576 355.944 122.781V370.281C355.985 384.486 353.222 398.56 347.814 411.695C342.406 424.831 334.46 436.77 324.43 446.829C314.399 456.888 302.483 464.869 289.363 470.314C276.243 475.76 262.177 478.563 247.972 478.562V478.562Z" fill="#DAEDF7"/>
<path d="M247.972 14.5C233.767 14.4999 219.702 17.3029 206.582 22.7484C193.462 28.1938 181.545 36.1746 171.515 46.2335C161.485 56.2924 153.538 68.2317 148.13 81.3672C142.722 94.5027 139.96 108.576 140 122.781V149.697C140 121.061 151.376 93.5979 171.625 73.3492C191.873 53.1006 219.336 41.725 247.972 41.725C276.608 41.725 304.071 53.1006 324.32 73.3492C344.569 93.5979 355.944 121.061 355.944 149.697V122.781C355.985 108.576 353.222 94.5027 347.814 81.3672C342.406 68.2317 334.46 56.2924 324.43 46.2335C314.399 36.1746 302.483 28.1938 289.363 22.7484C276.243 17.3029 262.177 14.4999 247.972 14.5V14.5Z" fill="white"/>
<path d="M247.972 478.562C233.767 478.563 219.702 475.76 206.582 470.314C193.462 464.869 181.545 456.888 171.515 446.829C161.485 436.77 153.538 424.831 148.13 411.695C142.722 398.56 139.96 384.486 140 370.281V122.781C139.96 108.576 142.722 94.5027 148.13 81.3672C153.538 68.2317 161.485 56.2924 171.515 46.2335C181.545 36.1746 193.462 28.1938 206.582 22.7484C219.702 17.3029 233.767 14.4999 247.972 14.5V14.5C262.177 14.4999 276.243 17.3029 289.363 22.7484C302.483 28.1938 314.399 36.1746 324.43 46.2335C334.46 56.2924 342.406 68.2317 347.814 81.3672C353.222 94.5027 355.985 108.576 355.944 122.781V370.281C355.985 384.486 353.222 398.56 347.814 411.695C342.406 424.831 334.46 436.77 324.43 446.829C314.399 456.888 302.483 464.869 289.363 470.314C276.243 475.76 262.177 478.563 247.972 478.562V478.562Z" stroke="#45413C" stroke-width="7" stroke-linecap="round" stroke-linejoin="round"/>
<path d="M247.973 451.544C237.316 451.544 226.764 449.44 216.922 445.352C207.08 441.264 198.142 435.274 190.621 427.724C183.1 420.174 177.143 411.213 173.093 401.356C169.043 391.498 166.979 380.938 167.02 370.281V122.781C166.979 112.124 169.043 101.564 173.093 91.7066C177.143 81.8492 183.1 72.8884 190.621 65.3385C198.142 57.7885 207.08 51.7978 216.922 47.7102C226.764 43.6226 237.316 41.5185 247.973 41.5186V41.5186C258.63 41.5185 269.182 43.6226 279.024 47.7102C288.866 51.7978 297.804 57.7885 305.325 65.3385C312.847 72.8884 318.803 81.8492 322.853 91.7066C326.903 101.564 328.967 112.124 328.926 122.781V370.281C328.967 380.938 326.903 391.498 322.853 401.356C318.803 411.213 312.847 420.174 305.325 427.724C297.804 435.274 288.866 441.264 279.024 445.352C269.182 449.44 258.63 451.544 247.973 451.544V451.544Z" fill="#87898C"/>
<path d="M247.973 41.5186C237.316 41.5185 226.764 43.6226 216.922 47.7102C207.08 51.7978 198.142 57.7885 190.621 65.3385C183.1 72.8884 177.143 81.8492 173.093 91.7066C169.043 101.564 166.979 112.124 167.02 122.781V151.14C167.02 129.67 175.549 109.08 190.731 93.8979C205.912 78.7163 226.503 70.1873 247.973 70.1873C269.443 70.1873 290.034 78.7163 305.216 93.8979C320.397 109.08 328.926 129.67 328.926 151.14V122.781C328.967 112.124 326.903 101.564 322.853 91.7066C318.803 81.8492 312.847 72.8884 305.325 65.3385C297.804 57.7885 288.866 51.7978 279.024 47.7102C269.182 43.6226 258.63 41.5185 247.973 41.5186V41.5186Z" fill="#656769"/>
<path d="M247.973 451.544C237.316 451.544 226.764 449.44 216.922 445.352C207.08 441.264 198.142 435.274 190.621 427.724C183.1 420.174 177.143 411.213 173.093 401.356C169.043 391.498 166.979 380.938 167.02 370.281V122.781C166.979 112.124 169.043 101.564 173.093 91.7066C177.143 81.8492 183.1 72.8884 190.621 65.3385C198.142 57.7885 207.08 51.7978 216.922 47.7102C226.764 43.6226 237.316 41.5185 247.973 41.5186V41.5186C258.63 41.5185 269.182 43.6226 279.024 47.7102C288.866 51.7978 297.804 57.7885 305.325 65.3385C312.847 72.8884 318.803 81.8492 322.853 91.7066C326.903 101.564 328.967 112.124 328.926 122.781V370.281C328.967 380.938 326.903 391.498 322.853 401.356C318.803 411.213 312.847 420.174 305.325 427.724C297.804 435.274 288.866 441.264 279.024 445.352C269.182 449.44 258.63 451.544 247.973 451.544V451.544Z" stroke="#45413C" stroke-width="7" stroke-linecap="round" stroke-linejoin="round"/>
<path d="M294.23 251.206C294.102 238.899 289.091 227.146 280.298 218.534C271.505 209.922 259.652 205.156 247.345 205.283C235.037 205.411 223.285 210.422 214.673 219.215C206.061 228.008 201.294 239.861 201.422 252.168C201.55 264.475 206.561 276.228 215.354 284.84C224.146 293.452 236 298.218 248.307 298.091C260.614 297.963 272.366 292.952 280.979 284.159C289.591 275.366 294.357 263.513 294.23 251.206V251.206Z" fill="#FFE500"/>
<path d="M248.303 298.09C258.865 298.037 269.091 294.374 277.285 287.71C285.48 281.046 291.149 271.781 293.354 261.452C295.558 251.123 294.165 240.35 289.406 230.921C284.646 221.493 276.806 213.974 267.186 209.614L216.409 285.529C225.042 293.642 236.456 298.137 248.303 298.09Z" fill="#FFF48C"/>
<path d="M295.456 369.793C295.329 357.485 290.317 345.733 281.524 337.121C272.732 328.509 260.878 323.742 248.571 323.87C236.264 323.998 224.512 329.009 215.9 337.802C207.288 346.594 202.521 358.448 202.649 370.755C202.776 383.062 207.788 394.814 216.58 403.427C225.373 412.039 237.227 416.805 249.534 416.678C261.841 416.55 273.593 411.539 282.205 402.746C290.817 393.953 295.584 382.1 295.456 369.793Z" fill="#6DD627"/>
<path d="M249.533 416.677C260.095 416.624 270.322 412.962 278.516 406.298C286.71 399.634 292.38 390.369 294.584 380.04C296.789 369.71 295.396 358.938 290.636 349.509C285.877 340.08 278.037 332.562 268.417 328.202L217.639 404.117C226.272 412.23 237.687 416.725 249.533 416.677V416.677Z" fill="#9CEB60"/>
<path d="M292.999 132.618C292.871 120.311 287.86 108.558 279.067 99.9463C270.275 91.3342 258.421 86.5676 246.114 86.6953C233.807 86.823 222.055 91.8343 213.443 100.627C204.831 109.42 200.064 121.273 200.192 133.58C200.319 145.887 205.331 157.64 214.123 166.252C222.916 174.864 234.77 179.63 247.077 179.503C259.384 179.375 271.136 174.364 279.748 165.571C288.36 156.778 293.127 144.925 292.999 132.618Z" fill="#FF6242"/>
<path d="M247.073 179.503C257.634 179.45 267.861 175.787 276.055 169.123C284.249 162.459 289.919 153.194 292.123 142.865C294.328 132.536 292.935 121.763 288.175 112.334C283.416 102.906 275.576 95.3874 265.956 91.027L215.178 166.942C223.811 175.055 235.226 179.55 247.073 179.503V179.503Z" fill="#FF866E"/>
<path d="M201.566 251.688C201.566 263.995 206.456 275.799 215.158 284.502C223.861 293.205 235.665 298.094 247.973 298.094C260.28 298.094 272.084 293.205 280.787 284.502C289.49 275.799 294.379 263.995 294.379 251.688C294.379 239.38 289.49 227.576 280.787 218.873C272.084 210.17 260.28 205.281 247.973 205.281C235.665 205.281 223.861 210.17 215.158 218.873C206.456 227.576 201.566 239.38 201.566 251.688V251.688Z" stroke="#45413C" stroke-width="7" stroke-linecap="round" stroke-linejoin="round"/>
<path d="M201.566 133.094C201.566 145.401 206.456 157.205 215.158 165.908C223.861 174.611 235.665 179.5 247.973 179.5C260.28 179.5 272.084 174.611 280.787 165.908C289.49 157.205 294.379 145.401 294.379 133.094C294.379 120.786 289.49 108.982 280.787 100.28C272.084 91.5767 260.28 86.6875 247.973 86.6875C235.665 86.6875 223.861 91.5767 215.158 100.28C206.456 108.982 201.566 120.786 201.566 133.094Z" stroke="#45413C" stroke-width="7" stroke-linecap="round" stroke-linejoin="round"/>
<path d="M201.566 370.281C201.566 382.589 206.456 394.393 215.158 403.095C223.861 411.798 235.665 416.688 247.973 416.688C260.28 416.688 272.084 411.798 280.787 403.095C289.49 394.393 294.379 382.589 294.379 370.281C294.379 357.974 289.49 346.17 280.787 337.467C272.084 328.764 260.28 323.875 247.973 323.875C235.665 323.875 223.861 328.764 215.158 337.467C206.456 346.17 201.566 357.974 201.566 370.281Z" stroke="#45413C" stroke-width="7" stroke-linecap="round" stroke-linejoin="round"/>
<path d="M299.535 367.188C299.535 395.65 291.182 341.406 247.973 341.406C204.763 341.406 196.41 395.65 196.41 367.188C196.41 353.512 201.843 340.397 211.512 330.727C221.182 321.057 234.297 315.625 247.973 315.625C261.648 315.625 274.763 321.057 284.433 330.727C294.103 340.397 299.535 353.512 299.535 367.188Z" fill="#BDBEC0" stroke="#45413C" stroke-width="7" stroke-linecap="round" stroke-linejoin="round"/>
<path d="M299.535 248.594C299.535 277.056 291.182 222.813 247.973 222.813C204.763 222.813 196.41 277.469 196.41 248.594C196.41 234.919 201.843 221.803 211.512 212.134C221.182 202.464 234.297 197.031 247.973 197.031C261.648 197.031 274.763 202.464 284.433 212.134C294.103 221.803 299.535 234.919 299.535 248.594V248.594Z" fill="#BDBEC0" stroke="#45413C" stroke-width="7" stroke-linecap="round" stroke-linejoin="round"/>
<path d="M299.535 130C299.535 158.462 291.182 104.219 247.973 104.219C204.763 104.219 196.41 158.462 196.41 130C196.41 116.325 201.843 103.21 211.512 93.5398C221.182 83.87 234.297 78.4375 247.973 78.4375C261.648 78.4375 274.763 83.87 284.433 93.5398C294.103 103.21 299.535 116.325 299.535 130V130Z" fill="#BDBEC0" stroke="#45413C" stroke-width="7" stroke-linecap="round" stroke-linejoin="round"/>
</svg>
