<svg width="495" height="495" viewBox="0 0 495 495" fill="none" xmlns="http://www.w3.org/2000/svg">
<path d="M22 247.075C22 280.114 45.7181 311.8 87.9367 335.163C130.155 358.525 187.416 371.65 247.122 371.65C306.828 371.65 364.089 358.525 406.307 335.163C448.526 311.8 472.244 280.114 472.244 247.075C472.244 214.036 448.526 182.35 406.307 158.987C364.089 135.625 306.828 122.5 247.122 122.5C187.416 122.5 130.155 135.625 87.9367 158.987C45.7181 182.35 22 214.036 22 247.075Z" fill="white"/>
<path d="M247.122 183.241C359.012 183.241 433.778 236.041 460.9 277.394C467.444 268.548 471.375 258.044 472.244 247.075C472.244 208.816 389.744 122.5 247.122 122.5C104.5 122.5 22 208.816 22 247.075C22.8691 258.044 26.7994 268.548 33.3437 277.394C60.4656 236.041 135.231 183.241 247.122 183.241Z" fill="#E0E0E0"/>
<path d="M22 247.075C22 280.114 45.7181 311.8 87.9367 335.163C130.155 358.525 187.416 371.65 247.122 371.65C306.828 371.65 364.089 358.525 406.307 335.163C448.526 311.8 472.244 280.114 472.244 247.075C472.244 214.036 448.526 182.35 406.307 158.987C364.089 135.625 306.828 122.5 247.122 122.5C187.416 122.5 130.155 135.625 87.9367 158.987C45.7181 182.35 22 214.036 22 247.075V247.075Z" stroke="#45413C" stroke-width="7" stroke-linecap="round" stroke-linejoin="round"/>
<path d="M247.122 152.097C382.525 152.097 460.797 237.175 461.931 275.847C467.899 267.361 471.463 257.42 472.244 247.075C472.244 208.816 389.744 122.5 247.122 122.5C104.5 122.5 22 208.816 22 247.075C22.7811 257.42 26.3443 267.361 32.3125 275.847C33.4469 236.763 111.719 152.097 247.122 152.097Z" fill="#656769" stroke="#45413C" stroke-width="7" stroke-linecap="round" stroke-linejoin="round"/>
<path d="M154.516 247.075C154.516 259.236 156.911 271.278 161.565 282.514C166.219 293.749 173.04 303.958 181.639 312.558C190.239 321.157 200.447 327.978 211.683 332.632C222.919 337.286 234.961 339.681 247.122 339.681C259.283 339.681 271.325 337.286 282.561 332.632C293.796 327.978 304.005 321.157 312.604 312.558C321.204 303.958 328.025 293.749 332.679 282.514C337.333 271.278 339.728 259.236 339.728 247.075C339.728 234.914 337.333 222.872 332.679 211.636C328.025 200.401 321.204 190.192 312.604 181.592C304.005 172.993 293.796 166.172 282.561 161.518C271.325 156.864 259.283 154.469 247.122 154.469C234.961 154.469 222.919 156.864 211.683 161.518C200.447 166.172 190.239 172.993 181.639 181.592C173.04 190.192 166.219 200.401 161.565 211.636C156.911 222.872 154.516 234.914 154.516 247.075Z" fill="#B89558"/>
<path d="M311.368 180.354C321.32 192.516 327.616 207.253 329.523 222.853C331.43 238.452 328.87 254.272 322.141 268.474C315.412 282.676 304.79 294.676 291.509 303.078C278.229 311.481 262.837 315.942 247.121 315.942C231.406 315.942 216.013 311.481 202.733 303.078C189.453 294.676 178.83 282.676 172.101 268.474C165.372 254.272 162.812 238.452 164.719 222.853C166.626 207.253 172.922 192.516 182.874 180.354C169.508 193.174 160.283 209.701 156.386 227.808C152.489 245.915 154.099 264.773 161.008 281.957C167.917 299.142 179.81 313.866 195.156 324.236C210.502 334.606 228.6 340.147 247.121 340.147C265.642 340.147 283.74 334.606 299.086 324.236C314.432 313.866 326.325 299.142 333.234 281.957C340.143 264.773 341.753 245.915 337.856 227.808C333.959 209.701 324.735 193.174 311.368 180.354Z" fill="#947746"/>
<path d="M154.516 247.075C154.516 259.236 156.911 271.278 161.565 282.514C166.219 293.749 173.04 303.958 181.639 312.558C190.239 321.157 200.447 327.978 211.683 332.632C222.919 337.286 234.961 339.681 247.122 339.681C259.283 339.681 271.325 337.286 282.561 332.632C293.796 327.978 304.005 321.157 312.604 312.558C321.204 303.958 328.025 293.749 332.679 282.514C337.333 271.278 339.728 259.236 339.728 247.075C339.728 234.914 337.333 222.872 332.679 211.636C328.025 200.401 321.204 190.192 312.604 181.592C304.005 172.993 293.796 166.172 282.561 161.518C271.325 156.864 259.283 154.469 247.122 154.469C234.961 154.469 222.919 156.864 211.683 161.518C200.447 166.172 190.239 172.993 181.639 181.592C173.04 190.192 166.219 200.401 161.565 211.636C156.911 222.872 154.516 234.914 154.516 247.075V247.075Z" stroke="#45413C" stroke-width="7" stroke-linecap="round" stroke-linejoin="round"/>
<path d="M205.562 247.075C205.562 258.097 209.941 268.668 217.735 276.462C225.529 284.256 236.1 288.634 247.122 288.634C258.144 288.634 268.715 284.256 276.509 276.462C284.303 268.668 288.681 258.097 288.681 247.075C288.681 236.053 284.303 225.482 276.509 217.688C268.715 209.894 258.144 205.516 247.122 205.516C236.1 205.516 225.529 209.894 217.735 217.688C209.941 225.482 205.562 236.053 205.562 247.075Z" fill="#525252" stroke="#45413C" stroke-width="7" stroke-linecap="round" stroke-linejoin="round"/>
</svg>
