<svg width="495" height="495" viewBox="0 0 495 495" fill="none" xmlns="http://www.w3.org/2000/svg">
<path d="M480 247.806C480 284.09 469.683 318.887 451.319 344.543C432.956 370.199 408.049 384.613 382.079 384.613C356.108 384.613 331.201 370.199 312.838 344.543C294.474 318.887 284.157 284.09 284.157 247.806C284.157 211.523 294.474 176.726 312.838 151.07C331.201 125.413 356.108 111 382.079 111C408.049 111 432.956 125.413 451.319 151.07C469.683 176.726 480 211.523 480 247.806Z" fill="white"/>
<path d="M212.16 247.806C212.16 284.09 201.843 318.887 183.48 344.543C165.116 370.199 140.209 384.613 114.239 384.613C88.2683 384.613 63.3616 370.199 44.9978 344.543C26.634 318.887 16.3173 284.09 16.3173 247.806C16.3173 211.523 26.634 176.726 44.9978 151.07C63.3616 125.413 88.2683 111 114.239 111C140.209 111 165.116 125.413 183.48 151.07C201.843 176.726 212.16 211.523 212.16 247.806Z" fill="white"/>
<path d="M382.079 140.902C330.27 140.902 287.991 192.164 284.486 257.117C284.486 253.94 284.486 250.983 284.486 247.806C284.486 172.229 328.298 111 382.407 111C436.516 111 480 172.229 480 247.806C480 250.983 480 253.94 480 257.117C476.166 192.164 434.325 140.902 382.079 140.902Z" fill="#E0E0E0"/>
<path d="M480 247.806C480 284.09 469.683 318.887 451.319 344.543C432.956 370.199 408.049 384.613 382.079 384.613C356.108 384.613 331.201 370.199 312.838 344.543C294.474 318.887 284.157 284.09 284.157 247.806C284.157 211.523 294.474 176.726 312.838 151.07C331.201 125.413 356.108 111 382.079 111C408.049 111 432.956 125.413 451.319 151.07C469.683 176.726 480 211.523 480 247.806V247.806Z" stroke="#45413C" stroke-width="7" stroke-linecap="round" stroke-linejoin="round"/>
<path d="M114.082 140.902C62.2734 140.902 19.9941 192.164 16.4891 257.117C16.4891 253.94 16.4891 250.983 16.4891 247.806C16.4891 172.229 60.3018 111 114.411 111C168.519 111 212.332 172.229 212.332 247.806C212.332 250.983 212.332 253.94 212.332 257.117C208.17 192.164 165.891 140.902 114.082 140.902Z" fill="#E0E0E0"/>
<path d="M212.16 247.806C212.16 284.09 201.843 318.887 183.48 344.543C165.116 370.199 140.209 384.613 114.239 384.613C88.2683 384.613 63.3617 370.199 44.9978 344.543C26.634 318.887 16.3173 284.09 16.3173 247.806C16.3173 211.523 26.634 176.726 44.9978 151.07C63.3617 125.413 88.2683 111 114.239 111C140.209 111 165.116 125.413 183.48 151.07C201.843 176.726 212.16 211.523 212.16 247.806V247.806Z" stroke="#45413C" stroke-width="7" stroke-linecap="round" stroke-linejoin="round"/>
<path d="M447 249.778C447 266.946 440.18 283.412 428.04 295.552C415.9 307.691 399.435 314.512 382.267 314.512C365.098 314.512 348.633 307.691 336.493 295.552C324.353 283.412 317.533 266.946 317.533 249.778C317.533 232.609 324.353 216.144 336.493 204.004C348.633 191.864 365.098 185.044 382.267 185.044C399.435 185.044 415.9 191.864 428.04 204.004C440.18 216.144 447 232.609 447 249.778Z" fill="#656769"/>
<path d="M382.255 287.35C396.992 287.254 411.256 282.132 422.687 272.832C434.119 263.531 442.035 250.608 445.127 236.198C446.135 240.656 446.649 245.21 446.66 249.78C446.66 266.949 439.84 283.414 427.7 295.554C415.56 307.694 399.095 314.514 381.927 314.514C364.759 314.514 348.293 307.694 336.153 295.554C324.014 283.414 317.194 266.949 317.194 249.78C317.204 245.21 317.719 240.656 318.727 236.198C321.824 250.727 329.832 263.746 341.402 273.062C352.973 282.379 367.4 287.425 382.255 287.35Z" fill="#525252"/>
<path d="M447 249.778C447 266.946 440.18 283.412 428.04 295.552C415.9 307.691 399.435 314.512 382.267 314.512C365.098 314.512 348.633 307.691 336.493 295.552C324.353 283.412 317.533 266.946 317.533 249.778C317.533 232.609 324.353 216.144 336.493 204.004C348.633 191.864 365.098 185.044 382.267 185.044C399.435 185.044 415.9 191.864 428.04 204.004C440.18 216.144 447 232.609 447 249.778V249.778Z" stroke="#45413C" stroke-width="7" stroke-linecap="round" stroke-linejoin="round"/>
<path d="M399.082 207.389C399.082 209.829 397.305 212.17 394.142 213.895C390.978 215.621 386.688 216.59 382.214 216.59C377.74 216.59 373.45 215.621 370.287 213.895C367.123 212.17 365.346 209.829 365.346 207.389C365.346 204.949 367.123 202.609 370.287 200.883C373.45 199.158 377.74 198.188 382.214 198.188C386.688 198.188 390.978 199.158 394.142 200.883C397.305 202.609 399.082 204.949 399.082 207.389Z" fill="#87898C"/>
<path d="M179.16 249.776C179.16 266.944 172.34 283.41 160.2 295.55C148.06 307.69 131.595 314.51 114.427 314.51C97.2585 314.51 80.7933 307.69 68.6535 295.55C56.5136 283.41 49.6935 266.944 49.6935 249.776C49.6935 232.607 56.5136 216.142 68.6535 204.002C80.7933 191.862 97.2585 185.042 114.427 185.042C131.595 185.042 148.06 191.862 160.2 204.002C172.34 216.142 179.16 232.607 179.16 249.776Z" fill="#656769"/>
<path d="M114.427 287.35C129.226 287.349 143.576 282.269 155.079 272.959C166.582 263.648 174.542 250.672 177.627 236.198C178.635 240.656 179.149 245.21 179.16 249.78C179.16 258.281 177.486 266.699 174.233 274.553C170.979 282.407 166.211 289.543 160.2 295.554C154.189 301.565 147.053 306.333 139.199 309.587C131.345 312.84 122.928 314.514 114.427 314.514C105.926 314.514 97.5083 312.84 89.6545 309.587C81.8007 306.333 74.6645 301.565 68.6535 295.554C62.6424 289.543 57.8742 282.407 54.6211 274.553C51.3679 266.699 49.6935 258.281 49.6935 249.78C49.5963 245.222 50.0004 240.668 50.8984 236.198C53.9952 250.727 62.0029 263.746 73.5737 273.062C85.1445 282.379 99.5717 287.425 114.427 287.35Z" fill="#525252"/>
<path d="M179.16 249.776C179.16 266.944 172.34 283.41 160.2 295.55C148.06 307.69 131.595 314.51 114.427 314.51C97.2585 314.51 80.7933 307.69 68.6535 295.55C56.5136 283.41 49.6935 266.944 49.6935 249.776C49.6935 232.607 56.5136 216.142 68.6535 204.002C80.7933 191.862 97.2585 185.042 114.427 185.042C131.595 185.042 148.06 191.862 160.2 204.002C172.34 216.142 179.16 232.607 179.16 249.776V249.776Z" stroke="#45413C" stroke-width="7" stroke-linecap="round" stroke-linejoin="round"/>
<path d="M131.238 207.389C131.238 209.829 129.461 212.17 126.298 213.895C123.134 215.621 118.844 216.59 114.37 216.59C109.897 216.59 105.606 215.621 102.443 213.895C99.2796 212.17 97.5025 209.829 97.5025 207.389C97.5025 204.949 99.2796 202.609 102.443 200.883C105.606 199.158 109.897 198.188 114.37 198.188C118.844 198.188 123.134 199.158 126.298 200.883C129.461 202.609 131.238 204.949 131.238 207.389Z" fill="#87898C"/>
</svg>
