<svg width="493" height="493" viewBox="0 0 493 493" fill="none" xmlns="http://www.w3.org/2000/svg">
<path d="M15.2695 246.013C15.2695 294.418 34.4985 340.841 68.7263 375.069C102.954 409.296 149.377 428.525 197.782 428.525C246.188 428.525 292.61 409.296 326.838 375.069C361.066 340.841 380.295 294.418 380.295 246.013C380.295 197.607 361.066 151.185 326.838 116.957C292.61 82.729 246.188 63.5 197.782 63.5C149.377 63.5 102.954 82.729 68.7263 116.957C34.4985 151.185 15.2695 197.607 15.2695 246.013Z" fill="#FFE500"/>
<path d="M197.725 63.5C161.603 63.5 126.292 74.2128 96.2585 94.2834C66.2253 114.354 42.8191 142.881 29.0004 176.255C15.1817 209.63 11.5713 246.353 18.6259 281.78C25.6805 317.206 43.0831 349.745 68.6326 375.28C94.1821 400.815 126.731 418.2 162.161 425.234C197.592 432.269 234.313 428.638 267.68 414.801C301.047 400.963 329.56 377.541 349.614 347.496C369.668 317.452 380.361 282.135 380.34 246.013C380.313 197.598 361.061 151.175 326.817 116.95C292.573 82.7257 246.14 63.5 197.725 63.5ZM197.725 401.205C164.776 401.205 132.567 391.434 105.171 373.129C77.7747 354.824 56.4221 328.805 43.8131 298.364C31.204 267.924 27.9049 234.427 34.333 202.111C40.761 169.796 56.6274 140.112 79.9259 116.813C103.224 93.5147 132.908 77.6482 165.224 71.2202C197.54 64.7922 231.036 68.0913 261.477 80.7003C291.918 93.3093 317.936 114.662 336.242 142.058C354.547 169.454 364.318 201.663 364.318 234.612C364.318 256.489 360.009 278.152 351.637 298.364C343.265 318.576 330.993 336.941 315.524 352.411C300.054 367.881 281.689 380.152 261.477 388.524C241.265 396.896 219.602 401.205 197.725 401.205Z" fill="#EBCB00"/>
<path d="M143.016 99.9639C143.016 103.587 148.783 107.061 159.05 109.623C169.316 112.185 183.24 113.624 197.759 113.624C212.278 113.624 226.202 112.185 236.469 109.623C246.735 107.061 252.503 103.587 252.503 99.9639C252.503 96.341 246.735 92.8665 236.469 90.3047C226.202 87.7429 212.278 86.3037 197.759 86.3037C183.24 86.3037 169.316 87.7429 159.05 90.3047C148.783 92.8665 143.016 96.341 143.016 99.9639Z" fill="#FFF48C"/>
<path d="M111.078 255.154C111.078 257.578 112.041 259.903 113.755 261.617C115.47 263.332 117.795 264.295 120.219 264.295C122.644 264.295 124.969 263.332 126.683 261.617C128.397 259.903 129.36 257.578 129.36 255.154C129.36 252.729 128.397 250.404 126.683 248.69C124.969 246.976 122.644 246.013 120.219 246.013C117.795 246.013 115.47 246.976 113.755 248.69C112.041 250.404 111.078 252.729 111.078 255.154Z" fill="#45413C" stroke="#45413C" stroke-width="7" stroke-linecap="round" stroke-linejoin="round"/>
<path d="M155.16 241.494C155.16 241.494 127.736 200.411 97.4375 214.071" stroke="#45413C" stroke-width="7" stroke-linecap="round" stroke-linejoin="round"/>
<path d="M240.426 241.494C240.426 241.494 267.849 200.411 298.251 214.071" stroke="#45413C" stroke-width="7" stroke-linecap="round" stroke-linejoin="round"/>
<path d="M266.266 255.154C266.266 257.578 267.229 259.903 268.943 261.617C270.657 263.332 272.982 264.295 275.407 264.295C277.831 264.295 280.156 263.332 281.87 261.617C283.585 259.903 284.548 257.578 284.548 255.154C284.548 252.729 283.585 250.404 281.87 248.69C280.156 246.976 277.831 246.013 275.407 246.013C272.982 246.013 270.657 246.976 268.943 248.69C267.229 250.404 266.266 252.729 266.266 255.154Z" fill="#45413C" stroke="#45413C" stroke-width="7" stroke-linecap="round" stroke-linejoin="round"/>
<path d="M152.16 337.321C165.673 328.291 181.561 323.471 197.814 323.471C214.067 323.471 229.955 328.291 243.468 337.321" stroke="#45413C" stroke-width="7" stroke-linecap="round"/>
<path d="M330.161 296.237C330.161 303.838 319.89 310 307.36 310C294.829 310 284.559 303.838 284.559 296.237C284.559 288.637 294.829 282.577 307.36 282.577C319.89 282.577 330.161 288.74 330.161 296.237Z" fill="#FFAA54"/>
<path d="M65.5 296.237C65.5 303.838 75.7708 310 88.3013 310C100.832 310 111.103 303.838 111.103 296.237C111.103 288.637 100.832 282.577 88.3013 282.577C75.7708 282.577 65.5 288.74 65.5 296.237Z" fill="#FFAA54"/>
<path d="M15.2695 246.013C15.2695 294.418 34.4985 340.841 68.7263 375.069C102.954 409.296 149.377 428.525 197.782 428.525C246.188 428.525 292.61 409.296 326.838 375.069C361.066 340.841 380.295 294.418 380.295 246.013C380.295 197.607 361.066 151.184 326.838 116.957C292.61 82.729 246.188 63.5 197.782 63.5C149.377 63.5 102.954 82.729 68.7263 116.957C34.4985 151.184 15.2695 197.607 15.2695 246.013V246.013Z" stroke="#45413C" stroke-width="7" stroke-linecap="round" stroke-linejoin="round"/>
<path d="M343.84 136.525H33.1477C31.7386 136.529 30.349 136.855 29.0851 137.478C27.8212 138.101 26.7165 139.005 25.8554 140.12C17.9074 150.543 11.187 161.847 5.82728 173.809C5.19167 175.199 4.91503 176.727 5.02269 178.252C5.13035 179.777 5.61887 181.251 6.44353 182.539C7.29097 183.812 8.43464 184.86 9.77636 185.593C11.1181 186.327 12.6178 186.724 14.1467 186.75H370.545C364.338 168.709 355.326 151.759 343.84 136.525Z" fill="#F0F0F0"/>
<path d="M343.85 136.524H33.1569C31.7478 136.528 30.3582 136.854 29.0943 137.477C27.8304 138.1 26.7257 139.004 25.8646 140.119C22.1821 144.829 18.7536 149.732 15.5938 154.807H355.969C352.301 148.474 348.254 142.369 343.85 136.524Z" fill="white"/>
<path d="M343.84 136.525H33.1477C31.7386 136.529 30.349 136.855 29.0851 137.478C27.8212 138.101 26.7165 139.005 25.8554 140.12C17.9074 150.543 11.187 161.847 5.82728 173.809C5.19167 175.199 4.91503 176.727 5.02269 178.252C5.13035 179.777 5.61887 181.251 6.44353 182.539C7.29097 183.812 8.43464 184.86 9.77636 185.593C11.1181 186.327 12.6178 186.724 14.1467 186.75H370.545C364.338 168.709 355.326 151.759 343.84 136.525Z" stroke="#45413C" stroke-width="7" stroke-linecap="round" stroke-linejoin="round"/>
<path d="M352.926 163.946C352.926 163.946 403.047 219.922 477.614 213.144C479.116 212.982 480.635 213.2 482.032 213.777C483.428 214.354 484.658 215.272 485.608 216.447C486.558 217.622 487.198 219.016 487.471 220.502C487.743 221.989 487.638 223.52 487.166 224.955C481.923 239.876 475.678 254.425 468.473 268.503C467.47 270.536 465.749 272.123 463.643 272.958C461.536 273.793 459.194 273.816 457.072 273.023C432.011 263.779 354.261 228.961 352.926 163.946Z" fill="white" stroke="#45413C" stroke-width="7" stroke-linecap="round" stroke-linejoin="round"/>
<path d="M384.853 161.586C384.853 169.459 381.725 177.009 376.159 182.575C370.592 188.142 363.042 191.269 355.17 191.269H350.651C346.613 191.507 342.569 190.917 338.767 189.535C334.965 188.154 331.486 186.01 328.543 183.235C325.6 180.46 323.255 177.113 321.652 173.399C320.049 169.685 319.223 165.683 319.223 161.638C319.223 157.593 320.049 153.591 321.652 149.877C323.255 146.163 325.6 142.816 328.543 140.041C331.486 137.266 334.965 135.122 338.767 133.74C342.569 132.359 346.613 131.769 350.651 132.006H355.17C359.063 131.993 362.92 132.748 366.521 134.229C370.122 135.709 373.395 137.886 376.152 140.634C378.91 143.382 381.098 146.647 382.591 150.243C384.084 153.838 384.853 157.693 384.853 161.586Z" fill="#F0F0F0"/>
<path d="M350.671 150.805H355.19C361.465 150.804 367.579 152.791 372.653 156.482C377.728 160.173 381.503 165.377 383.435 171.346C384.382 168.356 384.867 165.239 384.873 162.103C384.873 158.209 384.104 154.355 382.611 150.759C381.118 147.164 378.93 143.898 376.173 141.15C373.415 138.402 370.142 136.225 366.541 134.745C362.941 133.264 359.083 132.509 355.19 132.523H350.671C346.778 132.509 342.92 133.264 339.32 134.745C335.719 136.225 332.446 138.402 329.688 141.15C326.931 143.898 324.743 147.164 323.25 150.759C321.757 154.355 320.988 158.209 320.988 162.103C320.994 165.239 321.479 168.356 322.426 171.346C324.372 165.385 328.15 160.19 333.222 156.502C338.294 152.813 344.4 150.819 350.671 150.805Z" fill="white"/>
<path d="M384.853 161.586C384.853 169.459 381.725 177.009 376.159 182.575C370.592 188.142 363.042 191.269 355.17 191.269H350.651C346.613 191.507 342.569 190.917 338.767 189.535C334.965 188.154 331.486 186.01 328.543 183.235C325.6 180.46 323.255 177.113 321.652 173.399C320.049 169.685 319.223 165.683 319.223 161.638C319.223 157.593 320.049 153.591 321.652 149.877C323.255 146.163 325.6 142.816 328.543 140.041C331.486 137.266 334.965 135.122 338.767 133.74C342.569 132.359 346.613 131.769 350.651 132.006H355.17C359.063 131.993 362.92 132.748 366.521 134.229C370.122 135.709 373.395 137.886 376.152 140.634C378.91 143.382 381.098 146.647 382.591 150.243C384.084 153.838 384.853 157.693 384.853 161.586V161.586Z" stroke="#45413C" stroke-width="7" stroke-linecap="round" stroke-linejoin="round"/>
</svg>
