<svg width="537" height="495" viewBox="0 0 537 495" fill="none" xmlns="http://www.w3.org/2000/svg">
<path d="M205.594 317.622C205.594 334.449 200.181 350.898 190.039 364.889C179.897 378.88 165.482 389.785 148.617 396.224C131.752 402.663 113.195 404.348 95.2907 401.065C77.3869 397.783 60.9411 389.68 48.0332 377.781C35.1252 365.883 26.3348 350.724 22.7735 334.22C19.2122 317.716 21.04 300.61 28.0257 285.064C35.0115 269.518 46.8414 256.231 62.0195 246.882C77.1977 237.534 95.0423 232.544 113.297 232.544C125.418 232.544 137.419 234.745 148.617 239.02C159.815 243.296 169.99 249.563 178.561 257.463C187.131 265.363 193.93 274.742 198.568 285.064C203.206 295.386 205.594 306.449 205.594 317.622Z" fill="#656769"/>
<path d="M113.297 256.881C135.472 256.916 156.894 264.299 173.654 277.684C190.413 291.069 201.392 309.563 204.587 329.791C205.205 325.759 205.541 321.694 205.594 317.622C205.594 295.058 195.87 273.418 178.561 257.463C161.252 241.508 137.776 232.544 113.297 232.544C88.8182 232.544 65.3422 241.508 48.0331 257.463C30.7241 273.418 21 295.058 21 317.622C21.0529 321.694 21.3892 325.759 22.0069 329.791C25.2016 309.563 36.1806 291.069 52.9401 277.684C69.6996 264.299 91.1218 256.916 113.297 256.881Z" fill="#87898C"/>
<path d="M205.594 317.622C205.594 334.449 200.181 350.898 190.039 364.889C179.897 378.88 165.482 389.785 148.617 396.224C131.752 402.663 113.195 404.348 95.2907 401.065C77.3869 397.783 60.9411 389.68 48.0332 377.781C35.1252 365.883 26.3348 350.724 22.7735 334.22C19.2122 317.716 21.04 300.61 28.0257 285.064C35.0115 269.518 46.8414 256.231 62.0195 246.882C77.1977 237.534 95.0423 232.544 113.297 232.544C125.418 232.544 137.419 234.745 148.617 239.02C159.815 243.296 169.99 249.563 178.561 257.463C187.131 265.363 193.93 274.742 198.568 285.064C203.206 295.386 205.594 306.449 205.594 317.622V317.622Z" stroke="#45413C" stroke-width="7" stroke-linecap="round" stroke-linejoin="round"/>
<path d="M516.047 317.622C516.047 334.449 510.634 350.898 500.492 364.889C490.35 378.88 475.936 389.785 459.071 396.224C442.205 402.663 423.648 404.348 405.744 401.065C387.84 397.783 371.394 389.68 358.486 377.781C345.578 365.883 336.788 350.724 333.227 334.22C329.665 317.716 331.493 300.61 338.479 285.064C345.465 269.518 357.295 256.231 372.473 246.882C387.651 237.534 405.495 232.544 423.75 232.544C448.229 232.544 471.705 241.508 489.014 257.463C506.323 273.418 516.047 295.058 516.047 317.622Z" fill="#656769"/>
<path d="M423.75 256.881C445.925 256.916 467.347 264.299 484.107 277.684C500.866 291.069 511.845 309.563 515.04 329.791C515.658 325.759 515.994 321.694 516.047 317.622C516.047 295.058 506.323 273.418 489.014 257.463C471.705 241.508 448.229 232.544 423.75 232.544C399.271 232.544 375.795 241.508 358.486 257.463C341.177 273.418 331.453 295.058 331.453 317.622C331.506 321.694 331.842 325.759 332.46 329.791C335.655 309.563 346.634 291.069 363.393 277.684C380.153 264.299 401.575 256.916 423.75 256.881Z" fill="#87898C"/>
<path d="M516.047 317.622C516.047 334.449 510.634 350.898 500.492 364.889C490.35 378.88 475.936 389.785 459.071 396.224C442.205 402.663 423.648 404.348 405.744 401.065C387.84 397.783 371.394 389.68 358.486 377.781C345.578 365.883 336.788 350.724 333.227 334.22C329.665 317.716 331.493 300.61 338.479 285.064C345.465 269.518 357.295 256.231 372.473 246.882C387.651 237.534 405.495 232.544 423.75 232.544C448.229 232.544 471.705 241.508 489.014 257.463C506.323 273.418 516.047 295.058 516.047 317.622V317.622Z" stroke="#45413C" stroke-width="7" stroke-linecap="round" stroke-linejoin="round"/>
<path d="M483.045 317.106C483.045 327.916 479.567 338.484 473.052 347.472C466.536 356.46 457.276 363.465 446.442 367.602C435.607 371.739 423.685 372.821 412.183 370.713C400.681 368.604 390.116 363.398 381.824 355.754C373.531 348.11 367.884 338.372 365.596 327.769C363.309 317.167 364.483 306.178 368.971 296.19C373.458 286.203 381.058 277.667 390.809 271.661C400.56 265.656 412.024 262.45 423.751 262.45C439.476 262.45 454.558 268.209 465.678 278.459C476.798 288.709 483.045 302.611 483.045 317.106Z" fill="#E8F4FA"/>
<path d="M423.751 286.685C437.179 286.725 450.196 290.957 460.679 298.692C471.163 306.426 478.494 317.207 481.478 329.275C482.515 325.289 483.041 321.205 483.045 317.106C483.045 302.611 476.798 288.709 465.678 278.459C454.558 268.209 439.476 262.45 423.751 262.45C408.025 262.45 392.944 268.209 381.824 278.459C370.704 288.709 364.457 302.611 364.457 317.106C364.461 321.205 364.987 325.289 366.023 329.275C369.007 317.207 376.339 306.426 386.822 298.692C397.306 290.957 410.323 286.725 423.751 286.685Z" fill="#C0DCEB"/>
<path d="M483.045 317.106C483.045 327.916 479.567 338.484 473.052 347.472C466.536 356.46 457.276 363.465 446.442 367.602C435.607 371.739 423.685 372.821 412.183 370.713C400.681 368.604 390.116 363.398 381.824 355.754C373.531 348.11 367.884 338.372 365.596 327.769C363.309 317.167 364.483 306.178 368.971 296.19C373.458 286.203 381.058 277.667 390.809 271.661C400.56 265.656 412.024 262.45 423.751 262.45C439.476 262.45 454.558 268.209 465.678 278.459C476.798 288.709 483.045 302.611 483.045 317.106V317.106Z" stroke="#45413C" stroke-width="7" stroke-linecap="round" stroke-linejoin="round"/>
<path d="M172.814 317.622C172.814 328.432 169.337 338.999 162.821 347.987C156.306 356.976 147.046 363.981 136.211 368.118C125.377 372.255 113.455 373.337 101.953 371.228C90.4508 369.119 79.8857 363.914 71.5933 356.27C63.3009 348.626 57.6538 338.887 55.3659 328.285C53.078 317.683 54.2523 306.693 58.7401 296.706C63.2279 286.719 70.8277 278.183 80.5785 272.177C90.3293 266.171 101.793 262.966 113.52 262.966C121.307 262.966 129.017 264.38 136.211 267.126C143.405 269.873 149.941 273.899 155.447 278.974C160.953 284.05 165.321 290.075 168.301 296.706C171.28 303.337 172.814 310.444 172.814 317.622Z" fill="#E8F4FA"/>
<path d="M113.52 286.685C126.998 286.712 140.065 290.963 150.576 298.74C161.086 306.517 168.415 317.358 171.36 329.481C172.304 325.588 172.792 321.612 172.814 317.622C172.814 303.126 166.567 289.224 155.447 278.974C144.328 268.724 129.246 262.966 113.52 262.966C97.7946 262.966 82.713 268.724 71.5933 278.974C60.4736 289.224 54.2266 303.126 54.2266 317.622C54.2491 321.612 54.7367 325.588 55.6809 329.481C58.6252 317.358 65.9544 306.517 76.4649 298.74C86.9754 290.963 100.043 286.712 113.52 286.685Z" fill="#C0DCEB"/>
<path d="M172.814 317.622C172.814 328.432 169.337 338.999 162.821 347.987C156.306 356.976 147.046 363.981 136.211 368.118C125.377 372.255 113.455 373.337 101.953 371.228C90.4508 369.119 79.8857 363.914 71.5933 356.27C63.3009 348.626 57.6538 338.887 55.3659 328.285C53.078 317.683 54.2523 306.693 58.7401 296.706C63.2279 286.719 70.8277 278.183 80.5785 272.177C90.3293 266.171 101.793 262.966 113.52 262.966C121.307 262.966 129.017 264.38 136.211 267.126C143.405 269.873 149.941 273.899 155.447 278.974C160.953 284.05 165.321 290.075 168.301 296.706C171.28 303.337 172.814 310.444 172.814 317.622V317.622Z" stroke="#45413C" stroke-width="7" stroke-linecap="round" stroke-linejoin="round"/>
<path d="M343.422 144.166V166.234H181.315C181.315 163.244 181.986 160.356 182.098 157.366L185.231 109.516C185.338 107.858 185.075 106.198 184.46 104.637C183.844 103.076 182.889 101.648 181.652 100.44C180.416 99.2329 178.924 98.2714 177.269 97.6153C175.614 96.9591 173.831 96.6221 172.029 96.625H96.5137C93.0126 96.625 89.6548 97.9071 87.1791 100.189C84.7033 102.471 83.3125 105.566 83.3125 108.794C83.3125 112.021 84.7033 115.116 87.1791 117.398C89.6548 119.68 93.0126 120.963 96.5137 120.963H150.885C151.795 120.961 152.697 121.131 153.534 121.461C154.371 121.791 155.126 122.275 155.754 122.883C156.382 123.491 156.869 124.21 157.186 124.996C157.503 125.783 157.643 126.621 157.598 127.459L155.808 156.025C152.244 211.128 133.742 264.526 101.996 311.331C100.837 312.682 100.003 314.245 99.5487 315.915C99.094 317.585 99.0292 319.325 99.3584 321.021C99.6876 322.716 100.403 324.327 101.458 325.748C102.513 327.169 103.884 328.368 105.478 329.265C107.073 330.162 108.856 330.736 110.71 330.95C112.564 331.165 114.446 331.014 116.231 330.508C118.017 330.002 119.666 329.153 121.069 328.016C122.472 326.879 123.597 325.48 124.371 323.913C146.853 290.513 163.219 253.93 172.812 215.631C173.101 214.571 173.699 213.603 174.541 212.834C175.384 212.065 176.439 211.524 177.593 211.268C178.746 211.013 179.953 211.054 181.082 211.387C182.212 211.72 183.221 212.332 184 213.156L278.534 325.047C279.784 326.494 281.364 327.669 283.162 328.489C284.961 329.309 286.933 329.753 288.939 329.791H423.748C425.95 329.794 428.118 329.29 430.055 328.323C431.992 327.357 433.635 325.96 434.836 324.258C436.037 322.557 436.757 320.605 436.931 318.581C437.105 316.558 436.727 314.526 435.831 312.672L369.824 175.825V144.166H343.422ZM332.234 199.131L286.366 294.109L207.27 200.369C206.516 199.467 206.052 198.387 205.931 197.254C205.809 196.121 206.035 194.979 206.583 193.958C207.131 192.937 207.979 192.079 209.03 191.48C210.081 190.882 211.293 190.567 212.528 190.572H326.193C327.294 190.57 328.378 190.822 329.347 191.305C330.315 191.789 331.137 192.487 331.737 193.338C332.338 194.189 332.698 195.165 332.785 196.176C332.871 197.188 332.682 198.204 332.234 199.131ZM309.859 305.453L356.623 208.413L403.387 305.453H309.859Z" fill="#6DD627" stroke="#45413C" stroke-width="7" stroke-linecap="round" stroke-linejoin="round"/>
<path d="M323.063 317.106C323.063 323.225 321.094 329.207 317.406 334.294C313.718 339.382 308.477 343.347 302.344 345.689C296.211 348.031 289.463 348.643 282.952 347.449C276.442 346.256 270.462 343.309 265.768 338.983C261.074 334.656 257.877 329.143 256.582 323.142C255.287 317.141 255.952 310.92 258.492 305.267C261.033 299.614 265.334 294.782 270.854 291.383C276.373 287.983 282.862 286.169 289.5 286.169C298.401 286.169 306.938 289.428 313.232 295.23C319.526 301.032 323.063 308.901 323.063 317.106Z" fill="#DAEDF7"/>
<path d="M289.5 305.453C296.558 305.48 303.428 307.557 309.132 311.389C314.836 315.222 319.084 320.614 321.272 326.8C322.383 323.668 322.986 320.401 323.062 317.106C323.062 308.901 319.526 301.032 313.232 295.23C306.938 289.428 298.401 286.169 289.5 286.169C280.599 286.169 272.062 289.428 265.768 295.23C259.474 301.032 255.938 308.901 255.938 317.106C256.014 320.401 256.617 323.668 257.727 326.8C259.916 320.614 264.164 315.222 269.868 311.389C275.572 307.557 282.442 305.48 289.5 305.453Z" fill="#E8F4FA"/>
<path d="M255.938 317.106C255.938 325.312 259.474 333.181 265.768 338.983C272.062 344.784 280.599 348.044 289.5 348.044C298.401 348.044 306.938 344.784 313.232 338.983C319.526 333.181 323.062 325.312 323.062 317.106C323.062 308.901 319.526 301.032 313.232 295.23C306.938 289.428 298.401 286.169 289.5 286.169C280.599 286.169 272.062 289.428 265.768 295.23C259.474 301.032 255.938 308.901 255.938 317.106V317.106Z" stroke="#45413C" stroke-width="7" stroke-linecap="round" stroke-linejoin="round"/>
<path d="M297.218 144.166H402.828C426.77 144.166 428.112 101.575 402.828 101.575C377.545 101.575 342.304 115.291 317.02 113.95C270.592 110.96 281.556 144.166 297.218 144.166Z" fill="#DEBB7E"/>
<path d="M317.023 128.181C342.307 128.903 377.547 121.685 402.831 121.685C406.235 121.241 409.705 121.716 412.822 123.052C415.94 124.388 418.57 126.528 420.396 129.213C423.528 116.941 418.046 101.575 402.831 101.575C377.547 101.575 342.307 115.291 317.023 113.744C287.488 111.991 281.223 124.675 284.467 134.369C287.152 130.553 296.326 127.46 317.023 128.181Z" fill="#F0D5A8"/>
<path d="M402.828 144.166C404.3 144.16 405.765 143.987 407.191 143.65C405.756 143.937 404.296 144.109 402.828 144.166Z" fill="#F0D5A8"/>
<path d="M297.218 144.166H402.828C426.77 144.166 428.112 101.575 402.828 101.575C377.545 101.575 342.304 115.291 317.02 113.95C270.592 110.96 281.556 144.166 297.218 144.166Z" stroke="#45413C" stroke-width="7"/>
<path d="M106.922 92.5H82.9807C71.0987 92.5911 59.5663 96.217 50.1004 102.838C40.6345 109.459 33.7413 118.72 30.4471 129.244C27.1529 139.768 27.6337 150.991 31.8181 161.242C36.0025 171.494 43.6666 180.225 53.6695 186.138L62.9551 191.5C64.9017 192.597 67.0637 193.33 69.3176 193.657C71.5714 193.983 73.8731 193.898 76.091 193.404C78.309 192.911 80.3998 192.02 82.2442 190.782C84.0886 189.544 85.6504 187.983 86.8404 186.189C88.0304 184.395 88.8254 182.402 89.1799 180.324C89.5344 178.247 89.4414 176.125 88.9064 174.081C88.3714 172.036 87.4048 170.109 86.0617 168.409C84.7187 166.708 83.0255 165.269 81.0788 164.172L70.8982 158.603C66.9675 156.375 63.9353 153.024 62.264 149.059C60.5928 145.095 60.3743 140.735 61.642 136.645C62.9096 132.556 65.5937 128.96 69.2849 126.408C72.976 123.856 77.4716 122.487 82.0857 122.509H106.922C110.423 122.509 113.781 121.227 116.257 118.945C118.732 116.663 120.123 113.568 120.123 110.341V104.669C120.123 101.441 118.732 98.3462 116.257 96.0641C113.781 93.7821 110.423 92.5 106.922 92.5Z" fill="#DEBB7E"/>
<path d="M106.918 92.5H82.9772C68.3197 92.5 54.2625 97.8673 43.8981 107.421C33.5336 116.975 27.7109 129.933 27.7109 143.444C27.7315 146.487 28.0309 149.522 28.6059 152.519C31.0515 140.888 37.8181 130.407 47.7416 122.878C57.6651 115.349 70.1249 111.244 82.9772 111.269H106.918C109.196 111.298 111.427 111.874 113.389 112.941C115.351 114.009 116.977 115.529 118.106 117.353C119.282 115.509 119.9 113.408 119.896 111.269V104.669C119.896 101.477 118.536 98.4125 116.109 96.1362C113.681 93.86 110.381 92.5541 106.918 92.5Z" fill="#F0D5A8"/>
<path d="M106.922 92.5H82.9807C71.0987 92.5911 59.5663 96.217 50.1004 102.838C40.6345 109.459 33.7413 118.72 30.4471 129.244C27.1529 139.768 27.6337 150.991 31.8181 161.242C36.0025 171.494 43.6666 180.225 53.6695 186.138L62.9551 191.5C64.9017 192.597 67.0637 193.33 69.3176 193.657C71.5714 193.983 73.8731 193.898 76.091 193.404C78.309 192.911 80.3998 192.02 82.2442 190.782C84.0886 189.544 85.6504 187.983 86.8404 186.189C88.0304 184.395 88.8254 182.402 89.1799 180.324C89.5344 178.247 89.4414 176.125 88.9064 174.081C88.3714 172.036 87.4048 170.109 86.0617 168.409C84.7187 166.708 83.0255 165.269 81.0788 164.172L70.8982 158.603C66.9675 156.375 63.9353 153.024 62.264 149.059C60.5928 145.095 60.3743 140.735 61.642 136.645C62.9096 132.556 65.5937 128.96 69.2849 126.408C72.976 123.856 77.4716 122.487 82.0857 122.509H106.922C110.423 122.509 113.781 121.227 116.257 118.945C118.732 116.663 120.123 113.568 120.123 110.341V104.669C120.123 101.441 118.732 98.3462 116.257 96.0641C113.781 93.7821 110.423 92.5 106.922 92.5V92.5Z" stroke="#45413C" stroke-width="7" stroke-linecap="round" stroke-linejoin="round"/>
</svg>
