<svg width="507" height="507" viewBox="0 0 507 507" fill="none" xmlns="http://www.w3.org/2000/svg">
<path d="M253.502 329.761C286.782 329.761 318.699 342.981 342.232 366.514C365.764 390.046 378.985 421.963 378.985 455.243V475.312H128.02V455.243C128.02 421.963 141.24 390.046 164.773 366.514C188.305 342.981 220.222 329.761 253.502 329.761Z" fill="white"/>
<path d="M253.502 329.761C220.222 329.761 188.305 342.981 164.773 366.514C141.24 390.046 128.02 421.963 128.02 455.243V475.312H129.076C132.93 445.029 147.692 417.19 170.596 397.008C193.499 376.826 222.975 365.686 253.502 365.673C284.029 365.686 313.505 376.826 336.409 397.008C359.312 417.19 374.074 445.029 377.928 475.312H378.985V455.243C378.985 421.963 365.764 390.046 342.232 366.514C318.699 342.981 286.782 329.761 253.502 329.761Z" fill="#F0F0F0"/>
<path d="M253.502 329.761C286.782 329.761 318.699 342.981 342.232 366.514C365.764 390.046 378.985 421.963 378.985 455.243V475.312H128.02V455.243C128.02 421.963 141.24 390.046 164.773 366.514C188.305 342.981 220.222 329.761 253.502 329.761V329.761Z" stroke="#45413C" stroke-width="6" stroke-linecap="round" stroke-linejoin="round"/>
<path d="M253.501 287.089C246.385 287.089 239.561 289.915 234.53 294.947C229.498 299.978 226.672 306.802 226.672 313.918V344.021C226.672 351.136 229.498 357.96 234.53 362.992C239.561 368.023 246.385 370.849 253.501 370.849C260.616 370.849 267.44 368.023 272.471 362.992C277.503 357.96 280.329 351.136 280.329 344.021V313.918C280.329 306.802 277.503 299.978 272.471 294.947C267.44 289.915 260.616 287.089 253.501 287.089Z" fill="#FFB59E" stroke="#45413C" stroke-width="6" stroke-linecap="round" stroke-linejoin="round"/>
<path d="M180.199 475.312V449.856" stroke="#45413C" stroke-width="6" stroke-linecap="round" stroke-linejoin="round"/>
<path d="M326.805 475.312V449.856" stroke="#45413C" stroke-width="6" stroke-linecap="round" stroke-linejoin="round"/>
<path d="M226.672 329.761C226.672 341.379 234.383 350.886 253.501 350.886C272.619 350.886 280.33 341.485 280.33 329.761C285.417 335.24 288.214 342.459 288.146 349.935C288.146 363.35 272.619 371.06 253.501 371.06C234.383 371.06 218.856 362.927 218.856 349.935C218.722 342.447 221.528 335.204 226.672 329.761Z" fill="#00DFEB" stroke="#45413C" stroke-width="6" stroke-linecap="round" stroke-linejoin="round"/>
<path d="M253.5 370.954H282.864C284.953 370.941 287.025 371.34 288.959 372.13C290.894 372.92 292.653 374.085 294.135 375.557C295.618 377.03 296.794 378.781 297.597 380.711C298.4 382.64 298.813 384.709 298.813 386.798V475.312" fill="white"/>
<path d="M253.5 370.954H282.864C284.953 370.941 287.025 371.34 288.959 372.13C290.894 372.92 292.653 374.085 294.135 375.557C295.618 377.03 296.794 378.781 297.597 380.711C298.4 382.64 298.813 384.709 298.813 386.798V475.312" stroke="#45413C" stroke-width="6" stroke-linecap="round" stroke-linejoin="round"/>
<path d="M253.5 370.955V350.78" stroke="#45413C" stroke-width="6" stroke-linecap="round" stroke-linejoin="round"/>
<path d="M253.501 72.9863C244.807 72.9945 236.148 74.0945 227.729 76.2607C208.082 80.697 182.521 88.0907 159.389 83.6545C158.488 89.6123 158.81 95.6913 160.335 101.521C161.861 107.35 164.558 112.807 168.262 117.56C156.211 134.929 149.761 155.569 149.777 176.71V231.001H357.225V176.71C357.225 149.201 346.297 122.818 326.845 103.366C307.393 83.9143 281.01 72.9863 253.501 72.9863Z" fill="#A86C4D"/>
<path d="M253.5 72.9863C244.806 72.9945 236.148 74.0945 227.728 76.2607C208.082 80.697 182.52 88.0907 159.389 83.6545C157.958 94.7341 160.503 105.962 166.571 115.342C187.261 115.664 207.881 112.851 227.728 106.998C243.048 103.046 259.069 102.656 274.564 105.856C290.058 109.056 304.614 115.761 317.115 125.458C329.616 135.155 339.731 147.587 346.683 161.798C353.636 176.01 357.242 191.626 357.224 207.447V176.71C357.224 149.201 346.296 122.818 326.844 103.366C307.392 83.9143 281.01 72.9863 253.5 72.9863Z" fill="#DE926A"/>
<path d="M253.501 72.9863C244.807 72.9945 236.148 74.0945 227.729 76.2607C208.082 80.697 182.521 88.0907 159.389 83.6545C158.488 89.6123 158.81 95.6913 160.335 101.521C161.861 107.35 164.558 112.807 168.262 117.56C156.211 134.929 149.761 155.569 149.777 176.71V231.001H357.225V176.71C357.225 149.201 346.297 122.818 326.845 103.366C307.393 83.9143 281.01 72.9863 253.501 72.9863V72.9863Z" stroke="#45413C" stroke-width="6" stroke-linecap="round" stroke-linejoin="round"/>
<path d="M368.317 223.08C367.803 219.201 366.125 215.57 363.503 212.665C360.882 209.761 357.441 207.72 353.635 206.814L347.403 205.124C342.811 203.827 338.773 201.056 335.91 197.239C333.047 193.422 331.518 188.77 331.559 183.999V162.451C331.547 158.095 330.104 153.864 327.451 150.409C324.798 146.955 321.083 144.468 316.877 143.333C296.736 151.373 275.185 155.288 253.502 154.846C231.82 155.288 210.269 151.373 190.127 143.333C185.902 144.449 182.163 146.927 179.49 150.383C176.816 153.84 175.358 158.081 175.34 162.451V184.21C175.38 188.981 173.852 193.633 170.989 197.451C168.126 201.268 164.088 204.038 159.496 205.335L153.264 207.025C149.458 207.932 146.017 209.972 143.396 212.877C140.774 215.781 139.096 219.412 138.582 223.291C138.3 225.965 138.585 228.669 139.418 231.225C140.252 233.781 141.615 236.133 143.42 238.127C145.224 240.12 147.428 241.711 149.889 242.795C152.35 243.879 155.012 244.431 157.7 244.416H158.862C161.334 267.765 172.359 289.374 189.813 305.078C207.268 320.783 229.917 329.472 253.397 329.472C276.876 329.472 299.525 320.783 316.98 305.078C334.434 289.374 345.459 267.765 347.931 244.416H349.093C351.81 244.45 354.504 243.903 356.994 242.813C359.483 241.724 361.712 240.116 363.531 238.097C365.35 236.077 366.718 233.694 367.543 231.104C368.368 228.515 368.632 225.779 368.317 223.08Z" fill="#FFCEBF" stroke="#45413C" stroke-width="6" stroke-linecap="round" stroke-linejoin="round"/>
<path d="M196.149 220.861C196.149 222.47 196.626 224.042 197.52 225.38C198.413 226.717 199.684 227.76 201.17 228.375C202.656 228.991 204.291 229.152 205.869 228.838C207.447 228.524 208.896 227.75 210.033 226.612C211.171 225.475 211.945 224.026 212.259 222.448C212.573 220.87 212.412 219.235 211.796 217.749C211.181 216.263 210.138 214.993 208.801 214.099C207.463 213.205 205.891 212.728 204.282 212.728C203.21 212.714 202.146 212.915 201.153 213.318C200.16 213.722 199.258 214.321 198.5 215.079C197.742 215.837 197.143 216.739 196.739 217.732C196.336 218.725 196.135 219.789 196.149 220.861Z" fill="#45413C" stroke="#45413C" stroke-width="6" stroke-linecap="round" stroke-linejoin="round"/>
<path d="M310.856 220.861C310.856 222.47 310.379 224.042 309.485 225.38C308.592 226.717 307.322 227.76 305.835 228.375C304.349 228.991 302.714 229.152 301.136 228.838C299.559 228.524 298.109 227.75 296.972 226.612C295.835 225.475 295.06 224.026 294.746 222.448C294.432 220.87 294.593 219.235 295.209 217.749C295.825 216.263 296.867 214.993 298.204 214.099C299.542 213.205 301.114 212.728 302.723 212.728C303.795 212.714 304.859 212.915 305.852 213.318C306.845 213.722 307.748 214.321 308.506 215.079C309.264 215.837 309.862 216.739 310.266 217.732C310.67 218.725 310.87 219.789 310.856 220.861Z" fill="#45413C" stroke="#45413C" stroke-width="6" stroke-linecap="round" stroke-linejoin="round"/>
<path d="M223.504 270.399C222.833 270.399 222.171 270.551 221.567 270.844C220.963 271.137 220.434 271.562 220.019 272.089C219.576 272.587 219.252 273.178 219.069 273.817C218.886 274.457 218.85 275.13 218.962 275.786C220.389 283.911 224.633 291.273 230.951 296.578C237.268 301.883 245.253 304.791 253.502 304.791C261.751 304.791 269.736 301.883 276.053 296.578C282.37 291.273 286.615 283.911 288.041 275.786C288.154 275.13 288.117 274.457 287.934 273.817C287.751 273.178 287.427 272.587 286.985 272.089C286.56 271.574 286.028 271.156 285.426 270.864C284.825 270.572 284.168 270.414 283.499 270.399H223.504Z" fill="#FF6242"/>
<path d="M253.5 285.188C243.964 284.815 234.582 287.681 226.883 293.321C230.211 297.027 234.283 299.992 238.832 302.021C243.382 304.05 248.307 305.099 253.289 305.099C258.271 305.099 263.196 304.05 267.746 302.021C272.296 299.992 276.367 297.027 279.695 293.321C272.111 287.772 262.893 284.91 253.5 285.188Z" fill="#FFA694"/>
<path d="M223.504 270.399C222.833 270.399 222.171 270.551 221.567 270.844C220.963 271.137 220.434 271.562 220.019 272.089C219.576 272.587 219.252 273.178 219.069 273.817C218.886 274.457 218.85 275.13 218.962 275.786C220.389 283.911 224.633 291.273 230.951 296.578C237.268 301.883 245.253 304.791 253.502 304.791C261.751 304.791 269.736 301.883 276.053 296.578C282.37 291.273 286.615 283.911 288.041 275.786C288.154 275.13 288.117 274.457 287.934 273.817C287.751 273.178 287.427 272.587 286.985 272.089C286.56 271.574 286.028 271.156 285.426 270.864C284.825 270.572 284.168 270.414 283.499 270.399H223.504Z" stroke="#45413C" stroke-width="6" stroke-linecap="round" stroke-linejoin="round"/>
<path d="M180.199 255.506C180.199 257.187 181.312 258.799 183.293 259.988C185.274 261.176 187.96 261.844 190.762 261.844C193.563 261.844 196.25 261.176 198.231 259.988C200.211 258.799 201.324 257.187 201.324 255.506C201.324 253.826 200.211 252.214 198.231 251.025C196.25 249.837 193.563 249.169 190.762 249.169C187.96 249.169 185.274 249.837 183.293 251.025C181.312 252.214 180.199 253.826 180.199 255.506Z" fill="#FFB59E"/>
<path d="M305.68 255.506C305.68 257.187 306.793 258.799 308.773 259.988C310.754 261.176 313.441 261.844 316.242 261.844C319.044 261.844 321.73 261.176 323.711 259.988C325.692 258.799 326.805 257.187 326.805 255.506C326.805 253.826 325.692 252.214 323.711 251.025C321.73 249.837 319.044 249.169 316.242 249.169C313.441 249.169 310.754 249.837 308.773 251.025C306.793 252.214 305.68 253.826 305.68 255.506Z" fill="#FFB59E"/>
<path d="M316.243 55.0304C308.552 45.975 298.914 38.7735 288.05 33.9634C277.186 29.1533 265.377 26.8588 253.502 27.251C241.627 26.8588 229.817 29.1533 218.953 33.9634C208.09 38.7735 198.452 45.975 190.761 55.0304C163.087 41.616 114.922 58.1991 114.922 102.984C114.922 144.706 144.391 154.001 144.391 154.001H362.613C362.613 154.001 392.082 144.706 392.082 102.984C392.082 58.1991 343.917 41.616 316.243 55.0304Z" fill="#F0F0F0"/>
<path d="M190.758 104.78C198.45 95.7244 208.087 88.5229 218.951 83.7128C229.815 78.9027 241.625 76.6082 253.499 77.0004C265.374 76.6082 277.184 78.9027 288.048 83.7128C298.912 88.5229 308.549 95.7244 316.241 104.78C329.027 99.3737 343.368 98.9208 356.469 103.509C369.571 108.098 380.496 117.399 387.115 129.602C390.571 121.161 392.26 112.103 392.079 102.984C392.079 58.1991 343.914 41.616 316.241 55.0304C308.549 45.975 298.912 38.7735 288.048 33.9634C277.184 29.1533 265.374 26.8588 253.499 27.251C241.625 26.8588 229.815 29.1533 218.951 33.9634C208.087 38.7735 198.45 45.975 190.758 55.0304C163.084 41.616 114.919 58.1991 114.919 102.984C114.739 112.103 116.428 121.161 119.884 129.602C126.503 117.399 137.428 108.098 150.529 103.509C163.631 98.9208 177.972 99.3737 190.758 104.78Z" fill="white"/>
<path d="M316.243 55.0304C308.552 45.975 298.914 38.7735 288.05 33.9634C277.186 29.1533 265.377 26.8588 253.502 27.251C241.627 26.8588 229.817 29.1533 218.953 33.9634C208.09 38.7735 198.452 45.975 190.761 55.0304C163.087 41.616 114.922 58.1991 114.922 102.984C114.922 144.706 144.391 154.001 144.391 154.001H362.613C362.613 154.001 392.082 144.706 392.082 102.984C392.082 58.1991 343.917 41.616 316.243 55.0304Z" stroke="#45413C" stroke-width="6" stroke-linecap="round" stroke-linejoin="round"/>
<path d="M316.875 95.9072C316.875 124.109 288.462 146.924 253.5 146.924C218.538 146.924 190.125 124.109 190.125 95.9072" stroke="#45413C" stroke-width="6" stroke-linecap="round" stroke-linejoin="round"/>
<path d="M144.391 154.001C144.391 143.438 193.189 135.517 253.501 135.517C313.813 135.517 362.612 143.755 362.612 154.001V183.47C362.612 172.908 313.813 164.986 253.501 164.986C193.189 164.986 144.391 173.33 144.391 183.47V154.001Z" fill="#F0F0F0" stroke="#45413C" stroke-width="6" stroke-linecap="round" stroke-linejoin="round"/>
</svg>
