<svg width="495" height="495" viewBox="0 0 495 495" fill="none" xmlns="http://www.w3.org/2000/svg">
<path d="M325.372 318.904L247.616 289.616L169.859 319.213C156.674 324.244 145.327 333.159 137.317 344.777C129.307 356.396 125.012 370.173 125 384.285V444.304H370.231V383.976C370.219 369.863 365.924 356.087 357.914 344.468C349.904 332.849 338.557 323.935 325.372 318.904Z" fill="#656769"/>
<path d="M325.372 318.904L247.616 289.616L169.859 319.213C156.674 324.244 145.327 333.159 137.317 344.777C129.307 356.396 125.012 370.173 125 384.285V415.222C125.012 401.11 129.307 387.334 137.317 375.715C145.327 364.096 156.674 355.182 169.859 350.151L247.616 320.554L325.372 350.151C338.557 355.182 349.904 364.096 357.914 375.715C365.924 387.334 370.219 401.11 370.231 415.222V384.285C370.282 370.12 366.016 356.276 358.002 344.595C349.988 332.915 338.606 323.954 325.372 318.904Z" fill="#525252"/>
<path d="M325.372 318.904L247.616 289.616L169.859 319.213C156.674 324.244 145.327 333.159 137.317 344.777C129.307 356.396 125.012 370.173 125 384.285V444.304H370.231V383.976C370.219 369.863 365.924 356.087 357.914 344.468C349.904 332.849 338.557 323.935 325.372 318.904V318.904Z" stroke="#45413C" stroke-width="6" stroke-linecap="round" stroke-linejoin="round"/>
<path d="M311.862 349.738L333.827 344.272L317.946 316.016L247.615 289.307L177.284 316.016L161.402 344.272L183.368 349.738L175.84 372.632L226.165 444.304H269.065L319.39 372.632L311.862 349.738Z" fill="#656769" stroke="#45413C" stroke-width="6" stroke-linecap="round" stroke-linejoin="round"/>
<path d="M247.617 289.616C247.617 289.616 196.055 289.616 196.055 318.594C197.011 340.314 204.807 361.177 218.33 378.201L247.617 353.038L277.42 378.201C290.943 361.177 298.739 340.314 299.695 318.594C299.695 289.616 247.617 289.616 247.617 289.616Z" fill="white" stroke="#45413C" stroke-width="6" stroke-linecap="round" stroke-linejoin="round"/>
<path d="M247.616 353.038L224.413 329.835C222.507 327.915 221.433 325.322 221.422 322.617V291.679C221.422 284.732 224.182 278.07 229.094 273.157C234.006 268.245 240.669 265.485 247.616 265.485C254.563 265.485 261.225 268.245 266.137 273.157C271.05 278.07 273.809 284.732 273.809 291.679V322.617C273.798 325.322 272.724 327.915 270.819 329.835L247.616 353.038Z" fill="#FFCEBF"/>
<path d="M247.616 265.485C240.669 265.485 234.006 268.245 229.094 273.157C224.182 278.07 221.422 284.732 221.422 291.679V297.763C221.422 304.711 224.182 311.373 229.094 316.285C234.006 321.198 240.669 323.957 247.616 323.957C254.563 323.957 261.225 321.198 266.137 316.285C271.05 311.373 273.809 304.711 273.809 297.763V291.679C273.809 284.732 271.05 278.07 266.137 273.157C261.225 268.245 254.563 265.485 247.616 265.485Z" fill="#FFB59E"/>
<path d="M247.616 353.038L224.413 329.835C222.507 327.915 221.433 325.322 221.422 322.617V291.679C221.422 284.732 224.182 278.07 229.094 273.157C234.006 268.245 240.669 265.485 247.616 265.485V265.485C254.563 265.485 261.225 268.245 266.137 273.157C271.05 278.07 273.809 284.732 273.809 291.679V322.617C273.798 325.322 272.724 327.915 270.819 329.835L247.616 353.038Z" stroke="#45413C" stroke-width="6" stroke-linecap="round" stroke-linejoin="round"/>
<path d="M277.419 378.201L268.756 444.304H226.166L217.812 378.201L247.616 353.038L277.419 378.201Z" fill="white" stroke="#45413C" stroke-width="6" stroke-linecap="round" stroke-linejoin="round"/>
<path d="M242.461 399.444C242.461 400.812 243.004 402.123 243.971 403.09C244.938 404.057 246.25 404.601 247.617 404.601C248.985 404.601 250.296 404.057 251.263 403.09C252.23 402.123 252.773 400.812 252.773 399.444C252.773 398.077 252.23 396.765 251.263 395.798C250.296 394.831 248.985 394.288 247.617 394.288C246.25 394.288 244.938 394.831 243.971 395.798C243.004 396.765 242.461 398.077 242.461 399.444Z" fill="#45413C"/>
<path d="M242.461 422.647C242.461 424.015 243.004 425.326 243.971 426.293C244.938 427.26 246.25 427.804 247.617 427.804C248.985 427.804 250.296 427.26 251.263 426.293C252.23 425.326 252.773 424.015 252.773 422.647C252.773 421.28 252.23 419.968 251.263 419.001C250.296 418.034 248.985 417.491 247.617 417.491C246.25 417.491 244.938 418.034 243.971 419.001C243.004 419.968 242.461 421.28 242.461 422.647Z" fill="#45413C"/>
<path d="M247.616 51.5005C239.132 51.4737 230.679 52.5131 222.454 54.5943C203.273 58.9255 178.316 66.2474 155.732 61.9161C154.864 67.7329 155.184 73.6652 156.673 79.3548C158.162 85.0444 160.789 90.3731 164.395 95.0193C152.629 111.978 146.331 132.129 146.348 152.769V205.776H348.885V152.769C348.885 125.911 338.216 100.153 319.224 81.1614C300.233 62.1699 274.475 51.5005 247.616 51.5005Z" fill="#A86C4D"/>
<path d="M247.616 51.5005C239.132 51.4737 230.678 52.5131 222.453 54.5943C203.272 58.9255 178.316 66.2474 155.731 61.9161C154.308 72.7348 156.795 83.7062 162.744 92.8536C182.95 93.2719 203.097 90.5229 222.453 84.7068C237.413 80.9317 253.036 80.6141 268.137 83.7781C283.238 86.9421 297.42 93.5044 309.606 102.967C321.793 112.43 331.663 124.544 338.469 138.391C345.274 152.238 348.836 167.453 348.884 182.882V152.769C348.884 125.911 338.215 100.153 319.223 81.1614C300.232 62.1699 274.474 51.5005 247.616 51.5005Z" fill="#DE926A"/>
<path d="M247.616 51.5005C239.132 51.4737 230.679 52.5131 222.454 54.5943C203.273 58.9255 178.316 66.2474 155.732 61.9161C154.864 67.7329 155.184 73.6652 156.673 79.3548C158.162 85.0444 160.789 90.3731 164.395 95.0193C152.629 111.978 146.331 132.129 146.348 152.769V205.776H348.885V152.769C348.885 125.911 338.216 100.153 319.224 81.1614C300.233 62.1699 274.475 51.5005 247.616 51.5005V51.5005Z" stroke="#45413C" stroke-width="6" stroke-linecap="round" stroke-linejoin="round"/>
<path d="M359.714 198.041C359.213 194.254 357.574 190.709 355.015 187.873C352.455 185.037 349.096 183.045 345.38 182.16L339.295 180.407C334.757 179.237 330.753 176.558 327.941 172.809C325.13 169.06 323.678 164.465 323.827 159.782V138.744C323.822 134.487 322.4 130.352 319.786 126.991C317.172 123.63 313.514 121.235 309.389 120.182C289.71 127.984 268.68 131.804 247.514 131.422C226.349 131.804 205.318 127.984 185.639 120.182C181.514 121.235 177.856 123.63 175.242 126.991C172.628 130.352 171.207 134.487 171.202 138.744V160.091C171.35 164.775 169.899 169.369 167.087 173.118C164.275 176.867 160.271 179.547 155.733 180.716L149.648 182.469C145.933 183.355 142.573 185.347 140.014 188.182C137.454 191.018 135.815 194.564 135.314 198.35C135.038 200.961 135.317 203.601 136.13 206.096C136.944 208.592 138.275 210.888 140.037 212.835C141.799 214.781 143.951 216.334 146.353 217.392C148.756 218.451 151.355 218.99 153.98 218.975H155.114C157.527 241.772 168.291 262.869 185.333 278.202C202.374 293.535 224.487 302.018 247.411 302.018C270.335 302.018 292.448 293.535 309.489 278.202C326.531 262.869 337.295 241.772 339.708 218.975H340.842C343.514 219.025 346.165 218.5 348.616 217.437C351.068 216.373 353.262 214.796 355.051 212.811C356.84 210.826 358.182 208.481 358.987 205.932C359.791 203.384 360.039 200.693 359.714 198.041Z" fill="#FFCEBF" stroke="#45413C" stroke-width="6" stroke-linecap="round" stroke-linejoin="round"/>
<path d="M191.617 195.875C191.617 197.981 192.454 200.001 193.943 201.49C195.432 202.979 197.452 203.816 199.558 203.816C201.664 203.816 203.684 202.979 205.173 201.49C206.662 200.001 207.498 197.981 207.498 195.875C207.498 193.769 206.662 191.749 205.173 190.26C203.684 188.771 201.664 187.935 199.558 187.935C197.452 187.935 195.432 188.771 193.943 190.26C192.454 191.749 191.617 193.769 191.617 195.875Z" fill="#45413C" stroke="#45413C" stroke-width="6" stroke-linecap="round" stroke-linejoin="round"/>
<path d="M303.612 195.875C303.612 197.981 302.775 200.001 301.286 201.49C299.797 202.979 297.777 203.816 295.671 203.816C293.565 203.816 291.545 202.979 290.056 201.49C288.567 200.001 287.73 197.981 287.73 195.875C287.73 193.769 288.567 191.749 290.056 190.26C291.545 188.771 293.565 187.935 295.671 187.935C297.777 187.935 299.797 188.771 301.286 190.26C302.775 191.749 303.612 193.769 303.612 195.875Z" fill="#45413C" stroke="#45413C" stroke-width="6" stroke-linecap="round" stroke-linejoin="round"/>
<path d="M218.329 244.241C217.687 244.255 217.054 244.399 216.469 244.665C215.884 244.931 215.359 245.313 214.926 245.788C214.486 246.289 214.165 246.884 213.986 247.526C213.807 248.169 213.776 248.844 213.895 249.501C215.287 257.433 219.432 264.621 225.599 269.8C231.767 274.979 239.563 277.818 247.617 277.818C255.67 277.818 263.466 274.979 269.634 269.8C275.802 264.621 279.946 257.433 281.338 249.501C281.457 248.844 281.426 248.169 281.247 247.526C281.069 246.884 280.747 246.289 280.307 245.788C279.878 245.308 279.354 244.923 278.768 244.657C278.182 244.391 277.548 244.249 276.904 244.241H218.329Z" fill="#FF6242"/>
<path d="M247.616 258.679C238.317 258.402 229.185 261.192 221.629 266.62C224.861 270.267 228.83 273.188 233.274 275.188C237.718 277.188 242.537 278.223 247.41 278.223C252.284 278.223 257.102 277.188 261.546 275.188C265.99 273.188 269.96 270.267 273.191 266.62C265.749 261.278 256.776 258.492 247.616 258.679Z" fill="#FFA694"/>
<path d="M218.329 244.241C217.687 244.255 217.054 244.399 216.469 244.665C215.884 244.931 215.359 245.313 214.926 245.788C214.486 246.289 214.165 246.884 213.986 247.526C213.807 248.169 213.776 248.844 213.895 249.501C215.287 257.433 219.432 264.621 225.599 269.8C231.767 274.979 239.563 277.818 247.617 277.818C255.67 277.818 263.466 274.979 269.634 269.8C275.802 264.621 279.946 257.433 281.338 249.501C281.457 248.844 281.426 248.169 281.247 247.526C281.069 246.884 280.747 246.289 280.307 245.788C279.878 245.308 279.354 244.923 278.768 244.657C278.182 244.391 277.548 244.249 276.904 244.241H218.329Z" stroke="#45413C" stroke-width="6" stroke-linecap="round" stroke-linejoin="round"/>
<path d="M176.047 229.7C176.047 231.341 177.133 232.915 179.067 234.075C181.001 235.236 183.624 235.888 186.359 235.888C189.094 235.888 191.717 235.236 193.651 234.075C195.585 232.915 196.672 231.341 196.672 229.7C196.672 228.059 195.585 226.485 193.651 225.325C191.717 224.165 189.094 223.513 186.359 223.513C183.624 223.513 181.001 224.165 179.067 225.325C177.133 226.485 176.047 228.059 176.047 229.7Z" fill="#FFB59E"/>
<path d="M298.559 229.7C298.559 231.341 299.645 232.915 301.579 234.075C303.513 235.236 306.136 235.888 308.871 235.888C311.606 235.888 314.229 235.236 316.163 234.075C318.097 232.915 319.184 231.341 319.184 229.7C319.184 228.059 318.097 226.485 316.163 225.325C314.229 224.165 311.606 223.513 308.871 223.513C306.136 223.513 303.513 224.165 301.579 225.325C299.645 226.485 298.559 228.059 298.559 229.7Z" fill="#FFB59E"/>
<path d="M228.117 371.62L248.687 354.241L269.117 371.62L258.415 391.779L264.253 418.194L248.687 437.241L233.121 418.194L238.958 391.779L228.117 371.62Z" fill="#009FD9" stroke="#45413C" stroke-width="6" stroke-linecap="round" stroke-linejoin="round"/>
</svg>
