<svg width="495" height="495" viewBox="0 0 495 495" fill="none" xmlns="http://www.w3.org/2000/svg">
<path d="M374.189 96.3789L328.814 142.063C293.229 112.705 247.709 98.1713 201.696 101.476C155.682 104.78 112.706 125.67 81.6814 159.811C50.6568 193.953 33.9646 238.727 35.0669 284.845C36.1693 330.964 54.9816 374.889 87.6019 407.51C120.222 440.13 164.147 458.942 210.266 460.045C256.385 461.147 301.159 444.455 335.3 413.43C369.442 382.406 390.331 339.43 393.636 293.416C396.94 247.402 382.406 201.882 353.048 166.298L398.733 120.613L374.189 96.3789Z" fill="#87898C"/>
<path d="M357.793 112.777L328.815 142.064C301.677 119.613 268.531 105.646 233.51 101.902C198.488 98.1587 163.139 104.805 131.869 121.012C100.598 137.219 74.7888 162.27 57.6571 193.044C40.5254 223.818 32.8291 258.953 35.5275 294.07C37.8218 263.013 48.1596 233.087 65.5244 207.236C82.8892 181.385 106.683 160.498 134.566 146.629C162.45 132.76 193.462 126.387 224.555 128.136C255.648 129.885 285.75 139.696 311.902 156.605C316.837 159.808 322.719 161.228 328.572 160.628C334.425 160.027 339.896 157.443 344.077 153.305L371.199 126.183L357.793 112.777Z" fill="#BDBEC0"/>
<path d="M374.189 96.3789L328.814 142.063C293.229 112.705 247.709 98.1713 201.696 101.476C155.682 104.78 112.706 125.67 81.6814 159.811C50.6568 193.953 33.9646 238.727 35.0669 284.845C36.1693 330.964 54.9816 374.889 87.6019 407.51C120.222 440.13 164.147 458.942 210.266 460.045C256.385 461.147 301.159 444.455 335.3 413.43C369.442 382.406 390.331 339.43 393.636 293.416C396.94 247.402 382.406 201.882 353.048 166.298L398.733 120.613L374.189 96.3789Z" stroke="#45413C" stroke-width="7" stroke-linecap="round" stroke-linejoin="round"/>
<path d="M451.942 43.1667C449.254 40.4228 446.045 38.2429 442.503 36.7547C438.962 35.2665 435.159 34.5 431.317 34.5C427.476 34.5 423.673 35.2665 420.132 36.7547C416.59 38.2429 413.381 40.4228 410.692 43.1667L357.789 96.3792C356.707 97.4529 355.849 98.73 355.263 100.137C354.677 101.544 354.375 103.053 354.375 104.578C354.375 106.102 354.677 107.611 355.263 109.018C355.849 110.425 356.707 111.702 357.789 112.776L382.333 137.32C383.407 138.402 384.684 139.26 386.091 139.847C387.498 140.433 389.007 140.734 390.532 140.734C392.056 140.734 393.565 140.433 394.972 139.847C396.379 139.26 397.656 138.402 398.73 137.32L451.942 83.798C457.295 78.3914 460.298 71.0906 460.298 63.4823C460.298 55.8741 457.295 48.5733 451.942 43.1667Z" fill="#FFE500"/>
<path d="M451.942 43.1667C449.254 40.4228 446.045 38.2429 442.503 36.7547C438.962 35.2665 435.159 34.5 431.317 34.5C427.476 34.5 423.673 35.2665 420.132 36.7547C416.59 38.2429 413.381 40.4228 410.692 43.1667L357.789 96.3792C356.707 97.4529 355.849 98.73 355.263 100.137C354.677 101.544 354.375 103.053 354.375 104.578C354.375 106.102 354.677 107.611 355.263 109.018C355.849 110.425 356.707 111.702 357.789 112.776L366.555 121.542C366.905 120.827 367.357 120.167 367.896 119.582L421.624 66.2667C426.775 61.1376 433.671 58.1401 440.935 57.8724C448.199 57.6048 455.297 60.0868 460.811 64.823C460.959 60.79 460.244 56.772 458.715 53.0374C457.185 49.3028 454.877 45.9376 451.942 43.1667Z" fill="#FFF48C"/>
<path d="M451.942 43.1663C454.686 45.8548 456.866 49.0638 458.355 52.6053C459.843 56.1469 460.609 59.9498 460.609 63.7913C460.609 67.6328 459.843 71.4357 458.355 74.9772C456.866 78.5188 454.686 81.7278 451.942 84.4163L398.73 137.629C397.656 138.711 396.379 139.569 394.972 140.155C393.565 140.741 392.056 141.043 390.532 141.043C389.007 141.043 387.498 140.741 386.091 140.155C384.684 139.569 383.407 138.711 382.333 137.629L357.789 113.085C356.707 112.011 355.849 110.734 355.263 109.327C354.677 107.92 354.375 106.411 354.375 104.887C354.375 103.362 354.677 101.853 355.263 100.446C355.849 99.039 356.707 97.7618 357.789 96.6881L411.311 43.1663C416.718 37.8133 424.019 34.8105 431.627 34.8105C439.235 34.8105 446.536 37.8133 451.942 43.1663V43.1663Z" stroke="#45413C" stroke-width="7" stroke-linecap="round" stroke-linejoin="round"/>
<path d="M69.6641 280.663C69.6641 299.677 73.4091 318.505 80.6854 336.071C87.9616 353.638 98.6266 369.599 112.071 383.044C125.516 396.488 141.477 407.153 159.044 414.43C176.61 421.706 195.438 425.451 214.452 425.451C233.465 425.451 252.293 421.706 269.859 414.43C287.426 407.153 303.387 396.488 316.832 383.044C330.277 369.599 340.942 353.638 348.218 336.071C355.494 318.505 359.239 299.677 359.239 280.663C359.239 261.65 355.494 242.822 348.218 225.256C340.942 207.689 330.277 191.728 316.832 178.283C303.387 164.838 287.426 154.174 269.859 146.897C252.293 139.621 233.465 135.876 214.452 135.876C195.438 135.876 176.61 139.621 159.044 146.897C141.477 154.174 125.516 164.838 112.071 178.283C98.6266 191.728 87.9616 207.689 80.6854 225.256C73.4091 242.822 69.6641 261.65 69.6641 280.663Z" fill="#656769"/>
<path d="M112.253 213.014C131.389 193.672 155.6 180.131 182.097 173.951C208.595 167.772 236.298 169.205 262.016 178.087C287.734 186.969 310.418 202.936 327.455 224.15C344.492 245.364 355.188 270.96 358.309 297.989C360.324 277.914 358.11 257.64 351.808 238.474C345.506 219.307 335.257 201.675 321.722 186.713C308.186 171.751 291.666 159.792 273.225 151.608C254.784 143.423 234.832 139.194 214.656 139.194C194.481 139.194 174.529 143.423 156.088 151.608C137.647 159.792 121.126 171.751 107.591 186.713C94.0558 201.675 83.8068 219.307 77.5049 238.474C71.2029 257.64 68.9881 277.914 71.0031 297.989C74.8362 265.84 89.3641 235.912 112.253 213.014Z" fill="#525252"/>
<path d="M69.6641 280.663C69.6641 299.677 73.4091 318.505 80.6854 336.071C87.9616 353.638 98.6266 369.599 112.071 383.044C125.516 396.488 141.477 407.153 159.044 414.43C176.61 421.706 195.438 425.451 214.452 425.451C233.465 425.451 252.293 421.706 269.859 414.43C287.426 407.153 303.387 396.488 316.832 383.044C330.277 369.599 340.942 353.638 348.218 336.071C355.494 318.505 359.239 299.677 359.239 280.663C359.239 261.65 355.494 242.822 348.218 225.256C340.942 207.689 330.277 191.728 316.832 178.283C303.387 164.838 287.426 154.174 269.859 146.897C252.293 139.621 233.465 135.876 214.452 135.876C195.438 135.876 176.61 139.621 159.044 146.897C141.477 154.174 125.516 164.838 112.071 178.283C98.6266 191.728 87.9616 207.689 80.6854 225.256C73.4091 242.822 69.6641 261.65 69.6641 280.663V280.663Z" stroke="#45413C" stroke-width="7" stroke-linecap="round" stroke-linejoin="round"/>
<path d="M155.385 299.557C159.953 299.557 164.333 301.371 167.563 304.601C170.793 307.831 172.607 312.211 172.607 316.778C172.228 324.131 173.514 331.474 176.37 338.26C179.225 345.045 183.577 351.098 189.1 355.967C194.623 360.835 201.174 364.393 208.264 366.375C215.355 368.357 222.801 368.712 230.048 367.413C245.586 364.343 259.991 357.087 271.706 346.427C283.421 335.767 292.001 322.11 296.52 306.929C301.038 291.749 301.324 275.622 297.346 260.291C293.368 244.96 285.277 231.008 273.947 219.94C262.617 208.872 248.478 201.11 233.058 197.491C217.638 193.873 201.523 194.536 186.452 199.409C171.382 204.282 157.929 213.18 147.547 225.141C137.164 237.102 130.247 251.672 127.542 267.278C126.894 271.288 127.132 275.391 128.239 279.299C129.345 283.208 131.293 286.826 133.946 289.902C136.599 292.978 139.893 295.436 143.597 297.103C147.3 298.771 151.324 299.608 155.385 299.557Z" fill="#F0F0F0"/>
<path d="M298.522 266.453C295.155 283.346 286.851 298.861 274.662 311.032C262.472 323.203 246.945 331.484 230.047 334.825C222.8 336.124 215.354 335.769 208.264 333.787C201.173 331.805 194.622 328.247 189.099 323.379C183.577 318.511 179.225 312.458 176.369 305.672C173.513 298.886 172.227 291.543 172.607 284.191C172.607 279.614 170.795 275.222 167.569 271.976C164.342 268.73 159.962 266.893 155.385 266.866C150.542 266.86 145.779 265.627 141.541 263.283C137.303 260.939 133.729 257.559 131.15 253.459C129.573 257.925 128.366 262.512 127.541 267.175C126.894 271.185 127.132 275.288 128.238 279.196C129.344 283.104 131.292 286.723 133.945 289.799C136.599 292.874 139.892 295.332 143.596 297C147.3 298.668 151.323 299.505 155.385 299.453C159.952 299.453 164.333 301.268 167.562 304.497C170.792 307.727 172.607 312.107 172.607 316.675C172.227 324.027 173.513 331.371 176.369 338.156C179.225 344.942 183.577 350.995 189.099 355.863C194.622 360.732 201.173 364.29 208.264 366.272C215.354 368.254 222.8 368.608 230.047 367.309C246.957 363.994 262.498 355.722 274.692 343.546C286.885 331.37 295.181 315.842 298.522 298.937C300.534 288.029 300.534 276.845 298.522 265.937V266.453Z" fill="white"/>
<path d="M155.385 299.557C159.953 299.557 164.333 301.371 167.563 304.601C170.793 307.831 172.607 312.211 172.607 316.778C172.228 324.131 173.514 331.474 176.37 338.26C179.225 345.045 183.577 351.098 189.1 355.967C194.623 360.835 201.174 364.393 208.264 366.375C215.355 368.357 222.801 368.712 230.048 367.413C245.586 364.343 259.991 357.087 271.706 346.427C283.421 335.767 292.001 322.11 296.52 306.929C301.038 291.749 301.324 275.622 297.346 260.291C293.368 244.96 285.277 231.008 273.947 219.94C262.617 208.872 248.478 201.11 233.058 197.491C217.638 193.873 201.523 194.536 186.452 199.409C171.382 204.282 157.929 213.18 147.547 225.141C137.164 237.102 130.247 251.672 127.542 267.278C126.894 271.288 127.132 275.391 128.239 279.299C129.345 283.208 131.293 286.826 133.946 289.902C136.599 292.978 139.893 295.436 143.597 297.103C147.3 298.771 151.324 299.608 155.385 299.557Z" stroke="#45413C" stroke-width="7" stroke-linecap="round" stroke-linejoin="round"/>
<path d="M259.547 270.578C259.547 261.361 255.885 252.521 249.368 246.004C242.85 239.486 234.011 235.825 224.794 235.825C215.577 235.825 206.737 239.486 200.22 246.004C193.702 252.521 190.041 261.361 190.041 270.578C190.041 279.795 193.702 288.635 200.22 295.152C206.737 301.67 215.577 305.331 224.794 305.331C234.011 305.331 242.85 301.67 249.368 295.152C255.885 288.635 259.547 279.795 259.547 270.578Z" fill="#FFAA54"/>
<path d="M224.791 284.706C217.434 284.655 210.287 282.256 204.388 277.86C198.49 273.464 194.149 267.3 191.997 260.265C190.889 263.593 190.298 267.071 190.244 270.578C190.244 279.795 193.905 288.635 200.423 295.152C206.94 301.67 215.78 305.331 224.997 305.331C234.214 305.331 243.054 301.67 249.571 295.152C256.089 288.635 259.75 279.795 259.75 270.578C259.696 267.071 259.104 263.593 257.997 260.265C255.81 267.359 251.403 273.562 245.425 277.962C239.446 282.362 232.213 284.726 224.791 284.706Z" fill="#FFCC99"/>
<path d="M259.547 270.578C259.547 261.361 255.885 252.521 249.368 246.004C242.85 239.486 234.011 235.825 224.794 235.825C215.577 235.825 206.737 239.486 200.22 246.004C193.702 252.521 190.041 261.361 190.041 270.578C190.041 279.795 193.702 288.635 200.22 295.152C206.737 301.67 215.577 305.331 224.794 305.331C234.011 305.331 242.85 301.67 249.368 295.152C255.885 288.635 259.547 279.795 259.547 270.578V270.578Z" stroke="#45413C" stroke-width="7" stroke-linecap="round" stroke-linejoin="round"/>
</svg>
