<svg width="495" height="495" viewBox="0 0 495 495" fill="none" xmlns="http://www.w3.org/2000/svg">
<path d="M348.727 84.9533C348.717 106.885 366.052 138.373 366.052 138.373C366.052 138.373 403.023 160.454 428.134 157.142C454.03 153.727 495.264 144.82 484.442 121.048C477.441 105.67 459.62 111.497 445.46 102.279C428.134 91 428.569 91.8401 417 79.5C404.66 66.3373 411.5 73 399.259 58.9653C387.486 45.468 394.144 25.4037 377.602 18.5394C351.48 7.70008 348.738 56.6717 348.727 84.9533Z" fill="#FF0099" stroke="black" stroke-width="10"/>
<path d="M145.492 410.047C145.501 388.115 128.167 356.627 128.167 356.627C128.167 356.627 91.1953 334.546 66.0843 337.858C40.1891 341.273 -1.04492 350.18 9.7769 373.952C16.7773 389.33 35.8965 381.765 48.7589 392.721C62 404 60.4312 403.66 72 416C84.3401 429.163 81 424.5 94.9599 436.035C108.766 447.443 100.074 469.596 116.617 476.461C142.739 487.3 145.48 438.328 145.492 410.047Z" fill="#FF0099" stroke="black" stroke-width="10"/>
<ellipse cx="246.69" cy="246.011" rx="160.961" ry="113.037" transform="rotate(-41.6958 246.69 246.011)" fill="#FFD366" stroke="black" stroke-width="10"/>
<path d="M363.445 270C332.381 217.994 285.283 169.02 230.712 131C191.886 146.105 164.42 162.385 139.945 206C202.558 239.528 257.033 292.362 280.945 353.5C320.735 330.973 340.218 311.491 363.445 270Z" fill="#FF0099"/>
</svg>
