<svg width="493" height="493" viewBox="0 0 493 493" fill="none" xmlns="http://www.w3.org/2000/svg">
<path d="M458.457 329.021C449.656 327.098 440.676 326.124 431.67 326.115C415.508 326.074 399.497 329.233 384.554 335.412C369.61 341.592 356.028 350.669 344.586 362.125C333.143 373.58 324.065 387.189 317.871 402.171C311.677 417.154 308.488 433.216 308.488 449.437V469.16H458.457V329.021Z" fill="#87BBFF"/>
<path d="M431.67 326.115C415.508 326.074 399.497 329.233 384.554 335.412C369.61 341.592 356.028 350.669 344.586 362.125C333.143 373.58 324.065 387.189 317.871 402.171C311.677 417.154 308.488 433.216 308.488 449.437V469.16H309.729C314.031 439.805 328.724 412.988 351.118 393.619C373.512 374.251 402.108 363.626 431.67 363.693C440.683 363.685 449.669 364.695 458.457 366.703V329.021C449.656 327.098 440.676 326.124 431.67 326.115Z" fill="#6DACFF"/>
<path d="M458.457 329.021C449.656 327.098 440.676 326.124 431.67 326.115C415.508 326.074 399.497 329.233 384.554 335.412C369.61 341.592 356.028 350.669 344.586 362.125C333.143 373.58 324.065 387.189 317.871 402.171C311.677 417.154 308.488 433.216 308.488 449.437V469.16H458.457V329.021Z" stroke="#45413C" stroke-width="7" stroke-linecap="round" stroke-linejoin="round"/>
<path d="M405.852 284.084H458.496V366.506H405.852V284.084Z" fill="#FFE500"/>
<path d="M432.628 284.084C425.651 284.084 418.958 286.859 414.015 291.8C409.072 296.742 406.281 303.448 406.254 310.451V316.679C406.674 323.4 409.63 329.707 414.52 334.317C419.41 338.927 425.867 341.493 432.576 341.493C439.285 341.493 445.742 338.927 450.632 334.317C455.522 329.707 458.478 323.4 458.898 316.679V310.555C458.898 303.552 456.134 296.835 451.21 291.874C446.286 286.912 439.605 284.111 432.628 284.084Z" fill="#EBCB00"/>
<path d="M405.852 284.084H458.496V366.506H405.852V284.084Z" stroke="#45413C" stroke-width="7" stroke-linecap="round" stroke-linejoin="round"/>
<path d="M458.437 77.4077C449.712 74.988 440.701 73.7658 431.649 73.7745C423.102 73.7825 414.589 74.8636 406.309 76.9925C387.176 81.3523 362.146 88.6188 339.496 84.2589C338.582 90.1142 338.882 96.0957 340.377 101.829C341.872 107.563 344.53 112.925 348.184 117.581C336.31 134.621 329.954 154.918 329.981 175.712V229.069H458.437V77.4077Z" fill="#724F3D"/>
<path d="M431.649 73.7745C423.102 73.7825 414.589 74.8636 406.309 76.9925C387.175 81.3523 362.146 88.6188 339.495 84.2589C338.283 93.7002 339.941 103.289 344.253 111.768C365.241 112.674 386.229 109.971 406.309 103.775C414.593 101.681 423.106 100.634 431.649 100.66C440.7 100.652 449.711 101.874 458.436 104.294V77.4077C449.711 74.988 440.7 73.7658 431.649 73.7745Z" fill="#A86C4D"/>
<path d="M458.437 77.4077C449.712 74.988 440.701 73.7658 431.649 73.7745C423.102 73.7825 414.589 74.8636 406.309 76.9925C387.176 81.3523 362.146 88.6188 339.496 84.2589C338.582 90.1142 338.882 96.0957 340.377 101.829C341.872 107.563 344.53 112.925 348.184 117.581C336.31 134.621 329.954 154.918 329.981 175.712V229.069H458.437V77.4077Z" stroke="#45413C" stroke-width="7" stroke-linecap="round" stroke-linejoin="round"/>
<path d="M458.46 152.56C449.587 153.829 440.634 154.453 431.672 154.428C410.441 154.863 389.338 151.015 369.616 143.113C365.49 144.213 361.842 146.653 359.241 150.051C356.641 153.45 355.234 157.617 355.24 161.902V187.75C355.213 192.147 353.46 196.355 350.363 199.464C347.265 202.573 343.072 204.332 338.691 204.359C334.134 204.27 329.69 205.79 326.136 208.656C322.582 211.521 320.144 215.548 319.247 220.034C318.796 222.731 318.936 225.495 319.659 228.133C320.382 230.77 321.67 233.217 323.433 235.303C325.196 237.389 327.392 239.063 329.866 240.209C332.341 241.355 335.035 241.945 337.761 241.937H339.519C342.87 264.283 354.117 284.674 371.207 299.387C388.296 314.1 410.088 322.153 432.603 322.076C441.674 322.046 450.694 320.718 459.39 318.131L458.46 152.56Z" fill="#FFE500" stroke="#45413C" stroke-width="7" stroke-linecap="round" stroke-linejoin="round"/>
<path d="M375.387 219.088C375.367 220.699 375.825 222.278 376.704 223.626C377.582 224.973 378.841 226.027 380.319 226.652C381.798 227.278 383.428 227.447 385.003 227.138C386.577 226.829 388.024 226.056 389.158 224.917C390.293 223.778 391.063 222.326 391.371 220.746C391.679 219.166 391.511 217.529 390.887 216.045C390.264 214.562 389.214 213.298 387.872 212.417C386.529 211.535 384.955 211.075 383.351 211.095C382.305 211.095 381.27 211.302 380.304 211.704C379.337 212.106 378.459 212.694 377.72 213.437C376.98 214.179 376.394 215.06 375.994 216.03C375.593 216.999 375.387 218.039 375.387 219.088Z" fill="#45413C" stroke="#45413C" stroke-width="7" stroke-linecap="round" stroke-linejoin="round"/>
<path d="M359.875 469.17V444.152" stroke="#45413C" stroke-width="7" stroke-linecap="round" stroke-linejoin="round"/>
<path d="M359.875 253.148C359.875 254.8 360.965 256.384 362.904 257.552C364.844 258.72 367.475 259.377 370.218 259.377C372.961 259.377 375.591 258.72 377.531 257.552C379.471 256.384 380.56 254.8 380.56 253.148C380.56 251.496 379.471 249.912 377.531 248.744C375.591 247.576 372.961 246.92 370.218 246.92C367.475 246.92 364.844 247.576 362.904 248.744C360.965 249.912 359.875 251.496 359.875 253.148Z" fill="#FFAA54"/>
<path d="M458.428 267.782H402.267C401.614 267.807 400.972 267.966 400.383 268.251C399.794 268.535 399.27 268.938 398.843 269.435C398.416 269.931 398.095 270.511 397.902 271.138C397.708 271.764 397.645 272.424 397.716 273.076C398.824 279.632 401.792 285.728 406.265 290.633C410.737 295.538 416.524 299.044 422.932 300.732C429.34 302.419 436.097 302.216 442.393 300.146C448.689 298.076 454.256 294.228 458.428 289.063V267.782Z" fill="#FF6242"/>
<path d="M431.685 282.725C422.789 282.682 414.224 286.106 407.793 292.275C414.247 298.408 422.797 301.826 431.685 301.826C440.572 301.826 449.122 298.408 455.576 292.275C449.134 286.124 440.576 282.704 431.685 282.725Z" fill="#FFA694"/>
<path d="M458.428 267.782H402.267C401.614 267.807 400.972 267.966 400.383 268.251C399.794 268.535 399.27 268.938 398.843 269.435C398.416 269.931 398.095 270.511 397.902 271.138C397.708 271.764 397.645 272.424 397.716 273.076C398.824 279.632 401.792 285.728 406.265 290.633C410.737 295.538 416.524 299.044 422.932 300.732C429.34 302.419 436.097 302.216 442.393 300.146C448.689 298.076 454.256 294.228 458.428 289.063V267.782Z" stroke="#45413C" stroke-width="7" stroke-linecap="round" stroke-linejoin="round"/>
<path d="M60.2704 67.6316C51.421 67.6118 42.6012 68.6573 34 70.7458V358.705C78.659 362.918 123.673 356.296 165.249 339.397C167.6 338.445 169.614 336.81 171.033 334.702C172.452 332.593 173.211 330.107 173.212 327.563V180.469C173.199 165.611 170.265 150.902 164.578 137.184C158.891 123.466 150.563 111.01 140.071 100.528C129.579 90.0456 117.13 81.7443 103.436 76.0994C89.7427 70.4545 75.0739 67.577 60.2704 67.6316Z" fill="#724F3D"/>
<path d="M60.2704 67.6316C51.421 67.6118 42.6012 68.6573 34 70.7458V103.964C42.5928 101.805 51.4127 100.69 60.2704 100.642C75.0913 100.587 89.777 103.472 103.484 109.13C117.191 114.787 129.65 123.107 140.144 133.611C150.639 144.115 158.962 156.597 164.637 170.338C170.312 184.08 173.226 198.812 173.212 213.687V180.469C173.199 165.611 170.265 150.902 164.578 137.184C158.891 123.466 150.563 111.01 140.071 100.528C129.579 90.0456 117.13 81.7443 103.436 76.0994C89.7427 70.4545 75.0739 67.577 60.2704 67.6316Z" fill="#A86C4D"/>
<path d="M60.2704 67.6316C51.421 67.6118 42.6012 68.6573 34 70.7458V358.705C78.659 362.918 123.673 356.296 165.249 339.397C167.6 338.445 169.614 336.81 171.033 334.702C172.452 332.593 173.211 330.107 173.212 327.563V180.469C173.199 165.611 170.265 150.902 164.578 137.184C158.891 123.466 150.563 111.01 140.071 100.528C129.579 90.0456 117.13 81.7443 103.436 76.0994C89.7427 70.4545 75.0739 67.577 60.2704 67.6316V67.6316Z" stroke="#45413C" stroke-width="7" stroke-linecap="round" stroke-linejoin="round"/>
<path d="M60.2629 326.115C51.5657 326.159 42.8978 327.134 34.4062 329.022V469.16H183.548V449.437C183.548 433.207 180.356 417.137 174.155 402.148C167.954 387.158 158.867 373.545 147.413 362.088C135.96 350.631 122.366 341.556 107.411 335.383C92.4555 329.21 76.4334 326.06 60.2629 326.115Z" fill="#FF87AF"/>
<path d="M60.2629 326.115C51.5657 326.159 42.8978 327.134 34.4062 329.022V362.862C51.1912 359.129 68.5705 358.979 85.4169 362.422C102.263 365.865 118.201 372.823 132.195 382.846C146.189 392.869 157.928 405.732 166.65 420.602C175.372 435.472 180.882 452.015 182.824 469.16H183.548V449.437C183.548 433.207 180.356 417.137 174.155 402.148C167.954 387.158 158.867 373.545 147.413 362.088C135.96 350.631 122.366 341.556 107.411 335.383C92.4555 329.21 76.4334 326.06 60.2629 326.115Z" fill="#FF6196"/>
<path d="M60.2629 326.115C51.5657 326.159 42.8978 327.134 34.4062 329.022V469.16H183.548V449.437C183.548 433.207 180.356 417.137 174.155 402.148C167.954 387.158 158.867 373.545 147.413 362.088C135.96 350.631 122.366 341.556 107.411 335.383C92.4555 329.21 76.4334 326.06 60.2629 326.115V326.115Z" stroke="#45413C" stroke-width="7" stroke-linecap="round" stroke-linejoin="round"/>
<path d="M34.4062 284.084H87.0505V366.506H34.4062V284.084Z" fill="#FFE500"/>
<path d="M60.2629 284.087C53.3675 284.196 46.7914 287.022 41.9538 291.955C37.1163 296.888 34.4054 303.533 34.4063 310.454V316.682C34.8262 323.403 37.7821 329.71 42.6723 334.32C47.5625 338.93 54.0193 341.496 60.7284 341.496C67.4374 341.496 73.8942 338.93 78.7844 334.32C83.6746 329.71 86.6305 323.403 87.0505 316.682V310.558C87.0509 307.046 86.3552 303.57 85.004 300.331C83.6528 297.092 81.6731 294.155 79.1801 291.692C76.687 289.228 73.7306 287.287 70.4828 285.982C67.2351 284.676 63.761 284.032 60.2629 284.087Z" fill="#EBCB00"/>
<path d="M34.4062 284.084H87.0505V366.506H34.4062V284.084Z" stroke="#45413C" stroke-width="7" stroke-linecap="round" stroke-linejoin="round"/>
<path d="M154.485 204.463C141.459 200.776 129.426 194.197 119.275 185.213C109.125 176.229 101.116 165.069 95.8417 152.56L89.3259 137.093C74.6851 156.52 55.9265 172.44 34.4062 183.702V317.924C42.7998 320.429 51.5061 321.722 60.2629 321.764C82.7839 321.863 104.587 313.818 121.681 299.101C138.775 284.385 150.016 263.981 153.347 241.626H154.485C159.45 241.626 164.211 239.646 167.722 236.123C171.233 232.599 173.205 227.82 173.205 222.837C173.205 217.854 171.233 213.075 167.722 209.551C164.211 206.027 159.45 204.048 154.485 204.048V204.463Z" fill="#FFE500" stroke="#45413C" stroke-width="7" stroke-linecap="round" stroke-linejoin="round"/>
<path d="M116.916 219.088C116.916 220.669 116.449 222.214 115.574 223.529C114.699 224.843 113.455 225.868 112 226.472C110.545 227.077 108.943 227.236 107.398 226.927C105.854 226.619 104.435 225.858 103.321 224.74C102.207 223.622 101.449 222.198 101.141 220.647C100.834 219.097 100.992 217.49 101.594 216.029C102.197 214.568 103.218 213.32 104.528 212.442C105.837 211.564 107.377 211.095 108.952 211.095C111.064 211.095 113.09 211.937 114.583 213.436C116.077 214.935 116.916 216.968 116.916 219.088Z" fill="#45413C" stroke="#45413C" stroke-width="7" stroke-linecap="round" stroke-linejoin="round"/>
<path d="M132.496 469.17V444.152" stroke="#45413C" stroke-width="7" stroke-linecap="round" stroke-linejoin="round"/>
<path d="M111.812 253.148C111.812 254.8 112.902 256.384 114.842 257.552C116.781 258.72 119.412 259.377 122.155 259.377C124.898 259.377 127.529 258.72 129.469 257.552C131.408 256.384 132.498 254.8 132.498 253.148C132.498 251.496 131.408 249.912 129.469 248.744C127.529 247.576 124.898 246.92 122.155 246.92C119.412 246.92 116.781 247.576 114.842 248.744C112.902 249.912 111.812 251.496 111.812 253.148Z" fill="#FFAA54"/>
<path d="M93.5663 269.443C93.1297 268.933 92.5907 268.522 91.9848 268.236C91.3788 267.95 90.7194 267.795 90.0498 267.782H34.4062V289.685C38.6529 294.698 44.2369 298.39 50.502 300.328C56.7671 302.266 63.4531 302.369 69.7745 300.625C76.0958 298.88 81.7898 295.362 86.1875 290.482C90.5852 285.602 93.5039 279.564 94.6006 273.076C94.6898 272.432 94.6439 271.776 94.4658 271.15C94.2877 270.524 93.9814 269.943 93.5663 269.443Z" fill="#FF6242"/>
<path d="M60.2921 282.725C51.43 282.698 42.9028 286.121 36.5039 292.275C42.9408 298.401 51.4733 301.816 60.3438 301.816C69.2142 301.816 77.7468 298.401 84.1836 292.275C77.753 286.106 69.1878 282.682 60.2921 282.725Z" fill="#FFA694"/>
<path d="M93.5663 269.443C93.1297 268.933 92.5907 268.522 91.9848 268.236C91.3788 267.95 90.7194 267.795 90.0498 267.782H34.4062V289.685C38.6529 294.698 44.2369 298.39 50.502 300.328C56.7671 302.266 63.4531 302.369 69.7745 300.625C76.0958 298.88 81.7898 295.362 86.1875 290.482C90.5852 285.602 93.5039 279.564 94.6006 273.076C94.6898 272.432 94.6439 271.776 94.4658 271.15C94.2877 270.524 93.9814 269.943 93.5663 269.443V269.443Z" stroke="#45413C" stroke-width="7" stroke-linecap="round" stroke-linejoin="round"/>
<path d="M341.168 35.0466C330.241 26.6545 316.512 22.8131 302.835 24.3211C289.158 25.8292 276.587 32.5706 267.735 43.1435L246.43 66.9151L225.124 43.1435C216.272 32.5706 203.701 25.8292 190.024 24.3211C176.347 22.8131 162.618 26.6545 151.691 35.0466C143.361 41.5718 136.673 49.9676 132.164 59.559C127.655 69.1505 125.452 79.6699 125.731 90.2716C125.592 102.228 127.908 114.086 132.535 125.105C137.161 136.124 143.999 146.069 152.622 154.32L246.43 240.791L340.238 154.009C348.822 145.794 355.637 135.899 360.263 124.937C364.888 113.974 367.224 102.176 367.129 90.2716C367.407 79.6699 365.204 69.1505 360.695 59.559C356.186 49.9676 349.498 41.5718 341.168 35.0466Z" fill="#FF6196"/>
<path d="M151.691 96.1886C162.618 87.7965 176.347 83.9551 190.024 85.4631C203.701 86.9712 216.272 93.7126 225.124 104.285L237.535 118.092C238.66 119.339 240.032 120.336 241.564 121.018C243.096 121.7 244.754 122.052 246.43 122.052C248.106 122.052 249.763 121.7 251.295 121.018C252.827 120.336 254.2 119.339 255.324 118.092L267.735 104.285C276.587 93.7126 289.158 86.9712 302.835 85.4631C316.512 83.9551 330.241 87.7965 341.168 96.1886C350.278 102.799 357.428 111.769 361.854 122.14C365.459 111.91 367.244 101.123 367.129 90.2716C367.359 79.722 365.131 69.2642 360.625 59.7307C356.118 50.1973 349.456 41.8516 341.168 35.358C330.241 26.9659 316.512 23.1245 302.835 24.6325C289.158 26.1406 276.587 32.882 267.735 43.4549L246.43 66.9152L225.124 43.1435C216.272 32.5706 203.701 25.8292 190.024 24.3211C176.347 22.8131 162.618 26.6545 151.691 35.0466C143.361 41.5718 136.673 49.9676 132.164 59.559C127.655 69.1505 125.452 79.6699 125.731 90.2716C125.744 101.258 127.705 112.155 131.522 122.452C135.757 112.029 142.727 102.953 151.691 96.1886Z" fill="#FF87AF"/>
<path d="M341.168 35.0466C330.241 26.6545 316.512 22.8131 302.835 24.3211C289.158 25.8292 276.587 32.5706 267.735 43.1435L246.43 66.9152L225.124 43.1435C216.272 32.5706 203.701 25.8292 190.024 24.3211C176.347 22.8131 162.618 26.6545 151.691 35.0466C143.361 41.5718 136.673 49.9676 132.164 59.559C127.655 69.1505 125.452 79.6699 125.731 90.2716C125.592 102.228 127.908 114.086 132.535 125.105C137.161 136.124 143.999 146.069 152.622 154.32L246.43 240.791L340.238 154.009C348.822 145.794 355.637 135.899 360.263 124.937C364.888 113.974 367.224 102.176 367.129 90.2716C367.407 79.6699 365.204 69.1505 360.695 59.559C356.186 49.9676 349.498 41.5718 341.168 35.0466V35.0466Z" stroke="#45413C" stroke-width="7" stroke-linecap="round" stroke-linejoin="round"/>
</svg>
