<svg width="495" height="495" viewBox="0 0 495 495" fill="none" xmlns="http://www.w3.org/2000/svg">
<path d="M464.438 129.485H399.263C347.807 129.622 296.673 121.367 247.875 105.044C199.254 88.713 148.294 80.4229 97.0031 80.5005H31.3125C25.3313 80.5005 21 84.1099 21 88.6474V356.772C21.3815 359.177 22.6542 361.351 24.5649 362.86C26.4756 364.37 28.8845 365.105 31.3125 364.919H97.0031C148.29 364.891 199.242 373.18 247.875 389.463C296.557 405.836 347.592 414.127 398.953 414.007H464.438C466.871 414.217 469.292 413.491 471.209 411.977C473.125 410.464 474.391 408.276 474.75 405.86V137.219C474.278 134.89 472.967 132.816 471.066 131.39C469.164 129.964 466.806 129.286 464.438 129.485Z" fill="black" stroke="#45413C" stroke-width="7" stroke-linecap="round" stroke-linejoin="round"/>
<path d="M247.874 105.045C221.983 96.1709 195.334 89.6814 168.262 85.6572V370.385C195.315 374.357 221.959 380.742 247.874 389.463C273.834 398.297 300.554 404.718 327.693 408.645V124.123C300.566 120.181 273.851 113.796 247.874 105.045Z" fill="#F4C704" stroke="#45413C" stroke-width="7"/>
<path d="M97.0031 80.501H31.3125C25.3312 80.501 21 84.1104 21 88.6479V356.773C21.3815 359.178 22.6542 361.351 24.5649 362.861C26.4756 364.37 28.8845 365.105 31.3125 364.92H97.0031C120.856 364.939 144.675 366.731 168.262 370.282V85.6573C144.67 82.175 120.851 80.4515 97.0031 80.501Z" fill="#FF6242" stroke="#45413C" stroke-width="7"/>
</svg>
