<svg width="495" height="495" viewBox="0 0 495 495" fill="none" xmlns="http://www.w3.org/2000/svg">
<path d="M15 247.75C15 302.451 36.7298 354.911 75.4092 393.591C114.089 432.27 166.549 454 221.25 454C275.951 454 328.411 432.27 367.091 393.591C405.77 354.911 427.5 302.451 427.5 247.75C427.5 193.049 405.77 140.589 367.091 101.909C328.411 63.2298 275.951 41.5 221.25 41.5C166.549 41.5 114.089 63.2298 75.4092 101.909C36.7298 140.589 15 193.049 15 247.75Z" fill="#FFE500"/>
<path d="M221.25 41.5C180.458 41.5 140.581 53.5964 106.664 76.2594C72.7461 98.9224 46.3105 131.134 30.6999 168.822C15.0894 206.509 11.0049 247.979 18.9631 287.987C26.9213 327.996 46.5647 364.746 75.4093 393.591C104.254 422.435 141.004 442.079 181.013 450.037C221.021 457.995 262.491 453.911 300.179 438.3C337.866 422.69 370.078 396.254 392.741 362.336C415.404 328.419 427.5 288.542 427.5 247.75C427.5 220.665 422.165 193.845 411.8 168.822C401.435 143.798 386.243 121.061 367.091 101.909C347.939 82.7571 325.202 67.5649 300.179 57.1998C275.155 46.8348 248.335 41.5 221.25 41.5ZM221.25 423.062C184.027 423.062 147.64 412.025 116.69 391.345C85.7402 370.665 61.6177 341.271 47.3731 306.882C33.1284 272.492 29.4014 234.651 36.6632 198.143C43.9251 161.635 61.8497 128.1 88.1704 101.78C114.491 75.459 148.026 57.5344 184.534 50.2725C221.041 43.0107 258.883 46.7377 293.272 60.9824C327.662 75.227 357.055 99.3495 377.735 130.299C398.415 161.249 409.453 197.636 409.453 234.859C409.453 284.774 389.625 332.644 354.33 367.939C319.035 403.234 271.165 423.062 221.25 423.062Z" fill="#EBCB00"/>
<path d="M159.375 82.75C159.375 86.8526 165.894 90.7871 177.498 93.6881C189.102 96.589 204.84 98.2188 221.25 98.2188C237.66 98.2188 253.398 96.589 265.002 93.6881C276.606 90.7871 283.125 86.8526 283.125 82.75C283.125 78.6474 276.606 74.7129 265.002 71.8119C253.398 68.911 237.66 67.2812 221.25 67.2812C204.84 67.2812 189.102 68.911 177.498 71.8119C165.894 74.7129 159.375 78.6474 159.375 82.75Z" fill="#FFF48C"/>
<path d="M405.742 339.944C387.099 377.109 357.658 407.771 321.282 427.91L309.732 400.891L304.06 387.588C300.271 378.008 298.464 367.759 298.748 357.461C299.031 347.163 301.4 337.029 305.71 327.672C309.285 319.228 314.783 311.735 321.766 305.791C328.748 299.847 337.022 295.616 345.929 293.435C354.704 291.348 363.9 291.887 372.371 294.986C380.842 298.085 388.215 303.606 393.573 310.863C397.116 315.349 399.871 320.406 401.72 325.816L405.742 339.944Z" fill="#EBCB00"/>
<path d="M15 247.75C15 302.451 36.7298 354.911 75.4092 393.591C114.089 432.27 166.549 454 221.25 454C275.951 454 328.411 432.27 367.091 393.591C405.77 354.911 427.5 302.451 427.5 247.75C427.5 193.049 405.77 140.589 367.091 101.909C328.411 63.2298 275.951 41.5 221.25 41.5C166.549 41.5 114.089 63.2298 75.4092 101.909C36.7298 140.589 15 193.049 15 247.75V247.75Z" stroke="#45413C" stroke-width="7" stroke-linecap="round" stroke-linejoin="round"/>
<path d="M473.907 334.168C477.341 340.714 479.211 347.965 479.372 355.355C479.533 362.744 477.981 370.07 474.835 376.759C471.446 384.48 466.514 391.426 460.343 397.172C454.171 402.918 446.891 407.341 438.948 410.172L353.87 438.737L318.704 356.237C315.535 348.389 314.01 339.975 314.223 331.514C314.436 323.053 316.382 314.725 319.942 307.047C322.857 300.246 327.306 294.212 332.942 289.418C338.578 284.623 345.246 281.197 352.426 279.409C361.863 277.218 371.782 278.75 380.118 283.686C388.455 288.623 394.567 296.584 397.182 305.912L403.782 327.672L424.407 318.493C433.093 314.251 443.077 313.512 452.293 316.43C461.508 319.348 469.247 325.7 473.907 334.168Z" fill="#FF6242"/>
<path d="M334.791 319.01C344.216 316.788 354.135 318.294 362.475 323.214C370.816 328.134 376.932 336.086 379.547 345.41L386.147 366.654L406.772 357.475C415.49 353.231 425.512 352.524 434.739 355.504C443.967 358.483 451.683 364.918 456.272 373.46C459.962 380.256 461.811 387.9 461.634 395.632C467.128 390.182 471.599 383.79 474.834 376.76C477.98 370.071 479.533 362.745 479.372 355.356C479.211 347.966 477.34 340.714 473.906 334.169C469.298 325.646 461.582 319.228 452.362 316.251C443.142 313.274 433.129 313.966 424.406 318.185L403.781 327.363L397.181 306.119C394.566 296.791 388.454 288.83 380.117 283.893C371.781 278.957 361.862 277.425 352.425 279.616C345.266 281.383 338.61 284.777 332.976 289.535C327.342 294.292 322.882 300.285 319.941 307.047C316.744 314.17 314.925 321.833 314.578 329.632C320.25 324.355 327.228 320.688 334.791 319.01Z" fill="#FF866E"/>
<path d="M473.907 334.168C477.341 340.714 479.211 347.965 479.372 355.355C479.533 362.744 477.981 370.07 474.835 376.759C471.446 384.48 466.514 391.426 460.343 397.172C454.171 402.918 446.891 407.341 438.948 410.172L353.87 438.737L318.704 356.237C315.535 348.389 314.01 339.975 314.223 331.514C314.436 323.053 316.382 314.725 319.942 307.047C322.857 300.246 327.306 294.212 332.942 289.418C338.578 284.623 345.246 281.197 352.426 279.409C361.863 277.218 371.782 278.75 380.118 283.686C388.455 288.623 394.567 296.584 397.182 305.912L403.782 327.672L424.407 318.493C433.093 314.251 443.077 313.512 452.293 316.43C461.508 319.348 469.247 325.7 473.907 334.168V334.168Z" stroke="#45413C" stroke-width="7" stroke-linecap="round" stroke-linejoin="round"/>
<path d="M71.7188 299.312C71.7188 307.872 83.2688 314.781 97.5 314.781C111.731 314.781 123.281 307.872 123.281 299.312C123.281 290.753 111.731 283.844 97.5 283.844C83.2688 283.844 71.7188 290.753 71.7188 299.312Z" fill="#FFAA54"/>
<path d="M308.906 250.328C308.906 245.542 310.808 240.952 314.192 237.567C317.577 234.183 322.167 232.281 326.953 232.281C331.739 232.281 336.33 234.183 339.714 237.567C343.099 240.952 345 245.542 345 250.328" stroke="#45413C" stroke-width="7" stroke-linecap="round" stroke-linejoin="round"/>
<path d="M97.5 237.438C97.5 239.477 98.1048 241.471 99.238 243.167C100.371 244.863 101.982 246.184 103.866 246.965C105.75 247.746 107.824 247.95 109.824 247.552C111.825 247.154 113.662 246.172 115.105 244.73C116.547 243.287 117.529 241.45 117.927 239.449C118.325 237.449 118.121 235.375 117.34 233.491C116.559 231.607 115.238 229.996 113.542 228.863C111.846 227.73 109.852 227.125 107.812 227.125C105.077 227.125 102.454 228.211 100.52 230.145C98.5865 232.079 97.5 234.702 97.5 237.438Z" fill="#45413C" stroke="#45413C" stroke-width="7" stroke-linecap="round" stroke-linejoin="round"/>
<path d="M179 377C184.296 383.084 190.914 387.876 198.346 391.01C205.779 394.144 213.83 395.538 221.883 395.083C229.937 395.538 237.988 394.144 245.42 391.01C252.853 387.876 259.47 383.084 264.767 377" stroke="#45413C" stroke-width="7" stroke-linecap="round" stroke-linejoin="round"/>
</svg>
