<svg width="495" height="495" viewBox="0 0 495 495" fill="none" xmlns="http://www.w3.org/2000/svg">
<path opacity="0.15" d="M20.4219 464.553C20.4219 466.584 22.8225 468.596 27.4868 470.472C32.1511 472.349 38.9876 474.054 47.606 475.491C56.2245 476.927 66.456 478.067 77.7166 478.844C88.9771 479.621 101.046 480.021 113.234 480.021C125.423 480.021 137.492 479.621 148.752 478.844C160.013 478.067 170.244 476.927 178.863 475.491C187.481 474.054 194.318 472.349 198.982 470.472C203.646 468.596 206.047 466.584 206.047 464.553C206.047 462.521 203.646 460.51 198.982 458.633C194.318 456.756 187.481 455.051 178.863 453.615C170.244 452.178 160.013 451.039 148.752 450.261C137.492 449.484 125.423 449.084 113.234 449.084C101.046 449.084 88.9771 449.484 77.7166 450.261C66.456 451.039 56.2245 452.178 47.606 453.615C38.9876 455.051 32.1511 456.756 27.4868 458.633C22.8225 460.51 20.4219 462.521 20.4219 464.553Z" fill="#45413C"/>
<path d="M125.195 314.3C126.639 354.415 110.036 417.425 110.036 417.425C109.667 419.008 108.726 420.4 107.393 421.332C106.061 422.265 104.432 422.673 102.817 422.478C76.2109 418.662 54.6578 420.622 48.9859 427.531C48.7422 427.856 48.5648 428.226 48.464 428.619C48.3632 429.013 48.3408 429.423 48.3983 429.825C48.4557 430.227 48.5919 430.614 48.7988 430.964C49.0058 431.313 49.2797 431.619 49.6047 431.862C68.0448 444.832 89.2113 453.404 111.48 456.922C133.34 462.703 156.233 463.408 178.408 458.984C179.206 458.766 179.889 458.246 180.312 457.534C180.736 456.823 180.866 455.975 180.677 455.169C178.305 446.609 159.33 436.194 133.548 428.975C131.967 428.538 130.61 427.519 129.75 426.122C128.889 424.726 128.588 423.056 128.908 421.447C128.908 421.447 139.22 356.684 156.648 320.59L125.195 314.3Z" fill="#00B8F0" stroke="#45413C" stroke-width="7" stroke-linecap="round" stroke-linejoin="round"/>
<path d="M228.012 266.346C219.556 306.668 178.718 338.534 138.396 330.284C98.0744 322.034 73.5306 275.937 82.5025 235.615L141.284 19.0527L261.321 44.6277L228.012 266.346Z" fill="#00B8F0"/>
<path d="M244.717 155.591L261.321 44.6285L140.767 19.2598L82.5019 235.616C80.597 245.234 80.3876 255.111 81.8831 264.8C144.27 242.25 200.179 204.753 244.717 155.591Z" fill="#4ACFFF"/>
<path d="M228.012 266.346C219.556 306.668 178.718 338.534 138.396 330.284C98.0744 322.034 73.5306 275.937 82.5025 235.615L141.284 19.0527L261.321 44.6277L228.012 266.346Z" stroke="#45413C" stroke-width="7" stroke-linecap="round" stroke-linejoin="round"/>
<path d="M261.322 44.6281C259.878 51.6406 231.725 51.6406 198.416 44.6281C165.107 37.6156 139.222 26.2719 140.769 19.2594C142.316 12.2469 170.366 12.2469 203.675 19.2594C236.985 26.2719 262.869 37.6156 261.322 44.6281Z" fill="#00B8F0" stroke="#45413C" stroke-width="7" stroke-linecap="round" stroke-linejoin="round"/>
<path d="M117.461 193.334C120.721 189.016 125.168 185.741 130.26 183.909C135.351 182.078 140.866 181.769 146.13 183.022C152.735 184.462 158.966 187.271 164.419 191.267C169.872 195.264 174.427 200.359 177.789 206.225L117.461 193.334Z" fill="#FFE500"/>
<path d="M213.474 256.653C206.874 288.209 173.255 321.106 141.287 314.506C109.318 307.906 92.818 264.181 99.2117 232.521L113.443 182.506C113.443 182.506 117.877 193.334 140.049 197.975C162.221 202.615 172.637 184.981 194.809 189.621C216.98 194.262 221.415 205.193 221.415 205.193L213.474 256.653Z" fill="#FFE500"/>
<path d="M206.25 193.231C202.45 191.67 198.515 190.461 194.493 189.621C172.322 184.981 162.009 202.718 139.734 197.975C117.459 193.231 113.437 182.506 113.437 182.506L99.2059 232.521C97.7543 240.881 97.7543 249.428 99.2059 257.787C137.869 241.653 173.939 219.9 206.25 193.231Z" fill="#FFF48C"/>
<path d="M213.16 163.737C212.788 165.424 211.77 166.898 210.324 167.843C208.878 168.788 207.12 169.128 205.426 168.79C204.586 168.62 203.79 168.283 203.083 167.798C202.377 167.314 201.775 166.693 201.313 165.971C200.851 165.25 200.539 164.443 200.396 163.599C200.252 162.754 200.279 161.89 200.476 161.056C200.634 160.221 200.96 159.426 201.434 158.72C201.908 158.015 202.52 157.412 203.233 156.95C203.946 156.487 204.746 156.174 205.584 156.029C206.421 155.884 207.28 155.91 208.107 156.106C209.786 156.454 211.259 157.451 212.205 158.881C213.152 160.31 213.495 162.056 213.16 163.737Z" fill="#FFE500"/>
<path d="M204.192 238.09C204.016 238.93 203.676 239.727 203.192 240.435C202.708 241.143 202.09 241.749 201.372 242.219C200.653 242.688 199.85 243.011 199.007 243.17C198.164 243.328 197.297 243.319 196.458 243.143C195.618 242.967 194.821 242.628 194.113 242.144C193.405 241.66 192.799 241.041 192.329 240.323C191.86 239.605 191.537 238.801 191.378 237.958C191.22 237.115 191.229 236.249 191.405 235.409C191.76 233.713 192.775 232.228 194.225 231.281C195.676 230.333 197.443 230 199.139 230.356C200.835 230.711 202.32 231.726 203.267 233.177C204.215 234.627 204.548 236.395 204.192 238.09Z" fill="#FFF48C"/>
<path d="M139.528 277.587C139.158 279.269 138.136 280.735 136.685 281.663C135.235 282.591 133.476 282.905 131.794 282.537C130.965 282.366 130.179 282.032 129.481 281.554C128.782 281.077 128.185 280.465 127.725 279.755C127.265 279.046 126.95 278.251 126.798 277.419C126.647 276.587 126.663 275.732 126.844 274.906C127.192 273.227 128.189 271.754 129.619 270.807C131.048 269.861 132.794 269.518 134.475 269.853C136.162 270.224 137.636 271.242 138.581 272.688C139.525 274.134 139.866 275.893 139.528 277.587Z" fill="#FFF48C"/>
<path d="M165.932 246.65C165.762 247.489 165.424 248.286 164.94 248.992C164.456 249.699 163.834 250.3 163.113 250.762C162.391 251.224 161.585 251.536 160.74 251.68C159.896 251.824 159.031 251.796 158.198 251.6C157.362 251.441 156.568 251.115 155.862 250.642C155.156 250.168 154.554 249.556 154.091 248.842C153.629 248.129 153.315 247.329 153.17 246.492C153.025 245.654 153.052 244.796 153.248 243.968C153.596 242.29 154.593 240.817 156.022 239.87C157.452 238.923 159.198 238.58 160.879 238.915C162.566 239.287 164.04 240.305 164.984 241.751C165.929 243.197 166.269 244.956 165.932 246.65Z" fill="#FFF48C"/>
<path d="M180.783 286.25C180.413 287.932 179.391 289.398 177.941 290.326C176.49 291.254 174.731 291.568 173.049 291.2C171.481 290.853 170.101 289.928 169.184 288.609C168.267 287.291 167.88 285.676 168.099 284.085C168.447 282.406 169.444 280.933 170.874 279.986C172.303 279.04 174.049 278.697 175.73 279.032C177.314 279.401 178.705 280.342 179.638 281.674C180.57 283.006 180.978 284.636 180.783 286.25Z" fill="#FFF48C"/>
<path d="M146.956 163.119C146.608 164.797 145.611 166.27 144.181 167.217C142.752 168.164 141.006 168.507 139.325 168.172C137.629 167.816 136.144 166.802 135.197 165.351C134.249 163.901 133.916 162.133 134.272 160.437C134.627 158.742 135.642 157.257 137.093 156.309C138.543 155.361 140.311 155.029 142.006 155.384C143.674 155.778 145.123 156.806 146.047 158.249C146.971 159.693 147.297 161.439 146.956 163.119Z" fill="#FFE500"/>
<path d="M134.991 220.25C134.866 221.131 134.561 221.977 134.095 222.735C133.63 223.493 133.013 224.148 132.284 224.658C131.555 225.168 130.729 225.523 129.857 225.701C128.985 225.878 128.086 225.875 127.216 225.691C126.345 225.507 125.522 225.146 124.796 224.631C124.071 224.116 123.459 223.457 122.999 222.695C122.539 221.934 122.24 221.086 122.121 220.204C122.002 219.322 122.065 218.425 122.307 217.569C122.655 215.89 123.652 214.417 125.082 213.471C126.511 212.524 128.257 212.181 129.938 212.516C131.625 212.887 133.099 213.906 134.044 215.352C134.989 216.798 135.329 218.556 134.991 220.25Z" fill="#FFFACF"/>
<path d="M185.627 138.06C185.457 138.899 185.119 139.696 184.635 140.402C184.151 141.109 183.53 141.711 182.808 142.172C182.087 142.634 181.28 142.946 180.436 143.09C179.591 143.234 178.727 143.207 177.893 143.01C177.058 142.852 176.263 142.526 175.557 142.052C174.852 141.578 174.249 140.966 173.786 140.252C173.324 139.539 173.011 138.74 172.866 137.902C172.721 137.064 172.747 136.206 172.943 135.379C173.291 133.7 174.288 132.227 175.718 131.28C177.147 130.334 178.893 129.99 180.574 130.325C182.261 130.697 183.735 131.715 184.68 133.161C185.624 134.607 185.965 136.366 185.627 138.06Z" fill="#FFE500"/>
<path d="M181.506 77.8339C180.994 80.3443 179.751 82.6471 177.933 84.4528C176.115 86.2586 173.805 87.4867 171.291 87.9828C168.777 88.4789 166.173 88.2208 163.806 87.241C161.438 86.2612 159.414 84.6034 157.986 82.476C156.558 80.3486 155.791 77.8466 155.781 75.2845C155.772 72.7224 156.519 70.2146 157.931 68.0764C159.342 65.9382 161.355 64.265 163.714 63.2672C166.074 62.2693 168.676 61.9914 171.194 62.4683C172.885 62.7888 174.497 63.4423 175.934 64.3909C177.37 65.3395 178.605 66.5643 179.564 67.9939C180.524 69.4236 181.189 71.0298 181.523 72.719C181.856 74.4082 181.851 76.1469 181.506 77.8339Z" fill="#E5F8FF"/>
<path d="M152.113 91.2409C151.765 92.9197 150.768 94.3929 149.338 95.3394C147.909 96.2859 146.163 96.6291 144.482 96.2941C143.603 96.1134 142.77 95.7554 142.034 95.242C141.299 94.7286 140.675 94.0706 140.202 93.3081C139.729 92.5456 139.417 91.6947 139.284 90.8073C139.151 89.92 139.2 89.0148 139.429 88.1472C139.799 86.4656 140.821 84.9998 142.272 84.0716C143.722 83.1435 145.481 82.829 147.163 83.1972C148.036 83.3634 148.865 83.7098 149.597 84.2143C150.328 84.7188 150.947 85.3703 151.413 86.1272C151.878 86.884 152.181 87.7297 152.302 88.6102C152.423 89.4907 152.358 90.3867 152.113 91.2409Z" fill="#E5F8FF"/>
<path d="M371.252 421.654C371.252 421.654 360.011 357.097 341.758 321.416L373.005 314.197C372.18 354.21 390.02 417.322 390.02 417.322C390.391 418.919 391.352 420.316 392.71 421.234C393.981 422.093 371.986 426.059 370.494 426.358C370.493 426.36 370.491 426.363 370.49 426.365C370.386 426.381 370.392 426.378 370.494 426.358C371.333 424.942 371.604 423.261 371.252 421.654Z" fill="#00B8F0" stroke="#45413C" stroke-width="7" stroke-linecap="round" stroke-linejoin="round"/>
<path d="M415.081 234.688C424.362 274.803 400.644 321.21 360.528 330.388C320.412 339.566 278.441 308.216 269.675 267.997L232.344 46.8971L352.484 19.4658L415.081 234.688Z" fill="#00B8F0"/>
<path d="M383.834 127.231L352.897 19.4658L232.344 46.8971L269.675 267.894C271.954 277.35 275.9 286.325 281.328 294.397C328.596 247.851 363.784 190.467 383.834 127.231Z" fill="#4ACFFF"/>
<path d="M415.081 234.688C424.362 274.803 400.644 321.21 360.528 330.388C320.412 339.566 278.441 308.216 269.675 267.997L232.344 46.8971L352.484 19.4658L415.081 234.688Z" stroke="#45413C" stroke-width="7" stroke-linecap="round" stroke-linejoin="round"/>
<path d="M352.481 19.4657C354.028 26.3751 328.453 38.2344 295.247 45.8657C262.04 53.4969 233.887 53.9094 232.34 47.0001C230.793 40.0907 256.265 28.1282 289.472 20.4969C322.678 12.8657 350.625 12.4532 352.481 19.4657Z" fill="#00B8F0" stroke="#45413C" stroke-width="7" stroke-linecap="round" stroke-linejoin="round"/>
<path d="M284.109 214.784C285.225 209.472 287.87 204.601 291.717 200.772C295.565 196.943 300.448 194.322 305.766 193.231C312.351 191.759 319.174 191.696 325.785 193.047C332.397 194.397 338.648 197.131 344.128 201.069L284.109 214.784Z" fill="#FFE500"/>
<path d="M397.858 232.521C405.077 263.459 388.267 307.906 356.608 315.021C324.948 322.137 290.917 289.962 283.698 258.509L275.242 206.946C275.242 206.946 283.802 214.99 306.18 209.937C328.558 204.884 330.311 184.465 352.483 179C374.655 173.534 383.42 181.99 383.42 181.99L397.858 232.521Z" fill="#FFE500"/>
<path d="M364.652 177.557C360.555 177.683 356.48 178.201 352.483 179.104C330.311 184.26 328.352 204.679 306.18 210.041C284.008 215.404 275.242 207.05 275.242 207.05L283.698 258.613C285.799 266.875 289.286 274.72 294.011 281.816C322.557 250.726 346.36 215.595 364.652 177.557Z" fill="#FFF48C"/>
<path d="M358.567 147.753C358.766 148.586 358.798 149.45 358.662 150.295C358.526 151.141 358.224 151.951 357.773 152.68C357.323 153.408 356.733 154.04 356.037 154.54C355.342 155.039 354.554 155.396 353.72 155.59C352.893 155.788 352.036 155.819 351.197 155.682C350.358 155.545 349.556 155.242 348.835 154.79C348.115 154.339 347.492 153.749 347.003 153.054C346.514 152.359 346.168 151.573 345.986 150.743C345.691 149.886 345.579 148.976 345.657 148.073C345.735 147.17 346.001 146.293 346.438 145.499C346.875 144.705 347.474 144.011 348.195 143.462C348.917 142.913 349.745 142.521 350.627 142.311C351.509 142.101 352.425 142.078 353.317 142.244C354.208 142.41 355.055 142.76 355.803 143.273C356.551 143.785 357.183 144.449 357.659 145.22C358.135 145.992 358.444 146.854 358.567 147.753Z" fill="#FFE500"/>
<path d="M381.568 219.116C381.951 220.798 381.65 222.563 380.732 224.023C379.813 225.483 378.352 226.519 376.67 226.902C375.837 227.091 374.975 227.115 374.133 226.971C373.291 226.828 372.485 226.52 371.762 226.065C370.302 225.146 369.267 223.685 368.884 222.003C368.54 220.311 368.864 218.551 369.786 217.091C370.708 215.631 372.158 214.583 373.834 214.166C375.513 213.825 377.26 214.151 378.703 215.075C380.146 215.999 381.174 217.448 381.568 219.116Z" fill="#FFF48C"/>
<path d="M339.389 282.022C339.665 283.277 339.563 284.586 339.095 285.784C338.627 286.981 337.815 288.012 336.761 288.747C335.706 289.483 334.458 289.889 333.173 289.914C331.888 289.94 330.624 289.584 329.542 288.891C328.459 288.198 327.606 287.2 327.091 286.022C326.576 284.845 326.422 283.541 326.648 282.275C326.874 281.01 327.471 279.841 328.362 278.914C329.253 277.988 330.399 277.347 331.654 277.072C333.336 276.704 335.096 277.019 336.546 277.947C337.996 278.875 339.019 280.341 339.389 282.022Z" fill="#FFF48C"/>
<path d="M350.628 242.834C350.827 243.667 350.86 244.531 350.724 245.377C350.587 246.222 350.286 247.033 349.835 247.761C349.385 248.489 348.795 249.122 348.099 249.621C347.403 250.121 346.616 250.478 345.782 250.672C344.089 251.015 342.329 250.692 340.869 249.77C339.409 248.848 338.361 247.398 337.944 245.722C337.604 244.042 337.93 242.296 338.854 240.853C339.777 239.409 341.226 238.382 342.894 237.987C343.721 237.789 344.578 237.758 345.417 237.896C346.256 238.033 347.058 238.336 347.779 238.787C348.499 239.239 349.122 239.829 349.611 240.524C350.1 241.219 350.446 242.004 350.628 242.834Z" fill="#FFF48C"/>
<path d="M380.535 272.534C380.734 273.367 380.766 274.231 380.63 275.077C380.494 275.923 380.192 276.733 379.741 277.461C379.291 278.19 378.701 278.822 378.005 279.321C377.31 279.821 376.522 280.178 375.688 280.372C373.995 280.715 372.236 280.392 370.776 279.47C369.315 278.548 368.268 277.098 367.85 275.422C367.51 273.742 367.836 271.996 368.76 270.553C369.684 269.109 371.133 268.082 372.8 267.687C374.468 267.316 376.215 267.617 377.662 268.524C379.11 269.431 380.142 270.872 380.535 272.534Z" fill="#FFF48C"/>
<path d="M298.24 174.978C298.438 175.805 298.469 176.662 298.332 177.501C298.195 178.34 297.891 179.142 297.44 179.863C296.989 180.583 296.398 181.206 295.704 181.695C295.009 182.184 294.223 182.53 293.393 182.712C292.56 182.911 291.696 182.944 290.851 182.808C290.005 182.671 289.195 182.369 288.466 181.919C287.738 181.469 287.106 180.879 286.606 180.183C286.107 179.487 285.75 178.7 285.556 177.866C285.212 176.173 285.535 174.413 286.458 172.953C287.38 171.493 288.83 170.445 290.506 170.028C292.185 169.688 293.931 170.014 295.375 170.938C296.818 171.861 297.846 173.31 298.24 174.978Z" fill="#FFE500"/>
<path d="M311.336 231.8C311.679 233.493 311.356 235.252 310.434 236.713C309.512 238.173 308.062 239.221 306.386 239.638C304.704 240.021 302.938 239.72 301.478 238.801C300.018 237.882 298.983 236.421 298.6 234.739C298.217 233.057 298.518 231.292 299.436 229.832C300.355 228.372 301.816 227.336 303.498 226.953C305.179 226.58 306.939 226.877 308.403 227.783C309.867 228.688 310.92 230.13 311.336 231.8Z" fill="#FFFACF"/>
<path d="M322.577 136.1C322.874 137.354 322.791 138.668 322.338 139.874C321.886 141.081 321.085 142.126 320.038 142.876C318.99 143.627 317.743 144.049 316.455 144.088C315.167 144.128 313.897 143.784 312.805 143.1C311.713 142.416 310.849 141.422 310.323 140.246C309.797 139.069 309.633 137.763 309.852 136.493C310.07 135.223 310.662 134.047 311.55 133.114C312.439 132.181 313.585 131.533 314.843 131.253C315.669 131.055 316.527 131.024 317.366 131.161C318.204 131.299 319.007 131.602 319.727 132.053C320.448 132.504 321.07 133.095 321.56 133.79C322.049 134.484 322.395 135.27 322.577 136.1Z" fill="#FFE500"/>
<path d="M293.806 82.7844C294.404 85.2965 294.24 87.9299 293.335 90.3486C292.431 92.7672 290.826 94.8614 288.725 96.3638C286.625 97.8661 284.124 98.7086 281.543 98.7836C278.962 98.8586 276.417 98.1628 274.233 96.7849C272.049 95.4071 270.325 93.4096 269.281 91.0476C268.237 88.6856 267.921 86.0661 268.372 83.5235C268.824 80.9809 270.022 78.6305 271.816 76.7723C273.609 74.9141 275.915 73.6323 278.44 73.0907C281.762 72.3506 285.242 72.9545 288.121 74.7705C290.999 76.5866 293.043 79.4674 293.806 82.7844Z" fill="#E5F8FF"/>
<path d="M272.868 107.534C273.211 109.227 272.888 110.987 271.966 112.447C271.044 113.907 269.594 114.955 267.918 115.372C266.238 115.712 264.492 115.386 263.049 114.463C261.605 113.539 260.578 112.09 260.184 110.422C259.986 109.595 259.955 108.738 260.092 107.899C260.229 107.06 260.532 106.258 260.984 105.537C261.435 104.817 262.025 104.194 262.72 103.705C263.415 103.216 264.2 102.87 265.031 102.688C265.864 102.489 266.728 102.456 267.573 102.592C268.419 102.729 269.229 103.031 269.957 103.481C270.686 103.931 271.318 104.521 271.817 105.217C272.317 105.913 272.674 106.7 272.868 107.534Z" fill="#E5F8FF"/>
</svg>
