<svg width="496" height="496" viewBox="0 0 496 496" fill="none" xmlns="http://www.w3.org/2000/svg">
<path d="M227.19 113.56V166.053H26V113.56C26 86.9218 36.582 61.3745 55.4182 42.5383C74.2543 23.7022 99.8017 13.1201 126.44 13.1201C153.078 13.1201 178.626 23.7022 197.462 42.5383C216.298 61.3745 226.88 86.9218 226.88 113.56H227.19Z" fill="#A86C4D"/>
<path d="M127.418 8.00048C114.202 7.95969 101.108 10.5275 88.886 15.5569C76.6643 20.5862 65.5553 27.9781 56.1957 37.3088C46.8361 46.6396 39.41 57.7258 34.3431 69.932C29.2761 82.1382 26.6679 95.2244 26.668 108.44V138.304C26.668 111.665 37.25 86.1181 56.0862 67.282C74.9223 48.4459 100.47 37.8638 127.108 37.8638C153.746 37.8638 179.294 48.4459 198.13 67.282C216.966 86.1181 227.548 111.665 227.548 138.304V108.44C227.548 81.8557 217.009 56.3553 198.239 37.528C179.47 18.7008 154.003 8.08253 127.418 8.00048Z" fill="#DE926A"/>
<path d="M226.19 107.44V159.933H25V107.44C25 80.8016 35.582 55.2544 54.4182 36.4182C73.2543 17.582 98.8017 7 125.44 7C152.078 7 177.626 17.582 196.462 36.4182C215.298 55.2544 225.88 80.8016 225.88 107.44H226.19Z" stroke="#45413C" stroke-width="7" stroke-linecap="round" stroke-linejoin="round"/>
<path d="M258.333 158.72C259.206 154.291 261.61 150.31 265.125 147.476C268.639 144.642 273.039 143.135 277.553 143.22C281.883 143.22 286.036 141.5 289.097 138.438C292.159 135.377 293.879 131.224 293.879 126.894V101.474C293.833 97.1859 295.221 93.0056 297.824 89.5977C300.426 86.1899 304.094 83.7503 308.243 82.667C327.686 90.4266 348.485 94.2209 369.416 93.827C390.347 94.2209 411.146 90.4266 430.589 82.667C434.668 83.7563 438.274 86.1579 440.851 89.5009C443.428 92.844 444.834 96.9425 444.849 101.164V126.584C444.849 130.914 446.57 135.067 449.631 138.128C452.693 141.19 456.846 142.91 461.176 142.91C465.69 142.825 470.09 144.332 473.604 147.166C477.119 150 479.523 153.981 480.396 158.41C480.848 161.068 480.713 163.793 480.002 166.393C479.29 168.994 478.018 171.407 476.276 173.464C474.534 175.522 472.363 177.173 469.915 178.303C467.467 179.434 464.802 180.015 462.106 180.007H460.969C457.134 201.499 445.86 220.956 429.121 234.972C412.383 248.987 391.247 256.667 369.416 256.667C347.585 256.667 326.449 248.987 309.711 234.972C292.973 220.956 281.698 201.499 277.863 180.007H276.726C274.052 180.023 271.406 179.458 268.972 178.353C266.537 177.248 264.37 175.627 262.622 173.604C260.874 171.581 259.585 169.202 258.844 166.633C258.104 164.063 257.929 161.364 258.333 158.72Z" fill="#FFCEBF" stroke="#45413C" stroke-width="7" stroke-linecap="round" stroke-linejoin="round"/>
<path d="M126.585 263.397C142.529 263.397 158.318 266.538 173.049 272.64C187.78 278.742 201.165 287.685 212.439 298.96C223.714 310.234 232.657 323.619 238.759 338.35C244.861 353.081 248.001 368.869 248.001 384.814V490.834H5.16797V384.814C5.16797 368.869 8.3085 353.081 14.4103 338.35C20.512 323.619 29.4555 310.234 40.7301 298.96C63.5001 276.19 94.3829 263.397 126.585 263.397Z" fill="#00B8F0"/>
<path d="M126.585 263.397C94.3829 263.397 63.5001 276.19 40.7301 298.96C17.96 321.73 5.16797 352.612 5.16797 384.814V421.911C5.16797 389.709 17.96 358.826 40.7301 336.056C63.5001 313.286 94.3829 300.494 126.585 300.494C158.786 300.494 189.669 313.286 212.439 336.056C235.209 358.826 248.001 389.709 248.001 421.911V384.814C248.001 368.869 244.861 353.081 238.759 338.35C232.657 323.619 223.714 310.234 212.439 298.96C201.165 287.685 187.78 278.742 173.049 272.64C158.318 266.538 142.529 263.397 126.585 263.397Z" fill="#009FD9"/>
<path d="M126.585 263.397C142.529 263.397 158.318 266.538 173.049 272.64C187.78 278.742 201.165 287.685 212.439 298.96C223.714 310.234 232.657 323.619 238.759 338.35C244.861 353.081 248.001 368.869 248.001 384.814V490.834H5.16797V384.814C5.16797 368.869 8.3085 353.081 14.4103 338.35C20.512 323.619 29.4555 310.234 40.7301 298.96C63.5001 276.19 94.3829 263.397 126.585 263.397V263.397Z" stroke="#45413C" stroke-width="7" stroke-linecap="round" stroke-linejoin="round"/>
<path d="M100.543 221.96H152.52V303.077H100.543V221.96Z" fill="#FFCEBF"/>
<path d="M100.543 221.96H152.52V282.1H100.543V221.96Z" fill="#FFB59E"/>
<path d="M100.543 221.96H152.52V303.077H100.543V221.96Z" stroke="#45413C" stroke-width="7" stroke-linecap="round" stroke-linejoin="round"/>
<path d="M237.668 158.72C236.795 154.291 234.39 150.31 230.876 147.476C227.362 144.642 222.962 143.135 218.448 143.22C214.118 143.22 209.965 141.5 206.903 138.438C203.841 135.377 202.121 131.224 202.121 126.894V101.474C202.168 97.1859 200.78 93.0056 198.177 89.5977C195.574 86.1899 191.907 83.7503 187.758 82.667C168.314 90.4266 147.515 94.2209 126.584 93.827C105.653 94.2209 84.8546 90.4266 65.411 82.667C61.3774 83.8652 57.8485 86.3539 55.3658 89.7512C52.8832 93.1485 51.584 97.2667 51.6677 101.474V126.894C51.6677 129.038 51.2454 131.161 50.4249 133.142C49.6044 135.122 48.4018 136.922 46.8857 138.438C45.3696 139.954 43.5698 141.157 41.589 141.978C39.6081 142.798 37.4851 143.22 35.341 143.22C30.8271 143.135 26.4272 144.642 22.9129 147.476C19.3985 150.31 16.994 154.291 16.121 158.72C15.6692 161.378 15.8038 164.103 16.5155 166.703C17.2272 169.304 18.4987 171.717 20.2411 173.774C21.9834 175.832 24.1545 177.483 26.6022 178.613C29.0498 179.744 31.715 180.325 34.411 180.317H35.5477C39.3834 201.809 50.6576 221.266 67.3959 235.282C84.1342 249.297 105.27 256.977 127.101 256.977C148.932 256.977 170.068 249.297 186.806 235.282C203.544 221.266 214.819 201.809 218.654 180.317H219.791C222.452 180.266 225.071 179.64 227.468 178.484C229.865 177.328 231.985 175.668 233.682 173.618C235.379 171.568 236.614 169.175 237.301 166.604C237.989 164.033 238.114 161.344 237.668 158.72Z" fill="#FFCEBF" stroke="#45413C" stroke-width="7" stroke-linecap="round" stroke-linejoin="round"/>
<path d="M226.754 326.978V363.002H88.6875V326.978C88.6875 308.697 95.9494 291.165 108.876 278.238C121.802 265.312 139.334 258.05 157.614 258.05C175.895 258.05 193.426 265.312 206.353 278.238C219.279 291.165 226.541 308.697 226.541 326.978H226.754Z" fill="#A86C4D"/>
<path d="M158.288 254.536C149.218 254.508 140.233 256.271 131.845 259.722C123.458 263.174 115.835 268.246 109.412 274.65C102.989 281.053 97.8926 288.661 94.4154 297.038C90.9383 305.414 89.1484 314.395 89.1484 323.464V343.958C89.1484 325.678 96.4103 308.145 109.337 295.219C122.263 282.292 139.795 275.03 158.075 275.03C176.356 275.03 193.887 282.292 206.814 295.219C219.74 308.145 227.002 325.678 227.002 343.958V323.464C227.002 305.22 219.769 287.72 206.889 274.8C194.009 261.88 176.531 254.593 158.288 254.536Z" fill="#DE926A"/>
<path d="M226.066 322.778V358.802H88V322.778C88 304.497 95.2619 286.965 108.188 274.038C121.114 261.112 138.646 253.85 156.927 253.85C175.207 253.85 192.739 261.112 205.665 274.038C218.591 286.965 225.853 304.497 225.853 322.778H226.066Z" stroke="#45413C" stroke-width="7" stroke-linecap="round" stroke-linejoin="round"/>
<path d="M70.9922 157.997C71.0194 160.089 71.8696 162.087 73.3589 163.556C74.8481 165.026 76.8564 165.85 78.9489 165.85C81.0317 165.85 83.0292 165.023 84.502 163.55C85.9748 162.077 86.8022 160.08 86.8022 157.997C86.8022 155.914 85.9748 153.917 84.502 152.444C83.0292 150.971 81.0317 150.144 78.9489 150.144C76.8564 150.143 74.8481 150.967 73.3589 152.437C71.8696 153.907 71.0194 155.905 70.9922 157.997Z" fill="#45413C" stroke="#45413C" stroke-width="7" stroke-linecap="round" stroke-linejoin="round"/>
<path d="M182.177 157.997C182.15 160.089 181.3 162.087 179.811 163.556C178.321 165.026 176.313 165.85 174.221 165.85C172.138 165.85 170.14 165.023 168.667 163.55C167.195 162.077 166.367 160.08 166.367 157.997C166.367 155.914 167.195 153.917 168.667 152.444C170.14 150.971 172.138 150.144 174.221 150.144C176.313 150.143 178.321 150.967 179.811 152.437C181.3 153.907 182.15 155.905 182.177 157.997Z" fill="#45413C" stroke="#45413C" stroke-width="7" stroke-linecap="round" stroke-linejoin="round"/>
<path d="M97.5461 205.943C96.8935 205.964 96.2525 206.122 95.665 206.407C95.0775 206.692 94.5565 207.097 94.1361 207.597C93.7098 208.087 93.3964 208.665 93.2178 209.29C93.0393 209.915 93 210.572 93.1027 211.213C94.4909 219.084 98.6078 226.215 104.731 231.352C110.853 236.49 118.59 239.306 126.583 239.306C134.575 239.306 142.312 236.49 148.435 231.352C154.558 226.215 158.675 219.084 160.063 211.213C160.165 210.572 160.126 209.915 159.948 209.29C159.769 208.665 159.456 208.087 159.029 207.597C158.609 207.097 158.088 206.692 157.5 206.407C156.913 206.122 156.272 205.964 155.619 205.943H97.5461Z" fill="#FF6242"/>
<path d="M126.583 239.527C135.454 239.537 143.979 236.09 150.35 229.917C143.972 223.755 135.451 220.311 126.583 220.311C117.715 220.311 109.194 223.755 102.816 229.917C109.187 236.09 117.712 239.537 126.583 239.527Z" fill="#FFA694"/>
<path d="M97.5461 205.943C96.8935 205.964 96.2525 206.122 95.665 206.407C95.0775 206.692 94.5565 207.097 94.1361 207.597C93.7098 208.087 93.3964 208.665 93.2178 209.29C93.0393 209.915 93 210.572 93.1027 211.213C94.4909 219.084 98.6078 226.215 104.731 231.352C110.853 236.49 118.59 239.306 126.583 239.306C134.575 239.306 142.312 236.49 148.435 231.352C154.558 226.215 158.675 219.084 160.063 211.213C160.165 210.572 160.126 209.915 159.948 209.29C159.769 208.665 159.456 208.087 159.029 207.597C158.609 207.097 158.088 206.692 157.5 206.407C156.913 206.122 156.272 205.964 155.619 205.943H97.5461Z" stroke="#45413C" stroke-width="7" stroke-linecap="round" stroke-linejoin="round"/>
<path d="M55.5938 490.834V379.544" stroke="#45413C" stroke-width="7" stroke-linecap="round" stroke-linejoin="round"/>
<path d="M55.5938 191.58C55.5938 193.197 56.6715 194.748 58.59 195.891C60.5085 197.034 63.1106 197.677 65.8237 197.677C68.5369 197.677 71.139 197.034 73.0575 195.891C74.976 194.748 76.0538 193.197 76.0538 191.58C76.0538 189.963 74.976 188.412 73.0575 187.269C71.139 186.126 68.5369 185.483 65.8237 185.483C63.1106 185.483 60.5085 186.126 58.59 187.269C56.6715 188.412 55.5938 189.963 55.5938 191.58Z" fill="#FFB59E"/>
<path d="M177.113 191.58C177.113 193.197 178.191 194.748 180.11 195.891C182.028 197.034 184.63 197.677 187.343 197.677C190.056 197.677 192.658 197.034 194.577 195.891C196.495 194.748 197.573 193.197 197.573 191.58C197.573 189.963 196.495 188.412 194.577 187.269C192.658 186.126 190.056 185.483 187.343 185.483C184.63 185.483 182.028 186.126 180.11 187.269C178.191 188.412 177.113 189.963 177.113 191.58Z" fill="#FFB59E"/>
<path d="M469.19 120.44V172.933H268V120.44C268 93.8016 278.582 68.2543 297.418 49.4182C316.254 30.582 341.802 20 368.44 20C395.078 20 420.626 30.582 439.462 49.4182C458.298 68.2543 468.88 93.8016 468.88 120.44H469.19Z" fill="#A86C4D"/>
<path d="M369.418 14.8804C356.202 14.8396 343.108 17.4074 330.886 22.4367C318.664 27.4661 307.555 34.8579 298.196 44.1887C288.836 53.5195 281.41 64.6057 276.343 76.8119C271.276 89.0181 268.668 102.104 268.668 115.32V145.184C268.668 118.545 279.25 92.998 298.086 74.1619C316.922 55.3257 342.47 44.7437 369.108 44.7437C395.746 44.7437 421.294 55.3257 440.13 74.1619C458.966 92.998 469.548 118.545 469.548 145.184V115.32C469.548 88.7356 459.009 63.2352 440.239 44.4079C421.47 25.5807 396.003 14.9624 369.418 14.8804Z" fill="#DE926A"/>
<path d="M469.858 115.32V167.813H268.668V115.32C268.668 88.6815 279.25 63.1342 298.086 44.2981C316.922 25.4619 342.47 14.8799 369.108 14.8799C395.746 14.8799 421.294 25.4619 440.13 44.2981C458.966 63.1342 469.548 88.6815 469.548 115.32H469.858Z" stroke="#45413C" stroke-width="7" stroke-linecap="round" stroke-linejoin="round"/>
<path d="M490.836 490.834L248.003 490.834V384.814C248.003 368.869 251.143 353.081 257.245 338.35C263.347 323.619 272.29 310.234 283.565 298.959C294.839 287.685 308.224 278.741 322.955 272.64C337.686 266.538 353.475 263.397 369.419 263.397C401.621 263.397 432.504 276.189 455.274 298.959C478.044 321.729 490.836 352.612 490.836 384.814V490.834Z" fill="#00DFEB"/>
<path d="M369.417 263.397C385.361 263.397 401.15 266.538 415.881 272.64C430.612 278.742 443.997 287.685 455.271 298.96C466.546 310.234 475.489 323.619 481.591 338.35C487.693 353.081 490.833 368.869 490.833 384.814V421.911C490.833 389.709 478.041 358.826 455.271 336.056C432.501 313.286 401.618 300.494 369.417 300.494C337.215 300.494 306.332 313.286 283.562 336.056C260.792 358.826 248 389.709 248 421.911V384.814C248 368.869 251.141 353.081 257.242 338.35C263.344 323.619 272.288 310.234 283.562 298.96C306.332 276.19 337.215 263.397 369.417 263.397Z" fill="#00C9D4"/>
<path d="M490.836 490.834L248.003 490.834V384.814C248.003 368.869 251.143 353.081 257.245 338.35C263.347 323.619 272.29 310.234 283.565 298.959C294.839 287.685 308.224 278.741 322.955 272.64C337.686 266.538 353.475 263.397 369.419 263.397V263.397C401.621 263.397 432.504 276.189 455.274 298.959C478.044 321.729 490.836 352.612 490.836 384.814V490.834Z" stroke="#45413C" stroke-width="7" stroke-linecap="round" stroke-linejoin="round"/>
<path d="M395.457 303.181H343.48V222.064H395.457V303.181Z" fill="#FFCEBF"/>
<path d="M395.457 282.101H343.48V221.961H395.457V282.101Z" fill="#FFB59E"/>
<path d="M395.457 303.181H343.48V222.064H395.457V303.181Z" stroke="#45413C" stroke-width="7" stroke-linecap="round" stroke-linejoin="round"/>
<path d="M258.333 158.72C259.206 154.291 261.61 150.31 265.125 147.476C268.639 144.642 273.039 143.135 277.553 143.22C281.883 143.22 286.036 141.5 289.097 138.438C292.159 135.377 293.879 131.224 293.879 126.894V101.474C293.833 97.1859 295.221 93.0056 297.824 89.5977C300.426 86.1899 304.094 83.7503 308.243 82.667C327.686 90.4266 348.485 94.2209 369.416 93.827C390.347 94.2209 411.146 90.4266 430.589 82.667C434.668 83.7563 438.274 86.1579 440.851 89.5009C443.428 92.844 444.834 96.9425 444.849 101.164V126.584C444.849 130.914 446.57 135.067 449.631 138.128C452.693 141.19 456.846 142.91 461.176 142.91C465.69 142.825 470.09 144.332 473.604 147.166C477.119 150 479.523 153.981 480.396 158.41C480.848 161.068 480.713 163.793 480.002 166.393C479.29 168.994 478.018 171.407 476.276 173.464C474.534 175.522 472.363 177.173 469.915 178.303C467.467 179.434 464.802 180.015 462.106 180.007H460.969C457.134 201.499 445.86 220.956 429.121 234.972C412.383 248.987 391.247 256.667 369.416 256.667C347.585 256.667 326.449 248.987 309.711 234.972C292.973 220.956 281.698 201.499 277.863 180.007H276.726C274.052 180.023 271.406 179.458 268.972 178.353C266.537 177.248 264.37 175.627 262.622 173.604C260.874 171.581 259.585 169.202 258.844 166.633C258.104 164.063 257.929 161.364 258.333 158.72Z" fill="#FFCEBF" stroke="#45413C" stroke-width="7" stroke-linecap="round" stroke-linejoin="round"/>
<path d="M425.013 157.997C424.986 160.089 424.136 162.087 422.646 163.556C421.157 165.026 419.149 165.85 417.056 165.85C414.974 165.85 412.976 165.023 411.503 163.55C410.031 162.077 409.203 160.08 409.203 157.997C409.203 155.914 410.031 153.917 411.503 152.444C412.976 150.971 414.974 150.144 417.056 150.144C419.149 150.143 421.157 150.967 422.646 152.437C424.136 153.907 424.986 155.905 425.013 157.997Z" fill="#45413C" stroke="#45413C" stroke-width="7" stroke-linecap="round" stroke-linejoin="round"/>
<path d="M313.824 157.997C313.851 160.089 314.702 162.087 316.191 163.556C317.68 165.026 319.688 165.85 321.781 165.85C323.864 165.85 325.861 165.023 327.334 163.55C328.807 162.077 329.634 160.08 329.634 157.997C329.634 155.914 328.807 153.917 327.334 152.444C325.861 150.971 323.864 150.144 321.781 150.144C319.688 150.143 317.68 150.967 316.191 152.437C314.702 153.907 313.851 155.905 313.824 157.997Z" fill="#45413C" stroke="#45413C" stroke-width="7" stroke-linecap="round" stroke-linejoin="round"/>
<path d="M398.455 205.943C399.108 205.964 399.749 206.122 400.336 206.407C400.924 206.692 401.445 207.097 401.865 207.597C402.292 208.087 402.605 208.665 402.784 209.29C402.962 209.915 403.001 210.572 402.899 211.213C401.511 219.084 397.394 226.215 391.271 231.352C385.148 236.49 377.411 239.306 369.419 239.306C361.426 239.306 353.689 236.49 347.566 231.352C341.444 226.215 337.327 219.084 335.939 211.213C335.836 210.572 335.875 209.915 336.054 209.29C336.232 208.665 336.546 208.087 336.972 207.597C337.392 207.097 337.913 206.692 338.501 206.407C339.088 206.122 339.729 205.964 340.382 205.943H398.455Z" fill="#FF6242"/>
<path d="M369.419 239.527C360.548 239.537 352.023 236.09 345.652 229.917C352.03 223.755 360.551 220.311 369.419 220.311C378.287 220.311 386.808 223.755 393.186 229.917C386.815 236.09 378.29 239.537 369.419 239.527Z" fill="#FFA694"/>
<path d="M398.455 205.943C399.108 205.964 399.749 206.122 400.336 206.407C400.924 206.692 401.445 207.097 401.865 207.597C402.292 208.087 402.605 208.665 402.784 209.29C402.962 209.915 403.001 210.572 402.899 211.213C401.511 219.084 397.394 226.215 391.271 231.352C385.148 236.49 377.411 239.306 369.419 239.306C361.426 239.306 353.689 236.49 347.566 231.352C341.444 226.215 337.327 219.084 335.939 211.213C335.836 210.572 335.875 209.915 336.054 209.29C336.232 208.665 336.546 208.087 336.972 207.597C337.392 207.097 337.913 206.692 338.501 206.407C339.088 206.122 339.729 205.964 340.382 205.943H398.455Z" stroke="#45413C" stroke-width="7" stroke-linecap="round" stroke-linejoin="round"/>
<path d="M440.406 490.834V379.544" stroke="#45413C" stroke-width="7" stroke-linecap="round" stroke-linejoin="round"/>
<path d="M419.949 191.58C419.949 193.197 421.027 194.748 422.946 195.891C424.864 197.034 427.466 197.677 430.179 197.677C432.892 197.677 435.494 197.034 437.413 195.891C439.331 194.748 440.409 193.197 440.409 191.58C440.409 189.963 439.331 188.412 437.413 187.269C435.494 186.126 432.892 185.483 430.179 185.483C427.466 185.483 424.864 186.126 422.946 187.269C421.027 188.412 419.949 189.963 419.949 191.58Z" fill="#FFB59E"/>
<path d="M298.43 191.58C298.43 193.197 299.507 194.748 301.426 195.891C303.344 197.034 305.947 197.677 308.66 197.677C311.373 197.677 313.975 197.034 315.893 195.891C317.812 194.748 318.89 193.197 318.89 191.58C318.89 189.963 317.812 188.412 315.893 187.269C313.975 186.126 311.373 185.483 308.66 185.483C305.947 185.483 303.344 186.126 301.426 187.269C299.507 188.412 298.43 189.963 298.43 191.58Z" fill="#FFB59E"/>
<path d="M248.003 490.833C241.007 472.349 228.549 456.433 212.288 445.201C196.026 433.968 176.73 427.952 156.966 427.952C137.202 427.952 117.907 433.968 101.645 445.201C85.3835 456.433 72.9262 472.349 65.9297 490.833H248.003Z" fill="#00F5BC"/>
<path d="M156.966 456.423C171.096 456.392 185.061 459.456 197.879 465.401C210.697 471.346 222.057 480.027 231.16 490.833H248.003C241.007 472.349 228.549 456.433 212.288 445.201C196.026 433.968 176.73 427.952 156.966 427.952C137.202 427.952 117.907 433.968 101.645 445.201C85.3835 456.433 72.9262 472.349 65.9297 490.833H82.6697C91.802 480.035 103.182 471.361 116.015 465.417C128.848 459.474 142.824 456.405 156.966 456.423Z" fill="#00DBA8"/>
<path d="M248.003 490.833C241.007 472.349 228.549 456.433 212.288 445.201C196.026 433.968 176.73 427.952 156.966 427.952C137.202 427.952 117.907 433.968 101.645 445.201C85.3835 456.433 72.9262 472.349 65.9297 490.833H248.003Z" stroke="#45413C" stroke-width="7" stroke-linecap="round" stroke-linejoin="round"/>
<path d="M137.746 394.94H176.186V461.074H137.746V394.94Z" fill="#FFCEBF"/>
<path d="M137.746 394.94H176.186V442.887H137.746V394.94Z" fill="#FFB59E"/>
<path d="M137.746 394.94H176.186V461.074H137.746V394.94Z" stroke="#45413C" stroke-width="7" stroke-linecap="round" stroke-linejoin="round"/>
<path d="M84.5282 342.343C81.8437 343.083 79.4347 344.593 77.5984 346.687C75.7621 348.78 74.5789 351.365 74.1948 354.123C74.0381 356.04 74.2794 357.968 74.9034 359.787C75.5274 361.606 76.5207 363.276 77.821 364.693C79.1212 366.11 80.7004 367.242 82.4592 368.019C84.218 368.797 86.1186 369.202 88.0415 369.21H88.8682C91.2642 385.642 99.4953 400.663 112.056 411.526C124.617 422.388 140.669 428.366 157.275 428.366C173.881 428.366 189.932 422.388 202.493 411.526C215.054 400.663 223.286 385.642 225.682 369.21H226.508C229.983 369.45 233.416 368.342 236.095 366.116C238.773 363.89 240.49 360.717 240.89 357.257C241.289 353.797 240.339 350.317 238.238 347.539C236.137 344.761 233.046 342.901 229.608 342.343C198.608 336.247 181.662 303.49 181.248 302.767C180.422 303.697 155.002 343.273 84.5282 342.343Z" fill="#FFCEBF" stroke="#45413C" stroke-width="7" stroke-linecap="round" stroke-linejoin="round"/>
<path d="M120.59 358.154C120.59 359.524 121.134 360.838 122.103 361.807C123.072 362.776 124.386 363.321 125.757 363.321C127.127 363.321 128.441 362.776 129.41 361.807C130.379 360.838 130.923 359.524 130.923 358.154C130.923 356.784 130.379 355.47 129.41 354.501C128.441 353.532 127.127 352.987 125.757 352.987C124.386 352.987 123.072 353.532 122.103 354.501C121.134 355.47 120.59 356.784 120.59 358.154Z" fill="#45413C" stroke="#45413C" stroke-width="7" stroke-linecap="round" stroke-linejoin="round"/>
<path d="M193.337 358.154C193.311 359.516 192.758 360.815 191.795 361.778C190.831 362.741 189.533 363.294 188.171 363.321C186.8 363.321 185.486 362.776 184.517 361.807C183.548 360.838 183.004 359.524 183.004 358.154C183.004 356.784 183.548 355.47 184.517 354.501C185.486 353.532 186.8 352.987 188.171 352.987C189.541 352.987 190.855 353.532 191.824 354.501C192.793 355.47 193.337 356.784 193.337 358.154Z" fill="#45413C" stroke="#45413C" stroke-width="7" stroke-linecap="round" stroke-linejoin="round"/>
<path d="M105.297 380.06C105.297 381.129 106.005 382.154 107.264 382.91C108.524 383.666 110.232 384.09 112.014 384.09C113.795 384.09 115.503 383.666 116.763 382.91C118.023 382.154 118.73 381.129 118.73 380.06C118.73 378.991 118.023 377.966 116.763 377.211C115.503 376.455 113.795 376.03 112.014 376.03C110.232 376.03 108.524 376.455 107.264 377.211C106.005 377.966 105.297 378.991 105.297 380.06Z" fill="#FFB59E"/>
<path d="M195.094 380.06C195.094 381.129 195.801 382.154 197.061 382.91C198.321 383.666 200.029 384.09 201.81 384.09C203.592 384.09 205.3 383.666 206.56 382.91C207.819 382.154 208.527 381.129 208.527 380.06C208.527 378.991 207.819 377.966 206.56 377.211C205.3 376.455 203.592 376.03 201.81 376.03C200.029 376.03 198.321 376.455 197.061 377.211C195.801 377.966 195.094 378.991 195.094 380.06Z" fill="#FFB59E"/>
<path d="M139.5 399.177C144.363 403.257 150.635 405.261 156.963 404.757C163.291 405.261 169.564 403.257 174.427 399.177" stroke="#45413C" stroke-width="7" stroke-linecap="round" stroke-linejoin="round"/>
<path d="M339.04 245.624C319.197 245.624 300.162 253.485 286.102 267.487C272.042 281.489 264.102 300.491 264.02 320.334V359.497H414.06V320.334C413.978 300.491 406.038 281.489 391.977 267.487C377.917 253.485 358.883 245.624 339.04 245.624Z" fill="#A86C4D"/>
<path d="M339.04 245.624C319.197 245.624 300.162 253.485 286.102 267.487C272.042 281.489 264.102 300.491 264.02 320.334V344.101C264.02 324.204 271.923 305.123 285.992 291.054C300.061 276.985 319.143 269.081 339.04 269.081C358.936 269.081 378.018 276.985 392.087 291.054C406.156 305.123 414.06 324.204 414.06 344.101V320.334C413.978 300.491 406.038 281.489 391.977 267.487C377.917 253.485 358.883 245.624 339.04 245.624Z" fill="#DE926A"/>
<path d="M430.073 490.833C423.077 472.349 410.62 456.433 394.358 445.201C378.096 433.968 358.801 427.952 339.037 427.952C319.273 427.952 299.977 433.968 283.715 445.201C267.454 456.433 254.996 472.349 248 490.833H430.073Z" fill="#FFAA54"/>
<path d="M339.037 456.423C353.179 456.405 367.155 459.474 379.988 465.417C392.821 471.361 404.201 480.035 413.333 490.833H430.073C423.077 472.349 410.62 456.433 394.358 445.201C378.096 433.968 358.801 427.952 339.037 427.952C319.273 427.952 299.977 433.968 283.715 445.201C267.454 456.433 254.996 472.349 248 490.833H264.843C273.946 480.027 285.306 471.346 298.124 465.401C310.942 459.456 324.907 456.392 339.037 456.423Z" fill="#FF8A14"/>
<path d="M430.073 490.833C423.077 472.349 410.62 456.433 394.358 445.201C378.096 433.968 358.801 427.952 339.037 427.952C319.273 427.952 299.977 433.968 283.715 445.201C267.454 456.433 254.996 472.349 248 490.833H430.073Z" stroke="#45413C" stroke-width="7" stroke-linecap="round" stroke-linejoin="round"/>
<path d="M319.816 394.94H358.256V461.074H319.816V394.94Z" fill="#FFCEBF"/>
<path d="M319.816 394.94H358.256V442.887H319.816V394.94Z" fill="#FFB59E"/>
<path d="M319.816 394.94H358.256V461.074H319.816V394.94Z" stroke="#45413C" stroke-width="7" stroke-linecap="round" stroke-linejoin="round"/>
<path d="M339.04 245.624C319.197 245.624 300.162 253.485 286.102 267.487C272.042 281.489 264.102 300.491 264.02 320.334V359.497H414.06V320.334C413.978 300.491 406.037 281.489 391.977 267.487C377.917 253.485 358.883 245.624 339.04 245.624V245.624Z" stroke="#45413C" stroke-width="7" stroke-linecap="round" stroke-linejoin="round"/>
<path d="M266.703 342.343C263.265 342.901 260.174 344.761 258.073 347.539C255.972 350.317 255.022 353.797 255.421 357.257C255.821 360.717 257.538 363.89 260.216 366.116C262.895 368.342 266.328 369.45 269.803 369.21H270.629C273.025 385.642 281.257 400.663 293.818 411.526C306.379 422.388 322.43 428.366 339.036 428.366C355.642 428.366 371.694 422.388 384.255 411.526C396.816 400.663 405.047 385.642 407.443 369.21H408.269C410.192 369.202 412.093 368.797 413.852 368.019C415.611 367.242 417.19 366.11 418.49 364.693C419.79 363.276 420.784 361.606 421.408 359.787C422.032 357.968 422.273 356.04 422.116 354.123C421.732 351.365 420.549 348.78 418.713 346.687C416.876 344.593 414.467 343.083 411.783 342.343C380.783 336.247 363.733 303.49 363.319 302.767C362.596 303.697 337.383 343.273 266.703 342.343Z" fill="#FFCEBF" stroke="#45413C" stroke-width="7" stroke-linecap="round" stroke-linejoin="round"/>
<path d="M302.664 358.154C302.691 359.516 303.243 360.815 304.207 361.778C305.17 362.741 306.469 363.294 307.831 363.321C309.201 363.321 310.515 362.776 311.484 361.807C312.453 360.838 312.997 359.524 312.997 358.154C312.997 356.784 312.453 355.47 311.484 354.501C310.515 353.532 309.201 352.987 307.831 352.987C306.46 352.987 305.146 353.532 304.177 354.501C303.208 355.47 302.664 356.784 302.664 358.154Z" fill="#45413C" stroke="#45413C" stroke-width="7" stroke-linecap="round" stroke-linejoin="round"/>
<path d="M375.411 358.154C375.411 359.524 374.867 360.838 373.898 361.807C372.929 362.776 371.615 363.321 370.245 363.321C368.875 363.321 367.56 362.776 366.591 361.807C365.622 360.838 365.078 359.524 365.078 358.154C365.078 356.784 365.622 355.47 366.591 354.501C367.56 353.532 368.875 352.987 370.245 352.987C371.615 352.987 372.929 353.532 373.898 354.501C374.867 355.47 375.411 356.784 375.411 358.154Z" fill="#45413C" stroke="#45413C" stroke-width="7" stroke-linecap="round" stroke-linejoin="round"/>
<path d="M287.477 380.06C287.477 381.129 288.184 382.154 289.444 382.91C290.703 383.666 292.412 384.09 294.193 384.09C295.975 384.09 297.683 383.666 298.943 382.91C300.202 382.154 300.91 381.129 300.91 380.06C300.91 378.991 300.202 377.966 298.943 377.211C297.683 376.455 295.975 376.03 294.193 376.03C292.412 376.03 290.703 376.455 289.444 377.211C288.184 377.966 287.477 378.991 287.477 380.06Z" fill="#FFB59E"/>
<path d="M377.27 380.06C377.27 381.129 377.977 382.154 379.237 382.91C380.496 383.666 382.205 384.09 383.986 384.09C385.768 384.09 387.476 383.666 388.736 382.91C389.995 382.154 390.703 381.129 390.703 380.06C390.703 378.991 389.995 377.966 388.736 377.211C387.476 376.455 385.768 376.03 383.986 376.03C382.205 376.03 380.496 376.455 379.237 377.211C377.977 377.966 377.27 378.991 377.27 380.06Z" fill="#FFB59E"/>
<path d="M321.574 399.177C326.437 403.257 332.71 405.261 339.038 404.757C345.365 405.261 351.638 403.257 356.501 399.177" stroke="#45413C" stroke-width="7" stroke-linecap="round" stroke-linejoin="round"/>
</svg>
