<svg width="495" height="495" viewBox="0 0 495 495" fill="none" xmlns="http://www.w3.org/2000/svg">
<path d="M53.75 166.476H322.75V375.476H53.75V166.476Z" fill="#FFE500"/>
<path d="M298.45 167.187H76.9375C68.7324 167.187 60.8633 170.447 55.0614 176.249C49.2595 182.05 46 189.92 46 198.125V239.375C46 231.17 49.2595 223.3 55.0614 217.499C60.8633 211.697 68.7324 208.437 76.9375 208.437H298.656C306.861 208.437 314.73 211.697 320.532 217.499C326.334 223.3 329.594 231.17 329.594 239.375V198.125C329.594 194.045 328.787 190.005 327.219 186.238C325.652 182.471 323.354 179.051 320.46 176.175C317.565 173.3 314.13 171.025 310.353 169.483C306.575 167.94 302.53 167.16 298.45 167.187V167.187Z" fill="#FFF48C"/>
<path d="M48.75 166.476H324.75V376.476H48.75V166.476Z" stroke="#45413C" stroke-width="7" stroke-linecap="round" stroke-linejoin="round"/>
<path d="M182.591 10.5002C153.233 10.582 125.104 22.2947 104.365 43.073C83.6249 63.8514 71.9647 92.0019 71.9375 121.36V165.188H118.344V121.36C118.344 104.266 125.134 87.8716 137.222 75.7843C149.309 63.697 165.703 56.9064 182.797 56.9064C199.891 56.9064 216.285 63.697 228.372 75.7843C240.459 87.8716 247.25 104.266 247.25 121.36V165.188H293.656V121.36C293.656 106.784 290.782 92.3514 285.198 78.8878C279.614 65.4243 271.43 53.1941 261.113 42.8971C250.797 32.6002 238.552 24.4387 225.078 18.8796C211.604 13.3205 197.166 10.4731 182.591 10.5002V10.5002Z" fill="#DAEDF7"/>
<path d="M182.591 10.5002C153.233 10.582 125.104 22.2947 104.365 43.073C83.6249 63.8514 71.9647 92.0019 71.9375 121.36V147.141C71.9375 117.739 83.6173 89.5416 104.407 68.7514C125.198 47.9612 153.395 36.2814 182.797 36.2814C212.199 36.2814 240.396 47.9612 261.186 68.7514C281.976 89.5416 293.656 117.739 293.656 147.141V121.36C293.656 106.784 290.782 92.3514 285.198 78.8878C279.614 65.4243 271.43 53.1941 261.113 42.8971C250.797 32.6002 238.552 24.4387 225.078 18.8796C211.604 13.3205 197.166 10.4731 182.591 10.5002V10.5002Z" fill="white"/>
<path d="M182.591 10.5002C153.233 10.582 125.104 22.2947 104.365 43.073C83.6249 63.8514 71.9647 92.0019 71.9375 121.36V165.188H118.344V121.36C118.344 104.266 125.134 87.8716 137.222 75.7843C149.309 63.697 165.703 56.9064 182.797 56.9064C199.891 56.9064 216.285 63.697 228.372 75.7843C240.459 87.8716 247.25 104.266 247.25 121.36V165.188H293.656V121.36C293.656 106.784 290.782 92.3514 285.198 78.8878C279.614 65.4243 271.43 53.1941 261.113 42.8971C250.797 32.6002 238.552 24.4387 225.078 18.8796C211.604 13.3205 197.166 10.4731 182.591 10.5002V10.5002Z" stroke="#45413C" stroke-width="7" stroke-linecap="round" stroke-linejoin="round"/>
<path d="M335.352 237.539C349.561 227.498 366.859 222.796 384.196 224.263C401.515 225.728 417.762 233.257 430.077 245.521C442.009 257.909 449.242 274.074 450.528 291.226C451.815 308.383 447.07 325.451 437.112 339.482C427.155 353.514 412.61 363.628 395.99 368.078C379.37 372.528 361.717 371.035 346.081 363.856L343.885 362.848L342.164 364.545L312.053 394.233C311.815 394.399 311.584 394.573 311.398 394.718C311.212 394.863 311.015 395.025 310.83 395.187C310.672 395.325 310.421 395.55 310.193 395.811C310.129 395.884 309.948 396.092 309.766 396.396L303.963 401.439L303.871 401.519L303.786 401.604L241.523 463.764L238.564 463.887L238.548 463.762L237.048 463.966L237.092 464.468L218.797 462.457H218.798C217.258 462.279 215.824 461.582 214.734 460.479C213.644 459.377 212.963 457.935 212.803 456.394L212.801 456.374L212.798 456.355L210.532 436.69C210.433 435.687 210.558 434.673 210.898 433.724C211.24 432.769 211.791 431.903 212.51 431.188L212.513 431.186L310.585 333.526L312.339 331.779L311.276 329.544C303.807 313.83 302.127 295.982 306.531 279.15C310.936 262.318 321.143 247.581 335.352 237.539ZM407.063 249.304C404.517 249.259 401.987 249.728 399.625 250.682C397.263 251.636 395.118 253.056 393.316 254.857C391.515 256.659 390.095 258.804 389.141 261.166C388.187 263.528 387.719 266.058 387.764 268.604C387.809 271.151 388.366 273.663 389.402 275.99C390.439 278.317 391.934 280.411 393.798 282.147C397.394 285.498 402.149 287.322 407.063 287.235C411.978 287.149 416.666 285.158 420.142 281.683C423.617 278.207 425.609 273.519 425.695 268.604C425.782 263.69 423.957 258.935 420.606 255.339C418.87 253.475 416.776 251.98 414.449 250.943C412.122 249.907 409.61 249.349 407.063 249.304Z" fill="#FFAA54" stroke="#3C3C3B" stroke-width="7"/>
<path d="M327.499 273.613C336.231 265.576 347.109 259.82 359.026 256.929C370.942 254.039 376.629 251.961 388.503 255C391.143 253.345 397.654 247 407.503 247C411.003 247 419.003 250.477 419.003 251.477C422.503 253.977 427.28 261.039 427.503 264C427.766 267.5 429.003 275 427.503 277.05C436.883 285.8 443.784 293.938 446.503 306C448.734 296.621 446.54 286.399 444.171 277.05C441.801 267.7 437.193 258.962 430.687 251.477C424.181 243.993 415.943 237.953 406.578 233.804C397.214 229.654 386.962 227.5 376.578 227.5C366.195 227.5 355.943 229.654 346.578 233.804C337.214 237.953 328.975 243.993 322.47 251.477C315.964 258.962 311.356 267.7 308.986 277.05C306.616 286.399 307.006 297 308.986 306C311.801 293.934 318.09 282.368 327.499 273.613Z" fill="#FFCC99"/>
<path d="M215.107 464.249L312.56 366.693C308.79 358.597 307.301 351.894 306.5 343L214.488 431.868C213.4 432.95 212.566 434.261 212.049 435.706C211.531 437.151 211.343 438.694 211.498 440.221L213.766 459.918C213.848 461.45 214.309 462.938 215.107 464.249Z" fill="#FFCC99"/>
<path d="M215 461.272L309.875 366.5" stroke="#45413C" stroke-width="7" stroke-linecap="round" stroke-linejoin="round"/>
</svg>
