<svg width="496" height="496" viewBox="0 0 496 496" fill="none" xmlns="http://www.w3.org/2000/svg">
<path d="M440.609 120.2C446.261 112.382 449.298 102.979 449.289 93.3331C449.302 87.2228 448.109 81.17 445.777 75.5222C443.445 69.8744 440.02 64.7429 435.7 60.4222C431.379 56.1016 426.247 52.677 420.6 50.3449C414.952 48.0129 408.899 46.8195 402.789 46.8331C393.142 46.8234 383.739 49.8612 375.922 55.5131C374.649 50.8634 372.101 46.6625 368.565 43.3857C365.029 40.1089 360.647 37.8868 355.914 36.9707C351.181 36.0546 346.286 36.4812 341.783 38.2021C337.28 39.923 333.348 42.8696 330.433 46.7086C327.517 50.5477 325.734 55.126 325.284 59.9257C324.835 64.7255 325.738 69.5552 327.89 73.8687C330.043 78.1822 333.36 81.8072 337.465 84.334C341.571 86.8607 346.301 88.1882 351.122 88.1664C353.071 88.136 355.012 87.8934 356.909 87.4431C356.549 89.3873 356.342 91.3566 356.289 93.3331C356.275 99.4434 357.468 105.496 359.8 111.144C362.133 116.792 365.557 121.923 369.878 126.244C374.198 130.565 379.33 133.989 384.978 136.321C390.626 138.653 396.678 139.847 402.789 139.833C404.765 139.78 406.734 139.573 408.679 139.213C408.228 141.11 407.986 143.05 407.955 145C407.934 149.82 409.261 154.551 411.788 158.657C414.315 162.762 417.94 166.079 422.253 168.231C426.566 170.384 431.396 171.287 436.196 170.837C440.996 170.388 445.574 168.605 449.413 165.689C453.252 162.773 456.199 158.842 457.92 154.338C459.641 149.835 460.067 144.94 459.151 140.208C458.235 135.475 456.013 131.092 452.736 127.557C449.459 124.021 445.258 121.472 440.609 120.2V120.2Z" fill="#00B8F0" stroke="#45413C" stroke-width="7" stroke-linecap="round" stroke-linejoin="round"/>
<path d="M55.0131 120.2C49.3612 112.382 46.3234 102.979 46.3331 93.3331C46.3195 87.2228 47.5129 81.17 49.8449 75.5222C52.1769 69.8744 55.6016 64.7429 59.9222 60.4222C64.2429 56.1016 69.3744 52.677 75.0222 50.3449C80.67 48.0129 86.7228 46.8195 92.8331 46.8331C102.479 46.8234 111.882 49.8612 119.7 55.5131C120.972 50.8634 123.521 46.6625 127.057 43.3857C130.592 40.1089 134.975 37.8868 139.708 36.9707C144.44 36.0546 149.335 36.4812 153.838 38.2021C158.342 39.923 162.273 42.8696 165.189 46.7086C168.105 50.5477 169.888 55.126 170.337 59.9257C170.787 64.7255 169.884 69.5552 167.731 73.8687C165.579 78.1822 162.262 81.8072 158.157 84.334C154.051 86.8607 149.32 88.1882 144.5 88.1664C142.55 88.136 140.61 87.8934 138.713 87.4431C139.073 89.3873 139.28 91.3566 139.333 93.3331C139.347 99.4434 138.153 105.496 135.821 111.144C133.489 116.792 130.065 121.923 125.744 126.244C121.423 130.565 116.292 133.989 110.644 136.321C104.996 138.653 98.9434 139.847 92.8331 139.833C90.8566 139.78 88.8873 139.573 86.9431 139.213C87.3934 141.11 87.636 143.05 87.6664 145C87.6882 149.82 86.3607 154.551 83.834 158.657C81.3072 162.762 77.6822 166.079 73.3687 168.231C69.0552 170.384 64.2255 171.287 59.4257 170.837C54.626 170.388 50.0477 168.605 46.2086 165.689C42.3696 162.773 39.423 158.842 37.7021 154.338C35.9812 149.835 35.5546 144.94 36.4707 140.208C37.3868 135.475 39.6089 131.092 42.8857 127.557C46.1625 124.021 50.3634 121.472 55.0131 120.2V120.2Z" fill="#F00004" stroke="#45413C" stroke-width="7" stroke-linecap="round" stroke-linejoin="round"/>
<path d="M41.168 253.5C41.168 308.311 62.9417 360.878 101.699 399.635C140.457 438.393 193.023 460.166 247.835 460.166C302.646 460.166 355.213 438.393 393.97 399.635C432.728 360.878 454.501 308.311 454.501 253.5C454.501 198.688 432.728 146.122 393.97 107.364C355.213 68.6068 302.646 46.833 247.835 46.833C193.023 46.833 140.457 68.6068 101.699 107.364C62.9417 146.122 41.168 198.688 41.168 253.5V253.5Z" fill="#FFFCE5"/>
<path d="M247.835 46.833C206.96 46.833 167.003 58.9538 133.017 81.6626C99.0307 104.371 72.5417 136.648 56.8996 174.412C41.2575 212.175 37.1648 253.729 45.1391 293.818C53.1134 333.908 72.7965 370.732 101.699 399.635C130.602 428.538 167.427 448.221 207.516 456.195C247.605 464.17 289.159 460.077 326.923 444.435C364.686 428.793 396.963 402.304 419.672 368.318C442.381 334.331 454.501 294.374 454.501 253.5C454.501 198.688 432.728 146.122 393.97 107.364C355.213 68.6068 302.646 46.833 247.835 46.833V46.833ZM247.835 429.166C210.536 429.166 174.076 418.106 143.063 397.384C112.051 376.663 87.8799 347.21 73.6064 312.751C59.333 278.292 55.5984 240.374 62.875 203.792C70.1515 167.211 88.1123 133.608 114.486 107.234C140.86 80.8606 174.462 62.8998 211.044 55.6233C247.626 48.3467 285.543 52.0813 320.002 66.3547C354.462 80.6282 383.914 104.799 404.636 135.812C425.358 166.824 436.418 203.285 436.418 240.583C436.418 290.598 416.549 338.565 381.183 373.932C345.817 409.298 297.85 429.166 247.835 429.166V429.166Z" fill="#FFFACF"/>
<path d="M185.832 88.167C185.832 92.2778 192.364 96.2203 203.991 99.1271C215.619 102.034 231.389 103.667 247.832 103.667C264.275 103.667 280.045 102.034 291.673 99.1271C303.3 96.2203 309.832 92.2778 309.832 88.167C309.832 84.0561 303.3 80.1136 291.673 77.2068C280.045 74.3 264.275 72.667 247.832 72.667C231.389 72.667 215.619 74.3 203.991 77.2068C192.364 80.1136 185.832 84.0561 185.832 88.167Z" fill="white"/>
<path d="M41.168 253.5C41.168 308.311 62.9417 360.878 101.699 399.635C140.457 438.393 193.023 460.166 247.835 460.166C302.646 460.166 355.213 438.393 393.97 399.635C432.728 360.878 454.501 308.311 454.501 253.5C454.501 198.688 432.728 146.122 393.97 107.364C355.213 68.6068 302.646 46.833 247.835 46.833C193.023 46.833 140.457 68.6068 101.699 107.364C62.9417 146.122 41.168 198.688 41.168 253.5V253.5Z" stroke="#45413C" stroke-width="7" stroke-linecap="round" stroke-linejoin="round"/>
<path d="M402.835 305.167C402.835 313.744 391.261 320.667 377.001 320.667C362.741 320.667 351.168 313.744 351.168 305.167C351.168 296.59 362.741 289.667 377.001 289.667C391.261 289.667 402.835 296.59 402.835 305.167Z" fill="#FF87AF"/>
<path d="M92.832 305.167C92.832 313.744 104.405 320.667 118.665 320.667C132.925 320.667 144.499 313.744 144.499 305.167C144.499 296.59 132.925 289.667 118.665 289.667C104.405 289.667 92.832 296.59 92.832 305.167Z" fill="#FF87AF"/>
<path d="M201.332 289.667C201.332 299.259 206.231 308.458 214.952 315.24C223.672 322.023 235.499 325.833 247.832 325.833C260.165 325.833 271.992 322.023 280.712 315.24C289.433 308.458 294.332 299.259 294.332 289.667C294.332 280.075 289.433 270.876 280.712 264.093C271.992 257.31 260.165 253.5 247.832 253.5C235.499 253.5 223.672 257.31 214.952 264.093C206.231 270.876 201.332 280.075 201.332 289.667V289.667Z" fill="#FF6242"/>
<path d="M247.832 274.167C256.945 273.622 266.016 275.784 273.903 280.38C281.791 284.977 288.144 291.803 292.162 300C293.504 296.715 294.239 293.214 294.332 289.667C294.332 269.723 273.665 253.5 247.832 253.5C221.999 253.5 201.332 269.723 201.332 289.667C201.425 293.214 202.16 296.715 203.502 300C207.521 291.803 213.873 284.977 221.761 280.38C229.648 275.784 238.719 273.622 247.832 274.167V274.167Z" fill="#FF866E"/>
<path d="M201.332 289.667C201.332 299.259 206.231 308.458 214.952 315.24C223.672 322.023 235.499 325.833 247.832 325.833C260.165 325.833 271.992 322.023 280.712 315.24C289.433 308.458 294.332 299.259 294.332 289.667C294.332 280.075 289.433 270.876 280.712 264.093C271.992 257.31 260.165 253.5 247.832 253.5C235.499 253.5 223.672 257.31 214.952 264.093C206.231 270.876 201.332 280.075 201.332 289.667V289.667Z" stroke="#45413C" stroke-width="7" stroke-linecap="round" stroke-linejoin="round"/>
<path d="M247.835 413.667C230.225 414.198 212.722 410.758 196.622 403.603C180.523 396.447 166.241 385.76 154.835 372.333C152.799 369.619 151.318 366.531 150.476 363.245C149.634 359.958 149.448 356.538 149.928 353.18C150.407 349.822 151.544 346.591 153.272 343.672C155.001 340.752 157.287 338.202 160.001 336.167C165.482 332.056 172.372 330.291 179.155 331.26C185.937 332.229 192.057 335.852 196.168 341.333C202.77 348.314 210.809 353.778 219.73 357.346C228.65 360.914 238.24 362.502 247.835 362C257.434 362.544 267.036 360.976 275.963 357.405C284.89 353.834 292.925 348.348 299.501 341.333C303.689 335.982 309.796 332.471 316.528 331.545C323.26 330.62 330.088 332.351 335.565 336.373C338.28 338.383 340.571 340.908 342.306 343.806C344.042 346.704 345.187 349.916 345.677 353.258C346.167 356.599 345.991 360.005 345.16 363.279C344.329 366.553 342.859 369.63 340.835 372.333C329.428 385.76 315.146 396.447 299.047 403.603C282.948 410.758 265.444 414.198 247.835 413.667V413.667Z" fill="#FF6242"/>
<path d="M335.621 336.372C330.144 332.35 323.317 330.618 316.585 331.544C309.853 332.47 303.746 335.981 299.558 341.332C292.982 348.347 284.947 353.833 276.02 357.404C267.093 360.975 257.491 362.543 247.891 361.999C238.297 362.501 228.707 360.913 219.786 357.345C210.866 353.776 202.826 348.313 196.225 341.332C193.111 337.093 188.773 333.91 183.795 332.212C178.817 330.514 173.438 330.382 168.383 331.834C163.328 333.287 158.839 336.254 155.521 340.335C152.204 344.417 150.217 349.417 149.828 354.662C152.803 352.132 156.268 350.243 160.005 349.112C163.743 347.981 167.674 347.632 171.553 348.088C175.431 348.543 179.174 349.794 182.548 351.761C185.922 353.727 188.854 356.368 191.161 359.519C198.373 367.26 207.183 373.34 216.979 377.336C226.775 381.333 237.323 383.152 247.891 382.666C258.48 383.25 269.069 381.518 278.92 377.592C288.771 373.666 297.647 367.639 304.931 359.932C307.229 356.769 310.157 354.116 313.531 352.14C316.905 350.164 320.652 348.909 324.535 348.453C328.418 347.996 332.353 348.349 336.093 349.489C339.833 350.629 343.296 352.531 346.265 355.076C345.946 351.374 344.83 347.786 342.992 344.558C341.155 341.329 338.641 338.537 335.621 336.372Z" fill="#FF866E"/>
<path d="M247.835 413.667C230.225 414.198 212.722 410.758 196.622 403.603C180.523 396.447 166.241 385.76 154.835 372.333C152.799 369.619 151.318 366.531 150.476 363.245C149.634 359.958 149.448 356.538 149.928 353.18C150.407 349.822 151.544 346.591 153.272 343.672C155.001 340.752 157.287 338.202 160.001 336.167C165.482 332.056 172.372 330.291 179.155 331.26C185.937 332.229 192.057 335.852 196.168 341.333C202.77 348.314 210.809 353.778 219.73 357.346C228.65 360.914 238.24 362.502 247.835 362C257.434 362.544 267.036 360.976 275.963 357.405C284.89 353.834 292.925 348.348 299.501 341.333C303.689 335.982 309.796 332.471 316.528 331.545C323.26 330.62 330.088 332.351 335.565 336.373C338.28 338.383 340.571 340.908 342.306 343.806C344.042 346.704 345.187 349.916 345.677 353.258C346.167 356.599 345.991 360.005 345.16 363.279C344.329 366.553 342.859 369.63 340.835 372.333C329.428 385.76 315.146 396.447 299.047 403.603C282.948 410.758 265.444 414.198 247.835 413.667V413.667Z" stroke="#45413C" stroke-width="7" stroke-linecap="round" stroke-linejoin="round"/>
<path d="M180.668 362C180.668 362 200.095 387.833 247.835 387.833C295.575 387.833 315.001 362 315.001 362" stroke="#45413C" stroke-width="7" stroke-linecap="round" stroke-linejoin="round"/>
<path d="M309.832 232.833C309.832 243.796 313.642 254.309 320.425 262.06C327.208 269.812 336.407 274.167 345.999 274.167C355.591 274.167 364.79 269.812 371.572 262.06C378.355 254.309 382.165 243.796 382.165 232.833C382.165 221.871 378.355 211.358 371.572 203.606C364.79 195.855 355.591 191.5 345.999 191.5C336.407 191.5 327.208 195.855 320.425 203.606C313.642 211.358 309.832 221.871 309.832 232.833Z" fill="white" stroke="#45413C" stroke-width="7" stroke-linecap="round" stroke-linejoin="round"/>
<path d="M113.5 232.833C113.5 238.261 114.435 243.636 116.253 248.651C118.071 253.666 120.735 258.222 124.093 262.06C127.451 265.899 131.438 268.943 135.826 271.02C140.214 273.098 144.917 274.167 149.667 274.167C154.416 274.167 159.119 273.098 163.507 271.02C167.895 268.943 171.882 265.899 175.24 262.06C178.599 258.222 181.263 253.666 183.08 248.651C184.898 243.636 185.833 238.261 185.833 232.833C185.833 227.405 184.898 222.031 183.08 217.016C181.263 212.001 178.599 207.444 175.24 203.606C171.882 199.768 167.895 196.724 163.507 194.646C159.119 192.569 154.416 191.5 149.667 191.5C144.917 191.5 140.214 192.569 135.826 194.646C131.438 196.724 127.451 199.768 124.093 203.606C120.735 207.444 118.071 212.001 116.253 217.016C114.435 222.031 113.5 227.405 113.5 232.833V232.833Z" fill="white" stroke="#45413C" stroke-width="7" stroke-linecap="round" stroke-linejoin="round"/>
<path d="M159.999 232.833C159.999 234.877 159.393 236.875 158.257 238.574C157.122 240.274 155.508 241.598 153.62 242.38C151.732 243.162 149.654 243.367 147.649 242.968C145.645 242.569 143.804 241.585 142.359 240.14C140.913 238.695 139.929 236.854 139.531 234.849C139.132 232.845 139.337 230.767 140.119 228.879C140.901 226.991 142.225 225.377 143.924 224.241C145.624 223.106 147.622 222.5 149.665 222.5C152.406 222.5 155.034 223.589 156.972 225.527C158.91 227.464 159.999 230.093 159.999 232.833Z" fill="#45413C" stroke="#45413C" stroke-width="7" stroke-linecap="round" stroke-linejoin="round"/>
<path d="M335.668 232.833C335.668 234.877 336.274 236.875 337.409 238.574C338.545 240.274 340.159 241.598 342.047 242.38C343.935 243.162 346.013 243.367 348.017 242.968C350.022 242.569 351.863 241.585 353.308 240.14C354.753 238.695 355.737 236.854 356.136 234.849C356.535 232.845 356.33 230.767 355.548 228.879C354.766 226.991 353.441 225.377 351.742 224.241C350.043 223.106 348.045 222.5 346.001 222.5C343.261 222.5 340.632 223.589 338.695 225.527C336.757 227.464 335.668 230.093 335.668 232.833Z" fill="#45413C" stroke="#45413C" stroke-width="7" stroke-linecap="round" stroke-linejoin="round"/>
</svg>
