<svg width="496" height="496" viewBox="0 0 496 496" fill="none" xmlns="http://www.w3.org/2000/svg">
<path d="M15.5 272.59C15.5 293.392 19.5974 313.991 27.5582 333.211C35.5191 352.43 47.1875 369.893 61.8972 384.603C76.6069 399.312 94.0699 410.981 113.289 418.941C132.508 426.902 153.107 431 173.91 431C194.713 431 215.312 426.902 234.531 418.941C253.75 410.981 271.213 399.312 285.923 384.603C300.633 369.893 312.301 352.43 320.262 333.211C328.223 313.991 332.32 293.392 332.32 272.59C332.32 251.787 328.223 231.188 320.262 211.969C312.301 192.75 300.633 175.287 285.923 160.577C271.213 145.867 253.75 134.199 234.531 126.238C215.312 118.277 194.713 114.18 173.91 114.18C153.107 114.18 132.508 118.277 113.289 126.238C94.0699 134.199 76.6069 145.867 61.8972 160.577C47.1875 175.287 35.5191 192.75 27.5582 211.969C19.5974 231.188 15.5 251.787 15.5 272.59Z" fill="#FFE500"/>
<path d="M173.91 114.18C142.58 114.18 111.953 123.47 85.9022 140.877C59.8518 158.283 39.548 183.023 27.5583 211.969C15.5686 240.914 12.4316 272.765 18.5439 303.494C24.6562 334.222 39.7432 362.448 61.8973 384.603C84.0513 406.757 112.277 421.844 143.006 427.956C173.734 434.068 205.585 430.931 234.531 418.941C263.477 406.952 288.217 386.648 305.623 360.598C323.03 334.547 332.32 303.92 332.32 272.59C332.32 230.577 315.631 190.285 285.923 160.577C256.215 130.869 215.923 114.18 173.91 114.18ZM173.91 407.233C145.298 407.233 117.328 398.749 93.5376 382.852C69.7473 366.956 51.205 344.362 40.2555 317.928C29.306 291.494 26.4411 262.406 32.0231 234.343C37.6051 206.281 51.3833 180.504 71.6153 160.272C91.8473 140.04 117.624 126.261 145.687 120.679C173.75 115.097 202.837 117.962 229.272 128.912C255.706 139.861 278.3 158.404 294.196 182.194C310.092 205.984 318.577 233.954 318.577 262.566C318.577 300.934 303.335 337.731 276.205 364.861C249.075 391.991 212.278 407.233 173.91 407.233Z" fill="#EBCB00"/>
<path d="M126.375 145.903C126.375 149.055 131.383 152.077 140.297 154.306C149.211 156.534 161.302 157.786 173.908 157.786C186.515 157.786 198.605 156.534 207.519 154.306C216.434 152.077 221.442 149.055 221.442 145.903C221.442 142.751 216.434 139.729 207.519 137.5C198.605 135.272 186.515 134.02 173.908 134.02C161.302 134.02 149.211 135.272 140.297 137.5C131.383 139.729 126.375 142.751 126.375 145.903Z" fill="#FFF48C"/>
<path d="M15.5 272.59C15.5 293.392 19.5974 313.991 27.5582 333.211C35.5191 352.43 47.1875 369.893 61.8972 384.603C76.6069 399.312 94.0699 410.981 113.289 418.941C132.508 426.902 153.107 431 173.91 431C194.713 431 215.312 426.902 234.531 418.941C253.75 410.981 271.213 399.312 285.923 384.603C300.633 369.893 312.301 352.43 320.262 333.211C328.223 313.991 332.32 293.392 332.32 272.59C332.32 251.787 328.223 231.188 320.262 211.969C312.301 192.75 300.633 175.287 285.923 160.577C271.213 145.867 253.75 134.199 234.531 126.238C215.312 118.277 194.713 114.18 173.91 114.18C153.107 114.18 132.508 118.277 113.289 126.238C94.0699 134.199 76.6069 145.867 61.8972 160.577C47.1875 175.287 35.5191 192.75 27.5582 211.969C19.5974 231.188 15.5 251.787 15.5 272.59V272.59Z" stroke="#45413C" stroke-width="7" stroke-linecap="round" stroke-linejoin="round"/>
<path d="M59.1055 312.167C59.1055 318.78 67.8888 324.05 78.8421 324.05C89.7955 324.05 98.6821 318.78 98.6821 312.167C98.6821 305.553 89.7955 300.283 78.8421 300.283C67.8888 300.283 59.1055 305.347 59.1055 312.167Z" fill="#FFAA54"/>
<path d="M288.713 312.167C288.713 318.78 279.827 324.05 268.977 324.05C258.127 324.05 249.137 318.78 249.137 312.167C249.137 305.553 258.333 300.283 268.667 300.283C279 300.283 288.713 305.347 288.713 312.167Z" fill="#FFAA54"/>
<path d="M98.6829 268.664C98.6829 270.237 98.2162 271.776 97.3419 273.084C96.4676 274.393 95.225 275.412 93.7711 276.015C92.3172 276.617 90.7174 276.774 89.1739 276.467C87.6305 276.16 86.2127 275.403 85.1 274.29C83.9872 273.177 83.2294 271.759 82.9224 270.216C82.6154 268.673 82.773 267.073 83.3752 265.619C83.9774 264.165 84.9972 262.922 86.3057 262.048C87.6142 261.174 89.1525 260.707 90.7262 260.707C92.8364 260.707 94.8602 261.545 96.3524 263.037C97.8446 264.53 98.6829 266.553 98.6829 268.664Z" fill="#45413C" stroke="#45413C" stroke-width="7" stroke-linecap="round" stroke-linejoin="round"/>
<path d="M249.137 268.663C249.137 270.237 249.604 271.775 250.478 273.084C251.353 274.392 252.595 275.412 254.049 276.014C255.503 276.617 257.103 276.774 258.646 276.467C260.19 276.16 261.608 275.402 262.72 274.29C263.833 273.177 264.591 271.759 264.898 270.216C265.205 268.672 265.047 267.072 264.445 265.619C263.843 264.165 262.823 262.922 261.515 262.048C260.206 261.173 258.668 260.707 257.094 260.707C256.045 260.693 255.004 260.889 254.033 261.284C253.061 261.679 252.179 262.265 251.437 263.006C250.695 263.748 250.11 264.631 249.715 265.602C249.32 266.574 249.124 267.615 249.137 268.663Z" fill="#45413C" stroke="#45413C" stroke-width="7" stroke-linecap="round" stroke-linejoin="round"/>
<path d="M476.264 174.216C476.264 177.593 475.261 180.893 473.383 183.699C471.505 186.506 468.836 188.691 465.715 189.978C462.593 191.266 459.16 191.597 455.85 190.931C452.539 190.264 449.502 188.63 447.121 186.235C444.741 183.841 443.125 180.793 442.479 177.479C441.833 174.165 442.185 170.733 443.492 167.62C444.798 164.506 447 161.85 449.817 159.989C452.634 158.128 455.941 157.146 459.317 157.166C463.821 157.194 468.132 159.002 471.307 162.197C474.482 165.391 476.264 169.712 476.264 174.216V174.216Z" stroke="#48CF3E" stroke-width="7" stroke-linecap="round" stroke-linejoin="round"/>
<path d="M391.426 191.164V114.8L476.262 80.8037V174.114" stroke="#48CF3E" stroke-width="7" stroke-linecap="round" stroke-linejoin="round"/>
<path d="M373.136 435.03C373.156 438.349 372.189 441.6 370.358 444.368C368.526 447.137 365.913 449.299 362.85 450.579C359.787 451.858 356.413 452.199 353.156 451.556C349.899 450.913 346.907 449.317 344.559 446.97C342.212 444.622 340.616 441.63 339.973 438.373C339.33 435.116 339.671 431.742 340.95 428.679C342.23 425.616 344.392 423.003 347.16 421.171C349.929 419.339 353.18 418.372 356.499 418.393C360.903 418.42 365.119 420.181 368.233 423.296C371.347 426.41 373.109 430.626 373.136 435.03V435.03Z" stroke="#FF4064" stroke-width="7" stroke-linecap="round" stroke-linejoin="round"/>
<path d="M373.137 435.03V359.906L398.143 376.646" stroke="#FF4064" stroke-width="7" stroke-linecap="round" stroke-linejoin="round"/>
<path d="M280.034 92.067C280.031 94.0881 279.436 96.0642 278.322 97.7505C277.208 99.4369 275.623 100.759 273.765 101.554C271.907 102.349 269.856 102.582 267.867 102.223C265.878 101.865 264.038 100.931 262.574 99.5368C261.11 98.1429 260.088 96.3503 259.633 94.3811C259.177 92.4118 259.31 90.3523 260.013 88.4575C260.717 86.5627 261.96 84.9158 263.59 83.7206C265.22 82.5255 267.165 81.8347 269.184 81.7336C270.584 81.6635 271.983 81.879 273.297 82.3668C274.611 82.8546 275.812 83.6047 276.827 84.5713C277.842 85.5379 278.65 86.7009 279.201 87.9895C279.752 89.2781 280.036 90.6654 280.034 92.067Z" stroke="#34C759" stroke-width="7" stroke-linecap="round" stroke-linejoin="round"/>
<path d="M280.035 92.0667V43.5L296.258 54.2467" stroke="#34C759" stroke-width="7" stroke-linecap="round" stroke-linejoin="round"/>
<path d="M401.035 262.257V256.264" stroke="#48CF3E" stroke-width="7" stroke-linecap="round" stroke-linejoin="round"/>
<path d="M413.645 267.423L417.778 263.29" stroke="#48CF3E" stroke-width="7" stroke-linecap="round" stroke-linejoin="round"/>
<path d="M418.809 280.03H424.802" stroke="#48CF3E" stroke-width="7" stroke-linecap="round" stroke-linejoin="round"/>
<path d="M413.645 292.637L417.778 296.873" stroke="#48CF3E" stroke-width="7" stroke-linecap="round" stroke-linejoin="round"/>
<path d="M401.035 297.906V303.796" stroke="#48CF3E" stroke-width="7" stroke-linecap="round" stroke-linejoin="round"/>
<path d="M388.432 292.637L384.195 296.873" stroke="#48CF3E" stroke-width="7" stroke-linecap="round" stroke-linejoin="round"/>
<path d="M383.16 280.03H377.27" stroke="#48CF3E" stroke-width="7" stroke-linecap="round" stroke-linejoin="round"/>
<path d="M388.432 267.423L384.195 263.29" stroke="#48CF3E" stroke-width="7" stroke-linecap="round" stroke-linejoin="round"/>
<path d="M459.523 346.68V315.06" stroke="#48CF3E" stroke-width="7" stroke-linecap="round" stroke-linejoin="round"/>
<path d="M443.715 330.87H475.438" stroke="#34C759" stroke-width="7" stroke-linecap="round" stroke-linejoin="round"/>
<path d="M424.805 59.31V43.5" stroke="#34C759" stroke-width="7" stroke-linecap="round" stroke-linejoin="round"/>
<path d="M416.848 51.457H432.658" stroke="#34C759" stroke-width="7" stroke-linecap="round" stroke-linejoin="round"/>
<path d="M435.551 421.7V405.787" stroke="#48CF3E" stroke-width="7" stroke-linecap="round" stroke-linejoin="round"/>
<path d="M427.594 413.743H443.404" stroke="#48CF3E" stroke-width="7" stroke-linecap="round" stroke-linejoin="round"/>
<path d="M322.711 112.836V96.9229" stroke="#48CF3E" stroke-width="7" stroke-linecap="round" stroke-linejoin="round"/>
<path d="M314.754 104.88H330.564" stroke="#48CF3E" stroke-width="7" stroke-linecap="round" stroke-linejoin="round"/>
<path d="M391.428 191.68C391.448 195.061 390.463 198.372 388.597 201.192C386.732 204.011 384.07 206.213 380.95 207.516C377.831 208.819 374.394 209.165 371.077 208.511C367.76 207.856 364.713 206.23 362.322 203.84C359.931 201.449 358.305 198.401 357.651 195.084C356.996 191.767 357.342 188.331 358.646 185.211C359.949 182.091 362.15 179.43 364.97 177.564C367.79 175.698 371.1 174.713 374.481 174.734C378.967 174.761 383.262 176.555 386.434 179.727C389.607 182.899 391.401 187.194 391.428 191.68Z" stroke="#48CF3E" stroke-width="7" stroke-linecap="round" stroke-linejoin="round"/>
<path d="M135 344C140.296 350.084 146.914 354.876 154.346 358.01C161.779 361.144 169.83 362.538 177.883 362.083C185.937 362.538 193.988 361.144 201.42 358.01C208.853 354.876 215.47 350.084 220.767 344" stroke="#45413C" stroke-width="7" stroke-linecap="round" stroke-linejoin="round"/>
</svg>
