<svg width="495" height="495" viewBox="0 0 495 495" fill="none" xmlns="http://www.w3.org/2000/svg">
<path d="M144.891 270.688L203.363 198.501C174.68 191.254 144.753 190.409 115.707 196.026C83.532 203.966 78.4788 264.707 77.9632 293.479C77.9272 295.076 78.3182 296.653 79.0958 298.049C79.8734 299.444 81.0094 300.606 82.3865 301.416C83.7635 302.225 85.3317 302.652 86.929 302.653C88.5263 302.654 90.0949 302.228 91.4726 301.419L144.891 270.688Z" fill="#FF6242"/>
<path d="M115.912 223.457C138.394 218.833 161.534 218.379 184.181 222.117L203.362 198.604C174.679 191.358 144.752 190.513 115.706 196.129C83.5306 203.967 78.4775 264.707 77.9619 293.479C77.936 295.237 78.439 296.961 79.4056 298.429C82.4994 268.111 90.6463 229.748 115.912 223.457Z" fill="#FF866E"/>
<path d="M144.891 270.688L203.363 198.501C174.68 191.254 144.753 190.409 115.707 196.026C83.532 203.966 78.4788 264.707 77.9632 293.479C77.9272 295.076 78.3182 296.653 79.0958 298.049C79.8734 299.444 81.0094 300.606 82.3865 301.416C83.7635 302.225 85.3317 302.652 86.929 302.653C88.5263 302.654 90.0949 302.228 91.4726 301.419L144.891 270.688Z" stroke="#45413C" stroke-width="7" stroke-linecap="round" stroke-linejoin="round"/>
<path d="M215.118 341.02L287.306 282.548C294.547 311.197 295.392 341.089 289.781 370.101C282.253 402.276 221.925 407.329 192.74 407.845C191.143 407.881 189.566 407.49 188.171 406.712C186.775 405.934 185.613 404.798 184.804 403.421C183.994 402.044 183.567 400.476 183.566 398.879C183.566 397.282 183.992 395.713 184.8 394.335L215.118 341.02Z" fill="#FF6242"/>
<path d="M262.041 369.998C266.719 347.487 267.173 324.303 263.382 301.626L286.895 282.548C294.136 311.197 294.981 341.089 289.37 370.101C281.841 402.276 221.513 407.329 192.329 407.845C190.573 407.858 188.852 407.356 187.379 406.401C217.698 403.72 256.06 395.16 262.041 369.998Z" fill="#FF866E"/>
<path d="M215.119 341.02L287.306 282.548C294.547 311.197 295.392 341.089 289.781 370.101C282.253 402.276 221.925 407.329 192.74 407.845C191.143 407.881 189.566 407.49 188.171 406.712C186.775 405.934 185.613 404.798 184.804 403.421C183.994 402.044 183.567 400.476 183.566 398.879C183.566 397.282 183.992 395.713 184.8 394.335L215.119 341.02Z" stroke="#45413C" stroke-width="7" stroke-linecap="round" stroke-linejoin="round"/>
<path d="M407.137 218.919C463.031 160.138 445.397 87.641 436.631 62.1691C435.626 59.1411 433.931 56.3876 431.681 54.1254C429.421 51.9242 426.712 50.2359 423.741 49.1754C398.269 40.4097 325.669 22.7754 266.887 79.0816C194.287 147.763 144.375 269.863 144.375 269.863L216.562 342.05C216.562 342.05 338.044 291.519 407.137 218.919Z" fill="#E8F4FA"/>
<path d="M289.266 118.991C346.294 64.6441 416.212 79.8035 443.953 88.6722C442.367 79.6766 440.091 70.8161 437.147 62.1691C436.092 59.1016 434.328 56.3262 431.998 54.0685C429.669 51.8107 426.84 50.1343 423.741 49.1754C398.269 40.4097 325.669 22.7754 266.887 79.0816C194.287 147.763 144.375 269.863 144.375 269.863L172.116 297.603C186.863 264.707 230.691 174.678 289.266 118.991Z" fill="white"/>
<path d="M407.137 218.919C463.031 160.138 445.397 87.641 436.631 62.1691C435.626 59.1411 433.931 56.3876 431.681 54.1254C429.421 51.9242 426.712 50.2359 423.741 49.1754C398.269 40.4097 325.669 22.7754 266.887 79.0816C194.287 147.763 144.375 269.863 144.375 269.863L216.562 342.05C216.562 342.05 338.044 291.519 407.137 218.919Z" stroke="#45413C" stroke-width="7" stroke-linecap="round" stroke-linejoin="round"/>
<path d="M234.093 261.098C234.843 259.769 235.139 258.233 234.936 256.721C234.734 255.209 234.044 253.804 232.971 252.719C231.898 251.635 230.501 250.93 228.992 250.711C227.482 250.492 225.942 250.772 224.605 251.507C204.515 261.79 186.061 274.996 169.846 290.695C152.67 307.995 139.105 328.537 129.937 351.126C129.66 351.765 129.58 352.472 129.707 353.156C129.834 353.84 130.161 354.472 130.648 354.969C131.134 355.467 131.758 355.809 132.44 355.951C133.121 356.093 133.829 356.029 134.474 355.767C157.029 346.721 177.568 333.297 194.905 316.27C210.664 299.951 223.874 281.352 234.093 261.098Z" fill="#FF6242" stroke="#45413C" stroke-width="7" stroke-linecap="round" stroke-linejoin="round"/>
<path d="M291.223 138.07C291.223 153.085 297.188 167.486 307.805 178.103C318.422 188.721 332.823 194.685 347.838 194.685C362.854 194.685 377.254 188.721 387.872 178.103C398.489 167.486 404.454 153.085 404.454 138.07C404.454 123.054 398.489 108.654 387.872 98.0364C377.254 87.419 362.854 81.4541 347.838 81.4541C332.823 81.4541 318.422 87.419 307.805 98.0364C297.188 108.654 291.223 123.054 291.223 138.07Z" fill="#C0DCEB" stroke="#45413C" stroke-width="7" stroke-linecap="round" stroke-linejoin="round"/>
<path d="M308.961 137.76C308.961 142.906 309.975 148.002 311.944 152.756C313.913 157.511 316.8 161.831 320.439 165.47C324.078 169.108 328.398 171.995 333.152 173.964C337.906 175.934 343.002 176.947 348.148 176.947C353.295 176.947 358.39 175.934 363.145 173.964C367.899 171.995 372.219 169.108 375.858 165.47C379.497 161.831 382.384 157.511 384.353 152.756C386.322 148.002 387.336 142.906 387.336 137.76C387.336 132.614 386.322 127.518 384.353 122.763C382.384 118.009 379.497 113.689 375.858 110.05C372.219 106.411 367.899 103.525 363.145 101.555C358.39 99.5859 353.295 98.5723 348.148 98.5723C343.002 98.5723 337.906 99.5859 333.152 101.555C328.398 103.525 324.078 106.411 320.439 110.05C316.8 113.689 313.913 118.009 311.944 122.763C309.975 127.518 308.961 132.614 308.961 137.76Z" fill="#FF6242"/>
<path d="M320.407 110.019C316.759 113.659 313.865 117.983 311.89 122.743C309.915 127.503 308.898 132.606 308.898 137.76C308.898 142.913 309.915 148.016 311.89 152.776C313.865 157.536 316.759 161.86 320.407 165.5C323.03 168.014 325.978 170.164 329.173 171.894L365.782 102.904C358.444 99.1169 350.09 97.7653 341.932 99.0446C333.773 100.324 326.234 104.168 320.407 110.019Z" fill="#FF866E"/>
<path d="M308.961 137.76C308.961 142.906 309.975 148.002 311.944 152.756C313.913 157.511 316.8 161.831 320.439 165.47C324.078 169.108 328.398 171.995 333.152 173.964C337.906 175.934 343.002 176.947 348.148 176.947C353.295 176.947 358.39 175.934 363.145 173.964C367.899 171.995 372.219 169.108 375.858 165.47C379.497 161.831 382.384 157.511 384.353 152.756C386.322 148.002 387.336 142.906 387.336 137.76C387.336 132.614 386.322 127.518 384.353 122.763C382.384 118.009 379.497 113.689 375.858 110.05C372.219 106.411 367.899 103.525 363.145 101.555C358.39 99.5859 353.295 98.5723 348.148 98.5723C343.002 98.5723 337.906 99.5859 333.152 101.555C328.398 103.525 324.078 106.411 320.439 110.05C316.8 113.689 313.913 118.009 311.944 122.763C309.975 127.518 308.961 132.614 308.961 137.76Z" stroke="#45413C" stroke-width="7" stroke-linecap="round" stroke-linejoin="round"/>
<path d="M116.943 424.241C109.724 431.46 63.7303 447.032 40.424 454.56C36.0928 456.003 30.1115 449.713 31.2459 445.382C38.774 422.178 54.3459 376.185 62.1834 368.863C71.9803 358.55 97.5553 358.55 112.818 373.607C128.08 388.663 126.74 414.444 116.943 424.241Z" fill="#FF8A14" stroke="#45413C" stroke-width="7" stroke-linecap="round" stroke-linejoin="round"/>
<path d="M104.465 406.917C99.3084 411.97 77.9615 417.229 73.5271 412.692C69.0927 408.154 74.249 386.498 79.4052 381.754C82.8215 379.422 87.0008 378.486 91.0855 379.138C95.1701 379.79 98.8503 381.981 101.371 385.26C104.522 387.815 106.592 391.466 107.165 395.482C107.739 399.498 106.774 403.582 104.465 406.917Z" fill="#FFE500" stroke="#45413C" stroke-width="7" stroke-linecap="round" stroke-linejoin="round"/>
</svg>
