<svg width="495" height="495" viewBox="0 0 495 495" fill="none" xmlns="http://www.w3.org/2000/svg">
<path d="M51.75 173.476H320.75V382.476H51.75V173.476Z" fill="#FFE500"/>
<path d="M296.45 174.187H74.9375C66.7324 174.187 58.8633 177.447 53.0614 183.249C47.2595 189.05 44 196.92 44 205.125V246.375C44 238.17 47.2595 230.3 53.0614 224.499C58.8633 218.697 66.7324 215.437 74.9375 215.437H296.656C304.861 215.437 312.73 218.697 318.532 224.499C324.334 230.3 327.594 238.17 327.594 246.375V205.125C327.594 201.045 326.787 197.005 325.219 193.238C323.652 189.471 321.354 186.051 318.46 183.175C315.565 180.3 312.13 178.025 308.353 176.483C304.575 174.94 300.53 174.16 296.45 174.187Z" fill="#FFF48C"/>
<path d="M46.75 173.476H322.75V383.476H46.75V173.476Z" stroke="#45413C" stroke-width="7" stroke-linecap="round" stroke-linejoin="round"/>
<path d="M180.591 17.5002C151.233 17.582 123.104 29.2947 102.365 50.073C81.6249 70.8514 69.9647 99.0019 69.9375 128.36V172.188H116.344V128.36C116.344 111.266 123.134 94.8716 135.222 82.7843C147.309 70.697 163.703 63.9064 180.797 63.9064C197.891 63.9064 214.285 70.697 226.372 82.7843C238.459 94.8716 245.25 111.266 245.25 128.36V172.188H291.656V128.36C291.656 113.784 288.782 99.3514 283.198 85.8878C277.614 72.4243 269.43 60.1941 259.113 49.8971C248.797 39.6002 236.552 31.4387 223.078 25.8796C209.604 20.3205 195.166 17.4731 180.591 17.5002Z" fill="#DAEDF7"/>
<path d="M180.591 17.5002C151.233 17.582 123.104 29.2947 102.365 50.073C81.6249 70.8514 69.9647 99.0019 69.9375 128.36V154.141C69.9375 124.739 81.6173 96.5416 102.407 75.7514C123.198 54.9612 151.395 43.2814 180.797 43.2814C210.199 43.2814 238.396 54.9612 259.186 75.7514C279.976 96.5416 291.656 124.739 291.656 154.141V128.36C291.656 113.784 288.782 99.3514 283.198 85.8878C277.614 72.4243 269.43 60.1941 259.113 49.8971C248.797 39.6002 236.552 31.4387 223.078 25.8796C209.604 20.3205 195.166 17.4731 180.591 17.5002Z" fill="white"/>
<path d="M180.591 17.5002C151.233 17.582 123.104 29.2947 102.365 50.073C81.6249 70.8514 69.9647 99.0019 69.9375 128.36V172.188H116.344V128.36C116.344 111.266 123.134 94.8716 135.222 82.7843C147.309 70.697 163.703 63.9064 180.797 63.9064C197.891 63.9064 214.285 70.697 226.372 82.7843C238.459 94.8716 245.25 111.266 245.25 128.36V172.188H291.656V128.36C291.656 113.784 288.782 99.3514 283.198 85.8878C277.614 72.4243 269.43 60.1941 259.113 49.8971C248.797 39.6002 236.552 31.4387 223.078 25.8796C209.604 20.3205 195.166 17.4731 180.591 17.5002V17.5002Z" stroke="#45413C" stroke-width="7" stroke-linecap="round" stroke-linejoin="round"/>
<path d="M429.024 250.975C416.121 238.106 399.088 230.207 380.929 228.67C362.77 227.133 344.652 232.058 329.769 242.576C314.887 253.093 304.196 268.528 299.583 286.158C294.969 303.789 296.729 322.482 304.552 338.941L206.481 436.6C205.392 437.682 204.558 438.994 204.041 440.439C203.524 441.884 203.335 443.426 203.49 444.954L205.759 464.65C206.001 466.984 207.033 469.166 208.683 470.835C210.333 472.503 212.502 473.559 214.834 473.828L234.531 475.994C236.074 476.165 237.637 475.984 239.101 475.466C240.565 474.948 241.893 474.107 242.987 473.003L254.64 461.35C255.596 460.387 256.352 459.244 256.865 457.988C257.378 456.731 257.638 455.386 257.631 454.028L263.75 450.476L267.943 443.716C269.3 443.724 270.646 443.464 271.902 442.951C273.159 442.437 274.301 441.681 275.265 440.725L284.443 431.547C285.399 430.584 286.155 429.441 286.668 428.184C287.181 426.928 287.442 425.583 287.434 424.225L293.25 422.476C293.289 419.755 293.807 420.38 295.75 418.476L302.696 411.976L310.75 404.976C311.705 404.001 312.993 401.507 314.25 400.976C315.507 400.445 314.635 398.981 315.999 398.976L315.999 395.66C317.356 395.668 318.702 395.407 319.958 394.894C321.215 394.381 322.358 393.625 323.321 392.669L341.059 374.932C357.436 382.45 375.925 384.014 393.333 379.353C410.741 374.693 425.975 364.099 436.404 349.403C446.833 334.706 451.803 316.829 450.456 298.859C449.109 280.888 441.528 263.952 429.024 250.975ZM392.621 287.482C391.101 286.065 389.882 284.358 389.037 282.46C388.191 280.563 387.737 278.514 387.7 276.437C387.664 274.36 388.046 272.297 388.824 270.371C389.602 268.445 390.76 266.695 392.229 265.226C393.697 263.758 395.447 262.6 397.373 261.822C399.299 261.044 401.362 260.661 403.439 260.698C405.516 260.735 407.565 261.189 409.462 262.035C411.36 262.88 413.068 264.099 414.484 265.619C417.216 268.551 418.704 272.43 418.633 276.437C418.562 280.445 416.939 284.268 414.105 287.103C411.271 289.937 407.447 291.56 403.439 291.631C399.432 291.702 395.554 290.214 392.621 287.482Z" fill="#FFAA54"/>
<path d="M319.605 283.46C329.32 273.791 341.422 266.866 354.68 263.388C367.939 259.91 381.882 260.004 395.092 263.66C398.029 261.668 401.565 260.755 405.099 261.075C408.633 261.394 411.948 262.927 414.48 265.413C416.962 267.979 418.46 271.339 418.708 274.9C422.376 277.464 425.825 280.327 429.02 283.46C439.457 293.986 446.62 307.311 449.645 321.822C452.128 310.539 452.048 298.843 449.411 287.595C446.775 276.347 441.648 265.833 434.41 256.829C427.172 247.825 418.006 240.559 407.587 235.566C397.168 230.574 385.762 227.982 374.209 227.982C362.656 227.982 351.25 230.574 340.832 235.566C330.413 240.559 321.247 247.825 314.009 256.829C306.77 265.833 301.644 276.347 299.007 287.595C296.371 298.843 296.291 310.539 298.773 321.822C301.906 307.306 309.136 293.992 319.605 283.46Z" fill="#FFCC99"/>
<path d="M207.099 468.981L304.552 371.425C300.782 363.33 298.444 354.642 297.643 345.747L206.481 436.6C205.392 437.682 204.558 438.994 204.041 440.439C203.524 441.884 203.335 443.426 203.49 444.953L205.759 464.65C205.841 466.183 206.301 467.671 207.099 468.981Z" fill="#FFCC99"/>
<path d="M392.379 287.963C390.859 286.547 389.64 284.839 388.795 282.942C387.949 281.044 387.495 278.996 387.458 276.919C387.421 274.842 387.803 272.779 388.581 270.853C389.359 268.926 390.517 267.177 391.986 265.708C393.455 264.239 395.205 263.081 397.131 262.303C399.057 261.525 401.12 261.143 403.197 261.18C405.274 261.216 407.323 261.671 409.22 262.516C411.118 263.362 412.825 264.581 414.241 266.101C416.974 269.033 418.461 272.911 418.391 276.919C418.32 280.926 416.697 284.75 413.862 287.584C411.028 290.418 407.205 292.042 403.197 292.112C399.19 292.183 395.311 290.695 392.379 287.963Z" stroke="#45413C" stroke-width="7" stroke-linecap="round" stroke-linejoin="round"/>
<path d="M206.578 465.888L301.453 371.116" stroke="#45413C" stroke-width="7" stroke-linecap="round" stroke-linejoin="round"/>
</svg>
