<svg width="495" height="495" viewBox="0 0 495 495" fill="none" xmlns="http://www.w3.org/2000/svg">
<path d="M22.3789 247.075C22.3789 280.114 46.097 311.8 88.3156 335.163C130.534 358.525 187.795 371.65 247.501 371.65C307.207 371.65 364.467 358.525 406.686 335.163C448.905 311.8 472.623 280.114 472.623 247.075C472.623 214.036 448.905 182.35 406.686 158.987C364.467 135.625 307.207 122.5 247.501 122.5C187.795 122.5 130.534 135.625 88.3156 158.987C46.097 182.35 22.3789 214.036 22.3789 247.075Z" fill="white"/>
<path d="M247.501 183.241C359.391 183.241 434.157 236.041 461.279 277.394C467.823 268.548 471.754 258.044 472.623 247.075C472.623 208.816 390.123 122.5 247.501 122.5C104.879 122.5 22.3789 208.816 22.3789 247.075C23.248 258.044 27.1783 268.548 33.7227 277.394C60.8445 236.041 135.61 183.241 247.501 183.241Z" fill="#E0E0E0"/>
<path d="M22.3789 247.075C22.3789 280.114 46.097 311.8 88.3156 335.163C130.534 358.525 187.795 371.65 247.501 371.65C307.207 371.65 364.467 358.525 406.686 335.163C448.905 311.8 472.623 280.114 472.623 247.075C472.623 214.036 448.905 182.35 406.686 158.987C364.467 135.625 307.207 122.5 247.501 122.5C187.795 122.5 130.534 135.625 88.3156 158.987C46.097 182.35 22.3789 214.036 22.3789 247.075V247.075Z" stroke="#45413C" stroke-width="7" stroke-linecap="round" stroke-linejoin="round"/>
<path d="M247.501 152.097C382.904 152.097 461.176 237.175 462.31 275.847C468.278 267.361 471.842 257.42 472.623 247.075C472.623 208.816 390.123 122.5 247.501 122.5C104.879 122.5 22.3789 208.816 22.3789 247.075C23.16 257.42 26.7232 267.361 32.6914 275.847C33.8258 236.763 112.098 152.097 247.501 152.097Z" fill="#656769" stroke="#45413C" stroke-width="7" stroke-linecap="round" stroke-linejoin="round"/>
<path d="M154.895 247.075C154.895 259.236 157.29 271.278 161.944 282.514C166.598 293.749 173.419 303.958 182.018 312.558C190.618 321.157 200.826 327.978 212.062 332.632C223.297 337.286 235.34 339.681 247.501 339.681C259.662 339.681 271.704 337.286 282.94 332.632C294.175 327.978 304.384 321.157 312.983 312.558C321.583 303.958 328.404 293.749 333.058 282.514C337.712 271.278 340.107 259.236 340.107 247.075C340.107 234.914 337.712 222.872 333.058 211.636C328.404 200.401 321.583 190.192 312.983 181.592C304.384 172.993 294.175 166.172 282.94 161.518C271.704 156.864 259.662 154.469 247.501 154.469C235.34 154.469 223.297 156.864 212.062 161.518C200.826 166.172 190.618 172.993 182.018 181.592C173.419 190.192 166.598 200.401 161.944 211.636C157.29 222.872 154.895 234.914 154.895 247.075Z" fill="#B89558"/>
<path d="M311.747 180.354C321.699 192.516 327.995 207.253 329.902 222.853C331.809 238.452 329.249 254.272 322.52 268.474C315.791 282.676 305.168 294.676 291.888 303.078C278.608 311.481 263.215 315.942 247.5 315.942C231.785 315.942 216.392 311.481 203.112 303.078C189.832 294.676 179.209 282.676 172.48 268.474C165.751 254.272 163.191 238.452 165.098 222.853C167.005 207.253 173.301 192.516 183.253 180.354C169.887 193.174 160.662 209.701 156.765 227.808C152.868 245.915 154.478 264.773 161.387 281.957C168.296 299.142 180.189 313.866 195.535 324.236C210.881 334.606 228.979 340.147 247.5 340.147C266.021 340.147 284.119 334.606 299.465 324.236C314.811 313.866 326.704 299.142 333.613 281.957C340.522 264.773 342.132 245.915 338.235 227.808C334.338 209.701 325.113 193.174 311.747 180.354Z" fill="#947746"/>
<path d="M154.895 247.075C154.895 259.236 157.29 271.278 161.944 282.514C166.598 293.749 173.419 303.958 182.018 312.558C190.618 321.157 200.826 327.978 212.062 332.632C223.297 337.286 235.34 339.681 247.501 339.681C259.662 339.681 271.704 337.286 282.94 332.632C294.175 327.978 304.384 321.157 312.983 312.558C321.583 303.958 328.404 293.749 333.058 282.514C337.712 271.278 340.107 259.236 340.107 247.075C340.107 234.914 337.712 222.872 333.058 211.636C328.404 200.401 321.583 190.192 312.983 181.592C304.384 172.993 294.175 166.172 282.94 161.518C271.704 156.864 259.662 154.469 247.501 154.469C235.34 154.469 223.297 156.864 212.062 161.518C200.826 166.172 190.618 172.993 182.018 181.592C173.419 190.192 166.598 200.401 161.944 211.636C157.29 222.872 154.895 234.914 154.895 247.075V247.075Z" stroke="#45413C" stroke-width="7" stroke-linecap="round" stroke-linejoin="round"/>
<path d="M205.941 247.075C205.941 258.097 210.32 268.668 218.114 276.462C225.908 284.256 236.479 288.634 247.501 288.634C258.523 288.634 269.094 284.256 276.888 276.462C284.682 268.668 289.06 258.097 289.06 247.075C289.06 236.053 284.682 225.482 276.888 217.688C269.094 209.894 258.523 205.516 247.501 205.516C236.479 205.516 225.908 209.894 218.114 217.688C210.32 225.482 205.941 236.053 205.941 247.075Z" fill="#525252" stroke="#45413C" stroke-width="7" stroke-linecap="round" stroke-linejoin="round"/>
</svg>
