<svg width="495" height="495" viewBox="0 0 495 495" fill="none" xmlns="http://www.w3.org/2000/svg">
<path d="M195.938 242.124C177.375 224.284 161.391 177.465 149.222 142.505C148.861 141.51 148.202 140.65 147.334 140.042C146.467 139.434 145.434 139.108 144.375 139.108C143.316 139.108 142.283 139.434 141.416 140.042C140.548 140.65 139.889 141.51 139.528 142.505C127.359 177.465 111.375 224.284 92.8125 242.124H195.938Z" fill="#EBCB00" stroke="#45413C" stroke-width="7" stroke-linecap="round" stroke-linejoin="round"/>
<path d="M299.062 242.124C317.625 224.284 333.609 177.465 345.778 142.505C346.139 141.51 346.798 140.65 347.666 140.042C348.533 139.434 349.566 139.108 350.625 139.108C351.684 139.108 352.717 139.434 353.584 140.042C354.452 140.65 355.111 141.51 355.472 142.505C367.641 177.465 383.625 224.284 402.188 242.124H299.062Z" fill="#EBCB00" stroke="#45413C" stroke-width="7" stroke-linecap="round" stroke-linejoin="round"/>
<path d="M242.706 110.332C243.062 109.36 243.708 108.522 244.557 107.93C245.405 107.337 246.415 107.02 247.45 107.02C248.484 107.02 249.494 107.337 250.342 107.93C251.191 108.522 251.837 109.36 252.193 110.332C266.012 145.497 307.468 242.125 345.006 242.125C377.697 242.125 410.49 195.925 426.887 168.7C427.529 167.768 428.454 167.068 429.525 166.703C430.597 166.339 431.757 166.329 432.834 166.677C433.911 167.024 434.848 167.71 435.504 168.632C436.16 169.554 436.502 170.663 436.478 171.794L427.918 319.469C427.918 356.491 347.068 386.5 247.45 386.5C147.831 386.5 66.9809 356.491 66.9809 319.469L58.009 171.794C57.9849 170.663 58.3264 169.554 58.9828 168.632C59.6392 167.71 60.5755 167.024 61.6525 166.677C62.7296 166.329 63.89 166.339 64.9614 166.703C66.0328 167.068 66.958 167.768 67.5996 168.7C83.9965 195.719 116.79 242.125 149.481 242.125C187.431 242.125 228.887 145.497 242.706 110.332Z" fill="#FFE500"/>
<path d="M127.793 369.588L296.815 200.566C279.199 171.935 264.285 141.726 252.265 110.332C251.909 109.36 251.263 108.522 250.414 107.93C249.566 107.337 248.556 107.02 247.522 107.02C246.487 107.02 245.477 107.337 244.629 107.93C243.78 108.522 243.134 109.36 242.778 110.332C228.959 145.497 187.503 242.125 149.965 242.125C117.275 242.125 84.4809 195.925 68.084 168.7C67.4424 167.768 66.5172 167.068 65.4458 166.703C64.3744 166.339 63.214 166.329 62.1369 166.677C61.0599 167.024 60.1236 167.71 59.4672 168.632C58.8108 169.554 58.4693 170.663 58.4934 171.794L67.0528 319.469C67.0528 339.372 90.6684 357.213 127.793 369.588Z" fill="#FFF48C"/>
<path d="M242.706 110.332C243.062 109.36 243.708 108.522 244.557 107.93C245.405 107.337 246.415 107.02 247.45 107.02C248.484 107.02 249.494 107.337 250.342 107.93C251.191 108.522 251.837 109.36 252.193 110.332C266.012 145.497 307.468 242.125 345.006 242.125C377.696 242.125 410.49 195.925 426.887 168.7C427.529 167.768 428.454 167.068 429.525 166.703C430.597 166.339 431.757 166.329 432.834 166.677C433.911 167.024 434.848 167.71 435.504 168.632C436.16 169.554 436.502 170.663 436.478 171.794L427.918 319.469C427.918 356.491 347.068 386.5 247.45 386.5C147.831 386.5 66.9809 356.491 66.9809 319.469L58.009 171.794C57.9849 170.663 58.3264 169.554 58.9828 168.632C59.6392 167.71 60.5755 167.024 61.6525 166.677C62.7296 166.329 63.89 166.339 64.9614 166.703C66.0328 167.068 66.958 167.768 67.5996 168.7C83.9965 195.719 116.79 242.125 149.481 242.125C187.431 242.125 228.887 145.497 242.706 110.332Z" stroke="#45413C" stroke-width="7" stroke-linecap="round" stroke-linejoin="round"/>
<path d="M283.594 278.219C283.594 268.646 279.791 259.465 273.022 252.697C266.253 245.928 257.073 242.125 247.5 242.125C237.927 242.125 228.747 245.928 221.978 252.697C215.209 259.465 211.406 268.646 211.406 278.219V298.844C211.406 308.416 215.209 317.597 221.978 324.366C228.747 331.135 237.927 334.937 247.5 334.937C257.073 334.937 266.253 331.135 273.022 324.366C279.791 317.597 283.594 308.416 283.594 298.844V278.219Z" fill="#53AEF9"/>
<path d="M247.5 319.469C237.927 319.469 228.747 315.666 221.978 308.897C215.209 302.128 211.406 292.948 211.406 283.375V298.844C211.406 308.416 215.209 317.597 221.978 324.366C228.747 331.135 237.927 334.937 247.5 334.937C257.073 334.937 266.253 331.135 273.022 324.366C279.791 317.597 283.594 308.416 283.594 298.844V283.375C283.594 292.948 279.791 302.128 273.022 308.897C266.253 315.666 257.073 319.469 247.5 319.469Z" fill="#2A5FD5"/>
<path d="M247.542 242.125C237.97 242.125 228.789 245.928 222.02 252.697C215.251 259.465 211.449 268.646 211.449 278.219V298.844C211.392 299.702 211.392 300.563 211.449 301.422C212.134 292.401 216.202 283.971 222.837 277.821C229.472 271.67 238.186 268.253 247.233 268.253C256.28 268.253 264.994 271.67 271.629 277.821C278.265 283.971 282.332 292.401 283.017 301.422C283.074 300.563 283.074 299.702 283.017 298.844V278.219C283.019 268.752 279.301 259.664 272.666 252.913C266.03 246.162 257.007 242.287 247.542 242.125Z" fill="#80F6FD"/>
<path d="M283.594 278.219C283.594 268.646 279.791 259.465 273.022 252.697C266.253 245.928 257.073 242.125 247.5 242.125C237.927 242.125 228.747 245.928 221.978 252.697C215.209 259.465 211.406 268.646 211.406 278.219V298.844C211.406 308.416 215.209 317.597 221.978 324.366C228.747 331.135 237.927 334.937 247.5 334.937C257.073 334.937 266.253 331.135 273.022 324.366C279.791 317.597 283.594 308.416 283.594 298.844V278.219Z" stroke="#45413C" stroke-width="7" stroke-linecap="round" stroke-linejoin="round"/>
<path d="M345.469 293.687C345.469 299.158 347.642 304.404 351.51 308.272C355.378 312.14 360.624 314.312 366.094 314.312C371.564 314.312 376.81 312.14 380.678 308.272C384.546 304.404 386.719 299.158 386.719 293.687C386.719 288.217 384.546 282.971 380.678 279.103C376.81 275.235 371.564 273.062 366.094 273.062C360.624 273.062 355.378 275.235 351.51 279.103C347.642 282.971 345.469 288.217 345.469 293.687Z" fill="#53AEF9" stroke="#45413C" stroke-width="7" stroke-linecap="round" stroke-linejoin="round"/>
<path d="M108.281 293.687C108.281 299.158 110.454 304.404 114.322 308.272C118.19 312.14 123.436 314.312 128.906 314.312C134.376 314.312 139.622 312.14 143.49 308.272C147.358 304.404 149.531 299.158 149.531 293.687C149.531 288.217 147.358 282.971 143.49 279.103C139.622 275.235 134.376 273.062 128.906 273.062C123.436 273.062 118.19 275.235 114.322 279.103C110.454 282.971 108.281 288.217 108.281 293.687Z" fill="#53AEF9" stroke="#45413C" stroke-width="7" stroke-linecap="round" stroke-linejoin="round"/>
<path d="M67.0312 371.031C67.0312 408.053 147.881 438.062 247.5 438.062C347.119 438.062 427.969 408.053 427.969 371.031V319.469C427.969 356.491 347.119 386.5 247.5 386.5C147.881 386.5 67.0312 356.491 67.0312 319.469V371.031Z" fill="#C0DCEB"/>
<path d="M247.5 386.5C147.881 386.5 67.0312 356.491 67.0312 319.469V345.25C67.0312 382.272 147.881 412.281 247.5 412.281C347.119 412.281 427.969 382.272 427.969 345.25V319.469C427.969 356.491 347.119 386.5 247.5 386.5Z" fill="#E8F4FA"/>
<path d="M67.0312 371.031C67.0312 408.053 147.881 438.062 247.5 438.062C347.119 438.062 427.969 408.053 427.969 371.031V319.469C427.969 356.491 347.119 386.5 247.5 386.5C147.881 386.5 67.0312 356.491 67.0312 319.469V371.031Z" stroke="#45413C" stroke-width="7" stroke-linecap="round" stroke-linejoin="round"/>
<path d="M118.594 118.375C118.594 125.213 121.31 131.77 126.145 136.605C130.98 141.44 137.537 144.156 144.375 144.156C151.213 144.156 157.77 141.44 162.605 136.605C167.44 131.77 170.156 125.213 170.156 118.375C170.156 111.537 167.44 104.98 162.605 100.145C157.77 95.31 151.213 92.5938 144.375 92.5938C137.537 92.5938 130.98 95.31 126.145 100.145C121.31 104.98 118.594 111.537 118.594 118.375Z" fill="#53AEF9"/>
<path d="M126.154 136.63C121.313 131.789 118.594 125.224 118.594 118.377C118.594 111.531 121.313 104.965 126.154 100.124C130.995 95.2831 137.561 92.5635 144.408 92.5635C151.254 92.5635 157.82 95.2831 162.661 100.124L126.154 136.63Z" fill="#80F6FD"/>
<path d="M118.594 118.375C118.594 125.213 121.31 131.77 126.145 136.605C130.98 141.44 137.537 144.156 144.375 144.156C151.213 144.156 157.77 141.44 162.605 136.605C167.44 131.77 170.156 125.213 170.156 118.375C170.156 111.537 167.44 104.98 162.605 100.145C157.77 95.31 151.213 92.5938 144.375 92.5938C137.537 92.5938 130.98 95.31 126.145 100.145C121.31 104.98 118.594 111.537 118.594 118.375V118.375Z" stroke="#45413C" stroke-width="7" stroke-linecap="round" stroke-linejoin="round"/>
<path d="M25.7813 139C25.7812 143.063 26.5815 147.086 28.1362 150.839C29.691 154.593 31.9698 158.003 34.8426 160.876C37.7154 163.749 41.126 166.028 44.8795 167.583C48.633 169.137 52.656 169.938 56.7188 169.938C60.7815 169.938 64.8045 169.137 68.558 167.583C72.3115 166.028 75.7221 163.749 78.5949 160.876C81.4677 158.003 83.7465 154.593 85.3013 150.839C86.856 147.086 87.6562 143.063 87.6562 139C87.6562 134.937 86.856 130.914 85.3013 127.161C83.7465 123.407 81.4677 119.997 78.5949 117.124C75.7221 114.251 72.3115 111.972 68.558 110.417C64.8045 108.863 60.7815 108.063 56.7188 108.062C52.656 108.063 48.633 108.863 44.8795 110.417C41.126 111.972 37.7154 114.251 34.8426 117.124C31.9698 119.997 29.691 123.407 28.1362 127.161C26.5815 130.914 25.7812 134.937 25.7813 139Z" fill="#53AEF9"/>
<path d="M34.8892 160.861C29.4244 154.997 26.4493 147.24 26.5908 139.225C26.7322 131.21 29.979 123.563 35.6473 117.894C41.3156 112.226 48.9627 108.979 56.9777 108.838C64.9926 108.696 72.7495 111.671 78.6142 117.136L34.8892 160.861Z" fill="#80F6FD"/>
<path d="M25.7813 139C25.7812 143.063 26.5815 147.086 28.1362 150.839C29.691 154.593 31.9698 158.003 34.8426 160.876C37.7154 163.749 41.126 166.028 44.8795 167.583C48.633 169.137 52.656 169.938 56.7188 169.938C60.7815 169.938 64.8045 169.137 68.558 167.583C72.3115 166.028 75.7221 163.749 78.5949 160.876C81.4677 158.003 83.7465 154.593 85.3013 150.839C86.856 147.086 87.6563 143.063 87.6562 139C87.6563 134.937 86.856 130.914 85.3013 127.161C83.7465 123.407 81.4677 119.997 78.5949 117.124C75.7221 114.251 72.3115 111.972 68.558 110.417C64.8045 108.863 60.7815 108.063 56.7188 108.062C52.656 108.063 48.633 108.863 44.8795 110.417C41.126 111.972 37.7154 114.251 34.8426 117.124C31.9698 119.997 29.691 123.407 28.1362 127.161C26.5815 130.914 25.7812 134.937 25.7813 139V139Z" stroke="#45413C" stroke-width="7" stroke-linecap="round" stroke-linejoin="round"/>
<path d="M216.562 87.4375C216.563 95.6426 219.822 103.512 225.624 109.314C231.426 115.116 239.295 118.375 247.5 118.375C255.705 118.375 263.574 115.116 269.376 109.314C275.178 103.512 278.438 95.6426 278.438 87.4375C278.438 79.2324 275.178 71.3633 269.376 65.5614C263.574 59.7595 255.705 56.5 247.5 56.5C239.295 56.5 231.426 59.7595 225.624 65.5614C219.822 71.3633 216.563 79.2324 216.562 87.4375Z" fill="#53AEF9"/>
<path d="M225.67 109.299C220.206 103.434 217.231 95.6772 217.372 87.6622C217.513 79.6473 220.76 72.0002 226.429 66.3319C232.097 60.6636 239.744 57.4167 247.759 57.2753C255.774 57.1339 263.531 60.109 269.395 65.5738L225.67 109.299Z" fill="#80F6FD"/>
<path d="M216.562 87.4375C216.563 95.6426 219.822 103.512 225.624 109.314C231.426 115.116 239.295 118.375 247.5 118.375C255.705 118.375 263.574 115.116 269.376 109.314C275.178 103.512 278.437 95.6426 278.438 87.4375C278.437 79.2324 275.178 71.3633 269.376 65.5614C263.574 59.7595 255.705 56.5 247.5 56.5C239.295 56.5 231.426 59.7595 225.624 65.5614C219.822 71.3633 216.563 79.2324 216.562 87.4375V87.4375Z" stroke="#45413C" stroke-width="7" stroke-linecap="round" stroke-linejoin="round"/>
<path d="M407.344 139C407.344 147.205 410.603 155.074 416.405 160.876C422.207 166.678 430.076 169.938 438.281 169.938C446.486 169.938 454.355 166.678 460.157 160.876C465.959 155.074 469.219 147.205 469.219 139C469.219 130.795 465.959 122.926 460.157 117.124C454.355 111.322 446.486 108.062 438.281 108.062C430.076 108.062 422.207 111.322 416.405 117.124C410.603 122.926 407.344 130.795 407.344 139Z" fill="#53AEF9"/>
<path d="M416.386 160.864C413.346 158.031 410.908 154.616 409.217 150.821C407.526 147.026 406.617 142.929 406.544 138.775C406.471 134.621 407.235 130.495 408.791 126.643C410.347 122.791 412.663 119.291 415.6 116.353C418.538 113.416 422.038 111.1 425.89 109.544C429.742 107.988 433.868 107.224 438.022 107.297C442.176 107.37 446.273 108.279 450.068 109.97C453.863 111.661 457.278 114.099 460.111 117.139L416.386 160.864Z" fill="#80F6FD"/>
<path d="M407.344 139C407.344 147.205 410.603 155.074 416.405 160.876C422.207 166.678 430.076 169.937 438.281 169.938C446.486 169.937 454.355 166.678 460.157 160.876C465.959 155.074 469.219 147.205 469.219 139C469.219 130.795 465.959 122.926 460.157 117.124C454.355 111.322 446.486 108.062 438.281 108.062C430.076 108.062 422.207 111.322 416.405 117.124C410.603 122.926 407.344 130.795 407.344 139Z" stroke="#45413C" stroke-width="7" stroke-linecap="round" stroke-linejoin="round"/>
</svg>
