<svg width="495" height="495" viewBox="0 0 495 495" fill="none" xmlns="http://www.w3.org/2000/svg">
<path d="M264.408 130.762C264.414 132.64 264.03 134.499 263.283 136.221C262.535 137.944 261.439 139.493 260.064 140.772C258.688 142.05 257.063 143.03 255.291 143.65C253.518 144.27 251.637 144.517 249.764 144.375C237.699 144.375 236.358 131.175 236.358 131.175C234.349 104.719 239.179 78.1909 250.383 54.1405C273.483 5.05298 304.627 -2.26889 320.405 39.8061C336.183 81.8811 309.577 48.1592 285.343 74.7655C272.466 90.6613 265.118 110.318 264.408 130.762Z" fill="#6DD627"/>
<path d="M262.758 78.0658C281.527 38.5689 305.658 26.5033 322.468 45.6845L320.405 39.8064C304.627 -2.26859 273.483 5.05329 250.383 53.7283C239.179 77.7787 234.349 104.307 236.358 130.763C236.358 130.763 237.183 142.931 248.321 144.375C248.273 121.487 253.199 98.8622 262.758 78.0658Z" fill="#9CEB60"/>
<path d="M264.408 130.762C264.414 132.64 264.03 134.499 263.283 136.221C262.535 137.944 261.439 139.493 260.064 140.772C258.688 142.05 257.063 143.03 255.291 143.65C253.518 144.27 251.637 144.517 249.764 144.375C237.699 144.375 236.358 131.175 236.358 131.175C234.349 104.719 239.179 78.1909 250.383 54.1405C273.483 5.05298 304.627 -2.26889 320.405 39.8061C336.183 81.8811 309.577 48.1592 285.343 74.7655C272.466 90.6613 265.118 110.318 264.408 130.762V130.762Z" stroke="#45413C" stroke-width="7" stroke-linecap="round" stroke-linejoin="round"/>
<path d="M377.951 109.107C361.22 103.368 343.399 101.528 325.849 103.726C308.298 105.925 291.482 112.103 276.683 121.791C268.093 127.688 257.918 130.845 247.498 130.845C237.079 130.845 226.904 127.688 218.314 121.791C203.515 112.103 186.698 105.925 169.148 103.726C151.597 101.528 133.776 103.368 117.045 109.107C52.1795 128.082 22.3764 221.719 50.6326 318.141C78.8889 414.563 154.686 477.366 219.242 458.288C224.386 456.815 229.363 454.81 234.092 452.307C238.209 450.077 242.817 448.91 247.498 448.91C252.18 448.91 256.788 450.077 260.905 452.307C265.634 454.81 270.61 456.815 275.755 458.288C340.311 477.366 416.108 414.563 444.364 318.141C472.62 221.719 442.817 128.082 377.951 109.107Z" fill="#FF6242"/>
<path d="M117.048 154.687C133.8 149.477 151.452 147.803 168.884 149.774C186.317 151.744 203.15 157.316 218.317 166.134C227.125 171.446 237.215 174.253 247.501 174.253C257.787 174.253 267.877 171.446 276.685 166.134C291.852 157.316 308.685 151.744 326.117 149.774C343.55 147.803 361.202 149.477 377.954 154.687C422.092 166.34 450.142 209.344 454.37 262.969C459.732 188.306 430.238 124.472 377.954 109.209C361.223 103.471 343.402 101.631 325.851 103.829C308.301 106.027 291.484 112.206 276.685 121.894C268.095 127.791 257.92 130.948 247.501 130.948C237.081 130.948 226.906 127.791 218.317 121.894C203.518 112.206 186.701 106.027 169.15 103.829C151.6 101.631 133.779 103.471 117.048 109.209C64.7634 124.472 35.2697 188.306 40.6322 262.969C45.0665 209.24 72.9103 166.237 117.048 154.687Z" fill="#FF866E"/>
<path d="M377.951 109.107C361.22 103.368 343.399 101.528 325.849 103.726C308.298 105.925 291.482 112.103 276.683 121.791C268.093 127.688 257.918 130.845 247.498 130.845C237.079 130.845 226.904 127.688 218.314 121.791C203.515 112.103 186.698 105.925 169.148 103.726C151.597 101.528 133.776 103.368 117.045 109.107C52.1795 128.082 22.3764 221.719 50.6326 318.141C78.8889 414.563 154.686 477.366 219.242 458.288C224.386 456.815 229.363 454.81 234.092 452.307C238.209 450.077 242.817 448.91 247.498 448.91C252.18 448.91 256.788 450.077 260.905 452.307C265.634 454.81 270.61 456.815 275.755 458.288C340.311 477.366 416.108 414.563 444.364 318.141C472.62 221.719 442.817 128.082 377.951 109.107Z" stroke="#45413C" stroke-width="7" stroke-linecap="round" stroke-linejoin="round"/>
</svg>
