<svg width="495" height="495" viewBox="0 0 495 495" fill="none" xmlns="http://www.w3.org/2000/svg">
<path d="M214.512 295.021C247.005 295.021 278.166 307.929 301.142 330.905C324.117 353.88 337.025 385.042 337.025 417.534V437.128H92V417.534C92 385.042 104.908 353.88 127.883 330.905C150.859 307.929 182.02 295.021 214.512 295.021V295.021Z" stroke="#45413C" stroke-width="6" stroke-linecap="round" stroke-linejoin="round"/>
<path d="M214.512 295.021C247.005 295.021 278.166 307.929 301.142 330.905C324.117 353.88 337.025 385.042 337.025 417.534V437.128H92V417.534C92 385.042 104.908 353.88 127.883 330.905C150.859 307.929 182.02 295.021 214.512 295.021Z" fill="#00B8F0"/>
<path d="M214.512 295.021C182.02 295.021 150.859 307.929 127.883 330.905C104.908 353.88 92 385.042 92 417.534V437.128H93.5469C98.0209 408.256 112.674 381.936 134.859 362.925C157.043 343.913 185.296 333.463 214.512 333.463C243.729 333.463 271.982 343.913 294.166 362.925C316.351 381.936 331.004 408.256 335.478 437.128H337.025V417.534C337.025 385.042 324.117 353.88 301.142 330.905C278.166 307.929 247.005 295.021 214.512 295.021Z" fill="#009FD9"/>
<path d="M275.769 311.419V377.006C275.769 379.741 274.682 382.364 272.748 384.298C270.814 386.232 268.191 387.319 265.456 387.319H163.569C160.834 387.319 158.211 386.232 156.277 384.298C154.343 382.364 153.256 379.741 153.256 377.006V311.419C145.138 316.142 137.564 321.745 130.672 328.125V437.128H298.353V328.125C291.461 321.745 283.887 316.142 275.769 311.419Z" fill="#FF8A14"/>
<path d="M275.77 349.678C283.913 354.404 291.49 360.044 298.354 366.488V328.125C291.462 321.745 283.888 316.142 275.77 311.419V349.678Z" fill="#EB6D00"/>
<path d="M153.256 349.678V311.419C145.138 316.142 137.564 321.745 130.672 328.125V366.488C137.536 360.044 145.113 354.404 153.256 349.678Z" fill="#EB6D00"/>
<path d="M275.769 311.419V377.006C275.769 379.741 274.682 382.364 272.748 384.298C270.814 386.232 268.191 387.319 265.456 387.319H163.569C160.834 387.319 158.211 386.232 156.277 384.298C154.343 382.364 153.256 379.741 153.256 377.006V311.419C145.138 316.142 137.564 321.745 130.672 328.125V437.128H298.353V328.125C291.461 321.745 283.887 316.142 275.769 311.419Z" stroke="#45413C" stroke-width="6" stroke-linecap="round" stroke-linejoin="round"/>
<path d="M214.512 282.44C214.512 282.44 162.949 281.822 162.949 311.212C163.927 332.897 171.722 353.72 185.224 370.715L214.512 345.656L244.315 370.715C257.817 353.72 265.612 332.897 266.59 311.212C266.59 281.822 214.512 282.44 214.512 282.44Z" fill="#009FD9" stroke="#45413C" stroke-width="6" stroke-linecap="round" stroke-linejoin="round"/>
<path d="M214.51 345.656L191.307 322.453C190.351 321.49 189.595 320.347 189.082 319.09C188.569 317.834 188.309 316.488 188.317 315.131V284.194C188.317 277.247 191.076 270.584 195.989 265.672C200.901 260.76 207.563 258 214.51 258C217.959 258 221.373 258.681 224.558 260.004C227.743 261.327 230.635 263.265 233.069 265.708C235.502 268.152 237.43 271.051 238.74 274.241C240.05 277.431 240.718 280.848 240.704 284.297V315.234C240.712 316.592 240.452 317.937 239.939 319.193C239.425 320.45 238.669 321.593 237.713 322.556L214.51 345.656Z" fill="#FFCEBF"/>
<path d="M214.51 258C211.062 258 207.647 258.681 204.463 260.004C201.278 261.327 198.386 263.265 195.952 265.708C193.518 268.152 191.591 271.051 190.281 274.241C188.971 277.431 188.303 280.848 188.317 284.297V290.381C188.317 297.328 191.076 303.991 195.989 308.903C200.901 313.815 207.563 316.575 214.51 316.575C221.457 316.575 228.12 313.815 233.032 308.903C237.944 303.991 240.704 297.328 240.704 290.381V284.297C240.718 280.848 240.05 277.431 238.74 274.241C237.43 271.051 235.502 268.152 233.069 265.708C230.635 263.265 227.743 261.327 224.558 260.004C221.373 258.681 217.959 258 214.51 258Z" fill="#FFB59E"/>
<path d="M214.51 345.656L191.307 322.453C190.351 321.49 189.595 320.347 189.082 319.09C188.569 317.834 188.309 316.488 188.317 315.131V284.194C188.317 277.247 191.076 270.584 195.989 265.672C200.901 260.76 207.563 258 214.51 258V258C217.959 258 221.373 258.681 224.558 260.004C227.743 261.327 230.635 263.265 233.069 265.708C235.502 268.152 237.43 271.051 238.74 274.241C240.05 277.431 240.718 280.848 240.704 284.297V315.234C240.712 316.592 240.452 317.937 239.939 319.193C239.425 320.45 238.669 321.593 237.713 322.556L214.51 345.656Z" stroke="#45413C" stroke-width="6" stroke-linecap="round" stroke-linejoin="round"/>
<path d="M214.512 345.656V387.319" stroke="#45413C" stroke-width="6" stroke-linecap="round" stroke-linejoin="round"/>
<path d="M305.777 393.609L321.555 399.075" stroke="#45413C" stroke-width="6" stroke-linecap="round" stroke-linejoin="round"/>
<path d="M297.836 416.297L313.614 421.866" stroke="#45413C" stroke-width="6" stroke-linecap="round" stroke-linejoin="round"/>
<path d="M214.511 43.5C206.023 43.5079 197.569 44.582 189.348 46.6969C170.167 51.0281 145.211 58.2469 122.627 53.9156C121.728 59.7325 122.034 65.6718 123.524 71.3659C125.014 77.0599 127.657 82.3875 131.289 87.0187C119.523 103.977 113.226 124.128 113.242 144.769V197.775H315.78V144.769C315.78 117.911 305.11 92.1525 286.119 73.1609C267.127 54.1694 241.369 43.5 214.511 43.5Z" fill="#A86C4D"/>
<path d="M214.51 43.5C206.022 43.5079 197.568 44.582 189.347 46.6969C170.166 51.0281 145.21 58.2469 122.625 53.9156C121.229 64.733 123.714 75.695 129.638 84.8531C149.844 85.2714 169.992 82.5224 189.347 76.7063C204.305 72.8485 219.947 72.4671 235.075 75.5913C250.202 78.7156 264.413 85.2625 276.619 94.7301C288.824 104.198 298.699 116.335 305.487 130.21C312.275 144.086 315.796 159.331 315.779 174.778V144.769C315.779 117.911 305.109 92.1525 286.118 73.1609C267.126 54.1694 241.368 43.5 214.51 43.5Z" fill="#DE926A"/>
<path d="M214.511 43.5C206.023 43.5079 197.569 44.582 189.348 46.6969C170.167 51.0281 145.211 58.2469 122.627 53.9156C121.728 59.7325 122.034 65.6718 123.524 71.3659C125.014 77.0599 127.657 82.3875 131.289 87.0187C119.523 103.977 113.226 124.128 113.242 144.769V197.775H315.78V144.769C315.78 117.911 305.11 92.1525 286.119 73.1609C267.127 54.1694 241.369 43.5 214.511 43.5V43.5Z" stroke="#45413C" stroke-width="6" stroke-linecap="round" stroke-linejoin="round"/>
<path d="M326.609 189.629C326.094 185.847 324.451 182.308 321.894 179.475C319.337 176.642 315.984 174.646 312.275 173.747L306.191 172.097C301.708 170.831 297.765 168.126 294.97 164.4C292.175 160.673 290.682 156.131 290.722 151.472V130.847C290.711 126.595 289.301 122.464 286.711 119.091C284.121 115.718 280.493 113.29 276.388 112.182C256.723 120.032 235.682 123.854 214.513 123.422C193.343 123.854 172.302 120.032 152.638 112.182C148.513 113.271 144.862 115.69 142.252 119.065C139.642 122.44 138.217 126.581 138.2 130.847V152.091C138.24 156.749 136.747 161.292 133.952 165.018C131.157 168.745 127.214 171.45 122.731 172.716L116.647 174.366C113.043 175.241 109.774 177.153 107.245 179.865C104.716 182.578 103.037 185.972 102.416 189.629C102.14 192.239 102.418 194.879 103.232 197.375C104.046 199.87 105.377 202.167 107.139 204.113C108.9 206.059 111.052 207.612 113.455 208.671C115.857 209.729 118.456 210.268 121.081 210.254H122.216C123.96 233.607 134.468 255.438 151.633 271.369C168.799 287.3 191.352 296.153 214.77 296.153C238.189 296.153 260.742 287.3 277.907 271.369C295.072 255.438 305.581 233.607 307.325 210.254H308.459C311.041 210.197 313.583 209.605 315.924 208.515C318.265 207.425 320.354 205.862 322.06 203.923C323.766 201.985 325.051 199.714 325.834 197.253C326.617 194.793 326.881 192.196 326.609 189.629Z" fill="#FFCEBF" stroke="#45413C" stroke-width="6" stroke-linecap="round" stroke-linejoin="round"/>
<path d="M158.516 187.875C158.516 189.981 159.352 192.001 160.841 193.49C162.331 194.979 164.35 195.816 166.456 195.816C168.562 195.816 170.582 194.979 172.071 193.49C173.56 192.001 174.397 189.981 174.397 187.875C174.397 185.769 173.56 183.749 172.071 182.26C170.582 180.771 168.562 179.935 166.456 179.935C164.35 179.935 162.331 180.771 160.841 182.26C159.352 183.749 158.516 185.769 158.516 187.875Z" fill="#45413C" stroke="#45413C" stroke-width="6" stroke-linecap="round" stroke-linejoin="round"/>
<path d="M270.51 187.875C270.51 189.981 269.674 192.001 268.184 193.49C266.695 194.979 264.676 195.816 262.57 195.816C260.464 195.816 258.444 194.979 256.955 193.49C255.466 192.001 254.629 189.981 254.629 187.875C254.629 185.769 255.466 183.749 256.955 182.26C258.444 180.771 260.464 179.935 262.57 179.935C264.676 179.935 266.695 180.771 268.184 182.26C269.674 183.749 270.51 185.769 270.51 187.875Z" fill="#45413C" stroke="#45413C" stroke-width="6" stroke-linecap="round" stroke-linejoin="round"/>
<path d="M185.223 236.344C184.578 236.338 183.939 236.474 183.351 236.741C182.763 237.008 182.241 237.401 181.82 237.891C181.389 238.376 181.072 238.953 180.893 239.578C180.715 240.203 180.679 240.86 180.789 241.5C182.181 249.433 186.326 256.62 192.493 261.8C198.661 266.979 206.457 269.818 214.511 269.818C222.565 269.818 230.361 266.979 236.528 261.8C242.696 256.62 246.84 249.433 248.233 241.5C248.343 240.86 248.307 240.203 248.128 239.578C247.95 238.953 247.633 238.376 247.201 237.891C246.791 237.389 246.27 236.989 245.68 236.721C245.09 236.453 244.446 236.324 243.798 236.344H185.223Z" fill="#FF6242"/>
<path d="M214.511 250.368C205.2 250.004 196.04 252.803 188.523 258.309C191.773 261.928 195.748 264.822 200.19 266.803C204.632 268.785 209.441 269.809 214.305 269.809C219.168 269.809 223.978 268.785 228.419 266.803C232.861 264.822 236.836 261.928 240.086 258.309C232.681 252.892 223.682 250.097 214.511 250.368Z" fill="#FFA694"/>
<path d="M185.223 236.344C184.578 236.338 183.939 236.474 183.351 236.741C182.763 237.008 182.241 237.401 181.82 237.891C181.389 238.376 181.072 238.953 180.893 239.578C180.715 240.203 180.679 240.86 180.789 241.5C182.181 249.433 186.326 256.62 192.493 261.8C198.661 266.979 206.457 269.818 214.511 269.818C222.565 269.818 230.361 266.979 236.528 261.8C242.696 256.62 246.84 249.433 248.233 241.5C248.343 240.86 248.307 240.203 248.128 239.578C247.95 238.953 247.633 238.376 247.201 237.891C246.791 237.389 246.27 236.989 245.68 236.721C245.09 236.453 244.446 236.324 243.798 236.344H185.223Z" stroke="#45413C" stroke-width="6" stroke-linecap="round" stroke-linejoin="round"/>
<path d="M142.941 221.803C142.941 223.444 144.028 225.018 145.962 226.178C147.896 227.338 150.519 227.99 153.254 227.99C155.989 227.99 158.612 227.338 160.546 226.178C162.48 225.018 163.566 223.444 163.566 221.803C163.566 220.162 162.48 218.588 160.546 217.428C158.612 216.267 155.989 215.615 153.254 215.615C150.519 215.615 147.896 216.267 145.962 217.428C144.028 218.588 142.941 220.162 142.941 221.803Z" fill="#FFB59E"/>
<path d="M265.457 221.803C265.457 223.444 266.544 225.018 268.477 226.178C270.411 227.338 273.034 227.99 275.77 227.99C278.505 227.99 281.128 227.338 283.062 226.178C284.996 225.018 286.082 223.444 286.082 221.803C286.082 220.162 284.996 218.588 283.062 217.428C281.128 216.267 278.505 215.615 275.77 215.615C273.034 215.615 270.411 216.267 268.477 217.428C266.544 218.588 265.457 220.162 265.457 221.803Z" fill="#FFB59E"/>
<path d="M423.941 254.976C421.704 254.186 419.244 254.316 417.104 255.339C414.963 256.361 413.316 258.192 412.525 260.429L387.448 331.337C385.906 335.698 382.7 339.272 378.531 341.278C374.361 343.283 369.568 343.558 365.198 342.04L356.13 338.836L387.042 251.425C387.833 249.188 387.703 246.729 386.681 244.589C385.659 242.449 383.828 240.802 381.591 240.012C379.354 239.221 376.895 239.352 374.754 240.374C372.613 241.397 370.966 243.228 370.175 245.465L339.262 332.876L330.194 329.672C325.841 328.106 322.285 324.882 320.303 320.703C318.321 316.524 318.074 311.73 319.616 307.369L344.693 236.46C345.484 234.224 345.354 231.765 344.332 229.625C343.309 227.484 341.478 225.838 339.242 225.047C337.005 224.257 334.545 224.388 332.405 225.41C330.264 226.433 328.617 228.264 327.826 230.5L303.775 298.507C300.373 308.127 300.932 318.702 305.33 327.908C309.727 337.114 317.602 344.195 327.222 347.595L333.479 349.806L322.544 380.726L339.412 386.686L350.347 355.766L356.422 357.913C366.043 361.312 376.62 360.751 385.829 356.353C395.037 351.954 402.121 344.079 405.523 334.46L429.573 266.453C429.971 265.33 430.14 264.139 430.071 262.951C430.002 261.762 429.696 260.599 429.171 259.53C428.646 258.461 427.914 257.507 427.015 256.725C426.117 255.943 425.072 255.349 423.941 254.976Z" fill="#ADC4D9" stroke="#45413C" stroke-width="6" stroke-linecap="round" stroke-linejoin="round"/>
<path d="M350.226 383.709L313.72 370.922C312.195 370.231 310.542 369.866 308.868 369.848C307.194 369.831 305.534 370.162 303.995 370.821C302.456 371.48 301.071 372.452 299.928 373.676C298.785 374.899 297.909 376.347 297.356 377.927C296.803 379.508 296.584 381.186 296.715 382.855C296.846 384.524 297.322 386.148 298.115 387.623C298.907 389.098 299.998 390.392 301.317 391.422C302.637 392.453 304.156 393.198 305.779 393.609C304.254 392.919 302.602 392.553 300.927 392.536C299.253 392.519 297.594 392.85 296.055 393.509C294.515 394.168 293.13 395.14 291.987 396.363C290.844 397.587 289.968 399.035 289.415 400.615C288.862 402.195 288.644 403.873 288.774 405.543C288.905 407.212 289.382 408.835 290.174 410.31C290.966 411.785 292.057 413.079 293.377 414.11C294.696 415.14 296.216 415.885 297.839 416.297L297.014 416.503C294.45 416.105 291.828 416.614 289.6 417.943C287.372 419.272 285.678 421.338 284.81 423.783C283.942 426.227 283.955 428.898 284.846 431.335C285.737 433.771 287.451 435.82 289.692 437.128L327.126 450.225C332.19 451.894 337.703 451.538 342.51 449.231C347.316 446.924 351.043 442.845 352.907 437.85L363.22 409.593C364.889 404.437 364.462 398.831 362.031 393.987C359.599 389.143 355.359 385.451 350.226 383.709Z" fill="#FFCEBF"/>
<path d="M357.857 423.207L362.601 409.388C364.24 404.338 363.868 398.85 361.563 394.067C359.258 389.284 355.197 385.574 350.226 383.71L313.72 370.922C311.656 370.184 309.426 370.037 307.283 370.499C305.14 370.961 303.169 372.013 301.592 373.536C300.016 375.059 298.896 376.993 298.36 379.119C297.825 381.244 297.894 383.478 298.56 385.566C300.065 384.574 301.775 383.937 303.562 383.705C305.349 383.473 307.165 383.651 308.873 384.225L345.379 397.013C350.49 398.856 354.666 402.64 357.003 407.545C359.339 412.449 359.646 418.077 357.857 423.207Z" fill="#FFDCD1"/>
<path d="M350.226 383.709L313.72 370.922C312.195 370.231 310.542 369.866 308.868 369.848C307.194 369.831 305.534 370.162 303.995 370.821C302.456 371.48 301.071 372.452 299.928 373.676C298.785 374.899 297.909 376.347 297.356 377.927C296.803 379.508 296.584 381.186 296.715 382.855C296.846 384.524 297.322 386.148 298.115 387.623C298.907 389.098 299.998 390.392 301.317 391.422C302.637 392.453 304.156 393.198 305.779 393.609C304.254 392.919 302.602 392.553 300.927 392.536C299.253 392.519 297.594 392.85 296.055 393.509C294.515 394.168 293.13 395.14 291.987 396.363C290.844 397.587 289.968 399.035 289.415 400.615C288.862 402.195 288.644 403.873 288.774 405.543C288.905 407.212 289.382 408.835 290.174 410.31C290.966 411.785 292.057 413.079 293.377 414.11C294.696 415.14 296.216 415.885 297.839 416.297L297.014 416.503C294.45 416.105 291.828 416.614 289.6 417.943C287.372 419.272 285.678 421.338 284.81 423.783C283.942 426.227 283.955 428.898 284.846 431.335C285.737 433.771 287.451 435.82 289.692 437.128L327.126 450.225C332.19 451.894 337.703 451.538 342.51 449.231C347.316 446.924 351.043 442.845 352.907 437.85L363.22 409.593C364.889 404.437 364.462 398.831 362.031 393.987C359.599 389.143 355.359 385.451 350.226 383.709Z" stroke="#45413C" stroke-width="6" stroke-linecap="round" stroke-linejoin="round"/>
</svg>
