<svg width="502" height="502" viewBox="0 0 502 502" fill="none" xmlns="http://www.w3.org/2000/svg">
<path d="M251.499 486.125C237.093 486.125 222.829 483.282 209.523 477.76C196.218 472.238 184.133 464.144 173.961 453.943C163.789 443.742 155.73 431.633 150.245 418.312C144.761 404.991 141.959 390.718 142 376.312V125.312C141.959 110.907 144.761 96.634 150.245 83.3128C155.73 69.9916 163.789 57.8834 173.961 47.6823C184.133 37.4811 196.218 29.3874 209.523 23.865C222.829 18.3426 237.093 15.4999 251.499 15.5C265.905 15.4999 280.17 18.3426 293.475 23.865C306.781 29.3874 318.866 37.4811 329.038 47.6823C339.21 57.8834 347.269 69.9916 352.753 83.3128C358.237 96.634 361.039 110.907 360.998 125.312V376.312C361.039 390.718 358.237 404.991 352.753 418.312C347.269 431.633 339.21 443.742 329.038 453.943C318.866 464.144 306.781 472.238 293.475 477.76C280.17 483.282 265.905 486.125 251.499 486.125Z" fill="#DAEDF7"/>
<path d="M251.499 15.5C237.093 15.4999 222.829 18.3426 209.523 23.865C196.218 29.3874 184.133 37.4811 173.961 47.6823C163.789 57.8834 155.73 69.9916 150.245 83.3128C144.761 96.634 141.959 110.907 142 125.313V152.609C142 123.568 153.537 95.7165 174.072 75.1814C194.607 54.6465 222.458 43.11 251.499 43.11C280.54 43.11 308.392 54.6465 328.926 75.1814C349.462 95.7165 360.998 123.568 360.998 152.609V125.313C361.039 110.907 358.237 96.634 352.753 83.3128C347.269 69.9916 339.21 57.8834 329.038 47.6823C318.866 37.4811 306.781 29.3874 293.475 23.865C280.17 18.3426 265.905 15.4999 251.499 15.5Z" fill="white"/>
<path d="M251.499 486.125C237.093 486.125 222.829 483.282 209.523 477.76C196.218 472.238 184.133 464.144 173.961 453.943C163.789 443.742 155.73 431.633 150.245 418.312C144.761 404.991 141.959 390.718 142 376.312V125.312C141.959 110.907 144.761 96.634 150.245 83.3128C155.73 69.9915 163.789 57.8834 173.961 47.6823C184.133 37.4811 196.218 29.3874 209.523 23.865C222.829 18.3426 237.093 15.4999 251.499 15.5V15.5C265.905 15.4999 280.17 18.3426 293.475 23.865C306.781 29.3874 318.866 37.4811 329.038 47.6823C339.21 57.8834 347.269 69.9915 352.753 83.3128C358.237 96.634 361.039 110.907 360.998 125.312V376.312C361.039 390.718 358.237 404.991 352.753 418.312C347.269 431.633 339.21 443.742 329.038 453.943C318.866 464.144 306.781 472.238 293.475 477.76C280.17 483.282 265.905 486.125 251.499 486.125V486.125Z" stroke="#45413C" stroke-width="7" stroke-linecap="round" stroke-linejoin="round"/>
<path d="M251.497 458.724C240.689 458.724 229.988 456.59 220.007 452.445C210.026 448.299 200.961 442.224 193.334 434.567C185.706 426.91 179.665 417.823 175.558 407.826C171.451 397.829 169.358 387.12 169.399 376.312V125.312C169.358 114.504 171.451 103.795 175.558 93.7982C179.665 83.8014 185.706 74.7139 193.334 67.0571C200.961 59.4004 210.026 53.325 220.007 49.1796C229.988 45.0342 240.689 42.9003 251.497 42.9004C262.305 42.9003 273.006 45.0342 282.987 49.1796C292.968 53.325 302.033 59.4004 309.66 67.0571C317.288 74.7139 323.329 83.8014 327.436 93.7982C331.543 103.795 333.636 114.504 333.595 125.312V376.312C333.636 387.12 331.543 397.829 327.436 407.826C323.329 417.823 317.288 426.91 309.66 434.567C302.033 442.224 292.968 448.299 282.987 452.445C273.006 456.59 262.305 458.724 251.497 458.724Z" fill="#87898C"/>
<path d="M251.497 42.9004C240.689 42.9003 229.988 45.0342 220.007 49.1796C210.026 53.325 200.961 59.4004 193.334 67.0571C185.706 74.7139 179.665 83.8014 175.558 93.7982C171.451 103.795 169.358 114.504 169.399 125.312V154.072C169.399 132.299 178.049 111.417 193.445 96.0205C208.841 80.6241 229.723 71.9746 251.497 71.9746C273.271 71.9746 294.153 80.6241 309.549 96.0205C324.945 111.417 333.595 132.299 333.595 154.072V125.312C333.636 114.504 331.543 103.795 327.436 93.7982C323.329 83.8014 317.288 74.7139 309.66 67.0571C302.033 59.4004 292.968 53.325 282.987 49.1796C273.006 45.0342 262.305 42.9003 251.497 42.9004Z" fill="#656769"/>
<path d="M251.497 458.724C240.689 458.724 229.988 456.59 220.007 452.445C210.026 448.299 200.961 442.224 193.334 434.567C185.706 426.91 179.665 417.823 175.558 407.826C171.451 397.829 169.358 387.12 169.399 376.312V125.312C169.358 114.504 171.451 103.795 175.558 93.7982C179.665 83.8014 185.706 74.7139 193.334 67.0571C200.961 59.4004 210.026 53.325 220.007 49.1796C229.988 45.0342 240.689 42.9003 251.497 42.9004V42.9004C262.305 42.9003 273.006 45.0342 282.987 49.1796C292.968 53.325 302.033 59.4004 309.66 67.0571C317.288 74.7139 323.329 83.8014 327.436 93.7982C331.543 103.795 333.636 114.504 333.595 125.312V376.312C333.636 387.12 331.543 397.829 327.436 407.826C323.329 417.823 317.288 426.91 309.66 434.567C302.033 442.224 292.968 448.299 282.987 452.445C273.006 456.59 262.305 458.724 251.497 458.724V458.724Z" stroke="#45413C" stroke-width="7" stroke-linecap="round" stroke-linejoin="round"/>
<path d="M298.406 255.554C298.277 243.073 293.195 231.155 284.278 222.421C275.361 213.687 263.339 208.853 250.858 208.982C238.377 209.112 226.459 214.194 217.725 223.111C208.991 232.028 204.157 244.049 204.286 256.531C204.416 269.012 209.498 280.93 218.415 289.664C227.332 298.398 239.353 303.232 251.835 303.102C264.316 302.973 276.234 297.891 284.968 288.974C293.702 280.057 298.536 268.035 298.406 255.554Z" fill="#FFE500"/>
<path d="M251.832 303.101C262.543 303.048 272.914 299.333 281.224 292.575C289.535 285.817 295.284 276.421 297.52 265.945C299.756 255.47 298.343 244.545 293.516 234.983C288.689 225.421 280.739 217.797 270.983 213.374L219.487 290.363C228.242 298.591 239.818 303.15 251.832 303.101Z" fill="#FFF48C"/>
<path d="M299.656 375.818C299.527 363.337 294.445 351.418 285.528 342.685C276.611 333.951 264.589 329.117 252.108 329.246C239.627 329.376 227.709 334.458 218.975 343.375C210.241 352.292 205.407 364.313 205.536 376.794C205.666 389.275 210.748 401.194 219.665 409.928C228.582 418.662 240.603 423.496 253.085 423.366C265.566 423.237 277.484 418.154 286.218 409.237C294.952 400.32 299.786 388.299 299.656 375.818Z" fill="#6DD627"/>
<path d="M253.082 423.366C263.793 423.312 274.164 419.598 282.474 412.84C290.785 406.082 296.534 396.685 298.77 386.21C301.006 375.735 299.593 364.81 294.766 355.248C289.939 345.686 281.989 338.061 272.233 333.639L220.737 410.628C229.492 418.855 241.068 423.414 253.082 423.366Z" fill="#9CEB60"/>
<path d="M297.16 135.29C297.031 122.809 291.949 110.89 283.032 102.156C274.115 93.4223 262.093 88.5883 249.612 88.7178C237.131 88.8473 225.213 93.9295 216.479 102.847C207.745 111.764 202.911 123.785 203.04 136.266C203.17 148.747 208.252 160.665 217.169 169.399C226.086 178.133 238.107 182.967 250.588 182.838C263.07 182.708 274.988 177.626 283.722 168.709C292.456 159.792 297.29 147.771 297.16 135.29Z" fill="#FF6242"/>
<path d="M250.586 182.838C261.297 182.784 271.668 179.07 279.978 172.312C288.288 165.553 294.038 156.157 296.274 145.682C298.51 135.206 297.097 124.281 292.27 114.719C287.443 105.157 279.492 97.5329 269.737 93.1108L218.241 170.099C226.996 178.327 238.572 182.886 250.586 182.838Z" fill="#FF866E"/>
<path d="M204.438 256.042C204.438 268.524 209.396 280.494 218.222 289.32C227.048 298.146 239.018 303.104 251.5 303.104C263.982 303.104 275.952 298.146 284.778 289.32C293.604 280.494 298.562 268.524 298.562 256.042C298.562 243.56 293.604 231.59 284.778 222.764C275.952 213.938 263.982 208.979 251.5 208.979C239.018 208.979 227.048 213.938 218.222 222.764C209.396 231.59 204.438 243.56 204.438 256.042V256.042Z" stroke="#45413C" stroke-width="7" stroke-linecap="round" stroke-linejoin="round"/>
<path d="M204.438 135.771C204.438 148.252 209.396 160.223 218.222 169.049C227.048 177.875 239.018 182.833 251.5 182.833C263.982 182.833 275.952 177.875 284.778 169.049C293.604 160.223 298.562 148.252 298.562 135.771C298.562 123.289 293.604 111.318 284.778 102.492C275.952 93.6664 263.982 88.708 251.5 88.708C239.018 88.708 227.048 93.6664 218.222 102.492C209.396 111.318 204.438 123.289 204.438 135.771Z" stroke="#45413C" stroke-width="7" stroke-linecap="round" stroke-linejoin="round"/>
<path d="M204.438 376.312C204.438 388.794 209.396 400.765 218.222 409.591C227.048 418.417 239.018 423.375 251.5 423.375C263.982 423.375 275.952 418.417 284.778 409.591C293.604 400.765 298.562 388.794 298.562 376.312C298.562 363.831 293.604 351.86 284.778 343.034C275.952 334.208 263.982 329.25 251.5 329.25C239.018 329.25 227.048 334.208 218.222 343.034C209.396 351.86 204.438 363.831 204.438 376.312Z" stroke="#45413C" stroke-width="7" stroke-linecap="round" stroke-linejoin="round"/>
<path d="M303.79 373.175C303.79 402.04 295.319 347.03 251.499 347.03C207.678 347.03 199.207 402.04 199.207 373.175C199.207 359.307 204.716 346.006 214.523 336.2C224.329 326.393 237.63 320.884 251.499 320.884C265.367 320.884 278.668 326.393 288.474 336.2C298.281 346.006 303.79 359.307 303.79 373.175Z" fill="#BDBEC0" stroke="#45413C" stroke-width="7" stroke-linecap="round" stroke-linejoin="round"/>
<path d="M303.79 252.904C303.79 281.769 295.319 226.758 251.499 226.758C207.678 226.758 199.207 282.187 199.207 252.904C199.207 239.035 204.716 225.735 214.523 215.928C224.329 206.122 237.63 200.612 251.499 200.612C265.367 200.612 278.668 206.122 288.474 215.928C298.281 225.735 303.79 239.035 303.79 252.904Z" fill="#BDBEC0" stroke="#45413C" stroke-width="7" stroke-linecap="round" stroke-linejoin="round"/>
<path d="M303.79 132.633C303.79 161.498 295.319 106.488 251.499 106.488C207.678 106.488 199.207 161.498 199.207 132.633C199.207 118.765 204.716 105.464 214.523 95.6577C224.329 85.8511 237.63 80.3418 251.499 80.3418C265.367 80.3418 278.668 85.8511 288.474 95.6577C298.281 105.464 303.79 118.765 303.79 132.633Z" fill="#BDBEC0" stroke="#45413C" stroke-width="7" stroke-linecap="round" stroke-linejoin="round"/>
</svg>
