<svg width="495" height="495" viewBox="0 0 495 495" fill="none" xmlns="http://www.w3.org/2000/svg">
<path d="M50.75 174.476H319.75V383.476H50.75V174.476Z" fill="#FFE500"/>
<path d="M295.45 175.187H73.9375C65.7324 175.187 57.8633 178.447 52.0614 184.249C46.2595 190.05 43 197.92 43 206.125V247.375C43 239.17 46.2595 231.3 52.0614 225.499C57.8633 219.697 65.7324 216.437 73.9375 216.437H295.656C303.861 216.437 311.73 219.697 317.532 225.499C323.334 231.3 326.594 239.17 326.594 247.375V206.125C326.594 202.045 325.787 198.005 324.219 194.238C322.652 190.471 320.354 187.051 317.46 184.175C314.565 181.3 311.13 179.025 307.353 177.483C303.575 175.94 299.53 175.16 295.45 175.187Z" fill="#FFF48C"/>
<path d="M45.75 174.476H321.75V384.476H45.75V174.476Z" stroke="#45413C" stroke-width="7" stroke-linecap="round" stroke-linejoin="round"/>
<path d="M179.591 18.5002C150.233 18.582 122.104 30.2947 101.365 51.073C80.6249 71.8514 68.9647 100.002 68.9375 129.36V173.188H115.344V129.36C115.344 112.266 122.134 95.8716 134.222 83.7843C146.309 71.697 162.703 64.9064 179.797 64.9064C196.891 64.9064 213.285 71.697 225.372 83.7843C237.459 95.8716 244.25 112.266 244.25 129.36V173.188H290.656V129.36C290.656 114.784 287.782 100.351 282.198 86.8878C276.614 73.4243 268.43 61.1941 258.113 50.8971C247.797 40.6002 235.552 32.4387 222.078 26.8796C208.604 21.3205 194.166 18.4731 179.591 18.5002Z" fill="#DAEDF7"/>
<path d="M179.591 18.5002C150.233 18.582 122.104 30.2947 101.365 51.073C80.6249 71.8514 68.9647 100.002 68.9375 129.36V155.141C68.9375 125.739 80.6173 97.5416 101.407 76.7514C122.198 55.9612 150.395 44.2814 179.797 44.2814C209.199 44.2814 237.396 55.9612 258.186 76.7514C278.976 97.5416 290.656 125.739 290.656 155.141V129.36C290.656 114.784 287.782 100.351 282.198 86.8878C276.614 73.4243 268.43 61.1941 258.113 50.8971C247.797 40.6002 235.552 32.4387 222.078 26.8796C208.604 21.3205 194.166 18.4731 179.591 18.5002Z" fill="white"/>
<path d="M179.591 18.5002C150.233 18.582 122.104 30.2947 101.365 51.073C80.6249 71.8514 68.9647 100.002 68.9375 129.36V173.188H115.344V129.36C115.344 112.266 122.134 95.8716 134.222 83.7843C146.309 71.697 162.703 64.9064 179.797 64.9064C196.891 64.9064 213.285 71.697 225.372 83.7843C237.459 95.8716 244.25 112.266 244.25 129.36V173.188H290.656V129.36C290.656 114.784 287.782 100.351 282.198 86.8878C276.614 73.4243 268.43 61.1941 258.113 50.8971C247.797 40.6002 235.552 32.4387 222.078 26.8796C208.604 21.3205 194.166 18.4731 179.591 18.5002V18.5002Z" stroke="#45413C" stroke-width="7" stroke-linecap="round" stroke-linejoin="round"/>
<path d="M332.352 245.539C346.561 235.498 363.859 230.796 381.196 232.263C398.515 233.728 414.762 241.257 427.077 253.521C439.009 265.909 446.242 282.074 447.528 299.226C448.815 316.383 444.07 333.451 434.112 347.482C424.155 361.514 409.61 371.628 392.99 376.078C376.37 380.528 358.717 379.035 343.081 371.856L340.885 370.848L339.164 372.545L309.053 402.233C308.815 402.399 308.584 402.573 308.398 402.718C308.212 402.863 308.015 403.025 307.83 403.187C307.672 403.325 307.421 403.55 307.193 403.811C307.129 403.884 306.948 404.092 306.766 404.396L300.963 409.439L300.871 409.519L300.786 409.604L238.592 471.695L236.511 471.684L236.516 472.653C236.17 472.668 235.823 472.658 235.478 472.62H235.476L215.797 470.457H215.798C214.258 470.279 212.824 469.582 211.734 468.479C210.644 467.377 209.963 465.935 209.803 464.394L209.801 464.374L209.798 464.355L207.532 444.69C207.433 443.687 207.558 442.673 207.898 441.724C208.24 440.769 208.791 439.903 209.51 439.188L209.513 439.186L307.585 341.526L309.339 339.779L308.276 337.544C300.807 321.83 299.127 303.982 303.531 287.15C307.936 270.318 318.143 255.581 332.352 245.539ZM404.063 257.304C401.517 257.259 398.987 257.728 396.625 258.682C394.263 259.636 392.118 261.056 390.316 262.857C388.515 264.659 387.095 266.804 386.141 269.166C385.187 271.528 384.719 274.058 384.764 276.604C384.809 279.151 385.366 281.663 386.402 283.99C387.439 286.317 388.934 288.411 390.798 290.147C394.394 293.498 399.149 295.322 404.063 295.235C408.978 295.149 413.666 293.158 417.142 289.683C420.617 286.207 422.609 281.519 422.695 276.604C422.782 271.69 420.957 266.935 417.606 263.339C415.87 261.475 413.776 259.98 411.449 258.943C409.122 257.907 406.61 257.349 404.063 257.304Z" fill="#FFAA54" stroke="#3C3C3B" stroke-width="7"/>
<path d="M324.499 281.613C333.231 273.576 344.109 267.82 356.026 264.929C367.942 262.039 373.629 259.961 385.503 263C388.143 261.345 394.654 255 404.503 255C408.003 255 416.003 258.477 416.003 259.477C419.503 261.977 424.28 269.039 424.503 272C424.766 275.5 426.003 283 424.503 285.05C433.883 293.8 440.784 301.938 443.503 314C445.734 304.621 443.54 294.399 441.171 285.05C438.801 275.7 434.193 266.962 427.687 259.477C421.181 251.993 412.943 245.953 403.578 241.804C394.214 237.654 383.962 235.5 373.578 235.5C363.195 235.5 352.943 237.654 343.578 241.804C334.214 245.953 325.975 251.993 319.47 259.477C312.964 266.962 308.356 275.7 305.986 285.05C303.616 294.399 304.006 305 305.986 314C308.801 301.934 315.09 290.368 324.499 281.613Z" fill="#FFCC99"/>
<path d="M212.107 472.249L309.56 374.693C305.79 366.597 304.301 359.894 303.5 351L211.488 439.868C210.4 440.95 209.566 442.261 209.049 443.706C208.531 445.151 208.343 446.694 208.498 448.221L210.766 467.918C210.848 469.45 211.309 470.938 212.107 472.249Z" fill="#FFCC99"/>
<path d="M212 469.272L306.875 374.5" stroke="#45413C" stroke-width="7" stroke-linecap="round" stroke-linejoin="round"/>
</svg>
