<svg width="495" height="495" viewBox="0 0 495 495" fill="none" xmlns="http://www.w3.org/2000/svg">
<path d="M377.539 133.197C375.131 131.926 372.495 131.145 369.783 130.898C367.071 130.651 364.337 130.943 361.739 131.758C359.141 132.573 356.73 133.894 354.645 135.646C352.56 137.397 350.843 139.544 349.592 141.963C344.471 152.173 337.108 161.094 328.054 168.058C319.001 175.022 308.49 179.851 297.308 182.181C287.124 184.242 276.76 185.278 266.37 185.275H199.339C184.656 185.267 170.152 188.508 156.87 194.766C143.587 201.025 131.853 210.144 122.511 221.472L111.27 234.775C107.839 238.985 106.207 244.379 106.728 249.785C107.249 255.191 109.882 260.173 114.055 263.65C118.271 267.114 123.687 268.765 129.119 268.243C134.55 267.721 139.553 265.069 143.033 260.866L154.686 247.356C160.17 240.683 167.066 235.307 174.875 231.616C182.685 227.925 191.216 226.01 199.854 226.01V301.6H291.636V225.081L305.558 222.194C322.842 218.614 339.1 211.195 353.13 200.484C367.16 189.774 378.604 176.048 386.614 160.319C388.901 155.502 389.233 149.986 387.541 144.93C385.849 139.873 382.264 135.668 377.539 133.197Z" fill="#FFCEBF" stroke="#45413C" stroke-width="6" stroke-linecap="round" stroke-linejoin="round"/>
<path d="M340.312 155.987C329.381 169.364 314.209 178.605 297.309 182.181C287.125 184.241 276.761 185.278 266.371 185.275H199.34C185.327 185.294 171.475 188.261 158.683 193.982C145.892 199.702 134.446 208.05 125.09 218.481L154.687 246.428C160.176 239.995 166.988 234.823 174.659 231.263C182.329 227.704 190.677 225.841 199.134 225.803V301.394H290.915V225.081L304.837 222.194C331.261 216.727 355.022 202.391 372.177 181.562L340.312 155.987Z" fill="#00B8F0" stroke="#45413C" stroke-width="6" stroke-linecap="round" stroke-linejoin="round"/>
<path d="M291.534 182.903C283.216 184.264 274.801 184.954 266.372 184.966H202.847L197.484 204.25L227.803 217.966L217.491 246.325L247.5 276.025L277.716 246.325L268.125 217.966L297.516 204.25L291.534 182.903Z" fill="white" stroke="#45413C" stroke-width="6" stroke-linecap="round" stroke-linejoin="round"/>
<path d="M333.813 418.75C336.669 418.758 339.512 419.139 342.27 419.884C340.911 375.297 322.448 332.942 290.707 301.6H198.926C198.96 318.545 195.286 335.293 188.16 350.668C181.034 366.042 170.629 379.671 157.676 390.596L181.601 419.368C183.441 421.702 184.967 424.268 186.138 427C215.874 403.734 236.731 370.974 245.229 334.187C279.879 334.187 296.791 380.284 296.791 418.853L333.813 418.75Z" fill="#00B8F0" stroke="#45413C" stroke-width="6" stroke-linecap="round" stroke-linejoin="round"/>
<path d="M296.793 418.75H333.712C337.864 418.737 341.979 419.543 345.819 421.123C349.66 422.702 353.151 425.025 356.092 427.956C359.033 430.888 361.367 434.371 362.959 438.207C364.551 442.042 365.371 446.154 365.371 450.306H307.105C304.37 450.306 301.747 449.22 299.813 447.286C297.879 445.352 296.793 442.729 296.793 439.994V418.75Z" fill="#656769" stroke="#45413C" stroke-width="6" stroke-linecap="round" stroke-linejoin="round"/>
<path d="M158.137 390.617L181.53 419.178C186.833 425.653 189.347 433.969 188.519 442.297C187.691 450.625 183.588 458.283 177.113 463.586L140.259 418.591C138.526 416.475 137.704 413.757 137.975 411.036C138.246 408.314 139.586 405.811 141.702 404.078L158.137 390.617Z" fill="#656769" stroke="#45413C" stroke-width="6" stroke-linecap="round" stroke-linejoin="round"/>
<path d="M247.5 276.025L271.631 184.862H224.297L247.5 276.025Z" fill="#FFCEBF" stroke="#45413C" stroke-width="6" stroke-linecap="round" stroke-linejoin="round"/>
<path d="M247.5 276.025V301.6" stroke="#45413C" stroke-width="6" stroke-linecap="round" stroke-linejoin="round"/>
<path d="M304.73 108.962C304.73 116.059 303.333 123.085 300.617 129.642C297.901 136.198 293.921 142.155 288.903 147.173C283.885 152.19 277.928 156.171 271.372 158.886C264.816 161.602 257.789 163 250.693 163C243.597 163 236.57 161.602 230.014 158.886C223.458 156.171 217.501 152.19 212.483 147.173C207.465 142.155 203.484 136.198 200.769 129.642C198.053 123.085 196.655 116.059 196.655 108.962C196.655 101.866 198.053 94.8392 200.769 88.2831C203.484 81.7269 207.465 75.7699 212.483 70.752C217.501 65.7342 223.458 61.7538 230.014 59.0382C236.57 56.3225 243.597 54.9248 250.693 54.9248C257.789 54.9248 264.816 56.3225 271.372 59.0382C277.928 61.7538 283.885 65.7342 288.903 70.752C293.921 75.7699 297.901 81.7269 300.617 88.2831C303.333 94.8392 304.73 101.866 304.73 108.962Z" fill="#FFCEBF" stroke="#45413C" stroke-width="6" stroke-linecap="round" stroke-linejoin="round"/>
<path d="M284.517 151.244L283.073 150.522C277.838 148.03 273.251 144.358 269.672 139.796C266.094 135.233 263.621 129.904 262.448 124.225C265.65 124.239 268.814 123.533 271.706 122.158C274.598 120.784 277.143 118.776 279.154 116.285C284.104 108.344 280.495 91.6377 270.492 89.7814C260.488 87.9252 254.714 100.713 254.714 100.713C254.714 100.713 235.429 87.3064 196.757 89.3689C167.676 91.3283 167.16 46.4689 183.145 31.3096C189.126 40.3846 202.842 45.7471 240.07 40.1783C280.598 34.1971 301.945 52.3471 311.535 76.9939C323.292 109.375 308.648 143.097 284.517 151.244Z" fill="#FFC44D"/>
<path d="M311.535 101.434C302.357 76.7875 280.598 58.6375 240.07 64.6187C215.526 68.3312 201.192 67.3 192.632 63.4844C190.853 62.6687 188.918 62.2464 186.96 62.2464C185.003 62.2464 183.068 62.6687 181.288 63.4844C179.552 64.3622 178.021 65.5968 176.795 67.1073C175.568 68.6179 174.675 70.3703 174.173 72.25C172.132 65.1694 171.883 57.6924 173.449 50.4919C175.015 43.2913 178.347 36.5931 183.145 31C189.126 40.075 202.842 45.4375 240.07 39.8687C280.598 33.8875 301.945 52.0375 311.535 76.6844C315.872 88.165 316.943 100.623 314.629 112.675C313.876 108.857 312.842 105.1 311.535 101.434Z" fill="#FFDB94"/>
<path d="M284.517 151.244L283.073 150.522C277.838 148.03 273.251 144.358 269.672 139.796C266.094 135.233 263.621 129.904 262.448 124.225V124.225C265.65 124.239 268.814 123.533 271.706 122.158C274.598 120.784 277.143 118.776 279.154 116.285C284.104 108.344 280.495 91.6377 270.492 89.7814C260.488 87.9252 254.714 100.713 254.714 100.713C254.714 100.713 235.429 87.3064 196.757 89.3689C167.676 91.3283 167.16 46.4689 183.145 31.3096C189.126 40.3846 202.842 45.7471 240.07 40.1783C280.598 34.1971 301.945 52.3471 311.535 76.9939C323.292 109.375 308.648 143.097 284.517 151.244Z" stroke="#45413C" stroke-width="6" stroke-linecap="round" stroke-linejoin="round"/>
</svg>
