<svg width="495" height="495" viewBox="0 0 495 495" fill="none" xmlns="http://www.w3.org/2000/svg">
<path d="M325.255 318.904L247.498 289.616L169.742 319.213C156.557 324.244 145.21 333.159 137.2 344.777C129.19 356.396 124.895 370.173 124.883 384.285V444.304H370.114V383.976C370.102 369.863 365.807 356.087 357.797 344.468C349.787 332.849 338.44 323.935 325.255 318.904Z" fill="#656769"/>
<path d="M325.255 318.904L247.498 289.616L169.742 319.213C156.557 324.244 145.21 333.159 137.2 344.777C129.19 356.396 124.895 370.173 124.883 384.285V415.222C124.895 401.11 129.19 387.334 137.2 375.715C145.21 364.096 156.557 355.182 169.742 350.151L247.498 320.554L325.255 350.151C338.44 355.182 349.787 364.096 357.797 375.715C365.807 387.334 370.102 401.11 370.114 415.222V384.285C370.165 370.12 365.899 356.276 357.885 344.595C349.871 332.915 338.489 323.954 325.255 318.904Z" fill="#525252"/>
<path d="M325.255 318.904L247.498 289.616L169.742 319.213C156.557 324.244 145.21 333.159 137.2 344.777C129.19 356.396 124.895 370.173 124.883 384.285V444.304H370.114V383.976C370.102 369.863 365.807 356.087 357.797 344.468C349.787 332.849 338.44 323.935 325.255 318.904V318.904Z" stroke="#45413C" stroke-width="6" stroke-linecap="round" stroke-linejoin="round"/>
<path d="M311.745 349.738L333.71 344.272L317.829 316.016L247.498 289.307L177.166 316.016L161.285 344.272L183.251 349.738L175.723 372.632L226.048 444.304H268.948L319.273 372.632L311.745 349.738Z" fill="#656769" stroke="#45413C" stroke-width="6" stroke-linecap="round" stroke-linejoin="round"/>
<path d="M247.5 289.616C247.5 289.616 195.938 289.616 195.938 318.594C196.894 340.314 204.69 361.177 218.212 378.201L247.5 353.038L277.303 378.201C290.826 361.177 298.622 340.314 299.578 318.594C299.578 289.616 247.5 289.616 247.5 289.616Z" fill="white" stroke="#45413C" stroke-width="6" stroke-linecap="round" stroke-linejoin="round"/>
<path d="M247.498 353.038L224.295 329.835C222.39 327.915 221.316 325.322 221.305 322.617V291.679C221.305 284.732 224.064 278.07 228.977 273.157C233.889 268.245 240.551 265.485 247.498 265.485C254.445 265.485 261.108 268.245 266.02 273.157C270.933 278.07 273.692 284.732 273.692 291.679V322.617C273.681 325.322 272.607 327.915 270.702 329.835L247.498 353.038Z" fill="#FFCEBF"/>
<path d="M247.498 265.485C240.551 265.485 233.889 268.245 228.977 273.157C224.064 278.07 221.305 284.732 221.305 291.679V297.763C221.305 304.711 224.064 311.373 228.977 316.285C233.889 321.198 240.551 323.957 247.498 323.957C254.445 323.957 261.108 321.198 266.02 316.285C270.933 311.373 273.692 304.711 273.692 297.763V291.679C273.692 284.732 270.933 278.07 266.02 273.157C261.108 268.245 254.445 265.485 247.498 265.485Z" fill="#FFB59E"/>
<path d="M247.498 353.038L224.295 329.835C222.39 327.915 221.316 325.322 221.305 322.617V291.679C221.305 284.732 224.064 278.07 228.977 273.157C233.889 268.245 240.551 265.485 247.498 265.485V265.485C254.445 265.485 261.108 268.245 266.02 273.157C270.933 278.07 273.692 284.732 273.692 291.679V322.617C273.681 325.322 272.607 327.915 270.702 329.835L247.498 353.038Z" stroke="#45413C" stroke-width="6" stroke-linecap="round" stroke-linejoin="round"/>
<path d="M277.302 378.201L268.639 444.304H226.048L217.695 378.201L247.498 353.038L277.302 378.201Z" fill="white" stroke="#45413C" stroke-width="6" stroke-linecap="round" stroke-linejoin="round"/>
<path d="M242.344 399.444C242.344 400.812 242.887 402.123 243.854 403.09C244.821 404.057 246.132 404.601 247.5 404.601C248.868 404.601 250.179 404.057 251.146 403.09C252.113 402.123 252.656 400.812 252.656 399.444C252.656 398.077 252.113 396.765 251.146 395.798C250.179 394.831 248.868 394.288 247.5 394.288C246.132 394.288 244.821 394.831 243.854 395.798C242.887 396.765 242.344 398.077 242.344 399.444Z" fill="#45413C"/>
<path d="M242.344 422.647C242.344 424.015 242.887 425.326 243.854 426.293C244.821 427.26 246.132 427.804 247.5 427.804C248.868 427.804 250.179 427.26 251.146 426.293C252.113 425.326 252.656 424.015 252.656 422.647C252.656 421.28 252.113 419.968 251.146 419.001C250.179 418.034 248.868 417.491 247.5 417.491C246.132 417.491 244.821 418.034 243.854 419.001C242.887 419.968 242.344 421.28 242.344 422.647Z" fill="#45413C"/>
<path d="M247.499 51.5005C239.015 51.4737 230.562 52.5131 222.337 54.5943C203.155 58.9255 178.199 66.2474 155.615 61.9161C154.747 67.7329 155.067 73.6652 156.556 79.3548C158.045 85.0444 160.672 90.3731 164.277 95.0193C152.511 111.978 146.214 132.129 146.231 152.769V205.776H348.768V152.769C348.768 125.911 338.099 100.153 319.107 81.1614C300.115 62.1699 274.357 51.5005 247.499 51.5005Z" fill="#A86C4D"/>
<path d="M247.498 51.5005C239.014 51.4737 230.561 52.5131 222.336 54.5943C203.155 58.9255 178.198 66.2474 155.614 61.9161C154.19 72.7348 156.677 83.7062 162.627 92.8536C182.833 93.2719 202.98 90.5229 222.336 84.7068C237.296 80.9317 252.919 80.6141 268.02 83.7781C283.121 86.9421 297.303 93.5044 309.489 102.967C321.675 112.43 331.546 124.544 338.352 138.391C345.157 152.238 348.719 167.453 348.767 182.882V152.769C348.767 125.911 338.098 100.153 319.106 81.1614C300.115 62.1699 274.357 51.5005 247.498 51.5005Z" fill="#DE926A"/>
<path d="M247.499 51.5005C239.015 51.4737 230.562 52.5131 222.337 54.5943C203.155 58.9255 178.199 66.2474 155.615 61.9161C154.747 67.7329 155.067 73.6652 156.556 79.3548C158.045 85.0444 160.672 90.3731 164.277 95.0193C152.511 111.978 146.214 132.129 146.231 152.769V205.776H348.768V152.769C348.768 125.911 338.099 100.153 319.107 81.1614C300.115 62.1699 274.357 51.5005 247.499 51.5005V51.5005Z" stroke="#45413C" stroke-width="6" stroke-linecap="round" stroke-linejoin="round"/>
<path d="M359.597 198.041C359.096 194.254 357.457 190.709 354.897 187.873C352.338 185.037 348.978 183.045 345.263 182.16L339.178 180.407C334.64 179.237 330.636 176.558 327.824 172.809C325.012 169.06 323.561 164.465 323.709 159.782V138.744C323.704 134.487 322.283 130.352 319.669 126.991C317.055 123.63 313.397 121.235 309.272 120.182C289.593 127.984 268.562 131.804 247.397 131.422C226.231 131.804 205.201 127.984 185.522 120.182C181.397 121.235 177.739 123.63 175.125 126.991C172.511 130.352 171.089 134.487 171.084 138.744V160.091C171.233 164.775 169.781 169.369 166.97 173.118C164.158 176.867 160.154 179.547 155.616 180.716L149.531 182.469C145.815 183.355 142.456 185.347 139.896 188.182C137.337 191.018 135.698 194.564 135.197 198.35C134.921 200.961 135.199 203.601 136.013 206.096C136.827 208.592 138.158 210.888 139.92 212.835C141.681 214.781 143.834 216.334 146.236 217.392C148.639 218.451 151.237 218.99 153.863 218.975H154.997C157.41 241.772 168.174 262.869 185.216 278.202C202.257 293.535 224.37 302.018 247.294 302.018C270.218 302.018 292.331 293.535 309.372 278.202C326.413 262.869 337.178 241.772 339.591 218.975H340.725C343.397 219.025 346.048 218.5 348.499 217.437C350.95 216.373 353.145 214.796 354.934 212.811C356.723 210.826 358.065 208.481 358.87 205.932C359.674 203.384 359.922 200.693 359.597 198.041Z" fill="#FFCEBF" stroke="#45413C" stroke-width="6" stroke-linecap="round" stroke-linejoin="round"/>
<path d="M191.5 195.875C191.5 197.981 192.337 200.001 193.826 201.49C195.315 202.979 197.335 203.816 199.441 203.816C201.547 203.816 203.566 202.979 205.055 201.49C206.545 200.001 207.381 197.981 207.381 195.875C207.381 193.769 206.545 191.749 205.055 190.26C203.566 188.771 201.547 187.935 199.441 187.935C197.335 187.935 195.315 188.771 193.826 190.26C192.337 191.749 191.5 193.769 191.5 195.875Z" fill="#45413C" stroke="#45413C" stroke-width="6" stroke-linecap="round" stroke-linejoin="round"/>
<path d="M303.495 195.875C303.495 197.981 302.658 200.001 301.169 201.49C299.68 202.979 297.66 203.816 295.554 203.816C293.448 203.816 291.428 202.979 289.939 201.49C288.45 200.001 287.613 197.981 287.613 195.875C287.613 193.769 288.45 191.749 289.939 190.26C291.428 188.771 293.448 187.935 295.554 187.935C297.66 187.935 299.68 188.771 301.169 190.26C302.658 191.749 303.495 193.769 303.495 195.875Z" fill="#45413C" stroke="#45413C" stroke-width="6" stroke-linecap="round" stroke-linejoin="round"/>
<path d="M218.212 244.241C217.569 244.255 216.936 244.399 216.351 244.665C215.766 244.931 215.242 245.313 214.809 245.788C214.369 246.289 214.047 246.884 213.869 247.526C213.69 248.169 213.659 248.844 213.777 249.501C215.17 257.433 219.314 264.621 225.482 269.8C231.65 274.979 239.446 277.818 247.499 277.818C255.553 277.818 263.349 274.979 269.517 269.8C275.684 264.621 279.829 257.433 281.221 249.501C281.34 248.844 281.308 248.169 281.13 247.526C280.951 246.884 280.63 246.289 280.19 245.788C279.761 245.308 279.237 244.923 278.651 244.657C278.065 244.391 277.43 244.249 276.787 244.241H218.212Z" fill="#FF6242"/>
<path d="M247.499 258.679C238.2 258.402 229.068 261.192 221.512 266.62C224.744 270.267 228.713 273.188 233.157 275.188C237.601 277.188 242.419 278.223 247.293 278.223C252.167 278.223 256.985 277.188 261.429 275.188C265.873 273.188 269.842 270.267 273.074 266.62C265.631 261.278 256.658 258.492 247.499 258.679Z" fill="#FFA694"/>
<path d="M218.212 244.241C217.569 244.255 216.936 244.399 216.351 244.665C215.766 244.931 215.242 245.313 214.809 245.788C214.369 246.289 214.047 246.884 213.869 247.526C213.69 248.169 213.659 248.844 213.777 249.501C215.17 257.433 219.314 264.621 225.482 269.8C231.65 274.979 239.446 277.818 247.499 277.818C255.553 277.818 263.349 274.979 269.517 269.8C275.684 264.621 279.829 257.433 281.221 249.501C281.34 248.844 281.308 248.169 281.13 247.526C280.951 246.884 280.63 246.289 280.19 245.788C279.761 245.308 279.237 244.923 278.651 244.657C278.065 244.391 277.43 244.249 276.787 244.241H218.212Z" stroke="#45413C" stroke-width="6" stroke-linecap="round" stroke-linejoin="round"/>
<path d="M175.93 229.7C175.93 231.341 177.016 232.915 178.95 234.075C180.884 235.236 183.507 235.888 186.242 235.888C188.977 235.888 191.6 235.236 193.534 234.075C195.468 232.915 196.555 231.341 196.555 229.7C196.555 228.059 195.468 226.485 193.534 225.325C191.6 224.165 188.977 223.513 186.242 223.513C183.507 223.513 180.884 224.165 178.95 225.325C177.016 226.485 175.93 228.059 175.93 229.7Z" fill="#FFB59E"/>
<path d="M298.441 229.7C298.441 231.341 299.528 232.915 301.462 234.075C303.396 235.236 306.019 235.888 308.754 235.888C311.489 235.888 314.112 235.236 316.046 234.075C317.98 232.915 319.066 231.341 319.066 229.7C319.066 228.059 317.98 226.485 316.046 225.325C314.112 224.165 311.489 223.513 308.754 223.513C306.019 223.513 303.396 224.165 301.462 225.325C299.528 226.485 298.441 228.059 298.441 229.7Z" fill="#FFB59E"/>
<path d="M228 371.62L248.57 354.241L269 371.62L258.298 391.779L264.136 418.194L248.57 437.241L233.003 418.194L238.841 391.779L228 371.62Z" fill="#009FD9" stroke="#45413C" stroke-width="6" stroke-linecap="round" stroke-linejoin="round"/>
</svg>
