<svg width="452" height="452" viewBox="0 0 452 452" fill="none" xmlns="http://www.w3.org/2000/svg">
<path d="M225.999 289.171C255.669 289.171 284.123 300.957 305.103 321.937C326.083 342.917 337.869 371.371 337.869 401.041V418.933H114.129V401.041C114.129 371.371 125.915 342.917 146.895 321.937C167.875 300.957 196.329 289.171 225.999 289.171Z" fill="white"/>
<path d="M225.999 289.171C196.329 289.171 167.875 300.957 146.895 321.937C125.915 342.917 114.129 371.371 114.129 401.041V418.933H115.165C118.836 392.144 132.085 367.592 152.461 349.818C172.836 332.044 198.96 322.251 225.999 322.251C253.038 322.251 279.161 332.044 299.537 349.818C319.913 367.592 333.162 392.144 336.833 418.933H337.869V401.041C337.869 371.371 326.083 342.917 305.103 321.937C284.123 300.957 255.669 289.171 225.999 289.171Z" fill="#F0F0F0"/>
<path d="M225.999 289.171C255.669 289.171 284.123 300.957 305.103 321.937C326.083 342.917 337.869 371.371 337.869 401.041V418.933H114.129V401.041C114.129 371.371 125.915 342.917 146.895 321.937C167.875 300.957 196.329 289.171 225.999 289.171V289.171Z" stroke="#45413C" stroke-width="7" stroke-linecap="round" stroke-linejoin="round"/>
<path d="M181.648 312.054C181.648 320.895 186.321 329.374 194.639 335.625C202.957 341.877 214.238 345.389 226.001 345.389C237.764 345.389 249.045 341.877 257.363 335.625C265.681 329.374 270.353 320.895 270.353 312.054C270.353 303.213 265.681 294.734 257.363 288.482C249.045 282.231 237.764 278.719 226.001 278.719C214.238 278.719 202.957 282.231 194.639 288.482C186.321 294.734 181.648 303.213 181.648 312.054Z" fill="#00DBA8"/>
<path d="M226 278.719C217.431 278.146 208.879 280.053 201.365 284.211C193.85 288.369 187.692 294.602 183.625 302.166C187.67 309.755 193.821 316.014 201.338 320.191C208.856 324.367 217.42 326.283 226 325.708C234.58 326.283 243.144 324.367 250.662 320.191C258.179 316.014 264.33 309.755 268.375 302.166C264.308 294.602 258.15 288.369 250.635 284.211C243.121 280.053 234.569 278.146 226 278.719Z" fill="#00AD85"/>
<path d="M181.648 312.054C181.648 320.895 186.321 329.374 194.639 335.625C202.957 341.877 214.238 345.389 226.001 345.389C237.764 345.389 249.045 341.877 257.363 335.625C265.681 329.374 270.353 320.895 270.353 312.054C270.353 303.213 265.681 294.734 257.363 288.482C249.045 282.231 237.764 278.719 226.001 278.719C214.238 278.719 202.957 282.231 194.639 288.482C186.321 294.734 181.648 303.213 181.648 312.054V312.054Z" stroke="#45413C" stroke-width="7" stroke-linecap="round" stroke-linejoin="round"/>
<path d="M226.001 250.939C222.852 250.939 219.734 251.561 216.826 252.769C213.918 253.977 211.277 255.747 209.054 257.978C206.832 260.209 205.072 262.857 203.876 265.77C202.679 268.683 202.07 271.803 202.082 274.952V301.695C202.082 308.039 204.602 314.123 209.088 318.608C213.573 323.094 219.657 325.614 226.001 325.614C232.344 325.614 238.428 323.094 242.913 318.608C247.399 314.123 249.919 308.039 249.919 301.695V274.952C249.931 271.803 249.322 268.683 248.125 265.77C246.929 262.857 245.169 260.209 242.947 257.978C240.724 255.747 238.084 253.977 235.176 252.769C232.267 251.561 229.149 250.939 226.001 250.939Z" fill="#FFCEBF"/>
<path d="M226 250.939C219.657 250.939 213.573 253.459 209.088 257.945C204.602 262.431 202.082 268.514 202.082 274.858V280.508C202.082 286.851 204.602 292.935 209.088 297.421C213.573 301.906 219.657 304.426 226 304.426C232.344 304.426 238.428 301.906 242.913 297.421C247.399 292.935 249.919 286.851 249.919 280.508V274.952C249.931 271.803 249.322 268.683 248.125 265.77C246.929 262.857 245.169 260.209 242.947 257.978C240.724 255.747 238.083 253.977 235.175 252.769C232.267 251.561 229.149 250.939 226 250.939Z" fill="#FFB59E"/>
<path d="M226.001 250.939C222.852 250.939 219.734 251.561 216.826 252.769C213.918 253.977 211.277 255.747 209.054 257.978C206.832 260.209 205.072 262.857 203.876 265.77C202.679 268.683 202.07 271.803 202.082 274.952V301.695C202.082 308.039 204.602 314.123 209.088 318.608C213.573 323.094 219.657 325.614 226.001 325.614C232.344 325.614 238.428 323.094 242.913 318.608C247.399 314.123 249.919 308.039 249.919 301.695V274.952C249.931 271.803 249.322 268.683 248.125 265.77C246.929 262.857 245.169 260.209 242.947 257.978C240.725 255.747 238.084 253.977 235.176 252.769C232.267 251.561 229.149 250.939 226.001 250.939V250.939Z" stroke="#45413C" stroke-width="7" stroke-linecap="round" stroke-linejoin="round"/>
<path d="M160.648 418.932V396.238" stroke="#45413C" stroke-width="7" stroke-linecap="round" stroke-linejoin="round"/>
<path d="M291.352 418.933V396.145" stroke="#45413C" stroke-width="7" stroke-linecap="round" stroke-linejoin="round"/>
<path d="M245.774 344.353C250.468 350.743 257.059 355.488 264.607 357.913C276.849 361.303 284.759 356.218 290.032 359.514C282.31 338.232 264.042 327.215 252.365 332.582C240.689 337.95 245.774 344.353 245.774 344.353Z" fill="#00DBA8" stroke="#45413C" stroke-width="7" stroke-linecap="round" stroke-linejoin="round"/>
<path d="M235.417 344.729C231.364 353.156 230.079 362.648 231.744 371.849C235.134 386.257 244.645 391.53 244.268 398.781C261.783 379.006 263.102 354.146 250.86 345.106C238.618 336.066 235.417 344.729 235.417 344.729Z" fill="#00DBA8" stroke="#45413C" stroke-width="7" stroke-linecap="round" stroke-linejoin="round"/>
<path d="M226 325.708C229.344 327.388 232.029 330.14 233.627 333.524C234.786 337.147 235.39 340.925 235.417 344.729C238.161 345.941 241.127 346.567 244.127 346.567C247.127 346.567 250.093 345.941 252.838 344.729C254.774 343.49 256.434 341.866 257.716 339.958C258.998 338.05 259.874 335.899 260.289 333.638C260.704 331.377 260.65 329.055 260.129 326.816C259.609 324.577 258.633 322.469 257.263 320.623C250.86 312.336 237.017 310.453 226 325.708Z" fill="#00DBA8" stroke="#45413C" stroke-width="7" stroke-linecap="round" stroke-linejoin="round"/>
<path d="M225.999 60.252C218.248 60.2592 210.529 61.2399 203.022 63.1711C185.507 67.1261 162.719 73.7178 142.097 69.7628C141.293 75.0743 141.58 80.4938 142.94 85.6908C144.3 90.8877 146.704 95.7532 150.007 99.9903C139.263 115.475 133.512 133.876 133.527 152.724V201.125H318.471V152.724C318.471 128.199 308.728 104.678 291.386 87.3363C274.045 69.9945 250.524 60.252 225.999 60.252Z" fill="#A86C4D" stroke="#45413C" stroke-width="7" stroke-linecap="round" stroke-linejoin="round"/>
<path d="M328.36 194.063C327.902 190.605 326.406 187.367 324.069 184.778C321.732 182.189 318.664 180.369 315.271 179.561L309.715 178.054C305.621 176.898 302.021 174.428 299.469 171.025C296.917 167.622 295.554 163.475 295.59 159.221V140.011C295.579 136.128 294.293 132.356 291.927 129.276C289.562 126.196 286.25 123.979 282.501 122.967C264.544 130.135 245.331 133.625 226.001 133.231C206.67 133.625 187.457 130.135 169.501 122.967C165.734 123.961 162.401 126.171 160.017 129.252C157.634 132.334 156.333 136.115 156.317 140.011V159.409C156.354 163.663 154.991 167.811 152.438 171.214C149.886 174.617 146.286 177.086 142.192 178.243L136.636 179.749C133.243 180.558 130.176 182.377 127.838 184.966C125.501 187.556 124.005 190.793 123.547 194.251C123.296 196.635 123.55 199.045 124.293 201.324C125.036 203.603 126.251 205.7 127.86 207.477C129.468 209.255 131.434 210.673 133.628 211.639C135.821 212.605 138.194 213.098 140.591 213.084H141.627C143.831 233.901 153.66 253.165 169.221 267.166C184.782 281.167 204.974 288.913 225.906 288.913C246.839 288.913 267.031 281.167 282.592 267.166C298.153 253.165 307.982 233.901 310.186 213.084H311.221C313.644 213.114 316.045 212.627 318.265 211.655C320.485 210.684 322.472 209.25 324.094 207.45C325.715 205.65 326.935 203.525 327.67 201.217C328.406 198.908 328.641 196.469 328.36 194.063Z" fill="#FFCEBF" stroke="#45413C" stroke-width="7" stroke-linecap="round" stroke-linejoin="round"/>
<path d="M174.868 192.085C174.868 193.52 175.293 194.921 176.09 196.114C176.887 197.306 178.019 198.236 179.344 198.784C180.669 199.333 182.127 199.477 183.533 199.197C184.94 198.917 186.232 198.227 187.246 197.213C188.26 196.199 188.95 194.907 189.23 193.5C189.51 192.093 189.366 190.636 188.818 189.311C188.269 187.986 187.339 186.853 186.147 186.057C184.955 185.26 183.553 184.835 182.119 184.835C181.163 184.822 180.214 185.001 179.329 185.361C178.444 185.721 177.639 186.254 176.963 186.93C176.287 187.606 175.754 188.41 175.394 189.296C175.034 190.181 174.855 191.13 174.868 192.085Z" fill="#45413C" stroke="#45413C" stroke-width="7" stroke-linecap="round" stroke-linejoin="round"/>
<path d="M277.131 192.085C277.131 193.52 276.705 194.921 275.909 196.114C275.112 197.306 273.979 198.236 272.655 198.784C271.33 199.333 269.872 199.477 268.465 199.197C267.059 198.917 265.767 198.227 264.753 197.213C263.739 196.199 263.048 194.907 262.768 193.5C262.488 192.093 262.632 190.636 263.181 189.311C263.73 187.986 264.659 186.853 265.851 186.057C267.044 185.26 268.446 184.835 269.88 184.835C270.835 184.822 271.784 185.001 272.669 185.361C273.555 185.721 274.359 186.254 275.035 186.93C275.711 187.606 276.245 188.41 276.604 189.296C276.964 190.181 277.143 191.13 277.131 192.085Z" fill="#45413C" stroke="#45413C" stroke-width="7" stroke-linecap="round" stroke-linejoin="round"/>
<path d="M199.255 236.249C198.659 236.262 198.073 236.403 197.536 236.663C197 236.923 196.526 237.296 196.147 237.756C195.753 238.199 195.464 238.726 195.301 239.296C195.138 239.867 195.105 240.467 195.205 241.052C196.477 248.295 200.261 254.858 205.893 259.588C211.525 264.317 218.644 266.909 225.998 266.909C233.352 266.909 240.471 264.317 246.103 259.588C251.735 254.858 255.519 248.295 256.79 241.052C256.891 240.467 256.858 239.867 256.695 239.296C256.532 238.726 256.243 238.199 255.849 237.756C255.47 237.296 254.996 236.923 254.459 236.663C253.923 236.403 253.337 236.262 252.741 236.249H199.255Z" fill="#FF6242"/>
<path d="M226 249.433C217.498 249.101 209.134 251.656 202.27 256.684C205.237 259.988 208.867 262.631 212.923 264.44C216.979 266.249 221.37 267.184 225.811 267.184C230.252 267.184 234.644 266.249 238.7 264.44C242.756 262.631 246.386 259.988 249.353 256.684C242.591 251.737 234.374 249.186 226 249.433Z" fill="#FFA694"/>
<path d="M199.255 236.249C198.659 236.262 198.073 236.403 197.536 236.663C197 236.923 196.526 237.296 196.147 237.756C195.753 238.199 195.464 238.726 195.301 239.296C195.138 239.867 195.105 240.467 195.205 241.052C196.477 248.295 200.261 254.858 205.893 259.588C211.525 264.317 218.644 266.909 225.998 266.909C233.352 266.909 240.471 264.317 246.103 259.588C251.735 254.858 255.519 248.295 256.79 241.052C256.891 240.467 256.858 239.867 256.695 239.296C256.532 238.726 256.243 238.199 255.849 237.756C255.47 237.296 254.996 236.923 254.459 236.663C253.923 236.403 253.337 236.262 252.741 236.249H199.255Z" stroke="#45413C" stroke-width="7" stroke-linecap="round" stroke-linejoin="round"/>
<path d="M160.648 222.972C160.648 224.471 161.641 225.908 163.407 226.967C165.172 228.027 167.568 228.622 170.065 228.622C172.563 228.622 174.958 228.027 176.724 226.967C178.49 225.908 179.482 224.471 179.482 222.972C179.482 221.474 178.49 220.037 176.724 218.977C174.958 217.918 172.563 217.322 170.065 217.322C167.568 217.322 165.172 217.918 163.407 218.977C161.641 220.037 160.648 221.474 160.648 222.972Z" fill="#FFB59E"/>
<path d="M272.52 222.972C272.52 224.471 273.512 225.908 275.278 226.967C277.044 228.027 279.439 228.622 281.936 228.622C284.434 228.622 286.829 228.027 288.595 226.967C290.361 225.908 291.353 224.471 291.353 222.972C291.353 221.474 290.361 220.037 288.595 218.977C286.829 217.918 284.434 217.322 281.936 217.322C279.439 217.322 277.044 217.918 275.278 218.977C273.512 220.037 272.52 221.474 272.52 222.972Z" fill="#FFB59E"/>
<path d="M128.727 161.481C128.727 151.499 172.232 143.401 226.001 143.401C279.77 143.401 323.275 151.499 323.275 161.481L320.167 125.321C320.167 115.339 277.981 107.335 226.001 107.335C174.021 107.335 131.834 115.339 131.834 125.321L128.727 161.481Z" fill="#8CA4B8"/>
<path d="M226.001 107.335C174.021 107.335 131.834 115.339 131.834 125.321L128.727 160.916C130.327 151.499 173.267 143.401 226.001 143.401H241.162C259.656 135.952 276.803 125.517 291.917 112.514C270.141 108.848 248.083 107.115 226.001 107.335Z" fill="#627B8C"/>
<path d="M128.727 161.481C128.727 151.499 172.232 143.401 226.001 143.401C279.77 143.401 323.275 151.499 323.275 161.481L320.167 125.321C320.167 115.339 277.981 107.335 226.001 107.335C174.021 107.335 131.834 115.339 131.834 125.321L128.727 161.481Z" stroke="#45413C" stroke-width="7" stroke-linecap="round" stroke-linejoin="round"/>
<path d="M332.313 79.9331C312.35 47.9165 261.876 39.6298 225.999 42.2665C183.915 47.2154 143.724 62.5542 109.044 86.9015C92.6588 98.7665 86.9147 111.385 91.7172 118.824C101.793 137.657 155.28 142.083 237.205 107.43C284.288 108.466 320.166 116.093 320.166 125.321C320.166 125.321 350.016 107.336 332.313 79.9331Z" fill="#8CA4B8"/>
<path d="M95.2955 123.344C99.2158 118.307 103.847 113.866 109.044 110.161C143.751 85.9137 183.941 70.6728 225.999 65.8082C261.876 62.889 312.35 71.1756 332.313 102.721C333.498 104.503 334.508 106.395 335.326 108.371C337.4 103.792 338.214 98.742 337.684 93.7429C337.154 88.7437 335.3 83.9765 332.313 79.9331C312.35 47.9165 261.876 39.6298 225.999 42.2665C183.915 47.2154 143.724 62.5542 109.044 86.9015C92.6588 98.7665 86.9147 111.385 91.7172 118.824C92.6839 120.497 93.8893 122.019 95.2955 123.344Z" fill="#ADC4D9"/>
<path d="M332.313 79.9331C312.35 47.9165 261.876 39.6298 225.999 42.2665C183.915 47.2154 143.724 62.5542 109.044 86.9015C92.6588 98.7665 86.9147 111.385 91.7172 118.824C101.793 137.657 155.28 142.083 237.205 107.43C284.288 108.466 320.166 116.093 320.166 125.321C320.166 125.321 350.016 107.336 332.313 79.9331Z" stroke="#45413C" stroke-width="7" stroke-linecap="round" stroke-linejoin="round"/>
<path d="M237.207 107.429C249.825 102.062 263.197 95.7524 277.134 88.5957" stroke="#45413C" stroke-width="7" stroke-linecap="round" stroke-linejoin="round"/>
<path d="M210.459 44.4091C210.619 45.7474 211.179 47.0246 212.108 48.1676C213.036 49.3107 214.313 50.2972 215.868 51.071C217.423 51.8447 219.223 52.3905 221.168 52.6771C223.112 52.9637 225.162 52.9856 227.2 52.7414C229.239 52.4973 231.225 51.992 233.047 51.2543C234.869 50.5166 236.49 49.561 237.818 48.442C239.146 47.323 240.154 46.0626 240.786 44.7327C241.418 43.4028 241.661 42.0295 241.5 40.6911C241.34 39.3528 240.78 38.0756 239.852 36.9326C238.924 35.7896 237.646 34.803 236.091 34.0293C234.537 33.2555 232.736 32.7098 230.791 32.4232C228.847 32.1365 226.797 32.1147 224.759 32.3588C222.721 32.6029 220.734 33.1083 218.912 33.846C217.091 34.5837 215.47 35.5393 214.142 36.6583C212.814 37.7772 211.805 39.0376 211.173 40.3675C210.541 41.6974 210.299 43.0708 210.459 44.4091Z" fill="#627B8C" stroke="#45413C" stroke-width="7" stroke-linecap="round" stroke-linejoin="round"/>
<path d="M68.2711 418.933C68.2711 418.933 5.6503 347.554 59.6078 339.362C118.085 330.604 182.024 418.933 182.024 418.933H68.2711Z" fill="#DEBB7E"/>
<path d="M59.6068 366.199C96.5202 360.643 135.411 393.696 159.141 418.933H181.647C181.647 418.933 118.084 330.604 59.2302 339.362C35.3118 343.034 34.276 358.948 40.3968 375.71C42.726 372.836 45.648 370.498 48.9633 368.857C52.2786 367.215 55.9091 366.309 59.6068 366.199Z" fill="#F0D5A8"/>
<path d="M68.2711 418.932C68.2711 418.932 5.6503 347.554 59.6078 339.362C118.085 330.604 182.024 418.932 182.024 418.932H68.2711Z" stroke="#45413C" stroke-width="7" stroke-linecap="round" stroke-linejoin="round"/>
<path d="M79.9218 372.472C81.6546 373.684 83.4947 374.707 85.3371 375.481C87.1794 376.256 88.9878 376.767 90.6592 376.987C92.3305 377.206 93.832 377.129 95.0779 376.759C96.3238 376.39 97.2897 375.736 97.9205 374.834C98.5513 373.932 98.8346 372.8 98.7543 371.503C98.6739 370.206 98.2315 368.769 97.4523 367.274C96.673 365.78 95.5722 364.256 94.2127 362.791C92.8532 361.327 91.2615 359.949 89.5287 358.737C87.7959 357.525 85.9558 356.502 84.1135 355.728C82.2711 354.953 80.4627 354.442 78.7914 354.222C77.12 354.003 75.6185 354.08 74.3726 354.45C73.1267 354.819 72.1608 355.474 71.53 356.375C70.8992 357.277 70.6159 358.409 70.6962 359.706C70.7766 361.003 71.219 362.44 71.9983 363.935C72.7775 365.43 73.8783 366.953 75.2378 368.418C76.5974 369.883 78.189 371.26 79.9218 372.472Z" fill="#FF6242" stroke="#45413C" stroke-width="7" stroke-linecap="round" stroke-linejoin="round"/>
<path d="M123.426 395.51C126.925 397.958 130.788 399.582 134.163 400.025C137.538 400.468 140.15 399.693 141.424 397.872C142.698 396.05 142.53 393.331 140.956 390.312C139.382 387.294 136.532 384.223 133.033 381.775C129.533 379.327 125.671 377.703 122.295 377.261C118.92 376.818 116.308 377.592 115.034 379.414C113.76 381.235 113.928 383.954 115.502 386.973C117.076 389.992 119.926 393.063 123.426 395.51Z" fill="#FFE500" stroke="#45413C" stroke-width="7" stroke-linecap="round" stroke-linejoin="round"/>
<path d="M367.627 337.384L347.852 332.487L361.506 267.136L385.895 273.162L367.627 337.384Z" fill="#DAEDF7" stroke="#45413C" stroke-width="7" stroke-linecap="round" stroke-linejoin="round"/>
<path d="M347.832 332.438L367.676 337.315L349.131 412.757L329.288 407.879L347.832 332.438Z" fill="#BF8256" stroke="#45413C" stroke-width="7" stroke-linecap="round" stroke-linejoin="round"/>
<path d="M361.506 267.136C355.385 255.46 363.201 241.146 372.147 233.801C377.846 229.436 382.002 223.366 384.012 216.475C389.593 220.357 393.921 225.784 396.463 232.09C399.006 238.396 399.653 245.307 398.325 251.975C397.783 256.14 396.423 260.156 394.322 263.793C392.221 267.429 389.421 270.614 386.083 273.163L361.506 267.136Z" fill="#FFF5E3" stroke="#45413C" stroke-width="7" stroke-linecap="round" stroke-linejoin="round"/>
<path d="M364.707 241.994C369.535 244.763 374.736 246.825 380.15 248.115C386.301 249.659 392.661 250.2 398.984 249.715C399.768 243.355 398.806 236.9 396.202 231.045C393.597 225.189 389.448 220.152 384.2 216.475C382.19 223.366 378.033 229.436 372.335 233.801C369.389 236.127 366.817 238.89 364.707 241.994Z" fill="black" stroke="#45413C" stroke-width="7" stroke-linecap="round" stroke-linejoin="round"/>
<path d="M331.654 336.733C335.389 337.651 338.607 340.015 340.598 343.305C342.59 346.595 343.193 350.542 342.275 354.277L327.148 415.819C321.473 414.424 316.584 410.832 313.558 405.832C310.531 400.833 309.614 394.836 311.009 389.161L322.63 341.884C323.101 339.968 324.314 338.318 326.002 337.296C327.69 336.274 329.714 335.965 331.63 336.436L331.654 336.733Z" fill="#FFCEBF"/>
<path d="M331.655 336.725C330.678 336.413 329.646 336.309 328.627 336.42C327.608 336.531 326.623 336.854 325.736 337.368C324.848 337.883 324.079 338.577 323.477 339.407C322.874 340.237 322.452 341.184 322.238 342.187L317.906 359.702C318.134 358.706 318.563 357.768 319.169 356.946C319.775 356.123 320.543 355.435 321.426 354.922C322.31 354.41 323.289 354.085 324.304 353.967C325.318 353.85 326.346 353.943 327.323 354.24C329.187 354.68 330.945 355.488 332.494 356.617C334.042 357.745 335.35 359.17 336.341 360.81C337.332 362.45 337.986 364.271 338.264 366.166C338.543 368.062 338.441 369.994 337.964 371.849L342.295 354.334C342.759 352.479 342.852 350.55 342.568 348.659C342.283 346.768 341.628 344.952 340.639 343.316C339.65 341.679 338.347 340.254 336.805 339.123C335.263 337.992 333.513 337.177 331.655 336.725Z" fill="#FFDCD1"/>
<path d="M331.654 336.733C335.389 337.651 338.607 340.015 340.598 343.305C342.59 346.595 343.193 350.542 342.275 354.277L327.148 415.819C321.473 414.424 316.584 410.832 313.558 405.832C310.531 400.833 309.614 394.836 311.009 389.161L322.63 341.884C323.101 339.968 324.314 338.318 326.002 337.296C327.69 336.274 329.714 335.965 331.63 336.436L331.654 336.733Z" stroke="#45413C" stroke-width="7" stroke-linecap="round" stroke-linejoin="round"/>
<path d="M366.308 358.572L348.417 354.052C345.663 353.359 342.748 353.775 340.298 355.211C337.848 356.647 336.06 358.987 335.32 361.728C334.579 364.469 334.944 367.392 336.337 369.866C337.73 372.341 340.039 374.169 342.767 374.957C340.067 374.585 337.326 375.244 335.09 376.803C332.855 378.363 331.29 380.708 330.707 383.37C330.125 386.033 330.568 388.817 331.948 391.168C333.328 393.518 335.544 395.262 338.153 396.05C336.768 395.71 335.329 395.646 333.919 395.862C332.51 396.078 331.156 396.57 329.937 397.308C328.717 398.047 327.654 399.019 326.81 400.169C325.966 401.318 325.356 402.623 325.016 404.008C324.676 405.393 324.612 406.831 324.828 408.241C325.044 409.65 325.535 411.004 326.274 412.224C327.013 413.443 327.985 414.506 329.135 415.35C330.284 416.194 331.588 416.804 332.973 417.144L351.148 421.57C356.455 422.878 362.064 422.026 366.743 419.201C371.422 416.376 374.788 411.809 376.102 406.503L381.752 383.526C383.06 378.219 382.208 372.61 379.383 367.931C376.558 363.252 371.991 359.886 366.685 358.572H366.308Z" fill="#FFCEBF"/>
<path d="M366.309 358.572L348.417 354.052C347.032 353.716 345.594 353.656 344.186 353.876C342.778 354.097 341.427 354.593 340.211 355.337C338.995 356.08 337.937 357.057 337.099 358.21C336.262 359.363 335.66 360.67 335.328 362.056C334.807 363.872 334.807 365.797 335.328 367.612C336.622 366.248 338.249 365.244 340.048 364.699C341.848 364.154 343.759 364.087 345.592 364.505L363.86 369.025C366.484 369.665 368.955 370.816 371.133 372.412C373.311 374.009 375.152 376.019 376.552 378.329C377.952 380.638 378.882 383.201 379.289 385.87C379.697 388.539 379.574 391.263 378.927 393.885L381.47 383.526C382.116 380.892 382.236 378.157 381.824 375.476C381.411 372.795 380.474 370.222 379.066 367.904C377.658 365.586 375.806 363.569 373.617 361.968C371.428 360.366 368.944 359.212 366.309 358.572Z" fill="#FFDCD1"/>
<path d="M366.308 358.572L348.417 354.052C345.663 353.359 342.748 353.775 340.298 355.211C337.848 356.647 336.06 358.987 335.32 361.728C334.579 364.469 334.944 367.392 336.337 369.866C337.73 372.341 340.039 374.169 342.767 374.957C340.067 374.585 337.326 375.244 335.09 376.803C332.855 378.363 331.29 380.708 330.707 383.37C330.125 386.033 330.568 388.817 331.948 391.168C333.328 393.518 335.544 395.262 338.153 396.05C336.768 395.71 335.329 395.646 333.919 395.862C332.51 396.078 331.156 396.57 329.937 397.308C328.717 398.047 327.654 399.019 326.81 400.169C325.966 401.318 325.356 402.623 325.016 404.008C324.676 405.393 324.612 406.831 324.828 408.241C325.044 409.65 325.535 411.004 326.274 412.224C327.013 413.443 327.985 414.506 329.135 415.35C330.284 416.194 331.588 416.804 332.973 417.144L351.148 421.57C356.455 422.878 362.064 422.026 366.743 419.201C371.422 416.376 374.788 411.809 376.102 406.503L381.752 383.526C383.06 378.219 382.208 372.61 379.383 367.931C376.558 363.252 371.991 359.886 366.685 358.572H366.308Z" stroke="#45413C" stroke-width="7" stroke-linecap="round" stroke-linejoin="round"/>
</svg>
