<svg width="496" height="496" viewBox="0 0 496 496" fill="none" xmlns="http://www.w3.org/2000/svg">
<path d="M31.7246 345.45H121.728C129.347 345.124 136.954 346.343 144.089 349.034C151.225 351.725 157.742 355.832 163.249 361.108C168.755 366.384 173.137 372.72 176.131 379.734C179.124 386.748 180.668 394.296 180.668 401.922C180.668 409.548 179.124 417.095 176.131 424.109C173.137 431.123 168.755 437.459 163.249 442.735C157.742 448.011 151.225 452.118 144.089 454.809C136.954 457.5 129.347 458.719 121.728 458.393H84.0113C79.2509 458.041 74.8 455.901 71.5517 452.403C68.3035 448.905 66.4982 444.309 66.4982 439.535C66.4982 434.762 68.3035 430.165 71.5517 426.667C74.8 423.169 79.2509 421.029 84.0113 420.677H55.698C50.7101 420.677 45.9266 418.695 42.3996 415.168C38.8727 411.642 36.8913 406.858 36.8913 401.87C36.8913 396.882 38.8727 392.099 42.3996 388.572C45.9266 385.045 50.7101 383.063 55.698 383.063H31.7246C26.7368 383.063 21.9532 381.082 18.4263 377.555C14.8994 374.028 12.918 369.245 12.918 364.257C12.918 359.269 14.8994 354.485 18.4263 350.958C21.9532 347.432 26.7368 345.45 31.7246 345.45Z" fill="white"/>
<path d="M84.0372 438.037H121.754C134.959 438.034 147.744 433.4 157.883 424.941C168.023 416.482 174.874 404.734 177.244 391.744C177.918 395.148 178.264 398.608 178.277 402.077C178.277 417.068 172.322 431.445 161.722 442.046C151.122 452.646 136.745 458.601 121.754 458.601H84.0372C79.0578 458.574 74.29 456.584 70.7689 453.062C67.2478 449.541 65.2577 444.774 65.2306 439.794C65.2196 436.134 66.2597 432.547 68.2272 429.461C69.9223 432.111 72.2616 434.287 75.0266 435.787C77.7915 437.287 80.8917 438.061 84.0372 438.037Z" fill="#E5FEFF"/>
<path d="M31.7246 345.45H121.728C129.347 345.124 136.954 346.343 144.089 349.034C151.225 351.725 157.742 355.832 163.249 361.108C168.755 366.384 173.137 372.72 176.131 379.734C179.124 386.748 180.668 394.296 180.668 401.922C180.668 409.548 179.124 417.095 176.131 424.109C173.137 431.123 168.755 437.459 163.249 442.735C157.742 448.011 151.225 452.118 144.089 454.809C136.954 457.5 129.347 458.719 121.728 458.393H84.0113C79.2509 458.041 74.8 455.901 71.5517 452.403C68.3035 448.905 66.4982 444.309 66.4982 439.535C66.4982 434.762 68.3035 430.165 71.5517 426.667C74.8 423.169 79.2509 421.029 84.0113 420.677H55.698C50.7101 420.677 45.9266 418.695 42.3996 415.168C38.8727 411.642 36.8913 406.858 36.8913 401.87C36.8913 396.882 38.8727 392.099 42.3996 388.572C45.9266 385.045 50.7101 383.063 55.698 383.063H31.7246C26.7368 383.063 21.9532 381.082 18.4263 377.555C14.8994 374.028 12.918 369.245 12.918 364.257C12.918 359.269 14.8994 354.485 18.4263 350.958C21.9532 347.432 26.7368 345.45 31.7246 345.45V345.45Z" stroke="#45413C" stroke-width="7" stroke-linecap="round" stroke-linejoin="round"/>
<path d="M98.5865 383.065H55.7031" stroke="#45413C" stroke-width="7" stroke-linecap="round" stroke-linejoin="round"/>
<path d="M83.9609 420.675H116.201" stroke="#45413C" stroke-width="7" stroke-linecap="round" stroke-linejoin="round"/>
<path d="M61.8398 279.112C61.8398 283.522 62.6256 287.889 64.1524 291.963C65.6791 296.038 67.9169 299.74 70.7379 302.859C73.559 305.977 76.9081 308.451 80.5939 310.139C84.2798 311.826 88.2303 312.695 92.2199 312.695C96.2094 312.695 100.16 311.826 103.846 310.139C107.532 308.451 110.881 305.977 113.702 302.859C116.523 299.74 118.761 296.038 120.287 291.963C121.814 287.889 122.6 283.522 122.6 279.112C122.6 274.701 121.814 270.334 120.287 266.26C118.761 262.185 116.523 258.483 113.702 255.365C110.881 252.246 107.532 249.772 103.846 248.085C100.16 246.397 96.2094 245.528 92.2199 245.528C88.2303 245.528 84.2798 246.397 80.5939 248.085C76.9081 249.772 73.559 252.246 70.7379 255.365C67.9169 258.483 65.6791 262.185 64.1524 266.26C62.6256 270.334 61.8398 274.701 61.8398 279.112Z" fill="#FFE500" stroke="#45413C" stroke-width="7" stroke-linecap="round" stroke-linejoin="round"/>
<path d="M373.293 279.112C373.293 283.522 374.079 287.889 375.605 291.963C377.132 296.038 379.37 299.74 382.191 302.859C385.012 305.977 388.361 308.451 392.047 310.139C395.733 311.826 399.683 312.695 403.673 312.695C407.663 312.695 411.613 311.826 415.299 310.139C418.985 308.451 422.334 305.977 425.155 302.859C427.976 299.74 430.214 296.038 431.74 291.963C433.267 287.889 434.053 283.522 434.053 279.112C434.053 274.701 433.267 270.334 431.74 266.26C430.214 262.185 427.976 258.483 425.155 255.365C422.334 252.246 418.985 249.772 415.299 248.085C411.613 246.397 407.663 245.528 403.673 245.528C399.683 245.528 395.733 246.397 392.047 248.085C388.361 249.772 385.012 252.246 382.191 255.365C379.37 258.483 377.132 262.185 375.605 266.26C374.079 270.334 373.293 274.701 373.293 279.112Z" fill="#FFE500" stroke="#45413C" stroke-width="7" stroke-linecap="round" stroke-linejoin="round"/>
<path d="M92.3555 279.108C92.3555 299.558 96.3834 319.808 104.209 338.701C112.035 357.594 123.506 374.761 137.966 389.221C152.426 403.681 169.593 415.152 188.486 422.978C207.379 430.803 227.629 434.831 248.079 434.831C268.529 434.831 288.778 430.803 307.672 422.978C326.565 415.152 343.732 403.681 358.192 389.221C372.652 374.761 384.123 357.594 391.948 338.701C399.774 319.808 403.802 299.558 403.802 279.108C403.802 258.658 399.774 238.409 391.948 219.515C384.123 200.622 372.652 183.455 358.192 168.995C343.732 154.535 326.565 143.064 307.672 135.239C288.778 127.413 268.529 123.385 248.079 123.385C227.629 123.385 207.379 127.413 188.486 135.239C169.593 143.064 152.426 154.535 137.966 168.995C123.506 183.455 112.035 200.622 104.209 219.515C96.3834 238.409 92.3555 258.658 92.3555 279.108Z" fill="#FFE500"/>
<path d="M248.079 123.491C217.275 123.491 187.164 132.627 161.553 149.743C135.942 166.858 115.983 191.185 104.199 219.646C92.4161 248.106 89.3383 279.423 95.3553 309.633C101.372 339.843 116.214 367.59 138.002 389.364C159.791 411.138 187.548 425.961 217.762 431.958C247.976 437.955 279.29 434.857 307.743 423.055C336.196 411.252 360.51 391.277 377.608 365.655C394.707 340.032 403.823 309.915 403.802 279.111C403.775 237.829 387.356 198.246 358.155 169.065C328.955 139.884 289.361 123.491 248.079 123.491ZM248.079 411.481C219.973 411.481 192.499 403.146 169.131 387.529C145.763 371.912 127.552 349.715 116.801 323.747C106.05 297.779 103.243 269.205 108.733 241.641C114.224 214.076 127.766 188.76 147.647 168.893C167.528 149.027 192.855 135.503 220.423 130.032C247.991 124.561 276.563 127.39 302.523 138.16C328.484 148.929 350.667 167.157 366.267 190.536C381.867 213.915 390.183 241.395 390.162 269.501C390.135 307.166 375.153 343.279 348.51 369.903C321.868 396.526 285.744 411.481 248.079 411.481Z" fill="#EBCB00"/>
<path d="M92.3555 279.108C92.3555 299.558 96.3834 319.808 104.209 338.701C112.035 357.594 123.506 374.761 137.966 389.221C152.426 403.681 169.593 415.152 188.486 422.978C207.379 430.804 227.629 434.831 248.079 434.831C268.529 434.831 288.778 430.804 307.672 422.978C326.565 415.152 343.732 403.681 358.192 389.221C372.652 374.761 384.123 357.594 391.948 338.701C399.774 319.808 403.802 299.558 403.802 279.108C403.802 258.658 399.774 238.409 391.948 219.515C384.123 200.622 372.652 183.455 358.192 168.995C343.732 154.535 326.565 143.064 307.672 135.239C288.778 127.413 268.529 123.385 248.079 123.385C227.629 123.385 207.379 127.413 188.486 135.239C169.593 143.064 152.426 154.535 137.966 168.995C123.506 183.455 112.035 200.622 104.209 219.515C96.3834 238.409 92.3555 258.658 92.3555 279.108V279.108Z" stroke="#45413C" stroke-width="7" stroke-linecap="round" stroke-linejoin="round"/>
<path d="M174.054 278.388C174.034 279.916 173.562 281.404 172.698 282.665C171.834 283.925 170.617 284.903 169.199 285.473C167.781 286.044 166.226 286.183 164.73 285.872C163.233 285.562 161.862 284.816 160.788 283.728C159.715 282.64 158.987 281.259 158.696 279.759C158.405 278.258 158.565 276.705 159.154 275.295C159.744 273.885 160.737 272.681 162.009 271.833C163.281 270.986 164.776 270.534 166.304 270.534C167.331 270.534 168.347 270.738 169.294 271.134C170.241 271.53 171.1 272.11 171.821 272.841C172.542 273.571 173.111 274.438 173.494 275.39C173.877 276.342 174.068 277.361 174.054 278.388Z" fill="#45413C" stroke="#45413C" stroke-width="7" stroke-linecap="round" stroke-linejoin="round"/>
<path d="M321.95 278.388C321.97 279.916 322.442 281.404 323.306 282.665C324.17 283.925 325.387 284.903 326.805 285.473C328.223 286.044 329.778 286.183 331.274 285.872C332.771 285.562 334.142 284.816 335.215 283.728C336.289 282.64 337.017 281.259 337.308 279.759C337.598 278.258 337.439 276.705 336.85 275.295C336.26 273.885 335.267 272.681 333.995 271.833C332.722 270.986 331.228 270.534 329.7 270.534C328.673 270.534 327.657 270.738 326.71 271.134C325.763 271.53 324.904 272.11 324.183 272.841C323.462 273.571 322.893 274.438 322.51 275.39C322.127 276.342 321.936 277.361 321.95 278.388Z" fill="#45413C" stroke="#45413C" stroke-width="7" stroke-linecap="round" stroke-linejoin="round"/>
<path d="M360.803 325.093C360.803 331.499 352.123 336.769 341.376 336.769C330.629 336.769 321.949 331.499 321.949 325.093C321.949 318.686 330.629 313.416 340.963 313.416C351.296 313.416 360.803 318.583 360.803 325.093Z" fill="#FFAA54"/>
<path d="M135.141 325.093C135.141 331.499 143.821 336.769 154.567 336.769C165.314 336.769 173.994 331.499 173.994 325.093C173.994 318.686 165.314 313.416 154.981 313.416C144.647 313.416 135.141 318.583 135.141 325.093Z" fill="#FFAA54"/>
<path d="M410.701 242.944C410.701 242.944 405.534 89.9072 247.951 89.9072C96.8776 89.9072 84.5809 223.621 83.9609 241.084C85.9558 240.93 87.9595 240.93 89.9543 241.084C99.443 242.592 109.152 241.874 118.316 238.987C127.48 236.099 135.847 231.122 142.758 224.447L145.341 241.911L199.591 214.114C217.113 230.87 239.447 241.712 263.451 245.114C282.792 248.59 302.597 248.59 321.938 245.114L326.794 217.834L346.221 231.164C355.552 237.517 366.11 241.847 377.215 243.876C388.319 245.905 399.726 245.587 410.701 242.944Z" fill="#724F3D"/>
<path d="M247.951 120.391C361.618 120.391 395.718 199.337 406.154 244.391C407.704 244.391 409.254 243.874 410.701 243.461C412.148 243.047 405.534 89.9072 247.951 89.9072C96.8776 89.9072 84.5809 223.621 83.9609 241.084C85.4403 240.981 86.9249 240.981 88.4043 241.084C98.9443 196.547 134.284 120.391 247.951 120.391Z" fill="#A86C4D"/>
<path d="M410.701 242.944C410.701 242.944 405.534 89.9072 247.951 89.9072C96.8776 89.9072 84.5809 223.621 83.9609 241.084C85.9558 240.93 87.9595 240.93 89.9543 241.084C99.443 242.592 109.152 241.874 118.316 238.987C127.48 236.099 135.847 231.122 142.758 224.447V224.447L145.341 241.911L199.591 214.114C217.113 230.87 239.447 241.712 263.451 245.114C282.792 248.59 302.597 248.59 321.938 245.114L326.794 217.834L346.221 231.164C355.552 237.517 366.11 241.847 377.215 243.876C388.319 245.905 399.726 245.587 410.701 242.944Z" stroke="#45413C" stroke-width="7" stroke-linecap="round" stroke-linejoin="round"/>
<path d="M248.027 37C159.884 37 88.4805 65.0033 88.4805 99.62C88.4805 134.237 159.884 162.343 248.027 162.343C336.17 162.343 407.574 134.237 407.574 99.62C407.574 65.0033 336.17 37 248.027 37ZM248.027 130.723C186.027 130.723 135.187 116.773 135.187 99.7233C135.187 82.6733 185.717 68.7233 248.027 68.7233C310.337 68.7233 360.867 82.6733 360.867 99.7233C360.867 116.773 310.027 130.723 248.027 130.723Z" fill="#00DFEB"/>
<path d="M248.027 56.4267C327.697 56.4267 393.624 79.3667 405.507 109.333C406.803 106.255 407.504 102.959 407.574 99.62C407.574 65.0033 336.17 37 248.027 37C159.884 37 88.4805 65.0033 88.4805 99.62C88.55 102.959 89.2512 106.255 90.5471 109.333C102.43 79.3667 168.357 56.4267 248.027 56.4267Z" fill="#A6FBFF"/>
<path d="M248.027 37C159.884 37 88.4805 65.0033 88.4805 99.62C88.4805 134.237 159.884 162.343 248.027 162.343C336.17 162.343 407.574 134.237 407.574 99.62C407.574 65.0033 336.17 37 248.027 37ZM248.027 130.723C186.027 130.723 135.187 116.773 135.187 99.7233C135.187 82.6733 185.717 68.7233 248.027 68.7233C310.337 68.7233 360.867 82.6733 360.867 99.7233C360.867 116.773 310.027 130.723 248.027 130.723Z" stroke="#45413C" stroke-width="7" stroke-linecap="round" stroke-linejoin="round"/>
<path d="M205.055 357.333C210.351 363.417 216.969 368.209 224.401 371.343C231.834 374.477 239.884 375.871 247.938 375.416C255.992 375.871 264.042 374.477 271.475 371.343C278.907 368.209 285.525 363.417 290.821 357.333" stroke="#45413C" stroke-width="7" stroke-linecap="round" stroke-linejoin="round"/>
</svg>
