<svg width="497" height="497" viewBox="0 0 497 497" fill="none" xmlns="http://www.w3.org/2000/svg">
<path d="M167.806 262.328L303.951 222.129C305.873 221.562 307.943 221.781 309.704 222.739C311.465 223.697 312.773 225.315 313.34 227.238L365.766 404.793C366.297 406.592 366.469 408.479 366.271 410.345C366.073 412.211 365.51 414.019 364.613 415.668C363.717 417.316 362.504 418.771 361.045 419.951C359.585 421.131 357.908 422.011 356.108 422.543L232.873 458.93C231.073 459.461 229.187 459.633 227.321 459.435C225.455 459.237 223.646 458.674 221.998 457.777C220.349 456.88 218.894 455.668 217.714 454.208C216.535 452.749 215.654 451.072 215.123 449.272L162.668 271.618C162.1 269.696 162.319 267.626 163.278 265.865C164.236 264.105 165.854 262.796 167.777 262.229L167.806 262.328Z" fill="#87898C"/>
<path d="M365.674 404.836L313.282 227.262C312.728 225.343 311.437 223.721 309.691 222.751C307.944 221.781 305.885 221.541 303.963 222.085L279.941 229.229L338.546 427.719L356.045 422.542C357.844 422.019 359.523 421.145 360.983 419.97C362.442 418.795 363.655 417.343 364.551 415.696C365.446 414.05 366.006 412.243 366.199 410.379C366.392 408.515 366.213 406.631 365.674 404.836Z" fill="#BDBEC0"/>
<path d="M167.806 262.328L303.951 222.129C305.873 221.562 307.943 221.781 309.704 222.739C311.465 223.697 312.773 225.315 313.34 227.238L365.766 404.793C366.297 406.592 366.469 408.479 366.271 410.345C366.073 412.211 365.51 414.019 364.613 415.668C363.717 417.316 362.504 418.771 361.045 419.951C359.585 421.131 357.908 422.011 356.108 422.543L232.873 458.93C231.073 459.461 229.187 459.633 227.321 459.435C225.455 459.237 223.646 458.674 221.998 457.777C220.349 456.88 218.894 455.668 217.714 454.208C216.535 452.749 215.654 451.072 215.123 449.272L162.668 271.618C162.1 269.696 162.319 267.626 163.278 265.865C164.236 264.105 165.854 262.796 167.777 262.229L167.806 262.328Z" stroke="#45413C" stroke-width="7" stroke-linecap="round" stroke-linejoin="round"/>
<path d="M304.276 221.982L167.393 262.467L164.701 232.026C164.541 230.386 164.961 228.742 165.888 227.38C166.815 226.017 168.191 225.023 169.775 224.571L281.807 191.437C283.382 190.985 285.065 191.088 286.573 191.729C288.081 192.37 289.323 193.51 290.09 194.958L304.276 221.982Z" fill="#DAEDF7"/>
<path d="M251.262 200.549L265.55 233.579L304.482 221.982L290.09 195.475C289.322 194.028 288.08 192.888 286.572 192.247C285.064 191.606 283.382 191.503 281.806 191.955L251.262 200.963V200.549Z" fill="#E8F4FA"/>
<path d="M304.276 221.982L167.393 262.467L164.701 232.026C164.541 230.386 164.961 228.742 165.888 227.38C166.815 226.017 168.191 225.023 169.775 224.571L281.807 191.437C283.382 190.985 285.065 191.088 286.573 191.729C288.081 192.37 289.323 193.51 290.09 194.958L304.276 221.982Z" stroke="#45413C" stroke-width="7" stroke-linecap="round" stroke-linejoin="round"/>
<path d="M273.73 193.818L177.85 222.189L127.529 51.7593C126.812 49.1879 126.824 46.4676 127.564 43.9027C128.304 41.3377 129.743 39.0291 131.72 37.235C133.696 35.4409 136.133 34.2319 138.758 33.7432C141.382 33.2545 144.091 33.5054 146.581 34.4678L218.025 62.9418C224.034 65.3507 229.42 69.0895 233.777 73.8775C238.135 78.6656 241.351 84.3785 243.185 90.5874L273.73 193.818Z" fill="#FF6242"/>
<path d="M133.328 71.2251L195.453 95.9716C201.462 98.3805 206.847 102.119 211.205 106.907C215.563 111.695 218.779 117.408 220.613 123.617L243.91 202.412L273.627 193.611L243.082 90.0697C241.191 83.9663 237.96 78.3628 233.624 73.6691C229.289 68.9754 223.959 65.3102 218.025 62.9418L146.581 34.4678C144.091 33.5054 141.382 33.2545 138.758 33.7432C136.133 34.2319 133.696 35.4409 131.72 37.235C129.743 39.0291 128.304 41.3377 127.564 43.9027C126.824 46.4676 126.812 49.1879 127.529 51.7593L133.328 71.2251Z" fill="#FF866E"/>
<path d="M273.73 193.818L177.85 222.189L127.529 51.7593C126.812 49.1879 126.824 46.4676 127.564 43.9027C128.304 41.3377 129.743 39.0291 131.72 37.235C133.696 35.4409 136.133 34.2319 138.758 33.7432C141.382 33.2545 144.091 33.5054 146.581 34.4678L218.025 62.9418C224.034 65.3507 229.42 69.0895 233.777 73.8775C238.135 78.6656 241.351 84.3785 243.185 90.5874L273.73 193.818Z" stroke="#45413C" stroke-width="7" stroke-linecap="round" stroke-linejoin="round"/>
</svg>
