<svg width="495" height="495" viewBox="0 0 495 495" fill="none" xmlns="http://www.w3.org/2000/svg">
<g clip-path="url(#clip0_1151_4822)">
<path d="M171.679 460.026L13.6918 302.142C12.7175 301.369 11.9629 300.353 11.5034 299.198C11.0438 298.042 10.8953 296.785 11.0727 295.554C11.2501 294.323 11.7471 293.16 12.5143 292.18C13.2815 291.201 14.2919 290.44 15.4449 289.973L25.1387 285.848C27.7916 285.023 30.6326 285.023 33.2856 285.848L111.97 302.039L171.989 362.058L188.386 440.536C188.926 443.299 188.676 446.159 187.664 448.786L183.745 458.376C183.283 459.523 182.526 460.527 181.55 461.287C180.575 462.047 179.416 462.535 178.191 462.703C176.966 462.87 175.718 462.711 174.575 462.241C173.431 461.771 172.432 461.007 171.679 460.026Z" fill="#4ACFFF"/>
<path d="M139.195 355.355L151.054 341.434L111.97 302.04L33.2856 285.849C30.5597 285.256 27.7177 285.507 25.1387 286.571L15.4449 290.387C14.2919 290.854 13.2815 291.615 12.5143 292.594C11.7471 293.573 11.2501 294.736 11.0727 295.967C10.8953 297.199 11.0438 298.455 11.5034 299.611C11.9629 300.767 12.7175 301.782 13.6918 302.555L24.0043 312.868H25.2418C27.8208 311.804 30.6628 311.553 33.3887 312.146L111.97 327.821L139.195 355.355Z" fill="#80DDFF"/>
<path d="M171.68 362.058L166.421 356.799L102.277 390.83L135.277 423.727C140.342 423.752 145.381 423.022 150.23 421.561C161.547 417.945 172.054 412.166 181.168 404.546L171.68 362.058Z" fill="#00B8F0"/>
<path d="M171.679 460.026L13.6918 302.142C12.7175 301.369 11.9629 300.353 11.5034 299.198C11.0438 298.042 10.8953 296.785 11.0727 295.554C11.2501 294.323 11.7471 293.16 12.5143 292.18C13.2815 291.201 14.2919 290.44 15.4449 289.973L25.1387 285.848C27.7916 285.023 30.6326 285.023 33.2856 285.848L111.97 302.039L171.989 362.058L188.386 440.536C188.926 443.299 188.676 446.159 187.664 448.786L183.745 458.376C183.283 459.523 182.526 460.527 181.55 461.287C180.575 462.047 179.416 462.535 178.191 462.703C176.966 462.87 175.718 462.711 174.575 462.241C173.431 461.771 172.432 461.007 171.679 460.026Z" stroke="#45413C" stroke-width="6" stroke-linecap="round" stroke-linejoin="round"/>
<path d="M434.064 253.991L454.482 274.409C457.19 277.116 458.711 280.789 458.711 284.618C458.711 288.447 457.19 292.119 454.482 294.826L398.26 351.048L357.425 310.213L413.647 253.991C414.987 252.65 416.579 251.587 418.33 250.861C420.082 250.136 421.959 249.762 423.855 249.762C425.751 249.762 427.629 250.136 429.38 250.861C431.132 251.587 432.724 252.65 434.064 253.991Z" fill="#C0DCEB" stroke="#45413C" stroke-width="6" stroke-linecap="round" stroke-linejoin="round"/>
<path d="M210.521 26.2381L230.939 46.6559C233.647 49.3634 235.168 53.0357 235.168 56.8647C235.168 60.6938 233.647 64.366 230.939 67.0736L174.79 123.222L133.955 82.3869L190.104 26.2382C192.811 23.5306 196.483 22.0095 200.312 22.0095C204.142 22.0095 207.814 23.5306 210.521 26.2381Z" fill="#C0DCEB" stroke="#45413C" stroke-width="6" stroke-linecap="round" stroke-linejoin="round"/>
<path d="M478.118 330.31L354.368 233.373L252.171 131.279L155.233 7.52898C153.671 5.5359 151.611 3.989 149.261 3.04358C146.912 2.09816 144.355 1.78748 141.847 2.14274C139.339 2.49799 136.969 3.50668 134.975 5.06753C132.98 6.62839 131.431 8.68649 130.483 11.0352L122.646 30.7321C120.479 36.0249 119.975 41.8522 121.202 47.4384L155.543 208.107L278.158 330.516L438.105 364.445C443.717 365.507 449.516 364.934 454.812 362.795L474.508 354.854C476.821 353.9 478.845 352.362 480.384 350.391C481.923 348.42 482.924 346.082 483.287 343.608C483.651 341.133 483.366 338.607 482.46 336.276C481.554 333.945 480.057 331.889 478.118 330.31Z" fill="#4ACFFF"/>
<path d="M268.875 321.234L278.053 330.516L333.019 342.169L391.697 262.556L354.675 233.475L347.147 225.844L268.875 321.234Z" fill="#00B8F0"/>
<path d="M161.936 214.393L184.727 195.418L153.789 47.9497C152.554 42.3298 153.057 36.4672 155.233 31.1403L161.627 15.1559L155.955 7.93718C154.392 5.9441 152.332 4.3972 149.983 3.45178C147.633 2.50636 145.076 2.19568 142.568 2.55094C140.061 2.9062 137.691 3.91488 135.696 5.47574C133.701 7.03659 132.152 9.09469 131.205 11.4434L123.264 31.1403C121.191 36.4914 120.69 42.3235 121.82 47.9497L155.439 208.103L161.936 214.393Z" fill="#80DDFF"/>
<path d="M478.118 330.31L354.368 233.373L252.171 131.279L155.233 7.52898C153.671 5.5359 151.611 3.989 149.261 3.04358C146.912 2.09816 144.355 1.78748 141.847 2.14274C139.339 2.49799 136.969 3.50668 134.975 5.06753C132.98 6.62839 131.431 8.68649 130.483 11.0352L122.646 30.7321C120.479 36.0249 119.975 41.8522 121.202 47.4384L155.543 208.107L278.158 330.516L438.105 364.445C443.717 365.507 449.516 364.934 454.812 362.795L474.508 354.854C476.821 353.9 478.845 352.362 480.384 350.391C481.923 348.42 482.924 346.082 483.287 343.608C483.651 341.133 483.366 338.607 482.46 336.276C481.554 333.945 480.058 331.889 478.118 330.31Z" stroke="#45413C" stroke-width="6" stroke-linecap="round" stroke-linejoin="round"/>
<path d="M81.0321 358.036L268.101 133.017C272.694 127.507 277.921 122.557 283.673 118.27C329.46 78.6703 398.554 50.7234 429.801 81.9703C435.173 87.4648 439.043 94.2472 441.041 101.667C445.785 78.5672 443.413 57.5297 429.801 43.9172C398.863 12.9797 329.46 40.7203 283.673 80.3203C277.898 84.5407 272.668 89.4594 268.101 94.964L81.0321 320.292C74.6916 327.691 70.4485 336.653 68.7437 346.246C67.039 355.84 67.9349 365.715 71.3383 374.845C73.6073 368.74 76.884 363.058 81.0321 358.036Z" fill="white"/>
<path d="M398.788 190.149C438.388 144.361 466.438 75.2674 435.088 43.9174C403.738 12.5674 334.748 40.7205 288.96 80.3205C283.186 84.541 277.955 89.4596 273.388 94.9643L86.3196 320.292C77.6106 330.142 72.8984 342.893 73.1083 356.039C73.3182 369.185 78.435 381.778 87.454 391.345C97.0193 400.357 109.601 405.478 122.741 405.707C135.881 405.936 148.634 401.256 158.507 392.583L384.145 205.617C389.621 201.059 394.536 195.866 398.788 190.149Z" fill="#E8F4FA"/>
<path d="M393.499 190.149C433.099 144.361 461.149 75.2674 429.799 43.9174C398.449 12.5674 329.459 40.7205 283.671 80.3205C277.897 84.541 272.666 89.4596 268.099 94.9643L81.0305 320.292C72.3215 330.142 67.6093 342.893 67.8192 356.039C68.0291 369.185 73.1459 381.778 82.1649 391.345C91.7302 400.357 104.312 405.478 117.452 405.707C130.592 405.936 143.345 401.256 153.218 392.583L378.856 205.617C384.332 201.059 389.247 195.866 393.499 190.149Z" stroke="#45413C" stroke-width="6" stroke-linecap="round" stroke-linejoin="round"/>
<path d="M388.655 85.0641C380.023 76.656 369.527 70.4054 358.022 66.8213C346.517 63.2372 334.329 62.421 322.448 64.4391L318.942 95.3766C318.798 96.4945 318.917 97.6308 319.291 98.6942C319.665 99.7577 320.282 100.719 321.094 101.501C321.906 102.283 322.89 102.864 323.967 103.197C325.044 103.53 326.184 103.607 327.295 103.42C337.608 101.667 354.417 101.77 363.08 110.433C371.742 119.095 371.948 136.317 370.092 146.32C369.906 147.432 369.982 148.572 370.316 149.649C370.649 150.726 371.23 151.709 372.012 152.521C372.794 153.333 373.755 153.951 374.818 154.325C375.882 154.698 377.018 154.818 378.136 154.673L409.074 151.167C411.06 139.32 410.248 127.172 406.702 115.694C403.157 104.217 396.977 93.7274 388.655 85.0641Z" fill="#00B8F0"/>
<path d="M322.448 64.233L318.942 95.1705C318.798 96.2884 318.917 97.4247 319.291 98.4881C319.665 99.5516 320.282 100.513 321.094 101.295C321.906 102.077 322.89 102.657 323.967 102.991C325.044 103.324 326.184 103.401 327.295 103.214C333.192 102.245 339.193 102.072 345.136 102.699L387.623 83.6205C378.976 75.6041 368.6 69.6858 357.298 66.3238C345.996 62.9618 334.071 62.2464 322.448 64.233Z" fill="#4ACFFF"/>
<path d="M388.655 85.0641C380.023 76.656 369.527 70.4054 358.022 66.8213C346.517 63.2372 334.329 62.421 322.448 64.4391L318.942 95.3766C318.798 96.4945 318.917 97.6308 319.291 98.6942C319.665 99.7577 320.282 100.719 321.094 101.501C321.906 102.283 322.89 102.864 323.967 103.197C325.044 103.53 326.184 103.607 327.295 103.42C337.608 101.667 354.417 101.77 363.08 110.433C371.742 119.095 371.948 136.317 370.092 146.32C369.906 147.432 369.982 148.572 370.316 149.649C370.649 150.726 371.23 151.709 372.012 152.521C372.794 153.333 373.755 153.951 374.818 154.325C375.882 154.698 377.018 154.818 378.136 154.673L409.074 151.167C411.06 139.32 410.248 127.172 406.702 115.694C403.157 104.217 396.977 93.7274 388.655 85.0641V85.0641Z" stroke="#45413C" stroke-width="6" stroke-linecap="round" stroke-linejoin="round"/>
<path d="M393.5 190.149C405.322 174.919 411.328 155.973 410.439 136.714C409.551 117.454 401.827 99.142 388.653 85.0646C374.6 71.8754 356.293 64.1477 337.04 63.2777C317.787 62.4077 298.857 68.4528 283.672 80.3208" stroke="#45413C" stroke-width="6" stroke-linecap="round" stroke-linejoin="round"/>
<path d="M82.3717 391.346C81.0122 389.994 79.9334 388.388 79.1972 386.618C78.461 384.848 78.082 382.95 78.082 381.033C78.082 379.116 78.461 377.219 79.1972 375.449C79.9334 373.679 81.0122 372.072 82.3717 370.721L138.575 314.518C139.929 313.163 141.537 312.089 143.306 311.356C145.076 310.623 146.972 310.246 148.887 310.246C150.803 310.246 152.699 310.623 154.468 311.356C156.238 312.089 157.846 313.163 159.2 314.518C160.554 315.872 161.628 317.48 162.361 319.249C163.094 321.019 163.471 322.915 163.471 324.83C163.471 326.745 163.094 328.642 162.361 330.411C161.628 332.181 160.554 333.788 159.2 335.143L102.997 391.346C101.645 392.705 100.039 393.784 98.2688 394.52C96.4989 395.256 94.601 395.635 92.6842 395.635C90.7674 395.635 88.8695 395.256 87.0996 394.52C85.3298 393.784 83.723 392.705 82.3717 391.346Z" fill="#4ACFFF" stroke="#45413C" stroke-width="6" stroke-linecap="round" stroke-linejoin="round"/>
</g>
<defs>
<clipPath id="clip0_1151_4822">
<rect width="495" height="495" fill="white"/>
</clipPath>
</defs>
</svg>
