<svg width="495" height="495" viewBox="0 0 495 495" fill="none" xmlns="http://www.w3.org/2000/svg">
<path d="M153.786 270.688L212.258 198.501C183.574 191.254 153.648 190.409 124.601 196.026C92.4265 203.966 87.3734 264.707 86.8577 293.479C86.8218 295.076 87.2128 296.653 87.9904 298.049C88.768 299.444 89.904 300.606 91.281 301.416C92.6581 302.225 94.2262 302.652 95.8235 302.653C97.4208 302.654 98.9894 302.228 100.367 301.419L153.786 270.688Z" fill="#FF6242"/>
<path d="M124.806 223.457C147.288 218.833 170.429 218.379 193.075 222.117L212.256 198.604C183.573 191.358 153.647 190.513 124.6 196.129C92.4252 203.967 87.372 264.707 86.8564 293.479C86.8305 295.237 87.3335 296.961 88.3002 298.429C91.3939 268.111 99.5408 229.748 124.806 223.457Z" fill="#FF866E"/>
<path d="M153.786 270.688L212.258 198.501C183.574 191.254 153.648 190.409 124.601 196.026C92.4265 203.966 87.3734 264.707 86.8577 293.479C86.8218 295.076 87.2128 296.653 87.9904 298.049C88.768 299.444 89.904 300.606 91.281 301.416C92.6581 302.225 94.2262 302.652 95.8235 302.653C97.4208 302.654 98.9894 302.228 100.367 301.419L153.786 270.688Z" stroke="#45413C" stroke-width="7" stroke-linecap="round" stroke-linejoin="round"/>
<path d="M224.013 341.02L296.201 282.548C303.442 311.197 304.287 341.089 298.676 370.101C291.147 402.276 230.819 407.329 201.635 407.845C200.038 407.881 198.46 407.49 197.065 406.712C195.67 405.934 194.508 404.798 193.698 403.421C192.889 402.044 192.462 400.476 192.461 398.879C192.46 397.282 192.886 395.713 193.694 394.335L224.013 341.02Z" fill="#FF6242"/>
<path d="M270.936 369.998C275.613 347.487 276.068 324.303 272.277 301.626L295.789 282.548C303.03 311.197 303.875 341.089 298.264 370.101C290.736 402.276 230.408 407.329 201.223 407.845C199.468 407.858 197.747 407.356 196.273 406.401C226.592 403.72 264.955 395.16 270.936 369.998Z" fill="#FF866E"/>
<path d="M224.013 341.02L296.201 282.548C303.442 311.197 304.287 341.089 298.676 370.101C291.147 402.276 230.819 407.329 201.635 407.845C200.038 407.881 198.46 407.49 197.065 406.712C195.67 405.934 194.508 404.798 193.698 403.421C192.889 402.044 192.462 400.476 192.461 398.879C192.46 397.282 192.886 395.713 193.694 394.335L224.013 341.02Z" stroke="#45413C" stroke-width="7" stroke-linecap="round" stroke-linejoin="round"/>
<path d="M416.032 218.919C471.926 160.138 454.291 87.641 445.526 62.1691C444.52 59.1411 442.826 56.3876 440.576 54.1254C438.315 51.9242 435.607 50.2359 432.635 49.1754C407.163 40.4097 334.563 22.7754 275.782 79.0816C203.182 147.763 153.27 269.863 153.27 269.863L225.457 342.05C225.457 342.05 346.938 291.519 416.032 218.919Z" fill="#E8F4FA"/>
<path d="M298.16 118.991C355.188 64.6441 425.107 79.8035 452.848 88.6722C451.261 79.6766 448.986 70.8161 446.041 62.1691C444.986 59.1016 443.222 56.3262 440.893 54.0685C438.563 51.8107 435.734 50.1343 432.635 49.1754C407.163 40.4097 334.563 22.7754 275.782 79.0816C203.182 147.763 153.27 269.863 153.27 269.863L181.01 297.603C195.757 264.707 239.585 174.678 298.16 118.991Z" fill="white"/>
<path d="M416.032 218.919C471.926 160.138 454.291 87.641 445.526 62.1691C444.52 59.1411 442.826 56.3876 440.576 54.1254C438.315 51.9242 435.607 50.2359 432.635 49.1754C407.163 40.4097 334.563 22.7754 275.782 79.0816C203.182 147.763 153.27 269.863 153.27 269.863L225.457 342.05C225.457 342.05 346.938 291.519 416.032 218.919Z" stroke="#45413C" stroke-width="7" stroke-linecap="round" stroke-linejoin="round"/>
<path d="M242.987 261.098C243.737 259.769 244.033 258.233 243.831 256.721C243.629 255.209 242.939 253.804 241.866 252.719C240.793 251.635 239.396 250.93 237.886 250.711C236.376 250.492 234.836 250.772 233.5 251.507C213.41 261.79 194.956 274.996 178.741 290.695C161.565 307.995 147.999 328.537 138.831 351.126C138.555 351.765 138.475 352.472 138.601 353.156C138.728 353.84 139.056 354.472 139.542 354.969C140.029 355.467 140.653 355.809 141.334 355.951C142.015 356.093 142.724 356.029 143.369 355.767C165.923 346.721 186.462 333.297 203.8 316.27C219.558 299.951 232.769 281.352 242.987 261.098Z" fill="#FF6242" stroke="#45413C" stroke-width="7" stroke-linecap="round" stroke-linejoin="round"/>
<path d="M300.117 138.07C300.117 153.085 306.082 167.486 316.7 178.103C327.317 188.721 341.717 194.685 356.733 194.685C371.748 194.685 386.149 188.721 396.766 178.103C407.384 167.486 413.348 153.085 413.348 138.07C413.348 123.054 407.384 108.654 396.766 98.0364C386.149 87.419 371.748 81.4541 356.733 81.4541C341.717 81.4541 327.317 87.419 316.7 98.0364C306.082 108.654 300.117 123.054 300.117 138.07Z" fill="#C0DCEB" stroke="#45413C" stroke-width="7" stroke-linecap="round" stroke-linejoin="round"/>
<path d="M317.855 137.76C317.855 142.906 318.869 148.002 320.838 152.756C322.808 157.511 325.694 161.831 329.333 165.47C332.972 169.108 337.292 171.995 342.047 173.964C346.801 175.934 351.897 176.947 357.043 176.947C362.189 176.947 367.285 175.934 372.039 173.964C376.794 171.995 381.114 169.108 384.753 165.47C388.392 161.831 391.278 157.511 393.247 152.756C395.217 148.002 396.23 142.906 396.23 137.76C396.23 132.614 395.217 127.518 393.247 122.763C391.278 118.009 388.392 113.689 384.753 110.05C381.114 106.411 376.794 103.525 372.039 101.555C367.285 99.5859 362.189 98.5723 357.043 98.5723C351.897 98.5723 346.801 99.5859 342.047 101.555C337.292 103.525 332.972 106.411 329.333 110.05C325.694 113.689 322.808 118.009 320.838 122.763C318.869 127.518 317.855 132.614 317.855 137.76Z" fill="#FF6242"/>
<path d="M329.302 110.019C325.653 113.659 322.759 117.983 320.784 122.743C318.809 127.503 317.793 132.606 317.793 137.76C317.793 142.913 318.809 148.016 320.784 152.776C322.759 157.536 325.653 161.86 329.302 165.5C331.925 168.014 334.873 170.164 338.067 171.894L374.677 102.904C367.338 99.1169 358.984 97.7653 350.826 99.0446C342.668 100.324 335.129 104.168 329.302 110.019Z" fill="#FF866E"/>
<path d="M317.855 137.76C317.855 142.906 318.869 148.002 320.838 152.756C322.808 157.511 325.694 161.831 329.333 165.47C332.972 169.108 337.292 171.995 342.047 173.964C346.801 175.934 351.897 176.947 357.043 176.947C362.189 176.947 367.285 175.934 372.039 173.964C376.794 171.995 381.114 169.108 384.753 165.47C388.392 161.831 391.278 157.511 393.247 152.756C395.217 148.002 396.23 142.906 396.23 137.76C396.23 132.614 395.217 127.518 393.247 122.763C391.278 118.009 388.392 113.689 384.753 110.05C381.114 106.411 376.794 103.525 372.039 101.555C367.285 99.5859 362.189 98.5723 357.043 98.5723C351.897 98.5723 346.801 99.5859 342.047 101.555C337.292 103.525 332.972 106.411 329.333 110.05C325.694 113.689 322.808 118.009 320.838 122.763C318.869 127.518 317.855 132.614 317.855 137.76Z" stroke="#45413C" stroke-width="7" stroke-linecap="round" stroke-linejoin="round"/>
<path d="M125.837 424.241C118.619 431.46 72.6248 447.032 49.3186 454.56C44.9873 456.003 39.0061 449.713 40.1404 445.382C47.6686 422.178 63.2404 376.185 71.0779 368.863C80.8748 358.55 106.45 358.55 121.712 373.607C136.975 388.663 135.634 414.444 125.837 424.241Z" fill="#FF8A14" stroke="#45413C" stroke-width="7" stroke-linecap="round" stroke-linejoin="round"/>
<path d="M113.359 406.917C108.203 411.97 86.856 417.229 82.4216 412.692C77.9873 408.154 83.1435 386.498 88.2998 381.754C91.7161 379.422 95.8954 378.486 99.98 379.138C104.065 379.79 107.745 381.981 110.265 385.26C113.416 387.815 115.486 391.466 116.06 395.482C116.633 399.498 115.669 403.582 113.359 406.917Z" fill="#FFE500" stroke="#45413C" stroke-width="7" stroke-linecap="round" stroke-linejoin="round"/>
</svg>
