<svg width="496" height="496" viewBox="0 0 496 496" fill="none" xmlns="http://www.w3.org/2000/svg">
<path d="M148.554 122.334L141.527 209.444H173.767L178.314 122.541C178.819 109.554 184.308 97.2606 193.641 88.2159C202.975 79.1712 215.434 74.0707 228.431 73.9741C241.44 73.9864 253.945 79.0053 263.353 87.9901C272.761 96.9748 278.35 109.236 278.961 122.231L283.094 209.134H315.334L308.307 122.024C306.698 101.94 297.586 83.198 282.785 69.5269C267.984 55.8558 248.579 48.2576 228.431 48.2441C208.226 48.2396 188.766 55.8727 173.952 69.6132C159.138 83.3536 150.066 102.186 148.554 122.334Z" fill="#F7E5C6"/>
<path d="M148.553 150.234C149.844 133.959 156.079 118.467 166.421 105.834C176.763 93.2015 190.72 84.0318 206.42 79.5537C213.239 76.087 220.78 74.28 228.43 74.28C236.08 74.28 243.621 76.087 250.44 79.5537C266.14 84.0318 280.096 93.2015 290.439 105.834C300.781 118.467 307.016 133.959 308.307 150.234L312.647 209.444H314.92L307.893 122.334C306.44 102.142 297.393 83.2496 282.573 69.4583C267.754 55.667 248.261 48 228.017 48C207.772 48 188.28 55.667 173.46 69.4583C158.64 83.2496 149.593 102.142 148.14 122.334L141.113 209.444H143.387L148.553 150.234Z" fill="#FFF5E3"/>
<path d="M365.867 209.443H118.797C110.929 209.45 103.251 211.857 96.7878 216.344C90.3251 220.831 85.3857 227.184 82.6299 234.553C79.5299 242.923 76.4299 251.293 74.9833 256.253C64.3984 291.02 58.287 326.995 56.7966 363.307L55.0399 407.223C54.8028 412.436 55.6235 417.642 57.4527 422.529C59.2819 427.415 62.0817 431.881 65.6833 435.656C69.2848 439.432 73.6136 442.438 78.4086 444.496C83.2036 446.553 88.3656 447.618 93.5833 447.627H301.077C311.056 447.609 320.643 443.742 327.843 436.832C335.042 429.922 339.298 420.5 339.723 410.53L341.583 363.307C343.53 313.896 354.018 265.195 372.583 219.363C372.997 218.265 373.141 217.083 373.003 215.918C372.865 214.752 372.45 213.637 371.792 212.665C371.134 211.693 370.253 210.894 369.222 210.333C368.191 209.772 367.04 209.467 365.867 209.443Z" fill="#947746" stroke="#45413C" stroke-width="7" stroke-linecap="round" stroke-linejoin="round"/>
<path d="M71.7799 267.414C63.1918 298.713 58.1655 330.881 56.7966 363.307L55.0399 407.224C54.8028 412.436 55.6235 417.643 57.4527 422.529C59.2819 427.416 62.0817 431.881 65.6833 435.657C69.2848 439.432 73.6136 442.439 78.4086 444.497C83.2036 446.554 88.3656 447.619 93.5833 447.627H289.917L304.487 267.414H71.7799Z" fill="#DEBB7E"/>
<path d="M300.763 309.987L304.173 267.414H71.7766C67.9532 281.467 64.9566 295.727 62.4766 309.987H300.763Z" fill="#B89558"/>
<path d="M71.7799 267.414C63.1918 298.713 58.1655 330.881 56.7966 363.307L55.0399 407.224C54.8028 412.436 55.6235 417.643 57.4527 422.529C59.2819 427.416 62.0817 431.881 65.6833 435.657C69.2848 439.432 73.6136 442.439 78.4086 444.496C83.2036 446.554 88.3656 447.619 93.5833 447.627H289.917L304.487 267.414H71.7799Z" stroke="#45413C" stroke-width="7" stroke-linecap="round" stroke-linejoin="round"/>
<path d="M359.767 209.444C369.781 209.489 379.565 212.443 387.931 217.947C396.296 223.451 402.882 231.267 406.887 240.444C415.266 258.777 422.379 277.662 428.174 296.967C434.572 322.066 438.347 347.762 439.437 373.641L440.781 407.534C440.99 412.738 440.144 417.931 438.296 422.8C436.447 427.669 433.634 432.115 430.024 435.869C426.415 439.624 422.083 442.61 417.29 444.648C412.498 446.686 407.342 447.735 402.134 447.731H194.744C184.757 447.739 175.155 443.881 167.95 436.965C160.746 430.049 156.498 420.613 156.097 410.634L154.237 363.307C153.117 335.872 149.38 308.606 143.077 281.881C140.597 271.547 137.497 254.497 134.914 239.411C134.264 235.706 134.435 231.903 135.414 228.271C136.393 224.639 138.156 221.266 140.58 218.39C143.003 215.513 146.028 213.202 149.441 211.621C152.854 210.04 156.572 209.226 160.334 209.237L359.767 209.444Z" fill="#DEBB7E"/>
<path d="M138.12 257.597C140.384 253.717 143.628 250.5 147.527 248.269C151.427 246.039 155.844 244.872 160.336 244.887H359.77C369.783 244.932 379.567 247.886 387.933 253.39C396.298 258.893 402.884 266.709 406.89 275.887C415.248 294.192 422.36 313.042 428.176 332.307C434.567 357.407 438.342 383.102 439.44 408.98V417.97C440.249 414.588 440.596 411.112 440.473 407.637L439.44 373.64C438.349 347.761 434.574 322.066 428.176 296.967C422.381 277.661 415.269 258.776 406.89 240.443C402.884 231.266 396.298 223.45 387.933 217.946C379.567 212.443 369.783 209.489 359.77 209.443H160.336C156.606 209.44 152.919 210.248 149.531 211.811C146.144 213.374 143.137 215.655 140.719 218.496C138.301 221.336 136.529 224.669 135.527 228.263C134.525 231.856 134.317 235.625 134.916 239.307C135.95 245.403 136.983 251.603 138.12 257.597Z" fill="#F0D5A8"/>
<path d="M359.767 209.444C369.781 209.489 379.565 212.443 387.931 217.947C396.296 223.451 402.882 231.267 406.887 240.444C415.266 258.777 422.379 277.662 428.174 296.967C434.572 322.066 438.347 347.762 439.437 373.641L440.781 407.534C440.99 412.738 440.144 417.931 438.296 422.8C436.447 427.669 433.634 432.115 430.024 435.869C426.415 439.624 422.083 442.61 417.29 444.648C412.498 446.686 407.342 447.735 402.134 447.731H194.744C184.757 447.739 175.155 443.881 167.95 436.965C160.746 430.049 156.498 420.613 156.097 410.634L154.237 363.307C153.117 335.872 149.38 308.606 143.077 281.881C140.597 271.547 137.497 254.497 134.914 239.411C134.264 235.706 134.435 231.903 135.414 228.271C136.393 224.639 138.156 221.266 140.58 218.39C143.003 215.513 146.028 213.202 149.441 211.621C152.854 210.04 156.572 209.226 160.334 209.237L359.767 209.444Z" stroke="#45413C" stroke-width="7" stroke-linecap="round" stroke-linejoin="round"/>
<path d="M225.952 261.007H197.948C192.715 260.971 187.614 259.354 183.317 256.366C179.02 253.378 175.727 249.16 173.872 244.267L160.852 209.443H225.228L238.042 243.543C238.777 245.498 239.027 247.601 238.771 249.674C238.515 251.746 237.76 253.725 236.572 255.442C235.383 257.159 233.796 258.562 231.946 259.531C230.097 260.5 228.04 261.007 225.952 261.007Z" fill="#E8F4FA" stroke="#45413C" stroke-width="7" stroke-linecap="round" stroke-linejoin="round"/>
<path d="M361.112 261.007H333.315C328.082 260.971 322.981 259.354 318.684 256.366C314.387 253.378 311.094 249.16 309.239 244.267L296.219 209.443H360.595L373.305 243.543C374.07 245.505 374.339 247.626 374.089 249.717C373.839 251.808 373.078 253.805 371.872 255.531C370.667 257.258 369.054 258.661 367.178 259.616C365.301 260.571 363.217 261.049 361.112 261.007Z" fill="#E8F4FA" stroke="#45413C" stroke-width="7" stroke-linecap="round" stroke-linejoin="round"/>
<path d="M148.554 122.334L141.527 209.444H173.767L178.314 122.541C178.819 109.554 184.308 97.2606 193.641 88.2159C202.975 79.1712 215.434 74.0707 228.431 73.9741V73.9741C241.44 73.9864 253.945 79.0053 263.353 87.9901C272.761 96.9748 278.35 109.236 278.961 122.231L283.094 209.134H315.334L308.307 122.024C306.698 101.94 297.586 83.198 282.785 69.5269C267.984 55.8558 248.579 48.2576 228.431 48.2441V48.2441C208.226 48.2396 188.766 55.8727 173.952 69.6132C159.138 83.3536 150.066 102.186 148.554 122.334V122.334Z" stroke="#45413C" stroke-width="7" stroke-linecap="round" stroke-linejoin="round"/>
<path d="M192.988 209.443L212.312 261.007" stroke="#45413C" stroke-width="7" stroke-linecap="round" stroke-linejoin="round"/>
<path d="M328.148 209.443L347.472 261.007" stroke="#45413C" stroke-width="7" stroke-linecap="round" stroke-linejoin="round"/>
</svg>
