<svg width="495" height="495" viewBox="0 0 495 495" fill="none" xmlns="http://www.w3.org/2000/svg">
<path d="M65.0625 207.981C65.0625 257.704 84.8149 305.391 119.974 340.551C155.134 375.71 202.821 395.462 252.544 395.462C302.267 395.462 349.953 375.71 385.113 340.551C420.273 305.391 440.025 257.704 440.025 207.981C440.025 158.258 420.273 110.572 385.113 75.412C349.953 40.2524 302.267 20.5 252.544 20.5C202.821 20.5 155.134 40.2524 119.974 75.412C84.8149 110.572 65.0625 158.258 65.0625 207.981Z" fill="#FFE500"/>
<path d="M252.539 20.5C215.43 20.4796 179.148 31.4665 148.284 52.0707C117.42 72.6749 93.361 101.971 79.1504 136.251C64.9398 170.532 61.2163 208.258 68.451 244.655C75.6857 281.052 93.5535 314.486 119.794 340.727C146.034 366.967 179.468 384.835 215.865 392.069C252.263 399.304 289.988 395.581 324.269 381.37C358.55 367.159 387.845 343.1 408.45 312.236C429.054 281.372 440.041 245.091 440.02 207.981C440.02 158.258 420.268 110.572 385.108 75.412C349.949 40.2525 302.262 20.5 252.539 20.5ZM252.539 367.413C218.673 367.433 185.561 357.408 157.394 338.605C129.226 319.803 107.269 293.068 94.2991 261.783C81.3296 230.499 77.9308 196.07 84.5328 162.853C91.1348 129.637 107.441 99.1244 131.388 75.1772C155.335 51.23 185.848 34.9239 219.064 28.3219C252.281 21.7198 286.71 25.1186 317.994 38.0882C349.279 51.0577 376.014 73.0152 394.816 101.183C413.619 129.35 423.644 162.462 423.624 196.328C423.624 218.795 419.198 241.042 410.6 261.799C402.003 282.556 389.401 301.416 373.514 317.303C357.627 333.19 338.767 345.792 318.01 354.39C297.253 362.987 275.006 367.413 252.539 367.413Z" fill="#EBCB00"/>
<path d="M196.336 58.0377C196.336 59.8795 197.79 61.7032 200.614 63.4048C203.439 65.1064 207.579 66.6525 212.797 67.9549C218.016 69.2572 224.212 70.2903 231.031 70.9951C237.85 71.6999 245.158 72.0627 252.539 72.0627C259.92 72.0627 267.228 71.6999 274.047 70.9951C280.866 70.2903 287.062 69.2572 292.281 67.9549C297.5 66.6525 301.64 65.1064 304.464 63.4048C307.288 61.7032 308.742 59.8795 308.742 58.0377C308.742 56.1959 307.288 54.3722 304.464 52.6706C301.64 50.969 297.5 49.4229 292.281 48.1205C287.062 46.8182 280.866 45.7851 274.047 45.0803C267.228 44.3755 259.92 44.0127 252.539 44.0127C245.158 44.0127 237.85 44.3755 231.031 45.0803C224.212 45.7851 218.016 46.8182 212.797 48.1205C207.579 49.4229 203.439 50.969 200.614 52.6706C197.79 54.3722 196.336 56.1959 196.336 58.0377Z" fill="#FFF48C"/>
<path d="M65.0625 207.981C65.0625 257.704 84.8149 305.391 119.974 340.551C155.134 375.71 202.821 395.463 252.544 395.463C302.267 395.463 349.953 375.71 385.113 340.551C420.273 305.391 440.025 257.704 440.025 207.981C440.025 158.258 420.273 110.572 385.113 75.412C349.953 40.2524 302.267 20.5 252.544 20.5C202.821 20.5 155.134 40.2524 119.974 75.412C84.8149 110.572 65.0625 158.258 65.0625 207.981V207.981Z" stroke="#45413C" stroke-width="7" stroke-linecap="round" stroke-linejoin="round"/>
<path d="M388.459 254.904C388.459 262.638 378.147 268.929 365.05 268.929C351.953 268.929 341.641 262.638 341.641 254.904C341.641 247.169 351.953 240.775 365.05 240.775C378.147 240.775 388.459 247.169 388.459 254.904Z" fill="#FFAA54"/>
<path d="M116.625 254.904C116.625 262.638 126.938 268.929 140.034 268.929C153.131 268.929 163.444 262.638 163.444 254.904C163.444 247.169 153.131 240.775 140.034 240.775C126.938 240.775 116.625 247.169 116.625 254.904Z" fill="#FFAA54"/>
<path d="M149.414 315.85C149.414 330.756 160.279 345.051 179.619 355.591C198.958 366.131 225.189 372.053 252.539 372.053C279.89 372.053 306.12 366.131 325.459 355.591C344.799 345.051 355.664 330.756 355.664 315.85C355.664 300.944 344.799 286.648 325.459 276.108C306.12 265.568 279.89 259.646 252.539 259.646C225.189 259.646 198.958 265.568 179.619 276.108C160.279 286.648 149.414 300.944 149.414 315.85Z" fill="#FFB0CA" stroke="#45413C" stroke-width="7" stroke-linecap="round" stroke-linejoin="round"/>
<path d="M353.397 157.966C331.343 154.373 310.89 144.201 294.719 128.781" stroke="#45413C" stroke-width="7" stroke-linecap="round" stroke-linejoin="round"/>
<path d="M151.688 157.966C173.741 154.373 194.194 144.201 210.366 128.781" stroke="#45413C" stroke-width="7" stroke-linecap="round" stroke-linejoin="round"/>
<path d="M345.351 405.465C350.727 405.216 356.08 406.315 360.923 408.662C363.787 409.93 366.325 411.833 368.344 414.227C370.363 416.621 371.811 419.444 372.576 422.481C394.026 432.072 399.595 443.106 398.358 455.481C397.12 467.856 388.045 474.25 351.539 474.25H154.158C117.754 474.25 108.37 467.959 107.236 455.481C106.101 443.003 112.804 429.7 140.648 419.49C138.17 416.243 136.535 412.432 135.888 408.398C135.241 404.365 135.602 400.234 136.94 396.374C138.278 392.514 140.55 389.045 143.554 386.277C146.559 383.509 150.201 381.527 154.158 380.509C172.101 377.519 172.823 361.74 172.823 338.331V280.169C196.909 265.891 224.551 258.739 252.539 259.544C280.527 258.739 308.169 265.891 332.254 280.169V347.715C332.254 364.525 334.214 389.79 345.351 405.465Z" fill="#6DD627"/>
<path d="M332.259 316.262V280.169C308.174 265.891 280.532 258.739 252.544 259.544C224.556 258.739 196.914 265.891 172.828 280.169V316.262C196.914 301.984 224.556 294.833 252.544 295.637C280.532 294.833 308.174 301.984 332.259 316.262Z" fill="#46B000"/>
<path d="M345.351 405.465C350.727 405.216 356.08 406.315 360.923 408.662C363.787 409.93 366.325 411.833 368.344 414.227C370.363 416.621 371.811 419.444 372.576 422.481C394.026 432.072 399.595 443.106 398.358 455.481C397.12 467.856 388.045 474.25 351.539 474.25H154.158C117.754 474.25 108.37 467.959 107.236 455.481C106.101 443.003 112.804 429.7 140.648 419.49C138.17 416.243 136.535 412.432 135.888 408.398C135.241 404.365 135.602 400.234 136.94 396.374C138.278 392.514 140.55 389.045 143.554 386.277C146.559 383.509 150.201 381.527 154.158 380.509C172.101 377.519 172.823 361.74 172.823 338.331V280.169C196.909 265.891 224.551 258.739 252.539 259.544C280.527 258.739 308.169 265.891 332.254 280.169V347.715C332.254 364.525 334.214 389.79 345.351 405.465Z" stroke="#45413C" stroke-width="7" stroke-linecap="round" stroke-linejoin="round"/>
<path d="M294.719 319.562C294.719 355.862 301.525 398.041 318.231 403.919C334.938 409.797 345.147 401.341 360.409 408.662C363.981 410.316 367.006 412.957 369.125 416.273C371.245 419.59 372.371 423.444 372.371 427.38C372.371 431.316 371.245 435.17 369.125 438.486C367.006 441.803 363.981 444.444 360.409 446.097" stroke="#45413C" stroke-width="7" stroke-linecap="round" stroke-linejoin="round"/>
<path d="M172.827 338.331C172.827 361.74 172.105 377.519 154.161 380.509C136.217 383.5 128.071 413.097 144.777 422.687C151.696 426.195 159.375 427.936 167.13 427.756C174.885 427.576 182.475 425.481 189.224 421.656" stroke="#45413C" stroke-width="7" stroke-linecap="round" stroke-linejoin="round"/>
<path d="M205.722 347.716C205.722 347.716 203.557 407.735 182.21 432.072C168.597 447.644 167.36 474.25 182.21 474.25" stroke="#45413C" stroke-width="7" stroke-linecap="round" stroke-linejoin="round"/>
<path d="M266.57 371.125C266.57 371.125 274.82 422.687 285.339 432.072C295.858 441.456 310.605 436.712 322.877 441.456C335.148 446.2 337.314 474.25 318.236 474.25" stroke="#45413C" stroke-width="7" stroke-linecap="round" stroke-linejoin="round"/>
<path d="M233.772 474.25C229.039 471.514 225.471 467.139 223.742 461.953C222.013 456.766 222.243 451.126 224.388 446.097" stroke="#45413C" stroke-width="7" stroke-linecap="round" stroke-linejoin="round"/>
<path d="M410.633 381.438C410.633 381.438 414.758 364.113 419.708 348.335C420.092 344.857 421.718 341.635 424.287 339.259C426.855 336.883 430.194 335.513 433.691 335.4C437.188 335.287 440.609 336.439 443.325 338.645C446.042 340.85 447.872 343.961 448.48 347.406C454.977 364.216 434.764 380.406 410.633 381.438Z" fill="#6DD627" stroke="#45413C" stroke-width="7" stroke-linecap="round" stroke-linejoin="round"/>
<path d="M411.562 419.284C418.307 415.279 424.51 410.427 430.022 404.847C439.097 394.534 458.588 410.519 444.459 423.409C430.331 436.3 411.562 419.284 411.562 419.284Z" fill="#6DD627" stroke="#45413C" stroke-width="7" stroke-linecap="round" stroke-linejoin="round"/>
<path d="M85.8925 421.553C82.0248 411.399 79.4606 400.796 78.2613 389.997C77.23 371.125 42.4769 371.434 46.2925 397.525C50.1082 423.616 85.8925 421.553 85.8925 421.553Z" fill="#6DD627" stroke="#45413C" stroke-width="7" stroke-linecap="round" stroke-linejoin="round"/>
<path d="M171.047 184.344C171.047 186.383 171.652 188.377 172.785 190.073C173.918 191.769 175.529 193.091 177.413 193.871C179.297 194.652 181.371 194.856 183.371 194.458C185.372 194.06 187.209 193.078 188.651 191.636C190.094 190.194 191.076 188.356 191.474 186.356C191.872 184.355 191.667 182.282 190.887 180.397C190.106 178.513 188.785 176.902 187.089 175.769C185.393 174.636 183.399 174.031 181.359 174.031C178.624 174.031 176.001 175.118 174.067 177.052C172.133 178.986 171.047 181.609 171.047 184.344Z" fill="#45413C" stroke="#45413C" stroke-width="7" stroke-linecap="round" stroke-linejoin="round"/>
<path d="M304 179.312C304 181.352 304.605 183.346 305.738 185.042C306.871 186.738 308.482 188.059 310.366 188.84C312.25 189.621 314.324 189.825 316.324 189.427C318.325 189.029 320.162 188.047 321.605 186.605C323.047 185.162 324.029 183.325 324.427 181.324C324.825 179.324 324.621 177.25 323.84 175.366C323.059 173.482 321.738 171.871 320.042 170.738C318.346 169.605 316.352 169 314.312 169C311.577 169 308.954 170.086 307.02 172.02C305.086 173.954 304 176.577 304 179.312Z" fill="#45413C" stroke="#45413C" stroke-width="7" stroke-linecap="round" stroke-linejoin="round"/>
</svg>
