<svg width="495" height="495" viewBox="0 0 495 495" fill="none" xmlns="http://www.w3.org/2000/svg">
<path d="M464.062 126.328H398.888C347.432 126.465 296.298 118.21 247.5 101.887C198.879 85.5557 147.919 77.2656 96.6281 77.3433H30.9375C24.9563 77.3433 20.625 80.9527 20.625 85.4902V353.615C21.0065 356.02 22.2792 358.194 24.1899 359.703C26.1006 361.212 28.5095 361.948 30.9375 361.762H96.6281C147.915 361.734 198.867 370.023 247.5 386.306C296.182 402.679 347.217 410.97 398.578 410.85H464.062C466.496 411.06 468.917 410.334 470.834 408.82C472.75 407.306 474.016 405.118 474.375 402.703V134.062C473.903 131.733 472.592 129.658 470.691 128.232C468.789 126.806 466.431 126.129 464.062 126.328Z" fill="black" stroke="#45413C" stroke-width="7" stroke-linecap="round" stroke-linejoin="round"/>
<path d="M247.499 101.888C221.608 93.0137 194.959 86.5242 167.887 82.5V367.228C194.94 371.2 221.584 377.585 247.499 386.306C273.459 395.14 300.179 401.56 327.318 405.487V120.966C300.191 117.024 273.476 110.639 247.499 101.888Z" fill="#F4C704" stroke="#45413C" stroke-width="7"/>
<path d="M96.6281 77.3438H30.9375C24.9562 77.3438 20.625 80.9532 20.625 85.4907V353.616C21.0065 356.021 22.2792 358.194 24.1899 359.703C26.1006 361.213 28.5095 361.948 30.9375 361.763H96.6281C120.481 361.781 144.3 363.574 167.887 367.125V82.5001C144.295 79.0178 120.476 77.2943 96.6281 77.3438Z" fill="#FF6242" stroke="#45413C" stroke-width="7"/>
</svg>
