<svg width="495" height="495" viewBox="0 0 495 495" fill="none" xmlns="http://www.w3.org/2000/svg">
<g clip-path="url(#clip0_1151_4822)">
<path d="M191.679 461.026L33.6918 303.142C32.7175 302.369 31.9629 301.353 31.5034 300.198C31.0438 299.042 30.8953 297.785 31.0727 296.554C31.2501 295.323 31.7471 294.16 32.5143 293.18C33.2815 292.201 34.2919 291.44 35.4449 290.973L45.1387 286.848C47.7916 286.023 50.6326 286.023 53.2856 286.848L131.97 303.039L191.989 363.058L208.386 441.536C208.926 444.299 208.676 447.159 207.664 449.786L203.745 459.376C203.283 460.523 202.526 461.527 201.55 462.287C200.575 463.047 199.416 463.535 198.191 463.703C196.966 463.87 195.718 463.711 194.575 463.241C193.431 462.771 192.432 462.007 191.679 461.026Z" fill="#4ACFFF"/>
<path d="M159.195 356.355L171.054 342.434L131.97 303.04L53.2856 286.849C50.5597 286.256 47.7177 286.507 45.1387 287.571L35.4449 291.387C34.2919 291.854 33.2815 292.615 32.5143 293.594C31.7471 294.573 31.2501 295.736 31.0727 296.967C30.8953 298.199 31.0438 299.455 31.5034 300.611C31.9629 301.767 32.7175 302.782 33.6918 303.555L44.0043 313.868H45.2418C47.8208 312.804 50.6628 312.553 53.3887 313.146L131.97 328.821L159.195 356.355Z" fill="#80DDFF"/>
<path d="M191.68 363.058L186.421 357.799L122.277 391.83L155.277 424.727C160.342 424.752 165.381 424.022 170.23 422.561C181.547 418.945 192.054 413.166 201.168 405.546L191.68 363.058Z" fill="#00B8F0"/>
<path d="M191.679 461.026L33.6918 303.142C32.7175 302.369 31.9629 301.353 31.5034 300.198C31.0438 299.042 30.8953 297.785 31.0727 296.554C31.2501 295.323 31.7471 294.16 32.5143 293.18C33.2815 292.201 34.2919 291.44 35.4449 290.973L45.1387 286.848C47.7916 286.023 50.6326 286.023 53.2856 286.848L131.97 303.039L191.989 363.058L208.386 441.536C208.926 444.299 208.676 447.159 207.664 449.786L203.745 459.376C203.283 460.523 202.526 461.527 201.55 462.287C200.575 463.047 199.416 463.535 198.191 463.703C196.966 463.87 195.718 463.711 194.575 463.241C193.431 462.771 192.432 462.007 191.679 461.026Z" stroke="#45413C" stroke-width="6" stroke-linecap="round" stroke-linejoin="round"/>
<path d="M454.064 254.991L474.482 275.409C477.19 278.116 478.711 281.789 478.711 285.618C478.711 289.447 477.19 293.119 474.482 295.826L418.26 352.048L377.425 311.213L433.647 254.991C434.987 253.65 436.579 252.587 438.33 251.861C440.082 251.136 441.959 250.762 443.855 250.762C445.751 250.762 447.629 251.136 449.38 251.861C451.132 252.587 452.724 253.65 454.064 254.991V254.991Z" fill="#C0DCEB" stroke="#45413C" stroke-width="6" stroke-linecap="round" stroke-linejoin="round"/>
<path d="M230.521 27.2381L250.939 47.6559C253.647 50.3634 255.168 54.0357 255.168 57.8647C255.168 61.6938 253.647 65.366 250.939 68.0736L194.79 124.222L153.955 83.3869L210.104 27.2382C212.811 24.5306 216.483 23.0095 220.312 23.0095C224.142 23.0095 227.814 24.5306 230.521 27.2381V27.2381Z" fill="#C0DCEB" stroke="#45413C" stroke-width="6" stroke-linecap="round" stroke-linejoin="round"/>
<path d="M498.118 331.31L374.368 234.373L272.171 132.279L175.233 8.52898C173.671 6.5359 171.611 4.989 169.261 4.04358C166.912 3.09816 164.355 2.78748 161.847 3.14274C159.339 3.49799 156.969 4.50668 154.975 6.06753C152.98 7.62839 151.431 9.68649 150.483 12.0352L142.646 31.7321C140.479 37.0249 139.975 42.8522 141.202 48.4384L175.543 209.107L298.158 331.516L458.105 365.445C463.717 366.507 469.516 365.934 474.812 363.795L494.508 355.854C496.821 354.9 498.845 353.362 500.384 351.391C501.923 349.42 502.924 347.082 503.287 344.608C503.651 342.133 503.366 339.607 502.46 337.276C501.554 334.945 500.058 332.889 498.118 331.31Z" fill="#4ACFFF"/>
<path d="M288.875 322.234L298.053 331.516L353.019 343.169L411.697 263.556L374.675 234.475L367.147 226.844L288.875 322.234Z" fill="#00B8F0"/>
<path d="M181.936 215.393L204.727 196.418L173.789 48.9497C172.554 43.3298 173.057 37.4672 175.233 32.1403L181.627 16.1559L175.955 8.93718C174.392 6.9441 172.332 5.3972 169.983 4.45178C167.633 3.50636 165.076 3.19568 162.568 3.55094C160.061 3.9062 157.691 4.91488 155.696 6.47574C153.701 8.03659 152.152 10.0947 151.205 12.4434L143.264 32.1403C141.191 37.4914 140.69 43.3235 141.82 48.9497L175.439 209.103L181.936 215.393Z" fill="#80DDFF"/>
<path d="M498.118 331.31L374.368 234.373L272.171 132.279L175.233 8.52898C173.671 6.5359 171.611 4.989 169.261 4.04358C166.912 3.09816 164.355 2.78748 161.847 3.14274C159.339 3.49799 156.969 4.50668 154.975 6.06753C152.98 7.62839 151.431 9.68649 150.483 12.0352L142.646 31.7321C140.479 37.0249 139.975 42.8522 141.202 48.4384L175.543 209.107L298.158 331.516L458.105 365.445C463.717 366.507 469.516 365.934 474.812 363.795L494.508 355.854C496.821 354.9 498.845 353.362 500.384 351.391C501.923 349.42 502.924 347.082 503.287 344.608C503.651 342.133 503.366 339.607 502.46 337.276C501.554 334.945 500.058 332.889 498.118 331.31Z" stroke="#45413C" stroke-width="6" stroke-linecap="round" stroke-linejoin="round"/>
<path d="M101.032 359.036L288.101 134.017C292.694 128.507 297.921 123.557 303.673 119.27C349.46 79.6703 418.554 51.7234 449.801 82.9703C455.173 88.4648 459.043 95.2472 461.041 102.667C465.785 79.5672 463.413 58.5297 449.801 44.9172C418.863 13.9797 349.46 41.7203 303.673 81.3203C297.898 85.5407 292.668 90.4594 288.101 95.964L101.032 321.292C94.6916 328.691 90.4485 337.653 88.7437 347.246C87.039 356.84 87.9349 366.715 91.3383 375.845C93.6073 369.74 96.884 364.058 101.032 359.036V359.036Z" fill="white"/>
<path d="M418.788 191.149C458.388 145.361 486.438 76.2674 455.088 44.9174C423.738 13.5674 354.748 41.7205 308.96 81.3205C303.186 85.541 297.955 90.4596 293.388 95.9643L106.32 321.292C97.6106 331.142 92.8984 343.893 93.1083 357.039C93.3182 370.185 98.435 382.778 107.454 392.345C117.019 401.357 129.601 406.478 142.741 406.707C155.881 406.936 168.634 402.256 178.507 393.583L404.145 206.617C409.621 202.059 414.536 196.866 418.788 191.149Z" fill="#E8F4FA"/>
<path d="M413.499 191.149C453.099 145.361 481.149 76.2674 449.799 44.9174C418.449 13.5674 349.459 41.7205 303.671 81.3205C297.897 85.541 292.666 90.4596 288.099 95.9643L101.031 321.292C92.3215 331.142 87.6093 343.893 87.8192 357.039C88.0291 370.185 93.1459 382.778 102.165 392.345C111.73 401.357 124.312 406.478 137.452 406.707C150.592 406.936 163.345 402.256 173.218 393.583L398.856 206.617C404.332 202.059 409.247 196.866 413.499 191.149Z" stroke="#45413C" stroke-width="6" stroke-linecap="round" stroke-linejoin="round"/>
<path d="M408.655 86.0641C400.023 77.656 389.527 71.4054 378.022 67.8213C366.517 64.2372 354.329 63.421 342.448 65.4391L338.942 96.3766C338.798 97.4945 338.917 98.6308 339.291 99.6942C339.665 100.758 340.282 101.719 341.094 102.501C341.906 103.283 342.89 103.864 343.967 104.197C345.044 104.53 346.184 104.607 347.295 104.42C357.608 102.667 374.417 102.77 383.08 111.433C391.742 120.095 391.948 137.317 390.092 147.32C389.906 148.432 389.982 149.572 390.316 150.649C390.649 151.726 391.23 152.709 392.012 153.521C392.794 154.333 393.755 154.951 394.818 155.325C395.882 155.698 397.018 155.818 398.136 155.673L429.074 152.167C431.06 140.32 430.248 128.172 426.702 116.694C423.157 105.217 416.977 94.7274 408.655 86.0641V86.0641Z" fill="#00B8F0"/>
<path d="M342.448 65.233L338.942 96.1705C338.798 97.2884 338.917 98.4247 339.291 99.4881C339.665 100.552 340.282 101.513 341.094 102.295C341.906 103.077 342.89 103.657 343.967 103.991C345.044 104.324 346.184 104.401 347.295 104.214C353.192 103.245 359.193 103.072 365.136 103.699L407.623 84.6205C398.976 76.6041 388.6 70.6858 377.298 67.3238C365.996 63.9618 354.071 63.2464 342.448 65.233Z" fill="#4ACFFF"/>
<path d="M408.655 86.0641C400.023 77.656 389.527 71.4054 378.022 67.8213C366.517 64.2372 354.329 63.421 342.448 65.4391L338.942 96.3766C338.798 97.4945 338.917 98.6308 339.291 99.6942C339.665 100.758 340.282 101.719 341.094 102.501C341.906 103.283 342.89 103.864 343.967 104.197C345.044 104.53 346.184 104.607 347.295 104.42C357.608 102.667 374.417 102.77 383.08 111.433C391.742 120.095 391.948 137.317 390.092 147.32C389.906 148.432 389.982 149.572 390.316 150.649C390.649 151.726 391.23 152.709 392.012 153.521C392.794 154.333 393.755 154.951 394.818 155.325C395.882 155.698 397.018 155.818 398.136 155.673L429.074 152.167C431.06 140.32 430.248 128.172 426.702 116.694C423.157 105.217 416.977 94.7274 408.655 86.0641V86.0641Z" stroke="#45413C" stroke-width="6" stroke-linecap="round" stroke-linejoin="round"/>
<path d="M413.5 191.149C425.322 175.919 431.328 156.973 430.439 137.714C429.551 118.454 421.827 100.142 408.653 86.0646C394.6 72.8754 376.293 65.1477 357.04 64.2777C337.787 63.4077 318.857 69.4528 303.672 81.3208" stroke="#45413C" stroke-width="6" stroke-linecap="round" stroke-linejoin="round"/>
<path d="M102.372 392.346C101.012 390.994 99.9334 389.388 99.1972 387.618C98.461 385.848 98.082 383.95 98.082 382.033C98.082 380.116 98.461 378.219 99.1972 376.449C99.9334 374.679 101.012 373.072 102.372 371.721L158.575 315.518C159.929 314.163 161.537 313.089 163.306 312.356C165.076 311.623 166.972 311.246 168.887 311.246C170.803 311.246 172.699 311.623 174.468 312.356C176.238 313.089 177.846 314.163 179.2 315.518C180.554 316.872 181.628 318.48 182.361 320.249C183.094 322.019 183.471 323.915 183.471 325.83C183.471 327.745 183.094 329.642 182.361 331.411C181.628 333.181 180.554 334.788 179.2 336.143L122.997 392.346C121.645 393.705 120.039 394.784 118.269 395.52C116.499 396.256 114.601 396.635 112.684 396.635C110.767 396.635 108.869 396.256 107.1 395.52C105.33 394.784 103.723 393.705 102.372 392.346V392.346Z" fill="#4ACFFF" stroke="#45413C" stroke-width="6" stroke-linecap="round" stroke-linejoin="round"/>
</g>
<defs>
<clipPath id="clip0_1151_4822">
<rect width="495" height="495" fill="white"/>
</clipPath>
</defs>
</svg>
