<svg width="493" height="493" viewBox="0 0 493 493" fill="none" xmlns="http://www.w3.org/2000/svg">
<path d="M15.4062 246.013C15.4063 294.418 34.6352 340.841 68.863 375.069C103.091 409.296 149.514 428.525 197.919 428.525C246.324 428.525 292.747 409.296 326.975 375.069C361.203 340.841 380.432 294.418 380.432 246.013C380.432 197.607 361.203 151.185 326.975 116.957C292.747 82.729 246.324 63.5 197.919 63.5C149.514 63.5 103.091 82.729 68.863 116.957C34.6352 151.185 15.4063 197.607 15.4062 246.013Z" fill="#FFE500"/>
<path d="M197.862 63.5C161.739 63.5 126.428 74.2128 96.3952 94.2834C66.362 114.354 42.9558 142.881 29.1371 176.255C15.3184 209.63 11.708 246.353 18.7626 281.78C25.8172 317.206 43.2198 349.745 68.7693 375.28C94.3188 400.815 126.867 418.2 162.298 425.234C197.729 432.269 234.45 428.638 267.817 414.801C301.183 400.963 329.697 377.541 349.751 347.496C369.804 317.452 380.497 282.135 380.477 246.013C380.45 197.598 361.198 151.175 326.954 116.95C292.71 82.7257 246.276 63.5 197.862 63.5ZM197.862 401.205C164.913 401.205 132.704 391.434 105.307 373.129C77.9114 354.824 56.5588 328.805 43.9498 298.364C31.3408 267.924 28.0417 234.427 34.4697 202.111C40.8977 169.796 56.7641 140.112 80.0626 116.813C103.361 93.5147 133.045 77.6482 165.361 71.2202C197.677 64.7922 231.173 68.0913 261.614 80.7003C292.055 93.3093 318.073 114.662 336.378 142.058C354.684 169.454 364.454 201.663 364.454 234.612C364.454 256.489 360.145 278.152 351.773 298.364C343.401 318.576 331.13 336.941 315.661 352.411C300.191 367.881 281.826 380.152 261.614 388.524C241.402 396.896 219.739 401.205 197.862 401.205Z" fill="#EBCB00"/>
<path d="M143.152 99.9639C143.152 103.587 148.92 107.061 159.186 109.623C169.453 112.185 183.377 113.624 197.896 113.624C212.415 113.624 226.339 112.185 236.605 109.623C246.872 107.061 252.639 103.587 252.639 99.9639C252.639 96.341 246.872 92.8665 236.605 90.3047C226.339 87.7429 212.415 86.3037 197.896 86.3037C183.377 86.3037 169.453 87.7429 159.186 90.3047C148.92 92.8665 143.152 96.341 143.152 99.9639Z" fill="#FFF48C"/>
<path d="M111.215 255.154C111.215 257.578 112.178 259.903 113.892 261.617C115.606 263.332 117.932 264.295 120.356 264.295C122.78 264.295 125.105 263.332 126.82 261.617C128.534 259.903 129.497 257.578 129.497 255.154C129.497 252.729 128.534 250.404 126.82 248.69C125.105 246.976 122.78 246.013 120.356 246.013C117.932 246.013 115.606 246.976 113.892 248.69C112.178 250.404 111.215 252.729 111.215 255.154Z" fill="#45413C" stroke="#45413C" stroke-width="7" stroke-linecap="round" stroke-linejoin="round"/>
<path d="M155.296 241.494C155.296 241.494 127.873 200.411 97.5742 214.071" stroke="#45413C" stroke-width="7" stroke-linecap="round" stroke-linejoin="round"/>
<path d="M240.562 241.494C240.562 241.494 267.986 200.411 298.387 214.071" stroke="#45413C" stroke-width="7" stroke-linecap="round" stroke-linejoin="round"/>
<path d="M266.402 255.154C266.402 257.578 267.365 259.903 269.08 261.617C270.794 263.332 273.119 264.295 275.543 264.295C277.968 264.295 280.293 263.332 282.007 261.617C283.721 259.903 284.684 257.578 284.684 255.154C284.684 252.729 283.721 250.404 282.007 248.69C280.293 246.976 277.968 246.013 275.543 246.013C273.119 246.013 270.794 246.976 269.08 248.69C267.365 250.404 266.402 252.729 266.402 255.154Z" fill="#45413C" stroke="#45413C" stroke-width="7" stroke-linecap="round" stroke-linejoin="round"/>
<path d="M152.297 337.321C165.81 328.291 181.698 323.471 197.951 323.471C214.204 323.471 230.091 328.291 243.605 337.321" stroke="#45413C" stroke-width="7" stroke-linecap="round"/>
<path d="M330.298 296.237C330.298 303.838 320.027 310 307.497 310C294.966 310 284.695 303.838 284.695 296.237C284.695 288.637 294.966 282.577 307.497 282.577C320.027 282.577 330.298 288.74 330.298 296.237Z" fill="#FFAA54"/>
<path d="M65.6367 296.237C65.6367 303.838 75.9076 310 88.438 310C100.968 310 111.239 303.838 111.239 296.237C111.239 288.637 100.968 282.577 88.438 282.577C75.9076 282.577 65.6367 288.74 65.6367 296.237Z" fill="#FFAA54"/>
<path d="M15.4062 246.013C15.4063 294.418 34.6352 340.841 68.863 375.069C103.091 409.296 149.514 428.525 197.919 428.525C246.324 428.525 292.747 409.296 326.975 375.069C361.203 340.841 380.432 294.418 380.432 246.013C380.432 197.607 361.203 151.184 326.975 116.957C292.747 82.729 246.324 63.5 197.919 63.5C149.514 63.5 103.091 82.729 68.863 116.957C34.6352 151.184 15.4063 197.607 15.4062 246.013V246.013Z" stroke="#45413C" stroke-width="7" stroke-linecap="round" stroke-linejoin="round"/>
<path d="M343.977 136.525H33.2844C31.8753 136.529 30.4857 136.855 29.2218 137.478C27.958 138.101 26.8532 139.005 25.9921 140.12C18.0441 150.543 11.3237 161.847 5.964 173.809C5.32839 175.199 5.05175 176.727 5.15941 178.252C5.26707 179.777 5.75559 181.251 6.58025 182.539C7.42769 183.812 8.57136 184.86 9.91308 185.593C11.2548 186.327 12.7545 186.724 14.2834 186.75H370.681C364.475 168.709 355.463 151.759 343.977 136.525Z" fill="#F0F0F0"/>
<path d="M343.986 136.524H33.2936C31.8845 136.528 30.4949 136.854 29.231 137.477C27.9671 138.1 26.8624 139.004 26.0013 140.119C22.3189 144.829 18.8904 149.732 15.7305 154.807H356.106C352.438 148.474 348.391 142.369 343.986 136.524Z" fill="white"/>
<path d="M343.977 136.525H33.2844C31.8753 136.529 30.4857 136.855 29.2218 137.478C27.958 138.101 26.8532 139.005 25.9921 140.12C18.0441 150.543 11.3237 161.847 5.964 173.809C5.32839 175.199 5.05175 176.727 5.15941 178.252C5.26707 179.777 5.75559 181.251 6.58025 182.539C7.42769 183.812 8.57136 184.86 9.91308 185.593C11.2548 186.327 12.7545 186.724 14.2834 186.75H370.681C364.475 168.709 355.463 151.759 343.977 136.525Z" stroke="#45413C" stroke-width="7" stroke-linecap="round" stroke-linejoin="round"/>
<path d="M353.062 163.946C353.062 163.946 403.184 219.922 477.75 213.144C479.253 212.982 480.772 213.2 482.168 213.777C483.565 214.354 484.794 215.272 485.745 216.447C486.695 217.622 487.335 219.016 487.607 220.502C487.879 221.989 487.775 223.52 487.302 224.955C482.06 239.876 475.815 254.425 468.609 268.503C467.607 270.536 465.886 272.123 463.779 272.958C461.673 273.793 459.331 273.816 457.209 273.023C432.148 263.779 354.398 228.961 353.062 163.946Z" fill="white" stroke="#45413C" stroke-width="7" stroke-linecap="round" stroke-linejoin="round"/>
<path d="M384.989 161.586C384.989 169.459 381.862 177.009 376.295 182.575C370.729 188.142 363.179 191.269 355.307 191.269H350.787C346.749 191.507 342.705 190.917 338.904 189.535C335.102 188.154 331.623 186.01 328.68 183.235C325.737 180.46 323.392 177.113 321.789 173.399C320.186 169.685 319.359 165.683 319.359 161.638C319.359 157.593 320.186 153.591 321.789 149.877C323.392 146.163 325.737 142.816 328.68 140.041C331.623 137.266 335.102 135.122 338.904 133.74C342.705 132.359 346.749 131.769 350.787 132.006H355.307C359.2 131.993 363.057 132.748 366.658 134.229C370.259 135.709 373.532 137.886 376.289 140.634C379.047 143.382 381.235 146.647 382.728 150.243C384.221 153.838 384.989 157.693 384.989 161.586Z" fill="#F0F0F0"/>
<path d="M350.808 150.805H355.327C361.602 150.804 367.715 152.791 372.79 156.482C377.865 160.173 381.639 165.377 383.572 171.346C384.519 168.356 385.004 165.239 385.01 162.103C385.01 158.209 384.241 154.355 382.748 150.759C381.255 147.164 379.067 143.898 376.31 141.15C373.552 138.402 370.279 136.225 366.678 134.745C363.078 133.264 359.22 132.509 355.327 132.523H350.808C346.915 132.509 343.057 133.264 339.456 134.745C335.856 136.225 332.583 138.402 329.825 141.15C327.067 143.898 324.879 147.164 323.386 150.759C321.893 154.355 321.125 158.209 321.125 162.103C321.131 165.239 321.616 168.356 322.563 171.346C324.509 165.385 328.287 160.19 333.359 156.502C338.43 152.813 344.537 150.819 350.808 150.805Z" fill="white"/>
<path d="M384.989 161.586C384.989 169.459 381.862 177.009 376.295 182.575C370.729 188.142 363.179 191.269 355.307 191.269H350.787C346.749 191.507 342.705 190.917 338.904 189.535C335.102 188.154 331.623 186.01 328.68 183.235C325.737 180.46 323.392 177.113 321.789 173.399C320.186 169.685 319.359 165.683 319.359 161.638C319.359 157.593 320.186 153.591 321.789 149.877C323.392 146.163 325.737 142.816 328.68 140.041C331.623 137.266 335.102 135.122 338.904 133.74C342.705 132.359 346.749 131.769 350.787 132.006H355.307C359.2 131.993 363.057 132.748 366.658 134.229C370.259 135.709 373.532 137.886 376.289 140.634C379.047 143.382 381.235 146.647 382.728 150.243C384.221 153.838 384.989 157.693 384.989 161.586V161.586Z" stroke="#45413C" stroke-width="7" stroke-linecap="round" stroke-linejoin="round"/>
</svg>
