<svg width="495" height="495" viewBox="0 0 495 495" fill="none" xmlns="http://www.w3.org/2000/svg">
<path d="M444.38 251.534V302.272C444.38 342.8 356.002 375.594 246.998 375.594C137.995 375.594 49.6172 342.8 49.6172 302.272V251.534H444.38Z" fill="#DEBB7E"/>
<path d="M49.6172 274.119C49.6172 314.544 137.995 347.44 246.998 347.44C356.002 347.44 444.38 314.544 444.38 274.119V251.534H49.6172V274.119Z" fill="#B89558"/>
<path d="M444.38 251.534V302.272C444.38 342.8 356.002 375.594 246.998 375.594C137.995 375.594 49.6172 342.8 49.6172 302.272V251.534H444.38Z" stroke="#45413C" stroke-width="7" stroke-linecap="round" stroke-linejoin="round"/>
<path d="M247.002 313.293C490.171 313.293 484.19 234.3 455.624 189.543C427.471 149.737 362.193 115.912 247.002 115.912C131.812 115.912 66.5334 149.737 38.3803 189.234C9.81465 234.3 3.8334 313.293 247.002 313.293Z" fill="#BF8256" stroke="#45413C" stroke-width="7" stroke-linecap="round" stroke-linejoin="round"/>
<path d="M444.381 166.65C444.381 166.65 478.206 177.994 478.206 211.819C478.206 245.644 433.038 217.388 416.331 228.732C399.625 240.075 412.103 265.857 388.178 273.797C354.353 285.038 336.616 252.45 314.856 256.885C286.703 262.557 297.944 290.71 247.206 290.71C196.469 290.71 207.709 262.557 179.556 256.885C157.384 252.45 140.059 285.038 106.234 273.797C82 265.857 94.7875 239.972 77.875 228.732C60.9625 217.491 16 245.644 16 211.819C16 177.994 49.825 166.65 49.825 166.65H444.381Z" fill="#6DD627" stroke="#45413C" stroke-width="7" stroke-linecap="round" stroke-linejoin="round"/>
<path d="M72.2024 189.235C72.2024 189.235 53.4337 228.216 94.7868 239.972C134.284 251.213 173.677 217.388 207.502 217.388C241.327 217.388 272.987 267.3 314.649 256.885C359.715 245.644 337.234 223.06 365.387 211.819C393.54 200.579 489.137 239.972 433.037 172.322L72.2024 189.235Z" fill="#FF6242" stroke="#45413C" stroke-width="7" stroke-linecap="round" stroke-linejoin="round"/>
<path d="M275.155 223.06H179.352V251.213C179.352 257.202 181.731 262.947 185.966 267.182C190.202 271.418 195.946 273.797 201.936 273.797H213.177V299.063C212.98 301.776 213.345 304.501 214.249 307.067C215.153 309.633 216.575 311.985 218.428 313.977C220.281 315.969 222.525 317.558 225.019 318.644C227.513 319.73 230.205 320.291 232.925 320.291C235.645 320.291 238.337 319.73 240.831 318.644C243.325 317.558 245.569 315.969 247.422 313.977C249.275 311.985 250.697 309.633 251.601 307.067C252.505 304.501 252.87 301.776 252.673 299.063V256.781C258.645 256.754 264.363 254.363 268.576 250.13C272.79 245.898 275.155 240.169 275.155 234.197V223.06Z" fill="#FFE500" stroke="#45413C" stroke-width="7" stroke-linecap="round" stroke-linejoin="round"/>
<path d="M444.38 161.081C444.38 201.506 356.002 234.3 246.998 234.3C137.995 234.3 49.6172 201.506 49.6172 161.081C49.6172 161.081 61.3734 30.9375 246.998 30.9375C432.623 30.9375 444.38 161.081 444.38 161.081Z" fill="#F0D5A8"/>
<path d="M246.998 194.906C154.186 194.906 75.7078 170.878 55.0828 138.6C52.4422 145.87 50.6094 153.409 49.6172 161.081C49.6172 201.506 137.995 234.3 246.998 234.3C356.002 234.3 444.38 201.506 444.38 161.081C443.388 153.409 441.555 145.87 438.914 138.6C418.289 170.878 339.811 194.906 246.998 194.906Z" fill="#DEBB7E"/>
<path d="M444.38 161.081C444.38 201.506 356.002 234.3 246.998 234.3C137.995 234.3 49.6172 201.506 49.6172 161.081C49.6172 161.081 61.3734 30.9375 246.998 30.9375C432.623 30.9375 444.38 161.081 444.38 161.081Z" stroke="#45413C" stroke-width="7" stroke-linecap="round" stroke-linejoin="round"/>
<path d="M131.292 91.0597C128.406 91.8392 125.948 93.733 124.459 96.3245C122.97 98.9161 122.571 101.993 123.351 104.878C124.13 107.764 126.024 110.222 128.616 111.711C131.207 113.2 134.284 113.599 137.17 112.819L148.101 109.932C149.53 109.546 150.868 108.882 152.041 107.979C153.213 107.075 154.196 105.95 154.933 104.667C155.671 103.384 156.148 101.968 156.338 100.5C156.528 99.0324 156.428 97.5416 156.042 96.1128C155.656 94.6841 154.992 93.3454 154.089 92.1731C153.185 91.0008 152.06 90.0179 150.777 89.2806C149.494 88.5432 148.078 88.0658 146.61 87.8757C145.142 87.6855 143.652 87.7863 142.223 88.1722L131.292 91.0597Z" fill="#DEBB7E" stroke="#45413C" stroke-width="7" stroke-linecap="round" stroke-linejoin="round"/>
<path d="M197.293 121.584C196.062 124.32 195.968 127.431 197.032 130.236C198.096 133.04 200.23 135.307 202.965 136.538C205.7 137.768 208.812 137.862 211.616 136.799C214.42 135.735 216.687 133.601 217.918 130.866L222.559 120.553C223.175 119.199 223.518 117.737 223.569 116.25C223.62 114.763 223.378 113.28 222.856 111.887C222.334 110.494 221.543 109.217 220.527 108.129C219.512 107.042 218.292 106.165 216.938 105.549C215.584 104.932 214.122 104.589 212.635 104.538C211.148 104.487 209.665 104.729 208.272 105.251C206.879 105.773 205.602 106.564 204.514 107.58C203.427 108.595 202.55 109.815 201.934 111.169L197.293 121.584Z" fill="#DEBB7E" stroke="#45413C" stroke-width="7" stroke-linecap="round" stroke-linejoin="round"/>
<path d="M362.703 91.0597C364.131 91.4457 365.47 92.1093 366.642 93.0126C367.815 93.916 368.797 95.0413 369.535 96.3245C370.272 97.6077 370.75 99.0236 370.94 100.491C371.13 101.959 371.029 103.45 370.643 104.878C370.257 106.307 369.594 107.646 368.69 108.818C367.787 109.991 366.662 110.973 365.378 111.711C364.095 112.448 362.679 112.925 361.212 113.116C359.744 113.306 358.253 113.205 356.824 112.819L345.893 109.932C344.464 109.546 343.126 108.882 341.953 107.979C340.781 107.075 339.798 105.95 339.061 104.667C338.324 103.384 337.846 101.968 337.656 100.5C337.466 99.0324 337.567 97.5416 337.953 96.1128C338.338 94.6841 339.002 93.3454 339.905 92.1731C340.809 91.0008 341.934 90.0179 343.217 89.2806C344.501 88.5432 345.916 88.0658 347.384 87.8757C348.852 87.6855 350.343 87.7863 351.771 88.1722L362.703 91.0597Z" fill="#DEBB7E" stroke="#45413C" stroke-width="7" stroke-linecap="round" stroke-linejoin="round"/>
<path d="M296.705 121.584C297.314 122.939 297.651 124.4 297.696 125.884C297.74 127.369 297.492 128.847 296.966 130.236C296.439 131.624 295.644 132.895 294.626 133.977C293.608 135.058 292.387 135.928 291.033 136.538C289.679 137.147 288.218 137.484 286.733 137.529C285.249 137.573 283.77 137.325 282.382 136.799C280.993 136.272 279.722 135.477 278.641 134.459C277.559 133.441 276.689 132.22 276.08 130.866L271.439 120.553C270.823 119.199 270.48 117.737 270.429 116.25C270.378 114.763 270.62 113.28 271.142 111.887C272.196 109.073 274.324 106.793 277.059 105.549C278.414 104.932 279.876 104.589 281.363 104.538C282.85 104.487 284.333 104.729 285.726 105.251C288.54 106.305 290.82 108.434 292.064 111.169L296.705 121.584Z" fill="#DEBB7E" stroke="#45413C" stroke-width="7" stroke-linecap="round" stroke-linejoin="round"/>
</svg>
