<svg width="495" height="495" viewBox="0 0 495 495" fill="none" xmlns="http://www.w3.org/2000/svg">
<path d="M233.887 276.168L51.5625 212.334V385.481C51.571 387.613 52.2399 389.689 53.4773 391.425C54.7146 393.161 56.4595 394.471 58.4719 395.175L233.784 457.05C242.612 460.044 252.181 460.044 261.009 457.05L436.322 395.175C438.334 394.471 440.079 393.161 441.316 391.425C442.554 389.689 443.223 387.613 443.231 385.481V212.334L261.113 276.168C252.299 279.249 242.701 279.249 233.887 276.168Z" fill="#FF866E"/>
<path d="M261.113 276.168C252.299 279.249 242.701 279.249 233.887 276.168L51.5625 212.334V263.896L233.887 327.731C242.701 330.812 252.299 330.812 261.113 327.731L443.438 263.896V212.334L261.113 276.168Z" fill="#FF6242"/>
<path d="M233.888 276.168L51.5625 212.334V385.481C51.571 387.613 52.2399 389.689 53.4773 391.425C54.7146 393.161 56.4595 394.471 58.4719 395.175L233.784 457.05C242.612 460.044 252.181 460.044 261.009 457.05L436.322 395.175C438.334 394.471 440.079 393.161 441.316 391.425C442.554 389.689 443.223 387.613 443.231 385.481V212.334L261.112 276.168C252.299 279.249 242.701 279.249 233.888 276.168Z" stroke="#45413C" stroke-width="7" stroke-linecap="round" stroke-linejoin="round"/>
<path d="M247.5 440.756V301.537" stroke="#E04122" stroke-width="7" stroke-linecap="round" stroke-linejoin="round"/>
<path d="M233.887 203.981L41.25 136.537V201.403C41.2585 203.535 41.9274 205.611 43.1648 207.347C44.4021 209.083 46.147 210.393 48.1594 211.096L233.784 276.168C242.598 279.249 252.196 279.249 261.009 276.168L446.634 211.096C448.647 210.393 450.392 209.083 451.629 207.347C452.866 205.611 453.535 203.535 453.544 201.403V136.537L261.113 203.981C252.299 207.062 242.701 207.062 233.887 203.981Z" fill="#FF866E"/>
<path d="M261.112 203.981C252.299 207.062 242.701 207.062 233.887 203.981L41.25 136.537V167.475L233.887 234.918C242.701 237.999 252.299 237.999 261.112 234.918L453.75 167.475V136.537L261.112 203.981Z" fill="#FFA694"/>
<path d="M233.888 203.981L41.25 136.537V201.403C41.2585 203.535 41.9274 205.611 43.1648 207.347C44.4021 209.083 46.147 210.393 48.1594 211.096L233.784 276.168C242.598 279.249 252.196 279.249 261.009 276.168L446.634 211.096C448.647 210.393 450.392 209.083 451.629 207.347C452.866 205.611 453.535 203.535 453.544 201.403V136.537L261.112 203.981C252.299 207.062 242.701 207.062 233.888 203.981Z" stroke="#45413C" stroke-width="7" stroke-linecap="round" stroke-linejoin="round"/>
<path d="M41.25 136.538L233.887 69.094C242.701 66.0129 252.299 66.0129 261.112 69.094L453.75 136.538L261.112 203.982C252.299 207.063 242.701 207.063 233.887 203.982L41.25 136.538Z" fill="#FF866E" stroke="#45413C" stroke-width="7" stroke-linecap="round" stroke-linejoin="round"/>
<path d="M110.031 160.669L156.953 177.066" stroke="#45413C" stroke-width="7" stroke-linecap="round" stroke-linejoin="round"/>
<path d="M92.8125 226.771V407.24L185.625 439.725V259.256L92.8125 226.771Z" fill="#EDDBFF"/>
<path d="M92.8125 226.771V278.334L185.625 310.818V259.256L92.8125 226.771Z" fill="#DABFF5"/>
<path d="M92.8125 226.771V407.24L185.625 439.725V259.256L92.8125 226.771Z" stroke="#45413C" stroke-width="7" stroke-linecap="round" stroke-linejoin="round"/>
<path d="M384.969 160.669L338.047 177.066" stroke="#45413C" stroke-width="7" stroke-linecap="round" stroke-linejoin="round"/>
<path d="M402.188 226.771V407.24L309.375 439.725V259.256L402.188 226.771Z" fill="#EDDBFF"/>
<path d="M402.188 226.771V278.334L309.375 310.818V259.256L402.188 226.771Z" fill="#DABFF5"/>
<path d="M402.188 226.771V407.24L309.375 439.725V259.256L402.188 226.771Z" stroke="#45413C" stroke-width="7" stroke-linecap="round" stroke-linejoin="round"/>
<path d="M216.564 147.366L232.033 121.584C232.033 121.584 168.199 38.2595 97.9704 58.5751C91.2285 60.528 85.351 64.7155 81.3032 70.4499C77.2554 76.1843 75.2779 83.1247 75.6954 90.1313L77.7579 123.75L216.564 147.366Z" fill="#DABFF5" stroke="#45413C" stroke-width="7" stroke-linecap="round" stroke-linejoin="round"/>
<path d="M216.562 147.366C216.562 147.366 159.019 170.982 83.5312 132.722C81.6207 131.827 80.0307 130.368 78.9757 128.541C77.9207 126.714 77.4514 124.607 77.6313 122.505C77.8112 120.403 78.6314 118.406 79.9815 116.785C81.3315 115.164 83.1464 113.996 85.1812 113.438C108.1 106.671 132.427 106.253 155.565 112.228C178.703 118.203 199.786 130.348 216.562 147.366Z" fill="#BF8DF2" stroke="#45413C" stroke-width="7" stroke-linecap="round" stroke-linejoin="round"/>
<path d="M278.953 147.366L263.484 121.584C263.484 121.584 327.319 38.2595 397.547 58.5751C404.212 60.6048 409.997 64.825 413.965 70.5521C417.932 76.2792 419.851 83.178 419.409 90.1313L417.244 123.75L278.953 147.366Z" fill="#DABFF5" stroke="#45413C" stroke-width="7" stroke-linecap="round" stroke-linejoin="round"/>
<path d="M278.953 147.366C278.953 147.366 335.981 170.982 411.469 132.722C413.379 131.827 414.969 130.368 416.024 128.541C417.079 126.714 417.549 124.607 417.369 122.505C417.189 120.403 416.368 118.406 415.018 116.785C413.668 115.164 411.854 113.995 409.819 113.438C386.973 106.771 362.75 106.404 339.713 112.377C316.676 118.349 295.682 130.439 278.953 147.366Z" fill="#BF8DF2" stroke="#45413C" stroke-width="7" stroke-linecap="round" stroke-linejoin="round"/>
<path d="M272.044 138.291C272.044 138.291 347.119 161.391 363.413 216.666L326.391 210.272L314.841 247.5C314.841 247.5 279.881 163.35 247.5 151.285L272.044 138.291Z" fill="#BF8DF2" stroke="#45413C" stroke-width="7" stroke-linecap="round" stroke-linejoin="round"/>
<path d="M201.094 125.503C201.094 135.076 205.983 144.256 214.686 151.025C223.389 157.794 235.192 161.597 247.5 161.597C259.808 161.597 271.611 157.794 280.314 151.025C289.017 144.256 293.906 135.076 293.906 125.503C293.906 115.93 289.017 106.75 280.314 99.9808C271.611 93.2119 259.808 89.4092 247.5 89.4092C235.192 89.4092 223.389 93.2119 214.686 99.9808C205.983 106.75 201.094 115.93 201.094 125.503Z" fill="#BF8DF2"/>
<path d="M247.5 110.034C256.597 109.477 265.655 111.628 273.529 116.217C281.404 120.806 287.741 127.626 291.741 135.815C293.08 132.537 293.814 129.043 293.906 125.503C293.906 105.497 273.281 89.4092 247.5 89.4092C221.719 89.4092 201.094 105.497 201.094 125.503C201.186 129.043 201.92 132.537 203.259 135.815C207.259 127.626 213.596 120.806 221.471 116.217C229.345 111.628 238.403 109.477 247.5 110.034Z" fill="#DABFF5"/>
<path d="M201.094 125.503C201.094 135.076 205.983 144.256 214.686 151.025C223.389 157.794 235.192 161.597 247.5 161.597C259.808 161.597 271.611 157.794 280.314 151.025C289.017 144.256 293.906 135.076 293.906 125.503C293.906 115.93 289.017 106.75 280.314 99.9808C271.611 93.2119 259.808 89.4092 247.5 89.4092C235.192 89.4092 223.389 93.2119 214.686 99.9808C205.983 106.75 201.094 115.93 201.094 125.503V125.503Z" stroke="#45413C" stroke-width="7" stroke-linecap="round" stroke-linejoin="round"/>
</svg>
