<svg width="496" height="496" viewBox="0 0 496 496" fill="none" xmlns="http://www.w3.org/2000/svg">
<path d="M126.418 12.5962C117.989 12.6278 109.593 13.6685 101.411 15.6962C82.501 20.0362 57.804 27.2695 35.3803 22.9295C34.4848 28.7021 34.784 34.5971 36.2593 40.2494C37.7346 45.9016 40.3546 51.1909 43.9571 55.7895C32.21 72.5641 25.9304 92.5574 25.9768 113.036V165.529H227.17V113.036C227.17 99.82 224.562 86.7338 219.495 74.5277C214.428 62.3215 207.001 51.2353 197.642 41.9045C188.282 32.5737 177.173 25.1819 164.951 20.1526C152.729 15.1232 139.635 12.5554 126.418 12.5962V12.5962Z" fill="#A86C4D"/>
<path d="M126.419 12.5962C117.989 12.6278 109.594 13.6685 101.412 15.6962C82.5015 20.0362 57.8044 27.2695 35.3808 22.9295C33.8677 33.7599 36.327 44.7719 42.3042 53.9295C62.3113 54.2985 82.2536 51.5442 101.412 45.7662C109.594 43.7385 117.989 42.6978 126.419 42.6662C139.618 42.6254 152.695 45.1864 164.904 50.2028C177.112 55.2192 188.212 62.5926 197.569 71.9015C206.926 81.2104 214.357 92.2722 219.436 104.454C224.515 116.637 227.143 129.701 227.17 142.899V113.036C227.17 99.82 224.562 86.7339 219.495 74.5277C214.428 62.3215 207.002 51.2353 197.642 41.9045C188.282 32.5738 177.173 25.1819 164.951 20.1526C152.729 15.1232 139.635 12.5554 126.419 12.5962V12.5962Z" fill="#DE926A"/>
<path d="M126.418 12.5962C117.989 12.6278 109.593 13.6685 101.411 15.6962C82.501 20.0362 57.804 27.2695 35.3803 22.9295C34.4848 28.7021 34.784 34.5971 36.2593 40.2494C37.7346 45.9016 40.3546 51.1909 43.9571 55.7895C32.21 72.5641 25.9304 92.5574 25.9768 113.036V165.529H227.17V113.036C227.17 99.82 224.562 86.7338 219.495 74.5277C214.428 62.3215 207.001 51.2353 197.642 41.9045C188.282 32.5737 177.173 25.1819 164.951 20.1526C152.729 15.1232 139.635 12.5554 126.418 12.5962V12.5962Z" stroke="#45413C" stroke-width="7" stroke-linecap="round" stroke-linejoin="round"/>
<path d="M126.419 261.112C142.363 261.112 158.152 264.253 172.883 270.355C187.615 276.456 201 285.4 212.274 296.674C223.549 307.949 232.493 321.334 238.595 336.065C244.696 350.796 247.837 366.584 247.837 382.529V488.549H5V382.529C5 366.584 8.14058 350.796 14.2424 336.065C20.3443 321.334 29.2879 307.949 40.5627 296.674C63.3331 273.904 94.2163 261.112 126.419 261.112V261.112Z" fill="#00B8F0"/>
<path d="M126.419 261.112C94.2163 261.112 63.3331 273.904 40.5627 296.674C17.7923 319.444 5 350.327 5 382.529V419.626C5 387.424 17.7923 356.541 40.5627 333.771C63.3331 311.001 94.2163 298.209 126.419 298.209C158.621 298.209 189.504 311.001 212.274 333.771C235.045 356.541 247.837 387.424 247.837 419.626V382.529C247.837 366.584 244.696 350.796 238.595 336.065C232.493 321.334 223.549 307.949 212.274 296.674C201 285.4 187.615 276.456 172.883 270.355C158.152 264.253 142.363 261.112 126.419 261.112V261.112Z" fill="#009FD9"/>
<path d="M126.419 261.112C142.363 261.112 158.152 264.253 172.883 270.355C187.615 276.456 201 285.4 212.274 296.674C223.549 307.949 232.493 321.334 238.595 336.065C244.696 350.796 247.837 366.584 247.837 382.529V488.549H5V382.529C5 366.584 8.14058 350.796 14.2424 336.065C20.3443 321.334 29.2879 307.949 40.5627 296.674C63.3331 273.904 94.2163 261.112 126.419 261.112V261.112Z" stroke="#45413C" stroke-width="7" stroke-linecap="round" stroke-linejoin="round"/>
<path d="M100.375 219.676H152.352V300.792H100.375V219.676Z" fill="#FFCEBF"/>
<path d="M100.375 219.676H152.352V279.816H100.375V219.676Z" fill="#FFB59E"/>
<path d="M100.375 219.676H152.352V300.792H100.375V219.676Z" stroke="#45413C" stroke-width="7" stroke-linecap="round" stroke-linejoin="round"/>
<path d="M237.503 156.436C236.63 152.007 234.226 148.026 230.711 145.192C227.197 142.357 222.797 140.851 218.283 140.936C213.953 140.936 209.8 139.216 206.738 136.154C203.676 133.092 201.956 128.94 201.956 124.609V99.1895C202.003 94.9017 200.614 90.7214 198.012 87.3135C195.409 83.9057 191.741 81.4661 187.592 80.3828C168.148 88.1424 147.349 91.9367 126.418 91.5428C105.487 91.9367 84.6877 88.1424 65.2438 80.3828C61.2102 81.581 57.6812 84.0697 55.1985 87.467C52.7158 90.8643 51.4166 94.9825 51.5003 99.1895V124.609C51.5003 126.753 51.078 128.877 50.2574 130.857C49.4369 132.838 48.2343 134.638 46.7182 136.154C45.2021 137.67 43.4023 138.873 41.4214 139.693C39.4405 140.514 37.3174 140.936 35.1733 140.936C30.6593 140.851 26.2594 142.357 22.745 145.192C19.2306 148.026 16.8261 152.007 15.9531 156.436C15.5012 159.094 15.6358 161.818 16.3475 164.419C17.0592 167.019 18.3308 169.433 20.0732 171.49C21.8155 173.547 23.9866 175.199 26.4343 176.329C28.8821 177.459 31.5473 178.041 34.2433 178.033H35.38C39.2158 199.524 50.4901 218.982 67.2287 232.997C83.9673 247.013 105.103 254.693 126.935 254.693C148.766 254.693 169.902 247.013 186.641 232.997C203.379 218.982 214.654 199.524 218.489 178.033H219.626C222.287 177.981 224.906 177.356 227.303 176.2C229.7 175.044 231.82 173.384 233.517 171.334C235.214 169.284 236.449 166.891 237.137 164.32C237.825 161.749 237.95 159.06 237.503 156.436V156.436Z" fill="#FFCEBF" stroke="#45413C" stroke-width="7" stroke-linecap="round" stroke-linejoin="round"/>
<path d="M70.8242 155.714C70.8514 157.806 71.7017 159.803 73.1909 161.273C74.6802 162.743 76.6885 163.567 78.781 163.567C80.8639 163.567 82.8614 162.74 84.3342 161.267C85.8071 159.794 86.6345 157.797 86.6345 155.714C86.6345 153.631 85.8071 151.633 84.3342 150.161C82.8614 148.688 80.8639 147.86 78.781 147.86C76.6885 147.86 74.6802 148.684 73.1909 150.154C71.7017 151.624 70.8514 153.621 70.8242 155.714V155.714Z" fill="#45413C" stroke="#45413C" stroke-width="7" stroke-linecap="round" stroke-linejoin="round"/>
<path d="M182.013 155.714C181.986 157.806 181.136 159.803 179.647 161.273C178.157 162.743 176.149 163.567 174.057 163.567C171.974 163.567 169.976 162.74 168.503 161.267C167.031 159.794 166.203 157.797 166.203 155.714C166.203 153.631 167.031 151.633 168.503 150.161C169.976 148.688 171.974 147.86 174.057 147.86C176.149 147.86 178.157 148.684 179.647 150.154C181.136 151.624 181.986 153.621 182.013 155.714V155.714Z" fill="#45413C" stroke="#45413C" stroke-width="7" stroke-linecap="round" stroke-linejoin="round"/>
<path d="M97.3782 203.659C96.7255 203.68 96.0846 203.838 95.4971 204.123C94.9095 204.408 94.3886 204.813 93.9681 205.313C93.5419 205.803 93.2284 206.381 93.0499 207.006C92.8713 207.631 92.832 208.287 92.9348 208.929C94.3229 216.8 98.4399 223.931 104.563 229.068C110.686 234.205 118.423 237.021 126.415 237.021C134.408 237.021 142.145 234.205 148.268 229.068C154.391 223.931 158.508 216.8 159.896 208.929C159.999 208.287 159.959 207.631 159.781 207.006C159.602 206.381 159.289 205.803 158.862 205.313C158.442 204.813 157.921 204.408 157.333 204.123C156.746 203.838 156.105 203.68 155.452 203.659H97.3782Z" fill="#FF6242"/>
<path d="M126.415 237.244C135.286 237.254 143.812 233.806 150.183 227.634C143.805 221.472 135.284 218.027 126.415 218.027C117.547 218.027 109.026 221.472 102.648 227.634C109.019 233.806 117.545 237.254 126.415 237.244V237.244Z" fill="#FFA694"/>
<path d="M97.3782 203.659C96.7255 203.68 96.0846 203.838 95.4971 204.123C94.9095 204.408 94.3886 204.813 93.9681 205.313C93.5419 205.803 93.2284 206.381 93.0499 207.006C92.8713 207.631 92.832 208.287 92.9348 208.929C94.3229 216.8 98.4399 223.931 104.563 229.068C110.686 234.205 118.423 237.021 126.415 237.021C134.408 237.021 142.145 234.205 148.268 229.068C154.391 223.931 158.508 216.8 159.896 208.929C159.999 208.287 159.959 207.631 159.781 207.006C159.602 206.381 159.289 205.803 158.862 205.313C158.442 204.813 157.921 204.408 157.333 204.123C156.746 203.838 156.105 203.68 155.452 203.659H97.3782Z" stroke="#45413C" stroke-width="7" stroke-linecap="round" stroke-linejoin="round"/>
<path d="M55.4258 488.549V377.259" stroke="#45413C" stroke-width="7" stroke-linecap="round" stroke-linejoin="round"/>
<path d="M55.4258 189.296C55.4258 190.913 56.5036 192.464 58.4221 193.607C60.3407 194.75 62.9427 195.393 65.6559 195.393C68.3691 195.393 70.9712 194.75 72.8898 193.607C74.8083 192.464 75.8861 190.913 75.8861 189.296C75.8861 187.679 74.8083 186.128 72.8898 184.985C70.9712 183.842 68.3691 183.199 65.6559 183.199C62.9427 183.199 60.3407 183.842 58.4221 184.985C56.5036 186.128 55.4258 187.679 55.4258 189.296Z" fill="#FFB59E"/>
<path d="M176.953 189.296C176.953 190.913 178.031 192.464 179.949 193.607C181.868 194.75 184.47 195.393 187.183 195.393C189.896 195.393 192.499 194.75 194.417 193.607C196.336 192.464 197.413 190.913 197.413 189.296C197.413 187.679 196.336 186.128 194.417 184.985C192.499 183.842 189.896 183.199 187.183 183.199C184.47 183.199 181.868 183.842 179.949 184.985C178.031 186.128 176.953 187.679 176.953 189.296V189.296Z" fill="#FFB59E"/>
<path d="M369.254 6.5C398.743 6.5 427.024 18.2143 447.876 39.0658C468.728 59.9173 480.442 88.198 480.442 117.687V262.353C480.429 264.856 479.676 267.3 478.279 269.377C476.882 271.455 474.902 273.073 472.589 274.03V274.03C406.259 300.591 332.249 300.591 265.919 274.03V274.03C263.688 273.086 261.773 271.524 260.4 269.529C259.027 267.533 258.253 265.187 258.169 262.766V118.1C258.114 103.473 260.947 88.9784 266.504 75.4476C272.061 61.9168 280.233 49.6155 290.552 39.2484C300.871 28.8813 313.135 20.6522 326.64 15.0326C340.145 9.41309 354.626 6.51349 369.254 6.5V6.5Z" fill="#A86C4D"/>
<path d="M369.257 6.5C339.786 6.52739 311.531 18.2537 290.702 39.1023C269.872 59.9509 258.172 88.2159 258.172 117.687V150.443C258.145 135.833 260.997 121.361 266.567 107.854C272.136 94.3474 280.312 82.0705 290.629 71.7253C300.945 61.3802 313.2 53.1696 326.691 47.5629C340.183 41.9563 354.647 39.0635 369.257 39.05V39.05C383.876 39.0499 398.351 41.9327 411.855 47.5333C425.358 53.1338 437.625 61.3423 447.952 71.6888C458.28 82.0353 466.466 94.3168 472.041 107.83C477.617 121.344 480.473 135.825 480.445 150.443V117.687C480.445 88.198 468.731 59.9173 447.879 39.0658C427.027 18.2143 398.746 6.5 369.257 6.5V6.5Z" fill="#DE926A"/>
<path d="M369.254 6.5C398.743 6.5 427.024 18.2143 447.876 39.0658C468.728 59.9173 480.442 88.198 480.442 117.687V262.353C480.429 264.856 479.676 267.3 478.279 269.377C476.882 271.455 474.902 273.073 472.589 274.03V274.03C406.259 300.591 332.249 300.591 265.919 274.03V274.03C263.688 273.086 261.773 271.524 260.4 269.529C259.027 267.533 258.253 265.187 258.169 262.766V118.1C258.114 103.473 260.947 88.9784 266.504 75.4476C272.061 61.9168 280.233 49.6155 290.552 39.2484C300.871 28.8813 313.135 20.6522 326.64 15.0326C340.145 9.41309 354.626 6.51349 369.254 6.5V6.5Z" stroke="#45413C" stroke-width="7" stroke-linecap="round" stroke-linejoin="round"/>
<path d="M369.251 261.112C385.195 261.112 400.984 264.253 415.715 270.355C430.447 276.456 443.832 285.4 455.106 296.674C466.381 307.949 475.325 321.334 481.427 336.065C487.528 350.796 490.669 366.584 490.669 382.529V488.549H247.832V382.529C247.832 366.584 250.973 350.796 257.074 336.065C263.176 321.334 272.12 307.949 283.395 296.674C306.165 273.904 337.048 261.112 369.251 261.112V261.112Z" fill="#FF87AF"/>
<path d="M369.251 261.112C337.048 261.112 306.165 273.904 283.395 296.674C260.624 319.444 247.832 350.327 247.832 382.529V419.626C247.832 387.424 260.624 356.541 283.395 333.771C306.165 311.001 337.048 298.209 369.251 298.209C401.453 298.209 432.336 311.001 455.106 333.771C477.877 356.541 490.669 387.424 490.669 419.626V382.529C490.669 366.584 487.528 350.796 481.427 336.065C475.325 321.334 466.381 307.949 455.106 296.674C443.832 285.4 430.447 276.456 415.715 270.355C400.984 264.253 385.195 261.112 369.251 261.112V261.112Z" fill="#FF6196"/>
<path d="M369.251 261.112C385.195 261.112 400.984 264.253 415.715 270.355C430.447 276.456 443.832 285.4 455.106 296.674C466.381 307.949 475.325 321.334 481.427 336.065C487.528 350.796 490.669 366.584 490.669 382.529V488.549H247.832V382.529C247.832 366.584 250.973 350.796 257.074 336.065C263.176 321.334 272.12 307.949 283.395 296.674C306.165 273.904 337.048 261.112 369.251 261.112V261.112Z" stroke="#45413C" stroke-width="7" stroke-linecap="round" stroke-linejoin="round"/>
<path d="M343.215 219.676H395.192V300.792H343.215V219.676Z" fill="#FFCEBF" stroke="#45413C" stroke-width="7" stroke-linecap="round" stroke-linejoin="round"/>
<path d="M461.941 140.937C449.006 137.232 437.069 130.665 427.017 121.721C416.964 112.777 409.052 101.686 403.867 89.2701L397.564 74.0801C372.92 107.277 336.565 129.85 295.882 137.217L276.559 140.627C271.878 140.976 267.503 143.082 264.311 146.522C261.118 149.962 259.344 154.482 259.344 159.175C259.344 163.868 261.118 168.388 264.311 171.828C267.503 175.268 271.878 177.374 276.559 177.723H277.695C281.531 199.215 292.805 218.672 309.544 232.688C326.283 246.703 347.418 254.384 369.25 254.384C391.082 254.384 412.217 246.703 428.956 232.688C445.695 218.672 456.969 199.215 460.805 177.723H461.941C466.622 177.374 470.997 175.268 474.189 171.828C477.382 168.388 479.156 163.868 479.156 159.175C479.156 154.482 477.382 149.962 474.189 146.522C470.997 143.082 466.622 140.976 461.941 140.627V140.937Z" fill="#FFCEBF" stroke="#45413C" stroke-width="7" stroke-linecap="round" stroke-linejoin="round"/>
<path d="M313.664 155.714C313.691 157.806 314.542 159.803 316.031 161.273C317.52 162.743 319.528 163.567 321.621 163.567C323.704 163.567 325.701 162.74 327.174 161.267C328.647 159.794 329.474 157.797 329.474 155.714C329.474 153.631 328.647 151.633 327.174 150.161C325.701 148.688 323.704 147.86 321.621 147.86C319.528 147.86 317.52 148.684 316.031 150.154C314.542 151.624 313.691 153.621 313.664 155.714V155.714Z" fill="#45413C" stroke="#45413C" stroke-width="7" stroke-linecap="round" stroke-linejoin="round"/>
<path d="M424.853 155.714C424.826 157.806 423.976 159.803 422.487 161.273C420.997 162.743 418.989 163.567 416.896 163.567C414.814 163.567 412.816 162.74 411.343 161.267C409.87 159.794 409.043 157.797 409.043 155.714C409.043 153.631 409.87 151.633 411.343 150.161C412.816 148.688 414.814 147.86 416.896 147.86C418.989 147.86 420.997 148.684 422.487 150.154C423.976 151.624 424.826 153.621 424.853 155.714V155.714Z" fill="#45413C" stroke="#45413C" stroke-width="7" stroke-linecap="round" stroke-linejoin="round"/>
<path d="M340.218 203.659C339.565 203.68 338.924 203.838 338.337 204.123C337.749 204.408 337.228 204.813 336.808 205.313C336.382 205.803 336.068 206.381 335.89 207.006C335.711 207.631 335.672 208.287 335.775 208.929C337.163 216.8 341.28 223.931 347.403 229.068C353.525 234.205 361.262 237.021 369.255 237.021C377.248 237.021 384.985 234.205 391.108 229.068C397.231 223.931 401.348 216.8 402.736 208.929C402.838 208.287 402.799 207.631 402.621 207.006C402.442 206.381 402.129 205.803 401.702 205.313C401.282 204.813 400.761 204.408 400.173 204.123C399.586 203.838 398.945 203.68 398.292 203.659H340.218Z" fill="#FF6242"/>
<path d="M369.259 237.244C378.13 237.254 386.655 233.806 393.026 227.634C386.649 221.472 378.127 218.027 369.259 218.027C360.391 218.027 351.87 221.472 345.492 227.634C351.863 233.806 360.388 237.254 369.259 237.244V237.244Z" fill="#FFA694"/>
<path d="M340.218 203.659C339.565 203.68 338.924 203.838 338.337 204.123C337.749 204.408 337.228 204.813 336.808 205.313C336.382 205.803 336.068 206.381 335.89 207.006C335.711 207.631 335.672 208.287 335.775 208.929C337.163 216.8 341.28 223.931 347.403 229.068C353.525 234.205 361.262 237.021 369.255 237.021C377.248 237.021 384.985 234.205 391.108 229.068C397.231 223.931 401.348 216.8 402.736 208.929C402.838 208.287 402.799 207.631 402.621 207.006C402.442 206.381 402.129 205.803 401.702 205.313C401.282 204.813 400.761 204.408 400.173 204.123C399.586 203.838 398.945 203.68 398.292 203.659H340.218Z" stroke="#45413C" stroke-width="7" stroke-linecap="round" stroke-linejoin="round"/>
<path d="M440.242 488.549V377.259" stroke="#45413C" stroke-width="7" stroke-linecap="round" stroke-linejoin="round"/>
<path d="M298.266 189.296C298.266 190.913 299.343 192.464 301.262 193.607C303.18 194.75 305.783 195.393 308.496 195.393C311.209 195.393 313.811 194.75 315.73 193.607C317.648 192.464 318.726 190.913 318.726 189.296C318.726 187.679 317.648 186.128 315.73 184.985C313.811 183.842 311.209 183.199 308.496 183.199C305.783 183.199 303.18 183.842 301.262 184.985C299.343 186.128 298.266 187.679 298.266 189.296V189.296Z" fill="#FFB59E"/>
<path d="M419.789 189.296C419.789 190.913 420.867 192.464 422.785 193.607C424.704 194.75 427.306 195.393 430.019 195.393C432.732 195.393 435.335 194.75 437.253 193.607C439.172 192.464 440.249 190.913 440.249 189.296C440.249 187.679 439.172 186.128 437.253 184.985C435.335 183.842 432.732 183.199 430.019 183.199C427.306 183.199 424.704 183.842 422.785 184.985C420.867 186.128 419.789 187.679 419.789 189.296Z" fill="#FFB59E"/>
<path d="M247.838 488.55C240.841 470.066 228.384 454.15 212.122 442.917C195.86 431.685 176.564 425.669 156.8 425.669C137.036 425.669 117.74 431.685 101.478 442.917C85.2158 454.15 72.7583 470.066 65.7617 488.55H247.838Z" fill="#D91A1E"/>
<path d="M156.8 454.14C170.93 454.108 184.895 457.173 197.713 463.117C210.531 469.062 221.891 477.743 230.994 488.55H247.838C240.841 470.066 228.384 454.15 212.122 442.917C195.86 431.685 176.564 425.669 156.8 425.669C137.036 425.669 117.74 431.685 101.478 442.917C85.2158 454.15 72.7583 470.066 65.7617 488.55H82.502C91.6345 477.752 103.015 469.078 115.848 463.134C128.681 457.191 142.657 454.121 156.8 454.14Z" fill="#C8161A"/>
<path d="M247.838 488.55C240.841 470.066 228.384 454.15 212.122 442.917C195.86 431.685 176.564 425.669 156.8 425.669C137.036 425.669 117.74 431.685 101.478 442.917C85.2158 454.15 72.7583 470.066 65.7617 488.55H247.838Z" stroke="#45413C" stroke-width="7" stroke-linecap="round" stroke-linejoin="round"/>
<path d="M137.582 392.656H176.023V458.789H137.582V392.656Z" fill="#FFCEBF"/>
<path d="M137.582 392.656H176.023V440.603H137.582V392.656Z" fill="#FFB59E"/>
<path d="M137.582 392.656H176.023V458.789H137.582V392.656Z" stroke="#45413C" stroke-width="7" stroke-linecap="round" stroke-linejoin="round"/>
<path d="M156.802 243.34C150.493 243.34 144.208 244.139 138.099 245.717C122.194 250.791 105.432 252.618 88.808 251.09C88.1539 255.386 88.3751 259.77 89.4583 263.979C90.5416 268.187 92.4645 272.133 95.1115 275.58C86.4855 288.068 81.8386 302.873 81.7812 318.05V357.316H231.824V318.05C231.742 298.207 223.801 279.205 209.741 265.203C195.681 251.201 176.646 243.34 156.802 243.34V243.34Z" fill="#A86C4D"/>
<path d="M156.799 243.34C150.49 243.34 144.205 244.139 138.096 245.717C122.191 250.791 105.429 252.618 88.8051 251.09C88.1592 255.346 88.3752 259.689 89.4403 263.861C90.5054 268.032 92.3978 271.947 95.0052 275.373C109.589 275.458 124.107 273.404 138.096 269.276C149.154 266.43 160.715 266.145 171.9 268.443C183.084 270.741 193.597 275.562 202.636 282.538C211.675 289.514 219.003 298.461 224.061 308.698C229.118 318.935 231.772 330.192 231.821 341.61V318.05C231.739 298.207 223.798 279.205 209.738 265.203C195.678 251.201 176.643 243.34 156.799 243.34V243.34Z" fill="#DE926A"/>
<path d="M156.802 243.34C150.493 243.34 144.208 244.139 138.099 245.717C122.194 250.791 105.432 252.618 88.808 251.09C88.1539 255.386 88.3751 259.77 89.4583 263.979C90.5416 268.187 92.4645 272.133 95.1115 275.58C86.4855 288.068 81.8386 302.873 81.7812 318.05V357.316H231.824V318.05C231.742 298.207 223.801 279.205 209.741 265.203C195.681 251.201 176.646 243.34 156.802 243.34V243.34Z" stroke="#45413C" stroke-width="7" stroke-linecap="round" stroke-linejoin="round"/>
<path d="M84.3604 340.06C81.6759 340.8 79.2668 342.31 77.4305 344.403C75.5942 346.497 74.411 349.082 74.0269 351.84C73.8702 353.757 74.1114 355.685 74.7354 357.504C75.3595 359.323 76.3528 360.993 77.6531 362.41C78.9534 363.826 80.5325 364.959 82.2914 365.736C84.0502 366.514 85.9508 366.919 87.8738 366.927H88.7004C91.0964 383.359 99.3277 398.38 111.889 409.242C124.45 420.105 140.502 426.082 157.108 426.082C173.715 426.082 189.766 420.105 202.327 409.242C214.889 398.38 223.12 383.359 225.516 366.927H226.343C229.817 367.167 233.251 366.059 235.929 363.833C238.608 361.607 240.325 358.434 240.724 354.974C241.124 351.514 240.174 348.033 238.073 345.256C235.971 342.478 232.881 340.617 229.443 340.06C198.442 333.963 181.495 301.207 181.082 300.483C180.255 301.413 154.835 340.99 84.3604 340.06Z" fill="#FFCEBF" stroke="#45413C" stroke-width="7" stroke-linecap="round" stroke-linejoin="round"/>
<path d="M120.422 355.87C120.422 357.24 120.966 358.554 121.935 359.523C122.904 360.492 124.218 361.036 125.589 361.036C126.959 361.036 128.273 360.492 129.242 359.523C130.211 358.554 130.755 357.24 130.755 355.87C130.755 354.5 130.211 353.185 129.242 352.216C128.273 351.247 126.959 350.703 125.589 350.703C124.218 350.703 122.904 351.247 121.935 352.216C120.966 353.185 120.422 354.5 120.422 355.87Z" fill="#45413C" stroke="#45413C" stroke-width="7" stroke-linecap="round" stroke-linejoin="round"/>
<path d="M193.173 355.87C193.147 357.232 192.594 358.531 191.631 359.494C190.667 360.457 189.369 361.01 188.007 361.036C186.636 361.036 185.322 360.492 184.353 359.523C183.384 358.554 182.84 357.24 182.84 355.87C182.84 354.5 183.384 353.185 184.353 352.216C185.322 351.247 186.636 350.703 188.007 350.703C189.377 350.703 190.691 351.247 191.66 352.216C192.629 353.185 193.173 354.5 193.173 355.87Z" fill="#45413C" stroke="#45413C" stroke-width="7" stroke-linecap="round" stroke-linejoin="round"/>
<path d="M105.133 377.776C105.133 378.845 105.84 379.87 107.1 380.626C108.36 381.381 110.068 381.806 111.85 381.806C113.631 381.806 115.339 381.381 116.599 380.626C117.859 379.87 118.566 378.845 118.566 377.776C118.566 376.707 117.859 375.682 116.599 374.926C115.339 374.171 113.631 373.746 111.85 373.746C110.068 373.746 108.36 374.171 107.1 374.926C105.84 375.682 105.133 376.707 105.133 377.776V377.776Z" fill="#FFB59E"/>
<path d="M194.93 377.776C194.93 378.845 195.637 379.87 196.897 380.626C198.157 381.381 199.865 381.806 201.646 381.806C203.428 381.806 205.136 381.381 206.396 380.626C207.656 379.87 208.363 378.845 208.363 377.776C208.363 376.707 207.656 375.682 206.396 374.926C205.136 374.171 203.428 373.746 201.646 373.746C199.865 373.746 198.157 374.171 196.897 374.926C195.637 375.682 194.93 376.707 194.93 377.776V377.776Z" fill="#FFB59E"/>
<path d="M139.332 396.893C144.195 400.973 150.468 402.977 156.796 402.473C163.124 402.977 169.396 400.973 174.259 396.893" stroke="#45413C" stroke-width="7" stroke-linecap="round" stroke-linejoin="round"/>
<path d="M429.908 488.55C422.912 470.066 410.454 454.15 394.192 442.917C377.93 431.685 358.634 425.669 338.87 425.669C319.106 425.669 299.81 431.685 283.548 442.917C267.286 454.15 254.829 470.066 247.832 488.55H429.908Z" fill="#401B97"/>
<path d="M338.87 454.14C353.013 454.121 366.989 457.191 379.822 463.134C392.655 469.078 404.035 477.752 413.168 488.55H429.908C422.912 470.066 410.454 454.15 394.192 442.917C377.93 431.685 358.634 425.669 338.87 425.669C319.106 425.669 299.81 431.685 283.548 442.917C267.286 454.15 254.829 470.066 247.832 488.55H264.676C273.778 477.743 285.139 469.062 297.957 463.117C310.775 457.173 324.74 454.108 338.87 454.14Z" fill="#21006E"/>
<path d="M429.908 488.55C422.912 470.066 410.454 454.15 394.192 442.917C377.93 431.685 358.634 425.669 338.87 425.669C319.106 425.669 299.81 431.685 283.548 442.917C267.286 454.15 254.829 470.066 247.832 488.55H429.908Z" stroke="#45413C" stroke-width="7" stroke-linecap="round" stroke-linejoin="round"/>
<path d="M319.652 392.656H358.093V458.789H319.652V392.656Z" fill="#FFCEBF"/>
<path d="M319.652 392.656H358.093V440.603H319.652V392.656Z" fill="#FFB59E"/>
<path d="M319.652 392.656H358.093V458.789H319.652V392.656Z" stroke="#45413C" stroke-width="7" stroke-linecap="round" stroke-linejoin="round"/>
<path d="M338.877 243.34C358.72 243.34 377.755 251.201 391.815 265.203C405.876 279.205 413.816 298.207 413.898 318.05V357.316H263.855V318.05C263.937 298.207 271.878 279.205 285.938 265.203C299.998 251.201 319.033 243.34 338.877 243.34V243.34Z" fill="#A86C4D"/>
<path d="M338.877 243.34C319.033 243.34 299.998 251.201 285.938 265.203C271.878 279.205 263.937 298.207 263.855 318.05V341.61C263.855 321.713 271.759 302.632 285.829 288.563C299.898 274.494 318.98 266.59 338.877 266.59C358.773 266.59 377.855 274.494 391.925 288.563C405.994 302.632 413.898 321.713 413.898 341.61V318.05C413.816 298.207 405.876 279.205 391.815 265.203C377.755 251.201 358.72 243.34 338.877 243.34V243.34Z" fill="#DE926A"/>
<path d="M338.877 243.34C319.033 243.34 299.998 251.201 285.938 265.203C271.878 279.205 263.937 298.207 263.855 318.05V357.316H413.898V318.05C413.816 298.207 405.876 279.205 391.815 265.203C377.755 251.201 358.72 243.34 338.877 243.34V243.34Z" stroke="#45413C" stroke-width="7" stroke-linecap="round" stroke-linejoin="round"/>
<path d="M421.951 351.84C421.567 349.082 420.384 346.497 418.548 344.403C416.712 342.31 414.302 340.8 411.618 340.06C397.087 340.758 382.645 337.432 369.882 330.449C357.119 323.467 346.531 313.097 339.284 300.483C332.045 313.105 321.458 323.481 308.694 330.465C295.929 337.449 281.482 340.77 266.949 340.06C263.511 340.617 260.42 342.478 258.319 345.256C256.218 348.033 255.268 351.514 255.667 354.974C256.067 358.434 257.784 361.607 260.463 363.833C263.141 366.059 266.575 367.167 270.049 366.927H270.876C273.272 383.359 281.503 398.38 294.064 409.242C306.625 420.105 322.677 426.082 339.284 426.082C355.89 426.082 371.942 420.105 384.503 409.242C397.064 398.38 405.295 383.359 407.691 366.927H408.518C410.406 366.863 412.261 366.417 413.971 365.615C415.681 364.813 417.211 363.672 418.467 362.261C419.723 360.851 420.68 359.2 421.279 357.408C421.878 355.617 422.106 353.723 421.951 351.84V351.84Z" fill="#FFCEBF" stroke="#45413C" stroke-width="7" stroke-linecap="round" stroke-linejoin="round"/>
<path d="M302.5 355.87C302.526 357.232 303.079 358.531 304.043 359.494C305.006 360.457 306.305 361.01 307.667 361.036C309.037 361.036 310.351 360.492 311.32 359.523C312.289 358.554 312.833 357.24 312.833 355.87C312.833 354.5 312.289 353.185 311.32 352.216C310.351 351.247 309.037 350.703 307.667 350.703C306.296 350.703 304.982 351.247 304.013 352.216C303.044 353.185 302.5 354.5 302.5 355.87Z" fill="#45413C" stroke="#45413C" stroke-width="7" stroke-linecap="round" stroke-linejoin="round"/>
<path d="M375.251 355.87C375.251 357.24 374.707 358.554 373.738 359.523C372.769 360.492 371.455 361.036 370.085 361.036C368.714 361.036 367.4 360.492 366.431 359.523C365.462 358.554 364.918 357.24 364.918 355.87C364.918 354.5 365.462 353.185 366.431 352.216C367.4 351.247 368.714 350.703 370.085 350.703C371.455 350.703 372.769 351.247 373.738 352.216C374.707 353.185 375.251 354.5 375.251 355.87Z" fill="#45413C" stroke="#45413C" stroke-width="7" stroke-linecap="round" stroke-linejoin="round"/>
<path d="M287.309 377.776C287.309 378.845 288.016 379.87 289.276 380.626C290.536 381.381 292.244 381.806 294.025 381.806C295.807 381.806 297.515 381.381 298.775 380.626C300.034 379.87 300.742 378.845 300.742 377.776C300.742 376.707 300.034 375.682 298.775 374.926C297.515 374.171 295.807 373.746 294.025 373.746C292.244 373.746 290.536 374.171 289.276 374.926C288.016 375.682 287.309 376.707 287.309 377.776V377.776Z" fill="#FFB59E"/>
<path d="M377.109 377.776C377.109 378.845 377.817 379.87 379.077 380.626C380.336 381.381 382.045 381.806 383.826 381.806C385.608 381.806 387.316 381.381 388.576 380.626C389.835 379.87 390.543 378.845 390.543 377.776C390.543 376.707 389.835 375.682 388.576 374.926C387.316 374.171 385.608 373.746 383.826 373.746C382.045 373.746 380.336 374.171 379.077 374.926C377.817 375.682 377.109 376.707 377.109 377.776Z" fill="#FFB59E"/>
<path d="M321.41 398.235C326.273 402.316 332.546 404.32 338.874 403.815C345.202 404.32 351.474 402.316 356.337 398.235" stroke="#45413C" stroke-width="7" stroke-linecap="round" stroke-linejoin="round"/>
</svg>
