<svg width="507" height="507" viewBox="0 0 507 507" fill="none" xmlns="http://www.w3.org/2000/svg">
<path d="M253.596 332.053C286.876 332.053 318.793 345.273 342.325 368.806C365.858 392.338 379.078 424.255 379.078 457.535V477.604H128.113V457.535C128.113 424.255 141.334 392.338 164.866 368.806C188.399 345.273 220.316 332.053 253.596 332.053Z" fill="white"/>
<path d="M253.596 332.053C220.316 332.053 188.399 345.273 164.866 368.806C141.334 392.338 128.113 424.255 128.113 457.535V477.604H129.17C133.024 447.321 147.785 419.482 170.689 399.3C193.593 379.118 223.069 367.978 253.596 367.965C284.123 367.978 313.598 379.118 336.502 399.3C359.406 419.482 374.168 447.321 378.022 477.604H379.078V457.535C379.078 424.255 365.858 392.338 342.325 368.806C318.793 345.273 286.876 332.053 253.596 332.053Z" fill="#F0F0F0"/>
<path d="M253.596 332.053C286.876 332.053 318.793 345.273 342.325 368.806C365.858 392.338 379.078 424.255 379.078 457.535V477.604H128.113V457.535C128.113 424.255 141.334 392.338 164.866 368.806C188.399 345.273 220.316 332.053 253.596 332.053V332.053Z" stroke="#45413C" stroke-width="6" stroke-linecap="round" stroke-linejoin="round"/>
<path d="M253.594 289.381C246.479 289.381 239.655 292.207 234.624 297.239C229.592 302.27 226.766 309.094 226.766 316.21V346.313C226.766 353.428 229.592 360.252 234.624 365.284C239.655 370.315 246.479 373.141 253.594 373.141C260.71 373.141 267.534 370.315 272.565 365.284C277.597 360.252 280.423 353.428 280.423 346.313V316.21C280.423 309.094 277.597 302.27 272.565 297.239C267.534 292.207 260.71 289.381 253.594 289.381Z" fill="#FFB59E" stroke="#45413C" stroke-width="6" stroke-linecap="round" stroke-linejoin="round"/>
<path d="M180.293 477.604V452.148" stroke="#45413C" stroke-width="6" stroke-linecap="round" stroke-linejoin="round"/>
<path d="M326.898 477.604V452.148" stroke="#45413C" stroke-width="6" stroke-linecap="round" stroke-linejoin="round"/>
<path d="M226.766 332.053C226.766 343.671 234.477 353.178 253.595 353.178C272.713 353.178 280.424 343.777 280.424 332.053C285.511 337.532 288.308 344.751 288.24 352.227C288.24 365.642 272.713 373.352 253.595 373.352C234.477 373.352 218.95 365.219 218.95 352.227C218.816 344.739 221.622 337.496 226.766 332.053Z" fill="#00DFEB" stroke="#45413C" stroke-width="6" stroke-linecap="round" stroke-linejoin="round"/>
<path d="M253.594 373.246H282.958C285.047 373.233 287.119 373.632 289.053 374.422C290.988 375.212 292.747 376.377 294.229 377.849C295.711 379.322 296.888 381.073 297.691 383.003C298.494 384.932 298.907 387.001 298.907 389.09V477.604" fill="white"/>
<path d="M253.594 373.246H282.958C285.047 373.233 287.119 373.632 289.053 374.422C290.988 375.212 292.747 376.377 294.229 377.849C295.711 379.322 296.888 381.073 297.691 383.003C298.494 384.932 298.907 387.001 298.907 389.09V477.604" stroke="#45413C" stroke-width="6" stroke-linecap="round" stroke-linejoin="round"/>
<path d="M253.594 373.247V353.072" stroke="#45413C" stroke-width="6" stroke-linecap="round" stroke-linejoin="round"/>
<path d="M253.595 75.2783C244.901 75.2865 236.242 76.3865 227.822 78.5527C208.176 82.9889 182.615 90.3827 159.483 85.9464C158.582 91.9043 158.904 97.9833 160.429 103.813C161.954 109.642 164.651 115.099 168.356 119.852C156.304 137.221 149.854 157.861 149.871 179.002V233.293H357.319V179.002C357.319 151.493 346.391 125.11 326.939 105.658C307.487 86.2063 281.104 75.2783 253.595 75.2783Z" fill="#A86C4D"/>
<path d="M253.594 75.2783C244.9 75.2865 236.242 76.3865 227.822 78.5527C208.175 82.9889 182.614 90.3827 159.482 85.9464C158.052 97.0261 160.597 108.254 166.665 117.634C187.355 117.956 207.974 115.143 227.822 109.29C243.142 105.338 259.163 104.948 274.657 108.148C290.152 111.348 304.708 118.053 317.209 127.75C329.71 137.447 339.825 149.879 346.777 164.09C353.73 178.302 357.335 193.918 357.318 209.739V179.002C357.318 151.493 346.39 125.11 326.938 105.658C307.486 86.2063 281.103 75.2783 253.594 75.2783Z" fill="#DE926A"/>
<path d="M253.595 75.2783C244.901 75.2865 236.242 76.3865 227.822 78.5527C208.176 82.9889 182.615 90.3827 159.483 85.9464C158.582 91.9043 158.904 97.9833 160.429 103.813C161.954 109.642 164.651 115.099 168.356 119.852C156.304 137.221 149.854 157.861 149.871 179.002V233.293H357.319V179.002C357.319 151.493 346.391 125.11 326.939 105.658C307.487 86.2063 281.104 75.2783 253.595 75.2783V75.2783Z" stroke="#45413C" stroke-width="6" stroke-linecap="round" stroke-linejoin="round"/>
<path d="M368.41 225.372C367.897 221.493 366.219 217.862 363.597 214.957C360.976 212.053 357.534 210.012 353.728 209.106L347.497 207.416C342.905 206.119 338.867 203.348 336.004 199.531C333.141 195.714 331.612 191.062 331.653 186.291V164.743C331.641 160.387 330.198 156.156 327.545 152.701C324.892 149.247 321.176 146.76 316.971 145.625C296.829 153.665 275.279 157.58 253.596 157.138C231.913 157.58 210.363 153.665 190.221 145.625C185.996 146.741 182.257 149.219 179.584 152.675C176.91 156.132 175.451 160.373 175.433 164.743V186.502C175.474 191.273 173.945 195.925 171.083 199.743C168.22 203.56 164.181 206.33 159.59 207.627L153.358 209.317C149.552 210.224 146.111 212.264 143.489 215.169C140.868 218.073 139.189 221.704 138.676 225.583C138.394 228.257 138.679 230.961 139.512 233.517C140.346 236.073 141.709 238.425 143.513 240.419C145.318 242.412 147.522 244.003 149.983 245.087C152.444 246.17 155.105 246.723 157.794 246.708H158.956C161.428 270.057 172.453 291.666 189.907 307.37C207.362 323.075 230.011 331.764 253.49 331.764C276.97 331.764 299.619 323.075 317.074 307.37C334.528 291.666 345.553 270.057 348.025 246.708H349.187C351.904 246.742 354.598 246.195 357.087 245.105C359.577 244.016 361.806 242.408 363.625 240.389C365.444 238.369 366.812 235.986 367.637 233.396C368.462 230.807 368.726 228.071 368.41 225.372Z" fill="#FFCEBF" stroke="#45413C" stroke-width="6" stroke-linecap="round" stroke-linejoin="round"/>
<path d="M196.243 223.153C196.243 224.762 196.72 226.334 197.614 227.672C198.507 229.009 199.777 230.052 201.264 230.667C202.75 231.283 204.385 231.444 205.963 231.13C207.54 230.816 208.99 230.042 210.127 228.904C211.264 227.767 212.039 226.318 212.353 224.74C212.667 223.162 212.506 221.527 211.89 220.041C211.274 218.555 210.232 217.285 208.895 216.391C207.557 215.497 205.985 215.02 204.376 215.02C203.304 215.006 202.24 215.207 201.247 215.61C200.254 216.014 199.351 216.613 198.593 217.371C197.835 218.129 197.237 219.031 196.833 220.024C196.429 221.017 196.229 222.081 196.243 223.153Z" fill="#45413C" stroke="#45413C" stroke-width="6" stroke-linecap="round" stroke-linejoin="round"/>
<path d="M310.95 223.153C310.95 224.762 310.473 226.334 309.579 227.672C308.685 229.009 307.415 230.052 305.929 230.667C304.443 231.283 302.808 231.444 301.23 231.13C299.652 230.816 298.203 230.042 297.066 228.904C295.928 227.767 295.154 226.318 294.84 224.74C294.526 223.162 294.687 221.527 295.303 220.041C295.918 218.555 296.961 217.285 298.298 216.391C299.636 215.497 301.208 215.02 302.817 215.02C303.889 215.006 304.953 215.207 305.946 215.61C306.939 216.014 307.841 216.613 308.599 217.371C309.357 218.129 309.956 219.031 310.36 220.024C310.763 221.017 310.964 222.081 310.95 223.153Z" fill="#45413C" stroke="#45413C" stroke-width="6" stroke-linecap="round" stroke-linejoin="round"/>
<path d="M223.598 272.691C222.927 272.691 222.265 272.843 221.661 273.136C221.057 273.429 220.528 273.854 220.112 274.381C219.67 274.879 219.346 275.47 219.163 276.109C218.98 276.749 218.944 277.422 219.056 278.078C220.482 286.203 224.727 293.565 231.044 298.87C237.361 304.175 245.346 307.083 253.595 307.083C261.844 307.083 269.829 304.175 276.147 298.87C282.464 293.565 286.709 286.203 288.135 278.078C288.247 277.422 288.211 276.749 288.028 276.109C287.845 275.47 287.521 274.879 287.079 274.381C286.653 273.866 286.122 273.448 285.52 273.156C284.919 272.864 284.261 272.706 283.593 272.691H223.598Z" fill="#FF6242"/>
<path d="M253.594 287.48C244.058 287.107 234.676 289.973 226.977 295.613C230.305 299.319 234.376 302.284 238.926 304.313C243.475 306.342 248.401 307.391 253.383 307.391C258.364 307.391 263.29 306.342 267.84 304.313C272.389 302.284 276.461 299.319 279.789 295.613C272.205 290.064 262.987 287.202 253.594 287.48Z" fill="#FFA694"/>
<path d="M223.598 272.691C222.927 272.691 222.265 272.843 221.661 273.136C221.057 273.429 220.528 273.854 220.112 274.381C219.67 274.879 219.346 275.47 219.163 276.109C218.98 276.749 218.944 277.422 219.056 278.078C220.482 286.203 224.727 293.565 231.044 298.87C237.361 304.175 245.346 307.083 253.595 307.083C261.844 307.083 269.829 304.175 276.147 298.87C282.464 293.565 286.709 286.203 288.135 278.078C288.247 277.422 288.211 276.749 288.028 276.109C287.845 275.47 287.521 274.879 287.079 274.381C286.653 273.866 286.122 273.448 285.52 273.156C284.919 272.864 284.261 272.706 283.593 272.691H223.598Z" stroke="#45413C" stroke-width="6" stroke-linecap="round" stroke-linejoin="round"/>
<path d="M180.293 257.798C180.293 259.479 181.406 261.091 183.387 262.28C185.368 263.468 188.054 264.136 190.855 264.136C193.657 264.136 196.343 263.468 198.324 262.28C200.305 261.091 201.418 259.479 201.418 257.798C201.418 256.118 200.305 254.506 198.324 253.317C196.343 252.129 193.657 251.461 190.855 251.461C188.054 251.461 185.368 252.129 183.387 253.317C181.406 254.506 180.293 256.118 180.293 257.798Z" fill="#FFB59E"/>
<path d="M305.773 257.798C305.773 259.479 306.886 261.091 308.867 262.28C310.848 263.468 313.535 264.136 316.336 264.136C319.137 264.136 321.824 263.468 323.805 262.28C325.786 261.091 326.898 259.479 326.898 257.798C326.898 256.118 325.786 254.506 323.805 253.317C321.824 252.129 319.137 251.461 316.336 251.461C313.535 251.461 310.848 252.129 308.867 253.317C306.886 254.506 305.773 256.118 305.773 257.798Z" fill="#FFB59E"/>
<path d="M316.337 57.3224C308.645 48.267 299.008 41.0655 288.144 36.2554C277.28 31.4453 265.47 29.1508 253.596 29.543C241.721 29.1508 229.911 31.4453 219.047 36.2554C208.183 41.0655 198.546 48.267 190.854 57.3224C163.181 43.908 115.016 60.4911 115.016 105.276C115.016 146.998 144.485 156.293 144.485 156.293H362.706C362.706 156.293 392.176 146.998 392.176 105.276C392.176 60.4911 344.011 43.908 316.337 57.3224Z" fill="#F0F0F0"/>
<path d="M190.852 107.072C198.543 98.0164 208.181 90.8149 219.045 86.0048C229.909 81.1947 241.718 78.9002 253.593 79.2924C265.468 78.9002 277.278 81.1947 288.142 86.0048C299.005 90.8149 308.643 98.0164 316.334 107.072C329.121 101.666 343.461 101.213 356.563 105.801C369.665 110.39 380.589 119.691 387.209 131.894C390.664 123.453 392.354 114.395 392.173 105.276C392.173 60.4911 344.008 43.908 316.334 57.3224C308.643 48.267 299.005 41.0655 288.142 36.2554C277.278 31.4453 265.468 29.1508 253.593 29.543C241.718 29.1508 229.909 31.4453 219.045 36.2554C208.181 41.0655 198.543 48.267 190.852 57.3224C163.178 43.908 115.013 60.4911 115.013 105.276C114.832 114.395 116.522 123.453 119.978 131.894C126.597 119.691 137.521 110.39 150.623 105.801C163.725 101.213 178.066 101.666 190.852 107.072Z" fill="white"/>
<path d="M316.337 57.3224C308.645 48.267 299.008 41.0655 288.144 36.2554C277.28 31.4453 265.47 29.1508 253.596 29.543C241.721 29.1508 229.911 31.4453 219.047 36.2554C208.183 41.0655 198.546 48.267 190.854 57.3224C163.181 43.908 115.016 60.4911 115.016 105.276C115.016 146.998 144.485 156.293 144.485 156.293H362.706C362.706 156.293 392.176 146.998 392.176 105.276C392.176 60.4911 344.011 43.908 316.337 57.3224Z" stroke="#45413C" stroke-width="6" stroke-linecap="round" stroke-linejoin="round"/>
<path d="M316.969 98.1992C316.969 126.401 288.556 149.216 253.594 149.216C218.632 149.216 190.219 126.401 190.219 98.1992" stroke="#45413C" stroke-width="6" stroke-linecap="round" stroke-linejoin="round"/>
<path d="M144.484 156.293C144.484 145.73 193.283 137.809 253.595 137.809C313.907 137.809 362.706 146.047 362.706 156.293V185.762C362.706 175.2 313.907 167.278 253.595 167.278C193.283 167.278 144.484 175.622 144.484 185.762V156.293Z" fill="#F0F0F0" stroke="#45413C" stroke-width="6" stroke-linecap="round" stroke-linejoin="round"/>
</svg>
