<svg width="506" height="506" viewBox="0 0 506 506" fill="none" xmlns="http://www.w3.org/2000/svg">
<path d="M345.426 333.949L253.292 304.011L161.158 334.265C146.483 338.384 133.485 347.033 124.019 358.979C114.554 370.925 109.104 385.556 108.449 400.783V462.136H398.556V400.467C397.873 385.185 392.363 370.514 382.816 358.562C373.27 346.609 360.179 337.992 345.426 333.949Z" fill="white"/>
<path d="M345.426 333.949L253.292 304.011L161.158 334.265C146.483 338.384 133.485 347.033 124.019 358.979C114.554 370.925 109.104 385.556 108.449 400.783V432.408C109.104 417.181 114.554 402.55 124.019 390.604C133.485 378.658 146.483 370.009 161.158 365.89L253.292 335.636L345.426 365.89C360.1 370.009 373.098 378.658 382.564 390.604C392.03 402.55 397.479 417.181 398.134 432.408V400.783C397.545 385.501 392.125 370.799 382.655 358.79C373.184 346.781 360.15 338.084 345.426 333.949Z" fill="#E0E0E0"/>
<path d="M345.426 333.949L253.292 304.011L161.158 334.265C146.483 338.384 133.485 347.033 124.019 358.979C114.554 370.925 109.104 385.556 108.449 400.783V462.136H398.556V400.467C397.873 385.185 392.363 370.514 382.816 358.562C373.27 346.609 360.179 337.992 345.426 333.949V333.949Z" stroke="#45413C" stroke-width="7" stroke-linecap="round" stroke-linejoin="round"/>
<path d="M157.367 325.514C157.367 331.272 159.848 336.975 164.669 342.295C169.49 347.616 176.556 352.45 185.464 356.522C194.372 360.595 204.947 363.825 216.586 366.029C228.225 368.233 240.699 369.367 253.296 369.367C265.894 369.367 278.368 368.233 290.007 366.029C301.646 363.825 312.221 360.595 321.129 356.522C330.036 352.45 337.102 347.616 341.923 342.295C346.744 336.975 349.226 331.272 349.226 325.514C349.226 319.755 346.744 314.052 341.923 308.732C337.102 303.411 330.036 298.577 321.129 294.505C312.221 290.432 301.646 287.202 290.007 284.998C278.368 282.794 265.894 281.66 253.296 281.66C240.699 281.66 228.225 282.794 216.586 284.998C204.947 287.202 194.372 290.432 185.464 294.505C176.556 298.577 169.49 303.411 164.669 308.732C159.848 314.052 157.367 319.755 157.367 325.514Z" fill="white"/>
<path d="M253.364 281.66C206.137 281.66 166.922 297.262 159.016 317.818C166.922 338.374 206.137 353.976 253.891 353.976C301.644 353.976 340.332 338.374 348.766 317.818C339.805 297.262 300.59 281.66 253.364 281.66Z" fill="#E0E0E0"/>
<path d="M157.367 325.514C157.367 331.272 159.848 336.975 164.669 342.295C169.49 347.616 176.556 352.45 185.464 356.522C194.372 360.595 204.947 363.825 216.586 366.029C228.225 368.233 240.699 369.367 253.296 369.367C265.894 369.367 278.368 368.233 290.007 366.029C301.646 363.825 312.221 360.595 321.129 356.522C330.036 352.45 337.102 347.616 341.923 342.295C346.744 336.975 349.226 331.272 349.226 325.514C349.226 319.755 346.744 314.052 341.923 308.732C337.102 303.411 330.036 298.577 321.129 294.505C312.221 290.432 301.646 287.202 290.007 284.998C278.368 282.794 265.894 281.66 253.296 281.66C240.699 281.66 228.225 282.794 216.586 284.998C204.947 287.202 194.372 290.432 185.464 294.505C176.556 298.577 169.49 303.411 164.669 308.732C159.848 314.052 157.367 319.755 157.367 325.514V325.514Z" stroke="#45413C" stroke-width="7" stroke-linecap="round" stroke-linejoin="round"/>
<path d="M339.871 462.133V344.488" stroke="#45413C" stroke-width="7" stroke-linecap="round" stroke-linejoin="round"/>
<path d="M166.758 462.133V344.488" stroke="#45413C" stroke-width="7" stroke-linecap="round" stroke-linejoin="round"/>
<path d="M406.039 158.957H396.657C389.519 126.243 371.407 96.9545 345.329 75.9529C319.251 54.9513 286.774 43.5 253.29 43.5C219.807 43.5 187.33 54.9513 161.252 75.9529C135.174 96.9545 117.062 126.243 109.924 158.957H100.542C97.7458 158.957 95.0645 160.068 93.0876 162.045C91.1106 164.022 90 166.703 90 169.499V210.822C90 213.618 91.1106 216.299 93.0876 218.276C95.0645 220.253 97.7458 221.364 100.542 221.364H109.924C117.062 254.077 135.174 283.366 161.252 304.368C187.33 325.369 219.807 336.821 253.29 336.821C286.774 336.821 319.251 325.369 345.329 304.368C371.407 283.366 389.519 254.077 396.657 221.364H406.039C408.835 221.364 411.516 220.253 413.493 218.276C415.47 216.299 416.581 213.618 416.581 210.822V169.499C416.581 166.703 415.47 164.022 413.493 162.045C411.516 160.068 408.835 158.957 406.039 158.957Z" fill="#E0E0E0"/>
<path d="M406.039 158.957H396.657C389.519 126.243 371.407 96.9545 345.329 75.9529C319.251 54.9513 286.774 43.5 253.29 43.5C219.807 43.5 187.33 54.9513 161.252 75.9529C135.174 96.9545 117.062 126.243 109.924 158.957H100.542C97.7458 158.957 95.0645 160.068 93.0876 162.045C91.1106 164.022 90 166.703 90 169.499V193.955C90 191.159 91.1106 188.478 93.0876 186.501C95.0645 184.524 97.7458 183.414 100.542 183.414C103.123 183.416 105.635 182.572 107.691 181.01C109.747 179.449 111.235 177.257 111.927 174.769C120.589 143.973 139.078 116.852 164.579 97.5344C190.079 78.2171 221.194 67.7625 253.185 67.7625C285.176 67.7625 316.291 78.2171 341.791 97.5344C367.292 116.852 385.781 143.973 394.443 174.769C395.135 177.257 396.623 179.449 398.679 181.01C400.735 182.572 403.247 183.416 405.828 183.414C408.624 183.414 411.305 184.524 413.282 186.501C415.259 188.478 416.37 191.159 416.37 193.955V169.499C416.371 166.739 415.289 164.089 413.357 162.118C411.426 160.147 408.798 159.012 406.039 158.957Z" fill="white"/>
<path d="M406.039 158.957H396.657C389.519 126.243 371.407 96.9545 345.329 75.9529C319.251 54.9513 286.774 43.5 253.29 43.5C219.807 43.5 187.33 54.9513 161.252 75.9529C135.174 96.9545 117.062 126.243 109.924 158.957H100.542C97.7458 158.957 95.0645 160.068 93.0876 162.045C91.1106 164.022 90 166.703 90 169.499V210.822C90 213.618 91.1106 216.299 93.0876 218.276C95.0645 220.253 97.7458 221.364 100.542 221.364H109.924C117.062 254.077 135.174 283.366 161.252 304.368C187.33 325.369 219.807 336.821 253.29 336.821C286.774 336.821 319.251 325.369 345.329 304.368C371.407 283.366 389.519 254.077 396.657 221.364H406.039C408.835 221.364 411.516 220.253 413.493 218.276C415.47 216.299 416.581 213.618 416.581 210.822V169.499C416.581 166.703 415.47 164.022 413.493 162.045C411.516 160.068 408.835 158.957 406.039 158.957Z" stroke="#45413C" stroke-width="7" stroke-linecap="round" stroke-linejoin="round"/>
<path d="M131.012 190.161C131.012 206.22 134.175 222.121 140.32 236.957C146.465 251.793 155.473 265.274 166.828 276.629C178.183 287.984 191.663 296.991 206.499 303.136C221.335 309.282 237.237 312.445 253.295 312.445C269.354 312.445 285.255 309.282 300.091 303.136C314.927 296.991 328.407 287.984 339.762 276.629C351.117 265.274 360.125 251.793 366.27 236.957C372.415 222.121 375.578 206.22 375.578 190.161C375.578 174.103 372.415 158.202 366.27 143.365C360.125 128.529 351.117 115.049 339.762 103.694C328.407 92.3388 314.927 83.3315 300.091 77.1862C285.255 71.0409 269.354 67.8779 253.295 67.8779C237.237 67.8779 221.335 71.0409 206.499 77.1862C191.663 83.3315 178.183 92.3388 166.828 103.694C155.473 115.049 146.465 128.529 140.32 143.365C134.175 158.202 131.012 174.103 131.012 190.161Z" fill="#656769" stroke="#45413C" stroke-width="7" stroke-linecap="round" stroke-linejoin="round"/>
<path d="M275.738 143.146H230.831C211.26 143.146 192.491 150.921 178.652 164.76C164.814 178.598 157.039 197.367 157.039 216.938C157.132 221.675 157.59 226.398 158.409 231.064C161.65 253.919 173.032 274.836 190.462 289.97C207.893 305.104 230.201 313.437 253.284 313.437C276.368 313.437 298.676 305.104 316.107 289.97C333.537 274.836 344.919 253.919 348.159 231.064C348.925 226.288 349.312 221.459 349.319 216.622C349.236 197.142 341.453 178.486 327.669 164.722C313.885 150.958 295.218 143.202 275.738 143.146Z" fill="#FFE500" stroke="#45413C" stroke-width="7" stroke-linecap="round" stroke-linejoin="round"/>
<path d="M196.075 208.188C196.075 209.794 196.551 211.363 197.443 212.698C198.335 214.033 199.603 215.073 201.086 215.687C202.569 216.302 204.201 216.462 205.776 216.149C207.35 215.836 208.796 215.063 209.932 213.928C211.067 212.793 211.84 211.346 212.153 209.772C212.466 208.197 212.306 206.565 211.691 205.082C211.077 203.599 210.036 202.331 208.702 201.439C207.367 200.547 205.797 200.071 204.192 200.071C203.122 200.057 202.06 200.257 201.069 200.66C200.078 201.063 199.177 201.66 198.421 202.417C197.664 203.173 197.067 204.074 196.664 205.065C196.261 206.056 196.061 207.118 196.075 208.188Z" fill="#45413C" stroke="#45413C" stroke-width="7" stroke-linecap="round" stroke-linejoin="round"/>
<path d="M310.48 208.188C310.48 209.794 310.004 211.363 309.112 212.698C308.22 214.033 306.953 215.073 305.469 215.687C303.986 216.302 302.354 216.462 300.78 216.149C299.205 215.836 297.759 215.063 296.624 213.928C295.488 212.793 294.715 211.346 294.402 209.772C294.089 208.197 294.25 206.565 294.864 205.082C295.478 203.599 296.519 202.331 297.854 201.439C299.188 200.547 300.758 200.071 302.363 200.071C303.433 200.057 304.495 200.257 305.486 200.66C306.477 201.063 307.378 201.66 308.134 202.417C308.891 203.173 309.488 204.074 309.891 205.065C310.294 206.056 310.494 207.118 310.48 208.188Z" fill="#45413C" stroke="#45413C" stroke-width="7" stroke-linecap="round" stroke-linejoin="round"/>
<path d="M223.409 257.628C222.742 257.642 222.086 257.8 221.485 258.092C220.885 258.383 220.354 258.8 219.93 259.315C219.482 259.807 219.154 260.396 218.971 261.036C218.788 261.676 218.756 262.35 218.876 263.004C220.299 271.113 224.536 278.46 230.84 283.755C237.145 289.049 245.114 291.951 253.347 291.951C261.58 291.951 269.549 289.049 275.854 283.755C282.158 278.46 286.395 271.113 287.818 263.004C287.939 262.35 287.906 261.676 287.723 261.036C287.54 260.396 287.212 259.807 286.764 259.315C286.34 258.8 285.809 258.383 285.209 258.092C284.609 257.8 283.952 257.642 283.285 257.628H223.409Z" fill="#FF6242"/>
<path d="M253.276 272.387C243.758 272.014 234.395 274.875 226.711 280.504C230.033 284.203 234.096 287.162 238.637 289.187C243.177 291.212 248.093 292.259 253.065 292.259C258.037 292.259 262.953 291.212 267.494 289.187C272.034 287.162 276.097 284.203 279.419 280.504C271.85 274.966 262.651 272.11 253.276 272.387Z" fill="#FFA694"/>
<path d="M223.409 257.628C222.742 257.642 222.086 257.8 221.485 258.092C220.885 258.383 220.354 258.8 219.93 259.315C219.482 259.807 219.154 260.396 218.971 261.036C218.788 261.676 218.756 262.35 218.876 263.004C220.299 271.113 224.536 278.46 230.84 283.755C237.145 289.049 245.114 291.951 253.347 291.951C261.58 291.951 269.549 289.049 275.854 283.755C282.158 278.46 286.395 271.113 287.818 263.004C287.939 262.35 287.906 261.676 287.723 261.036C287.54 260.396 287.212 259.807 286.764 259.315C286.34 258.8 285.809 258.383 285.209 258.092C284.609 257.8 283.952 257.642 283.285 257.628H223.409Z" stroke="#45413C" stroke-width="7" stroke-linecap="round" stroke-linejoin="round"/>
<path d="M180.098 242.762C180.098 244.439 181.208 246.048 183.185 247.234C185.162 248.42 187.843 249.087 190.639 249.087C193.435 249.087 196.116 248.42 198.093 247.234C200.07 246.048 201.181 244.439 201.181 242.762C201.181 241.084 200.07 239.475 198.093 238.289C196.116 237.103 193.435 236.437 190.639 236.437C187.843 236.437 185.162 237.103 183.185 238.289C181.208 239.475 180.098 241.084 180.098 242.762Z" fill="#FFAA54"/>
<path d="M305.445 242.762C305.445 244.439 306.556 246.048 308.533 247.234C310.51 248.42 313.191 249.087 315.987 249.087C318.783 249.087 321.464 248.42 323.441 247.234C325.418 246.048 326.529 244.439 326.529 242.762C326.529 241.084 325.418 239.475 323.441 238.289C321.464 237.103 318.783 236.437 315.987 236.437C313.191 236.437 310.51 237.103 308.533 238.289C306.556 239.475 305.445 241.084 305.445 242.762Z" fill="#FFAA54"/>
<path d="M253.238 67.8779C225.141 67.8862 197.903 77.5615 176.096 95.2791C154.29 112.997 139.244 137.678 133.484 165.178C171.557 150.003 212.257 142.515 253.238 143.145C294.218 142.515 334.918 150.003 372.991 165.178C367.231 137.678 352.185 112.997 330.379 95.2791C308.573 77.5615 281.334 67.8862 253.238 67.8779Z" fill="#FF87AF"/>
<path d="M253.355 98.4458C313.337 98.4458 363.199 126.908 372.897 164.226C367.011 136.893 351.935 112.402 330.183 94.8357C308.43 77.2691 281.315 67.6875 253.355 67.6875C225.395 67.6875 198.28 77.2691 176.527 94.8357C154.775 112.402 139.699 136.893 133.812 164.226C143.511 126.908 193.373 98.4458 253.355 98.4458Z" fill="#FF6196"/>
<path d="M253.238 67.8779C225.141 67.8862 197.903 77.5615 176.096 95.2791C154.29 112.997 139.244 137.678 133.484 165.178C171.557 150.003 212.257 142.515 253.238 143.145C294.218 142.515 334.918 150.003 372.991 165.178C367.231 137.678 352.185 112.997 330.379 95.2791C308.573 77.5615 281.334 67.8862 253.238 67.8779V67.8779Z" stroke="#45413C" stroke-width="7" stroke-linecap="round" stroke-linejoin="round"/>
<path d="M188.168 403.209H236.133V429.563H188.168V403.209Z" fill="#FF42F2" stroke="#45413C" stroke-width="7" stroke-linecap="round" stroke-linejoin="round"/>
<path d="M291.938 416.386C291.938 419.881 293.326 423.233 295.797 425.704C298.268 428.175 301.62 429.563 305.115 429.563C308.609 429.563 311.961 428.175 314.432 425.704C316.903 423.233 318.292 419.881 318.292 416.386C318.292 412.891 316.903 409.54 314.432 407.068C311.961 404.597 308.609 403.209 305.115 403.209C301.62 403.209 298.268 404.597 295.797 407.068C293.326 409.54 291.938 412.891 291.938 416.386Z" fill="#34C759" stroke="#45413C" stroke-width="7" stroke-linecap="round" stroke-linejoin="round"/>
</svg>
