<svg width="496" height="496" viewBox="0 0 496 496" fill="none" xmlns="http://www.w3.org/2000/svg">
<path d="M153.452 118.007L104.782 55.2836C104.308 54.5786 103.68 53.9908 102.946 53.5651C102.211 53.1395 101.388 52.8871 100.541 52.8273C99.6943 52.7675 98.8447 52.9019 98.0574 53.2201C97.2701 53.5383 96.5658 54.032 95.9982 54.6636L72.3349 84.527C71.8288 85.2034 71.4829 85.9859 71.3232 86.8154C71.1636 87.645 71.1943 88.4999 71.4133 89.3159C71.6322 90.1318 72.0335 90.8874 72.5869 91.5256C73.1404 92.1638 73.8315 92.6681 74.6082 93.0003L146.942 125.86C147.983 126.724 149.325 127.138 150.671 127.012C152.018 126.886 153.26 126.23 154.123 125.189C154.986 124.147 155.401 122.806 155.275 121.459C155.149 120.112 154.493 118.87 153.452 118.007Z" fill="#FFE500" stroke="#45413C" stroke-width="7" stroke-linecap="round" stroke-linejoin="round"/>
<path d="M130.198 166.574L53.3184 141.361C52.5281 141.039 51.6755 140.899 50.824 140.952C49.9724 141.005 49.1436 141.249 48.3992 141.666C47.6547 142.083 47.0137 142.662 46.5237 143.36C46.0336 144.059 45.7071 144.859 45.5684 145.701L42.2617 183.934C42.2724 184.793 42.4743 185.639 42.8527 186.41C43.2311 187.182 43.7765 187.859 44.4493 188.393C45.1221 188.928 45.9055 189.305 46.7425 189.499C47.5795 189.693 48.4492 189.698 49.2884 189.514L129.475 176.494C130.645 176.357 131.731 175.817 132.545 174.967C133.36 174.116 133.852 173.008 133.938 171.833C134.024 170.658 133.697 169.491 133.014 168.531C132.332 167.571 131.336 166.879 130.198 166.574Z" fill="#FFE500" stroke="#45413C" stroke-width="7" stroke-linecap="round" stroke-linejoin="round"/>
<path d="M124.001 230.227L52.1847 231.673C51.3914 231.689 50.6124 231.887 49.9081 232.253C49.2037 232.618 48.5931 233.141 48.1234 233.781C47.6537 234.42 47.3377 235.159 47.1997 235.941C47.0618 236.722 47.1057 237.525 47.3281 238.287L57.6614 275.073C57.8933 275.84 58.297 276.544 58.8417 277.131C59.3865 277.718 60.0579 278.174 60.8051 278.463C61.5523 278.752 62.3555 278.867 63.1536 278.798C63.9518 278.73 64.724 278.481 65.4114 278.07L126.585 239.733C127.508 239.139 128.218 238.266 128.611 237.242C129.005 236.217 129.062 235.093 128.774 234.034C128.486 232.975 127.868 232.035 127.01 231.35C126.152 230.665 125.098 230.272 124.001 230.227Z" fill="#FFE500" stroke="#45413C" stroke-width="7" stroke-linecap="round" stroke-linejoin="round"/>
<path d="M224.028 33.0667C218.494 33.637 213.353 36.1901 209.555 40.2545C205.756 44.3189 203.557 49.6203 203.361 55.18L197.368 167.297C195.405 201.81 180.835 217.31 173.911 254.303C166.988 291.297 168.745 289.643 161.201 297.187L98.168 360.22L170.501 443.713L212.455 404.86C221.017 397 228.272 387.826 233.948 377.683C243.166 361.163 248.004 342.558 248.001 323.64V54.9733C247.984 51.9234 247.335 48.9102 246.097 46.1229C244.858 43.3357 243.057 40.8348 240.805 38.7773C238.554 36.7199 235.901 35.1505 233.014 34.1677C230.126 33.185 227.067 32.8101 224.028 33.0667Z" fill="#FFE500"/>
<path d="M225.369 62.0002C229.999 62.0061 234.542 63.256 238.523 65.6192C242.504 67.9824 245.777 71.3721 247.999 75.4335V54.7669C247.953 51.7345 247.284 48.7439 246.033 45.9811C244.783 43.2183 242.977 40.7424 240.728 38.7071C238.48 36.6719 235.837 35.1209 232.964 34.1506C230.09 33.1803 227.048 32.8114 224.026 33.0669C218.492 33.6372 213.352 36.1902 209.553 40.2547C205.754 44.3191 203.555 49.6205 203.359 55.1802L202.223 75.8469C204.431 71.6306 207.761 68.1063 211.845 65.6629C215.93 63.2194 220.61 61.9519 225.369 62.0002Z" fill="#FFF48C"/>
<path d="M173.911 254.304C167.091 291.297 168.745 289.644 161.201 297.187L98.168 360.22L111.395 375.41L161.201 325.604C168.745 318.06 184.451 295.12 173.911 254.304Z" fill="#FFF48C"/>
<path d="M224.028 33.0667C218.494 33.637 213.353 36.1901 209.555 40.2545C205.756 44.3189 203.557 49.6203 203.361 55.18L197.368 167.297C195.405 201.81 180.835 217.31 173.911 254.303C166.988 291.297 168.745 289.643 161.201 297.187L98.168 360.22L170.501 443.713L212.455 404.86C221.017 397 228.272 387.826 233.948 377.683V377.683C243.166 361.163 248.004 342.558 248.001 323.64V54.9733C247.984 51.9234 247.335 48.9102 246.097 46.1229C244.858 43.3357 243.057 40.8348 240.805 38.7773C238.554 36.7199 235.901 35.1505 233.014 34.1677C230.126 33.185 227.067 32.8101 224.028 33.0667V33.0667Z" stroke="#45413C" stroke-width="7" stroke-linecap="round" stroke-linejoin="round"/>
<path d="M34.8233 396.49L99.4067 344.823C101.426 343.202 103.98 342.399 106.563 342.571C109.146 342.743 111.571 343.879 113.357 345.753L191.993 428.42C193.686 430.185 194.698 432.493 194.85 434.933C195.001 437.374 194.282 439.789 192.82 441.75L177.94 460.866C176.977 462.15 175.729 463.191 174.295 463.909C172.86 464.626 171.278 465 169.673 465H41.3333C38.5928 465 35.9644 463.911 34.0266 461.973C32.0887 460.035 31 457.407 31 454.666V404.446C31.0101 402.92 31.3582 401.415 32.0193 400.039C32.6803 398.664 33.638 397.451 34.8233 396.49Z" fill="#009FD9"/>
<path d="M132.887 365.697L113.357 345.03C111.571 343.156 109.146 342.02 106.563 341.848C103.98 341.676 101.426 342.48 99.4067 344.1L34.8233 395.767C33.638 396.729 32.6803 397.941 32.0193 399.317C31.3582 400.692 31.0101 402.198 31 403.724V447.227L132.887 365.697Z" fill="#00B8F0"/>
<path d="M34.8233 396.49L99.4067 344.823C101.426 343.202 103.98 342.399 106.563 342.571C109.146 342.743 111.571 343.879 113.357 345.753L191.993 428.42C193.686 430.185 194.698 432.493 194.85 434.933C195.001 437.374 194.282 439.789 192.82 441.75L177.94 460.866C176.977 462.15 175.729 463.191 174.295 463.909C172.86 464.626 171.278 465 169.673 465H41.3333C38.5928 465 35.9644 463.911 34.0266 461.973C32.0887 460.035 31 457.407 31 454.666V404.446C31.0101 402.92 31.3582 401.415 32.0193 400.039C32.6803 398.664 33.638 397.451 34.8233 396.49V396.49Z" stroke="#45413C" stroke-width="7" stroke-linecap="round" stroke-linejoin="round"/>
<path d="M342.55 118.007L391.22 55.2836C391.693 54.5786 392.321 53.9908 393.056 53.5651C393.791 53.1395 394.613 52.8871 395.46 52.8273C396.307 52.7675 397.157 52.9019 397.944 53.2201C398.732 53.5383 399.436 54.032 400.004 54.6636L423.667 84.527C424.165 85.2236 424.497 86.0256 424.635 86.8708C424.774 87.716 424.716 88.5819 424.466 89.4012C424.217 90.2205 423.781 90.9713 423.195 91.5954C422.608 92.2195 421.886 92.7003 421.084 93.0003L348.75 125.86C347.698 126.454 346.469 126.651 345.284 126.418C344.099 126.185 343.037 125.536 342.288 124.588C341.54 123.64 341.155 122.456 341.203 121.249C341.251 120.042 341.729 118.892 342.55 118.007Z" fill="#FFE500" stroke="#45413C" stroke-width="7" stroke-linecap="round" stroke-linejoin="round"/>
<path d="M365.8 166.574L442.68 141.361C443.47 141.039 444.323 140.899 445.174 140.952C446.026 141.005 446.855 141.249 447.599 141.666C448.343 142.083 448.984 142.662 449.474 143.36C449.965 144.059 450.291 144.859 450.43 145.701L453.736 183.934C453.726 184.793 453.524 185.639 453.146 186.41C452.767 187.182 452.222 187.859 451.549 188.393C450.876 188.928 450.093 189.305 449.256 189.499C448.419 189.693 447.549 189.698 446.71 189.514L366.523 176.494C365.353 176.357 364.268 175.817 363.453 174.967C362.638 174.116 362.146 173.008 362.06 171.833C361.975 170.658 362.301 169.491 362.984 168.531C363.666 167.571 364.662 166.879 365.8 166.574Z" fill="#FFE500" stroke="#45413C" stroke-width="7" stroke-linecap="round" stroke-linejoin="round"/>
<path d="M372.001 230.227L444.334 231.673C445.128 231.689 445.907 231.887 446.611 232.253C447.315 232.618 447.926 233.141 448.396 233.781C448.865 234.42 449.181 235.159 449.319 235.941C449.457 236.722 449.413 237.525 449.191 238.287L438.858 275.073C438.626 275.84 438.222 276.544 437.677 277.131C437.133 277.718 436.461 278.174 435.714 278.463C434.967 278.752 434.164 278.867 433.365 278.798C432.567 278.73 431.795 278.481 431.108 278.07L369.211 239.733C368.275 239.129 367.56 238.238 367.171 237.194C366.783 236.149 366.743 235.007 367.057 233.938C367.37 232.869 368.021 231.93 368.912 231.261C369.803 230.592 370.887 230.229 372.001 230.227Z" fill="#FFE500" stroke="#45413C" stroke-width="7" stroke-linecap="round" stroke-linejoin="round"/>
<path d="M271.973 33.0667C277.507 33.637 282.648 36.1901 286.446 40.2545C290.245 44.3189 292.445 49.6203 292.64 55.18L298.943 167.297C300.907 201.81 315.477 217.31 322.4 254.303C329.323 291.297 327.567 289.643 335.11 297.187L398.143 360.22L325.81 443.713L283.857 404.86C275.294 397 268.039 387.826 262.363 377.683C253.037 361.192 248.092 342.586 248 323.64V54.9733C248.018 51.9234 248.666 48.9102 249.904 46.1229C251.143 43.3357 252.944 40.8348 255.196 38.7773C257.447 36.7199 260.1 35.1505 262.988 34.1677C265.875 33.185 268.934 32.8101 271.973 33.0667Z" fill="#FFE500"/>
<path d="M270.63 62.0002C266 62.0061 261.457 63.256 257.476 65.6192C253.495 67.9824 250.222 71.3721 248 75.4335V54.7669C248.046 51.7345 248.715 48.7439 249.966 45.9811C251.217 43.2183 253.023 40.7424 255.271 38.7071C257.519 36.6719 260.162 35.1209 263.036 34.1506C265.909 33.1803 268.951 32.8114 271.973 33.0669C277.507 33.6372 282.648 36.1902 286.446 40.2547C290.245 44.3191 292.445 49.6205 292.64 55.1802L293.777 75.8469C291.568 71.6306 288.238 68.1063 284.154 65.6629C280.069 63.2194 275.389 61.9519 270.63 62.0002Z" fill="#FFF48C"/>
<path d="M322.092 254.304C328.912 291.297 327.258 289.644 334.802 297.187L397.835 360.22L384.608 375.41L334.802 325.604C327.258 318.06 311.552 295.12 322.092 254.304Z" fill="#FFF48C"/>
<path d="M271.973 33.0667C277.507 33.637 282.648 36.1901 286.446 40.2545C290.245 44.3189 292.445 49.6203 292.64 55.18L298.943 167.297C300.907 201.81 315.477 217.31 322.4 254.303C329.323 291.297 327.567 289.643 335.11 297.187L398.143 360.22L325.81 443.713L283.857 404.86C275.294 397 268.039 387.826 262.363 377.683C253.037 361.192 248.092 342.586 248 323.64V54.9733C248.018 51.9234 248.666 48.9102 249.904 46.1229C251.143 43.3357 252.944 40.8348 255.196 38.7773C257.447 36.7199 260.1 35.1505 262.988 34.1677C265.875 33.185 268.934 32.8101 271.973 33.0667V33.0667Z" stroke="#45413C" stroke-width="7" stroke-linecap="round" stroke-linejoin="round"/>
<path d="M461.175 396.49L396.592 344.823C394.573 343.202 392.019 342.399 389.436 342.571C386.852 342.743 384.428 343.879 382.642 345.753L304.005 428.42C302.312 430.185 301.3 432.493 301.149 434.933C300.997 437.374 301.717 439.789 303.178 441.75L318.058 461.59C319.021 462.873 320.269 463.915 321.704 464.632C323.139 465.35 324.721 465.723 326.325 465.723H454.665C457.406 465.723 460.034 464.634 461.972 462.697C463.91 460.759 464.998 458.13 464.998 455.39V404.446C464.988 402.92 464.64 401.415 463.979 400.039C463.318 398.664 462.36 397.451 461.175 396.49Z" fill="#009FD9"/>
<path d="M363.113 365.697L382.643 345.03C384.429 343.156 386.854 342.02 389.437 341.848C392.02 341.676 394.574 342.48 396.593 344.1L461.177 395.767C462.362 396.729 463.32 397.941 463.981 399.317C464.642 400.692 464.99 402.198 465 403.724V447.227L363.113 365.697Z" fill="#00B8F0"/>
<path d="M461.175 396.49L396.592 344.823C394.573 343.202 392.019 342.399 389.436 342.571C386.852 342.743 384.428 343.879 382.642 345.753L304.005 428.42C302.312 430.185 301.3 432.493 301.149 434.933C300.997 437.374 301.717 439.789 303.178 441.75L318.058 461.59C319.021 462.873 320.269 463.915 321.704 464.632C323.139 465.35 324.721 465.723 326.325 465.723H454.665C457.406 465.723 460.034 464.634 461.972 462.697C463.91 460.759 464.998 458.13 464.998 455.39V404.446C464.988 402.92 464.64 401.415 463.979 400.039C463.318 398.664 462.36 397.451 461.175 396.49Z" stroke="#45413C" stroke-width="7" stroke-linecap="round" stroke-linejoin="round"/>
</svg>
