<svg width="496" height="496" viewBox="0 0 496 496" fill="none" xmlns="http://www.w3.org/2000/svg">
<path d="M256.145 317.354C288.703 317.354 319.928 330.288 342.95 353.31C365.973 376.332 378.907 407.557 378.907 440.115V459.749H133.383V440.115C133.383 407.557 146.317 376.332 169.339 353.31C192.361 330.288 223.586 317.354 256.145 317.354V317.354Z" fill="white"/>
<path d="M256.145 317.354C223.586 317.354 192.361 330.288 169.339 353.31C146.317 376.332 133.383 407.557 133.383 440.115V459.749H134.519C138.548 430.353 153.087 403.41 175.446 383.906C197.806 364.401 226.473 353.655 256.145 353.655C285.816 353.655 314.483 364.401 336.843 383.906C359.203 403.41 373.741 430.353 377.77 459.749H378.907V440.115C378.907 407.557 365.973 376.332 342.95 353.31C319.928 330.288 288.703 317.354 256.145 317.354Z" fill="#F0F0F0"/>
<path d="M256.145 317.354C288.703 317.354 319.928 330.288 342.95 353.31C365.973 376.332 378.907 407.557 378.907 440.115V459.749H133.383V440.115C133.383 407.557 146.317 376.332 169.339 353.31C192.361 330.288 223.586 317.354 256.145 317.354V317.354Z" stroke="#45413C" stroke-width="7" stroke-linecap="round" stroke-linejoin="round"/>
<path d="M207.477 342.465C207.477 352.167 212.604 361.471 221.732 368.331C230.859 375.191 243.239 379.045 256.147 379.045C269.056 379.045 281.435 375.191 290.563 368.331C299.69 361.471 304.818 352.167 304.818 342.465C304.818 332.763 299.69 323.459 290.563 316.599C281.435 309.739 269.056 305.885 256.147 305.885C243.239 305.885 230.859 309.739 221.732 316.599C212.604 323.459 207.477 332.763 207.477 342.465V342.465Z" fill="#00DBA8"/>
<path d="M256.141 305.884C246.738 305.257 237.353 307.349 229.107 311.912C220.862 316.474 214.104 323.314 209.641 331.615C214.079 339.943 220.829 346.811 229.078 351.394C237.328 355.977 246.725 358.079 256.141 357.448C265.557 358.079 274.955 355.977 283.204 351.394C291.454 346.811 298.204 339.943 302.642 331.615C298.179 323.314 291.421 316.474 283.175 311.912C274.929 307.349 265.544 305.257 256.141 305.884V305.884Z" fill="#00AD85"/>
<path d="M207.477 342.465C207.477 352.167 212.604 361.471 221.732 368.331C230.859 375.191 243.239 379.045 256.147 379.045C269.056 379.045 281.435 375.191 290.563 368.331C299.69 361.471 304.818 352.167 304.818 342.465C304.818 332.763 299.69 323.459 290.563 316.599C281.435 309.739 269.056 305.885 256.147 305.885C243.239 305.885 230.859 309.739 221.732 316.599C212.604 323.459 207.477 332.763 207.477 342.465V342.465Z" stroke="#45413C" stroke-width="7" stroke-linecap="round" stroke-linejoin="round"/>
<path d="M256.146 275.401C252.69 275.401 249.269 276.084 246.077 277.409C242.886 278.735 239.988 280.677 237.55 283.125C235.111 285.574 233.18 288.479 231.867 291.676C230.554 294.872 229.885 298.296 229.899 301.752V331.098C229.899 338.06 232.664 344.736 237.586 349.658C242.509 354.58 249.185 357.345 256.146 357.345C263.107 357.345 269.783 354.58 274.705 349.658C279.627 344.736 282.393 338.06 282.393 331.098V301.752C282.406 298.296 281.738 294.872 280.425 291.676C279.112 288.479 277.18 285.574 274.742 283.125C272.303 280.677 269.405 278.735 266.214 277.409C263.023 276.084 259.601 275.401 256.146 275.401V275.401Z" fill="#FFCEBF"/>
<path d="M256.146 275.401C249.184 275.401 242.508 278.167 237.586 283.089C232.664 288.011 229.898 294.687 229.898 301.648V307.848C229.898 314.809 232.664 321.485 237.586 326.408C242.508 331.33 249.184 334.095 256.146 334.095C263.107 334.095 269.783 331.33 274.705 326.408C279.627 321.485 282.393 314.809 282.393 307.848V301.752C282.406 298.296 281.737 294.872 280.424 291.676C279.111 288.479 277.18 285.574 274.742 283.125C272.303 280.677 269.405 278.735 266.214 277.409C263.023 276.084 259.601 275.401 256.146 275.401V275.401Z" fill="#FFB59E"/>
<path d="M256.146 275.401C252.69 275.401 249.269 276.084 246.077 277.409C242.886 278.735 239.988 280.677 237.55 283.125C235.111 285.574 233.18 288.479 231.867 291.676C230.554 294.872 229.885 298.296 229.899 301.752V331.098C229.899 338.06 232.664 344.736 237.586 349.658C242.509 354.58 249.185 357.345 256.146 357.345C263.107 357.345 269.783 354.58 274.705 349.658C279.627 344.736 282.393 338.06 282.393 331.098V301.752C282.406 298.296 281.738 294.872 280.425 291.676C279.112 288.479 277.18 285.574 274.742 283.125C272.303 280.677 269.405 278.735 266.214 277.409C263.023 276.084 259.601 275.401 256.146 275.401V275.401Z" stroke="#45413C" stroke-width="7" stroke-linecap="round" stroke-linejoin="round"/>
<path d="M184.43 459.748V434.845" stroke="#45413C" stroke-width="7" stroke-linecap="round" stroke-linejoin="round"/>
<path d="M327.859 459.749V434.742" stroke="#45413C" stroke-width="7" stroke-linecap="round" stroke-linejoin="round"/>
<path d="M277.842 377.909C282.993 384.92 290.226 390.127 298.509 392.789C311.943 396.509 320.623 390.929 326.409 394.545C317.936 371.192 297.889 359.102 285.075 364.992C272.262 370.882 277.842 377.909 277.842 377.909Z" fill="#00DBA8" stroke="#45413C" stroke-width="7" stroke-linecap="round" stroke-linejoin="round"/>
<path d="M266.476 378.321C262.029 387.568 260.619 397.985 262.446 408.081C266.166 423.891 276.603 429.678 276.19 437.635C295.41 415.935 296.857 388.655 283.423 378.735C269.989 368.814 266.476 378.321 266.476 378.321Z" fill="#00DBA8" stroke="#45413C" stroke-width="7" stroke-linecap="round" stroke-linejoin="round"/>
<path d="M256.145 357.448C259.814 359.292 262.76 362.311 264.515 366.024C265.786 370.001 266.448 374.147 266.478 378.321C269.489 379.651 272.745 380.338 276.036 380.338C279.328 380.338 282.584 379.651 285.595 378.321C287.72 376.961 289.542 375.179 290.949 373.085C292.355 370.992 293.316 368.631 293.772 366.15C294.227 363.669 294.168 361.121 293.597 358.664C293.025 356.207 291.955 353.893 290.452 351.868C283.425 342.774 268.235 340.708 256.145 357.448Z" fill="#00DBA8" stroke="#45413C" stroke-width="7" stroke-linecap="round" stroke-linejoin="round"/>
<path d="M256.143 66.1484C247.637 66.1564 239.166 67.2326 230.929 69.3518C211.709 73.6918 186.702 80.9252 164.071 76.5852C163.19 82.4138 163.505 88.3609 164.997 94.0638C166.489 99.7667 169.128 105.106 172.752 109.755C160.962 126.748 154.652 146.94 154.668 167.622V220.736H357.618V167.622C357.618 140.71 346.927 114.9 327.896 95.8695C308.866 76.8394 283.056 66.1484 256.143 66.1484V66.1484Z" fill="#A86C4D" stroke="#45413C" stroke-width="7" stroke-linecap="round" stroke-linejoin="round"/>
<path d="M368.47 212.986C367.968 209.191 366.326 205.639 363.761 202.797C361.196 199.956 357.83 197.96 354.107 197.073L348.01 195.419C343.518 194.15 339.567 191.44 336.766 187.706C333.965 183.972 332.47 179.42 332.51 174.752V153.672C332.498 149.411 331.086 145.271 328.49 141.892C325.895 138.512 322.26 136.079 318.146 134.969C298.441 142.835 277.358 146.665 256.145 146.232C234.933 146.665 213.849 142.835 194.144 134.969C190.011 136.06 186.353 138.485 183.737 141.866C181.122 145.247 179.695 149.397 179.677 153.672V174.959C179.717 179.627 178.221 184.178 175.421 187.913C172.62 191.647 168.669 194.357 164.177 195.626L158.08 197.279C154.357 198.166 150.99 200.163 148.426 203.004C145.861 205.845 144.219 209.398 143.717 213.193C143.44 215.809 143.719 218.453 144.535 220.954C145.35 223.455 146.684 225.756 148.449 227.706C150.214 229.657 152.371 231.213 154.778 232.273C157.186 233.333 159.79 233.874 162.42 233.859H163.557C165.975 256.702 176.761 277.842 193.837 293.206C210.913 308.57 233.071 317.071 256.042 317.071C279.012 317.071 301.17 308.57 318.246 293.206C335.322 277.842 346.108 256.702 348.526 233.859H349.663C352.322 233.892 354.957 233.358 357.393 232.291C359.828 231.225 362.009 229.652 363.788 227.677C365.568 225.702 366.906 223.37 367.714 220.836C368.521 218.303 368.779 215.627 368.47 212.986V212.986Z" fill="#FFCEBF" stroke="#45413C" stroke-width="7" stroke-linecap="round" stroke-linejoin="round"/>
<path d="M200.032 210.817C200.032 212.39 200.499 213.929 201.373 215.237C202.247 216.546 203.49 217.566 204.944 218.168C206.398 218.77 207.998 218.928 209.541 218.621C211.084 218.314 212.502 217.556 213.615 216.443C214.728 215.33 215.486 213.913 215.793 212.369C216.1 210.826 215.942 209.226 215.34 207.772C214.738 206.318 213.718 205.075 212.409 204.201C211.101 203.327 209.562 202.86 207.989 202.86C206.94 202.846 205.899 203.042 204.927 203.437C203.956 203.832 203.073 204.418 202.331 205.16C201.59 205.901 201.004 206.784 200.609 207.756C200.214 208.727 200.018 209.768 200.032 210.817V210.817Z" fill="#45413C" stroke="#45413C" stroke-width="7" stroke-linecap="round" stroke-linejoin="round"/>
<path d="M312.253 210.817C312.253 212.39 311.787 213.929 310.912 215.237C310.038 216.546 308.795 217.566 307.342 218.168C305.888 218.77 304.288 218.928 302.744 218.621C301.201 218.314 299.783 217.556 298.67 216.443C297.558 215.33 296.8 213.913 296.493 212.369C296.186 210.826 296.343 209.226 296.946 207.772C297.548 206.318 298.568 205.075 299.876 204.201C301.185 203.327 302.723 202.86 304.297 202.86C305.345 202.846 306.386 203.042 307.358 203.437C308.33 203.832 309.212 204.418 309.954 205.16C310.696 205.901 311.281 206.784 311.676 207.756C312.071 208.727 312.267 209.768 312.253 210.817V210.817Z" fill="#45413C" stroke="#45413C" stroke-width="7" stroke-linecap="round" stroke-linejoin="round"/>
<path d="M226.795 259.28C226.141 259.294 225.498 259.449 224.909 259.735C224.321 260.02 223.801 260.429 223.385 260.934C222.952 261.42 222.635 261.998 222.456 262.624C222.277 263.25 222.241 263.909 222.352 264.55C223.747 272.499 227.9 279.701 234.08 284.891C240.26 290.081 248.072 292.926 256.142 292.926C264.212 292.926 272.024 290.081 278.204 284.891C284.384 279.701 288.537 272.499 289.933 264.55C290.043 263.909 290.007 263.25 289.828 262.624C289.649 261.998 289.332 261.42 288.899 260.934C288.483 260.429 287.963 260.02 287.375 259.735C286.786 259.449 286.143 259.294 285.489 259.28H226.795Z" fill="#FF6242"/>
<path d="M256.142 273.748C246.812 273.383 237.634 276.188 230.102 281.705C233.358 285.331 237.341 288.231 241.792 290.217C246.243 292.202 251.062 293.228 255.935 293.228C260.809 293.228 265.628 292.202 270.079 290.217C274.53 288.231 278.513 285.331 281.769 281.705C274.349 276.277 265.331 273.477 256.142 273.748Z" fill="#FFA694"/>
<path d="M226.795 259.28C226.141 259.294 225.498 259.449 224.909 259.735C224.321 260.02 223.801 260.429 223.385 260.934C222.952 261.42 222.635 261.998 222.456 262.624C222.277 263.25 222.241 263.909 222.352 264.55C223.747 272.499 227.9 279.701 234.08 284.891C240.26 290.081 248.072 292.926 256.142 292.926C264.212 292.926 272.024 290.081 278.204 284.891C284.384 279.701 288.537 272.499 289.933 264.55C290.043 263.909 290.007 263.25 289.828 262.624C289.649 261.998 289.332 261.42 288.899 260.934C288.483 260.429 287.963 260.02 287.375 259.735C286.786 259.449 286.143 259.294 285.489 259.28H226.795Z" stroke="#45413C" stroke-width="7" stroke-linecap="round" stroke-linejoin="round"/>
<path d="M184.43 244.711C184.43 246.355 185.518 247.932 187.456 249.095C189.394 250.258 192.023 250.911 194.763 250.911C197.504 250.911 200.132 250.258 202.07 249.095C204.008 247.932 205.097 246.355 205.097 244.711C205.097 243.066 204.008 241.489 202.07 240.327C200.132 239.164 197.504 238.511 194.763 238.511C192.023 238.511 189.394 239.164 187.456 240.327C185.518 241.489 184.43 243.066 184.43 244.711Z" fill="#FFB59E"/>
<path d="M307.195 244.711C307.195 246.355 308.284 247.932 310.222 249.095C312.16 250.258 314.788 250.911 317.529 250.911C320.269 250.911 322.898 250.258 324.836 249.095C326.774 247.932 327.862 246.355 327.862 244.711C327.862 243.066 326.774 241.489 324.836 240.327C322.898 239.164 320.269 238.511 317.529 238.511C314.788 238.511 312.16 239.164 310.222 240.327C308.284 241.489 307.195 243.066 307.195 244.711Z" fill="#FFB59E"/>
<path d="M149.398 177.233C149.398 166.279 197.139 157.392 256.143 157.392C315.148 157.392 362.888 166.279 362.888 177.233L359.478 137.552C359.478 126.599 313.184 117.815 256.143 117.815C199.103 117.815 152.808 126.599 152.808 137.552L149.398 177.233Z" fill="#8CA4B8"/>
<path d="M256.143 117.815C199.103 117.815 152.808 126.599 152.808 137.552L149.398 176.612C151.155 166.279 198.276 157.392 256.143 157.392H272.78C293.076 149.218 311.891 137.768 328.478 123.499C304.581 119.476 280.375 117.574 256.143 117.815V117.815Z" fill="#627B8C"/>
<path d="M149.398 177.233C149.398 166.279 197.139 157.392 256.143 157.392C315.148 157.392 362.888 166.279 362.888 177.233L359.478 137.552C359.478 126.599 313.184 117.815 256.143 117.815C199.103 117.815 152.808 126.599 152.808 137.552L149.398 177.233Z" stroke="#45413C" stroke-width="7" stroke-linecap="round" stroke-linejoin="round"/>
<path d="M372.812 87.7461C350.905 52.6126 295.517 43.5192 256.146 46.4125C209.966 51.8432 165.861 68.6753 127.804 95.3929C109.824 108.413 103.521 122.26 108.791 130.423C119.848 151.09 178.542 155.947 268.443 117.92C320.111 119.056 359.481 127.426 359.481 137.553C359.481 137.553 392.238 117.816 372.812 87.7461Z" fill="#8CA4B8"/>
<path d="M112.718 135.383C117.02 129.856 122.102 124.983 127.804 120.916C165.891 94.309 209.994 77.5843 256.146 72.246C295.517 69.0427 350.905 78.1361 372.812 112.753C374.112 114.707 375.22 116.784 376.118 118.953C378.394 113.928 379.287 108.386 378.705 102.9C378.124 97.4145 376.09 92.1831 372.812 87.7461C350.905 52.6126 295.517 43.5192 256.146 46.4125C209.966 51.8433 165.861 68.6753 127.804 95.3929C109.824 108.413 103.521 122.26 108.791 130.423C109.852 132.259 111.174 133.929 112.718 135.383V135.383Z" fill="#ADC4D9"/>
<path d="M372.812 87.7461C350.905 52.6126 295.517 43.5192 256.146 46.4125C209.966 51.8432 165.861 68.6753 127.804 95.3929C109.824 108.413 103.521 122.26 108.791 130.423C119.848 151.09 178.542 155.947 268.443 117.92C320.111 119.056 359.481 127.426 359.481 137.553C359.481 137.553 392.238 117.816 372.812 87.7461Z" stroke="#45413C" stroke-width="7" stroke-linecap="round" stroke-linejoin="round"/>
<path d="M268.441 117.919C282.288 112.029 296.962 105.105 312.255 97.252" stroke="#45413C" stroke-width="7" stroke-linecap="round" stroke-linejoin="round"/>
<path d="M239.089 48.7636C239.265 50.2322 239.88 51.6337 240.899 52.888C241.917 54.1423 243.319 55.2249 245.025 56.074C246.731 56.923 248.707 57.5219 250.841 57.8364C252.975 58.151 255.224 58.175 257.461 57.9071C259.698 57.6392 261.878 57.0847 263.877 56.2751C265.876 55.4656 267.655 54.417 269.112 53.189C270.569 51.9611 271.676 50.578 272.369 49.1187C273.063 47.6593 273.329 46.1523 273.153 44.6836C272.977 43.215 272.363 41.8135 271.344 40.5592C270.326 39.3049 268.923 38.2223 267.218 37.3732C265.512 36.5242 263.535 35.9253 261.402 35.6108C259.268 35.2962 257.019 35.2722 254.782 35.5401C252.545 35.808 250.365 36.3625 248.366 37.1721C246.367 37.9816 244.588 39.0302 243.131 40.2582C241.674 41.4861 240.567 42.8692 239.873 44.3285C239.18 45.7879 238.914 47.2949 239.089 48.7636V48.7636Z" fill="#627B8C" stroke="#45413C" stroke-width="7" stroke-linecap="round" stroke-linejoin="round"/>
<path d="M83.0578 459.748C83.0578 459.748 14.3401 381.421 73.551 372.431C137.722 362.821 207.886 459.748 207.886 459.748H83.0578Z" fill="#DEBB7E"/>
<path d="M73.5507 401.88C114.058 395.783 156.735 432.054 182.776 459.747H207.473C207.473 459.747 137.722 362.82 73.1374 372.43C46.8903 376.46 45.7536 393.923 52.4704 412.317C55.0263 409.163 58.2327 406.598 61.8708 404.797C65.5089 402.995 69.4929 402.001 73.5507 401.88V401.88Z" fill="#F0D5A8"/>
<path d="M83.0578 459.748C83.0578 459.748 14.3401 381.421 73.551 372.431C137.722 362.821 207.886 459.748 207.886 459.748H83.0578Z" stroke="#45413C" stroke-width="7" stroke-linecap="round" stroke-linejoin="round"/>
<path d="M95.8432 408.765C97.7448 410.095 99.764 411.217 101.786 412.067C103.807 412.917 105.792 413.479 107.626 413.719C109.46 413.96 111.108 413.875 112.475 413.47C113.842 413.064 114.902 412.346 115.594 411.357C116.287 410.367 116.597 409.125 116.509 407.702C116.421 406.278 115.936 404.702 115.08 403.061C114.225 401.421 113.017 399.75 111.525 398.142C110.034 396.535 108.287 395.023 106.386 393.693C104.484 392.363 102.465 391.241 100.443 390.391C98.4213 389.541 96.4368 388.979 94.6027 388.739C92.7687 388.498 91.121 388.583 89.7538 388.988C88.3866 389.394 87.3266 390.112 86.6344 391.101C85.9422 392.091 85.6313 393.333 85.7194 394.756C85.8076 396.18 86.2931 397.756 87.1482 399.397C88.0034 401.037 89.2113 402.708 90.7032 404.316C92.1951 405.923 93.9417 407.435 95.8432 408.765V408.765Z" fill="#FF6242" stroke="#45413C" stroke-width="7" stroke-linecap="round" stroke-linejoin="round"/>
<path d="M143.585 434.046C147.426 436.732 151.664 438.514 155.368 439C159.072 439.485 161.939 438.636 163.336 436.637C164.734 434.638 164.55 431.654 162.823 428.342C161.096 425.029 157.968 421.659 154.128 418.973C150.287 416.287 146.049 414.505 142.345 414.019C138.641 413.533 135.775 414.383 134.377 416.382C132.979 418.38 133.163 421.364 134.89 424.677C136.617 427.99 139.745 431.36 143.585 434.046Z" fill="#FFE500" stroke="#45413C" stroke-width="7" stroke-linecap="round" stroke-linejoin="round"/>
<path d="M411.56 370.261L389.859 364.888L404.843 293.174L431.607 299.787L411.56 370.261Z" fill="#DAEDF7" stroke="#45413C" stroke-width="7" stroke-linecap="round" stroke-linejoin="round"/>
<path d="M389.836 364.833L411.611 370.186L391.262 452.972L369.486 447.619L389.836 364.833Z" fill="#BF8256" stroke="#45413C" stroke-width="7" stroke-linecap="round" stroke-linejoin="round"/>
<path d="M404.843 293.175C398.126 280.361 406.703 264.655 416.52 256.595C422.773 251.805 427.335 245.143 429.54 237.581C435.665 241.842 440.414 247.797 443.204 254.717C445.994 261.637 446.704 269.22 445.247 276.538C444.652 281.108 443.159 285.515 440.854 289.506C438.548 293.496 435.476 296.991 431.813 299.788L404.843 293.175Z" fill="#FFF5E3" stroke="#45413C" stroke-width="7" stroke-linecap="round" stroke-linejoin="round"/>
<path d="M408.355 265.585C413.654 268.624 419.361 270.886 425.302 272.301C432.052 273.996 439.031 274.59 445.969 274.058C446.83 267.078 445.775 259.995 442.917 253.57C440.059 247.144 435.506 241.617 429.746 237.581C427.541 245.143 422.979 251.805 416.726 256.595C413.494 259.147 410.671 262.179 408.355 265.585Z" fill="black" stroke="#45413C" stroke-width="7" stroke-linecap="round" stroke-linejoin="round"/>
<path d="M372.083 369.547C376.181 370.554 379.712 373.149 381.897 376.759C384.083 380.369 384.745 384.7 383.738 388.799L367.137 456.332C360.91 454.801 355.545 450.86 352.224 445.373C348.903 439.887 347.897 433.307 349.428 427.079L362.18 375.2C362.697 373.097 364.028 371.286 365.88 370.165C367.732 369.044 369.954 368.704 372.056 369.221L372.083 369.547Z" fill="#FFCEBF"/>
<path d="M372.087 369.538C371.015 369.196 369.883 369.082 368.764 369.203C367.646 369.325 366.565 369.68 365.592 370.244C364.618 370.809 363.774 371.571 363.113 372.481C362.452 373.392 361.989 374.431 361.753 375.531L357 394.752C357.249 393.659 357.721 392.63 358.386 391.727C359.05 390.825 359.894 390.069 360.863 389.507C361.832 388.945 362.907 388.588 364.02 388.459C365.134 388.33 366.261 388.432 367.333 388.758C369.38 389.242 371.309 390.128 373.008 391.366C374.707 392.604 376.142 394.169 377.23 395.968C378.317 397.767 379.035 399.765 379.34 401.845C379.646 403.925 379.534 406.046 379.01 408.082L383.764 388.862C384.273 386.826 384.374 384.709 384.062 382.634C383.75 380.559 383.031 378.566 381.946 376.77C380.86 374.974 379.431 373.411 377.739 372.17C376.047 370.928 374.126 370.034 372.087 369.538Z" fill="#FFDCD1"/>
<path d="M372.083 369.547C376.181 370.554 379.712 373.149 381.897 376.759C384.083 380.369 384.745 384.7 383.738 388.799L367.137 456.332C360.91 454.801 355.545 450.86 352.224 445.373C348.903 439.887 347.897 433.307 349.428 427.079L362.18 375.2C362.697 373.097 364.028 371.286 365.88 370.165C367.732 369.044 369.954 368.704 372.056 369.221L372.083 369.547Z" stroke="#45413C" stroke-width="7" stroke-linecap="round" stroke-linejoin="round"/>
<path d="M410.113 393.512L390.48 388.552C387.458 387.791 384.258 388.248 381.57 389.824C378.882 391.399 376.92 393.967 376.107 396.975C375.294 399.983 375.695 403.19 377.224 405.905C378.752 408.621 381.286 410.627 384.279 411.492C381.317 411.083 378.308 411.806 375.855 413.518C373.402 415.229 371.685 417.803 371.046 420.724C370.407 423.646 370.893 426.702 372.407 429.281C373.922 431.86 376.353 433.773 379.216 434.639C377.696 434.266 376.118 434.195 374.571 434.432C373.024 434.669 371.539 435.208 370.2 436.019C368.861 436.83 367.696 437.897 366.769 439.158C365.843 440.419 365.174 441.851 364.801 443.371C364.428 444.89 364.357 446.469 364.594 448.016C364.831 449.563 365.37 451.048 366.181 452.386C366.992 453.725 368.059 454.891 369.32 455.817C370.581 456.744 372.013 457.412 373.533 457.786L393.476 462.642C399.3 464.078 405.455 463.143 410.59 460.043C415.725 456.943 419.418 451.931 420.86 446.109L427.06 420.895C428.496 415.072 427.561 408.916 424.461 403.782C421.36 398.647 416.349 394.953 410.526 393.512H410.113Z" fill="#FFCEBF"/>
<path d="M410.113 393.512L390.48 388.552C388.96 388.183 387.382 388.117 385.836 388.359C384.291 388.601 382.808 389.145 381.474 389.961C380.14 390.777 378.979 391.849 378.06 393.114C377.14 394.379 376.48 395.814 376.116 397.335C375.545 399.327 375.545 401.44 376.116 403.432C377.536 401.935 379.321 400.833 381.296 400.235C383.271 399.637 385.368 399.564 387.38 400.022L407.426 404.982C410.305 405.684 413.017 406.947 415.407 408.699C417.797 410.451 419.818 412.657 421.354 415.192C422.89 417.726 423.91 420.538 424.358 423.467C424.805 426.396 424.67 429.385 423.96 432.262L426.75 420.895C427.459 418.005 427.591 415.003 427.139 412.061C426.686 409.119 425.658 406.296 424.112 403.752C422.567 401.209 420.535 398.995 418.133 397.238C415.731 395.48 413.005 394.214 410.113 393.512V393.512Z" fill="#FFDCD1"/>
<path d="M410.113 393.512L390.48 388.552C387.458 387.791 384.258 388.248 381.57 389.824C378.882 391.399 376.92 393.967 376.107 396.975C375.294 399.983 375.695 403.19 377.224 405.905C378.752 408.621 381.286 410.627 384.279 411.492C381.317 411.083 378.308 411.806 375.855 413.518C373.402 415.229 371.685 417.803 371.046 420.724C370.407 423.646 370.893 426.702 372.407 429.281C373.922 431.86 376.353 433.773 379.216 434.639C377.696 434.266 376.118 434.195 374.571 434.432C373.024 434.669 371.539 435.208 370.2 436.019C368.861 436.83 367.696 437.897 366.769 439.158C365.843 440.419 365.174 441.851 364.801 443.371C364.428 444.89 364.357 446.469 364.594 448.016C364.831 449.563 365.37 451.048 366.181 452.386C366.992 453.725 368.059 454.891 369.32 455.817C370.581 456.744 372.013 457.412 373.533 457.786L393.476 462.642C399.3 464.078 405.455 463.143 410.59 460.043C415.725 456.943 419.418 451.931 420.86 446.109L427.06 420.895C428.496 415.072 427.561 408.916 424.461 403.782C421.36 398.647 416.349 394.953 410.526 393.512H410.113Z" stroke="#45413C" stroke-width="7" stroke-linecap="round" stroke-linejoin="round"/>
</svg>
