<svg width="495" height="495" viewBox="0 0 495 495" fill="none" xmlns="http://www.w3.org/2000/svg">
<path d="M40.4005 127.128C40.4005 127.128 32.6662 167.037 30.088 202.306C28.2936 223.719 28.2936 245.244 30.088 266.656H83.713V127.128H40.4005Z" fill="#00B8F0"/>
<path d="M29.0547 247.165C29.0547 259.127 30.1891 266.655 30.1891 266.655H83.8141V161.468L29.0547 247.165Z" fill="#4ACFFF"/>
<path d="M40.4005 127.128C40.4005 127.128 32.6662 167.037 30.088 202.306C28.2936 223.719 28.2936 245.244 30.088 266.656H83.713V127.128H40.4005Z" stroke="#45413C" stroke-width="7" stroke-linecap="round" stroke-linejoin="round"/>
<path d="M461.356 336.368H24.3125V266.655C24.3125 263.92 25.399 261.297 27.333 259.363C29.2669 257.429 31.89 256.343 34.625 256.343H41.3281C43.8935 256.356 46.3716 255.412 48.2785 253.696C50.1854 251.979 51.3841 249.614 51.6406 247.062L65.6656 143.937C65.7681 143.183 65.709 142.416 65.4923 141.687C65.2756 140.958 64.9063 140.283 64.4089 139.708C63.9115 139.132 63.2973 138.669 62.6072 138.349C61.9171 138.029 61.1669 137.86 60.4062 137.852H35.7594C34.9999 137.857 34.2481 137.701 33.5536 137.394C32.8591 137.086 32.2378 136.635 31.7308 136.07C31.2238 135.504 30.8427 134.837 30.6128 134.114C30.3828 133.39 30.3092 132.625 30.3969 131.871L32.6656 113.824C33.2968 108.611 35.8185 103.81 39.753 100.332C43.6874 96.8535 48.7611 94.9394 54.0125 94.9522H429.181C437.715 94.9522 445.898 98.3421 451.932 104.376C457.966 110.41 461.356 118.594 461.356 127.127V336.368Z" fill="#FFE500"/>
<path d="M429.182 94.9522H54.0134C48.7619 94.9394 43.6882 96.8535 39.7538 100.332C35.8194 103.81 33.2977 108.611 32.6665 113.824L30.3977 131.871C30.2802 132.978 30.5036 134.095 31.038 135.072C31.5725 136.048 32.3925 136.839 33.3884 137.337C34.6663 132.852 37.3709 128.906 41.0925 126.096C44.8142 123.286 49.3501 121.766 54.0134 121.765H429.182C437.715 121.765 445.899 125.155 451.933 131.189C457.967 137.223 461.357 145.406 461.357 153.94V127.127C461.357 118.594 457.967 110.41 451.933 104.376C445.899 98.3421 437.715 94.9522 429.182 94.9522Z" fill="#FFF48C"/>
<path d="M461.356 336.368H24.3125V266.655C24.3125 263.92 25.399 261.297 27.333 259.363C29.2669 257.429 31.89 256.343 34.625 256.343H41.3281C43.8935 256.356 46.3716 255.412 48.2785 253.696C50.1854 251.979 51.3841 249.614 51.6406 247.062L65.6656 143.937C65.7681 143.183 65.709 142.416 65.4923 141.687C65.2756 140.958 64.9063 140.283 64.4089 139.708C63.9115 139.132 63.2973 138.669 62.6072 138.349C61.9171 138.029 61.1669 137.86 60.4062 137.852H35.7594C34.9999 137.857 34.2481 137.701 33.5536 137.394C32.8591 137.086 32.2378 136.635 31.7308 136.07C31.2238 135.504 30.8427 134.837 30.6128 134.114C30.3828 133.39 30.3092 132.625 30.3969 131.871L32.6656 113.824C33.2968 108.611 35.8185 103.81 39.753 100.332C43.6874 96.8535 48.7611 94.9394 54.0125 94.9522H429.181C437.715 94.9522 445.898 98.3421 451.932 104.376C457.966 110.41 461.356 118.594 461.356 127.127V336.368Z" stroke="#45413C" stroke-width="7" stroke-linecap="round" stroke-linejoin="round"/>
<path d="M24.3133 336.368H461.357C462.779 336.368 464.143 336.933 465.149 337.939C466.155 338.944 466.72 340.308 466.72 341.731V368.543C466.72 371.278 465.633 373.901 463.699 375.835C461.765 377.769 459.142 378.856 456.407 378.856H29.6758C26.9408 378.856 24.3177 377.769 22.3838 375.835C20.4498 373.901 19.3633 371.278 19.3633 368.543V341.731C19.3593 340.377 19.8673 339.072 20.7854 338.077C21.7035 337.083 22.9638 336.472 24.3133 336.368Z" fill="#656769"/>
<path d="M461.355 336.368H24.3109C23.5896 336.34 22.87 336.459 22.1954 336.716C21.5208 336.973 20.905 337.363 20.385 337.864C19.865 338.365 19.4515 338.965 19.1692 339.63C18.8869 340.294 18.7417 341.009 18.7422 341.731V347.093C18.7422 349.828 19.8287 352.451 21.7626 354.385C23.6966 356.319 26.3196 357.406 29.0547 357.406H455.992C458.727 357.406 461.35 356.319 463.284 354.385C465.218 352.451 466.305 349.828 466.305 347.093V341.731C466.309 340.377 465.801 339.072 464.883 338.078C463.965 337.083 462.704 336.472 461.355 336.368Z" fill="#87898C"/>
<path d="M24.3133 336.368H461.357C462.779 336.368 464.143 336.933 465.149 337.939C466.155 338.944 466.72 340.308 466.72 341.731V368.543C466.72 371.278 465.633 373.901 463.699 375.835C461.765 377.769 459.142 378.856 456.407 378.856H29.6758C26.9408 378.856 24.3177 377.769 22.3838 375.835C20.4498 373.901 19.3633 371.278 19.3633 368.543V341.731C19.3593 340.377 19.8673 339.072 20.7854 338.077C21.7035 337.083 22.9638 336.472 24.3133 336.368V336.368Z" stroke="#45413C" stroke-width="7" stroke-linecap="round" stroke-linejoin="round"/>
<path d="M380.919 94.9526H110.113L113.516 81.6494C114.02 79.3041 115.325 77.2074 117.207 75.7205C119.089 74.2335 121.431 73.4492 123.829 73.5026H367.204C369.602 73.4492 371.944 74.2335 373.826 75.7205C375.708 77.2074 377.013 79.3041 377.516 81.6494L380.919 94.9526Z" fill="#FFF48C" stroke="#45413C" stroke-width="7" stroke-linecap="round" stroke-linejoin="round"/>
<path d="M149.299 255.93H94.8488C94.0795 255.937 93.3177 255.779 92.6152 255.465C91.9126 255.152 91.2857 254.691 90.777 254.114C90.2683 253.536 89.8898 252.857 89.6671 252.12C89.4444 251.384 89.3827 250.608 89.4863 249.846L103.511 146.721C103.768 144.168 104.967 141.803 106.873 140.087C108.78 138.371 111.258 137.427 113.824 137.44H418.455C421.19 137.44 423.813 138.526 425.747 140.46C427.681 142.394 428.768 145.017 428.768 147.752V212.205C428.768 214.94 427.681 217.563 425.747 219.497C423.813 221.431 421.19 222.518 418.455 222.518H172.811C170.309 222.493 167.883 223.379 165.986 225.011C164.088 226.643 162.849 228.909 162.499 231.386L160.127 245.721C159.969 248.484 158.759 251.082 156.745 252.981C154.731 254.879 152.067 255.935 149.299 255.93Z" fill="#00B8F0"/>
<path d="M201.789 223.962L254.795 138.162L396.386 137.853L343.277 223.756L201.789 223.962Z" fill="#4ACFFF"/>
<path d="M149.299 255.93H94.8488C94.0795 255.937 93.3177 255.779 92.6152 255.465C91.9126 255.152 91.2857 254.691 90.777 254.114C90.2683 253.536 89.8898 252.857 89.6671 252.12C89.4444 251.384 89.3827 250.608 89.4863 249.846L103.511 146.721C103.768 144.168 104.967 141.803 106.873 140.087C108.78 138.371 111.258 137.427 113.824 137.44H418.455C421.19 137.44 423.813 138.526 425.747 140.46C427.681 142.394 428.768 145.017 428.768 147.752V212.205C428.768 214.94 427.681 217.563 425.747 219.497C423.813 221.431 421.19 222.518 418.455 222.518H172.811C170.309 222.493 167.883 223.379 165.986 225.011C164.088 226.643 162.849 228.909 162.499 231.386L160.127 245.721C159.969 248.484 158.759 251.082 156.745 252.981C154.731 254.879 152.067 255.935 149.299 255.93V255.93Z" stroke="#45413C" stroke-width="7" stroke-linecap="round" stroke-linejoin="round"/>
<path d="M24.3125 288.105H461.356V336.368H24.3125V288.105Z" fill="#FF8A14" stroke="#45413C" stroke-width="7" stroke-linecap="round" stroke-linejoin="round"/>
<path d="M24.3125 282.949H34.625V314.918H24.3125C21.5775 314.918 18.9544 313.831 17.0205 311.897C15.0865 309.964 14 307.341 14 304.605V293.262C14 290.527 15.0865 287.904 17.0205 285.97C18.9544 284.036 21.5775 282.949 24.3125 282.949Z" fill="#FF6242" stroke="#45413C" stroke-width="7" stroke-linecap="round" stroke-linejoin="round"/>
<path d="M461.355 277.381H471.668C474.403 277.381 477.026 278.467 478.96 280.401C480.894 282.335 481.98 284.958 481.98 287.693V303.781C481.98 306.516 480.894 309.139 478.96 311.073C477.026 313.007 474.403 314.093 471.668 314.093H461.355V277.381Z" fill="#FF6242" stroke="#45413C" stroke-width="7" stroke-linecap="round" stroke-linejoin="round"/>
<path d="M56.4883 379.268C56.4883 390.646 61.0081 401.558 69.0534 409.603C77.0987 417.648 88.0105 422.168 99.3883 422.168C110.766 422.168 121.678 417.648 129.723 409.603C137.768 401.558 142.288 390.646 142.288 379.268C142.288 367.89 137.768 356.979 129.723 348.933C121.678 340.888 110.766 336.368 99.3883 336.368C88.0105 336.368 77.0987 340.888 69.0534 348.933C61.0081 356.979 56.4883 367.89 56.4883 379.268Z" fill="#525252"/>
<path d="M343.383 379.268C343.383 390.646 347.903 401.558 355.948 409.603C363.993 417.648 374.905 422.168 386.283 422.168C397.661 422.168 408.572 417.648 416.618 409.603C424.663 401.558 429.183 390.646 429.183 379.268C429.183 367.89 424.663 356.979 416.618 348.933C408.572 340.888 397.661 336.368 386.283 336.368C374.905 336.368 363.993 340.888 355.948 348.933C347.903 356.979 343.383 367.89 343.383 379.268Z" fill="#525252"/>
<path d="M99.3875 357.818C108.849 357.881 118.024 361.071 125.484 366.89C132.945 372.709 138.272 380.832 140.637 389.993C141.511 386.622 141.996 383.162 142.081 379.68C142.081 368.302 137.561 357.391 129.516 349.345C121.471 341.3 110.559 336.78 99.1812 336.78C87.8035 336.78 76.8917 341.3 68.8464 349.345C60.8011 357.391 56.2813 368.302 56.2812 379.68C56.3586 383.169 56.8783 386.635 57.8281 389.993C60.1906 380.772 65.56 372.601 73.0868 366.774C80.6137 360.947 89.8685 357.795 99.3875 357.818Z" fill="#656769"/>
<path d="M386.28 357.818C395.746 357.864 404.93 361.047 412.394 366.869C419.858 372.691 425.181 380.823 427.53 389.993C428.48 386.635 429 383.169 429.077 379.68C429.077 368.302 424.558 357.391 416.512 349.345C408.467 341.3 397.555 336.78 386.177 336.78C374.8 336.78 363.888 341.3 355.842 349.345C347.797 357.391 343.277 368.302 343.277 379.68C343.363 383.162 343.847 386.622 344.721 389.993C347.1 380.78 352.473 372.62 359.997 366.796C367.52 360.971 376.766 357.813 386.28 357.818Z" fill="#656769"/>
<path d="M56.4883 379.268C56.4883 390.646 61.0081 401.558 69.0534 409.603C77.0987 417.648 88.0105 422.168 99.3883 422.168C110.766 422.168 121.678 417.648 129.723 409.603C137.768 401.558 142.288 390.646 142.288 379.268C142.288 367.89 137.768 356.979 129.723 348.933C121.678 340.888 110.766 336.368 99.3883 336.368C88.0105 336.368 77.0987 340.888 69.0534 348.933C61.0081 356.979 56.4883 367.89 56.4883 379.268V379.268Z" stroke="#45413C" stroke-width="7" stroke-linecap="round" stroke-linejoin="round"/>
<path d="M343.383 379.268C343.383 390.646 347.903 401.558 355.948 409.603C363.993 417.648 374.905 422.168 386.283 422.168C397.661 422.168 408.572 417.648 416.618 409.603C424.663 401.558 429.183 390.646 429.183 379.268C429.183 367.89 424.663 356.979 416.618 348.933C408.572 340.888 397.661 336.368 386.283 336.368C374.905 336.368 363.993 340.888 355.948 348.933C347.903 356.979 343.383 367.89 343.383 379.268V379.268Z" stroke="#45413C" stroke-width="7" stroke-linecap="round" stroke-linejoin="round"/>
<path d="M169.098 220.99V137.853" stroke="#45413C" stroke-width="7" stroke-linecap="round" stroke-linejoin="round"/>
<path d="M300.172 137.853V220.99" stroke="#45413C" stroke-width="7" stroke-linecap="round" stroke-linejoin="round"/>
<path d="M234.945 137.853V220.989" stroke="#45413C" stroke-width="7" stroke-linecap="round" stroke-linejoin="round"/>
<path d="M365.652 137.853V220.99" stroke="#45413C" stroke-width="7" stroke-linecap="round" stroke-linejoin="round"/>
<path d="M72.5742 116.402H94.0242" stroke="#45413C" stroke-width="7" stroke-linecap="round" stroke-linejoin="round"/>
<path d="M397.008 116.402H418.458" stroke="#45413C" stroke-width="7" stroke-linecap="round" stroke-linejoin="round"/>
</svg>
