<svg width="495" height="495" viewBox="0 0 495 495" fill="none" xmlns="http://www.w3.org/2000/svg">
<path d="M377.539 133.697C375.131 132.426 372.495 131.645 369.783 131.398C367.071 131.151 364.337 131.443 361.739 132.258C359.141 133.073 356.73 134.394 354.645 136.146C352.56 137.897 350.843 140.044 349.592 142.463C344.471 152.673 337.108 161.594 328.054 168.558C319.001 175.522 308.49 180.351 297.308 182.681C287.124 184.742 276.76 185.778 266.37 185.775H199.339C184.656 185.767 170.152 189.008 156.87 195.266C143.587 201.525 131.853 210.644 122.511 221.972L111.27 235.275C107.839 239.485 106.207 244.879 106.728 250.285C107.249 255.691 109.882 260.673 114.055 264.15C118.271 267.614 123.687 269.265 129.119 268.743C134.55 268.221 139.553 265.569 143.033 261.366L154.686 247.856C160.17 241.183 167.066 235.807 174.875 232.116C182.685 228.425 191.216 226.51 199.854 226.51V302.1H291.636V225.581L305.558 222.694C322.842 219.114 339.1 211.695 353.13 200.984C367.16 190.274 378.604 176.548 386.614 160.819C388.901 156.002 389.233 150.486 387.541 145.43C385.849 140.373 382.264 136.168 377.539 133.697Z" fill="#FFCEBF" stroke="#45413C" stroke-width="6" stroke-linecap="round" stroke-linejoin="round"/>
<path d="M340.312 156.487C329.381 169.864 314.209 179.105 297.309 182.681C287.125 184.741 276.761 185.778 266.371 185.775H199.34C185.327 185.794 171.475 188.761 158.683 194.482C145.892 200.202 134.446 208.55 125.09 218.981L154.687 246.928C160.176 240.495 166.988 235.323 174.659 231.763C182.329 228.204 190.677 226.341 199.134 226.303V301.894H290.915V225.581L304.837 222.694C331.261 217.227 355.022 202.891 372.177 182.062L340.312 156.487Z" fill="#00B8F0" stroke="#45413C" stroke-width="6" stroke-linecap="round" stroke-linejoin="round"/>
<path d="M291.534 183.403C283.216 184.764 274.801 185.454 266.372 185.466H202.847L197.484 204.75L227.803 218.466L217.491 246.825L247.5 276.525L277.716 246.825L268.125 218.466L297.516 204.75L291.534 183.403Z" fill="white" stroke="#45413C" stroke-width="6" stroke-linecap="round" stroke-linejoin="round"/>
<path d="M333.813 419.25C336.669 419.258 339.512 419.639 342.27 420.384C340.911 375.797 322.448 333.442 290.707 302.1H198.926C198.96 319.045 195.286 335.793 188.16 351.168C181.034 366.542 170.629 380.171 157.676 391.096L181.601 419.868C183.441 422.202 184.967 424.768 186.138 427.5C215.874 404.234 236.731 371.474 245.229 334.687C279.879 334.687 296.791 380.784 296.791 419.353L333.813 419.25Z" fill="#00B8F0" stroke="#45413C" stroke-width="6" stroke-linecap="round" stroke-linejoin="round"/>
<path d="M296.793 419.25H333.712C337.864 419.237 341.979 420.043 345.819 421.623C349.66 423.202 353.151 425.525 356.092 428.456C359.033 431.388 361.367 434.871 362.959 438.707C364.551 442.542 365.371 446.654 365.371 450.806H307.105C304.37 450.806 301.747 449.72 299.813 447.786C297.879 445.852 296.793 443.229 296.793 440.494V419.25Z" fill="#656769" stroke="#45413C" stroke-width="6" stroke-linecap="round" stroke-linejoin="round"/>
<path d="M158.137 391.117L181.53 419.678C186.833 426.153 189.347 434.469 188.519 442.797C187.691 451.125 183.588 458.783 177.113 464.086L140.259 419.091C138.526 416.975 137.704 414.257 137.975 411.536C138.246 408.814 139.586 406.311 141.702 404.578L158.137 391.117Z" fill="#656769" stroke="#45413C" stroke-width="6" stroke-linecap="round" stroke-linejoin="round"/>
<path d="M247.5 276.525L271.631 185.362H224.297L247.5 276.525Z" fill="#FFCEBF" stroke="#45413C" stroke-width="6" stroke-linecap="round" stroke-linejoin="round"/>
<path d="M247.5 276.525V302.1" stroke="#45413C" stroke-width="6" stroke-linecap="round" stroke-linejoin="round"/>
<path d="M304.73 109.462C304.73 116.559 303.333 123.585 300.617 130.142C297.901 136.698 293.921 142.655 288.903 147.673C283.885 152.69 277.928 156.671 271.372 159.386C264.816 162.102 257.789 163.5 250.693 163.5C243.597 163.5 236.57 162.102 230.014 159.386C223.458 156.671 217.501 152.69 212.483 147.673C207.465 142.655 203.484 136.698 200.769 130.142C198.053 123.585 196.655 116.559 196.655 109.462C196.655 102.366 198.053 95.3392 200.769 88.7831C203.484 82.2269 207.465 76.2699 212.483 71.252C217.501 66.2342 223.458 62.2538 230.014 59.5382C236.57 56.8225 243.597 55.4248 250.693 55.4248C257.789 55.4248 264.816 56.8225 271.372 59.5382C277.928 62.2538 283.885 66.2342 288.903 71.252C293.921 76.2699 297.901 82.2269 300.617 88.7831C303.333 95.3392 304.73 102.366 304.73 109.462Z" fill="#FFCEBF" stroke="#45413C" stroke-width="6" stroke-linecap="round" stroke-linejoin="round"/>
<path d="M284.517 151.744L283.073 151.022C277.838 148.53 273.251 144.858 269.672 140.296C266.094 135.733 263.621 130.404 262.448 124.725C265.65 124.739 268.814 124.033 271.706 122.658C274.598 121.284 277.143 119.276 279.154 116.785C284.104 108.844 280.495 92.1377 270.492 90.2814C260.488 88.4252 254.714 101.213 254.714 101.213C254.714 101.213 235.429 87.8064 196.757 89.8689C167.676 91.8283 167.16 46.9689 183.145 31.8096C189.126 40.8846 202.842 46.2471 240.07 40.6783C280.598 34.6971 301.945 52.8471 311.535 77.4939C323.292 109.875 308.648 143.597 284.517 151.744Z" fill="#FFC44D"/>
<path d="M311.535 101.934C302.357 77.2875 280.598 59.1375 240.07 65.1187C215.526 68.8312 201.192 67.8 192.632 63.9844C190.853 63.1687 188.918 62.7464 186.96 62.7464C185.003 62.7464 183.068 63.1687 181.288 63.9844C179.552 64.8622 178.021 66.0968 176.795 67.6073C175.568 69.1179 174.675 70.8703 174.173 72.75C172.132 65.6694 171.883 58.1924 173.449 50.9919C175.015 43.7913 178.347 37.0931 183.145 31.5C189.126 40.575 202.842 45.9375 240.07 40.3687C280.598 34.3875 301.945 52.5375 311.535 77.1844C315.872 88.665 316.943 101.123 314.629 113.175C313.876 109.357 312.842 105.6 311.535 101.934Z" fill="#FFDB94"/>
<path d="M284.517 151.744L283.073 151.022C277.838 148.53 273.251 144.858 269.672 140.296C266.094 135.733 263.621 130.404 262.448 124.725V124.725C265.65 124.739 268.814 124.033 271.706 122.658C274.598 121.284 277.143 119.276 279.154 116.785C284.104 108.844 280.495 92.1377 270.492 90.2814C260.488 88.4252 254.714 101.213 254.714 101.213C254.714 101.213 235.429 87.8064 196.757 89.8689C167.676 91.8283 167.16 46.9689 183.145 31.8096C189.126 40.8846 202.842 46.2471 240.07 40.6783C280.598 34.6971 301.945 52.8471 311.535 77.4939C323.292 109.875 308.648 143.597 284.517 151.744Z" stroke="#45413C" stroke-width="6" stroke-linecap="round" stroke-linejoin="round"/>
</svg>
