<svg width="496" height="496" viewBox="0 0 496 496" fill="none" xmlns="http://www.w3.org/2000/svg">
<path d="M10.5547 258.251L81.7514 125.571C89.187 111.801 101.327 101.165 115.955 95.6045L142.821 85.2712C144.549 84.6056 146.423 84.4162 148.248 84.7228C150.074 85.0294 151.783 85.8206 153.198 87.0139C154.614 88.2072 155.682 89.7587 156.292 91.5062C156.903 93.2537 157.032 95.1331 156.668 96.9479C154.737 106.589 149.793 115.367 142.55 122.016C135.307 128.665 126.139 132.841 116.368 133.941C112.432 134.359 108.665 135.761 105.414 138.018C102.164 140.276 99.5339 143.316 97.768 146.858L31.2214 279.745L10.5547 258.251Z" fill="#87898C"/>
<path d="M485.921 258.251L414.724 125.571C407.289 111.801 395.149 101.165 380.521 95.6045L353.654 85.2712C351.927 84.6056 350.053 84.4162 348.227 84.7228C346.402 85.0294 344.692 85.8206 343.277 87.0139C341.862 88.2072 340.794 89.7587 340.183 91.5062C339.573 93.2537 339.443 95.1331 339.808 96.9479C341.739 106.589 346.682 115.367 353.926 122.016C361.169 128.665 370.337 132.841 380.108 133.941C384.043 134.359 387.811 135.761 391.061 138.018C394.312 140.276 396.942 143.316 398.708 146.858L465.254 279.745L485.921 258.251Z" fill="#87898C"/>
<path d="M81.7514 147.278C89.0214 133.143 101.175 122.127 115.955 116.278L142.821 105.944C144.517 105.247 146.368 105.013 148.184 105.268C150 105.522 151.716 106.255 153.155 107.391C154.903 103.887 156.188 100.17 156.978 96.3344C157.243 94.5288 157.025 92.6852 156.347 90.9911C155.668 89.297 154.553 87.8128 153.115 86.6895C151.677 85.5662 149.966 84.8438 148.158 84.5958C146.35 84.3479 144.509 84.5831 142.821 85.2777L115.955 95.6111C101.346 101.204 89.2161 111.831 81.7514 125.578L10.5547 258.258L17.8914 265.904L81.7514 147.278Z" fill="#BDBEC0"/>
<path d="M343.631 107.798C345.07 106.662 346.786 105.929 348.602 105.675C350.418 105.42 352.269 105.654 353.964 106.351L380.831 116.685C395.426 122.494 407.452 133.347 414.724 147.271L478.584 266.311L485.921 258.665L414.724 125.571C407.26 111.825 395.13 101.197 380.521 95.6045L353.654 85.2712C351.927 84.6056 350.053 84.4162 348.227 84.7228C346.402 85.0294 344.692 85.8206 343.277 87.0139C341.862 88.2072 340.794 89.7587 340.183 91.5062C339.573 93.2537 339.443 95.1331 339.808 96.9479C340.614 100.713 341.899 104.359 343.631 107.798Z" fill="#BDBEC0"/>
<path d="M10.5547 258.251L81.7514 125.571C89.187 111.801 101.327 101.165 115.955 95.6045L142.821 85.2712C144.549 84.6056 146.423 84.4162 148.248 84.7228C150.074 85.0294 151.783 85.8206 153.198 87.0139C154.614 88.2072 155.682 89.7587 156.292 91.5062C156.903 93.2537 157.032 95.1331 156.668 96.9479C154.737 106.589 149.793 115.367 142.55 122.016C135.307 128.665 126.139 132.841 116.368 133.941V133.941C112.432 134.359 108.665 135.761 105.414 138.018C102.164 140.276 99.5339 143.316 97.768 146.858L31.2214 279.745L10.5547 258.251Z" stroke="#45413C" stroke-width="8" stroke-linecap="round" stroke-linejoin="round"/>
<path d="M485.921 258.251L414.724 125.571C407.289 111.801 395.149 101.165 380.521 95.6045L353.654 85.2712C351.927 84.6056 350.053 84.4162 348.227 84.7228C346.402 85.0294 344.692 85.8206 343.277 87.0139C341.862 88.2072 340.794 89.7587 340.183 91.5062C339.573 93.2537 339.443 95.1331 339.808 96.9479V96.9479C341.739 106.589 346.682 115.367 353.926 122.016C361.169 128.665 370.337 132.841 380.108 133.941V133.941C384.043 134.359 387.811 135.761 391.061 138.018C394.312 140.276 396.942 143.316 398.708 146.858L465.254 279.745L485.921 258.251Z" stroke="#45413C" stroke-width="8" stroke-linecap="round" stroke-linejoin="round"/>
<path d="M41.5521 279.743C41.5521 279.743 31.2188 280.466 31.2188 264.243C31.2188 248.02 42.7921 233.243 134.552 233.243C226.312 233.243 232.719 254.633 232.719 269.41C232.719 284.187 222.385 279.743 222.385 279.743H41.5521Z" fill="#87898C"/>
<path d="M454.885 279.743C454.885 279.743 465.219 280.466 465.219 264.243C465.219 248.02 453.645 233.243 361.885 233.243C270.125 233.243 263.719 254.633 263.719 269.41C263.719 284.187 274.052 279.743 274.052 279.743H454.885Z" fill="#87898C"/>
<path d="M134.565 250.613C206.898 250.613 226.325 264.046 231.078 276.963C232.342 274.51 232.913 271.76 232.732 269.007C232.732 254.23 226.325 232.84 134.565 232.84C42.805 232.84 31.2316 247.72 31.2316 263.84C31.1275 266.978 31.6546 270.106 32.7816 273.037C38.155 260.947 59.545 250.613 134.565 250.613Z" fill="#BDBEC0"/>
<path d="M361.918 250.613C436.938 250.613 458.328 260.947 463.702 273.037C464.829 270.106 465.356 266.978 465.252 263.84C465.252 247.72 453.678 232.84 361.918 232.84C270.158 232.84 263.752 254.23 263.752 269.007C263.57 271.76 264.142 274.51 265.405 276.963C270.158 264.46 289.585 250.613 361.918 250.613Z" fill="#BDBEC0"/>
<path d="M41.5521 279.743C41.5521 279.743 31.2188 280.467 31.2188 264.243C31.2188 248.02 42.7921 233.243 134.552 233.243C226.312 233.243 232.719 254.633 232.719 269.41C232.719 284.186 222.385 279.743 222.385 279.743H41.5521Z" stroke="#45413C" stroke-width="8" stroke-linecap="round" stroke-linejoin="round"/>
<path d="M454.885 279.743C454.885 279.743 465.219 280.467 465.219 264.243C465.219 248.02 453.645 233.243 361.885 233.243C270.125 233.243 263.719 254.633 263.719 269.41C263.719 284.186 274.052 279.743 274.052 279.743H454.885Z" stroke="#45413C" stroke-width="8" stroke-linecap="round" stroke-linejoin="round"/>
<path d="M41.5702 279.747C70.1895 272.048 99.779 268.567 129.404 269.413C160.715 268.93 191.962 272.402 222.404 279.747C222.404 279.747 225.814 381.427 196.57 398.58C167.327 415.733 88.0702 419.247 62.2369 388.247C36.4035 357.247 41.5702 279.747 41.5702 279.747Z" fill="#00B8F0"/>
<path d="M195.744 274.373C173.789 271.032 151.611 269.373 129.404 269.413C99.779 268.567 70.1895 272.048 41.5702 279.747C41.5702 279.747 36.4035 357.247 62.2369 388.247C72.5702 401.267 93.2369 408.19 115.247 410.567L195.744 274.373Z" fill="#4ACFFF"/>
<path d="M41.5702 279.747C70.1895 272.048 99.779 268.567 129.404 269.413C160.715 268.93 191.962 272.402 222.404 279.747C222.404 279.747 225.814 381.427 196.57 398.58C167.327 415.733 88.0702 419.247 62.2369 388.247C36.4035 357.247 41.5702 279.747 41.5702 279.747Z" stroke="#45413C" stroke-width="8" stroke-linecap="round" stroke-linejoin="round"/>
<path d="M454.846 279.747C426.227 272.048 396.637 268.567 367.013 269.413C335.701 268.93 304.454 272.402 274.013 279.747C274.013 279.747 270.603 381.427 299.846 398.58C329.089 415.733 408.346 419.247 434.179 388.247C460.013 357.247 454.846 279.747 454.846 279.747Z" fill="#00B8F0"/>
<path d="M421.366 272.927C403.346 270.554 385.188 269.38 367.013 269.414C335.701 268.93 304.454 272.402 274.013 279.747C274.013 279.747 270.603 381.427 299.846 398.58C312.393 405.055 326.081 409.021 340.146 410.257L421.366 272.927Z" fill="#4ACFFF"/>
<path d="M454.846 279.747C426.227 272.048 396.637 268.567 367.013 269.413C335.701 268.93 304.454 272.402 274.013 279.747C274.013 279.747 270.603 381.427 299.846 398.58C329.089 415.733 408.346 419.247 434.179 388.247C460.013 357.247 454.846 279.747 454.846 279.747Z" stroke="#45413C" stroke-width="8" stroke-linecap="round" stroke-linejoin="round"/>
</svg>
