<svg width="495" height="495" viewBox="0 0 495 495" fill="none" xmlns="http://www.w3.org/2000/svg">
<path d="M284.757 388.988C283.575 388.235 282.624 387.171 282.007 385.913C281.389 384.655 281.131 383.251 281.258 381.856C281.386 380.461 281.896 379.127 282.731 378.002C283.567 376.877 284.696 376.004 285.994 375.478C320.655 360.781 358.484 355.138 395.926 359.082C458.419 368.053 501.835 400.332 485.335 427.763C471.001 451.172 429.854 431.682 429.854 431.682C429.854 431.682 444.085 459.113 420.779 470.766C397.473 482.419 363.957 438.385 363.957 438.385C363.957 438.385 358.801 464.785 338.588 459.01C311.673 451.688 320.541 428.072 311.879 412.603C304.476 403.027 295.26 395.003 284.757 388.988Z" fill="#E5FEFF"/>
<path d="M284.757 388.988C287.644 390.947 290.944 393.113 294.141 395.485C326.06 383.451 360.365 379.106 394.276 382.8C439.754 389.4 475.126 408.478 484.613 428.794C484.878 428.468 485.119 428.123 485.335 427.763C501.835 400.641 458.419 368.053 395.926 359.082C358.484 355.138 320.655 360.781 285.994 375.478C284.696 376.004 283.567 376.877 282.731 378.002C281.896 379.127 281.386 380.461 281.258 381.856C281.131 383.251 281.389 384.655 282.007 385.913C282.624 387.171 283.575 388.235 284.757 388.988Z" fill="white"/>
<path d="M284.757 388.988C283.575 388.235 282.624 387.171 282.007 385.913C281.389 384.655 281.131 383.251 281.258 381.856C281.386 380.461 281.896 379.127 282.731 378.002C283.567 376.877 284.696 376.004 285.994 375.478C320.655 360.781 358.484 355.138 395.926 359.082C458.419 368.053 501.835 400.332 485.335 427.763C471.001 451.172 429.854 431.682 429.854 431.682C429.854 431.682 444.085 459.113 420.779 470.766C397.473 482.419 363.957 438.385 363.957 438.385C363.957 438.385 358.801 464.785 338.588 459.01C311.673 451.688 320.541 428.072 311.879 412.603C304.476 403.027 295.26 395.003 284.757 388.988V388.988Z" stroke="#45413C" stroke-width="7" stroke-linecap="round" stroke-linejoin="round"/>
<path d="M429.856 431.681C422.836 418.19 413.071 406.317 401.188 396.825L429.856 431.681Z" fill="#FFAA54"/>
<path d="M429.856 431.681C422.836 418.19 413.071 406.317 401.188 396.825" stroke="#45413C" stroke-width="7" stroke-linecap="round" stroke-linejoin="round"/>
<path d="M363.961 438.385C365.477 425.109 361.78 411.761 353.648 401.157L363.961 438.385Z" fill="#FFAA54"/>
<path d="M363.961 438.385C365.477 425.109 361.78 411.761 353.648 401.157" stroke="#45413C" stroke-width="7" stroke-linecap="round" stroke-linejoin="round"/>
<path d="M114.398 170.466C115.278 171.322 116.398 171.892 117.609 172.099C118.819 172.307 120.064 172.143 121.18 171.63C122.296 171.117 123.231 170.278 123.861 169.223C124.491 168.169 124.787 166.948 124.71 165.722C126.145 135.751 119.934 105.906 106.663 78.9944C82.0163 34.7538 45.6131 11.2413 29.9381 31.1444C16.4288 48.2631 42.4163 73.6319 42.4163 73.6319C42.4163 73.6319 17.8725 70.6412 15.6038 91.2662C13.335 111.891 55.6163 124.782 55.6163 124.782C55.6163 124.782 37.26 135.919 46.8506 149.532C59.7413 167.785 75.4163 154.379 88.9256 156.751C98.2681 159.525 106.939 164.193 114.398 170.466Z" fill="#E5FEFF"/>
<path d="M104.085 107.972C114.08 127.397 119.977 148.668 121.41 170.466C122.238 169.977 122.928 169.284 123.415 168.454C123.902 167.625 124.17 166.684 124.194 165.722C125.629 135.751 119.418 105.906 106.147 78.9944C82.0159 34.7538 45.6127 11.2413 29.9377 31.1444C27.2954 35.0393 25.8828 39.6377 25.8828 44.3444C25.8828 49.051 27.2954 53.6494 29.9377 57.5444C47.2627 42.6944 81.5002 66.0006 104.085 107.972Z" fill="white"/>
<path d="M114.398 170.466C115.278 171.322 116.398 171.892 117.609 172.099C118.819 172.307 120.064 172.143 121.18 171.63C122.296 171.117 123.231 170.278 123.861 169.223C124.491 168.169 124.787 166.948 124.71 165.722C126.145 135.751 119.934 105.906 106.663 78.9944C82.0163 34.7538 45.6131 11.2413 29.9381 31.1444C16.4288 48.2631 42.4163 73.6319 42.4163 73.6319C42.4163 73.6319 17.8725 70.6412 15.6038 91.2662C13.335 111.891 55.6163 124.782 55.6163 124.782C55.6163 124.782 37.26 135.919 46.8506 149.532C59.7413 167.785 75.4163 154.379 88.9256 156.751C98.2681 159.525 106.939 164.193 114.398 170.466V170.466Z" stroke="#45413C" stroke-width="7" stroke-linecap="round" stroke-linejoin="round"/>
<path d="M42.4141 73.6318C54.4094 75.2375 65.9142 79.4243 76.1359 85.9037L42.4141 73.6318Z" fill="#FFAA54"/>
<path d="M42.4141 73.6318C54.4094 75.2375 65.9142 79.4243 76.1359 85.9037" stroke="#45413C" stroke-width="7" stroke-linecap="round" stroke-linejoin="round"/>
<path d="M55.6172 124.781C65.0256 120.09 75.8704 119.168 85.9359 122.203L55.6172 124.781Z" fill="#FFAA54"/>
<path d="M55.6172 124.781C65.0256 120.09 75.8704 119.168 85.9359 122.203" stroke="#45413C" stroke-width="7" stroke-linecap="round" stroke-linejoin="round"/>
<path d="M120.447 190.553C92.6914 196.208 66.42 207.588 43.3092 223.965L9.9998 247.375C7.96285 248.952 6.58981 251.234 6.15086 253.772C5.7119 256.31 6.23882 258.921 7.62792 261.09L78.5779 361.637C80.1548 363.674 82.4369 365.047 84.9752 365.486C87.5135 365.925 90.1242 365.398 92.2936 364.009L125.603 340.497C148.761 324.202 175.014 312.831 202.74 307.084C230.522 301.411 256.823 290.033 279.981 273.672L313.187 250.262C315.224 248.685 316.597 246.403 317.036 243.865C317.475 241.327 316.948 238.716 315.559 236.547L244.609 136C243.032 133.963 240.75 132.59 238.212 132.151C235.674 131.712 233.063 132.239 230.894 133.628L197.687 157.14C174.51 173.468 148.216 184.842 120.447 190.553Z" fill="#6DD627" stroke="#45413C" stroke-width="7" stroke-linecap="round" stroke-linejoin="round"/>
<path d="M41.9666 267.072L84.5572 327.297C86.1341 329.334 88.4162 330.707 90.9545 331.146C93.4928 331.585 96.1035 331.058 98.2729 329.669L115.392 317.603C138.539 301.223 164.845 289.844 192.632 284.191C220.373 278.489 246.635 267.114 269.77 250.778L278.948 244.384C280.968 242.793 282.321 240.504 282.741 237.966C283.161 235.429 282.617 232.826 281.217 230.669L238.729 170.341C237.152 168.304 234.87 166.931 232.332 166.492C229.793 166.053 227.183 166.58 225.013 167.969L207.792 179.725C184.681 196.103 158.409 207.482 130.654 213.138C102.901 218.901 76.6176 230.271 53.4135 246.55L44.3385 253.047C42.2181 254.633 40.7891 256.974 40.3475 259.585C39.906 262.196 40.4857 264.877 41.9666 267.072Z" fill="#E4FFD1" stroke="#45413C" stroke-width="7" stroke-linecap="round" stroke-linejoin="round"/>
<path d="M189.437 238.609C193.046 248.922 183.558 261.606 168.193 266.968C152.827 272.331 137.255 268.515 133.749 258.306C130.243 248.097 139.627 235.309 155.096 229.843C170.565 224.378 186.343 228.4 189.437 238.609Z" fill="#9CEB60" stroke="#45413C" stroke-width="7" stroke-linecap="round" stroke-linejoin="round"/>
</svg>
