<svg width="495" height="495" viewBox="0 0 495 495" fill="none" xmlns="http://www.w3.org/2000/svg">
<path d="M109.958 318.903L199.986 289.615L290.117 319.212C304.561 323.163 317.381 331.589 326.737 343.28C336.094 354.971 341.505 369.326 342.195 384.284V444.303H57.8797V383.975C58.5696 369.016 63.9812 354.662 73.3377 342.971C82.6942 331.28 95.5144 322.854 109.958 318.903V318.903Z" fill="white"/>
<path d="M109.958 318.903L199.986 289.615L290.117 319.212C304.561 323.163 317.381 331.589 326.737 343.28C336.094 354.971 341.505 369.326 342.195 384.284V415.221C341.505 400.263 336.094 385.908 326.737 374.217C317.381 362.526 304.561 354.101 290.117 350.15L199.986 320.553L109.958 350.15C95.6103 354.193 82.9035 362.658 73.6459 374.341C64.3884 386.024 59.0516 400.33 58.3953 415.221V384.284C58.9878 369.338 64.2954 354.963 73.5577 343.219C82.82 331.474 95.5618 322.962 109.958 318.903Z" fill="#E0E0E0"/>
<path d="M109.958 318.903L199.986 289.615L290.117 319.212C304.561 323.163 317.381 331.589 326.737 343.28C336.094 354.971 341.505 369.326 342.195 384.284V444.303H57.8797V383.975C58.5696 369.016 63.9812 354.662 73.3377 342.971C82.6942 331.28 95.5144 322.854 109.958 318.903V318.903Z" stroke="#45413C" stroke-width="7" stroke-linecap="round" stroke-linejoin="round"/>
<path d="M115.32 444.303V327.771" stroke="#45413C" stroke-width="7" stroke-linecap="round" stroke-linejoin="round"/>
<path d="M284.648 444.303V327.771" stroke="#45413C" stroke-width="7" stroke-linecap="round" stroke-linejoin="round"/>
<path d="M263.82 386.656H216.898V412.438H263.82V386.656Z" fill="#FF6242" stroke="#45413C" stroke-width="7" stroke-linecap="round" stroke-linejoin="round"/>
<path d="M162.137 399.547C162.137 402.966 160.779 406.244 158.361 408.662C155.944 411.079 152.665 412.437 149.246 412.438C145.827 412.437 142.548 411.079 140.131 408.662C137.714 406.244 136.355 402.966 136.355 399.547C136.355 396.128 137.714 392.849 140.131 390.432C142.548 388.014 145.827 386.656 149.246 386.656C152.665 386.656 155.944 388.014 158.361 390.432C160.779 392.849 162.137 396.128 162.137 399.547V399.547Z" fill="#009FD9" stroke="#45413C" stroke-width="7" stroke-linecap="round" stroke-linejoin="round"/>
<path d="M293.828 310.653C293.828 321.128 283.941 331.175 266.342 338.582C248.743 345.989 224.873 350.15 199.984 350.15C175.095 350.15 151.226 345.989 133.627 338.582C116.028 331.175 106.141 321.128 106.141 310.653C106.141 300.178 116.028 290.132 133.627 282.725C151.226 275.318 175.095 271.156 199.984 271.156C224.873 271.156 248.743 275.318 266.342 282.725C283.941 290.132 293.828 300.178 293.828 310.653V310.653Z" fill="white"/>
<path d="M199.985 271.156C245.36 271.156 283.207 284.666 291.973 302.713C283.207 320.656 245.36 334.269 199.985 334.269C154.61 334.269 116.866 320.553 108.101 302.713C116.866 284.666 154.507 271.156 199.985 271.156Z" fill="#E0E0E0"/>
<path d="M293.828 310.653C293.828 321.128 283.941 331.175 266.342 338.582C248.743 345.989 224.873 350.15 199.984 350.15C175.095 350.15 151.226 345.989 133.627 338.582C116.028 331.175 106.141 321.128 106.141 310.653C106.141 300.178 116.028 290.132 133.627 282.725C151.226 275.318 175.095 271.156 199.984 271.156C224.873 271.156 248.743 275.318 266.342 282.725C283.941 290.132 293.828 300.178 293.828 310.653V310.653Z" stroke="#45413C" stroke-width="7" stroke-linecap="round" stroke-linejoin="round"/>
<path d="M264.852 304.982C264.852 306.972 263.174 308.944 259.914 310.783C256.654 312.622 251.876 314.293 245.853 315.701C239.83 317.109 232.679 318.225 224.809 318.987C216.939 319.749 208.504 320.141 199.986 320.141C191.468 320.141 183.033 319.749 175.163 318.987C167.293 318.225 160.142 317.109 154.119 315.701C148.096 314.293 143.318 312.622 140.058 310.783C136.798 308.944 135.12 306.972 135.12 304.982C135.12 302.991 136.798 301.02 140.058 299.18C143.318 297.341 148.096 295.67 154.119 294.262C160.142 292.855 167.293 291.738 175.163 290.976C183.033 290.214 191.468 289.822 199.986 289.822C208.504 289.822 216.939 290.214 224.809 290.976C232.679 291.738 239.83 292.855 245.853 294.262C251.876 295.67 256.654 297.341 259.914 299.18C263.174 301.02 264.852 302.991 264.852 304.982V304.982Z" fill="#656769" stroke="#45413C" stroke-width="7" stroke-linecap="round" stroke-linejoin="round"/>
<path d="M226.695 318.8C209.244 320.586 191.656 320.586 174.205 318.8V285.284H226.695V318.8Z" fill="#FFCEBF" stroke="#45413C" stroke-width="7" stroke-linecap="round" stroke-linejoin="round"/>
<path d="M448 419.45C448 421.556 447.163 423.576 445.674 425.065C444.185 426.554 442.165 427.391 440.059 427.391H432.944C431.712 433.165 429.987 438.824 427.787 444.303H220.3C218.1 438.824 216.375 433.165 215.144 427.391H208.028C206.977 427.404 205.933 427.209 204.958 426.816C203.982 426.423 203.095 425.84 202.346 425.102C201.598 424.363 201.004 423.483 200.599 422.513C200.193 421.542 199.984 420.501 199.984 419.45V387.997C199.984 386.945 200.193 385.904 200.599 384.934C201.004 383.964 201.598 383.084 202.346 382.345C203.095 381.606 203.982 381.024 204.958 380.631C205.933 380.238 206.977 380.043 208.028 380.056H215.144C220.486 355.139 234.212 332.808 254.03 316.789C273.848 300.769 298.561 292.03 324.044 292.03C349.527 292.03 374.239 300.769 394.058 316.789C413.876 332.808 427.601 355.139 432.944 380.056H440.059C442.165 380.056 444.185 380.893 445.674 382.382C447.163 383.871 448 385.891 448 387.997V419.45Z" fill="#E0E0E0"/>
<path d="M208.028 380.056H215.144C220.486 355.139 234.212 332.808 254.03 316.789C273.848 300.769 298.561 292.03 324.044 292.03C349.527 292.03 374.239 300.769 394.058 316.789C413.876 332.808 427.601 355.139 432.944 380.056H440.059C442.165 380.056 444.185 380.893 445.674 382.382C447.163 383.871 448 385.891 448 387.997V410.375C448 408.259 447.167 406.229 445.681 404.723C444.194 403.218 442.175 402.358 440.059 402.331C438.078 402.339 436.149 401.698 434.566 400.506C432.983 399.314 431.834 397.637 431.294 395.731C424.675 372.388 410.621 351.841 391.264 337.211C371.908 322.58 348.307 314.664 324.044 314.664C299.78 314.664 276.179 322.58 256.823 337.211C237.467 351.841 223.413 372.388 216.794 395.731C216.238 397.629 215.085 399.296 213.506 400.485C211.926 401.674 210.005 402.322 208.028 402.331C205.895 402.331 203.849 403.179 202.34 404.687C200.832 406.196 199.984 408.242 199.984 410.375V387.997C199.984 386.945 200.193 385.904 200.599 384.934C201.004 383.964 201.598 383.084 202.346 382.345C203.095 381.606 203.982 381.024 204.958 380.631C205.933 380.238 206.977 380.043 208.028 380.056Z" fill="white"/>
<path d="M448 419.45C448 421.556 447.163 423.576 445.674 425.065C444.185 426.554 442.165 427.391 440.059 427.391H432.944C431.712 433.165 429.987 438.824 427.787 444.303H220.3C218.1 438.824 216.375 433.165 215.144 427.391H208.028C206.977 427.404 205.933 427.209 204.958 426.816C203.982 426.423 203.095 425.84 202.346 425.102C201.598 424.363 201.004 423.483 200.599 422.513C200.193 421.542 199.984 420.501 199.984 419.45V387.997C199.984 386.945 200.193 385.904 200.599 384.934C201.004 383.964 201.598 383.084 202.346 382.345C203.095 381.606 203.982 381.024 204.958 380.631C205.933 380.238 206.977 380.043 208.028 380.056H215.144C220.486 355.139 234.212 332.808 254.03 316.789C273.848 300.769 298.561 292.03 324.044 292.03C349.527 292.03 374.239 300.769 394.058 316.789C413.876 332.808 427.601 355.139 432.944 380.056H440.059C442.165 380.056 444.185 380.893 445.674 382.382C447.163 383.871 448 385.891 448 387.997V419.45Z" stroke="#45413C" stroke-width="7" stroke-linecap="round" stroke-linejoin="round"/>
<path d="M244.637 444.303C238.487 432.288 235.144 419.034 234.86 405.54C234.575 392.046 237.357 378.663 242.995 366.4C248.632 354.136 256.98 343.312 267.407 334.743C277.835 326.173 290.072 320.082 303.195 316.927C316.319 313.773 329.987 313.638 343.17 316.532C356.354 319.426 368.708 325.274 379.304 333.635C389.899 341.997 398.459 352.654 404.338 364.803C410.218 376.952 413.263 390.278 413.246 403.775C413.108 417.916 409.571 431.816 402.934 444.303H244.637Z" fill="#00B8F0"/>
<path d="M324.045 358.916C279.702 358.916 242.989 384.491 236.08 417.8C234.223 405.692 234.882 393.331 238.017 381.49C241.153 369.648 246.696 358.58 254.301 348.977C261.906 339.374 271.409 331.442 282.218 325.677C293.026 319.912 304.907 316.438 317.119 315.471C329.33 314.505 341.61 316.066 353.191 320.059C364.771 324.051 375.404 330.389 384.426 338.676C393.447 346.963 400.663 357.021 405.622 368.222C410.581 379.423 413.177 391.526 413.248 403.775C413.357 408.469 413.046 413.162 412.32 417.8C405.102 384.491 368.389 358.916 324.045 358.916Z" fill="#4ACFFF"/>
<path d="M244.637 444.303C238.487 432.288 235.144 419.034 234.86 405.54C234.575 392.046 237.357 378.663 242.995 366.4C248.632 354.136 256.98 343.312 267.407 334.743C277.835 326.173 290.072 320.082 303.195 316.927C316.319 313.773 329.987 313.638 343.17 316.532C356.354 319.426 368.708 325.274 379.304 333.635C389.899 341.997 398.459 352.654 404.338 364.803C410.218 376.952 413.263 390.278 413.246 403.775C413.108 417.916 409.571 431.816 402.934 444.303H244.637Z" stroke="#45413C" stroke-width="7" stroke-linecap="round" stroke-linejoin="round"/>
<path d="M199.984 51.5C208.506 51.508 216.994 52.582 225.249 54.6969C244.327 59.0281 269.284 66.2469 291.868 61.9156C292.779 67.7325 292.479 73.6747 290.989 79.3706C289.498 85.0665 286.849 90.3936 283.205 95.0188C295.044 111.947 301.381 132.111 301.355 152.769V205.775H98.7148V152.769C98.7148 125.911 109.384 100.153 128.376 81.1609C147.367 62.1694 173.125 51.5 199.984 51.5Z" fill="#A86C4D"/>
<path d="M199.985 51.5C208.507 51.508 216.995 52.582 225.251 54.6969C244.329 59.0281 269.285 66.2469 291.87 61.9156C293.321 72.7355 290.832 83.7165 284.857 92.8531C264.69 93.1766 244.591 90.4295 225.251 84.7063C210.288 80.8513 194.642 80.4713 179.509 83.5955C164.377 86.7196 150.16 93.2651 137.948 102.731C125.735 112.196 115.85 124.331 109.05 138.205C102.25 152.08 98.7156 167.327 98.7164 182.778V152.769C98.7164 125.911 109.386 100.153 128.377 81.1609C147.369 62.1694 173.127 51.5 199.985 51.5Z" fill="#DE926A"/>
<path d="M199.984 51.5C208.506 51.508 216.994 52.582 225.249 54.6969C244.327 59.0281 269.284 66.2469 291.868 61.9156C292.779 67.7325 292.479 73.6747 290.989 79.3706C289.498 85.0665 286.849 90.3936 283.205 95.0188C295.044 111.947 301.381 132.111 301.355 152.769V205.775H98.7148V152.769C98.7148 125.911 109.384 100.153 128.376 81.1609C147.367 62.1694 173.125 51.5 199.984 51.5Z" stroke="#45413C" stroke-width="7" stroke-linecap="round" stroke-linejoin="round"/>
<path d="M87.8856 198.041C88.3939 194.241 90.0477 190.685 92.6269 187.848C95.2061 185.011 98.5882 183.027 102.323 182.16L108.304 180.51C112.787 179.244 116.73 176.539 119.525 172.812C122.32 169.085 123.813 164.543 123.773 159.885V138.847C123.791 134.581 125.215 130.44 127.825 127.065C130.435 123.69 134.086 121.271 138.211 120.182C157.881 128.013 178.918 131.835 200.086 131.422C221.255 131.854 242.296 128.032 261.961 120.182C266.094 121.255 269.755 123.67 272.368 127.048C274.981 130.427 276.398 134.577 276.398 138.847V160.091C276.376 164.745 277.875 169.279 280.667 173.002C283.46 176.726 287.393 179.434 291.867 180.716L297.951 182.366C302.309 183.421 306.13 186.035 308.693 189.714C311.257 193.393 312.384 197.883 311.864 202.337C311.344 206.79 309.212 210.899 305.87 213.889C302.528 216.878 298.207 218.541 293.723 218.563H292.589C289.349 240.743 278.235 261.016 261.279 275.676C244.322 290.336 222.656 298.404 200.24 298.404C177.825 298.404 156.158 290.336 139.202 275.676C122.245 261.016 111.131 240.743 107.892 218.563H106.757C104.129 218.589 101.525 218.063 99.1133 217.018C96.7015 215.974 94.536 214.434 92.757 212.5C90.9779 210.565 89.625 208.278 88.7859 205.788C87.9467 203.297 87.64 200.658 87.8856 198.041V198.041Z" fill="#FFCEBF" stroke="#45413C" stroke-width="7" stroke-linecap="round" stroke-linejoin="round"/>
<path d="M256.085 195.875C256.106 197.474 255.649 199.044 254.773 200.382C253.897 201.721 252.642 202.767 251.168 203.389C249.694 204.011 248.068 204.179 246.498 203.872C244.928 203.564 243.486 202.796 242.354 201.665C241.223 200.534 240.455 199.091 240.148 197.521C239.841 195.952 240.009 194.326 240.63 192.852C241.252 191.378 242.299 190.123 243.637 189.247C244.976 188.371 246.545 187.914 248.145 187.934C250.251 187.934 252.27 188.771 253.76 190.26C255.249 191.749 256.085 193.769 256.085 195.875V195.875Z" fill="#45413C" stroke="#45413C" stroke-width="7" stroke-linecap="round" stroke-linejoin="round"/>
<path d="M144.193 195.875C144.193 197.445 144.659 198.981 145.531 200.286C146.404 201.592 147.644 202.61 149.095 203.211C150.546 203.812 152.142 203.969 153.683 203.663C155.223 203.357 156.638 202.6 157.748 201.49C158.859 200.379 159.615 198.964 159.922 197.424C160.228 195.884 160.071 194.287 159.47 192.836C158.869 191.385 157.851 190.145 156.545 189.273C155.239 188.4 153.704 187.934 152.134 187.934C151.087 187.92 150.048 188.116 149.079 188.51C148.109 188.905 147.228 189.489 146.488 190.229C145.748 190.969 145.163 191.85 144.769 192.82C144.375 193.79 144.179 194.828 144.193 195.875V195.875Z" fill="#45413C" stroke="#45413C" stroke-width="7" stroke-linecap="round" stroke-linejoin="round"/>
<path d="M229.27 244.24C229.921 244.265 230.561 244.423 231.148 244.705C231.735 244.988 232.258 245.388 232.684 245.882C233.11 246.375 233.429 246.951 233.622 247.574C233.816 248.196 233.879 248.852 233.807 249.5C232.477 257.496 228.353 264.761 222.168 270.002C215.984 275.243 208.14 278.119 200.034 278.119C191.928 278.119 184.084 275.243 177.9 270.002C171.715 264.761 167.591 257.496 166.261 249.5C166.173 248.849 166.224 248.187 166.412 247.558C166.599 246.929 166.917 246.346 167.346 245.849C167.775 245.352 168.304 244.952 168.899 244.674C169.494 244.397 170.142 244.249 170.798 244.24H229.27Z" fill="#FF6242"/>
<path d="M199.984 258.678C209.321 258.355 218.5 261.148 226.074 266.619C222.813 270.308 218.805 273.262 214.316 275.286C209.827 277.309 204.959 278.356 200.035 278.356C195.111 278.356 190.243 277.309 185.754 275.286C181.265 273.262 177.257 270.308 173.996 266.619C181.513 261.113 190.673 258.314 199.984 258.678V258.678Z" fill="#FFA694"/>
<path d="M229.27 244.24C229.921 244.265 230.561 244.423 231.148 244.705C231.735 244.988 232.258 245.388 232.684 245.882C233.11 246.375 233.429 246.951 233.622 247.574C233.816 248.196 233.879 248.852 233.807 249.5C232.477 257.496 228.353 264.761 222.168 270.002C215.984 275.243 208.14 278.119 200.034 278.119C191.928 278.119 184.084 275.243 177.9 270.002C171.715 264.761 167.591 257.496 166.261 249.5C166.173 248.849 166.224 248.187 166.412 247.558C166.599 246.929 166.917 246.346 167.346 245.849C167.775 245.352 168.304 244.952 168.899 244.674C169.494 244.397 170.142 244.249 170.798 244.24H229.27Z" stroke="#45413C" stroke-width="7" stroke-linecap="round" stroke-linejoin="round"/>
<path d="M271.555 229.7C271.555 231.341 270.468 232.915 268.534 234.075C266.6 235.236 263.977 235.888 261.242 235.888C258.507 235.888 255.884 235.236 253.95 234.075C252.016 232.915 250.93 231.341 250.93 229.7C250.93 228.059 252.016 226.485 253.95 225.325C255.884 224.165 258.507 223.513 261.242 223.513C263.977 223.513 266.6 224.165 268.534 225.325C270.468 226.485 271.555 228.059 271.555 229.7Z" fill="#FFB59E"/>
<path d="M149.039 229.7C149.039 231.341 147.953 232.915 146.019 234.075C144.085 235.236 141.462 235.888 138.727 235.888C135.992 235.888 133.368 235.236 131.435 234.075C129.501 232.915 128.414 231.341 128.414 229.7C128.414 228.059 129.501 226.485 131.435 225.325C133.368 224.165 135.992 223.513 138.727 223.513C141.462 223.513 144.085 224.165 146.019 225.325C147.953 226.485 149.039 228.059 149.039 229.7Z" fill="#FFB59E"/>
</svg>
