<svg width="496" height="496" viewBox="0 0 496 496" fill="none" xmlns="http://www.w3.org/2000/svg">
<path d="M145.906 120.694L138.879 207.804H171.119L175.666 120.9C176.17 107.913 181.66 95.62 190.993 86.5753C200.326 77.5306 212.786 72.43 225.782 72.3335C238.791 72.3457 251.297 77.3647 260.705 86.3494C270.113 95.3342 275.702 107.595 276.312 120.59L280.446 207.494H312.686L305.659 120.384C304.049 100.299 294.937 81.5574 280.137 67.8863C265.336 54.2151 245.931 46.617 225.782 46.6035C205.577 46.599 186.117 54.2321 171.304 67.9726C156.49 81.713 147.418 100.545 145.906 120.694Z" fill="#F7E5C6"/>
<path d="M145.905 148.593C147.196 132.318 153.43 116.826 163.773 104.193C174.115 91.5609 188.071 82.3912 203.772 77.9131C210.59 74.4463 218.132 72.6394 225.782 72.6394C233.431 72.6394 240.973 74.4463 247.792 77.9131C263.492 82.3912 277.448 91.5609 287.79 104.193C298.133 116.826 304.367 132.318 305.658 148.593L309.998 207.803H312.272L305.245 120.693C303.791 100.501 294.745 81.609 279.925 67.8177C265.105 54.0263 245.612 46.3594 225.368 46.3594C205.124 46.3594 185.631 54.0263 170.811 67.8177C155.992 81.609 146.945 100.501 145.492 120.693L138.465 207.803H140.738L145.905 148.593Z" fill="#FFF5E3"/>
<path d="M363.218 207.803H116.148C108.28 207.809 100.602 210.217 94.1394 214.704C87.6766 219.191 82.7373 225.543 79.9815 232.913C76.8815 241.283 73.7815 249.653 72.3348 254.613C61.75 289.38 55.6386 325.354 54.1482 361.666L52.3915 405.583C52.1543 410.795 52.9751 416.001 54.8043 420.888C56.6335 425.775 59.4333 430.24 63.0348 434.016C66.6364 437.791 70.9652 440.798 75.7602 442.855C80.5552 444.912 85.7171 445.977 90.9348 445.986H298.428C308.407 445.969 317.995 442.102 325.194 435.191C332.393 428.281 336.649 418.859 337.075 408.889L338.935 361.666C340.882 312.255 351.37 263.555 369.935 217.723C370.348 216.624 370.492 215.443 370.355 214.277C370.217 213.112 369.802 211.996 369.144 211.025C368.486 210.053 367.604 209.253 366.573 208.692C365.542 208.132 364.392 207.827 363.218 207.803Z" fill="#947746" stroke="#45413C" stroke-width="7" stroke-linecap="round" stroke-linejoin="round"/>
<path d="M69.1315 265.773C60.5434 297.072 55.5171 329.24 54.1482 361.667L52.3915 405.583C52.1543 410.796 52.9751 416.002 54.8043 420.889C56.6335 425.775 59.4333 430.241 63.0348 434.016C66.6364 437.792 70.9652 440.799 75.7602 442.856C80.5552 444.913 85.7171 445.978 90.9348 445.987H287.268L301.838 265.773H69.1315Z" fill="#DEBB7E"/>
<path d="M298.115 308.347L301.525 265.773H69.1281C65.3048 279.827 62.3081 294.087 59.8281 308.347H298.115Z" fill="#B89558"/>
<path d="M69.1315 265.773C60.5434 297.072 55.5171 329.24 54.1482 361.667L52.3915 405.583C52.1543 410.796 52.9751 416.002 54.8043 420.889C56.6335 425.775 59.4333 430.241 63.0348 434.016C66.6364 437.792 70.9652 440.799 75.7602 442.856C80.5552 444.913 85.7171 445.978 90.9348 445.987H287.268L301.838 265.773H69.1315Z" stroke="#45413C" stroke-width="7" stroke-linecap="round" stroke-linejoin="round"/>
<path d="M357.119 207.803C367.132 207.849 376.917 210.803 385.282 216.306C393.648 221.81 400.234 229.626 404.239 238.803C412.618 257.136 419.73 276.021 425.526 295.327C431.924 320.426 435.698 346.121 436.789 372L438.132 405.893C438.341 411.098 437.496 416.29 435.647 421.159C433.799 426.029 430.985 430.474 427.376 434.228C423.766 437.983 419.435 440.969 414.642 443.007C409.849 445.046 404.694 446.094 399.486 446.09H192.095C182.109 446.098 172.507 442.24 165.302 435.324C158.097 428.408 153.849 418.972 153.449 408.993L151.589 361.667C150.469 334.231 146.732 306.965 140.429 280.24C137.949 269.907 134.849 252.857 132.265 237.77C131.616 234.065 131.787 230.263 132.765 226.631C133.744 222.999 135.508 219.626 137.931 216.749C140.355 213.872 143.38 211.562 146.793 209.981C150.206 208.399 153.924 207.586 157.685 207.597L357.119 207.803Z" fill="#DEBB7E"/>
<path d="M135.471 255.956C137.735 252.076 140.98 248.86 144.879 246.629C148.778 244.398 153.195 243.231 157.688 243.246H357.121C367.135 243.291 376.919 246.245 385.284 251.749C393.65 257.253 400.236 265.069 404.241 274.246C412.599 292.552 419.711 311.401 425.528 330.666C431.919 355.767 435.693 381.461 436.791 407.339V416.329C437.6 412.947 437.948 409.471 437.824 405.996L436.791 371.999C435.701 346.121 431.926 320.425 425.528 295.326C419.733 276.021 412.62 257.135 404.241 238.803C400.236 229.625 393.65 221.809 385.284 216.306C376.919 210.802 367.135 207.848 357.121 207.803H157.688C153.957 207.799 150.27 208.607 146.883 210.17C143.496 211.733 140.489 214.014 138.071 216.855C135.652 219.696 133.881 223.028 132.879 226.622C131.877 230.215 131.668 233.984 132.268 237.666C133.301 243.763 134.334 249.963 135.471 255.956Z" fill="#F0D5A8"/>
<path d="M357.119 207.803C367.132 207.849 376.917 210.803 385.282 216.306C393.648 221.81 400.234 229.626 404.239 238.803C412.618 257.136 419.73 276.021 425.526 295.327C431.924 320.426 435.698 346.121 436.789 372L438.132 405.893C438.341 411.098 437.496 416.29 435.647 421.159C433.799 426.029 430.985 430.474 427.376 434.228C423.766 437.983 419.435 440.969 414.642 443.007C409.849 445.046 404.694 446.094 399.486 446.09H192.095C182.109 446.098 172.507 442.24 165.302 435.324C158.097 428.408 153.849 418.972 153.449 408.993L151.589 361.667C150.469 334.231 146.732 306.965 140.429 280.24C137.949 269.907 134.849 252.857 132.265 237.77C131.616 234.065 131.787 230.263 132.765 226.631C133.744 222.999 135.508 219.626 137.931 216.749C140.355 213.872 143.38 211.562 146.793 209.981C150.206 208.399 153.924 207.586 157.685 207.597L357.119 207.803Z" stroke="#45413C" stroke-width="7" stroke-linecap="round" stroke-linejoin="round"/>
<path d="M223.303 259.366H195.3C190.066 259.331 184.966 257.713 180.669 254.725C176.372 251.738 173.079 247.52 171.223 242.626L158.203 207.803H222.58L235.393 241.903C236.128 243.857 236.378 245.961 236.122 248.033C235.866 250.105 235.112 252.085 233.923 253.802C232.735 255.519 231.147 256.922 229.298 257.891C227.448 258.86 225.391 259.366 223.303 259.366Z" fill="#E8F4FA" stroke="#45413C" stroke-width="7" stroke-linecap="round" stroke-linejoin="round"/>
<path d="M358.464 259.366H330.667C325.433 259.331 320.333 257.713 316.036 254.725C311.739 251.738 308.446 247.52 306.59 242.626L293.57 207.803H357.947L370.657 241.903C371.422 243.865 371.691 245.985 371.441 248.076C371.191 250.167 370.43 252.164 369.224 253.891C368.018 255.617 366.406 257.02 364.529 257.975C362.652 258.93 360.569 259.408 358.464 259.366Z" fill="#E8F4FA" stroke="#45413C" stroke-width="7" stroke-linecap="round" stroke-linejoin="round"/>
<path d="M145.906 120.694L138.879 207.804H171.119L175.666 120.9C176.17 107.913 181.66 95.62 190.993 86.5753C200.326 77.5306 212.786 72.43 225.782 72.3335V72.3335C238.791 72.3457 251.297 77.3647 260.705 86.3494C270.113 95.3342 275.702 107.595 276.312 120.59L280.446 207.494H312.686L305.659 120.384C304.049 100.299 294.937 81.5574 280.137 67.8863C265.336 54.2151 245.931 46.617 225.782 46.6035V46.6035C205.577 46.599 186.117 54.2321 171.304 67.9726C156.49 81.713 147.418 100.545 145.906 120.694V120.694Z" stroke="#45413C" stroke-width="7" stroke-linecap="round" stroke-linejoin="round"/>
<path d="M190.34 207.803L209.663 259.366" stroke="#45413C" stroke-width="7" stroke-linecap="round" stroke-linejoin="round"/>
<path d="M325.5 207.803L344.823 259.366" stroke="#45413C" stroke-width="7" stroke-linecap="round" stroke-linejoin="round"/>
</svg>
