<svg width="496" height="496" viewBox="0 0 496 496" fill="none" xmlns="http://www.w3.org/2000/svg">
<path d="M427.82 432.128L400.333 404.745L382.043 423.035L409.53 450.728C410.694 452.11 412.132 453.234 413.754 454.029C415.376 454.824 417.145 455.274 418.95 455.348C420.755 455.422 422.555 455.12 424.237 454.461C425.919 453.802 427.445 452.8 428.719 451.52C429.993 450.239 430.986 448.707 431.635 447.021C432.285 445.336 432.577 443.534 432.492 441.729C432.408 439.925 431.948 438.158 431.144 436.541C430.34 434.923 429.208 433.491 427.82 432.335V432.128Z" fill="#828487" stroke="#45413C" stroke-width="7" stroke-linecap="round" stroke-linejoin="round"/>
<path d="M66.2271 106.877C62.7877 103.451 58.1283 101.532 53.2739 101.542C48.4195 101.552 43.7678 103.489 40.3421 106.929C36.9164 110.368 34.9973 115.028 35.0069 119.882C35.0166 124.736 36.9543 129.388 40.3937 132.814L47.4204 139.84C49.8458 142.266 51.2084 145.555 51.2084 148.985C51.2084 152.415 49.8458 155.705 47.4204 158.13C44.995 160.556 41.7054 161.918 38.2754 161.918C34.8454 161.918 31.5558 160.556 29.1304 158.13L22.1037 151.104C15.5893 142.591 12.3885 132.001 13.0967 121.305C13.8049 110.609 18.3738 100.534 25.9537 92.9537C33.5337 85.3738 43.6087 80.8049 54.305 80.0967C65.0012 79.3885 75.5906 82.5893 84.1037 89.1037L185.06 189.027L166.667 207.317L66.2271 106.877Z" fill="#87898C" stroke="#45413C" stroke-width="7" stroke-linecap="round" stroke-linejoin="round"/>
<path d="M402.817 402.057L243.271 116.34C242.859 115.654 242.232 115.124 241.487 114.833C240.743 114.541 239.922 114.505 239.155 114.729C238.387 114.954 237.715 115.426 237.245 116.073C236.774 116.72 236.531 117.504 236.554 118.304C237.05 126.724 235.757 135.155 232.76 143.04C229.762 150.925 225.129 158.085 219.164 164.05C213.199 170.015 206.039 174.649 198.154 177.646C190.269 180.643 181.838 181.936 173.417 181.44L161.844 180.82C161.348 180.79 160.851 180.866 160.386 181.042C159.921 181.218 159.498 181.491 159.147 181.843C158.795 182.194 158.522 182.617 158.346 183.082C158.169 183.547 158.094 184.044 158.124 184.54L158.744 196.114C159.253 204.511 157.979 212.921 155.006 220.791C152.032 228.66 147.428 235.812 141.494 241.775C135.56 247.738 128.431 252.378 120.576 255.39C112.721 258.402 104.317 259.718 95.9174 259.25C95.1054 259.171 94.291 259.377 93.6141 259.832C92.9372 260.288 92.44 260.965 92.2078 261.747C91.9756 262.529 92.0228 263.368 92.3415 264.119C92.6601 264.87 93.2303 265.487 93.9541 265.864L379.361 425.514C382.638 427.328 386.417 428.028 390.126 427.506C393.836 426.984 397.275 425.269 399.924 422.62C402.572 419.971 404.287 416.532 404.809 412.822C405.332 409.113 404.632 405.334 402.817 402.057Z" fill="#9DD4FF"/>
<path d="M215.898 167.077L391.565 427.167C394.082 426.457 396.405 425.184 398.359 423.444C400.312 421.705 401.844 419.544 402.839 417.125C403.835 414.707 404.267 412.093 404.104 409.483C403.941 406.872 403.187 404.333 401.898 402.057L243.178 116.34C242.767 115.654 242.14 115.124 241.395 114.833C240.65 114.541 239.83 114.505 239.062 114.729C238.295 114.954 237.623 115.426 237.152 116.073C236.682 116.72 236.439 117.504 236.462 118.304C237.013 127.467 235.444 136.634 231.878 145.093C228.312 153.551 222.844 161.074 215.898 167.077Z" fill="#53AEF9"/>
<path d="M402.817 402.057L243.271 116.34C242.859 115.654 242.232 115.124 241.487 114.833C240.743 114.541 239.922 114.505 239.155 114.729C238.387 114.954 237.715 115.426 237.245 116.073C236.774 116.72 236.531 117.504 236.554 118.304C237.05 126.724 235.757 135.155 232.76 143.04C229.762 150.925 225.129 158.085 219.164 164.05C213.199 170.015 206.039 174.649 198.154 177.646C190.269 180.643 181.838 181.936 173.417 181.44L161.844 180.82C161.348 180.79 160.851 180.866 160.386 181.042C159.921 181.218 159.498 181.491 159.147 181.843C158.795 182.194 158.522 182.617 158.346 183.082C158.169 183.547 158.094 184.044 158.124 184.54L158.744 196.114C159.253 204.511 157.979 212.921 155.006 220.791C152.032 228.66 147.428 235.812 141.494 241.775C135.56 247.738 128.431 252.378 120.576 255.39C112.721 258.402 104.317 259.718 95.9174 259.25C95.1054 259.171 94.291 259.377 93.6141 259.832C92.9372 260.288 92.44 260.965 92.2078 261.747C91.9756 262.529 92.0228 263.368 92.3415 264.119C92.6601 264.87 93.2303 265.487 93.9541 265.864L379.361 425.514C382.638 427.328 386.417 428.028 390.126 427.506C393.836 426.984 397.275 425.269 399.924 422.62C402.572 419.971 404.287 416.532 404.809 412.822C405.332 409.113 404.632 405.334 402.817 402.057Z" stroke="#45413C" stroke-width="7" stroke-linecap="round" stroke-linejoin="round"/>
</svg>
