<svg width="495" height="495" viewBox="0 0 495 495" fill="none" xmlns="http://www.w3.org/2000/svg">
<path d="M419.002 126.678C365.684 100.289 306.996 86.5596 247.505 86.5596C188.014 86.5596 129.325 100.289 76.0078 126.678L99.3141 174.218C112.016 199.864 126.5 228.719 137 256.719L158.02 293.219C157.897 298.236 149.495 277.296 152.626 281.219C147.706 280.226 155.757 285.141 152.626 281.219C155.613 281.734 152.506 289.522 155.429 288.719C158.351 287.916 168.643 320.688 170.947 318.719C173.25 316.75 167.478 317.814 167.478 313.719C168.726 310.957 162.544 307.249 162.5 304.219L159.848 296.318L238.327 454.718C239.192 456.408 240.507 457.825 242.126 458.815C243.746 459.805 245.607 460.329 247.505 460.329C249.403 460.329 251.264 459.805 252.883 458.815C254.503 457.825 255.817 456.408 256.683 454.718L283.598 400.372C280.697 397.471 283.598 404.474 283.598 400.372C279.496 400.372 286.499 403.272 283.598 400.372C280.697 403.272 287.701 400.372 283.598 400.372C283.598 404.474 286.499 397.471 283.598 400.372L305 359.719C304.843 343.896 317.91 330.442 324.848 316.222C337.842 289.822 359.166 246.872 373.5 218.719C370.599 215.818 373.5 222.821 373.5 218.719C369.397 218.719 376.401 221.62 373.5 218.719C377.603 218.719 382 208.931 373.5 218.719C357.5 243.219 373.5 222.821 373.5 218.719L389.5 193.219C389.391 177.368 400.455 163.329 407.348 149.056L419.002 126.678Z" fill="#FFE500"/>
<path d="M247.505 120.078C302.087 120.065 356.047 131.666 405.802 154.109C406.42 152.562 407.039 150.912 407.761 149.468L419.002 126.678C365.684 100.289 306.996 86.5596 247.505 86.5596C188.014 86.5596 129.325 100.289 76.0078 126.678L89.5172 153.593C139.216 131.373 193.064 119.95 247.505 120.078Z" fill="#EBCB00"/>
<path d="M314.531 241.25C302.224 241.25 290.42 246.139 281.717 254.842C273.014 263.545 268.125 275.349 268.125 287.656C268.125 299.964 273.014 311.768 281.717 320.47C290.42 329.173 302.224 334.062 314.531 334.062H316.491C327.938 311.066 340.106 286.419 352.481 261.256C348.251 255.095 342.587 250.055 335.975 246.569C329.364 243.084 322.005 241.259 314.531 241.25Z" fill="#FF6242" stroke="#45413C" stroke-width="7" stroke-linecap="round" stroke-linejoin="round"/>
<path d="M242.345 349.531C242.359 343.433 241.168 337.393 238.841 331.756C236.513 326.12 233.095 320.999 228.784 316.687C224.472 312.375 219.35 308.957 213.714 306.63C208.078 304.303 202.037 303.112 195.939 303.125C185.82 303.146 175.992 306.518 167.992 312.716L208.314 394.081C218.077 391.398 226.692 385.588 232.838 377.542C238.984 369.496 242.324 359.657 242.345 349.531Z" fill="#FF6242" stroke="#45413C" stroke-width="7" stroke-linecap="round" stroke-linejoin="round"/>
<path d="M268.125 158.75C268.125 171.058 273.014 182.861 281.717 191.564C290.42 200.267 302.224 205.156 314.531 205.156C326.839 205.156 338.643 200.267 347.345 191.564C356.048 182.861 360.938 171.058 360.938 158.75C360.938 146.442 356.048 134.639 347.345 125.936C338.643 117.233 326.839 112.344 314.531 112.344C302.224 112.344 290.42 117.233 281.717 125.936C273.014 134.639 268.125 146.442 268.125 158.75Z" fill="#FF6242" stroke="#45413C" stroke-width="7" stroke-linecap="round" stroke-linejoin="round"/>
<path d="M247.501 86.5625C307.001 86.4795 365.708 100.212 418.998 126.678C418.998 126.678 444.47 129.875 448.595 107.187C458.907 50.4687 290.504 35 247.501 35C204.498 35 36.0945 50.4687 46.407 107.187C50.532 129.875 76.0039 126.678 76.0039 126.678C129.294 100.212 188.001 86.4795 247.501 86.5625Z" fill="#F0D5A8"/>
<path d="M46.8206 108.837C84.3581 71.8156 210.377 60.7812 247.502 60.7812C284.627 60.7812 410.646 71.8156 448.183 108.837C448.183 108.219 448.183 107.806 448.183 107.187C458.496 50.4687 290.092 35 247.089 35C204.086 35 36.0956 50.4687 46.4081 107.187C46.5112 107.806 46.7175 108.219 46.8206 108.837Z" fill="#F7E5C6"/>
<path d="M247.501 86.5625C307.001 86.4795 365.708 100.212 418.998 126.678C418.998 126.678 444.47 129.875 448.595 107.187C458.907 50.4687 290.504 35 247.501 35C204.498 35 36.0945 50.4687 46.407 107.187C50.532 129.875 76.0039 126.678 76.0039 126.678C129.294 100.212 188.001 86.4795 247.501 86.5625V86.5625Z" stroke="#45413C" stroke-width="7" stroke-linecap="round" stroke-linejoin="round"/>
<path d="M128.906 184.531C128.906 196.839 133.795 208.643 142.498 217.345C151.201 226.048 163.005 230.938 175.312 230.938C187.62 230.938 199.424 226.048 208.127 217.345C216.83 208.643 221.719 196.839 221.719 184.531C221.719 172.224 216.83 160.42 208.127 151.717C199.424 143.014 187.62 138.125 175.312 138.125C163.005 138.125 151.201 143.014 142.498 151.717C133.795 160.42 128.906 172.224 128.906 184.531Z" fill="#FF6242" stroke="#45413C" stroke-width="7" stroke-linecap="round" stroke-linejoin="round"/>
<path d="M247.505 86.5596C306.996 86.5596 365.684 100.289 419.002 126.678L407.348 149.056C400.455 163.329 396.248 173.219 388.248 189.219L366.846 232.222C352.512 260.375 337.842 289.822 324.848 316.222C317.91 330.442 290 387.719 283 402.219L256.683 454.718C255.817 456.408 254.503 457.825 252.883 458.815C251.264 459.805 249.403 460.329 247.505 460.329C245.607 460.329 243.746 459.805 242.126 458.815C240.507 457.825 239.192 456.408 238.327 454.718L159.848 296.318L76.0078 126.678C129.325 100.289 188.014 86.5596 247.505 86.5596Z" stroke="#45413C" stroke-width="7" stroke-linecap="round" stroke-linejoin="round"/>
</svg>
