<svg width="495" height="495" viewBox="0 0 495 495" fill="none" xmlns="http://www.w3.org/2000/svg">
<path d="M480 247.306C480 283.59 469.683 318.387 451.319 344.043C432.956 369.699 408.049 384.113 382.079 384.113C356.108 384.113 331.201 369.699 312.838 344.043C294.474 318.387 284.157 283.59 284.157 247.306C284.157 211.023 294.474 176.226 312.838 150.57C331.201 124.913 356.108 110.5 382.079 110.5C408.049 110.5 432.956 124.913 451.319 150.57C469.683 176.226 480 211.023 480 247.306Z" fill="white"/>
<path d="M212.16 247.306C212.16 283.59 201.843 318.387 183.48 344.043C165.116 369.699 140.209 384.113 114.239 384.113C88.2683 384.113 63.3616 369.699 44.9978 344.043C26.634 318.387 16.3173 283.59 16.3173 247.306C16.3173 211.023 26.634 176.226 44.9978 150.57C63.3616 124.913 88.2683 110.5 114.239 110.5C140.209 110.5 165.116 124.913 183.48 150.57C201.843 176.226 212.16 211.023 212.16 247.306Z" fill="white"/>
<path d="M382.079 140.402C330.27 140.402 287.991 191.664 284.486 256.617C284.486 253.44 284.486 250.483 284.486 247.306C284.486 171.729 328.298 110.5 382.407 110.5C436.516 110.5 480 171.729 480 247.306C480 250.483 480 253.44 480 256.617C476.166 191.664 434.325 140.402 382.079 140.402Z" fill="#E0E0E0"/>
<path d="M480 247.306C480 283.59 469.683 318.387 451.319 344.043C432.956 369.699 408.049 384.113 382.079 384.113C356.108 384.113 331.201 369.699 312.838 344.043C294.474 318.387 284.157 283.59 284.157 247.306C284.157 211.023 294.474 176.226 312.838 150.57C331.201 124.913 356.108 110.5 382.079 110.5C408.049 110.5 432.956 124.913 451.319 150.57C469.683 176.226 480 211.023 480 247.306V247.306Z" stroke="#45413C" stroke-width="7" stroke-linecap="round" stroke-linejoin="round"/>
<path d="M114.082 140.402C62.2734 140.402 19.9941 191.664 16.4891 256.617C16.4891 253.44 16.4891 250.483 16.4891 247.306C16.4891 171.729 60.3018 110.5 114.411 110.5C168.519 110.5 212.332 171.729 212.332 247.306C212.332 250.483 212.332 253.44 212.332 256.617C208.17 191.664 165.891 140.402 114.082 140.402Z" fill="#E0E0E0"/>
<path d="M212.16 247.306C212.16 283.59 201.843 318.387 183.48 344.043C165.116 369.699 140.209 384.113 114.239 384.113C88.2683 384.113 63.3617 369.699 44.9978 344.043C26.634 318.387 16.3173 283.59 16.3173 247.306C16.3173 211.023 26.634 176.226 44.9978 150.57C63.3617 124.913 88.2683 110.5 114.239 110.5C140.209 110.5 165.116 124.913 183.48 150.57C201.843 176.226 212.16 211.023 212.16 247.306V247.306Z" stroke="#45413C" stroke-width="7" stroke-linecap="round" stroke-linejoin="round"/>
<path d="M447 249.278C447 266.446 440.18 282.912 428.04 295.052C415.9 307.191 399.435 314.012 382.267 314.012C365.098 314.012 348.633 307.191 336.493 295.052C324.353 282.912 317.533 266.446 317.533 249.278C317.533 232.109 324.353 215.644 336.493 203.504C348.633 191.364 365.098 184.544 382.267 184.544C399.435 184.544 415.9 191.364 428.04 203.504C440.18 215.644 447 232.109 447 249.278Z" fill="#656769"/>
<path d="M382.255 286.85C396.992 286.754 411.256 281.632 422.687 272.332C434.119 263.031 442.035 250.108 445.127 235.698C446.135 240.156 446.649 244.71 446.66 249.28C446.66 266.449 439.84 282.914 427.7 295.054C415.56 307.194 399.095 314.014 381.927 314.014C364.759 314.014 348.293 307.194 336.153 295.054C324.014 282.914 317.194 266.449 317.194 249.28C317.204 244.71 317.719 240.156 318.727 235.698C321.824 250.227 329.832 263.246 341.402 272.562C352.973 281.879 367.4 286.925 382.255 286.85Z" fill="#525252"/>
<path d="M447 249.278C447 266.446 440.18 282.912 428.04 295.052C415.9 307.191 399.435 314.012 382.267 314.012C365.098 314.012 348.633 307.191 336.493 295.052C324.353 282.912 317.533 266.446 317.533 249.278C317.533 232.109 324.353 215.644 336.493 203.504C348.633 191.364 365.098 184.544 382.267 184.544C399.435 184.544 415.9 191.364 428.04 203.504C440.18 215.644 447 232.109 447 249.278V249.278Z" stroke="#45413C" stroke-width="7" stroke-linecap="round" stroke-linejoin="round"/>
<path d="M399.082 206.889C399.082 209.329 397.305 211.67 394.142 213.395C390.978 215.121 386.688 216.09 382.214 216.09C377.74 216.09 373.45 215.121 370.287 213.395C367.123 211.67 365.346 209.329 365.346 206.889C365.346 204.449 367.123 202.109 370.287 200.383C373.45 198.658 377.74 197.688 382.214 197.688C386.688 197.688 390.978 198.658 394.142 200.383C397.305 202.109 399.082 204.449 399.082 206.889Z" fill="#87898C"/>
<path d="M179.16 249.276C179.16 266.444 172.34 282.91 160.2 295.05C148.06 307.19 131.595 314.01 114.427 314.01C97.2585 314.01 80.7933 307.19 68.6535 295.05C56.5136 282.91 49.6935 266.444 49.6935 249.276C49.6935 232.107 56.5136 215.642 68.6535 203.502C80.7933 191.362 97.2585 184.542 114.427 184.542C131.595 184.542 148.06 191.362 160.2 203.502C172.34 215.642 179.16 232.107 179.16 249.276Z" fill="#656769"/>
<path d="M114.427 286.85C129.226 286.849 143.576 281.769 155.079 272.459C166.582 263.148 174.542 250.172 177.627 235.698C178.635 240.156 179.149 244.71 179.16 249.28C179.16 257.781 177.486 266.199 174.233 274.053C170.979 281.907 166.211 289.043 160.2 295.054C154.189 301.065 147.053 305.833 139.199 309.087C131.345 312.34 122.928 314.014 114.427 314.014C105.926 314.014 97.5083 312.34 89.6545 309.087C81.8007 305.833 74.6645 301.065 68.6535 295.054C62.6424 289.043 57.8742 281.907 54.6211 274.053C51.3679 266.199 49.6935 257.781 49.6935 249.28C49.5963 244.722 50.0004 240.168 50.8984 235.698C53.9952 250.227 62.0029 263.246 73.5737 272.562C85.1445 281.879 99.5717 286.925 114.427 286.85Z" fill="#525252"/>
<path d="M179.16 249.276C179.16 266.444 172.34 282.91 160.2 295.05C148.06 307.19 131.595 314.01 114.427 314.01C97.2585 314.01 80.7933 307.19 68.6535 295.05C56.5136 282.91 49.6935 266.444 49.6935 249.276C49.6935 232.107 56.5136 215.642 68.6535 203.502C80.7933 191.362 97.2585 184.542 114.427 184.542C131.595 184.542 148.06 191.362 160.2 203.502C172.34 215.642 179.16 232.107 179.16 249.276V249.276Z" stroke="#45413C" stroke-width="7" stroke-linecap="round" stroke-linejoin="round"/>
<path d="M131.238 206.889C131.238 209.329 129.461 211.67 126.298 213.395C123.134 215.121 118.844 216.09 114.37 216.09C109.897 216.09 105.606 215.121 102.443 213.395C99.2796 211.67 97.5025 209.329 97.5025 206.889C97.5025 204.449 99.2796 202.109 102.443 200.383C105.606 198.658 109.897 197.688 114.37 197.688C118.844 197.688 123.134 198.658 126.298 200.383C129.461 202.109 131.238 204.449 131.238 206.889Z" fill="#87898C"/>
</svg>
