<svg width="495" height="495" viewBox="0 0 495 495" fill="none" xmlns="http://www.w3.org/2000/svg">
<path d="M233.637 266.286L51.3125 202.451V375.598C51.321 377.73 51.9899 379.807 53.2273 381.543C54.4646 383.279 56.2095 384.588 58.2219 385.292L233.534 447.167C242.362 450.161 251.931 450.161 260.759 447.167L436.072 385.292C438.084 384.588 439.829 383.279 441.066 381.543C442.304 379.807 442.973 377.73 442.981 375.598V202.451L260.863 266.286C252.049 269.367 242.451 269.367 233.637 266.286Z" fill="#FF866E"/>
<path d="M260.863 266.286C252.049 269.367 242.451 269.367 233.637 266.286L51.3125 202.451V254.014L233.637 317.848C242.451 320.929 252.049 320.929 260.863 317.848L443.188 254.014V202.451L260.863 266.286Z" fill="#FF6242"/>
<path d="M233.638 266.286L51.3125 202.451V375.598C51.321 377.73 51.9899 379.807 53.2273 381.543C54.4646 383.278 56.2095 384.588 58.2219 385.292L233.534 447.167C242.362 450.161 251.931 450.161 260.759 447.167L436.072 385.292C438.084 384.588 439.829 383.278 441.066 381.543C442.304 379.807 442.973 377.73 442.981 375.598V202.451L260.862 266.286C252.049 269.367 242.451 269.367 233.638 266.286Z" stroke="#45413C" stroke-width="7" stroke-linecap="round" stroke-linejoin="round"/>
<path d="M247.25 430.873V291.654" stroke="#E04122" stroke-width="7" stroke-linecap="round" stroke-linejoin="round"/>
<path d="M233.637 194.097L41 126.653V191.519C41.0085 193.651 41.6774 195.727 42.9148 197.463C44.1521 199.199 45.897 200.509 47.9094 201.213L233.534 266.285C242.348 269.366 251.946 269.366 260.759 266.285L446.384 201.213C448.397 200.509 450.142 199.199 451.379 197.463C452.616 195.727 453.285 193.651 453.294 191.519V126.653L260.863 194.097C252.049 197.178 242.451 197.178 233.637 194.097Z" fill="#FF866E"/>
<path d="M260.862 194.097C252.049 197.178 242.451 197.178 233.637 194.097L41 126.653V157.591L233.637 225.035C242.451 228.116 252.049 228.116 260.862 225.035L453.5 157.591V126.653L260.862 194.097Z" fill="#FFA694"/>
<path d="M233.638 194.097L41 126.653V191.519C41.0085 193.651 41.6774 195.727 42.9148 197.463C44.1521 199.199 45.897 200.509 47.9094 201.213L233.534 266.285C242.348 269.366 251.946 269.366 260.759 266.285L446.384 201.213C448.397 200.509 450.142 199.199 451.379 197.463C452.616 195.727 453.285 193.651 453.294 191.519V126.653L260.862 194.097C252.049 197.178 242.451 197.178 233.638 194.097Z" stroke="#45413C" stroke-width="7" stroke-linecap="round" stroke-linejoin="round"/>
<path d="M41 126.654L233.637 59.2102C242.451 56.1292 252.049 56.1292 260.862 59.2102L453.5 126.654L260.862 194.098C252.049 197.179 242.451 197.179 233.637 194.098L41 126.654Z" fill="#FF866E" stroke="#45413C" stroke-width="7" stroke-linecap="round" stroke-linejoin="round"/>
<path d="M109.781 150.785L156.703 167.182" stroke="#45413C" stroke-width="7" stroke-linecap="round" stroke-linejoin="round"/>
<path d="M92.5625 216.889V397.357L185.375 429.842V249.373L92.5625 216.889Z" fill="#EDDBFF"/>
<path d="M92.5625 216.889V268.451L185.375 300.936V249.373L92.5625 216.889Z" fill="#DABFF5"/>
<path d="M92.5625 216.889V397.357L185.375 429.842V249.373L92.5625 216.889Z" stroke="#45413C" stroke-width="7" stroke-linecap="round" stroke-linejoin="round"/>
<path d="M384.719 150.785L337.797 167.182" stroke="#45413C" stroke-width="7" stroke-linecap="round" stroke-linejoin="round"/>
<path d="M401.938 216.889V397.357L309.125 429.842V249.373L401.938 216.889Z" fill="#EDDBFF"/>
<path d="M401.938 216.889V268.451L309.125 300.936V249.373L401.938 216.889Z" fill="#DABFF5"/>
<path d="M401.938 216.889V397.357L309.125 429.842V249.373L401.938 216.889Z" stroke="#45413C" stroke-width="7" stroke-linecap="round" stroke-linejoin="round"/>
<path d="M216.314 137.482L231.783 111.701C231.783 111.701 167.949 28.3757 97.7204 48.6913C90.9785 50.6442 85.101 54.8317 81.0532 60.5661C77.0054 66.3005 75.0279 73.2409 75.4454 80.2476L77.5079 113.866L216.314 137.482Z" fill="#DABFF5" stroke="#45413C" stroke-width="7" stroke-linecap="round" stroke-linejoin="round"/>
<path d="M216.312 137.482C216.312 137.482 158.769 161.098 83.2812 122.839C81.3707 121.944 79.7807 120.484 78.7257 118.657C77.6707 116.83 77.2014 114.723 77.3813 112.621C77.5612 110.519 78.3814 108.523 79.7315 106.901C81.0815 105.28 82.8964 104.112 84.9312 103.554C107.85 96.7872 132.177 96.369 155.315 102.344C178.453 108.32 199.536 120.464 216.312 137.482Z" fill="#BF8DF2" stroke="#45413C" stroke-width="7" stroke-linecap="round" stroke-linejoin="round"/>
<path d="M278.703 137.482L263.234 111.701C263.234 111.701 327.069 28.3757 397.297 48.6913C403.962 50.721 409.747 54.9412 413.715 60.6683C417.682 66.3954 419.601 73.2942 419.159 80.2476L416.994 113.866L278.703 137.482Z" fill="#DABFF5" stroke="#45413C" stroke-width="7" stroke-linecap="round" stroke-linejoin="round"/>
<path d="M278.703 137.482C278.703 137.482 335.731 161.098 411.219 122.838C413.129 121.943 414.719 120.484 415.774 118.657C416.829 116.83 417.299 114.723 417.119 112.621C416.939 110.519 416.118 108.522 414.768 106.901C413.418 105.28 411.604 104.112 409.569 103.554C386.723 96.887 362.5 96.5204 339.463 102.493C316.426 108.466 295.432 120.555 278.703 137.482Z" fill="#BF8DF2" stroke="#45413C" stroke-width="7" stroke-linecap="round" stroke-linejoin="round"/>
<path d="M271.794 128.407C271.794 128.407 346.869 151.507 363.163 206.782L326.141 200.388L314.591 237.617C314.591 237.617 279.631 153.467 247.25 141.401L271.794 128.407Z" fill="#BF8DF2" stroke="#45413C" stroke-width="7" stroke-linecap="round" stroke-linejoin="round"/>
<path d="M200.844 115.619C200.844 125.192 205.733 134.372 214.436 141.141C223.139 147.91 234.942 151.713 247.25 151.713C259.558 151.713 271.361 147.91 280.064 141.141C288.767 134.372 293.656 125.192 293.656 115.619C293.656 106.046 288.767 96.8659 280.064 90.097C271.361 83.3281 259.558 79.5254 247.25 79.5254C234.942 79.5254 223.139 83.3281 214.436 90.097C205.733 96.8659 200.844 106.046 200.844 115.619Z" fill="#BF8DF2"/>
<path d="M247.25 100.15C256.347 99.5929 265.405 101.745 273.279 106.333C281.154 110.922 287.491 117.742 291.491 125.932C292.83 122.653 293.564 119.159 293.656 115.619C293.656 95.6129 273.031 79.5254 247.25 79.5254C221.469 79.5254 200.844 95.6129 200.844 115.619C200.936 119.159 201.67 122.653 203.009 125.932C207.009 117.742 213.346 110.922 221.221 106.333C229.095 101.745 238.153 99.5929 247.25 100.15Z" fill="#DABFF5"/>
<path d="M200.844 115.619C200.844 125.192 205.733 134.372 214.436 141.141C223.139 147.91 234.942 151.713 247.25 151.713C259.558 151.713 271.361 147.91 280.064 141.141C288.767 134.372 293.656 125.192 293.656 115.619C293.656 106.046 288.767 96.8659 280.064 90.097C271.361 83.3281 259.558 79.5254 247.25 79.5254C234.942 79.5254 223.139 83.3281 214.436 90.097C205.733 96.8659 200.844 106.046 200.844 115.619V115.619Z" stroke="#45413C" stroke-width="7" stroke-linecap="round" stroke-linejoin="round"/>
</svg>
