<svg width="496" height="496" viewBox="0 0 496 496" fill="none" xmlns="http://www.w3.org/2000/svg">
<path d="M423.583 211.736C423.571 203.561 420.622 195.661 415.274 189.478C409.926 183.295 402.534 179.239 394.446 178.05C380.29 103.34 320.258 47.8496 247.93 47.8496C175.602 47.8496 115.57 103.34 101.414 178.05C93.2665 179.158 85.7967 183.181 80.3884 189.375C74.9802 195.569 72 203.513 72 211.736C72 219.959 74.9802 227.904 80.3884 234.098C85.7967 240.291 93.2665 244.315 101.414 245.423C115.57 320.34 175.602 375.726 247.93 375.726C320.258 375.726 380.29 320.34 394.446 245.423C402.534 244.234 409.926 240.178 415.274 233.995C420.622 227.811 423.571 219.912 423.583 211.736Z" fill="#FFDA8F"/>
<path d="M101.479 212.256C108.245 178.375 126.542 147.886 153.255 125.979C179.969 104.071 213.448 92.098 247.995 92.098C282.542 92.098 316.022 104.071 342.735 125.979C369.449 147.886 387.745 178.375 394.511 212.256C399.583 212.892 404.45 214.65 408.757 217.403C413.064 220.155 416.704 223.833 419.412 228.169C422.078 223.353 423.535 217.962 423.658 212.458C423.78 206.955 422.564 201.504 420.115 196.575C417.665 191.645 414.055 187.384 409.596 184.157C405.136 180.931 399.959 178.836 394.511 178.053C380.355 103.343 320.323 47.8525 247.995 47.8525C175.667 47.8525 115.635 103.343 101.479 178.053C96.0309 178.836 90.8544 180.931 86.3945 184.157C81.9347 187.384 78.3249 191.645 75.8755 196.575C73.4261 201.504 72.2103 206.955 72.3326 212.458C72.4549 217.962 73.9117 223.353 76.5777 228.169C79.2858 223.833 82.9258 220.155 87.2332 217.403C91.5406 214.65 96.4072 212.892 101.479 212.256V212.256Z" fill="#FFE9BD"/>
<path d="M423.583 211.736C423.571 203.561 420.622 195.661 415.274 189.478C409.926 183.295 402.534 179.239 394.446 178.05C380.29 103.34 320.258 47.8496 247.93 47.8496C175.602 47.8496 115.57 103.34 101.414 178.05C93.2665 179.158 85.7967 183.181 80.3884 189.375C74.9802 195.569 72 203.513 72 211.736C72 219.959 74.9802 227.904 80.3884 234.098C85.7967 240.291 93.2665 244.315 101.414 245.423C115.57 320.34 175.602 375.726 247.93 375.726C320.258 375.726 380.29 320.34 394.446 245.423C402.534 244.234 409.926 240.178 415.274 233.995C420.622 227.811 423.571 219.912 423.583 211.736Z" stroke="#45413C" stroke-width="7" stroke-linecap="round" stroke-linejoin="round"/>
<path d="M202.084 279.006C201.044 278.993 200.014 279.208 199.065 279.635C198.117 280.062 197.273 280.691 196.594 281.479C195.915 282.267 195.416 283.194 195.133 284.195C194.849 285.195 194.789 286.246 194.955 287.273C197.036 299.829 203.506 311.239 213.213 319.47C222.92 327.702 235.234 332.219 247.961 332.219C260.687 332.219 273.001 327.702 282.708 319.47C292.415 311.239 298.886 299.829 300.967 287.273C301.133 286.246 301.072 285.195 300.789 284.195C300.505 283.194 300.007 282.267 299.327 281.479C298.648 280.691 297.804 280.062 296.856 279.635C295.908 279.208 294.877 278.993 293.837 279.006H202.084Z" fill="#FF6242"/>
<path d="M247.943 300.911C233.329 300.444 218.974 304.842 207.129 313.414C212.22 319.23 218.496 323.89 225.535 327.083C232.573 330.276 240.213 331.928 247.943 331.928C255.672 331.928 263.312 330.276 270.351 327.083C277.389 323.89 283.665 319.23 288.756 313.414C276.911 304.842 262.556 300.444 247.943 300.911V300.911Z" fill="#FFA694"/>
<path d="M202.084 279.006C201.044 278.993 200.014 279.208 199.065 279.635C198.117 280.062 197.273 280.691 196.594 281.479C195.915 282.267 195.416 283.194 195.133 284.195C194.849 285.195 194.789 286.246 194.955 287.273C197.036 299.829 203.506 311.239 213.213 319.47C222.92 327.702 235.234 332.219 247.961 332.219C260.687 332.219 273.001 327.702 282.708 319.47C292.415 311.239 298.886 299.829 300.967 287.273C301.133 286.246 301.072 285.195 300.789 284.195C300.505 283.194 300.007 282.267 299.327 281.479C298.648 280.691 297.804 280.062 296.856 279.635C295.908 279.208 294.877 278.993 293.837 279.006H202.084Z" stroke="#45413C" stroke-width="7" stroke-linecap="round" stroke-linejoin="round"/>
<path d="M135.617 256.067C135.617 258.643 137.326 261.114 140.369 262.935C143.411 264.757 147.537 265.78 151.839 265.78C156.142 265.78 160.268 264.757 163.31 262.935C166.352 261.114 168.061 258.643 168.061 256.067C168.061 253.491 166.352 251.02 163.31 249.198C160.268 247.377 156.142 246.354 151.839 246.354C147.537 246.354 143.411 247.377 140.369 249.198C137.326 251.02 135.617 253.491 135.617 256.067V256.067Z" fill="#FFBE3D"/>
<path d="M327.73 256.069C327.73 257.344 328.15 258.607 328.965 259.786C329.781 260.964 330.975 262.035 332.482 262.937C333.988 263.839 335.777 264.555 337.745 265.043C339.713 265.531 341.822 265.782 343.953 265.782C346.083 265.782 348.192 265.531 350.161 265.043C352.129 264.555 353.917 263.839 355.423 262.937C356.93 262.035 358.125 260.964 358.94 259.786C359.755 258.607 360.175 257.344 360.175 256.069C360.175 254.793 359.755 253.53 358.94 252.352C358.125 251.173 356.93 250.102 355.423 249.2C353.917 248.298 352.129 247.583 350.161 247.095C348.192 246.607 346.083 246.355 343.953 246.355C341.822 246.355 339.713 246.607 337.745 247.095C335.777 247.583 333.988 248.298 332.482 249.2C330.975 250.102 329.781 251.173 328.965 252.352C328.15 253.53 327.73 254.793 327.73 256.069Z" fill="#FFBE3D"/>
<path d="M250.051 131.827C262.365 131.701 274.134 126.726 282.805 117.98C279.906 118.945 276.871 119.433 273.816 119.427C269.1 119.418 264.465 118.208 260.345 115.913C256.226 113.618 252.758 110.312 250.268 106.307C247.778 102.303 246.348 97.7299 246.113 93.0199C245.877 88.3099 246.843 83.6174 248.921 79.3838C250.998 75.1503 254.119 71.515 257.989 68.82C261.858 66.125 266.35 64.4589 271.041 63.9785C275.732 63.4981 280.468 64.2192 284.804 66.0739C289.139 67.9286 292.932 70.8559 295.824 74.5805C293.878 65.9628 289.539 58.0697 283.305 51.8097C277.071 45.5497 269.197 41.1773 260.588 39.1958C251.979 37.2142 242.986 37.704 234.643 40.6088C226.3 43.5137 218.947 48.7154 213.43 55.6154C207.912 62.5153 204.456 70.833 203.457 79.6111C202.459 88.3892 203.959 97.2709 207.785 105.234C211.612 113.197 217.609 119.917 225.086 124.622C232.563 129.327 241.217 131.824 250.051 131.827Z" fill="#614B44"/>
<path d="M248.855 104.444C238.854 101.794 230.013 95.9054 223.713 87.698C217.413 79.4906 214.009 69.427 214.035 59.0802C213.932 57.4975 213.932 55.9097 214.035 54.3269C206.573 62.9169 202.528 73.9494 202.669 85.3269C202.818 94.5388 205.671 103.504 210.873 111.108C216.074 118.712 223.395 124.621 231.925 128.099C240.456 131.578 249.82 132.473 258.856 130.674C267.891 128.875 276.198 124.461 282.746 117.98C279.847 118.944 276.812 119.433 273.757 119.427C268.628 119.47 263.587 118.094 259.192 115.449C254.797 112.805 251.219 108.996 248.855 104.444V104.444Z" fill="#947063"/>
<path d="M250.051 131.827C262.365 131.701 274.134 126.726 282.805 117.98C279.906 118.945 276.871 119.433 273.816 119.427C269.1 119.418 264.465 118.208 260.345 115.913C256.226 113.618 252.758 110.312 250.268 106.307C247.778 102.303 246.348 97.7299 246.113 93.0199C245.877 88.3099 246.843 83.6174 248.921 79.3838C250.998 75.1503 254.119 71.515 257.989 68.82C261.858 66.125 266.35 64.4589 271.041 63.9785C275.732 63.4981 280.468 64.2192 284.804 66.0739C289.139 67.9286 292.932 70.8559 295.824 74.5805C293.878 65.9628 289.539 58.0697 283.305 51.8097C277.071 45.5497 269.197 41.1773 260.588 39.1958C251.979 37.2142 242.986 37.704 234.643 40.6088C226.3 43.5137 218.947 48.7154 213.43 55.6154C207.912 62.5153 204.456 70.833 203.457 79.6111C202.459 88.3892 203.959 97.2709 207.785 105.234C211.612 113.197 217.609 119.917 225.086 124.622C232.563 129.327 241.217 131.824 250.051 131.827Z" stroke="#45413C" stroke-width="7" stroke-linecap="round" stroke-linejoin="round"/>
<path d="M193.244 201.404C191.916 198.4 189.745 195.847 186.993 194.055C184.242 192.263 181.029 191.309 177.745 191.309C174.461 191.309 171.248 192.263 168.497 194.055C165.745 195.847 163.574 198.4 162.246 201.404" stroke="#45413C" stroke-width="7" stroke-linecap="round" stroke-linejoin="round"/>
<path d="M333.869 201.404C332.541 198.4 330.37 195.847 327.618 194.055C324.867 192.263 321.654 191.309 318.37 191.309C315.086 191.309 311.873 192.263 309.122 194.055C306.37 195.847 304.199 198.4 302.871 201.404" stroke="#45413C" stroke-width="7" stroke-linecap="round" stroke-linejoin="round"/>
</svg>
