<svg width="495" height="495" viewBox="0 0 495 495" fill="none" xmlns="http://www.w3.org/2000/svg">
<path d="M102.95 244.264C106.99 230.332 108.868 215.864 108.519 201.364C108.252 193.378 109.644 185.424 112.608 178.004C115.573 170.584 120.045 163.86 125.741 158.257L135.435 148.667C141.01 142.963 147.715 138.485 155.12 135.52C162.524 132.554 170.466 131.166 178.438 131.445C192.988 131.686 207.489 129.704 221.441 125.567C279.397 109.995 342.407 133.301 388.297 179.089C434.188 224.876 457.391 288.298 441.819 346.357C437.813 360.293 435.969 374.762 436.353 389.257C436.577 397.246 435.154 405.196 432.173 412.612C429.193 420.028 424.718 426.751 419.028 432.364L409.438 441.954C403.835 447.651 397.111 452.122 389.691 455.087C382.271 458.051 374.317 459.444 366.332 459.176C351.832 458.84 337.365 460.718 323.432 464.745C265.372 480.317 202.363 457.01 156.575 411.223C110.788 365.435 87.4817 302.323 102.95 244.264Z" fill="#FFE500"/>
<path d="M388.301 230.96C342.41 185.173 279.401 161.867 221.445 177.439C207.477 181.471 192.976 183.349 178.441 183.007C170.47 182.729 162.528 184.117 155.123 187.082C147.719 190.048 141.014 194.525 135.438 200.229L125.745 209.82C120.048 215.423 115.576 222.147 112.612 229.566C109.647 236.986 108.255 244.94 108.523 252.926C108.865 267.426 106.987 281.894 102.954 295.826C102.026 299.539 101.201 303.251 100.479 307.067C96.8103 286.196 97.6542 264.781 102.954 244.264C106.993 230.332 108.872 215.864 108.523 201.364C108.255 193.378 109.647 185.424 112.612 178.004C115.576 170.584 120.048 163.86 125.745 158.257L135.438 148.667C141.014 142.963 147.719 138.485 155.123 135.52C162.528 132.554 170.47 131.166 178.441 131.445C192.991 131.686 207.493 129.704 221.445 125.567C279.401 109.995 342.41 133.301 388.301 179.089C430.891 222.298 454.301 280.254 444.401 335.117C436.777 295.483 417.2 259.135 388.301 230.96V230.96Z" fill="#FFF48C"/>
<path d="M102.95 244.264C106.99 230.332 108.868 215.864 108.519 201.364C108.252 193.378 109.644 185.424 112.608 178.004C115.573 170.584 120.045 163.86 125.741 158.257L135.435 148.667C141.01 142.963 147.715 138.485 155.12 135.52C162.524 132.554 170.466 131.166 178.438 131.445C192.988 131.686 207.489 129.704 221.441 125.567C279.397 109.995 342.407 133.301 388.297 179.089C434.188 224.876 457.391 288.298 441.819 346.357C437.813 360.293 435.969 374.762 436.353 389.257C436.577 397.246 435.154 405.196 432.173 412.612C429.193 420.028 424.718 426.751 419.028 432.364L409.438 441.954C403.835 447.651 397.111 452.122 389.691 455.087C382.271 458.051 374.317 459.444 366.332 459.176C351.832 458.84 337.365 460.718 323.432 464.745C265.372 480.317 202.363 457.01 156.575 411.223C110.788 365.435 87.4817 302.323 102.95 244.264Z" stroke="#45413C" stroke-width="7" stroke-linecap="round" stroke-linejoin="round"/>
<path d="M149.672 156.503C131.381 136.015 107.904 120.839 81.7125 112.572C56.1375 105.663 50.775 121.234 49.3313 133.197C49.1014 136.185 50.0527 139.145 51.9809 141.439C53.9092 143.734 56.6604 145.181 59.6438 145.469C86.3062 148.358 111.863 157.703 134.1 172.694C148.022 173.725 149.672 156.503 149.672 156.503Z" fill="#DEBB7E"/>
<path d="M143.278 169.601C126.049 152.266 104.789 139.474 81.4031 132.373C63.8719 127.732 55.725 133.61 51.9094 141.551C49.8714 139.222 48.8339 136.184 49.0219 133.095C49.95 121.338 55.8281 105.766 81.4031 112.47C107.717 120.715 131.308 135.932 149.672 156.504C149.07 161.463 146.818 166.076 143.278 169.601V169.601Z" fill="#F0D5A8"/>
<path d="M149.672 156.504C131.351 136.051 107.884 120.881 81.7125 112.572C56.1375 105.766 50.775 121.338 49.3313 133.197C49.1014 136.186 50.0527 139.145 51.9809 141.44C53.9092 143.734 56.6604 145.181 59.6438 145.469C86.2968 148.399 111.844 157.74 134.1 172.694C148.022 173.622 149.672 156.504 149.672 156.504Z" stroke="#45413C" stroke-width="7" stroke-linecap="round" stroke-linejoin="round"/>
<path d="M149.152 156.504C143.109 138.754 142.522 119.601 147.466 101.514C152.411 83.427 162.66 67.2361 176.892 55.0288C190.596 40.6995 208.372 30.9273 227.813 27.0353C247.254 23.1433 267.422 25.3196 285.586 33.2694C287.581 34.1447 289.273 35.5911 290.447 37.4263C291.622 39.2615 292.227 41.4034 292.186 43.5819C292.398 59.2988 289.015 74.8561 282.295 89.0653C275.574 103.275 265.695 115.76 253.411 125.566C212.677 156.504 171.014 120.823 149.152 156.504Z" fill="#6DD627"/>
<path d="M285.586 63.6912C267.457 55.7208 247.322 53.4939 227.889 57.3103C208.457 61.1267 190.66 70.8033 176.892 85.0381C160.272 99.825 149.179 119.828 145.439 141.757C142.757 125.738 144.242 109.299 149.75 94.0197C155.259 78.7406 164.606 65.1357 176.892 54.5131C190.655 40.2702 208.459 30.5955 227.898 26.7963C247.336 22.9971 267.472 25.2566 285.586 33.2694C287.581 34.1446 289.273 35.591 290.447 37.4262C291.622 39.2615 292.227 41.4034 292.186 43.5819C292.091 51.4504 291.227 59.2908 289.607 66.9912C288.549 65.5864 287.17 64.455 285.586 63.6912V63.6912Z" fill="#9CEB60"/>
<path d="M149.152 156.504C143.109 138.754 142.522 119.601 147.466 101.514C152.411 83.427 162.66 67.2361 176.892 55.0288C190.596 40.6995 208.372 30.9273 227.813 27.0353C247.254 23.1433 267.422 25.3196 285.586 33.2694C287.581 34.1447 289.273 35.5911 290.447 37.4263C291.622 39.2615 292.227 41.4034 292.186 43.5819C292.398 59.2988 289.015 74.8561 282.295 89.0653C275.574 103.275 265.695 115.76 253.411 125.566C212.677 156.504 171.014 120.823 149.152 156.504Z" stroke="#45413C" stroke-width="7" stroke-linecap="round" stroke-linejoin="round"/>
<path d="M149.155 156.504C149.155 156.504 149.155 95.3506 206.492 70.085" stroke="#45413C" stroke-width="7" stroke-linecap="round" stroke-linejoin="round"/>
</svg>
