<svg width="495" height="495" viewBox="0 0 495 495" fill="none" xmlns="http://www.w3.org/2000/svg">
<path d="M196.156 242.124C177.594 224.284 161.609 177.465 149.441 142.505C149.079 141.51 148.42 140.65 147.553 140.042C146.686 139.434 145.653 139.108 144.594 139.108C143.535 139.108 142.502 139.434 141.634 140.042C140.767 140.65 140.108 141.51 139.747 142.505C127.578 177.465 111.594 224.284 93.0312 242.124H196.156Z" fill="#EBCB00" stroke="#45413C" stroke-width="7" stroke-linecap="round" stroke-linejoin="round"/>
<path d="M299.281 242.124C317.844 224.284 333.828 177.465 345.997 142.505C346.358 141.51 347.017 140.65 347.884 140.042C348.752 139.434 349.785 139.108 350.844 139.108C351.903 139.108 352.936 139.434 353.803 140.042C354.67 140.65 355.329 141.51 355.691 142.505C367.859 177.465 383.844 224.284 402.406 242.124H299.281Z" fill="#EBCB00" stroke="#45413C" stroke-width="7" stroke-linecap="round" stroke-linejoin="round"/>
<path d="M242.925 110.332C243.281 109.36 243.927 108.522 244.776 107.93C245.624 107.337 246.634 107.02 247.668 107.02C248.703 107.02 249.713 107.337 250.561 107.93C251.41 108.522 252.056 109.36 252.412 110.332C266.231 145.497 307.687 242.125 345.225 242.125C377.915 242.125 410.709 195.925 427.106 168.7C427.748 167.768 428.673 167.068 429.744 166.703C430.815 166.339 431.976 166.329 433.053 166.677C434.13 167.024 435.066 167.71 435.723 168.632C436.379 169.554 436.721 170.663 436.697 171.794L428.137 319.469C428.137 356.491 347.287 386.5 247.668 386.5C148.05 386.5 67.1996 356.491 67.1996 319.469L58.2278 171.794C58.2037 170.663 58.5452 169.554 59.2016 168.632C59.858 167.71 60.7942 167.024 61.8713 166.677C62.9484 166.329 64.1088 166.339 65.1802 166.703C66.2515 167.068 67.1768 167.768 67.8184 168.7C84.2153 195.719 117.009 242.125 149.7 242.125C187.65 242.125 229.106 145.497 242.925 110.332Z" fill="#FFE500"/>
<path d="M128.012 369.588L297.034 200.566C279.418 171.935 264.504 141.726 252.484 110.332C252.128 109.36 251.481 108.522 250.633 107.93C249.785 107.337 248.775 107.02 247.74 107.02C246.706 107.02 245.696 107.337 244.847 107.93C243.999 108.522 243.353 109.36 242.997 110.332C229.178 145.497 187.721 242.125 150.184 242.125C117.493 242.125 84.6996 195.925 68.3028 168.7C67.6611 167.768 66.7359 167.068 65.6645 166.703C64.5931 166.339 63.4327 166.329 62.3557 166.677C61.2786 167.024 60.3423 167.71 59.6859 168.632C59.0295 169.554 58.688 170.663 58.7121 171.794L67.2715 319.469C67.2715 339.372 90.8871 357.213 128.012 369.588Z" fill="#FFF48C"/>
<path d="M242.925 110.332C243.281 109.36 243.927 108.522 244.776 107.93C245.624 107.337 246.634 107.02 247.668 107.02C248.703 107.02 249.713 107.337 250.561 107.93C251.41 108.522 252.056 109.36 252.412 110.332C266.231 145.497 307.687 242.125 345.225 242.125C377.915 242.125 410.709 195.925 427.106 168.7C427.748 167.768 428.673 167.068 429.744 166.703C430.815 166.339 431.976 166.329 433.053 166.677C434.13 167.024 435.066 167.71 435.723 168.632C436.379 169.554 436.721 170.663 436.697 171.794L428.137 319.469C428.137 356.491 347.287 386.5 247.668 386.5C148.05 386.5 67.1996 356.491 67.1996 319.469L58.2278 171.794C58.2037 170.663 58.5452 169.554 59.2016 168.632C59.858 167.71 60.7942 167.024 61.8713 166.677C62.9484 166.329 64.1088 166.339 65.1802 166.703C66.2515 167.068 67.1768 167.768 67.8184 168.7C84.2153 195.719 117.009 242.125 149.7 242.125C187.65 242.125 229.106 145.497 242.925 110.332Z" stroke="#45413C" stroke-width="7" stroke-linecap="round" stroke-linejoin="round"/>
<path d="M283.812 278.219C283.812 268.646 280.01 259.465 273.241 252.697C266.472 245.928 257.291 242.125 247.719 242.125C238.146 242.125 228.965 245.928 222.197 252.697C215.428 259.465 211.625 268.646 211.625 278.219V298.844C211.625 308.416 215.428 317.597 222.197 324.366C228.965 331.135 238.146 334.937 247.719 334.937C257.291 334.937 266.472 331.135 273.241 324.366C280.01 317.597 283.812 308.416 283.812 298.844V278.219Z" fill="#53AEF9"/>
<path d="M247.719 319.469C238.146 319.469 228.965 315.666 222.197 308.897C215.428 302.128 211.625 292.948 211.625 283.375V298.844C211.625 308.416 215.428 317.597 222.197 324.366C228.965 331.135 238.146 334.937 247.719 334.937C257.291 334.937 266.472 331.135 273.241 324.366C280.01 317.597 283.812 308.416 283.812 298.844V283.375C283.812 292.948 280.01 302.128 273.241 308.897C266.472 315.666 257.291 319.469 247.719 319.469Z" fill="#2A5FD5"/>
<path d="M247.761 242.125C238.189 242.125 229.008 245.928 222.239 252.697C215.47 259.465 211.667 268.646 211.667 278.219V298.844C211.611 299.702 211.611 300.563 211.667 301.422C212.353 292.401 216.42 283.971 223.056 277.821C229.691 271.67 238.404 268.253 247.452 268.253C256.499 268.253 265.213 271.67 271.848 277.821C278.483 283.971 282.551 292.401 283.236 301.422C283.293 300.563 283.293 299.702 283.236 298.844V278.219C283.238 268.752 279.52 259.664 272.884 252.913C266.249 246.162 257.226 242.287 247.761 242.125Z" fill="#80F6FD"/>
<path d="M283.812 278.219C283.812 268.646 280.01 259.465 273.241 252.697C266.472 245.928 257.291 242.125 247.719 242.125C238.146 242.125 228.965 245.928 222.197 252.697C215.428 259.465 211.625 268.646 211.625 278.219V298.844C211.625 308.416 215.428 317.597 222.197 324.366C228.965 331.135 238.146 334.937 247.719 334.937C257.291 334.937 266.472 331.135 273.241 324.366C280.01 317.597 283.812 308.416 283.812 298.844V278.219Z" stroke="#45413C" stroke-width="7" stroke-linecap="round" stroke-linejoin="round"/>
<path d="M345.688 293.687C345.688 299.158 347.86 304.404 351.728 308.272C355.596 312.14 360.842 314.312 366.312 314.312C371.783 314.312 377.029 312.14 380.897 308.272C384.765 304.404 386.938 299.158 386.938 293.687C386.938 288.217 384.765 282.971 380.897 279.103C377.029 275.235 371.783 273.062 366.312 273.062C360.842 273.062 355.596 275.235 351.728 279.103C347.86 282.971 345.688 288.217 345.688 293.687Z" fill="#53AEF9" stroke="#45413C" stroke-width="7" stroke-linecap="round" stroke-linejoin="round"/>
<path d="M108.5 293.687C108.5 299.158 110.673 304.404 114.541 308.272C118.409 312.14 123.655 314.312 129.125 314.312C134.595 314.312 139.841 312.14 143.709 308.272C147.577 304.404 149.75 299.158 149.75 293.687C149.75 288.217 147.577 282.971 143.709 279.103C139.841 275.235 134.595 273.062 129.125 273.062C123.655 273.062 118.409 275.235 114.541 279.103C110.673 282.971 108.5 288.217 108.5 293.687Z" fill="#53AEF9" stroke="#45413C" stroke-width="7" stroke-linecap="round" stroke-linejoin="round"/>
<path d="M67.25 371.031C67.25 408.053 148.1 438.062 247.719 438.062C347.337 438.062 428.188 408.053 428.188 371.031V319.469C428.188 356.491 347.337 386.5 247.719 386.5C148.1 386.5 67.25 356.491 67.25 319.469V371.031Z" fill="#C0DCEB"/>
<path d="M247.719 386.5C148.1 386.5 67.25 356.491 67.25 319.469V345.25C67.25 382.272 148.1 412.281 247.719 412.281C347.337 412.281 428.188 382.272 428.188 345.25V319.469C428.188 356.491 347.337 386.5 247.719 386.5Z" fill="#E8F4FA"/>
<path d="M67.25 371.031C67.25 408.053 148.1 438.062 247.719 438.062C347.337 438.062 428.188 408.053 428.188 371.031V319.469C428.188 356.491 347.337 386.5 247.719 386.5C148.1 386.5 67.25 356.491 67.25 319.469V371.031Z" stroke="#45413C" stroke-width="7" stroke-linecap="round" stroke-linejoin="round"/>
<path d="M118.812 118.375C118.813 125.213 121.529 131.77 126.364 136.605C131.199 141.44 137.756 144.156 144.594 144.156C151.431 144.156 157.989 141.44 162.824 136.605C167.659 131.77 170.375 125.213 170.375 118.375C170.375 111.537 167.659 104.98 162.824 100.145C157.989 95.31 151.431 92.5938 144.594 92.5938C137.756 92.5938 131.199 95.31 126.364 100.145C121.529 104.98 118.812 111.537 118.812 118.375Z" fill="#53AEF9"/>
<path d="M126.373 136.63C121.532 131.789 118.812 125.224 118.812 118.377C118.813 111.531 121.532 104.965 126.373 100.124C131.214 95.2831 137.78 92.5635 144.626 92.5635C151.473 92.5635 158.038 95.2831 162.879 100.124L126.373 136.63Z" fill="#80F6FD"/>
<path d="M118.812 118.375C118.813 125.213 121.529 131.77 126.364 136.605C131.199 141.44 137.756 144.156 144.594 144.156C151.431 144.156 157.989 141.44 162.824 136.605C167.659 131.77 170.375 125.213 170.375 118.375C170.375 111.537 167.659 104.98 162.824 100.145C157.989 95.31 151.431 92.5938 144.594 92.5938C137.756 92.5938 131.199 95.31 126.364 100.145C121.529 104.98 118.812 111.537 118.812 118.375V118.375Z" stroke="#45413C" stroke-width="7" stroke-linecap="round" stroke-linejoin="round"/>
<path d="M26 139C26 143.063 26.8002 147.086 28.355 150.839C29.9097 154.593 32.1886 158.003 35.0614 160.876C37.9342 163.749 41.3447 166.028 45.0982 167.583C48.8517 169.137 52.8747 169.938 56.9375 169.938C61.0003 169.938 65.0233 169.137 68.7768 167.583C72.5303 166.028 75.9408 163.749 78.8136 160.876C81.6864 158.003 83.9653 154.593 85.52 150.839C87.0748 147.086 87.875 143.063 87.875 139C87.875 134.937 87.0748 130.914 85.52 127.161C83.9653 123.407 81.6864 119.997 78.8136 117.124C75.9408 114.251 72.5303 111.972 68.7768 110.417C65.0233 108.863 61.0003 108.063 56.9375 108.062C52.8747 108.063 48.8517 108.863 45.0982 110.417C41.3447 111.972 37.9342 114.251 35.0614 117.124C32.1886 119.997 29.9097 123.407 28.355 127.161C26.8002 130.914 26 134.937 26 139Z" fill="#53AEF9"/>
<path d="M35.108 160.861C29.6432 154.997 26.6681 147.24 26.8095 139.225C26.9509 131.21 30.1978 123.563 35.8661 117.894C41.5344 112.226 49.1815 108.979 57.1964 108.838C65.2113 108.696 72.9683 111.671 78.833 117.136L35.108 160.861Z" fill="#80F6FD"/>
<path d="M26 139C26 143.063 26.8002 147.086 28.355 150.839C29.9097 154.593 32.1886 158.003 35.0614 160.876C37.9342 163.749 41.3447 166.028 45.0982 167.583C48.8517 169.137 52.8747 169.938 56.9375 169.938C61.0003 169.938 65.0233 169.137 68.7768 167.583C72.5303 166.028 75.9408 163.749 78.8136 160.876C81.6864 158.003 83.9653 154.593 85.52 150.839C87.0748 147.086 87.875 143.063 87.875 139C87.875 134.937 87.0748 130.914 85.52 127.161C83.9653 123.407 81.6864 119.997 78.8136 117.124C75.9408 114.251 72.5303 111.972 68.7768 110.417C65.0233 108.863 61.0003 108.063 56.9375 108.062C52.8747 108.063 48.8517 108.863 45.0982 110.417C41.3447 111.972 37.9342 114.251 35.0614 117.124C32.1886 119.997 29.9097 123.407 28.355 127.161C26.8002 130.914 26 134.937 26 139V139Z" stroke="#45413C" stroke-width="7" stroke-linecap="round" stroke-linejoin="round"/>
<path d="M216.781 87.4375C216.781 95.6426 220.041 103.512 225.843 109.314C231.645 115.116 239.514 118.375 247.719 118.375C255.924 118.375 263.793 115.116 269.595 109.314C275.397 103.512 278.656 95.6426 278.656 87.4375C278.656 79.2324 275.397 71.3633 269.595 65.5614C263.793 59.7595 255.924 56.5 247.719 56.5C239.514 56.5 231.645 59.7595 225.843 65.5614C220.041 71.3633 216.781 79.2324 216.781 87.4375Z" fill="#53AEF9"/>
<path d="M225.889 109.299C220.424 103.434 217.449 95.6772 217.591 87.6622C217.732 79.6473 220.979 72.0002 226.647 66.3319C232.316 60.6636 239.963 57.4167 247.978 57.2753C255.993 57.1339 263.75 60.109 269.614 65.5738L225.889 109.299Z" fill="#80F6FD"/>
<path d="M216.781 87.4375C216.781 95.6426 220.041 103.512 225.843 109.314C231.645 115.116 239.514 118.375 247.719 118.375C255.924 118.375 263.793 115.116 269.595 109.314C275.397 103.512 278.656 95.6426 278.656 87.4375C278.656 79.2324 275.397 71.3633 269.595 65.5614C263.793 59.7595 255.924 56.5 247.719 56.5C239.514 56.5 231.645 59.7595 225.843 65.5614C220.041 71.3633 216.781 79.2324 216.781 87.4375V87.4375Z" stroke="#45413C" stroke-width="7" stroke-linecap="round" stroke-linejoin="round"/>
<path d="M407.562 139C407.562 147.205 410.822 155.074 416.624 160.876C422.426 166.678 430.295 169.938 438.5 169.938C446.705 169.938 454.574 166.678 460.376 160.876C466.178 155.074 469.438 147.205 469.438 139C469.438 130.795 466.178 122.926 460.376 117.124C454.574 111.322 446.705 108.062 438.5 108.062C430.295 108.062 422.426 111.322 416.624 117.124C410.822 122.926 407.562 130.795 407.562 139Z" fill="#53AEF9"/>
<path d="M416.605 160.864C413.565 158.031 411.127 154.616 409.436 150.821C407.745 147.026 406.836 142.929 406.763 138.775C406.689 134.621 407.453 130.495 409.009 126.643C410.565 122.791 412.881 119.291 415.819 116.353C418.757 113.416 422.256 111.1 426.109 109.544C429.961 107.988 434.087 107.224 438.241 107.297C442.395 107.37 446.492 108.279 450.287 109.97C454.082 111.661 457.497 114.099 460.33 117.139L416.605 160.864Z" fill="#80F6FD"/>
<path d="M407.562 139C407.562 147.205 410.822 155.074 416.624 160.876C422.426 166.678 430.295 169.937 438.5 169.938C446.705 169.937 454.574 166.678 460.376 160.876C466.178 155.074 469.438 147.205 469.438 139C469.438 130.795 466.178 122.926 460.376 117.124C454.574 111.322 446.705 108.062 438.5 108.062C430.295 108.062 422.426 111.322 416.624 117.124C410.822 122.926 407.562 130.795 407.562 139Z" stroke="#45413C" stroke-width="7" stroke-linecap="round" stroke-linejoin="round"/>
</svg>
