<svg width="496" height="496" viewBox="0 0 496 496" fill="none" xmlns="http://www.w3.org/2000/svg">
<path d="M115.375 14.4135C107.724 14.4427 100.104 15.4039 92.6771 17.2767C75.5127 21.285 53.0959 27.9657 32.7425 23.9573C31.9297 29.2888 32.2013 34.7334 33.5404 39.9537C34.8795 45.1741 37.2576 50.0592 40.5275 54.3064C29.8649 69.7994 24.1651 88.265 24.2073 107.179V155.661H206.825V107.179C206.825 94.9726 204.457 82.8864 199.858 71.6129C195.259 60.3394 188.518 50.1003 180.023 41.4824C171.527 32.8646 161.444 26.0376 150.35 21.3925C139.257 16.7475 127.371 14.3759 115.375 14.4135Z" fill="#A86C4D"/>
<path d="M115.376 14.4135C107.724 14.4427 100.104 15.4039 92.6774 17.2767C75.5131 21.285 53.0963 27.9657 32.7429 23.9573C31.3695 33.9601 33.6018 44.1307 39.0271 52.5886C57.1871 52.9294 75.2881 50.3856 92.6774 45.049C100.104 43.1763 107.724 42.2151 115.376 42.1859C127.356 42.1482 139.226 44.5136 150.307 49.1467C161.389 53.7798 171.464 60.5898 179.957 69.1874C188.45 77.785 195.194 88.0015 199.805 99.253C204.415 110.504 206.801 122.57 206.825 134.76V107.179C206.825 94.9727 204.458 82.8864 199.859 71.6129C195.259 60.3394 188.519 50.1003 180.023 41.4824C171.528 32.8646 161.444 26.0376 150.351 21.3925C139.257 16.7475 127.372 14.3759 115.376 14.4135Z" fill="#DE926A"/>
<path d="M115.375 14.4135C107.724 14.4427 100.104 15.4039 92.6771 17.2767C75.5127 21.285 53.0959 27.9657 32.7425 23.9573C31.9297 29.2888 32.2013 34.7334 33.5404 39.9537C34.8795 45.1741 37.2576 50.0592 40.5275 54.3065C29.8649 69.7994 24.1651 88.265 24.2073 107.179V155.661H206.825V107.179C206.825 94.9726 204.457 82.8864 199.858 71.6129C195.259 60.3394 188.518 50.1003 180.023 41.4824C171.527 32.8646 161.444 26.0376 150.35 21.3925C139.257 16.7475 127.371 14.3759 115.375 14.4135V14.4135Z" stroke="#45413C" stroke-width="7" stroke-linecap="round" stroke-linejoin="round"/>
<path d="M115.376 243.941C129.849 243.941 144.18 246.842 157.551 252.477C170.922 258.113 183.072 266.373 193.305 276.786C203.539 287.199 211.657 299.561 217.195 313.167C222.734 326.772 225.585 341.354 225.585 356.081V454H5.16797V356.081C5.16797 341.354 8.01859 326.772 13.5571 313.167C19.0956 299.561 27.2134 287.199 37.4472 276.786C58.1153 255.756 86.1472 243.941 115.376 243.941Z" fill="#00B8F0"/>
<path d="M115.376 243.941C86.1472 243.941 58.1153 255.756 37.4472 276.786C16.7792 297.816 5.16797 326.339 5.16797 356.081V390.343C5.16797 360.602 16.7792 332.079 37.4472 311.048C58.1153 290.018 86.1472 278.204 115.376 278.204C144.605 278.204 172.637 290.018 193.305 311.048C213.973 332.079 225.585 360.602 225.585 390.343V356.081C225.585 341.354 222.734 326.772 217.195 313.167C211.657 299.561 203.539 287.199 193.305 276.786C183.072 266.373 170.922 258.113 157.551 252.477C144.18 246.842 129.849 243.941 115.376 243.941Z" fill="#009FD9"/>
<path d="M115.376 243.941C129.849 243.941 144.18 246.842 157.551 252.477C170.922 258.113 183.072 266.373 193.305 276.786C203.539 287.199 211.657 299.561 217.195 313.167C222.734 326.772 225.585 341.354 225.585 356.081V454H5.16797V356.081C5.16797 341.354 8.01859 326.772 13.5571 313.167C19.0956 299.561 27.2134 287.199 37.4472 276.786C58.1153 255.756 86.1472 243.941 115.376 243.941V243.941Z" stroke="#45413C" stroke-width="7" stroke-linecap="round" stroke-linejoin="round"/>
<path d="M91.7383 205.671H138.917V280.589H91.7383V205.671Z" fill="#FFCEBF"/>
<path d="M91.7383 205.671H138.917V261.216H91.7383V205.671Z" fill="#FFB59E"/>
<path d="M91.7383 205.671H138.917V280.589H91.7383V205.671Z" stroke="#45413C" stroke-width="7" stroke-linecap="round" stroke-linejoin="round"/>
<path d="M216.204 147.264C215.411 143.173 213.229 139.496 210.039 136.878C206.849 134.261 202.855 132.869 198.758 132.948C194.827 132.948 191.058 131.359 188.279 128.531C185.5 125.703 183.938 121.868 183.938 117.869V94.3911C183.981 90.431 182.721 86.5701 180.358 83.4226C177.996 80.2752 174.667 78.022 170.901 77.0215C153.252 84.1882 134.374 87.6926 115.375 87.3287C96.3758 87.6926 77.4972 84.1882 59.8485 77.0215C56.1872 78.1281 52.9841 80.4267 50.7306 83.5644C48.4771 86.7021 47.2978 90.5056 47.3738 94.3911V117.869C47.3738 119.849 46.9905 121.81 46.2458 123.639C45.501 125.469 44.4094 127.131 43.0333 128.531C41.6572 129.932 40.0235 131.042 38.2255 131.8C36.4275 132.558 34.5004 132.948 32.5543 132.948C28.4571 132.869 24.4634 134.261 21.2734 136.878C18.0835 139.496 15.901 143.173 15.1086 147.264C14.6984 149.718 14.8206 152.235 15.4666 154.636C16.1126 157.038 17.2668 159.267 18.8483 161.167C20.4298 163.067 22.4004 164.593 24.6222 165.637C26.8439 166.68 29.263 167.217 31.7102 167.21H32.7419C36.2235 187.06 46.4569 205.03 61.6501 217.975C76.8433 230.919 96.0277 238.013 115.844 238.013C135.66 238.013 154.844 230.919 170.037 217.975C185.23 205.03 195.464 187.06 198.945 167.21H199.977C202.393 167.163 204.769 166.585 206.945 165.517C209.121 164.45 211.045 162.917 212.586 161.023C214.126 159.129 215.247 156.92 215.871 154.545C216.495 152.171 216.609 149.687 216.204 147.264Z" fill="#FFCEBF" stroke="#45413C" stroke-width="7" stroke-linecap="round" stroke-linejoin="round"/>
<path d="M64.9141 146.595C64.9387 148.527 65.7105 150.372 67.0623 151.73C68.414 153.087 70.2369 153.848 72.1362 153.848C74.0268 153.848 75.8399 153.084 77.1767 151.724C78.5136 150.364 79.2646 148.519 79.2646 146.595C79.2646 144.671 78.5136 142.826 77.1767 141.466C75.8399 140.106 74.0268 139.342 72.1362 139.342C70.2369 139.342 68.414 140.103 67.0623 141.46C65.7105 142.818 64.9387 144.663 64.9141 146.595Z" fill="#45413C" stroke="#45413C" stroke-width="7" stroke-linecap="round" stroke-linejoin="round"/>
<path d="M165.839 146.595C165.814 148.527 165.042 150.372 163.691 151.73C162.339 153.087 160.516 153.848 158.617 153.848C156.726 153.848 154.913 153.084 153.576 151.724C152.239 150.364 151.488 148.519 151.488 146.595C151.488 144.671 152.239 142.826 153.576 141.466C154.913 140.106 156.726 139.342 158.617 139.342C160.516 139.342 162.339 140.103 163.691 141.46C165.042 142.818 165.814 144.663 165.839 146.595Z" fill="#45413C" stroke="#45413C" stroke-width="7" stroke-linecap="round" stroke-linejoin="round"/>
<path d="M89.0175 190.878C88.4251 190.897 87.8433 191.043 87.31 191.306C86.7767 191.569 86.3039 191.944 85.9222 192.405C85.5353 192.858 85.2508 193.392 85.0888 193.969C84.9267 194.546 84.8911 195.153 84.9843 195.745C86.2443 203.015 89.9812 209.6 95.5387 214.345C101.096 219.09 108.119 221.691 115.374 221.691C122.628 221.691 129.651 219.09 135.209 214.345C140.766 209.6 144.503 203.015 145.763 195.745C145.856 195.153 145.821 194.546 145.659 193.969C145.496 193.392 145.212 192.858 144.825 192.405C144.443 191.944 143.971 191.569 143.437 191.306C142.904 191.043 142.322 190.897 141.73 190.878H89.0175Z" fill="#FF6242"/>
<path d="M115.373 221.895C123.425 221.905 131.164 218.721 136.946 213.02C131.158 207.329 123.423 204.147 115.373 204.147C107.324 204.147 99.5894 207.329 93.8008 213.02C99.5834 218.721 107.322 221.905 115.373 221.895Z" fill="#FFA694"/>
<path d="M89.0175 190.878C88.4251 190.897 87.8433 191.043 87.31 191.306C86.7767 191.569 86.3039 191.944 85.9222 192.405C85.5353 192.858 85.2508 193.392 85.0888 193.969C84.9267 194.546 84.8911 195.153 84.9843 195.745C86.2443 203.015 89.9812 209.6 95.5387 214.345C101.096 219.09 108.119 221.691 115.374 221.691C122.628 221.691 129.651 219.09 135.209 214.345C140.766 209.6 144.503 203.015 145.763 195.745C145.856 195.153 145.821 194.546 145.659 193.969C145.496 193.392 145.212 192.858 144.825 192.405C144.443 191.944 143.971 191.569 143.437 191.306C142.904 191.043 142.322 190.897 141.73 190.878H89.0175Z" stroke="#45413C" stroke-width="7" stroke-linecap="round" stroke-linejoin="round"/>
<path d="M50.9375 453.999V351.213" stroke="#45413C" stroke-width="7" stroke-linecap="round" stroke-linejoin="round"/>
<path d="M50.9375 177.612C50.9375 179.106 51.9158 180.538 53.6572 181.594C55.3986 182.65 57.7604 183.243 60.2231 183.243C62.6858 183.243 65.0477 182.65 66.7891 181.594C68.5305 180.538 69.5088 179.106 69.5088 177.612C69.5088 176.119 68.5305 174.687 66.7891 173.631C65.0477 172.575 62.6858 171.981 60.2231 171.981C57.7604 171.981 55.3986 172.575 53.6572 173.631C51.9158 174.687 50.9375 176.119 50.9375 177.612Z" fill="#FFB59E"/>
<path d="M161.242 177.612C161.242 179.106 162.22 180.538 163.962 181.594C165.703 182.65 168.065 183.243 170.528 183.243C172.991 183.243 175.352 182.65 177.094 181.594C178.835 180.538 179.813 179.106 179.813 177.612C179.813 176.119 178.835 174.687 177.094 173.631C175.352 172.575 172.991 171.981 170.528 171.981C168.065 171.981 165.703 172.575 163.962 173.631C162.22 174.687 161.242 176.119 161.242 177.612Z" fill="#FFB59E"/>
<path d="M335.791 8.7832C362.557 8.7832 388.227 19.6024 407.154 38.8607C426.08 58.119 436.713 84.2388 436.713 111.474V245.087C436.701 247.399 436.018 249.656 434.75 251.574C433.481 253.493 431.685 254.988 429.585 255.871C369.379 280.403 302.202 280.403 241.996 255.871C239.971 255 238.233 253.557 236.987 251.714C235.741 249.871 235.038 247.704 234.962 245.469V111.856C234.912 98.3462 237.483 84.9595 242.527 72.4626C247.571 59.9657 254.989 48.6043 264.355 39.0293C273.722 29.4543 284.853 21.8541 297.111 16.6639C309.369 11.4737 322.513 8.79567 335.791 8.7832Z" fill="#A86C4D"/>
<path d="M335.794 8.7832C309.044 8.8085 283.398 19.6389 264.491 38.8944C245.585 58.1499 234.965 84.2553 234.965 111.474V141.728C234.94 128.234 237.53 114.868 242.584 102.393C247.639 89.9183 255.061 78.5794 264.425 69.0247C273.789 59.47 284.912 51.8868 297.158 46.7086C309.404 41.5303 322.533 38.8586 335.794 38.8461C349.063 38.846 362.202 41.5085 374.459 46.6812C386.715 51.8538 397.849 59.435 407.223 68.991C416.597 78.5469 424.027 89.89 429.088 102.371C434.149 114.852 436.741 128.226 436.717 141.728V111.474C436.717 84.2388 426.084 58.1189 407.157 38.8607C388.23 19.6024 362.56 8.7832 335.794 8.7832Z" fill="#DE926A"/>
<path d="M335.791 8.7832C362.557 8.7832 388.227 19.6024 407.154 38.8607C426.08 58.119 436.713 84.2388 436.713 111.474V245.087C436.701 247.399 436.018 249.656 434.75 251.574C433.481 253.493 431.685 254.988 429.585 255.871V255.871C369.379 280.403 302.202 280.403 241.996 255.871V255.871C239.971 255 238.233 253.557 236.987 251.714C235.741 249.871 235.038 247.704 234.962 245.469V111.856C234.912 98.3462 237.483 84.9595 242.527 72.4626C247.571 59.9657 254.989 48.6043 264.355 39.0293C273.722 29.4543 284.853 21.8541 297.111 16.6639C309.369 11.4737 322.513 8.79567 335.791 8.7832V8.7832Z" stroke="#45413C" stroke-width="7" stroke-linecap="round" stroke-linejoin="round"/>
<path d="M335.79 243.941C350.263 243.941 364.594 246.842 377.965 252.477C391.336 258.113 403.486 266.373 413.719 276.786C423.953 287.199 432.071 299.561 437.61 313.167C443.148 326.772 445.999 341.354 445.999 356.081V454H225.582V356.081C225.582 341.354 228.433 326.772 233.971 313.167C239.51 299.561 247.628 287.199 257.861 276.786C278.529 255.756 306.561 243.941 335.79 243.941Z" fill="#FF87AF"/>
<path d="M335.79 243.941C306.561 243.941 278.529 255.756 257.861 276.786C237.193 297.816 225.582 326.339 225.582 356.081V390.343C225.582 360.602 237.193 332.079 257.861 311.048C278.529 290.018 306.561 278.204 335.79 278.204C365.019 278.204 393.051 290.018 413.719 311.048C434.387 332.079 445.999 360.602 445.999 390.343V356.081C445.999 341.354 443.148 326.772 437.61 313.167C432.071 299.561 423.953 287.199 413.719 276.786C403.486 266.373 391.336 258.113 377.965 252.477C364.594 246.842 350.263 243.941 335.79 243.941Z" fill="#FF6196"/>
<path d="M335.79 243.941C350.263 243.941 364.594 246.842 377.965 252.477C391.336 258.113 403.486 266.373 413.719 276.786C423.953 287.199 432.071 299.561 437.61 313.167C443.148 326.772 445.999 341.354 445.999 356.081V454H225.582V356.081C225.582 341.354 228.433 326.772 233.971 313.167C239.51 299.561 247.628 287.199 257.861 276.786C278.529 255.756 306.561 243.941 335.79 243.941V243.941Z" stroke="#45413C" stroke-width="7" stroke-linecap="round" stroke-linejoin="round"/>
<path d="M312.156 205.671H359.335V280.589H312.156V205.671Z" fill="#FFCEBF" stroke="#45413C" stroke-width="7" stroke-linecap="round" stroke-linejoin="round"/>
<path d="M419.924 132.947C408.182 129.526 397.348 123.46 388.223 115.2C379.099 106.94 371.917 96.6962 367.211 85.2285L361.49 71.1992C339.121 101.859 306.123 122.708 269.196 129.512L251.657 132.661C247.409 132.984 243.437 134.929 240.54 138.106C237.642 141.283 236.031 145.458 236.031 149.792C236.031 154.127 237.642 158.301 240.54 161.478C243.437 164.655 247.409 166.6 251.657 166.923H252.688C256.17 186.773 266.403 204.743 281.597 217.688C296.79 230.632 315.974 237.726 335.79 237.726C355.606 237.726 374.791 230.632 389.984 217.688C405.177 204.743 415.41 186.773 418.892 166.923H419.924C424.172 166.6 428.143 164.655 431.041 161.478C433.939 158.301 435.549 154.127 435.549 149.792C435.549 145.458 433.939 141.283 431.041 138.106C428.143 134.929 424.172 132.984 419.924 132.661V132.947Z" fill="#FFCEBF" stroke="#45413C" stroke-width="7" stroke-linecap="round" stroke-linejoin="round"/>
<path d="M285.332 146.595C285.357 148.527 286.128 150.372 287.48 151.73C288.832 153.087 290.655 153.848 292.554 153.848C294.445 153.848 296.258 153.084 297.595 151.724C298.932 150.364 299.683 148.519 299.683 146.595C299.683 144.671 298.932 142.826 297.595 141.466C296.258 140.106 294.445 139.342 292.554 139.342C290.655 139.342 288.832 140.103 287.48 141.46C286.128 142.818 285.357 144.663 285.332 146.595Z" fill="#45413C" stroke="#45413C" stroke-width="7" stroke-linecap="round" stroke-linejoin="round"/>
<path d="M386.257 146.595C386.232 148.527 385.46 150.372 384.109 151.73C382.757 153.087 380.934 153.848 379.035 153.848C377.144 153.848 375.331 153.084 373.994 151.724C372.657 150.364 371.906 148.519 371.906 146.595C371.906 144.671 372.657 142.826 373.994 141.466C375.331 140.106 377.144 139.342 379.035 139.342C380.934 139.342 382.757 140.103 384.109 141.46C385.46 142.818 386.232 144.663 386.257 146.595Z" fill="#45413C" stroke="#45413C" stroke-width="7" stroke-linecap="round" stroke-linejoin="round"/>
<path d="M309.435 190.878C308.843 190.897 308.261 191.043 307.728 191.306C307.195 191.569 306.722 191.944 306.34 192.405C305.953 192.858 305.669 193.392 305.507 193.969C305.345 194.546 305.309 195.153 305.402 195.745C306.662 203.015 310.399 209.6 315.957 214.345C321.514 219.09 328.537 221.691 335.792 221.691C343.046 221.691 350.069 219.09 355.627 214.345C361.184 209.6 364.921 203.015 366.181 195.745C366.274 195.153 366.239 194.546 366.077 193.969C365.914 193.392 365.63 192.858 365.243 192.405C364.861 191.944 364.389 191.569 363.855 191.306C363.322 191.043 362.74 190.897 362.148 190.878H309.435Z" fill="#FF6242"/>
<path d="M335.795 221.895C343.847 221.905 351.585 218.721 357.368 213.02C351.579 207.329 343.845 204.147 335.795 204.147C327.746 204.147 320.011 207.329 314.223 213.02C320.005 218.721 327.744 221.905 335.795 221.895Z" fill="#FFA694"/>
<path d="M309.435 190.878C308.843 190.897 308.261 191.043 307.728 191.306C307.195 191.569 306.722 191.944 306.34 192.405C305.953 192.858 305.669 193.392 305.507 193.969C305.345 194.546 305.309 195.153 305.402 195.745C306.662 203.015 310.399 209.6 315.957 214.345C321.514 219.09 328.537 221.691 335.792 221.691C343.046 221.691 350.069 219.09 355.627 214.345C361.184 209.6 364.921 203.015 366.181 195.745C366.274 195.153 366.239 194.546 366.077 193.969C365.914 193.392 365.63 192.858 365.243 192.405C364.861 191.944 364.389 191.569 363.855 191.306C363.322 191.043 362.74 190.897 362.148 190.878H309.435Z" stroke="#45413C" stroke-width="7" stroke-linecap="round" stroke-linejoin="round"/>
<path d="M400.227 453.999V351.213" stroke="#45413C" stroke-width="7" stroke-linecap="round" stroke-linejoin="round"/>
<path d="M271.359 177.612C271.359 179.106 272.338 180.538 274.079 181.594C275.82 182.65 278.182 183.243 280.645 183.243C283.108 183.243 285.47 182.65 287.211 181.594C288.952 180.538 289.931 179.106 289.931 177.612C289.931 176.119 288.952 174.687 287.211 173.631C285.47 172.575 283.108 171.981 280.645 171.981C278.182 171.981 275.82 172.575 274.079 173.631C272.338 174.687 271.359 176.119 271.359 177.612Z" fill="#FFB59E"/>
<path d="M381.66 177.612C381.66 179.106 382.638 180.538 384.38 181.594C386.121 182.65 388.483 183.243 390.946 183.243C393.409 183.243 395.77 182.65 397.512 181.594C399.253 180.538 400.231 179.106 400.231 177.612C400.231 176.119 399.253 174.687 397.512 173.631C395.77 172.575 393.409 171.981 390.946 171.981C388.483 171.981 386.121 172.575 384.38 173.631C382.638 174.687 381.66 176.119 381.66 177.612Z" fill="#FFB59E"/>
<path d="M225.586 454C219.235 436.929 207.928 422.229 193.167 411.854C178.407 401.48 160.892 395.924 142.953 395.924C125.014 395.924 107.499 401.48 92.7388 411.854C77.9782 422.229 66.6709 436.929 60.3203 454H225.586Z" fill="#D91A1E"/>
<path d="M142.953 422.22C155.778 422.19 168.454 425.02 180.089 430.511C191.724 436.002 202.035 444.019 210.297 454H225.586C219.235 436.929 207.928 422.229 193.167 411.854C178.407 401.48 160.892 395.924 142.953 395.924C125.014 395.924 107.499 401.48 92.7388 411.854C77.9782 422.229 66.6709 436.929 60.3203 454H75.515C83.8043 444.027 94.134 436.016 105.782 430.526C117.43 425.037 130.116 422.202 142.953 422.22Z" fill="#C8161A"/>
<path d="M225.586 454C219.235 436.929 207.928 422.229 193.167 411.854C178.407 401.48 160.892 395.924 142.953 395.924C125.014 395.924 107.499 401.48 92.7388 411.854C77.9782 422.229 66.6709 436.929 60.3203 454H225.586Z" stroke="#45413C" stroke-width="7" stroke-linecap="round" stroke-linejoin="round"/>
<path d="M125.508 365.434H160.399V426.514H125.508V365.434Z" fill="#FFCEBF"/>
<path d="M125.508 365.434H160.399V409.717H125.508V365.434Z" fill="#FFB59E"/>
<path d="M125.508 365.434H160.399V426.514H125.508V365.434Z" stroke="#45413C" stroke-width="7" stroke-linecap="round" stroke-linejoin="round"/>
<path d="M142.954 227.526C137.227 227.527 131.523 228.264 125.977 229.721C111.541 234.408 96.3268 236.096 81.2374 234.684C80.6437 238.652 80.8444 242.701 81.8277 246.588C82.8109 250.475 84.5562 254.12 86.9588 257.303C79.1293 268.837 74.9114 282.51 74.8594 296.528V332.794H211.049V296.528C210.974 278.201 203.767 260.651 191.005 247.719C178.243 234.787 160.965 227.526 142.954 227.526Z" fill="#A86C4D"/>
<path d="M142.953 227.526C137.226 227.527 131.522 228.264 125.976 229.721C111.54 234.408 96.3258 236.096 81.2363 234.684C80.6501 238.616 80.8462 242.627 81.8129 246.479C82.7797 250.332 84.4973 253.948 86.864 257.112C100.102 257.19 113.279 255.293 125.976 251.481C136.013 248.852 146.507 248.589 156.659 250.711C166.811 252.834 176.353 257.286 184.558 263.729C192.762 270.172 199.414 278.436 204.004 287.891C208.595 297.346 211.004 307.742 211.048 318.288V296.528C210.973 278.201 203.766 260.651 191.004 247.719C178.242 234.787 160.964 227.526 142.953 227.526Z" fill="#DE926A"/>
<path d="M142.954 227.526C137.227 227.527 131.523 228.264 125.977 229.721C111.541 234.408 96.3268 236.096 81.2374 234.684C80.6437 238.652 80.8444 242.701 81.8277 246.588C82.8109 250.475 84.5562 254.12 86.9588 257.303C79.1293 268.837 74.9114 282.51 74.8594 296.528V332.794H211.049V296.528C210.974 278.201 203.767 260.651 191.005 247.719C178.243 234.787 160.965 227.526 142.954 227.526V227.526Z" stroke="#45413C" stroke-width="7" stroke-linecap="round" stroke-linejoin="round"/>
<path d="M77.2028 316.856C74.7662 317.54 72.5795 318.934 70.9128 320.868C69.246 322.801 68.172 325.189 67.8234 327.736C67.6811 329.506 67.9001 331.287 68.4665 332.967C69.0329 334.647 69.9345 336.19 71.1148 337.498C72.295 338.807 73.7284 339.853 75.3248 340.571C76.9213 341.289 78.6464 341.663 80.3918 341.67H81.1422C83.317 356.847 90.7882 370.72 102.19 380.752C113.591 390.785 128.161 396.306 143.234 396.306C158.307 396.306 172.877 390.785 184.278 380.752C195.68 370.72 203.151 356.847 205.326 341.67H206.076C209.23 341.892 212.346 340.869 214.778 338.813C217.209 336.757 218.768 333.826 219.13 330.631C219.492 327.435 218.63 324.221 216.723 321.655C214.816 319.09 212.011 317.371 208.89 316.856C180.752 311.226 165.369 280.972 164.994 280.304C164.244 281.163 141.171 317.715 77.2028 316.856Z" fill="#FFCEBF" stroke="#45413C" stroke-width="7" stroke-linecap="round" stroke-linejoin="round"/>
<path d="M109.934 331.457C109.934 332.723 110.428 333.937 111.307 334.832C112.187 335.727 113.38 336.229 114.623 336.229C115.867 336.229 117.06 335.727 117.939 334.832C118.819 333.937 119.313 332.723 119.313 331.457C119.313 330.192 118.819 328.978 117.939 328.083C117.06 327.188 115.867 326.686 114.623 326.686C113.38 326.686 112.187 327.188 111.307 328.083C110.428 328.978 109.934 330.192 109.934 331.457Z" fill="#45413C" stroke="#45413C" stroke-width="7" stroke-linecap="round" stroke-linejoin="round"/>
<path d="M175.965 331.457C175.941 332.715 175.44 333.915 174.565 334.805C173.691 335.694 172.512 336.205 171.276 336.229C170.032 336.229 168.839 335.727 167.96 334.832C167.08 333.937 166.586 332.723 166.586 331.457C166.586 330.192 167.08 328.978 167.96 328.083C168.839 327.188 170.032 326.686 171.276 326.686C172.519 326.686 173.712 327.188 174.592 328.083C175.471 328.978 175.965 330.192 175.965 331.457Z" fill="#45413C" stroke="#45413C" stroke-width="7" stroke-linecap="round" stroke-linejoin="round"/>
<path d="M96.0547 351.691C96.0547 352.678 96.697 353.625 97.8404 354.323C98.9837 355.021 100.534 355.413 102.151 355.413C103.768 355.413 105.319 355.021 106.462 354.323C107.606 353.625 108.248 352.678 108.248 351.691C108.248 350.704 107.606 349.757 106.462 349.059C105.319 348.361 103.768 347.969 102.151 347.969C100.534 347.969 98.9837 348.361 97.8404 349.059C96.697 349.757 96.0547 350.704 96.0547 351.691Z" fill="#FFB59E"/>
<path d="M177.562 351.691C177.562 352.678 178.205 353.625 179.348 354.323C180.492 355.021 182.042 355.413 183.659 355.413C185.276 355.413 186.827 355.021 187.97 354.323C189.113 353.625 189.756 352.678 189.756 351.691C189.756 350.704 189.113 349.757 187.97 349.059C186.827 348.361 185.276 347.969 183.659 347.969C182.042 347.969 180.492 348.361 179.348 349.059C178.205 349.757 177.562 350.704 177.562 351.691Z" fill="#FFB59E"/>
<path d="M127.098 369.347C131.512 373.115 137.205 374.966 142.949 374.5C148.693 374.966 154.386 373.115 158.8 369.347" stroke="#45413C" stroke-width="7" stroke-linecap="round" stroke-linejoin="round"/>
<path d="M390.848 454C384.497 436.929 373.19 422.229 358.429 411.854C343.669 401.48 326.154 395.924 308.215 395.924C290.275 395.924 272.761 401.48 258 411.854C243.24 422.229 231.933 436.929 225.582 454H390.848Z" fill="#401B97"/>
<path d="M308.215 422.22C321.052 422.202 333.737 425.037 345.386 430.526C357.034 436.016 367.364 444.027 375.653 454H390.848C384.497 436.929 373.19 422.229 358.429 411.854C343.669 401.48 326.154 395.924 308.215 395.924C290.275 395.924 272.761 401.48 258 411.854C243.24 422.229 231.933 436.929 225.582 454H240.87C249.133 444.019 259.444 436.002 271.079 430.511C282.714 425.02 295.39 422.19 308.215 422.22Z" fill="#21006E"/>
<path d="M390.848 454C384.497 436.929 373.19 422.229 358.429 411.854C343.669 401.48 326.154 395.924 308.215 395.924C290.275 395.924 272.761 401.48 258.001 411.854C243.24 422.229 231.933 436.929 225.582 454H390.848Z" stroke="#45413C" stroke-width="7" stroke-linecap="round" stroke-linejoin="round"/>
<path d="M290.77 365.434H325.661V426.514H290.77V365.434Z" fill="#FFCEBF"/>
<path d="M290.77 365.434H325.661V409.717H290.77V365.434Z" fill="#FFB59E"/>
<path d="M290.77 365.434H325.661V426.514H290.77V365.434Z" stroke="#45413C" stroke-width="7" stroke-linecap="round" stroke-linejoin="round"/>
<path d="M308.22 227.526C326.231 227.526 343.508 234.787 356.271 247.719C369.033 260.651 376.24 278.201 376.314 296.528V332.794H240.125V296.528C240.199 278.201 247.407 260.651 260.169 247.719C272.931 234.787 290.208 227.526 308.22 227.526Z" fill="#A86C4D"/>
<path d="M308.22 227.526C290.208 227.526 272.931 234.787 260.169 247.719C247.407 260.651 240.199 278.201 240.125 296.528V318.288C240.125 299.911 247.299 282.288 260.069 269.294C272.84 256.3 290.16 249 308.22 249C326.28 249 343.6 256.3 356.37 269.294C369.14 282.288 376.314 299.911 376.314 318.288V296.528C376.24 278.201 369.033 260.651 356.271 247.719C343.508 234.787 326.231 227.526 308.22 227.526Z" fill="#DE926A"/>
<path d="M308.22 227.526C290.209 227.526 272.931 234.787 260.169 247.719C247.407 260.651 240.199 278.201 240.125 296.528V332.794H376.314V296.528C376.24 278.201 369.033 260.651 356.271 247.719C343.508 234.787 326.231 227.526 308.22 227.526V227.526Z" stroke="#45413C" stroke-width="7" stroke-linecap="round" stroke-linejoin="round"/>
<path d="M383.626 327.736C383.277 325.189 382.203 322.801 380.536 320.868C378.87 318.934 376.683 317.54 374.246 316.856C361.057 317.501 347.948 314.429 336.364 307.98C324.78 301.531 315.169 291.954 308.59 280.304C302.02 291.961 292.411 301.544 280.825 307.994C269.239 314.445 256.126 317.512 242.934 316.856C239.814 317.371 237.008 319.09 235.101 321.655C233.194 324.221 232.332 327.435 232.694 330.631C233.057 333.826 234.616 336.757 237.047 338.813C239.478 340.869 242.594 341.892 245.748 341.67H246.499C248.673 356.847 256.145 370.72 267.546 380.752C278.948 390.785 293.517 396.306 308.59 396.306C323.664 396.306 338.233 390.785 349.635 380.752C361.036 370.72 368.507 356.847 370.682 341.67H371.433C373.146 341.611 374.83 341.199 376.382 340.458C377.935 339.718 379.323 338.664 380.463 337.361C381.603 336.058 382.471 334.533 383.015 332.879C383.559 331.224 383.766 329.475 383.626 327.736Z" fill="#FFCEBF" stroke="#45413C" stroke-width="7" stroke-linecap="round" stroke-linejoin="round"/>
<path d="M275.203 331.457C275.227 332.715 275.729 333.915 276.603 334.805C277.478 335.694 278.657 336.205 279.893 336.229C281.137 336.229 282.329 335.727 283.209 334.832C284.088 333.937 284.583 332.723 284.583 331.457C284.583 330.192 284.088 328.978 283.209 328.083C282.329 327.188 281.137 326.686 279.893 326.686C278.649 326.686 277.456 327.188 276.577 328.083C275.697 328.978 275.203 330.192 275.203 331.457Z" fill="#45413C" stroke="#45413C" stroke-width="7" stroke-linecap="round" stroke-linejoin="round"/>
<path d="M341.235 331.457C341.235 332.723 340.741 333.937 339.861 334.832C338.982 335.727 337.789 336.229 336.545 336.229C335.301 336.229 334.109 335.727 333.229 334.832C332.35 333.937 331.855 332.723 331.855 331.457C331.855 330.192 332.35 328.978 333.229 328.083C334.109 327.188 335.301 326.686 336.545 326.686C337.789 326.686 338.982 327.188 339.861 328.083C340.741 328.978 341.235 330.192 341.235 331.457Z" fill="#45413C" stroke="#45413C" stroke-width="7" stroke-linecap="round" stroke-linejoin="round"/>
<path d="M261.414 351.691C261.414 352.678 262.056 353.625 263.2 354.323C264.343 355.021 265.894 355.413 267.511 355.413C269.128 355.413 270.678 355.021 271.822 354.323C272.965 353.625 273.607 352.678 273.607 351.691C273.607 350.704 272.965 349.757 271.822 349.059C270.678 348.361 269.128 347.969 267.511 347.969C265.894 347.969 264.343 348.361 263.2 349.059C262.056 349.757 261.414 350.704 261.414 351.691Z" fill="#FFB59E"/>
<path d="M342.918 351.691C342.918 352.678 343.56 353.625 344.704 354.323C345.847 355.021 347.398 355.413 349.015 355.413C350.632 355.413 352.182 355.021 353.326 354.323C354.469 353.625 355.111 352.678 355.111 351.691C355.111 350.704 354.469 349.757 353.326 349.059C352.182 348.361 350.632 347.969 349.015 347.969C347.398 347.969 345.847 348.361 344.704 349.059C343.56 349.757 342.918 350.704 342.918 351.691Z" fill="#FFB59E"/>
<path d="M292.367 370.587C296.781 374.355 302.475 376.206 308.218 375.741C313.962 376.206 319.656 374.355 324.07 370.587" stroke="#45413C" stroke-width="7" stroke-linecap="round" stroke-linejoin="round"/>
</svg>
