<svg width="496" height="496" viewBox="0 0 496 496" fill="none" xmlns="http://www.w3.org/2000/svg">
<path d="M429.006 361.054C378.786 298.33 319.989 265.057 305.006 197.684H191.339C176.356 265.057 117.559 298.33 67.3392 361.054C62.6166 367.698 60.0549 375.635 60.0025 383.787C59.9262 390.412 61.5918 396.941 64.8323 402.72C68.0729 408.499 72.7748 413.325 78.4673 416.716C84.1597 420.106 90.643 421.942 97.2679 422.038C103.893 422.135 110.427 420.49 116.216 417.267C118.188 428.811 124.173 439.287 133.115 446.849C142.057 454.411 153.382 458.573 165.093 458.6C171.762 458.607 178.363 457.254 184.492 454.625C190.622 451.995 196.151 448.144 200.743 443.307C204.742 452.566 211.365 460.452 219.793 465.992C228.221 471.532 238.087 474.484 248.173 474.484C258.258 474.484 268.124 471.532 276.552 465.992C284.98 460.452 291.603 452.566 295.603 443.307C300.137 448.113 305.595 451.954 311.65 454.6C317.705 457.245 324.232 458.641 330.839 458.704C342.55 458.676 353.875 454.514 362.817 446.952C371.759 439.39 377.744 428.914 379.716 417.37C385.505 420.593 392.039 422.238 398.664 422.142C405.289 422.045 411.772 420.21 417.464 416.819C423.157 413.429 427.859 408.602 431.099 402.823C434.34 397.044 436.005 390.515 435.929 383.89C436.039 375.745 433.621 367.766 429.006 361.054Z" fill="#00F5BC"/>
<path d="M191.34 161.517H305.007V197.683H191.34V161.517Z" fill="#FFB0CA" stroke="#45413C" stroke-width="7" stroke-linecap="round" stroke-linejoin="round"/>
<path d="M318.751 105.407C326.822 86.695 328.985 65.9647 324.951 45.99L321.644 28.01C321.327 26.1853 320.376 24.5312 318.958 23.34C317.54 22.1488 315.746 21.4971 313.894 21.5H290.851V35.5533C290.851 46.8719 286.355 57.7269 278.351 65.7303C270.348 73.7337 259.493 78.23 248.174 78.23C236.856 78.23 226.001 73.7337 217.997 65.7303C209.994 57.7269 205.497 46.8719 205.497 35.5533V21.5H182.454C180.602 21.4971 178.809 22.1488 177.391 23.34C175.972 24.5312 175.021 26.1853 174.704 28.01L171.397 45.99C167.364 65.9647 169.527 86.695 177.597 105.407C185.022 123.297 189.657 142.22 191.341 161.517H305.007C306.691 142.22 311.326 123.297 318.751 105.407Z" fill="#00F5BC"/>
<path d="M170.568 81.64C171.188 77.5067 173.875 62.6267 174.701 58.4933C175.018 56.6686 175.97 55.0145 177.388 53.8233C178.806 52.6321 180.599 51.9804 182.451 51.9833H191.441C193.296 51.9833 195.132 52.3502 196.843 53.0629C198.555 53.7756 200.109 54.82 201.415 56.1359C202.722 57.4519 203.755 59.0133 204.455 60.7303C205.155 62.4473 205.508 64.2858 205.495 66.14C205.495 77.4586 209.991 88.3135 217.994 96.317C225.998 104.32 236.853 108.817 248.171 108.817C259.49 108.817 270.345 104.32 278.348 96.317C286.352 88.3135 290.848 77.4586 290.848 66.14C290.834 64.2858 291.188 62.4473 291.888 60.7303C292.588 59.0133 293.621 57.4519 294.928 56.1359C296.234 54.82 297.788 53.7756 299.499 53.0629C301.211 52.3502 303.047 51.9833 304.901 51.9833H313.891C315.743 51.9804 317.537 52.6321 318.955 53.8233C320.373 55.0145 321.325 56.6686 321.641 58.4933C322.468 62.6267 325.155 77.5067 325.775 81.64C327.463 69.7922 327.184 57.7468 324.948 45.99L321.641 28.01C321.325 26.1853 320.373 24.5312 318.955 23.34C317.537 22.1488 315.743 21.4971 313.891 21.5H290.848V35.5533C290.848 46.8719 286.352 57.7269 278.348 65.7303C270.345 73.7337 259.49 78.23 248.171 78.23C236.853 78.23 225.998 73.7337 217.994 65.7303C209.991 57.7269 205.495 46.8719 205.495 35.5533V21.5H182.451C180.599 21.4971 178.806 22.1488 177.388 23.34C175.97 24.5312 175.018 26.1853 174.701 28.01L171.395 45.99C169.159 57.7468 168.879 69.7922 170.568 81.64Z" fill="#8CFFE4"/>
<path d="M318.751 105.407C326.822 86.695 328.985 65.9647 324.951 45.99L321.644 28.01C321.327 26.1853 320.376 24.5312 318.958 23.34C317.54 22.1488 315.746 21.4971 313.894 21.5H290.851V35.5533C290.851 46.8719 286.355 57.7269 278.351 65.7303C270.348 73.7337 259.493 78.23 248.174 78.23C236.856 78.23 226.001 73.7337 217.997 65.7303C209.994 57.7269 205.497 46.8719 205.497 35.5533V21.5H182.454C180.602 21.4971 178.809 22.1488 177.391 23.34C175.972 24.5312 175.021 26.1853 174.704 28.01L171.397 45.99C167.364 65.9647 169.527 86.695 177.597 105.407C185.022 123.297 189.657 142.22 191.341 161.517H305.007C306.691 142.22 311.326 123.297 318.751 105.407V105.407Z" stroke="#45413C" stroke-width="7" stroke-linecap="round" stroke-linejoin="round"/>
<path d="M333.835 257.514C319.955 239.925 310.113 219.499 305.005 197.684H191.338C186.23 219.499 176.387 239.925 162.508 257.514C218.266 275.079 278.076 275.079 333.835 257.514Z" fill="#00DBA8"/>
<path d="M429.006 361.054C378.786 298.33 319.989 265.057 305.006 197.684H191.339C176.356 265.057 117.559 298.33 67.3392 361.054C62.6166 367.698 60.0549 375.635 60.0025 383.787C59.9262 390.412 61.5918 396.941 64.8323 402.72C68.0729 408.499 72.7748 413.325 78.4673 416.716C84.1597 420.106 90.643 421.942 97.2679 422.038C103.893 422.135 110.427 420.49 116.216 417.267C118.188 428.811 124.173 439.287 133.115 446.849C142.057 454.411 153.382 458.573 165.093 458.6C171.762 458.607 178.363 457.254 184.492 454.625C190.622 451.995 196.151 448.144 200.743 443.307C204.742 452.566 211.365 460.452 219.793 465.992C228.221 471.532 238.087 474.484 248.173 474.484C258.258 474.484 268.124 471.532 276.552 465.992C284.98 460.452 291.603 452.566 295.603 443.307C300.137 448.113 305.595 451.954 311.65 454.6C317.705 457.245 324.232 458.641 330.839 458.704C342.55 458.676 353.875 454.514 362.817 446.952C371.759 439.39 377.744 428.914 379.716 417.37C385.505 420.593 392.039 422.238 398.664 422.142C405.289 422.045 411.772 420.21 417.464 416.819C423.157 413.429 427.859 408.602 431.099 402.823C434.34 397.044 436.005 390.515 435.929 383.89C436.04 375.745 433.621 367.766 429.006 361.054V361.054Z" stroke="#45413C" stroke-width="7" stroke-linecap="round" stroke-linejoin="round"/>
<path d="M125.723 396.083C133.355 372.805 147.094 352 165.506 335.84" stroke="#45413C" stroke-width="7" stroke-linecap="round" stroke-linejoin="round"/>
<path d="M370.624 396.29C364.131 372.748 350.83 351.646 332.391 335.634" stroke="#45413C" stroke-width="7" stroke-linecap="round" stroke-linejoin="round"/>
<path d="M202.086 423.467C202.469 402.743 205.952 382.193 212.419 362.5" stroke="#45413C" stroke-width="7" stroke-linecap="round" stroke-linejoin="round"/>
</svg>
