<svg width="474" height="496" viewBox="0 0 474 496" fill="none" xmlns="http://www.w3.org/2000/svg">
<path d="M65.4258 76.4258H408.669V419.669H65.4258V76.4258Z" fill="#00B8F0"/>
<path d="M354.472 76.4258H119.527C105.179 76.4258 91.4178 82.1258 81.2718 92.2718C71.1258 102.418 65.4258 116.179 65.4258 130.527V162.118C65.4258 147.77 71.1258 134.009 81.2718 123.863C91.4178 113.717 105.179 108.017 119.527 108.017H354.472C368.821 108.017 382.582 113.717 392.728 123.863C402.874 134.009 408.574 147.77 408.574 162.118V130.527C408.574 116.179 402.874 102.418 392.728 92.2718C382.582 82.1258 368.821 76.4258 354.472 76.4258Z" fill="#4ACFFF"/>
<path d="M65.4258 76.4258H408.669V419.669H65.4258V76.4258Z" stroke="#45413C" stroke-width="7" stroke-linecap="round" stroke-linejoin="round"/>
<path d="M139.863 155.971C139.863 163.321 142.783 170.37 147.98 175.567C153.177 180.764 160.226 183.684 167.576 183.684C174.926 183.684 181.975 180.764 187.172 175.567C192.369 170.37 195.289 163.321 195.289 155.971C195.289 148.621 192.369 141.572 187.172 136.375C181.975 131.178 174.926 128.258 167.576 128.258C160.226 128.258 153.177 131.178 147.98 136.375C142.783 141.572 139.863 148.621 139.863 155.971Z" fill="white"/>
<path d="M284.008 155.971C284.008 163.321 286.928 170.37 292.125 175.567C297.322 180.764 304.371 183.684 311.721 183.684C319.071 183.684 326.12 180.764 331.317 175.567C336.514 170.37 339.434 163.321 339.434 155.971C339.434 148.621 336.514 141.572 331.317 136.375C326.12 131.178 319.071 128.258 311.721 128.258C304.371 128.258 297.322 131.178 292.125 136.375C286.928 141.572 284.008 148.621 284.008 155.971Z" fill="white"/>
<path d="M167.576 146.512C173.36 146.535 178.991 148.373 183.675 151.767C188.359 155.161 191.859 159.939 193.681 165.429C194.75 162.39 195.294 159.192 195.289 155.971C195.289 148.621 192.369 141.572 187.172 136.375C181.975 131.178 174.926 128.258 167.576 128.258C160.226 128.258 153.177 131.178 147.98 136.375C142.783 141.572 139.863 148.621 139.863 155.971C139.859 159.192 140.402 162.39 141.471 165.429C143.294 159.939 146.794 155.161 151.477 151.767C156.161 148.373 161.792 146.535 167.576 146.512Z" fill="#E0E0E0"/>
<path d="M311.721 146.511C317.505 146.534 323.136 148.371 327.82 151.765C332.504 155.159 336.004 159.938 337.826 165.428C338.972 162.407 339.549 159.2 339.529 155.97C339.749 152.188 339.195 148.401 337.9 144.841C336.605 141.281 334.596 138.023 331.996 135.267C329.397 132.512 326.262 130.316 322.783 128.816C319.305 127.315 315.557 126.541 311.768 126.541C307.98 126.541 304.232 127.315 300.753 128.816C297.275 130.316 294.14 132.512 291.541 135.267C288.941 138.023 286.932 141.281 285.637 144.841C284.342 148.401 283.787 152.188 284.008 155.97C284.003 159.191 284.547 162.389 285.616 165.428C287.451 159.946 290.954 155.175 295.635 151.783C300.316 148.391 305.94 146.548 311.721 146.511Z" fill="#E0E0E0"/>
<path d="M139.863 155.971C139.863 163.321 142.783 170.37 147.98 175.567C153.177 180.764 160.226 183.684 167.576 183.684C174.926 183.684 181.975 180.764 187.172 175.567C192.369 170.37 195.289 163.321 195.289 155.971C195.289 148.621 192.369 141.572 187.172 136.375C181.975 131.178 174.926 128.258 167.576 128.258C160.226 128.258 153.177 131.178 147.98 136.375C142.783 141.572 139.863 148.621 139.863 155.971Z" stroke="#45413C" stroke-width="7" stroke-linecap="round" stroke-linejoin="round"/>
<path d="M284.008 155.971C284.008 163.321 286.928 170.37 292.125 175.567C297.322 180.764 304.371 183.684 311.721 183.684C319.071 183.684 326.12 180.764 331.317 175.567C336.514 170.37 339.434 163.321 339.434 155.971C339.434 148.621 336.514 141.572 331.317 136.375C326.12 131.178 319.071 128.258 311.721 128.258C304.371 128.258 297.322 131.178 292.125 136.375C286.928 141.572 284.008 148.621 284.008 155.971V155.971Z" stroke="#45413C" stroke-width="7" stroke-linecap="round" stroke-linejoin="round"/>
<path d="M167.577 207.424C153.044 207.424 139.105 213.191 128.82 223.458C118.535 233.725 112.744 247.655 112.719 262.188V296.711C112.743 299.571 113.884 302.31 115.898 304.342C117.912 306.374 120.641 307.538 123.501 307.588H139.77V356.96C139.769 359.829 140.902 362.581 142.922 364.618C144.941 366.655 147.684 367.812 150.552 367.837H184.413C187.281 367.812 190.024 366.655 192.043 364.618C194.063 362.581 195.196 359.829 195.195 356.96V307.588H211.464C214.341 307.563 217.093 306.409 219.128 304.374C221.162 302.34 222.316 299.588 222.341 296.711V262.188C222.316 247.671 216.538 233.756 206.273 223.491C196.009 213.227 182.094 207.449 167.577 207.424Z" fill="white"/>
<path d="M167.577 207.424C153.044 207.424 139.105 213.191 128.82 223.458C118.535 233.725 112.744 247.655 112.719 262.188V286.779C112.719 272.23 118.498 258.276 128.786 247.989C139.074 237.701 153.028 231.921 167.577 231.921C182.126 231.921 196.08 237.701 206.368 247.989C216.656 258.276 222.435 272.23 222.435 286.779V262.188C222.41 247.655 216.62 233.725 206.334 223.458C196.049 213.191 182.11 207.424 167.577 207.424Z" fill="#E0E0E0"/>
<path d="M167.577 207.424C153.044 207.424 139.105 213.191 128.82 223.458C118.535 233.725 112.744 247.655 112.719 262.188V296.711C112.743 299.571 113.884 302.31 115.898 304.342C117.912 306.374 120.641 307.538 123.501 307.588H139.77V356.96C139.769 359.829 140.902 362.581 142.922 364.618C144.941 366.655 147.684 367.812 150.552 367.837H184.413C187.281 367.812 190.024 366.655 192.043 364.618C194.063 362.581 195.196 359.829 195.195 356.96V307.588H211.464C214.341 307.563 217.093 306.409 219.128 304.374C221.162 302.34 222.316 299.588 222.341 296.711V262.188C222.316 247.671 216.538 233.756 206.273 223.491C196.009 213.227 182.094 207.449 167.577 207.424V207.424Z" stroke="#45413C" stroke-width="7" stroke-linecap="round" stroke-linejoin="round"/>
<path d="M311.858 208C297.325 208 283.386 213.767 273.101 224.034C262.816 234.302 257.025 248.231 257 262.764V297.287C257.024 300.148 258.165 302.886 260.179 304.918C262.194 306.95 264.922 308.115 267.783 308.164H284.051V357.536C284.051 360.405 285.184 363.157 287.203 365.194C289.223 367.231 291.965 368.388 294.833 368.413H328.694C331.563 368.388 334.305 367.231 336.324 365.194C338.344 363.157 339.477 360.405 339.477 357.536V308.164H355.745C358.622 308.139 361.374 306.985 363.409 304.951C365.443 302.916 366.597 300.164 366.622 297.287V262.764C366.597 248.247 360.819 234.332 350.555 224.068C340.29 213.803 326.375 208.025 311.858 208Z" fill="white"/>
<path d="M311.858 208C297.325 208 283.386 213.767 273.101 224.034C262.816 234.302 257.025 248.231 257 262.764V287.355C257 272.806 262.78 258.853 273.068 248.565C283.356 238.277 297.309 232.497 311.858 232.497C326.408 232.497 340.361 238.277 350.649 248.565C360.937 258.853 366.717 272.806 366.717 287.355V262.764C366.692 248.231 360.901 234.302 350.616 224.034C340.33 213.767 326.391 208 311.858 208Z" fill="#E0E0E0"/>
<path d="M311.858 208C297.325 208 283.386 213.767 273.101 224.034C262.816 234.302 257.025 248.231 257 262.764V297.287C257.024 300.148 258.165 302.886 260.179 304.918C262.194 306.95 264.922 308.115 267.783 308.164H284.051V357.536C284.051 360.405 285.184 363.157 287.203 365.194C289.223 367.231 291.965 368.388 294.833 368.413H328.694C331.563 368.388 334.305 367.231 336.324 365.194C338.344 363.157 339.477 360.405 339.477 357.536V308.164H355.745C358.622 308.139 361.374 306.985 363.409 304.951C365.443 302.916 366.597 300.164 366.622 297.287V262.764C366.597 248.247 360.819 234.332 350.555 224.068C340.29 213.803 326.375 208.025 311.858 208V208Z" stroke="#45413C" stroke-width="7" stroke-linecap="round" stroke-linejoin="round"/>
</svg>
