<svg width="495" height="495" viewBox="0 0 495 495" fill="none" xmlns="http://www.w3.org/2000/svg">
<g clip-path="url(#clip0_1151_5735)">
<path d="M104.995 211.19C111.935 198.453 116.88 184.727 119.657 170.49C121.112 162.634 124.182 155.165 128.673 148.556C133.163 141.947 138.976 136.342 145.743 132.094L157.272 124.812C163.944 120.44 171.455 117.509 179.324 116.205C187.193 114.901 195.247 115.253 202.973 117.238C217.131 120.602 231.719 121.784 246.234 120.743C306.183 117.996 362.708 154.303 397.681 208.886C432.655 263.469 441.68 330.396 413.99 383.75C407.082 396.499 402.171 410.233 399.429 424.472C397.929 432.322 394.831 439.78 390.326 446.382C385.82 452.983 380.005 458.587 373.242 462.846L361.814 470.15C355.117 474.509 347.589 477.43 339.705 478.73C331.822 480.03 323.754 479.68 316.013 477.702C301.924 474.256 287.392 472.98 272.919 473.917C212.869 476.642 156.344 440.335 121.471 385.774C86.5983 331.213 77.4058 264.566 104.995 211.19Z" fill="#FFE500"/>
<path d="M386.525 259.545C351.552 204.962 295.026 168.654 235.078 171.402C220.57 172.337 206.004 171.054 191.883 167.595C184.158 165.609 176.103 165.257 168.234 166.562C160.365 167.866 152.854 170.797 146.183 175.169L134.654 182.451C127.886 186.698 122.073 192.304 117.583 198.913C113.093 205.522 110.023 212.991 108.567 220.847C105.784 235.082 100.84 248.807 93.9054 261.547C92.2008 264.973 90.5969 268.421 89.0716 271.992C89.9759 250.821 95.4041 230.088 104.991 211.19C111.931 198.453 116.876 184.727 119.653 170.49C121.108 162.634 124.178 155.165 128.668 148.556C133.159 141.947 138.971 136.342 145.739 132.095L157.268 124.812C163.94 120.441 171.45 117.509 179.319 116.205C187.188 114.901 195.243 115.253 202.968 117.238C217.126 120.602 231.715 121.784 246.23 120.743C306.178 117.996 362.704 154.303 397.677 208.886C429.982 260.242 440.384 321.876 418.921 373.327C419.996 332.981 408.691 293.274 386.525 259.545Z" fill="#FFF48C"/>
<path d="M104.995 211.19C111.935 198.453 116.88 184.727 119.657 170.49C121.112 162.634 124.182 155.165 128.673 148.556C133.163 141.947 138.976 136.342 145.743 132.094L157.272 124.812C163.944 120.44 171.455 117.509 179.324 116.205C187.193 114.901 195.247 115.253 202.973 117.238C217.131 120.602 231.719 121.784 246.234 120.743C306.183 117.996 362.708 154.303 397.681 208.886C432.655 263.469 441.68 330.396 413.99 383.75C407.082 396.499 402.171 410.233 399.429 424.472C397.929 432.322 394.831 439.78 390.326 446.382C385.82 452.983 380.005 458.587 373.242 462.846L361.814 470.15C355.117 474.509 347.589 477.43 339.705 478.73C331.822 480.03 323.754 479.68 316.013 477.702C301.924 474.256 287.392 472.98 272.919 473.917C212.869 476.642 156.344 440.335 121.471 385.774C86.5983 331.213 77.4058 264.566 104.995 211.19Z" stroke="#45413C" stroke-width="7" stroke-linecap="round" stroke-linejoin="round"/>
<path d="M169.486 135.526C156.027 111.585 136.362 91.7157 112.561 78.0113C89.0691 65.765 80.4842 79.8199 76.5023 91.1922C75.6353 94.0613 75.9282 97.156 77.318 99.8115C78.7078 102.467 81.0837 104.471 83.9353 105.394C109.353 113.948 132.303 128.569 150.797 147.99C164.172 151.99 169.486 135.526 169.486 135.526Z" fill="#DEBB7E"/>
<path d="M160.422 146.942C147.323 126.308 129.311 109.246 107.998 97.2821C91.8745 88.9809 82.6544 92.9701 77.2208 99.9047C75.7312 97.1922 75.3712 94.0017 76.2188 91.0254C79.6528 79.7436 88.7413 65.7996 112.277 77.8444C136.203 91.5548 155.971 111.487 169.482 135.526C167.828 140.24 164.637 144.261 160.422 146.942Z" fill="#F0D5A8"/>
<path d="M169.48 135.526C155.984 111.613 136.328 91.7525 112.554 78.0117C89.0407 65.8662 80.4557 79.921 76.4961 91.1927C75.6291 94.0617 75.9219 97.1564 77.3118 99.8119C78.7016 102.467 81.0775 104.472 83.9291 105.395C109.329 113.986 132.27 128.601 150.791 147.991C164.188 151.89 169.48 135.526 169.48 135.526Z" stroke="#45413C" stroke-width="7" stroke-linecap="round" stroke-linejoin="round"/>
<path d="M168.976 135.415C166.891 116.781 170.435 97.9496 179.152 81.3488C187.87 64.748 201.36 51.1392 217.884 42.2772C234.348 31.2291 253.809 25.5071 273.633 25.8859C293.456 26.2647 312.685 32.726 328.714 44.395C330.475 45.6787 331.816 47.455 332.568 49.4998C333.321 51.5447 333.451 53.7665 332.943 55.8853C329.771 71.2802 323.122 85.7464 313.504 98.1785C303.886 110.611 291.554 120.68 277.449 127.616C231.015 149.073 197.998 105.269 168.976 135.415Z" fill="#6DD627"/>
<path d="M322.179 74.1054C306.188 62.4237 287.003 55.9201 267.204 55.4694C247.406 55.0188 227.944 60.6428 211.438 71.5847C192.028 82.4527 176.894 99.6031 168.526 120.215C169.351 103.994 174.336 88.2586 183 74.5211C191.665 60.7836 203.718 49.5063 218.001 41.7736C234.504 30.8227 253.972 25.2019 273.773 25.6707C293.573 26.1395 312.753 32.6753 328.72 44.3949C330.48 45.6787 331.822 47.4549 332.574 49.4998C333.327 51.5446 333.457 53.7664 332.948 55.8852C331.164 63.5494 328.635 71.0208 325.398 78.1929C324.666 76.5934 323.563 75.1919 322.179 74.1054Z" fill="#9CEB60"/>
<path d="M168.976 135.415C166.891 116.781 170.435 97.9496 179.152 81.3488C187.87 64.748 201.36 51.1392 217.884 42.2772C234.348 31.2291 253.809 25.5071 273.633 25.8859C293.456 26.2647 312.685 32.726 328.714 44.395C330.475 45.6787 331.816 47.455 332.568 49.4998C333.321 51.5447 333.451 53.7665 332.943 55.8853C329.771 71.2802 323.122 85.7464 313.504 98.1785C303.886 110.611 291.554 120.68 277.449 127.616C231.015 149.073 197.998 105.269 168.976 135.415Z" stroke="#45413C" stroke-width="7" stroke-linecap="round" stroke-linejoin="round"/>
<path d="M168.979 135.416C168.979 135.416 182.126 75.6924 243.555 63.3447" stroke="#45413C" stroke-width="7" stroke-linecap="round" stroke-linejoin="round"/>
</g>
<defs>
<clipPath id="clip0_1151_5735">
<rect width="495" height="495" fill="white"/>
</clipPath>
</defs>
</svg>
