<svg width="506" height="506" viewBox="0 0 506 506" fill="none" xmlns="http://www.w3.org/2000/svg">
<path d="M345.195 333.949L253.061 304.011L160.927 334.265C146.253 338.384 133.255 347.033 123.789 358.979C114.323 370.925 108.874 385.556 108.219 400.783V462.136H398.325V400.467C397.643 385.185 392.132 370.514 382.586 358.562C373.039 346.609 359.948 337.992 345.195 333.949Z" fill="white"/>
<path d="M345.195 333.949L253.061 304.011L160.927 334.265C146.253 338.384 133.255 347.033 123.789 358.979C114.323 370.925 108.874 385.556 108.219 400.783V432.408C108.874 417.181 114.323 402.55 123.789 390.604C133.255 378.658 146.253 370.009 160.927 365.89L253.061 335.636L345.195 365.89C359.87 370.009 372.868 378.658 382.334 390.604C391.799 402.55 397.249 417.181 397.904 432.408V400.783C397.314 385.501 391.895 370.799 382.424 358.79C372.953 346.781 359.92 338.084 345.195 333.949Z" fill="#E0E0E0"/>
<path d="M345.195 333.949L253.061 304.011L160.927 334.265C146.253 338.384 133.255 347.033 123.789 358.979C114.323 370.925 108.874 385.556 108.219 400.783V462.136H398.325V400.467C397.643 385.185 392.132 370.514 382.586 358.562C373.039 346.609 359.948 337.992 345.195 333.949V333.949Z" stroke="#45413C" stroke-width="7" stroke-linecap="round" stroke-linejoin="round"/>
<path d="M157.137 325.514C157.137 331.272 159.618 336.975 164.439 342.295C169.26 347.616 176.326 352.45 185.234 356.522C194.142 360.595 204.717 363.825 216.355 366.029C227.994 368.233 240.468 369.367 253.066 369.367C265.663 369.367 278.138 368.233 289.776 366.029C301.415 363.825 311.99 360.595 320.898 356.522C329.806 352.45 336.872 347.616 341.693 342.295C346.514 336.975 348.995 331.272 348.995 325.514C348.995 319.755 346.514 314.052 341.693 308.732C336.872 303.411 329.806 298.577 320.898 294.505C311.99 290.432 301.415 287.202 289.776 284.998C278.138 282.794 265.663 281.66 253.066 281.66C240.468 281.66 227.994 282.794 216.355 284.998C204.717 287.202 194.142 290.432 185.234 294.505C176.326 298.577 169.26 303.411 164.439 308.732C159.618 314.052 157.137 319.755 157.137 325.514Z" fill="white"/>
<path d="M253.133 281.66C205.906 281.66 166.691 297.262 158.785 317.818C166.691 338.374 205.906 353.976 253.66 353.976C301.414 353.976 340.102 338.374 348.535 317.818C339.575 297.262 300.36 281.66 253.133 281.66Z" fill="#E0E0E0"/>
<path d="M157.137 325.514C157.137 331.272 159.618 336.975 164.439 342.295C169.26 347.616 176.326 352.45 185.234 356.522C194.142 360.595 204.717 363.825 216.355 366.029C227.994 368.233 240.468 369.367 253.066 369.367C265.664 369.367 278.138 368.233 289.776 366.029C301.415 363.825 311.99 360.595 320.898 356.522C329.806 352.45 336.872 347.616 341.693 342.295C346.514 336.975 348.995 331.272 348.995 325.514C348.995 319.755 346.514 314.052 341.693 308.732C336.872 303.411 329.806 298.577 320.898 294.505C311.99 290.432 301.415 287.202 289.776 284.998C278.138 282.794 265.664 281.66 253.066 281.66C240.468 281.66 227.994 282.794 216.355 284.998C204.717 287.202 194.142 290.432 185.234 294.505C176.326 298.577 169.26 303.411 164.439 308.732C159.618 314.052 157.137 319.755 157.137 325.514V325.514Z" stroke="#45413C" stroke-width="7" stroke-linecap="round" stroke-linejoin="round"/>
<path d="M339.641 462.133V344.488" stroke="#45413C" stroke-width="7" stroke-linecap="round" stroke-linejoin="round"/>
<path d="M166.527 462.133V344.488" stroke="#45413C" stroke-width="7" stroke-linecap="round" stroke-linejoin="round"/>
<path d="M405.809 158.957H396.427C389.288 126.243 371.177 96.9545 345.098 75.9529C319.02 54.9513 286.543 43.5 253.06 43.5C219.576 43.5 187.1 54.9513 161.021 75.9529C134.943 96.9545 116.832 126.243 109.693 158.957H100.311C97.5154 158.957 94.8341 160.068 92.8571 162.045C90.8802 164.022 89.7695 166.703 89.7695 169.499V210.822C89.7695 213.618 90.8802 216.299 92.8571 218.276C94.8341 220.253 97.5154 221.364 100.311 221.364H109.693C116.832 254.077 134.943 283.366 161.021 304.368C187.1 325.369 219.576 336.821 253.06 336.821C286.543 336.821 319.02 325.369 345.098 304.368C371.177 283.366 389.288 254.077 396.427 221.364H405.809C408.605 221.364 411.286 220.253 413.263 218.276C415.24 216.299 416.35 213.618 416.35 210.822V169.499C416.35 166.703 415.24 164.022 413.263 162.045C411.286 160.068 408.605 158.957 405.809 158.957Z" fill="#E0E0E0"/>
<path d="M405.809 158.957H396.427C389.288 126.243 371.177 96.9545 345.098 75.9529C319.02 54.9513 286.543 43.5 253.06 43.5C219.576 43.5 187.1 54.9513 161.021 75.9529C134.943 96.9545 116.832 126.243 109.693 158.957H100.311C97.5154 158.957 94.8341 160.068 92.8571 162.045C90.8802 164.022 89.7695 166.703 89.7695 169.499V193.955C89.7695 191.159 90.8802 188.478 92.8571 186.501C94.8341 184.524 97.5154 183.414 100.311 183.414C102.893 183.416 105.404 182.572 107.461 181.01C109.517 179.449 111.005 177.257 111.696 174.769C120.358 143.973 138.848 116.852 164.348 97.5344C189.849 78.2171 220.963 67.7625 252.955 67.7625C284.946 67.7625 316.06 78.2171 341.561 97.5344C367.061 116.852 385.551 143.973 394.213 174.769C394.904 177.257 396.392 179.449 398.448 181.01C400.505 182.572 403.016 183.416 405.598 183.414C408.394 183.414 411.075 184.524 413.052 186.501C415.029 188.478 416.14 191.159 416.14 193.955V169.499C416.14 166.739 415.058 164.089 413.127 162.118C411.195 160.147 408.568 159.012 405.809 158.957Z" fill="white"/>
<path d="M405.809 158.957H396.427C389.288 126.243 371.177 96.9545 345.098 75.9529C319.02 54.9513 286.543 43.5 253.06 43.5C219.576 43.5 187.1 54.9513 161.021 75.9529C134.943 96.9545 116.832 126.243 109.693 158.957H100.311C97.5154 158.957 94.8341 160.068 92.8571 162.045C90.8802 164.022 89.7695 166.703 89.7695 169.499V210.822C89.7695 213.618 90.8802 216.299 92.8571 218.276C94.8341 220.253 97.5154 221.364 100.311 221.364H109.693C116.832 254.077 134.943 283.366 161.021 304.368C187.1 325.369 219.576 336.821 253.06 336.821C286.543 336.821 319.02 325.369 345.098 304.368C371.177 283.366 389.288 254.077 396.427 221.364H405.809C408.605 221.364 411.286 220.253 413.263 218.276C415.24 216.299 416.35 213.618 416.35 210.822V169.499C416.35 166.703 415.24 164.022 413.263 162.045C411.286 160.068 408.605 158.957 405.809 158.957Z" stroke="#45413C" stroke-width="7" stroke-linecap="round" stroke-linejoin="round"/>
<path d="M130.781 190.161C130.781 206.22 133.944 222.121 140.09 236.957C146.235 251.793 155.242 265.274 166.597 276.629C177.952 287.984 191.433 296.991 206.269 303.136C221.105 309.282 237.006 312.445 253.065 312.445C269.123 312.445 285.024 309.282 299.86 303.136C314.696 296.991 328.177 287.984 339.532 276.629C350.887 265.274 359.894 251.793 366.04 236.957C372.185 222.121 375.348 206.22 375.348 190.161C375.348 174.103 372.185 158.202 366.04 143.365C359.894 128.529 350.887 115.049 339.532 103.694C328.177 92.3388 314.696 83.3315 299.86 77.1862C285.024 71.0409 269.123 67.8779 253.065 67.8779C237.006 67.8779 221.105 71.0409 206.269 77.1862C191.433 83.3315 177.952 92.3388 166.597 103.694C155.242 115.049 146.235 128.529 140.09 143.365C133.944 158.202 130.781 174.103 130.781 190.161Z" fill="#656769" stroke="#45413C" stroke-width="7" stroke-linecap="round" stroke-linejoin="round"/>
<path d="M275.508 143.146H230.6C211.029 143.146 192.26 150.921 178.422 164.76C164.583 178.598 156.809 197.367 156.809 216.938C156.902 221.675 157.36 226.398 158.179 231.064C161.419 253.919 172.801 274.836 190.232 289.97C207.662 305.104 229.97 313.437 253.054 313.437C276.138 313.437 298.446 305.104 315.876 289.97C333.307 274.836 344.689 253.919 347.929 231.064C348.694 226.288 349.082 221.459 349.089 216.622C349.005 197.142 341.223 178.486 327.439 164.722C313.655 150.958 294.987 143.202 275.508 143.146Z" fill="#FFE500" stroke="#45413C" stroke-width="7" stroke-linecap="round" stroke-linejoin="round"/>
<path d="M195.844 208.188C195.844 209.794 196.321 211.363 197.212 212.698C198.104 214.033 199.372 215.073 200.855 215.687C202.338 216.302 203.971 216.462 205.545 216.149C207.12 215.836 208.566 215.063 209.701 213.928C210.836 212.793 211.609 211.346 211.923 209.772C212.236 208.197 212.075 206.565 211.461 205.082C210.846 203.599 209.806 202.331 208.471 201.439C207.136 200.547 205.567 200.071 203.962 200.071C202.892 200.057 201.83 200.257 200.839 200.66C199.847 201.063 198.947 201.66 198.19 202.417C197.434 203.173 196.836 204.074 196.433 205.065C196.031 206.056 195.83 207.118 195.844 208.188Z" fill="#45413C" stroke="#45413C" stroke-width="7" stroke-linecap="round" stroke-linejoin="round"/>
<path d="M310.25 208.188C310.25 209.794 309.774 211.363 308.882 212.698C307.99 214.033 306.722 215.073 305.239 215.687C303.756 216.302 302.124 216.462 300.549 216.149C298.975 215.836 297.528 215.063 296.393 213.928C295.258 212.793 294.485 211.346 294.172 209.772C293.858 208.197 294.019 206.565 294.634 205.082C295.248 203.599 296.288 202.331 297.623 201.439C298.958 200.547 300.527 200.071 302.133 200.071C303.203 200.057 304.264 200.257 305.256 200.66C306.247 201.063 307.147 201.66 307.904 202.417C308.661 203.173 309.258 204.074 309.661 205.065C310.064 206.056 310.264 207.118 310.25 208.188Z" fill="#45413C" stroke="#45413C" stroke-width="7" stroke-linecap="round" stroke-linejoin="round"/>
<path d="M223.178 257.628C222.511 257.642 221.855 257.8 221.255 258.092C220.654 258.383 220.124 258.8 219.7 259.315C219.252 259.807 218.923 260.396 218.741 261.036C218.558 261.676 218.525 262.35 218.645 263.004C220.069 271.113 224.305 278.46 230.61 283.755C236.915 289.049 244.884 291.951 253.117 291.951C261.349 291.951 269.319 289.049 275.623 283.755C281.928 278.46 286.164 271.113 287.588 263.004C287.708 262.35 287.676 261.676 287.493 261.036C287.31 260.396 286.982 259.807 286.534 259.315C286.109 258.8 285.579 258.383 284.978 258.092C284.378 257.8 283.722 257.642 283.055 257.628H223.178Z" fill="#FF6242"/>
<path d="M253.045 272.387C243.528 272.014 234.165 274.875 226.48 280.504C229.802 284.203 233.866 287.162 238.406 289.187C242.947 291.212 247.863 292.259 252.835 292.259C257.806 292.259 262.723 291.212 267.263 289.187C271.804 287.162 275.867 284.203 279.189 280.504C271.62 274.966 262.42 272.11 253.045 272.387Z" fill="#FFA694"/>
<path d="M223.178 257.628C222.511 257.642 221.855 257.8 221.255 258.092C220.654 258.383 220.124 258.8 219.7 259.315C219.252 259.807 218.923 260.396 218.741 261.036C218.558 261.676 218.525 262.35 218.645 263.004C220.069 271.113 224.305 278.46 230.61 283.755C236.915 289.049 244.884 291.951 253.117 291.951C261.349 291.951 269.319 289.049 275.623 283.755C281.928 278.46 286.164 271.113 287.588 263.004C287.708 262.35 287.676 261.676 287.493 261.036C287.31 260.396 286.982 259.807 286.534 259.315C286.109 258.8 285.579 258.383 284.978 258.092C284.378 257.8 283.722 257.642 283.055 257.628H223.178Z" stroke="#45413C" stroke-width="7" stroke-linecap="round" stroke-linejoin="round"/>
<path d="M179.867 242.762C179.867 244.439 180.978 246.048 182.955 247.234C184.932 248.42 187.613 249.087 190.409 249.087C193.205 249.087 195.886 248.42 197.863 247.234C199.84 246.048 200.951 244.439 200.951 242.762C200.951 241.084 199.84 239.475 197.863 238.289C195.886 237.103 193.205 236.437 190.409 236.437C187.613 236.437 184.932 237.103 182.955 238.289C180.978 239.475 179.867 241.084 179.867 242.762Z" fill="#FFAA54"/>
<path d="M305.215 242.762C305.215 244.439 306.325 246.048 308.302 247.234C310.279 248.42 312.961 249.087 315.757 249.087C318.552 249.087 321.234 248.42 323.211 247.234C325.188 246.048 326.298 244.439 326.298 242.762C326.298 241.084 325.188 239.475 323.211 238.289C321.234 237.103 318.552 236.437 315.757 236.437C312.961 236.437 310.279 237.103 308.302 238.289C306.325 239.475 305.215 241.084 305.215 242.762Z" fill="#FFAA54"/>
<path d="M253.007 67.8779C224.911 67.8862 197.672 77.5615 175.866 95.2791C154.06 112.997 139.014 137.678 133.254 165.178C171.327 150.003 212.027 142.515 253.007 143.145C293.988 142.515 334.688 150.003 372.761 165.178C367.001 137.678 351.955 112.997 330.148 95.2791C308.342 77.5615 281.104 67.8862 253.007 67.8779Z" fill="#FF87AF"/>
<path d="M253.125 98.4458C313.107 98.4458 362.969 126.908 372.667 164.226C366.78 136.893 351.705 112.402 329.952 94.8357C308.2 77.2691 281.084 67.6875 253.125 67.6875C225.165 67.6875 198.049 77.2691 176.297 94.8357C154.544 112.402 139.469 136.893 133.582 164.226C143.28 126.908 193.142 98.4458 253.125 98.4458Z" fill="#FF6196"/>
<path d="M253.007 67.8779C224.911 67.8862 197.672 77.5615 175.866 95.2791C154.06 112.997 139.014 137.678 133.254 165.178C171.327 150.003 212.027 142.515 253.007 143.145C293.988 142.515 334.688 150.003 372.761 165.178C367.001 137.678 351.955 112.997 330.148 95.2791C308.342 77.5615 281.104 67.8862 253.007 67.8779V67.8779Z" stroke="#45413C" stroke-width="7" stroke-linecap="round" stroke-linejoin="round"/>
<path d="M187.938 403.209H235.902V429.563H187.938V403.209Z" fill="#FF42F2" stroke="#45413C" stroke-width="7" stroke-linecap="round" stroke-linejoin="round"/>
<path d="M291.707 416.386C291.707 419.881 293.095 423.233 295.566 425.704C298.038 428.175 301.389 429.563 304.884 429.563C308.379 429.563 311.731 428.175 314.202 425.704C316.673 423.233 318.061 419.881 318.061 416.386C318.061 412.891 316.673 409.54 314.202 407.068C311.731 404.597 308.379 403.209 304.884 403.209C301.389 403.209 298.038 404.597 295.566 407.068C293.095 409.54 291.707 412.891 291.707 416.386Z" fill="#34C759" stroke="#45413C" stroke-width="7" stroke-linecap="round" stroke-linejoin="round"/>
</svg>
