<svg width="495" height="495" viewBox="0 0 495 495" fill="none" xmlns="http://www.w3.org/2000/svg">
<path opacity="0.15" d="M79.8125 460.663C79.8125 463.02 84.1497 465.353 92.5765 467.53C101.003 469.707 113.355 471.685 128.925 473.352C144.496 475.018 162.981 476.34 183.325 477.241C203.669 478.143 225.474 478.607 247.494 478.607C269.514 478.607 291.319 478.143 311.663 477.241C332.007 476.34 350.492 475.018 366.062 473.352C381.633 471.685 393.984 469.707 402.411 467.53C410.838 465.353 415.175 463.02 415.175 460.663C415.175 458.307 410.838 455.974 402.411 453.797C393.984 451.62 381.633 449.642 366.062 447.975C350.492 446.309 332.007 444.987 311.663 444.086C291.319 443.184 269.514 442.72 247.494 442.72C225.474 442.72 203.669 443.184 183.325 444.086C162.981 444.987 144.496 446.309 128.925 447.975C113.355 449.642 101.003 451.62 92.5765 453.797C84.1497 455.974 79.8125 458.307 79.8125 460.663Z" fill="#45413C"/>
<path d="M247.497 32.7979C138.185 32.7979 50.2193 89.5166 52.7974 158.92L86.2099 437.357C87.0092 443.097 89.8647 448.352 94.246 452.145C98.6274 455.939 104.237 458.013 110.032 457.982H384.963C390.758 458.013 396.367 455.939 400.749 452.145C405.13 448.352 407.986 443.097 408.785 437.357L442.197 158.92C444.776 89.5166 356.81 32.7979 247.497 32.7979Z" fill="#E04122" stroke="#45413C" stroke-width="7" stroke-linecap="round" stroke-linejoin="round"/>
<path d="M155.713 309.07L120.238 315.155C118.679 315.424 117.077 315.066 115.783 314.158C114.488 313.249 113.605 311.865 113.329 310.308L67.4379 43.3171C67.2357 42.0139 67.4699 40.6804 68.104 39.5241C68.7381 38.3678 69.7366 37.4535 70.9442 36.9233L104.872 21.9702C105.697 21.5932 106.598 21.4123 107.505 21.4415C108.412 21.4708 109.299 21.7095 110.098 22.139C110.897 22.5685 111.586 23.177 112.111 23.9171C112.635 24.6571 112.982 25.5085 113.122 26.4046L160.56 302.161C160.83 303.719 160.471 305.321 159.563 306.616C158.654 307.911 157.27 308.793 155.713 309.07Z" fill="#FFE500"/>
<path d="M72.1854 71.5734L117.973 54.764L113.435 26.4046C113.295 25.5085 112.948 24.6571 112.424 23.9171C111.899 23.177 111.21 22.5685 110.411 22.139C109.612 21.7095 108.725 21.4708 107.818 21.4415C106.912 21.4123 106.01 21.5932 105.185 21.9702L70.9479 36.9233C69.729 37.4388 68.7198 38.3505 68.0835 39.5108C67.4472 40.6712 67.221 42.0123 67.4416 43.3171L72.1854 71.5734Z" fill="#FFF48C"/>
<path d="M155.713 309.07L120.238 315.155C118.679 315.424 117.077 315.066 115.783 314.158C114.488 313.249 113.605 311.865 113.329 310.308L67.4379 43.3171C67.2357 42.0139 67.4699 40.6804 68.104 39.5241C68.7381 38.3678 69.7366 37.4535 70.9442 36.9233L104.872 21.9702C105.697 21.5932 106.598 21.4123 107.505 21.4415C108.412 21.4708 109.299 21.7095 110.098 22.139C110.897 22.5685 111.586 23.177 112.111 23.9171C112.635 24.6571 112.982 25.5085 113.122 26.4046L160.56 302.161C160.83 303.719 160.471 305.321 159.563 306.616C158.654 307.911 157.27 308.793 155.713 309.07V309.07Z" stroke="#45413C" stroke-width="7" stroke-linecap="round" stroke-linejoin="round"/>
<path d="M166.65 20.8357H202.641C204.227 20.8357 205.748 21.4658 206.87 22.5875C207.992 23.7092 208.622 25.2306 208.622 26.8169L206.25 297.933C206.262 299.267 205.819 300.566 204.994 301.616C204.169 302.665 203.012 303.403 201.712 303.708L165.722 312.473C164.836 312.673 163.917 312.673 163.031 312.471C162.146 312.27 161.316 311.872 160.604 311.309C159.892 310.745 159.316 310.029 158.916 309.214C158.517 308.398 158.305 307.503 158.297 306.595L160.566 26.7138C160.565 25.9242 160.724 25.1426 161.032 24.4156C161.34 23.6887 161.792 23.0313 162.36 22.4827C162.927 21.934 163.6 21.5055 164.337 21.2225C165.074 20.9395 165.861 20.8079 166.65 20.8357Z" fill="#FFE500"/>
<path d="M208.313 61.5704V27.1267C208.313 26.3412 208.158 25.5634 207.857 24.8378C207.557 24.1121 207.116 23.4527 206.561 22.8973C206.005 22.3419 205.346 21.9013 204.62 21.6007C203.895 21.3001 203.117 21.1454 202.331 21.1454H166.341C165.56 21.1317 164.785 21.2737 164.059 21.5629C163.334 21.8522 162.674 22.283 162.117 22.8302C161.561 23.3774 161.118 24.03 160.816 24.75C160.515 25.47 160.359 26.2429 160.359 27.0236V61.4673L208.313 61.5704Z" fill="#FFF48C"/>
<path d="M166.65 20.8357H202.641C204.227 20.8357 205.748 21.4658 206.87 22.5875C207.992 23.7092 208.622 25.2306 208.622 26.8169L206.25 297.933C206.262 299.267 205.819 300.566 204.994 301.616C204.169 302.665 203.012 303.403 201.712 303.708L165.722 312.473C164.836 312.673 163.917 312.673 163.031 312.471C162.146 312.27 161.316 311.872 160.604 311.309C159.892 310.745 159.316 310.029 158.916 309.214C158.517 308.398 158.305 307.503 158.297 306.595L160.566 26.7138C160.565 25.9242 160.724 25.1426 161.032 24.4156C161.34 23.6887 161.792 23.0313 162.36 22.4827C162.927 21.934 163.6 21.5055 164.337 21.2225C165.074 20.9395 165.861 20.8079 166.65 20.8357V20.8357Z" stroke="#45413C" stroke-width="7" stroke-linecap="round" stroke-linejoin="round"/>
<path d="M233.161 63.2201L268.945 66.1076C269.731 66.1725 270.497 66.3923 271.199 66.7546C271.9 67.1168 272.522 67.6142 273.03 68.2181C273.538 68.822 273.922 69.5205 274.159 70.2734C274.396 71.0262 274.481 71.8184 274.411 72.6045L252.239 342.483C252.138 343.831 251.584 345.105 250.666 346.097C249.748 347.09 248.522 347.742 247.186 347.948L210.679 353.929C209.784 354.073 208.868 354.012 207.999 353.749C207.131 353.486 206.334 353.03 205.669 352.414C205.003 351.798 204.486 351.039 204.157 350.194C203.828 349.348 203.696 348.44 203.77 347.536L226.87 68.6857C227.002 67.1355 227.732 65.6976 228.907 64.6771C230.081 63.6567 231.607 63.134 233.161 63.2201Z" fill="#FFE500"/>
<path d="M274.411 72.6047C274.482 71.8187 274.396 71.0264 274.159 70.2736C273.922 69.5208 273.539 68.8223 273.031 68.2184C272.523 67.6144 271.9 67.117 271.199 66.7548C270.498 66.3926 269.732 66.1727 268.945 66.1078L233.161 63.2203C232.375 63.1496 231.583 63.2352 230.83 63.4721C230.077 63.7089 229.379 64.0925 228.775 64.6005C228.171 65.1086 227.673 65.7312 227.311 66.4323C226.949 67.1335 226.729 67.8994 226.664 68.686L224.086 100.345L271.833 104.264L274.411 72.6047Z" fill="#FFF48C"/>
<path d="M233.161 63.2201L268.945 66.1076C269.731 66.1725 270.497 66.3923 271.199 66.7546C271.9 67.1168 272.522 67.6142 273.03 68.2181C273.538 68.822 273.922 69.5205 274.159 70.2734C274.396 71.0262 274.481 71.8184 274.411 72.6045L252.239 342.483C252.138 343.831 251.584 345.105 250.666 346.097C249.748 347.09 248.522 347.742 247.186 347.948L210.679 353.929C209.784 354.073 208.868 354.011 207.999 353.749C207.131 353.486 206.334 353.03 205.669 352.414C205.003 351.798 204.486 351.039 204.157 350.194C203.828 349.348 203.696 348.44 203.77 347.536L226.87 68.6857C227.002 67.1355 227.732 65.6976 228.907 64.6771C230.081 63.6567 231.607 63.134 233.161 63.2201V63.2201Z" stroke="#45413C" stroke-width="7" stroke-linecap="round" stroke-linejoin="round"/>
<path d="M380.938 358.055L345.463 352.692C344.684 352.579 343.934 352.312 343.258 351.909C342.582 351.505 341.992 350.971 341.523 350.339C341.053 349.706 340.713 348.988 340.522 348.223C340.331 347.459 340.293 346.665 340.41 345.886L380.526 77.761C380.71 76.4337 381.342 75.209 382.317 74.29C383.292 73.371 384.552 72.8128 385.888 72.7079L422.807 69.4079C423.714 69.3374 424.626 69.4714 425.474 69.7999C426.323 70.1284 427.087 70.6431 427.711 71.3061C428.334 71.969 428.801 72.7634 429.076 73.6307C429.352 74.498 429.43 75.416 429.304 76.3173L388.054 353.002C387.943 353.812 387.667 354.591 387.244 355.291C386.82 355.991 386.257 356.596 385.591 357.07C384.924 357.543 384.167 357.875 383.366 358.044C382.566 358.214 381.74 358.217 380.938 358.055Z" fill="#FFE500"/>
<path d="M416.825 101.067C418.456 100.911 420.096 101.251 421.531 102.042C422.966 102.833 424.129 104.039 424.869 105.501L429.303 76.4197C429.446 75.5107 429.382 74.581 429.114 73.7006C428.846 72.8202 428.382 72.0121 427.756 71.337C427.131 70.6619 426.36 70.1375 425.503 69.8033C424.646 69.469 423.724 69.3336 422.806 69.4072L385.887 73.0166C384.552 73.1214 383.292 73.6796 382.316 74.5986C381.341 75.5177 380.709 76.7423 380.525 78.0697L376.812 102.923L416.825 101.067Z" fill="#FFF48C"/>
<path d="M380.938 358.055L345.463 352.692C344.684 352.579 343.934 352.312 343.258 351.909C342.582 351.505 341.992 350.971 341.523 350.339C341.053 349.706 340.713 348.988 340.522 348.223C340.331 347.459 340.293 346.665 340.41 345.886L380.526 77.761C380.71 76.4337 381.342 75.209 382.317 74.29C383.292 73.371 384.552 72.8128 385.888 72.7079L422.807 69.4079C423.714 69.3374 424.626 69.4714 425.474 69.7999C426.323 70.1284 427.087 70.6431 427.711 71.3061C428.334 71.969 428.801 72.7634 429.076 73.6307C429.352 74.498 429.43 75.416 429.304 76.3173L388.054 353.002C387.943 353.812 387.667 354.591 387.244 355.291C386.82 355.991 386.257 356.596 385.591 357.07C384.924 357.543 384.167 357.875 383.366 358.044C382.566 358.214 381.74 358.217 380.938 358.055Z" stroke="#45413C" stroke-width="7" stroke-linecap="round" stroke-linejoin="round"/>
<path d="M325.77 307.008L361.657 304.326C362.444 304.261 363.21 304.042 363.911 303.679C364.612 303.317 365.235 302.82 365.743 302.216C366.251 301.612 366.634 300.913 366.871 300.161C367.108 299.408 367.194 298.615 367.123 297.829L346.498 27.8482C346.402 26.5151 345.862 25.2525 344.965 24.2618C344.068 23.2712 342.865 22.6096 341.548 22.3826L305.042 16.0919C304.148 15.9334 303.23 15.9804 302.357 16.2293C301.484 16.4783 300.679 16.9227 300.003 17.5289C299.327 18.1351 298.798 18.8872 298.456 19.7281C298.114 20.5691 297.968 21.4768 298.029 22.3826L318.654 301.439C318.697 302.294 318.924 303.131 319.319 303.891C319.713 304.652 320.267 305.319 320.941 305.847C321.616 306.375 322.396 306.752 323.229 306.952C324.062 307.152 324.929 307.171 325.77 307.008Z" fill="#FFE500"/>
<path d="M306.178 57.8576L349.49 63.3232L346.912 27.8482C346.816 26.5151 346.277 25.2525 345.379 24.2618C344.482 23.2712 343.279 22.6096 341.962 22.3826L305.456 16.0919C304.562 15.9334 303.644 15.9804 302.771 16.2293C301.898 16.4783 301.093 16.9227 300.417 17.5289C299.741 18.1351 299.212 18.8872 298.87 19.7281C298.528 20.5691 298.382 21.4768 298.443 22.3826L301.124 58.8888C302.66 58.0273 304.427 57.6668 306.178 57.8576Z" fill="#FFF48C"/>
<path d="M325.77 307.008L361.657 304.326C362.444 304.261 363.21 304.042 363.911 303.679C364.612 303.317 365.235 302.82 365.743 302.216C366.251 301.612 366.634 300.913 366.871 300.161C367.108 299.408 367.194 298.615 367.123 297.829L346.498 27.8482C346.402 26.5151 345.862 25.2525 344.965 24.2618C344.068 23.2712 342.865 22.6096 341.548 22.3826L305.042 16.0919C304.148 15.9334 303.23 15.9804 302.357 16.2293C301.484 16.4783 300.679 16.9227 300.003 17.5289C299.327 18.1351 298.798 18.8872 298.456 19.7281C298.114 20.5691 297.968 21.4768 298.029 22.3826L318.654 301.439C318.697 302.294 318.924 303.131 319.319 303.891C319.713 304.652 320.267 305.319 320.941 305.847C321.616 306.375 322.396 306.752 323.229 306.952C324.062 307.152 324.929 307.171 325.77 307.008Z" stroke="#45413C" stroke-width="7" stroke-linecap="round" stroke-linejoin="round"/>
<path d="M356.807 382.908L321.332 388.992C319.762 389.232 318.16 388.848 316.869 387.923C315.578 386.998 314.7 385.605 314.422 384.042L268.119 117.67C267.928 116.354 268.166 115.011 268.797 113.841C269.429 112.671 270.42 111.735 271.625 111.173L305.553 96.2199C306.388 95.864 307.292 95.7025 308.198 95.7477C309.104 95.7928 309.988 96.0435 310.783 96.4806C311.578 96.9178 312.263 97.53 312.786 98.2709C313.309 99.0119 313.657 99.8622 313.803 100.757L361.241 376.514C361.365 377.93 360.989 379.344 360.179 380.512C359.369 381.68 358.176 382.527 356.807 382.908Z" fill="#FFE500"/>
<path d="M321.023 139.636L314.216 100.242C314.07 99.3466 313.722 98.4963 313.199 97.7553C312.676 97.0144 311.991 96.4022 311.196 95.965C310.401 95.5278 309.517 95.2772 308.611 95.232C307.705 95.1869 306.801 95.3484 305.966 95.7043L272.038 110.657C270.658 111.169 269.504 112.156 268.786 113.441C268.068 114.727 267.832 116.226 268.12 117.67L274.926 156.961L321.023 139.636Z" fill="#FFF48C"/>
<path d="M356.807 382.907L321.332 388.992C319.762 389.232 318.16 388.848 316.869 387.923C315.578 386.998 314.7 385.605 314.422 384.042L268.119 117.67C267.928 116.354 268.166 115.011 268.797 113.841C269.429 112.671 270.42 111.735 271.625 111.173L305.553 96.2199C306.388 95.864 307.292 95.7025 308.198 95.7477C309.104 95.7928 309.988 96.0435 310.783 96.4806C311.578 96.9178 312.263 97.53 312.786 98.2709C313.309 99.0119 313.657 99.8622 313.803 100.757L361.241 376.514C361.365 377.93 360.989 379.344 360.179 380.512C359.369 381.68 358.176 382.527 356.807 382.907Z" stroke="#45413C" stroke-width="7" stroke-linecap="round" stroke-linejoin="round"/>
<path d="M127.044 400.851L162.828 403.636C163.614 403.692 164.403 403.592 165.15 403.342C165.898 403.092 166.588 402.697 167.182 402.18C167.776 401.662 168.262 401.033 168.612 400.327C168.962 399.621 169.17 398.853 169.222 398.067L189.847 128.086C189.953 126.754 189.603 125.425 188.853 124.319C188.103 123.213 186.999 122.395 185.722 122.001L150.659 110.245C149.796 109.963 148.881 109.878 147.981 109.996C147.081 110.114 146.219 110.431 145.457 110.926C144.696 111.42 144.055 112.079 143.581 112.853C143.107 113.628 142.812 114.498 142.719 115.401L121.063 394.354C121.021 395.175 121.144 395.997 121.423 396.77C121.702 397.543 122.133 398.253 122.69 398.858C123.247 399.463 123.919 399.95 124.666 400.293C125.414 400.635 126.222 400.825 127.044 400.851Z" fill="#FFE500"/>
<path d="M188.097 155.827L190.263 127.983C190.369 126.651 190.018 125.322 189.268 124.216C188.519 123.11 187.414 122.293 186.137 121.899L151.075 110.142C150.212 109.861 149.297 109.775 148.397 109.893C147.497 110.011 146.634 110.329 145.873 110.823C145.111 111.318 144.47 111.976 143.996 112.751C143.523 113.525 143.228 114.396 143.134 115.299L140.969 143.245L188.097 155.827Z" fill="#FFF48C"/>
<path d="M127.044 400.851L162.828 403.636C163.614 403.692 164.403 403.592 165.15 403.342C165.898 403.092 166.588 402.697 167.182 402.18C167.776 401.662 168.262 401.033 168.612 400.327C168.962 399.621 169.17 398.853 169.222 398.067L189.847 128.086C189.953 126.754 189.603 125.425 188.853 124.319C188.103 123.213 186.999 122.395 185.722 122.001L150.659 110.245C149.796 109.963 148.881 109.878 147.981 109.996C147.081 110.114 146.219 110.431 145.457 110.926C144.696 111.42 144.055 112.079 143.581 112.853C143.107 113.628 142.812 114.498 142.719 115.401L121.063 394.354C121.021 395.175 121.144 395.997 121.423 396.77C121.702 397.543 122.133 398.253 122.69 398.858C123.247 399.463 123.919 399.95 124.666 400.293C125.414 400.635 126.222 400.825 127.044 400.851V400.851Z" stroke="#45413C" stroke-width="7" stroke-linecap="round" stroke-linejoin="round"/>
<path d="M221.616 452.002L185.625 452.93C184.845 452.957 184.066 452.829 183.336 452.552C182.606 452.276 181.938 451.856 181.371 451.319C180.805 450.781 180.351 450.136 180.037 449.421C179.723 448.706 179.554 447.936 179.541 447.155L172.734 176.348C172.73 175.019 173.161 173.724 173.961 172.662C174.762 171.601 175.889 170.831 177.169 170.47L212.85 160.158C213.728 159.923 214.647 159.891 215.539 160.064C216.431 160.237 217.271 160.612 217.997 161.158C218.723 161.705 219.314 162.41 219.727 163.219C220.139 164.029 220.362 164.921 220.378 165.83L227.391 445.505C227.477 446.318 227.392 447.141 227.142 447.92C226.892 448.699 226.482 449.418 225.939 450.029C225.395 450.641 224.73 451.132 223.985 451.472C223.241 451.811 222.434 451.992 221.616 452.002Z" fill="#FFE500"/>
<path d="M178.716 207.389L221.203 198.314L220.378 166.242C220.362 165.333 220.139 164.441 219.727 163.631C219.314 162.822 218.723 162.117 217.997 161.57C217.271 161.024 216.431 160.649 215.539 160.476C214.647 160.303 213.728 160.335 212.85 160.57L177.169 170.882C175.889 171.243 174.762 172.013 173.961 173.075C173.161 174.136 172.73 175.431 172.734 176.761L173.663 210.482C174.243 209.643 174.992 208.934 175.862 208.402C176.732 207.869 177.704 207.524 178.716 207.389Z" fill="#FFF48C"/>
<path d="M221.616 452.002L185.625 452.93C184.845 452.957 184.066 452.829 183.336 452.552C182.606 452.276 181.938 451.856 181.371 451.319C180.805 450.781 180.351 450.136 180.037 449.421C179.723 448.706 179.554 447.936 179.541 447.155L172.734 176.348C172.73 175.019 173.161 173.724 173.961 172.662C174.762 171.601 175.889 170.831 177.169 170.47L212.85 160.158C213.728 159.923 214.647 159.891 215.539 160.064C216.431 160.237 217.271 160.612 217.997 161.158C218.723 161.705 219.314 162.41 219.727 163.219C220.139 164.029 220.362 164.921 220.378 165.83L227.391 445.505C227.477 446.318 227.392 447.141 227.142 447.92C226.892 448.699 226.482 449.418 225.939 450.029C225.395 450.641 224.73 451.132 223.985 451.472C223.241 451.811 222.434 451.992 221.616 452.002Z" stroke="#45413C" stroke-width="7" stroke-linecap="round" stroke-linejoin="round"/>
<path d="M262.762 141.285L298.444 145.513C300.015 145.695 301.45 146.491 302.436 147.728C303.421 148.965 303.877 150.541 303.703 152.113L271.837 421.063C271.701 422.412 271.104 423.672 270.145 424.631C269.187 425.589 267.927 426.187 266.578 426.323L229.865 430.963C228.967 431.078 228.054 430.988 227.195 430.698C226.337 430.409 225.555 429.928 224.91 429.293C224.264 428.657 223.772 427.883 223.469 427.029C223.166 426.175 223.061 425.264 223.162 424.363L256.162 146.545C256.239 145.761 256.472 145.001 256.847 144.31C257.223 143.618 257.734 143.009 258.349 142.518C258.965 142.028 259.673 141.666 260.431 141.454C261.189 141.242 261.982 141.185 262.762 141.285Z" fill="#FFE500"/>
<path d="M296.478 182.226C297.72 182.32 298.922 182.709 299.984 183.361L303.697 152.423C303.871 150.851 303.415 149.274 302.43 148.037C301.444 146.8 300.009 146.004 298.438 145.823L262.756 141.595C261.976 141.494 261.183 141.552 260.425 141.764C259.667 141.976 258.959 142.337 258.343 142.828C257.728 143.318 257.217 143.928 256.841 144.619C256.466 145.311 256.233 146.071 256.156 146.854L252.547 177.276L296.478 182.226Z" fill="#FFF48C"/>
<path d="M262.762 141.285L298.444 145.513C300.015 145.695 301.45 146.491 302.436 147.728C303.421 148.965 303.877 150.541 303.703 152.113L271.837 421.063C271.701 422.412 271.104 423.672 270.145 424.631C269.187 425.589 267.927 426.187 266.578 426.323L229.865 430.963C228.967 431.078 228.054 430.988 227.195 430.698C226.337 430.409 225.555 429.928 224.91 429.293C224.264 428.657 223.772 427.883 223.469 427.029C223.166 426.175 223.061 425.264 223.162 424.363L256.162 146.545C256.239 145.761 256.472 145.001 256.847 144.31C257.223 143.618 257.734 143.009 258.349 142.518C258.965 142.028 259.673 141.666 260.431 141.454C261.189 141.242 261.982 141.185 262.762 141.285V141.285Z" stroke="#45413C" stroke-width="7" stroke-linecap="round" stroke-linejoin="round"/>
<path d="M404.556 158.92C402.045 158.889 399.589 159.65 397.534 161.094C395.48 162.537 393.932 164.591 393.109 166.963C377.641 217.288 318.344 254.723 247.497 254.723C176.65 254.723 117.353 216.876 101.884 166.551C100.994 164.256 99.4163 162.291 97.3677 160.925C95.3191 159.559 92.8989 158.859 90.4375 158.92H52.7969L86.2094 437.357C87.0086 443.097 89.8642 448.352 94.2455 452.145C98.6268 455.938 104.236 458.013 110.031 457.982H384.963C390.758 458.013 396.367 455.938 400.748 452.145C405.13 448.352 407.985 443.097 408.784 437.357L442.197 158.92H404.556Z" fill="#FF6242"/>
<path d="M77.3406 212.442C79.7312 212.331 82.0998 212.941 84.1404 214.191C86.181 215.441 87.7998 217.274 88.7875 219.454C104.256 263.798 176.65 296.798 247.497 296.798C318.344 296.798 390.738 263.798 406.206 219.454C407.194 217.274 408.813 215.441 410.853 214.191C412.894 212.941 415.263 212.331 417.653 212.442H435.7L442.197 158.92H404.556C402.045 158.889 399.589 159.65 397.534 161.094C395.48 162.537 393.932 164.591 393.109 166.963C377.641 217.288 318.344 254.723 247.497 254.723C176.65 254.723 117.353 216.876 101.884 166.551C100.994 164.256 99.4163 162.291 97.3677 160.925C95.3191 159.559 92.8989 158.859 90.4375 158.92H52.7969L59.2938 212.854L77.3406 212.442Z" fill="#FF866E"/>
<path d="M404.556 158.92C402.045 158.889 399.589 159.65 397.534 161.094C395.48 162.537 393.932 164.591 393.109 166.963C377.641 217.288 318.344 254.723 247.497 254.723C176.65 254.723 117.353 216.876 101.884 166.551C100.994 164.256 99.4163 162.291 97.3677 160.925C95.3191 159.559 92.8989 158.859 90.4375 158.92H52.7969L86.2094 437.357C87.0086 443.097 89.8642 448.352 94.2455 452.145C98.6268 455.938 104.236 458.013 110.031 457.982H384.963C390.758 458.013 396.367 455.938 400.748 452.145C405.13 448.352 407.985 443.097 408.784 437.357L442.197 158.92H404.556Z" stroke="#45413C" stroke-width="7" stroke-linecap="round" stroke-linejoin="round"/>
<path d="M261.646 428.561L234.664 428.919C234.079 428.929 233.496 428.88 232.948 428.773C232.4 428.666 231.9 428.505 231.475 428.297C231.05 428.09 230.71 427.841 230.475 427.565C230.239 427.289 230.113 426.992 230.103 426.691L225 322.243C224.996 321.73 225.32 321.231 225.92 320.821C226.52 320.412 227.365 320.115 228.324 319.976L255.074 315.999C255.732 315.908 256.422 315.895 257.09 315.962C257.759 316.029 258.389 316.173 258.933 316.384C259.477 316.595 259.921 316.867 260.23 317.179C260.539 317.491 260.706 317.836 260.718 318.186L265.975 426.055C266.04 426.369 265.977 426.686 265.789 426.986C265.602 427.287 265.294 427.564 264.887 427.8C264.479 428.036 263.981 428.225 263.423 428.356C262.864 428.487 262.259 428.557 261.646 428.561Z" fill="#FFE500"/>
<path d="M229.566 348.616L262 340.955L261.37 313.88C261.358 313.113 261.188 312.36 260.873 311.676C260.558 310.993 260.106 310.398 259.553 309.936C258.999 309.475 258.357 309.159 257.676 309.013C256.995 308.866 256.293 308.893 255.623 309.092L228.385 317.798C227.408 318.102 226.548 318.752 225.937 319.648C225.325 320.544 224.996 321.637 225 322.76L226.5 352.92C226.943 352.211 227.336 349.985 228 349.535C228.664 349.086 228.794 348.73 229.566 348.616Z" fill="#FFF48C"/>
<path d="M264.327 428.545L235.371 428.918C234.743 428.93 234.117 428.878 233.53 428.766C232.942 428.655 232.405 428.486 231.949 428.27C231.493 428.053 231.128 427.793 230.875 427.505C230.622 427.217 230.487 426.907 230.476 426.593L225 317.523C224.996 316.987 225.343 316.466 225.987 316.038C226.632 315.611 227.538 315.301 228.568 315.155L257.275 311.002C257.981 310.907 258.721 310.894 259.438 310.964C260.156 311.034 260.832 311.185 261.416 311.405C262 311.625 262.476 311.909 262.808 312.235C263.14 312.561 263.319 312.921 263.332 313.286L268.974 425.928C269.043 426.256 268.975 426.587 268.774 426.901C268.573 427.215 268.243 427.504 267.805 427.75C267.368 427.997 266.833 428.194 266.234 428.331C265.635 428.468 264.986 428.541 264.327 428.545Z" stroke="#45413C" stroke-width="7" stroke-linecap="round" stroke-linejoin="round"/>
</svg>
