<svg width="495" height="495" viewBox="0 0 495 495" fill="none" xmlns="http://www.w3.org/2000/svg">
<path d="M302.403 215.36C309.361 214.592 316.403 215.367 323.028 217.629L411.406 131.416L387.584 106.976L297.144 195.251C300.615 201.383 302.428 208.314 302.403 215.36Z" fill="#BF8256" stroke="#45413C" stroke-width="7" stroke-linecap="round" stroke-linejoin="round"/>
<path d="M221.421 202.678C219.106 191.728 214.652 181.343 208.317 172.117C201.981 162.892 193.887 155.007 184.499 148.914C175.111 142.821 164.613 138.641 153.607 136.612C142.601 134.583 131.302 134.746 120.359 137.091C62.0931 149.156 49.4087 212.991 59.1025 258.675C85.3993 379.95 216.781 433.575 260.712 448.219C265.002 449.66 269.6 449.923 274.027 448.98C278.453 448.037 282.545 445.922 285.874 442.856C319.802 411.919 418.596 308.794 392.815 187.828C382.915 141.834 345.481 89.2405 287.112 101.306C276.141 103.646 265.738 108.124 256.498 114.486C247.258 120.847 239.363 128.967 233.262 138.381C227.162 147.795 222.976 158.319 220.944 169.351C218.912 180.384 219.075 191.708 221.421 202.678Z" fill="#FF6242"/>
<path d="M300.207 142.144C283.267 145.737 267.732 154.168 255.486 166.413C243.241 178.659 234.81 194.194 231.217 211.135C230.866 212.719 230.066 214.169 228.914 215.311C227.761 216.453 226.304 217.24 224.717 217.577C223.13 217.914 221.479 217.787 219.962 217.212C218.445 216.636 217.125 215.636 216.161 214.331C205.993 200.314 191.982 189.543 175.821 183.32C159.661 177.098 142.044 175.691 125.101 179.269C83.8512 188.138 63.9481 221.86 58.8949 257.644C49.5106 211.753 62.4012 149.053 120.77 136.781C142.855 132.176 165.865 136.531 184.74 148.888C203.615 161.246 216.809 180.594 221.42 202.678C216.772 180.569 221.076 157.519 233.388 138.577C245.701 119.635 265.019 106.344 287.111 101.616C345.067 89.2408 382.295 140.803 392.401 186.9C373.323 156.169 341.87 133.275 300.207 142.144Z" fill="#FF866E"/>
<path d="M221.421 202.678C219.106 191.728 214.652 181.343 208.317 172.117C201.981 162.892 193.887 155.007 184.499 148.914C175.111 142.821 164.613 138.641 153.607 136.612C142.601 134.583 131.302 134.746 120.359 137.091C62.0931 149.156 49.4087 212.991 59.1025 258.675C85.3993 379.95 216.781 433.575 260.712 448.219C265.002 449.66 269.6 449.923 274.027 448.98C278.453 448.037 282.545 445.922 285.874 442.856C319.802 411.919 418.596 308.794 392.815 187.828C382.915 141.834 345.481 89.2405 287.112 101.306C276.141 103.646 265.738 108.124 256.498 114.486C247.258 120.847 239.363 128.967 233.262 138.381C227.162 147.795 222.976 158.319 220.944 169.351C218.912 180.384 219.075 191.708 221.421 202.678V202.678Z" stroke="#45413C" stroke-width="7" stroke-linecap="round" stroke-linejoin="round"/>
<path d="M170.438 370.386L97.1972 441.808L73.3658 417.37L146.606 345.948L170.438 370.386Z" fill="#BF8256" stroke="#45413C" stroke-width="7" stroke-linecap="round" stroke-linejoin="round"/>
<path d="M101.83 465.129C101.967 466.737 102.556 468.274 103.529 469.562C104.501 470.85 105.818 471.836 107.328 472.407C108.837 472.979 110.477 473.112 112.059 472.791C113.641 472.471 115.1 471.709 116.267 470.595L142.255 445.329C149.318 438.821 153.635 429.864 154.324 420.283C155.014 410.703 152.026 401.22 145.967 393.767L97.0861 441.72C99.4552 449.343 101.045 457.186 101.83 465.129Z" fill="#00B8F0" stroke="#45413C" stroke-width="7" stroke-linecap="round" stroke-linejoin="round"/>
<path d="M50.0594 412.02C48.4356 411.863 46.8905 411.245 45.606 410.239C44.3216 409.234 43.3513 407.882 42.8095 406.343C42.2676 404.804 42.1768 403.143 42.5478 401.554C42.9187 399.965 43.7359 398.516 44.9032 397.376L70.8906 371.595C77.5386 364.658 86.5996 360.543 96.1977 360.101C105.796 359.66 115.196 362.926 122.453 369.223L73.675 416.764C65.9761 414.418 58.0668 412.829 50.0594 412.02Z" fill="#00B8F0" stroke="#45413C" stroke-width="7" stroke-linecap="round" stroke-linejoin="round"/>
<path d="M439.871 74.1802L395.115 88.5146C393.11 89.1913 391.307 90.3586 389.869 91.9102C388.431 93.4617 387.404 95.3483 386.881 97.3982C386.359 99.448 386.357 101.596 386.876 103.647C387.396 105.697 388.42 107.586 389.855 109.14L408.624 128.733C410.128 130.301 412.01 131.456 414.089 132.087C416.167 132.719 418.373 132.806 420.495 132.34C422.617 131.874 424.584 130.871 426.207 129.427C427.83 127.983 429.055 126.146 429.765 124.093L445.233 79.6458C445.472 78.8955 445.502 78.0942 445.32 77.3282C445.137 76.5621 444.749 75.8602 444.198 75.2981C443.646 74.736 442.952 74.3349 442.19 74.1379C441.427 73.941 440.626 73.9556 439.871 74.1802Z" fill="#C0DCEB" stroke="#45413C" stroke-width="7" stroke-linecap="round" stroke-linejoin="round"/>
<path d="M127.008 328.072C127.008 338.385 142.992 346.016 161.142 344.366C161.142 366.229 184.242 390.566 197.339 382.832" stroke="#45413C" stroke-width="7" stroke-linecap="round" stroke-linejoin="round"/>
<path d="M69.4149 123.994C51.6958 127.666 36.1595 138.223 26.2203 153.345C16.281 168.466 12.752 186.916 16.4087 204.638" stroke="#45413C" stroke-width="7" stroke-linecap="round" stroke-linejoin="round"/>
<path d="M77.3578 94.5005C72.6792 92.6217 67.6761 91.6835 62.6347 91.7397C57.5932 91.7958 52.6123 92.8452 47.9767 94.8278C43.3411 96.8104 39.1417 99.6873 35.6188 103.294C32.0959 106.901 29.3184 111.166 27.4453 115.847" stroke="#45413C" stroke-width="7" stroke-linecap="round" stroke-linejoin="round"/>
</svg>
