<svg width="495" height="495" viewBox="0 0 495 495" fill="none" xmlns="http://www.w3.org/2000/svg">
<path opacity="0.15" d="M80.0703 460.663C80.0703 463.02 84.4075 465.353 92.8343 467.53C101.261 469.707 113.612 471.685 129.183 473.352C144.754 475.018 163.239 476.34 183.583 477.241C203.927 478.143 225.731 478.607 247.752 478.607C269.772 478.607 291.576 478.143 311.92 477.241C332.264 476.34 350.749 475.018 366.32 473.352C381.891 471.685 394.242 469.707 402.669 467.53C411.096 465.353 415.433 463.02 415.433 460.663C415.433 458.307 411.096 455.974 402.669 453.797C394.242 451.62 381.891 449.642 366.32 447.975C350.749 446.309 332.264 444.987 311.92 444.086C291.576 443.184 269.772 442.72 247.752 442.72C225.731 442.72 203.927 443.184 183.583 444.086C163.239 444.987 144.754 446.309 129.183 447.975C113.612 449.642 101.261 451.62 92.8343 453.797C84.4075 455.974 80.0703 458.307 80.0703 460.663Z" fill="#45413C"/>
<path d="M247.755 32.7979C138.443 32.7979 50.4771 89.5166 53.0553 158.92L86.4678 437.357C87.267 443.097 90.1225 448.352 94.5039 452.145C98.8852 455.939 104.494 458.013 110.29 457.982H385.221C391.016 458.013 396.625 455.939 401.007 452.145C405.388 448.352 408.243 443.097 409.043 437.357L442.455 158.92C445.033 89.5166 357.068 32.7979 247.755 32.7979Z" fill="#E04122" stroke="#45413C" stroke-width="7" stroke-linecap="round" stroke-linejoin="round"/>
<path d="M155.971 309.07L120.496 315.155C118.937 315.424 117.335 315.066 116.04 314.158C114.746 313.249 113.863 311.865 113.586 310.308L67.6957 43.3171C67.4935 42.0139 67.7277 40.6804 68.3618 39.5241C68.9959 38.3678 69.9944 37.4535 71.202 36.9233L105.13 21.9702C105.955 21.5932 106.856 21.4123 107.763 21.4415C108.67 21.4708 109.557 21.7095 110.356 22.139C111.155 22.5685 111.844 23.177 112.369 23.9171C112.893 24.6571 113.239 25.5085 113.38 26.4046L160.818 302.161C161.087 303.719 160.729 305.321 159.821 306.616C158.912 307.911 157.528 308.793 155.971 309.07Z" fill="#FFE500"/>
<path d="M72.4432 71.5734L118.231 54.764L113.693 26.4046C113.552 25.5085 113.206 24.6571 112.682 23.9171C112.157 23.177 111.468 22.5685 110.669 22.139C109.87 21.7095 108.983 21.4708 108.076 21.4415C107.169 21.4123 106.268 21.5932 105.443 21.9702L71.2057 36.9233C69.9869 37.4388 68.9776 38.3505 68.3413 39.5108C67.705 40.6712 67.4788 42.0123 67.6994 43.3171L72.4432 71.5734Z" fill="#FFF48C"/>
<path d="M155.971 309.07L120.496 315.155C118.937 315.424 117.335 315.066 116.04 314.158C114.746 313.249 113.863 311.865 113.586 310.308L67.6957 43.3171C67.4935 42.0139 67.7277 40.6804 68.3618 39.5241C68.9959 38.3678 69.9944 37.4535 71.202 36.9233L105.13 21.9702C105.955 21.5932 106.856 21.4123 107.763 21.4415C108.67 21.4708 109.557 21.7095 110.356 22.139C111.155 22.5685 111.844 23.177 112.369 23.9171C112.893 24.6571 113.239 25.5085 113.38 26.4046L160.818 302.161C161.087 303.719 160.729 305.321 159.821 306.616C158.912 307.911 157.528 308.793 155.971 309.07V309.07Z" stroke="#45413C" stroke-width="7" stroke-linecap="round" stroke-linejoin="round"/>
<path d="M166.908 20.8357H202.898C204.485 20.8357 206.006 21.4658 207.128 22.5875C208.25 23.7092 208.88 25.2306 208.88 26.8169L206.508 297.933C206.52 299.267 206.077 300.566 205.252 301.616C204.427 302.665 203.27 303.403 201.97 303.708L165.98 312.473C165.094 312.673 164.174 312.673 163.289 312.471C162.403 312.27 161.574 311.872 160.862 311.309C160.15 310.745 159.573 310.029 159.174 309.214C158.775 308.398 158.563 307.503 158.555 306.595L160.823 26.7138C160.823 25.9242 160.982 25.1426 161.29 24.4156C161.598 23.6887 162.049 23.0313 162.617 22.4827C163.185 21.934 163.858 21.5055 164.595 21.2225C165.332 20.9395 166.119 20.8079 166.908 20.8357Z" fill="#FFE500"/>
<path d="M208.57 61.5704V27.1267C208.57 26.3412 208.416 25.5634 208.115 24.8378C207.814 24.1121 207.374 23.4527 206.818 22.8973C206.263 22.3419 205.604 21.9013 204.878 21.6007C204.152 21.3001 203.375 21.1454 202.589 21.1454H166.598C165.818 21.1317 165.042 21.2737 164.317 21.5629C163.592 21.8522 162.932 22.283 162.375 22.8302C161.818 23.3774 161.376 24.03 161.074 24.75C160.772 25.47 160.617 26.2429 160.617 27.0236V61.4673L208.57 61.5704Z" fill="#FFF48C"/>
<path d="M166.908 20.8357H202.898C204.485 20.8357 206.006 21.4658 207.128 22.5875C208.25 23.7092 208.88 25.2306 208.88 26.8169L206.508 297.933C206.52 299.267 206.077 300.566 205.252 301.616C204.427 302.665 203.27 303.403 201.97 303.708L165.98 312.473C165.094 312.673 164.174 312.673 163.289 312.471C162.403 312.27 161.574 311.872 160.862 311.309C160.15 310.745 159.573 310.029 159.174 309.214C158.775 308.398 158.563 307.503 158.555 306.595L160.823 26.7138C160.823 25.9242 160.982 25.1426 161.29 24.4156C161.598 23.6887 162.049 23.0313 162.617 22.4827C163.185 21.934 163.858 21.5055 164.595 21.2225C165.332 20.9395 166.119 20.8079 166.908 20.8357V20.8357Z" stroke="#45413C" stroke-width="7" stroke-linecap="round" stroke-linejoin="round"/>
<path d="M233.418 63.2201L269.203 66.1076C269.989 66.1725 270.755 66.3923 271.456 66.7546C272.158 67.1168 272.78 67.6142 273.288 68.2181C273.796 68.822 274.18 69.5205 274.417 70.2734C274.654 71.0262 274.739 71.8184 274.668 72.6045L252.497 342.483C252.396 343.831 251.841 345.105 250.924 346.097C250.006 347.09 248.779 347.742 247.443 347.948L210.937 353.929C210.042 354.073 209.125 354.012 208.257 353.749C207.389 353.486 206.592 353.03 205.927 352.414C205.261 351.798 204.744 351.039 204.415 350.194C204.086 349.348 203.954 348.44 204.028 347.536L227.128 68.6857C227.26 67.1355 227.99 65.6976 229.165 64.6771C230.339 63.6567 231.865 63.134 233.418 63.2201Z" fill="#FFE500"/>
<path d="M274.669 72.6047C274.739 71.8187 274.654 71.0264 274.417 70.2736C274.18 69.5208 273.797 68.8223 273.289 68.2184C272.781 67.6144 272.158 67.117 271.457 66.7548C270.756 66.3926 269.99 66.1727 269.203 66.1078L233.419 63.2203C232.633 63.1496 231.84 63.2352 231.088 63.4721C230.335 63.7089 229.636 64.0925 229.032 64.6005C228.428 65.1086 227.931 65.7312 227.569 66.4323C227.207 67.1335 226.987 67.8994 226.922 68.686L224.344 100.345L272.091 104.264L274.669 72.6047Z" fill="#FFF48C"/>
<path d="M233.418 63.2201L269.203 66.1076C269.989 66.1725 270.755 66.3923 271.456 66.7546C272.158 67.1168 272.78 67.6142 273.288 68.2181C273.796 68.822 274.18 69.5205 274.417 70.2734C274.654 71.0262 274.739 71.8184 274.668 72.6045L252.497 342.483C252.396 343.831 251.841 345.105 250.924 346.097C250.006 347.09 248.779 347.742 247.443 347.948L210.937 353.929C210.042 354.073 209.125 354.011 208.257 353.749C207.389 353.486 206.592 353.03 205.927 352.414C205.261 351.798 204.744 351.039 204.415 350.194C204.086 349.348 203.954 348.44 204.028 347.536L227.128 68.6857C227.26 67.1355 227.99 65.6976 229.165 64.6771C230.339 63.6567 231.865 63.134 233.418 63.2201V63.2201Z" stroke="#45413C" stroke-width="7" stroke-linecap="round" stroke-linejoin="round"/>
<path d="M381.196 358.055L345.721 352.692C344.941 352.579 344.192 352.312 343.516 351.909C342.84 351.505 342.25 350.971 341.78 350.339C341.311 349.706 340.971 348.988 340.78 348.223C340.589 347.459 340.551 346.665 340.668 345.886L380.783 77.761C380.967 76.4337 381.599 75.209 382.575 74.29C383.55 73.371 384.81 72.8128 386.146 72.7079L423.065 69.4079C423.972 69.3374 424.884 69.4714 425.732 69.7999C426.581 70.1284 427.345 70.6431 427.968 71.3061C428.592 71.969 429.059 72.7634 429.334 73.6307C429.61 74.498 429.688 75.416 429.562 76.3173L388.312 353.002C388.201 353.812 387.925 354.591 387.502 355.291C387.078 355.991 386.515 356.596 385.848 357.07C385.181 357.543 384.424 357.875 383.624 358.044C382.824 358.214 381.998 358.217 381.196 358.055Z" fill="#FFE500"/>
<path d="M417.083 101.067C418.714 100.911 420.354 101.251 421.789 102.042C423.224 102.833 424.387 104.039 425.127 105.501L429.561 76.4197C429.704 75.5107 429.639 74.581 429.372 73.7006C429.104 72.8202 428.639 72.0121 428.014 71.337C427.389 70.6619 426.618 70.1375 425.761 69.8033C424.903 69.469 423.981 69.3336 423.064 69.4072L386.145 73.0166C384.809 73.1214 383.549 73.6796 382.574 74.5986C381.599 75.5177 380.967 76.7423 380.783 78.0697L377.07 102.923L417.083 101.067Z" fill="#FFF48C"/>
<path d="M381.196 358.055L345.721 352.692C344.941 352.579 344.192 352.312 343.516 351.909C342.84 351.505 342.25 350.971 341.78 350.339C341.311 349.706 340.971 348.988 340.78 348.223C340.589 347.459 340.551 346.665 340.668 345.886L380.783 77.761C380.967 76.4337 381.599 75.209 382.575 74.29C383.55 73.371 384.81 72.8128 386.146 72.7079L423.065 69.4079C423.972 69.3374 424.884 69.4714 425.732 69.7999C426.581 70.1284 427.345 70.6431 427.968 71.3061C428.592 71.969 429.059 72.7634 429.334 73.6307C429.61 74.498 429.688 75.416 429.562 76.3173L388.312 353.002C388.201 353.812 387.925 354.591 387.502 355.291C387.078 355.991 386.515 356.596 385.848 357.07C385.181 357.543 384.424 357.875 383.624 358.044C382.824 358.214 381.998 358.217 381.196 358.055Z" stroke="#45413C" stroke-width="7" stroke-linecap="round" stroke-linejoin="round"/>
<path d="M326.028 307.008L361.915 304.326C362.702 304.261 363.468 304.042 364.169 303.679C364.87 303.317 365.492 302.82 366 302.216C366.509 301.612 366.892 300.913 367.129 300.161C367.366 299.408 367.451 298.615 367.381 297.829L346.756 27.8482C346.66 26.5151 346.12 25.2525 345.223 24.2618C344.326 23.2712 343.123 22.6096 341.806 22.3826L305.299 16.0919C304.406 15.9334 303.487 15.9804 302.614 16.2293C301.741 16.4783 300.936 16.9227 300.261 17.5289C299.585 18.1351 299.056 18.8872 298.714 19.7281C298.372 20.5691 298.226 21.4768 298.287 22.3826L318.912 301.439C318.955 302.294 319.182 303.131 319.577 303.891C319.971 304.652 320.525 305.319 321.199 305.847C321.874 306.375 322.654 306.752 323.487 306.952C324.32 307.152 325.187 307.171 326.028 307.008Z" fill="#FFE500"/>
<path d="M306.435 57.8576L349.748 63.3232L347.17 27.8482C347.074 26.5151 346.534 25.2525 345.637 24.2618C344.74 23.2712 343.537 22.6096 342.22 22.3826L305.713 16.0919C304.82 15.9334 303.901 15.9804 303.028 16.2293C302.155 16.4783 301.35 16.9227 300.675 17.5289C299.999 18.1351 299.47 18.8872 299.128 19.7281C298.786 20.5691 298.64 21.4768 298.701 22.3826L301.382 58.8888C302.918 58.0273 304.685 57.6668 306.435 57.8576Z" fill="#FFF48C"/>
<path d="M326.028 307.008L361.915 304.326C362.702 304.261 363.468 304.042 364.169 303.679C364.87 303.317 365.492 302.82 366 302.216C366.509 301.612 366.892 300.913 367.129 300.161C367.366 299.408 367.451 298.615 367.381 297.829L346.756 27.8482C346.66 26.5151 346.12 25.2525 345.223 24.2618C344.326 23.2712 343.123 22.6096 341.806 22.3826L305.299 16.0919C304.406 15.9334 303.487 15.9804 302.614 16.2293C301.741 16.4783 300.936 16.9227 300.261 17.5289C299.585 18.1351 299.056 18.8872 298.714 19.7281C298.372 20.5691 298.226 21.4768 298.287 22.3826L318.912 301.439C318.955 302.294 319.182 303.131 319.577 303.891C319.971 304.652 320.525 305.319 321.199 305.847C321.874 306.375 322.654 306.752 323.487 306.952C324.32 307.152 325.187 307.171 326.028 307.008Z" stroke="#45413C" stroke-width="7" stroke-linecap="round" stroke-linejoin="round"/>
<path d="M357.064 382.908L321.589 388.992C320.019 389.232 318.418 388.848 317.127 387.923C315.836 386.998 314.958 385.605 314.68 384.042L268.377 117.67C268.186 116.354 268.423 115.011 269.055 113.841C269.686 112.671 270.678 111.735 271.883 111.173L305.811 96.2199C306.646 95.864 307.55 95.7025 308.456 95.7477C309.362 95.7928 310.246 96.0435 311.041 96.4806C311.835 96.9178 312.52 97.53 313.044 98.2709C313.567 99.0119 313.915 99.8622 314.061 100.757L361.499 376.514C361.623 377.93 361.247 379.344 360.437 380.512C359.627 381.68 358.434 382.527 357.064 382.908Z" fill="#FFE500"/>
<path d="M321.28 139.636L314.474 100.242C314.328 99.3466 313.98 98.4963 313.457 97.7553C312.933 97.0144 312.248 96.4022 311.454 95.965C310.659 95.5278 309.775 95.2772 308.869 95.232C307.963 95.1869 307.059 95.3484 306.224 95.7043L272.296 110.657C270.915 111.169 269.762 112.156 269.044 113.441C268.326 114.727 268.089 116.226 268.377 117.67L275.184 156.961L321.28 139.636Z" fill="#FFF48C"/>
<path d="M357.064 382.907L321.589 388.992C320.019 389.232 318.418 388.848 317.127 387.923C315.836 386.998 314.958 385.605 314.68 384.042L268.377 117.67C268.186 116.354 268.423 115.011 269.055 113.841C269.686 112.671 270.678 111.735 271.883 111.173L305.811 96.2199C306.646 95.864 307.55 95.7025 308.456 95.7477C309.362 95.7928 310.246 96.0435 311.041 96.4806C311.835 96.9178 312.52 97.53 313.044 98.2709C313.567 99.0119 313.915 99.8622 314.061 100.757L361.499 376.514C361.623 377.93 361.247 379.344 360.437 380.512C359.627 381.68 358.434 382.527 357.064 382.907Z" stroke="#45413C" stroke-width="7" stroke-linecap="round" stroke-linejoin="round"/>
<path d="M127.302 400.851L163.086 403.636C163.872 403.692 164.661 403.592 165.408 403.342C166.155 403.092 166.846 402.697 167.44 402.18C168.034 401.662 168.52 401.033 168.87 400.327C169.22 399.621 169.427 398.853 169.48 398.067L190.105 128.086C190.211 126.754 189.861 125.425 189.111 124.319C188.361 123.213 187.257 122.395 185.98 122.001L150.917 110.245C150.054 109.963 149.139 109.878 148.239 109.996C147.339 110.114 146.476 110.431 145.715 110.926C144.954 111.42 144.312 112.079 143.839 112.853C143.365 113.628 143.07 114.498 142.977 115.401L121.32 394.354C121.279 395.175 121.401 395.997 121.681 396.77C121.96 397.543 122.391 398.253 122.948 398.858C123.505 399.463 124.177 399.95 124.924 400.293C125.672 400.635 126.48 400.825 127.302 400.851Z" fill="#FFE500"/>
<path d="M188.355 155.827L190.52 127.983C190.627 126.651 190.276 125.322 189.526 124.216C188.776 123.11 187.672 122.293 186.395 121.899L151.333 110.142C150.47 109.861 149.555 109.775 148.655 109.893C147.754 110.011 146.892 110.329 146.131 110.823C145.369 111.318 144.728 111.976 144.254 112.751C143.78 113.525 143.486 114.396 143.392 115.299L141.227 143.245L188.355 155.827Z" fill="#FFF48C"/>
<path d="M127.302 400.851L163.086 403.636C163.872 403.692 164.661 403.592 165.408 403.342C166.155 403.092 166.846 402.697 167.44 402.18C168.034 401.662 168.52 401.033 168.87 400.327C169.22 399.621 169.427 398.853 169.48 398.067L190.105 128.086C190.211 126.754 189.861 125.425 189.111 124.319C188.361 123.213 187.257 122.395 185.98 122.001L150.917 110.245C150.054 109.963 149.139 109.878 148.239 109.996C147.339 110.114 146.476 110.431 145.715 110.926C144.954 111.42 144.312 112.079 143.839 112.853C143.365 113.628 143.07 114.498 142.977 115.401L121.32 394.354C121.279 395.175 121.401 395.997 121.681 396.77C121.96 397.543 122.391 398.253 122.948 398.858C123.505 399.463 124.177 399.95 124.924 400.293C125.672 400.635 126.48 400.825 127.302 400.851V400.851Z" stroke="#45413C" stroke-width="7" stroke-linecap="round" stroke-linejoin="round"/>
<path d="M221.873 452.002L185.883 452.93C185.102 452.957 184.324 452.829 183.594 452.552C182.863 452.276 182.196 451.856 181.629 451.319C181.063 450.781 180.609 450.136 180.295 449.421C179.98 448.706 179.812 447.936 179.798 447.155L172.992 176.348C172.987 175.019 173.418 173.724 174.219 172.662C175.02 171.601 176.147 170.831 177.427 170.47L213.108 160.158C213.985 159.923 214.905 159.891 215.797 160.064C216.689 160.237 217.529 160.612 218.255 161.158C218.98 161.705 219.572 162.41 219.985 163.219C220.397 164.029 220.62 164.921 220.636 165.83L227.648 445.505C227.735 446.318 227.65 447.141 227.4 447.92C227.15 448.699 226.74 449.418 226.196 450.029C225.653 450.641 224.988 451.132 224.243 451.472C223.499 451.811 222.692 451.992 221.873 452.002Z" fill="#FFE500"/>
<path d="M178.973 207.389L221.461 198.314L220.636 166.242C220.62 165.333 220.397 164.441 219.985 163.631C219.572 162.822 218.98 162.117 218.255 161.57C217.529 161.024 216.689 160.649 215.797 160.476C214.905 160.303 213.985 160.335 213.108 160.57L177.427 170.882C176.147 171.243 175.02 172.013 174.219 173.075C173.418 174.136 172.987 175.431 172.992 176.761L173.92 210.482C174.501 209.643 175.25 208.934 176.12 208.402C176.99 207.869 177.962 207.524 178.973 207.389Z" fill="#FFF48C"/>
<path d="M221.873 452.002L185.883 452.93C185.102 452.957 184.324 452.829 183.594 452.552C182.863 452.276 182.196 451.856 181.629 451.319C181.063 450.781 180.609 450.136 180.295 449.421C179.98 448.706 179.812 447.936 179.798 447.155L172.992 176.348C172.987 175.019 173.418 173.724 174.219 172.662C175.02 171.601 176.147 170.831 177.427 170.47L213.108 160.158C213.985 159.923 214.905 159.891 215.797 160.064C216.689 160.237 217.529 160.612 218.255 161.158C218.98 161.705 219.572 162.41 219.985 163.219C220.397 164.029 220.62 164.921 220.636 165.83L227.648 445.505C227.735 446.318 227.65 447.141 227.4 447.92C227.15 448.699 226.74 449.418 226.196 450.029C225.653 450.641 224.988 451.132 224.243 451.472C223.499 451.811 222.692 451.992 221.873 452.002Z" stroke="#45413C" stroke-width="7" stroke-linecap="round" stroke-linejoin="round"/>
<path d="M263.02 141.285L298.701 145.513C300.273 145.695 301.708 146.491 302.694 147.728C303.679 148.965 304.135 150.541 303.961 152.113L272.095 421.063C271.959 422.412 271.362 423.672 270.403 424.631C269.445 425.589 268.184 426.187 266.836 426.323L230.123 430.963C229.225 431.078 228.312 430.988 227.453 430.698C226.595 430.409 225.813 429.928 225.168 429.293C224.522 428.657 224.029 427.883 223.727 427.029C223.424 426.175 223.319 425.264 223.42 424.363L256.42 146.545C256.497 145.761 256.73 145.001 257.105 144.31C257.481 143.618 257.992 143.009 258.607 142.518C259.223 142.028 259.931 141.666 260.689 141.454C261.447 141.242 262.239 141.185 263.02 141.285Z" fill="#FFE500"/>
<path d="M296.736 182.226C297.978 182.32 299.18 182.709 300.242 183.361L303.955 152.423C304.129 150.851 303.673 149.274 302.687 148.037C301.702 146.8 300.266 146.004 298.695 145.823L263.014 141.595C262.233 141.494 261.441 141.552 260.683 141.764C259.924 141.976 259.217 142.337 258.601 142.828C257.986 143.318 257.475 143.928 257.099 144.619C256.723 145.311 256.49 146.071 256.414 146.854L252.805 177.276L296.736 182.226Z" fill="#FFF48C"/>
<path d="M263.02 141.285L298.701 145.513C300.273 145.695 301.708 146.491 302.694 147.728C303.679 148.965 304.135 150.541 303.961 152.113L272.095 421.063C271.959 422.412 271.362 423.672 270.403 424.631C269.445 425.589 268.184 426.187 266.836 426.323L230.123 430.963C229.225 431.078 228.312 430.988 227.453 430.698C226.595 430.409 225.813 429.928 225.168 429.293C224.522 428.657 224.029 427.883 223.727 427.029C223.424 426.175 223.319 425.264 223.42 424.363L256.42 146.545C256.497 145.761 256.73 145.001 257.105 144.31C257.481 143.618 257.992 143.009 258.607 142.518C259.223 142.028 259.931 141.666 260.689 141.454C261.447 141.242 262.239 141.185 263.02 141.285V141.285Z" stroke="#45413C" stroke-width="7" stroke-linecap="round" stroke-linejoin="round"/>
<path d="M404.814 158.92C402.303 158.889 399.847 159.65 397.792 161.094C395.738 162.537 394.19 164.591 393.367 166.963C377.898 217.288 318.602 254.723 247.755 254.723C176.908 254.723 117.611 216.876 102.142 166.551C101.251 164.256 99.6742 162.291 97.6255 160.925C95.5769 159.559 93.1567 158.859 90.6953 158.92H53.0547L86.4672 437.357C87.2665 443.097 90.122 448.352 94.5033 452.145C98.8846 455.938 104.494 458.013 110.289 457.982H385.22C391.016 458.013 396.625 455.938 401.006 452.145C405.387 448.352 408.243 443.097 409.042 437.357L442.455 158.92H404.814Z" fill="#FF6242"/>
<path d="M77.5984 212.442C79.989 212.331 82.3576 212.941 84.3982 214.191C86.4388 215.441 88.0576 217.274 89.0453 219.454C104.514 263.798 176.908 296.798 247.755 296.798C318.602 296.798 390.995 263.798 406.464 219.454C407.452 217.274 409.071 215.441 411.111 214.191C413.152 212.941 415.52 212.331 417.911 212.442H435.958L442.455 158.92H404.814C402.303 158.889 399.847 159.65 397.792 161.094C395.738 162.537 394.19 164.591 393.367 166.963C377.898 217.288 318.602 254.723 247.755 254.723C176.908 254.723 117.611 216.876 102.142 166.551C101.251 164.256 99.6742 162.291 97.6255 160.925C95.5769 159.559 93.1567 158.859 90.6953 158.92H53.0547L59.5516 212.854L77.5984 212.442Z" fill="#FF866E"/>
<path d="M404.814 158.92C402.303 158.889 399.847 159.65 397.792 161.094C395.738 162.537 394.19 164.591 393.367 166.963C377.898 217.288 318.602 254.723 247.755 254.723C176.908 254.723 117.611 216.876 102.142 166.551C101.251 164.256 99.6742 162.291 97.6255 160.925C95.5769 159.559 93.1567 158.859 90.6953 158.92H53.0547L86.4672 437.357C87.2665 443.097 90.122 448.352 94.5033 452.145C98.8846 455.938 104.494 458.013 110.289 457.982H385.22C391.016 458.013 396.625 455.938 401.006 452.145C405.387 448.352 408.243 443.097 409.042 437.357L442.455 158.92H404.814Z" stroke="#45413C" stroke-width="7" stroke-linecap="round" stroke-linejoin="round"/>
<path d="M261.904 428.561L234.922 428.919C234.337 428.929 233.753 428.88 233.206 428.773C232.658 428.666 232.158 428.505 231.733 428.297C231.308 428.09 230.968 427.841 230.732 427.565C230.497 427.289 230.37 426.992 230.36 426.691L225.258 322.243C225.254 321.73 225.577 321.231 226.178 320.821C226.778 320.412 227.623 320.115 228.582 319.976L255.332 315.999C255.99 315.908 256.68 315.895 257.348 315.962C258.017 316.029 258.647 316.173 259.191 316.384C259.735 316.595 260.178 316.867 260.488 317.179C260.797 317.491 260.964 317.836 260.976 318.186L266.233 426.055C266.298 426.369 266.234 426.686 266.047 426.986C265.86 427.287 265.552 427.564 265.145 427.8C264.737 428.036 264.238 428.225 263.68 428.356C263.122 428.487 262.517 428.557 261.904 428.561Z" fill="#FFE500"/>
<path d="M229.824 348.616L262.258 340.955L261.628 313.88C261.616 313.113 261.446 312.36 261.131 311.676C260.816 310.993 260.364 310.398 259.81 309.936C259.256 309.475 258.615 309.159 257.934 309.013C257.253 308.866 256.551 308.893 255.881 309.092L228.643 317.798C227.666 318.102 226.806 318.752 226.195 319.648C225.583 320.544 225.254 321.637 225.258 322.76L226.758 352.92C227.201 352.211 227.594 349.985 228.258 349.535C228.922 349.086 229.052 348.73 229.824 348.616Z" fill="#FFF48C"/>
<path d="M264.585 428.545L235.629 428.918C235.001 428.93 234.375 428.878 233.787 428.766C233.2 428.655 232.662 428.486 232.207 428.27C231.751 428.053 231.386 427.793 231.133 427.505C230.88 427.217 230.744 426.907 230.734 426.593L225.258 317.523C225.254 316.987 225.601 316.466 226.245 316.038C226.889 315.611 227.796 315.301 228.826 315.155L257.533 311.002C258.239 310.907 258.979 310.894 259.696 310.964C260.414 311.034 261.09 311.185 261.674 311.405C262.258 311.625 262.734 311.909 263.066 312.235C263.397 312.561 263.577 312.921 263.59 313.286L269.232 425.928C269.301 426.256 269.233 426.587 269.032 426.901C268.83 427.215 268.501 427.504 268.063 427.75C267.626 427.997 267.091 428.194 266.492 428.331C265.893 428.468 265.243 428.541 264.585 428.545Z" stroke="#45413C" stroke-width="7" stroke-linecap="round" stroke-linejoin="round"/>
</svg>
