<svg width="496" height="496" viewBox="0 0 496 496" fill="none" xmlns="http://www.w3.org/2000/svg">
<path d="M248 316.852C280.558 316.852 311.783 329.785 334.805 352.807C357.827 375.829 370.76 407.054 370.76 439.612V459.245H125.24V439.612C125.24 407.054 138.174 375.829 161.196 352.807C184.218 329.785 215.442 316.852 248 316.852V316.852Z" fill="white"/>
<path d="M248 316.852C215.442 316.852 184.218 329.785 161.196 352.807C138.174 375.829 125.24 407.054 125.24 439.612V459.245H126.377C130.405 429.849 144.944 402.906 167.303 383.402C189.663 363.898 218.329 353.152 248 353.152C277.671 353.152 306.338 363.898 328.697 383.402C351.057 402.906 365.595 429.849 369.624 459.245H370.76V439.612C370.76 407.054 357.827 375.829 334.805 352.807C311.783 329.785 280.558 316.852 248 316.852Z" fill="#F0F0F0"/>
<path d="M248 316.852C280.558 316.852 311.783 329.785 334.805 352.807C357.827 375.829 370.76 407.054 370.76 439.612V459.245H125.24V439.612C125.24 407.054 138.174 375.829 161.196 352.807C184.218 329.785 215.442 316.852 248 316.852V316.852Z" stroke="#45413C" stroke-width="7" stroke-linecap="round" stroke-linejoin="round"/>
<path d="M199.33 341.962C199.33 351.663 204.458 360.968 213.585 367.828C222.713 374.688 235.092 378.542 248 378.542C260.908 378.542 273.288 374.688 282.415 367.828C291.542 360.968 296.67 351.663 296.67 341.962C296.67 332.26 291.542 322.956 282.415 316.096C273.288 309.236 260.908 305.382 248 305.382C235.092 305.382 222.713 309.236 213.585 316.096C204.458 322.956 199.33 332.26 199.33 341.962V341.962Z" fill="#00DBA8"/>
<path d="M248 305.381C238.597 304.754 229.212 306.846 220.966 311.409C212.721 315.971 205.963 322.811 201.5 331.111C205.938 339.439 212.688 346.308 220.937 350.891C229.187 355.474 238.584 357.576 248 356.945C257.416 357.576 266.813 355.474 275.063 350.891C283.312 346.308 290.062 339.439 294.5 331.111C290.037 322.811 283.279 315.971 275.034 311.409C266.788 306.846 257.403 304.754 248 305.381V305.381Z" fill="#00AD85"/>
<path d="M199.33 341.962C199.33 351.663 204.458 360.968 213.585 367.828C222.713 374.688 235.092 378.542 248 378.542C260.908 378.542 273.288 374.688 282.415 367.828C291.542 360.968 296.67 351.663 296.67 341.962C296.67 332.26 291.542 322.956 282.415 316.096C273.288 309.236 260.908 305.382 248 305.382C235.092 305.382 222.713 309.236 213.585 316.096C204.458 322.956 199.33 332.26 199.33 341.962V341.962Z" stroke="#45413C" stroke-width="7" stroke-linecap="round" stroke-linejoin="round"/>
<path d="M247.999 274.898C244.543 274.898 241.122 275.581 237.931 276.906C234.74 278.232 231.842 280.174 229.403 282.622C226.964 285.071 225.033 287.976 223.72 291.173C222.407 294.369 221.739 297.793 221.752 301.248V330.595C221.752 337.556 224.517 344.232 229.44 349.154C234.362 354.076 241.038 356.842 247.999 356.842C254.96 356.842 261.636 354.076 266.558 349.154C271.48 344.232 274.246 337.556 274.246 330.595V301.248C274.259 297.793 273.59 294.369 272.277 291.173C270.964 287.976 269.033 285.071 266.595 282.622C264.156 280.174 261.258 278.232 258.067 276.906C254.876 275.581 251.454 274.898 247.999 274.898V274.898Z" fill="#FFCEBF"/>
<path d="M248.001 274.898C241.04 274.898 234.364 277.664 229.441 282.586C224.519 287.508 221.754 294.184 221.754 301.145V307.345C221.754 314.306 224.519 320.982 229.441 325.904C234.364 330.826 241.04 333.592 248.001 333.592C254.962 333.592 261.638 330.826 266.56 325.904C271.482 320.982 274.247 314.306 274.247 307.345V301.248C274.261 297.793 273.592 294.369 272.279 291.173C270.966 287.976 269.035 285.071 266.596 282.622C264.158 280.174 261.26 278.232 258.069 276.906C254.878 275.581 251.456 274.898 248.001 274.898V274.898Z" fill="#FFB59E"/>
<path d="M247.999 274.898C244.543 274.898 241.122 275.581 237.931 276.906C234.74 278.232 231.842 280.174 229.403 282.622C226.964 285.071 225.033 287.976 223.72 291.173C222.407 294.369 221.739 297.793 221.752 301.248V330.595C221.752 337.556 224.517 344.232 229.44 349.154C234.362 354.076 241.038 356.842 247.999 356.842C254.96 356.842 261.636 354.076 266.558 349.154C271.48 344.232 274.246 337.556 274.246 330.595V301.248C274.259 297.793 273.59 294.369 272.277 291.173C270.964 287.976 269.033 285.071 266.595 282.622C264.156 280.174 261.258 278.232 258.067 276.906C254.876 275.581 251.454 274.898 247.999 274.898V274.898Z" stroke="#45413C" stroke-width="7" stroke-linecap="round" stroke-linejoin="round"/>
<path d="M176.287 459.245V434.342" stroke="#45413C" stroke-width="7" stroke-linecap="round" stroke-linejoin="round"/>
<path d="M319.713 459.245V434.238" stroke="#45413C" stroke-width="7" stroke-linecap="round" stroke-linejoin="round"/>
<path d="M269.699 377.405C274.851 384.417 282.083 389.624 290.366 392.285C303.799 396.005 312.479 390.425 318.266 394.042C309.793 370.689 289.746 358.599 276.933 364.489C264.119 370.379 269.699 377.405 269.699 377.405Z" fill="#00DBA8" stroke="#45413C" stroke-width="7" stroke-linecap="round" stroke-linejoin="round"/>
<path d="M258.333 377.818C253.887 387.065 252.476 397.481 254.303 407.578C258.023 423.388 268.46 429.175 268.047 437.132C287.267 415.432 288.713 388.152 275.28 378.232C261.847 368.312 258.333 377.818 258.333 377.818Z" fill="#00DBA8" stroke="#45413C" stroke-width="7" stroke-linecap="round" stroke-linejoin="round"/>
<path d="M248 356.945C251.669 358.789 254.616 361.808 256.37 365.521C257.642 369.498 258.304 373.643 258.333 377.818C261.345 379.148 264.6 379.834 267.892 379.834C271.183 379.834 274.439 379.148 277.45 377.818C279.575 376.458 281.397 374.676 282.804 372.582C284.21 370.489 285.171 368.128 285.627 365.647C286.082 363.166 286.023 360.617 285.451 358.161C284.88 355.704 283.81 353.39 282.307 351.365C275.28 342.271 260.09 340.205 248 356.945Z" fill="#00DBA8" stroke="#45413C" stroke-width="7" stroke-linecap="round" stroke-linejoin="round"/>
<path d="M247.999 65.6484C239.493 65.6564 231.023 66.7326 222.785 68.8518C203.565 73.1918 178.559 80.4251 155.929 76.0851C155.047 81.9137 155.362 87.8608 156.854 93.5636C158.347 99.2665 160.985 104.606 164.609 109.255C152.819 126.248 146.509 146.44 146.525 167.122V220.235H349.472V167.122C349.472 140.209 338.781 114.399 319.751 95.3693C300.721 76.3393 274.911 65.6484 247.999 65.6484V65.6484Z" fill="#A86C4D" stroke="#45413C" stroke-width="7" stroke-linecap="round" stroke-linejoin="round"/>
<path d="M360.322 212.485C359.82 208.691 358.178 205.138 355.613 202.297C353.049 199.455 349.682 197.459 345.959 196.572L339.862 194.919C335.37 193.65 331.419 190.94 328.619 187.206C325.818 183.471 324.322 178.92 324.362 174.252V153.172C324.351 148.911 322.939 144.771 320.343 141.392C317.748 138.012 314.113 135.579 309.999 134.469C290.294 142.335 269.211 146.165 247.999 145.732C226.787 146.165 205.703 142.335 185.999 134.469C181.866 135.56 178.208 137.985 175.592 141.366C172.977 144.747 171.55 148.897 171.532 153.172V174.459C171.572 179.126 170.076 183.678 167.276 187.412C164.475 191.146 160.524 193.857 156.032 195.125L149.935 196.779C146.212 197.666 142.846 199.662 140.281 202.504C137.716 205.345 136.074 208.898 135.572 212.692C135.296 215.308 135.575 217.953 136.39 220.454C137.206 222.955 138.539 225.255 140.305 227.206C142.07 229.156 144.226 230.712 146.634 231.773C149.041 232.833 151.645 233.373 154.275 233.359H155.412C157.83 256.201 168.616 277.341 185.692 292.705C202.768 308.069 224.925 316.569 247.895 316.569C270.866 316.569 293.023 308.069 310.099 292.705C327.175 277.341 337.961 256.201 340.379 233.359H341.515C344.174 233.391 346.809 232.857 349.245 231.791C351.68 230.725 353.861 229.152 355.64 227.176C357.42 225.201 358.758 222.869 359.566 220.336C360.373 217.802 360.631 215.126 360.322 212.485V212.485Z" fill="#FFCEBF" stroke="#45413C" stroke-width="7" stroke-linecap="round" stroke-linejoin="round"/>
<path d="M191.889 210.315C191.889 211.888 192.356 213.427 193.23 214.735C194.105 216.044 195.347 217.064 196.801 217.666C198.255 218.268 199.855 218.426 201.398 218.119C202.942 217.812 204.359 217.054 205.472 215.941C206.585 214.828 207.343 213.41 207.65 211.867C207.957 210.324 207.799 208.724 207.197 207.27C206.595 205.816 205.575 204.573 204.267 203.699C202.958 202.825 201.42 202.358 199.846 202.358C198.797 202.344 197.756 202.541 196.785 202.935C195.813 203.33 194.93 203.916 194.189 204.658C193.447 205.399 192.862 206.282 192.467 207.254C192.072 208.225 191.875 209.266 191.889 210.315V210.315Z" fill="#45413C" stroke="#45413C" stroke-width="7" stroke-linecap="round" stroke-linejoin="round"/>
<path d="M304.111 210.315C304.111 211.888 303.644 213.427 302.77 214.735C301.895 216.044 300.653 217.064 299.199 217.666C297.745 218.268 296.145 218.426 294.602 218.119C293.058 217.812 291.64 217.054 290.528 215.941C289.415 214.828 288.657 213.41 288.35 211.867C288.043 210.324 288.201 208.724 288.803 207.27C289.405 205.816 290.425 204.573 291.733 203.699C293.042 202.825 294.58 202.358 296.154 202.358C297.203 202.344 298.244 202.541 299.215 202.935C300.187 203.33 301.069 203.916 301.811 204.658C302.553 205.399 303.138 206.282 303.533 207.254C303.928 208.225 304.125 209.266 304.111 210.315V210.315Z" fill="#45413C" stroke="#45413C" stroke-width="7" stroke-linecap="round" stroke-linejoin="round"/>
<path d="M218.652 258.778C217.998 258.792 217.355 258.947 216.767 259.233C216.178 259.518 215.658 259.927 215.242 260.432C214.81 260.918 214.492 261.496 214.313 262.122C214.135 262.748 214.099 263.407 214.209 264.048C215.604 271.997 219.757 279.199 225.937 284.389C232.117 289.579 239.929 292.423 247.999 292.423C256.069 292.423 263.881 289.579 270.061 284.389C276.241 279.199 280.394 271.997 281.789 264.048C281.899 263.407 281.863 262.748 281.684 262.122C281.506 261.496 281.188 260.918 280.756 260.432C280.34 259.927 279.82 259.518 279.231 259.233C278.643 258.947 278 258.792 277.346 258.778H218.652Z" fill="#FF6242"/>
<path d="M247.999 273.245C238.669 272.881 229.491 275.685 221.959 281.202C225.215 284.828 229.198 287.728 233.649 289.714C238.1 291.699 242.919 292.725 247.792 292.725C252.666 292.725 257.485 291.699 261.936 289.714C266.386 287.728 270.37 284.828 273.626 281.202C266.206 275.774 257.188 272.974 247.999 273.245Z" fill="#FFA694"/>
<path d="M218.652 258.778C217.998 258.792 217.355 258.947 216.767 259.233C216.178 259.518 215.658 259.927 215.242 260.432C214.81 260.918 214.492 261.496 214.313 262.122C214.135 262.748 214.099 263.407 214.209 264.048C215.604 271.997 219.757 279.199 225.937 284.389C232.117 289.579 239.929 292.423 247.999 292.423C256.069 292.423 263.881 289.579 270.061 284.389C276.241 279.199 280.394 271.997 281.789 264.048C281.899 263.407 281.863 262.748 281.684 262.122C281.506 261.496 281.188 260.918 280.756 260.432C280.34 259.927 279.82 259.518 279.231 259.233C278.643 258.947 278 258.792 277.346 258.778H218.652Z" stroke="#45413C" stroke-width="7" stroke-linecap="round" stroke-linejoin="round"/>
<path d="M176.287 244.209C176.287 245.853 177.376 247.43 179.314 248.593C181.252 249.756 183.88 250.409 186.62 250.409C189.361 250.409 191.989 249.756 193.927 248.593C195.865 247.43 196.954 245.853 196.954 244.209C196.954 242.564 195.865 240.987 193.927 239.825C191.989 238.662 189.361 238.009 186.62 238.009C183.88 238.009 181.252 238.662 179.314 239.825C177.376 240.987 176.287 242.564 176.287 244.209Z" fill="#FFB59E"/>
<path d="M299.047 244.209C299.047 245.853 300.136 247.43 302.073 248.593C304.011 249.756 306.64 250.409 309.38 250.409C312.121 250.409 314.749 249.756 316.687 248.593C318.625 247.43 319.714 245.853 319.714 244.209C319.714 242.564 318.625 240.987 316.687 239.825C314.749 238.662 312.121 238.009 309.38 238.009C306.64 238.009 304.011 238.662 302.073 239.825C300.136 240.987 299.047 242.564 299.047 244.209Z" fill="#FFB59E"/>
<path d="M141.256 176.732C141.256 165.779 188.996 156.892 247.999 156.892C307.003 156.892 354.743 165.779 354.743 176.732L351.333 137.052C351.333 126.099 305.039 117.315 247.999 117.315C190.959 117.315 144.666 126.099 144.666 137.052L141.256 176.732Z" fill="#8CA4B8"/>
<path d="M247.999 117.315C190.959 117.315 144.666 126.099 144.666 137.052L141.256 176.112C143.013 165.779 190.133 156.892 247.999 156.892H264.636C284.931 148.718 303.746 137.268 320.333 122.999C296.436 118.976 272.231 117.074 247.999 117.315V117.315Z" fill="#627B8C"/>
<path d="M141.256 176.732C141.256 165.779 188.996 156.892 247.999 156.892C307.003 156.892 354.743 165.779 354.743 176.732L351.333 137.052C351.333 126.099 305.039 117.315 247.999 117.315C190.959 117.315 144.666 126.099 144.666 137.052L141.256 176.732Z" stroke="#45413C" stroke-width="7" stroke-linecap="round" stroke-linejoin="round"/>
<path d="M364.663 87.2449C342.756 52.1115 287.37 43.0182 248 45.9115C201.82 51.3422 157.716 68.1742 119.66 94.8915C101.68 107.912 95.3762 121.758 100.646 129.922C111.703 150.588 170.396 155.445 260.296 117.418C311.963 118.555 351.333 126.925 351.333 137.052C351.333 137.052 384.09 117.315 364.663 87.2449Z" fill="#8CA4B8"/>
<path d="M104.573 134.882C108.875 129.354 113.957 124.481 119.66 120.415C157.746 93.8076 201.848 77.0831 248 71.7449C287.37 68.5415 342.756 77.6349 364.663 112.252C365.964 114.206 367.071 116.282 367.97 118.452C370.245 113.426 371.138 107.885 370.557 102.399C369.975 96.9131 367.941 91.6818 364.663 87.2449C342.756 52.1115 287.37 43.0182 248 45.9115C201.82 51.3422 157.716 68.1742 119.66 94.8915C101.68 107.912 95.3762 121.758 100.646 129.922C101.707 131.757 103.03 133.428 104.573 134.882V134.882Z" fill="#ADC4D9"/>
<path d="M364.663 87.2449C342.756 52.1115 287.37 43.0182 248 45.9115C201.82 51.3422 157.716 68.1742 119.66 94.8915C101.68 107.912 95.3762 121.758 100.646 129.922C111.703 150.588 170.396 155.445 260.296 117.418C311.963 118.555 351.333 126.925 351.333 137.052C351.333 137.052 384.09 117.315 364.663 87.2449Z" stroke="#45413C" stroke-width="7" stroke-linecap="round" stroke-linejoin="round"/>
<path d="M260.297 117.419C274.144 111.529 288.817 104.605 304.11 96.752" stroke="#45413C" stroke-width="7" stroke-linecap="round" stroke-linejoin="round"/>
<path d="M230.947 48.2635C231.123 49.7321 231.738 51.1336 232.756 52.3879C233.774 53.6422 235.177 54.7248 236.882 55.5739C238.588 56.4229 240.565 57.0218 242.698 57.3363C244.832 57.6508 247.081 57.6748 249.318 57.4069C251.555 57.139 253.735 56.5845 255.734 55.775C257.733 54.9655 259.512 53.9168 260.969 52.6889C262.426 51.461 263.533 50.0779 264.226 48.6186C264.92 47.1592 265.186 45.6522 265.01 44.1836C264.834 42.715 264.219 41.3135 263.201 40.0592C262.183 38.8049 260.78 37.7223 259.075 36.8732C257.369 36.0242 255.392 35.4253 253.259 35.1108C251.125 34.7962 248.876 34.7722 246.639 35.0401C244.402 35.308 242.222 35.8626 240.223 36.6721C238.224 37.4816 236.445 38.5302 234.988 39.7581C233.531 40.986 232.424 42.3691 231.731 43.8285C231.037 45.2878 230.771 46.7949 230.947 48.2635V48.2635Z" fill="#627B8C" stroke="#45413C" stroke-width="7" stroke-linecap="round" stroke-linejoin="round"/>
<path d="M74.9166 459.246C74.9166 459.246 6.19998 380.919 65.41 371.929C129.58 362.319 199.743 459.246 199.743 459.246H74.9166Z" fill="#DEBB7E"/>
<path d="M65.4097 401.379C105.916 395.282 148.593 431.552 174.633 459.246H199.33C199.33 459.246 129.58 362.319 64.9964 371.929C38.7497 375.959 37.613 393.422 44.3297 411.816C46.8855 408.662 50.092 406.097 53.73 404.295C57.3681 402.494 61.352 401.499 65.4097 401.379V401.379Z" fill="#F0D5A8"/>
<path d="M74.9166 459.246C74.9166 459.246 6.19998 380.919 65.41 371.929C129.58 362.319 199.743 459.246 199.743 459.246H74.9166Z" stroke="#45413C" stroke-width="7" stroke-linecap="round" stroke-linejoin="round"/>
<path d="M87.7024 408.262C89.6039 409.592 91.6231 410.714 93.6448 411.564C95.6664 412.414 97.6509 412.976 99.485 413.216C101.319 413.457 102.967 413.372 104.334 412.967C105.701 412.561 106.761 411.843 107.453 410.854C108.145 409.864 108.456 408.622 108.368 407.199C108.28 405.775 107.794 404.199 106.939 402.558C106.084 400.918 104.876 399.247 103.384 397.639C101.893 396.032 100.146 394.52 98.2445 393.19C96.343 391.86 94.3237 390.738 92.3021 389.888C90.2804 389.038 88.2959 388.477 86.4619 388.236C84.6279 387.995 82.9802 388.08 81.613 388.485C80.2459 388.891 79.1859 389.609 78.4937 390.599C77.8015 391.588 77.4906 392.83 77.5788 394.253C77.6669 395.677 78.1524 397.253 79.0075 398.894C79.8626 400.534 81.0706 402.206 82.5625 403.813C84.0543 405.42 85.8009 406.932 87.7024 408.262V408.262Z" fill="#FF6242" stroke="#45413C" stroke-width="7" stroke-linecap="round" stroke-linejoin="round"/>
<path d="M135.441 433.543C139.281 436.229 143.519 438.011 147.223 438.496C150.927 438.982 153.793 438.133 155.191 436.134C156.589 434.135 156.405 431.151 154.678 427.839C152.951 424.526 149.823 421.156 145.983 418.47C142.142 415.784 137.904 414.002 134.2 413.516C130.496 413.03 127.63 413.88 126.232 415.879C124.834 417.878 125.019 420.861 126.746 424.174C128.473 427.487 131.6 430.857 135.441 433.543Z" fill="#FFE500" stroke="#45413C" stroke-width="7" stroke-linecap="round" stroke-linejoin="round"/>
<path d="M403.413 369.759L381.713 364.385L396.696 292.672L423.46 299.285L403.413 369.759Z" fill="#DAEDF7" stroke="#45413C" stroke-width="7" stroke-linecap="round" stroke-linejoin="round"/>
<path d="M381.691 364.33L403.467 369.683L383.117 452.468L361.342 447.116L381.691 364.33Z" fill="#BF8256" stroke="#45413C" stroke-width="7" stroke-linecap="round" stroke-linejoin="round"/>
<path d="M396.696 292.671C389.98 279.858 398.556 264.151 408.373 256.091C414.627 251.302 419.188 244.64 421.393 237.078C427.518 241.339 432.267 247.294 435.057 254.214C437.846 261.134 438.557 268.717 437.1 276.035C436.505 280.605 435.012 285.012 432.707 289.002C430.401 292.993 427.329 296.487 423.666 299.285L396.696 292.671Z" fill="#FFF5E3" stroke="#45413C" stroke-width="7" stroke-linecap="round" stroke-linejoin="round"/>
<path d="M400.209 265.081C405.507 268.121 411.214 270.383 417.156 271.798C423.905 273.493 430.884 274.086 437.822 273.555C438.683 266.575 437.627 259.492 434.77 253.066C431.912 246.641 427.359 241.114 421.599 237.078C419.394 244.64 414.833 251.302 408.579 256.091C405.347 258.644 402.525 261.676 400.209 265.081Z" fill="#FF6242" stroke="#45413C" stroke-width="7" stroke-linecap="round" stroke-linejoin="round"/>
<path d="M363.942 369.044C368.04 370.051 371.571 372.646 373.757 376.256C375.942 379.866 376.604 384.197 375.597 388.296L358.997 455.829C352.769 454.298 347.405 450.356 344.083 444.87C340.762 439.384 339.757 432.803 341.287 426.576L354.04 374.697C354.556 372.594 355.887 370.783 357.739 369.662C359.592 368.541 361.813 368.201 363.916 368.718L363.942 369.044Z" fill="#FFCEBF"/>
<path d="M363.94 369.035C362.868 368.693 361.736 368.579 360.618 368.701C359.499 368.822 358.418 369.177 357.445 369.741C356.472 370.306 355.627 371.068 354.966 371.978C354.305 372.889 353.842 373.928 353.607 375.028L348.854 394.248C349.103 393.156 349.575 392.126 350.239 391.224C350.904 390.322 351.747 389.566 352.716 389.004C353.686 388.442 354.761 388.085 355.874 387.956C356.987 387.827 358.115 387.929 359.187 388.255C361.233 388.739 363.162 389.625 364.861 390.863C366.56 392.101 367.996 393.665 369.083 395.465C370.17 397.264 370.888 399.262 371.193 401.342C371.499 403.422 371.387 405.542 370.864 407.578L375.617 388.358C376.126 386.323 376.227 384.206 375.915 382.131C375.603 380.056 374.884 378.063 373.799 376.267C372.714 374.471 371.284 372.908 369.592 371.667C367.9 370.425 365.979 369.531 363.94 369.035Z" fill="#FFDCD1"/>
<path d="M363.942 369.044C368.04 370.051 371.571 372.646 373.757 376.256C375.942 379.866 376.604 384.197 375.597 388.296L358.997 455.829C352.769 454.298 347.405 450.356 344.083 444.87C340.762 439.384 339.757 432.803 341.287 426.576L354.04 374.697C354.556 372.594 355.887 370.783 357.739 369.662C359.592 368.541 361.813 368.201 363.916 368.718L363.942 369.044Z" stroke="#45413C" stroke-width="7" stroke-linecap="round" stroke-linejoin="round"/>
<path d="M401.966 393.009L382.333 388.049C379.311 387.288 376.112 387.745 373.423 389.321C370.735 390.896 368.773 393.464 367.96 396.472C367.147 399.48 367.548 402.687 369.077 405.402C370.606 408.118 373.139 410.124 376.133 410.989C373.17 410.58 370.162 411.303 367.709 413.015C365.256 414.726 363.538 417.299 362.899 420.221C362.26 423.143 362.746 426.198 364.261 428.778C365.775 431.357 368.206 433.27 371.069 434.136C369.549 433.762 367.971 433.692 366.424 433.929C364.877 434.166 363.392 434.705 362.053 435.516C360.715 436.327 359.549 437.393 358.623 438.655C357.696 439.916 357.027 441.347 356.654 442.867C356.281 444.387 356.211 445.966 356.448 447.512C356.685 449.059 357.224 450.545 358.035 451.883C358.846 453.222 359.912 454.387 361.173 455.314C362.435 456.24 363.866 456.909 365.386 457.282L385.329 462.139C391.153 463.575 397.308 462.64 402.443 459.539C407.577 456.439 411.271 451.428 412.713 445.606L418.913 420.392C420.348 414.569 419.413 408.413 416.313 403.279C413.213 398.144 408.201 394.45 402.379 393.009H401.966Z" fill="#FFCEBF"/>
<path d="M401.966 393.009L382.333 388.049C380.813 387.68 379.235 387.614 377.69 387.856C376.144 388.098 374.662 388.642 373.327 389.458C371.993 390.274 370.833 391.346 369.913 392.611C368.994 393.876 368.333 395.311 367.97 396.832C367.398 398.824 367.398 400.937 367.97 402.929C369.389 401.432 371.175 400.33 373.149 399.732C375.124 399.134 377.221 399.061 379.233 399.519L399.28 404.479C402.158 405.181 404.87 406.444 407.26 408.196C409.65 409.948 411.671 412.154 413.206 414.688C414.742 417.223 415.763 420.035 416.21 422.964C416.658 425.893 416.523 428.882 415.813 431.759L418.603 420.392C419.312 417.502 419.444 414.5 418.992 411.558C418.539 408.616 417.511 405.793 415.965 403.249C414.42 400.706 412.388 398.492 409.986 396.735C407.584 394.978 404.858 393.711 401.966 393.009V393.009Z" fill="#FFDCD1"/>
<path d="M401.966 393.009L382.333 388.049C379.311 387.288 376.112 387.745 373.423 389.321C370.735 390.896 368.773 393.464 367.96 396.472C367.147 399.48 367.548 402.687 369.077 405.402C370.606 408.118 373.139 410.124 376.133 410.989C373.17 410.58 370.162 411.303 367.709 413.015C365.256 414.726 363.538 417.299 362.899 420.221C362.26 423.143 362.746 426.198 364.261 428.778C365.775 431.357 368.206 433.27 371.069 434.136C369.549 433.762 367.971 433.692 366.424 433.929C364.877 434.166 363.392 434.705 362.053 435.516C360.715 436.327 359.549 437.393 358.623 438.655C357.696 439.916 357.027 441.347 356.654 442.867C356.281 444.387 356.211 445.966 356.448 447.512C356.685 449.059 357.224 450.545 358.035 451.883C358.846 453.222 359.912 454.387 361.173 455.314C362.435 456.24 363.866 456.909 365.386 457.282L385.329 462.139C391.153 463.575 397.308 462.64 402.443 459.539C407.577 456.439 411.271 451.428 412.713 445.606L418.913 420.392C420.348 414.569 419.413 408.413 416.313 403.279C413.213 398.144 408.201 394.45 402.379 393.009H401.966Z" stroke="#45413C" stroke-width="7" stroke-linecap="round" stroke-linejoin="round"/>
</svg>
