<svg width="496" height="496" viewBox="0 0 496 496" fill="none" xmlns="http://www.w3.org/2000/svg">
<rect width="496" height="496" fill="white"/>
<path d="M247.5 328.5C233.833 328.5 221.667 325.917 211 320.75C200.5 315.417 192.333 309.25 186.5 302.25L202 287.25C207.167 293.083 213.5 298 221 302C228.667 305.833 237.5 307.75 247.5 307.75C259.5 307.75 268.833 304.917 275.5 299.25C282.333 293.583 285.75 286.5 285.75 278C285.75 272.167 284 267.417 280.5 263.75C277 260.083 272.583 257.167 267.25 255C262.083 252.833 255 250.417 246 247.75C234.333 244.25 224.833 240.833 217.5 237.5C210.333 234.167 204.167 229.25 199 222.75C194 216.083 191.5 207.333 191.5 196.5C191.5 187.833 193.833 179.833 198.5 172.5C203.333 165.167 210.167 159.333 219 155C228 150.667 238.333 148.5 250 148.5C261.5 148.5 271.833 150.75 281 155.25C290.167 159.583 297.583 164.667 303.25 170.5L288 185.25C283.5 180.917 278 177.167 271.5 174C265.167 170.833 258 169.25 250 169.25C238.667 169.25 229.833 171.833 223.5 177C217.167 182.167 214 188.667 214 196.5C214 202.333 215.75 207.083 219.25 210.75C222.75 214.417 227.083 217.333 232.25 219.5C237.583 221.667 244.75 224.083 253.75 226.75C265.417 230.25 274.833 233.667 282 237C289.333 240.333 295.5 245.333 300.5 252C305.667 258.5 308.25 267.167 308.25 278C308.25 287.167 305.75 295.667 300.75 303.5C295.917 311.167 288.833 317.25 279.5 321.75C270.333 326.25 259.667 328.5 247.5 328.5Z" fill="black"/>
</svg>
