<svg width="495" height="495" viewBox="0 0 495 495" fill="none" xmlns="http://www.w3.org/2000/svg">
<path d="M41 172.688H324.594V399.562H41V172.688Z" fill="#FFE500"/>
<path d="M293.657 172.688H72.1445C63.9394 172.688 56.0703 175.948 50.2684 181.75C44.4665 187.551 41.207 195.421 41.207 203.626V244.876C41.207 236.671 44.4665 228.801 50.2684 223C56.0703 217.198 63.9394 213.938 72.1445 213.938H293.863C302.068 213.938 309.937 217.198 315.739 223C321.541 228.801 324.801 236.671 324.801 244.876V203.626C324.801 199.546 323.994 195.506 322.426 191.739C320.859 187.972 318.561 184.552 315.667 181.676C312.772 178.801 309.337 176.526 305.56 174.984C301.782 173.441 297.737 172.661 293.657 172.688V172.688Z" fill="#FFF48C"/>
<path d="M41 172.688H324.594V399.562H41V172.688Z" stroke="#45413C" stroke-width="7" stroke-linecap="round" stroke-linejoin="round"/>
<path d="M182.798 18.0002C153.44 18.082 125.311 29.7947 104.572 50.573C83.8319 71.3514 72.1717 99.5019 72.1445 128.86V172.688H118.551V128.86C118.551 111.766 125.341 95.3716 137.429 83.2843C149.516 71.197 165.91 64.4064 183.004 64.4064C200.098 64.4064 216.492 71.197 228.579 83.2843C240.666 95.3716 247.457 111.766 247.457 128.86V172.688H293.863V128.86C293.863 114.284 290.989 99.8514 285.405 86.3878C279.821 72.9243 271.637 60.6941 261.32 50.3971C251.004 40.1002 238.759 31.9387 225.285 26.3796C211.811 20.8205 197.373 17.9731 182.798 18.0002V18.0002Z" fill="#DAEDF7"/>
<path d="M182.798 18.0002C153.44 18.082 125.311 29.7947 104.572 50.573C83.8319 71.3514 72.1717 99.5019 72.1445 128.86V154.641C72.1445 125.239 83.8243 97.0416 104.614 76.2514C125.405 55.4612 153.602 43.7814 183.004 43.7814C212.406 43.7814 240.603 55.4612 261.393 76.2514C282.183 97.0416 293.863 125.239 293.863 154.641V128.86C293.863 114.284 290.989 99.8514 285.405 86.3878C279.821 72.9243 271.637 60.6941 261.32 50.3971C251.004 40.1002 238.759 31.9387 225.285 26.3796C211.811 20.8205 197.373 17.9731 182.798 18.0002V18.0002Z" fill="white"/>
<path d="M182.798 18.0002C153.44 18.082 125.311 29.7947 104.572 50.573C83.8319 71.3514 72.1717 99.5019 72.1445 128.86V172.688H118.551V128.86C118.551 111.766 125.341 95.3716 137.429 83.2843C149.516 71.197 165.91 64.4064 183.004 64.4064C200.098 64.4064 216.492 71.197 228.579 83.2843C240.666 95.3716 247.457 111.766 247.457 128.86V172.688H293.863V128.86C293.863 114.284 290.989 99.8514 285.405 86.3878C279.821 72.9243 271.637 60.6941 261.32 50.3971C251.004 40.1002 238.759 31.9387 225.285 26.3796C211.811 20.8205 197.373 17.9731 182.798 18.0002V18.0002Z" stroke="#45413C" stroke-width="7" stroke-linecap="round" stroke-linejoin="round"/>
<path d="M431.225 251.475C418.322 238.606 401.289 230.707 383.13 229.17C364.971 227.633 346.853 232.558 331.97 243.076C317.088 253.593 306.397 269.028 301.784 286.658C297.17 304.289 298.93 322.982 306.754 339.441L208.682 437.1C207.593 438.182 206.76 439.494 206.242 440.939C205.725 442.384 205.537 443.926 205.691 445.453L207.96 465.15C208.203 467.484 209.234 469.666 210.884 471.335C212.534 473.003 214.704 474.059 217.035 474.328L236.732 476.494C238.275 476.665 239.838 476.484 241.302 475.966C242.766 475.448 244.095 474.607 245.188 473.503L256.841 461.85C257.797 460.887 258.553 459.744 259.066 458.487C259.579 457.231 259.84 455.886 259.832 454.528V444.216H270.144C271.501 444.224 272.847 443.964 274.103 443.45C275.36 442.937 276.502 442.181 277.466 441.225L286.644 432.047C287.6 431.084 288.356 429.941 288.869 428.684C289.383 427.428 289.643 426.083 289.635 424.725V418.641C289.674 415.921 290.786 413.326 292.729 411.422L304.897 399.253C305.852 398.279 306.991 397.504 308.248 396.973C309.505 396.442 310.855 396.165 312.219 396.16H318.2C319.558 396.168 320.903 395.907 322.159 395.394C323.416 394.881 324.559 394.125 325.522 393.169L343.26 375.432C359.637 382.95 378.126 384.514 395.534 379.853C412.942 375.192 428.176 364.599 438.605 349.903C449.034 335.206 454.004 317.329 452.657 299.359C451.31 281.388 443.73 264.452 431.225 251.475V251.475ZM394.822 287.982C393.303 286.565 392.084 284.858 391.238 282.96C390.393 281.063 389.938 279.014 389.901 276.937C389.865 274.86 390.247 272.797 391.025 270.871C391.803 268.945 392.961 267.195 394.43 265.726C395.899 264.258 397.648 263.1 399.574 262.322C401.501 261.544 403.564 261.161 405.641 261.198C407.718 261.235 409.766 261.689 411.663 262.535C413.561 263.38 415.269 264.599 416.685 266.119C419.417 269.051 420.905 272.93 420.834 276.937C420.763 280.945 419.14 284.768 416.306 287.603C413.472 290.437 409.648 292.06 405.641 292.131C401.633 292.202 397.755 290.714 394.822 287.982V287.982Z" fill="#FFAA54"/>
<path d="M321.81 283.96C331.525 274.291 343.627 267.366 356.885 263.888C370.144 260.41 384.087 260.504 397.297 264.16C400.234 262.168 403.77 261.255 407.304 261.575C410.838 261.894 414.153 263.427 416.685 265.913C419.167 268.479 420.665 271.839 420.913 275.4C424.581 277.964 428.03 280.827 431.225 283.96C441.662 294.486 448.826 307.811 451.85 322.322C454.333 311.039 454.253 299.343 451.617 288.095C448.98 276.847 443.854 266.333 436.615 257.329C429.377 248.325 420.211 241.059 409.792 236.066C399.373 231.074 387.967 228.482 376.414 228.482C364.861 228.482 353.456 231.074 343.037 236.066C332.618 241.059 323.452 248.325 316.214 257.329C308.975 266.333 303.849 276.847 301.212 288.095C298.576 299.343 298.496 311.039 300.979 322.322C304.111 307.806 311.341 294.492 321.81 283.96V283.96Z" fill="#FFCC99"/>
<path d="M209.3 469.481L306.754 371.925C302.983 363.83 300.646 355.142 299.844 346.247L208.682 437.1C207.593 438.182 206.76 439.494 206.242 440.939C205.725 442.384 205.537 443.926 205.691 445.453L207.96 465.15C208.042 466.683 208.502 468.171 209.3 469.481V469.481Z" fill="#FFCC99"/>
<path d="M431.225 251.475C418.322 238.606 401.289 230.707 383.13 229.17C364.971 227.633 346.853 232.558 331.97 243.076C317.088 253.593 306.397 269.028 301.784 286.658C297.17 304.289 298.93 322.982 306.754 339.441L208.682 437.1C207.593 438.182 206.76 439.494 206.242 440.939C205.725 442.384 205.537 443.926 205.691 445.453L207.96 465.15C208.203 467.484 209.234 469.666 210.884 471.335C212.534 473.003 214.704 474.059 217.035 474.328L236.732 476.494C238.275 476.665 239.838 476.484 241.302 475.966C242.766 475.448 244.095 474.607 245.188 473.503L256.841 461.85C257.797 460.887 258.553 459.744 259.066 458.487C259.579 457.231 259.84 455.886 259.832 454.528V444.216H270.144C271.501 444.224 272.847 443.964 274.103 443.45C275.36 442.937 276.502 442.181 277.466 441.225L286.644 432.047C287.6 431.084 288.356 429.941 288.869 428.684C289.383 427.428 289.643 426.083 289.635 424.725V418.641C289.674 415.921 290.786 413.326 292.729 411.422L304.897 399.253C305.852 398.279 306.991 397.504 308.248 396.973C309.505 396.442 310.855 396.165 312.219 396.16H318.2C319.558 396.168 320.903 395.907 322.159 395.394C323.416 394.881 324.559 394.125 325.522 393.169L343.26 375.432C359.637 382.95 378.126 384.514 395.534 379.853C412.942 375.192 428.176 364.599 438.605 349.903C449.034 335.206 454.004 317.329 452.657 299.359C451.31 281.388 443.73 264.452 431.225 251.475V251.475ZM394.822 287.982C393.303 286.565 392.084 284.858 391.238 282.96C390.393 281.063 389.938 279.014 389.901 276.937C389.865 274.86 390.247 272.797 391.025 270.871C391.803 268.945 392.961 267.195 394.43 265.726C395.899 264.258 397.648 263.1 399.574 262.322C401.501 261.544 403.564 261.161 405.641 261.198C407.718 261.235 409.766 261.689 411.663 262.535C413.561 263.38 415.269 264.599 416.685 266.119C419.417 269.051 420.905 272.93 420.834 276.937C420.763 280.945 419.14 284.768 416.306 287.603C413.472 290.437 409.648 292.06 405.641 292.131C401.633 292.202 397.755 290.714 394.822 287.982V287.982Z" stroke="#45413C" stroke-width="7" stroke-linecap="round" stroke-linejoin="round"/>
<path d="M208.785 466.388L303.66 371.616" stroke="#45413C" stroke-width="7" stroke-linecap="round" stroke-linejoin="round"/>
</svg>
