<svg width="495" height="495" viewBox="0 0 495 495" fill="none" xmlns="http://www.w3.org/2000/svg">
<path d="M348.723 84.9533C348.713 106.885 366.048 138.373 366.048 138.373C366.048 138.373 403.02 160.454 428.131 157.142C454.026 153.727 495.26 144.82 484.438 121.048C477.438 105.67 454.451 116.582 445.456 102.279C436.451 87.9599 457.025 71.3053 445.456 58.9653C433.116 45.8025 414.714 68.2679 399.255 58.9653C383.909 49.731 394.141 25.4037 377.598 18.5394C351.476 7.70008 348.734 56.6717 348.723 84.9533Z" fill="#FF0099" stroke="black" stroke-width="10"/>
<path d="M145.485 410.047C145.495 388.115 128.16 356.627 128.16 356.627C128.16 356.627 91.1885 334.546 66.0775 337.858C40.1823 341.273 -1.05176 350.18 9.77007 373.952C16.7705 389.33 39.7573 378.418 48.7521 392.721C57.7569 407.04 37.1833 423.695 48.7521 436.035C61.0922 449.197 79.4936 426.732 94.9531 436.035C110.299 445.269 100.067 469.596 116.61 476.461C142.732 487.3 145.474 438.328 145.485 410.047Z" fill="#FF0099" stroke="black" stroke-width="10"/>
<ellipse cx="246.69" cy="246.011" rx="160.961" ry="113.037" transform="rotate(-41.6958 246.69 246.011)" fill="#FFD366" stroke="black" stroke-width="10"/>
<path d="M363.44 270C332.376 217.994 285.278 169.02 230.708 131C191.881 146.105 164.415 162.385 139.94 206C202.553 239.528 257.028 292.362 280.94 353.5C320.73 330.973 340.213 311.491 363.44 270Z" fill="#FF0099"/>
</svg>
