<svg width="495" height="495" viewBox="0 0 495 495" fill="none" xmlns="http://www.w3.org/2000/svg">
<path d="M233.638 266.786L51.3125 202.951V376.098C51.321 378.23 51.9899 380.307 53.2273 382.043C54.4646 383.778 56.2095 385.088 58.2219 385.792L233.534 447.667C242.362 450.661 251.931 450.661 260.759 447.667L436.072 385.792C438.084 385.088 439.829 383.778 441.066 382.043C442.304 380.307 442.973 378.23 442.981 376.098V202.951L260.862 266.786C252.049 269.867 242.451 269.867 233.638 266.786Z" fill="#FF866E"/>
<path d="M260.862 266.786C252.049 269.867 242.451 269.867 233.638 266.786L51.3125 202.951V254.514L233.638 318.348C242.451 321.429 252.049 321.429 260.862 318.348L443.188 254.514V202.951L260.862 266.786Z" fill="#FF6242"/>
<path d="M233.638 266.786L51.3125 202.951V376.098C51.321 378.23 51.9899 380.307 53.2273 382.043C54.4646 383.778 56.2095 385.088 58.2219 385.792L233.534 447.667C242.362 450.661 251.931 450.661 260.759 447.667L436.072 385.792C438.084 385.088 439.829 383.778 441.066 382.043C442.304 380.307 442.973 378.23 442.981 376.098V202.951L260.862 266.786C252.049 269.867 242.451 269.867 233.638 266.786Z" stroke="#45413C" stroke-width="7" stroke-linecap="round" stroke-linejoin="round"/>
<path d="M247.25 431.373V292.154" stroke="#E04122" stroke-width="7" stroke-linecap="round" stroke-linejoin="round"/>
<path d="M233.638 194.597L41 127.153V192.019C41.0085 194.151 41.6774 196.227 42.9148 197.963C44.1521 199.699 45.897 201.009 47.9094 201.713L233.534 266.785C242.348 269.866 251.946 269.866 260.759 266.785L446.384 201.713C448.397 201.009 450.142 199.699 451.379 197.963C452.616 196.227 453.285 194.151 453.294 192.019V127.153L260.862 194.597C252.049 197.678 242.451 197.678 233.638 194.597Z" fill="#FF866E"/>
<path d="M260.862 194.597C252.049 197.678 242.451 197.678 233.637 194.597L41 127.153V158.091L233.637 225.535C242.451 228.616 252.049 228.616 260.862 225.535L453.5 158.091V127.153L260.862 194.597Z" fill="#FFA694"/>
<path d="M233.638 194.597L41 127.153V192.019C41.0085 194.151 41.6774 196.227 42.9148 197.963C44.1521 199.699 45.897 201.009 47.9094 201.713L233.534 266.785C242.348 269.866 251.946 269.866 260.759 266.785L446.384 201.713C448.397 201.009 450.142 199.699 451.379 197.963C452.616 196.227 453.285 194.151 453.294 192.019V127.153L260.862 194.597C252.049 197.678 242.451 197.678 233.638 194.597Z" stroke="#45413C" stroke-width="7" stroke-linecap="round" stroke-linejoin="round"/>
<path d="M41 127.154L233.637 59.7102C242.451 56.6292 252.049 56.6292 260.862 59.7102L453.5 127.154L260.862 194.598C252.049 197.679 242.451 197.679 233.637 194.598L41 127.154Z" fill="#FF866E" stroke="#45413C" stroke-width="7" stroke-linecap="round" stroke-linejoin="round"/>
<path d="M290.15 70.0225L82.25 141.591V213.779L175.062 246.263V174.076L382.962 102.507L290.15 70.0225Z" fill="#EDDBFF" stroke="#45413C" stroke-width="7" stroke-linecap="round" stroke-linejoin="round"/>
<path d="M109.785 151.285L156.707 167.682" stroke="#BF8DF2" stroke-width="7" stroke-linecap="round" stroke-linejoin="round"/>
<path d="M92.5625 217.389V397.857L185.375 430.342V249.873L92.5625 217.389Z" fill="#EDDBFF"/>
<path d="M92.5625 217.389V268.951L185.375 301.436V249.873L92.5625 217.389Z" fill="#DABFF5"/>
<path d="M92.5625 217.389V397.857L185.375 430.342V249.873L92.5625 217.389Z" stroke="#45413C" stroke-width="7" stroke-linecap="round" stroke-linejoin="round"/>
<path d="M204.35 70.0225L412.25 141.591V213.779L319.437 246.263V174.076L111.537 102.507L204.35 70.0225Z" fill="#EDDBFF" stroke="#45413C" stroke-width="7" stroke-linecap="round" stroke-linejoin="round"/>
<path d="M384.715 151.285L337.793 167.682" stroke="#BF8DF2" stroke-width="7" stroke-linecap="round" stroke-linejoin="round"/>
<path d="M401.938 217.389V397.857L309.125 430.342V249.873L401.938 217.389Z" fill="#EDDBFF"/>
<path d="M401.938 217.389V268.951L309.125 301.436V249.873L401.938 217.389Z" fill="#DABFF5"/>
<path d="M401.938 217.389V397.857L309.125 430.342V249.873L401.938 217.389Z" stroke="#45413C" stroke-width="7" stroke-linecap="round" stroke-linejoin="round"/>
<path d="M216.312 137.982L231.781 112.201C231.781 112.201 167.947 28.8757 97.7185 49.1913C90.9765 51.1442 85.0991 55.3317 81.0513 61.0661C77.0034 66.8005 75.0259 73.7409 75.4435 80.7475L77.506 114.366L216.312 137.982Z" fill="#DABFF5" stroke="#45413C" stroke-width="7" stroke-linecap="round" stroke-linejoin="round"/>
<path d="M216.312 137.982C216.312 137.982 158.769 161.598 83.2812 123.339C81.3707 122.444 79.7807 120.984 78.7257 119.157C77.6707 117.33 77.2014 115.223 77.3813 113.121C77.5612 111.019 78.3814 109.023 79.7315 107.401C81.0815 105.78 82.8964 104.612 84.9312 104.054C107.85 97.2872 132.177 96.869 155.315 102.844C178.453 108.82 199.536 120.964 216.312 137.982V137.982Z" fill="#BF8DF2" stroke="#45413C" stroke-width="7" stroke-linecap="round" stroke-linejoin="round"/>
<path d="M278.703 137.982L263.234 112.201C263.234 112.201 327.069 28.8757 397.297 49.1913C403.962 51.221 409.747 55.4412 413.715 61.1683C417.682 66.8954 419.601 73.7942 419.159 80.7475L416.994 114.366L278.703 137.982Z" fill="#DABFF5" stroke="#45413C" stroke-width="7" stroke-linecap="round" stroke-linejoin="round"/>
<path d="M278.703 137.982C278.703 137.982 335.731 161.598 411.219 123.338C413.129 122.443 414.719 120.984 415.774 119.157C416.829 117.33 417.299 115.223 417.119 113.121C416.939 111.019 416.119 109.022 414.768 107.401C413.418 105.78 411.604 104.612 409.569 104.054C386.723 97.387 362.5 97.0204 339.463 102.993C316.426 108.966 295.432 121.055 278.703 137.982V137.982Z" fill="#BF8DF2" stroke="#45413C" stroke-width="7" stroke-linecap="round" stroke-linejoin="round"/>
<path d="M271.794 128.907C271.794 128.907 346.869 152.007 363.163 207.282L326.141 200.888L314.591 238.117C314.591 238.117 279.631 153.967 247.25 141.901L271.794 128.907Z" fill="#BF8DF2" stroke="#45413C" stroke-width="7" stroke-linecap="round" stroke-linejoin="round"/>
<path d="M222.707 128.907C222.707 128.907 147.632 152.007 131.338 207.282L168.36 200.888L179.91 238.117C179.91 238.117 214.869 153.657 247.25 141.592L222.707 128.907Z" fill="#BF8DF2" stroke="#45413C" stroke-width="7" stroke-linecap="round" stroke-linejoin="round"/>
<path d="M200.844 116.119C200.844 125.692 205.733 134.872 214.436 141.641C223.139 148.41 234.942 152.213 247.25 152.213C259.558 152.213 271.361 148.41 280.064 141.641C288.767 134.872 293.656 125.692 293.656 116.119C293.656 106.546 288.767 97.3659 280.064 90.597C271.361 83.8281 259.558 80.0254 247.25 80.0254C234.942 80.0254 223.139 83.8281 214.436 90.597C205.733 97.3659 200.844 106.546 200.844 116.119V116.119Z" fill="#BF8DF2"/>
<path d="M247.25 100.65C256.347 100.093 265.405 102.245 273.279 106.833C281.154 111.422 287.491 118.242 291.491 126.432C292.83 123.153 293.564 119.659 293.656 116.119C293.656 96.1129 273.031 80.0254 247.25 80.0254C221.469 80.0254 200.844 96.1129 200.844 116.119C200.936 119.659 201.67 123.153 203.009 126.432C207.009 118.242 213.346 111.422 221.221 106.833C229.095 102.245 238.153 100.093 247.25 100.65V100.65Z" fill="#DABFF5"/>
<path d="M200.844 116.119C200.844 125.692 205.733 134.872 214.436 141.641C223.139 148.41 234.942 152.213 247.25 152.213C259.558 152.213 271.361 148.41 280.064 141.641C288.767 134.872 293.656 125.692 293.656 116.119C293.656 106.546 288.767 97.3659 280.064 90.597C271.361 83.8281 259.558 80.0254 247.25 80.0254C234.942 80.0254 223.139 83.8281 214.436 90.597C205.733 97.3659 200.844 106.546 200.844 116.119V116.119Z" stroke="#45413C" stroke-width="7" stroke-linecap="round" stroke-linejoin="round"/>
</svg>
