<svg width="495" height="495" viewBox="0 0 495 495" fill="none" xmlns="http://www.w3.org/2000/svg">
<path d="M233.888 266.786L51.5625 202.951V376.098C51.571 378.23 52.2399 380.307 53.4773 382.043C54.7146 383.778 56.4595 385.088 58.4719 385.792L233.784 447.667C242.612 450.661 252.181 450.661 261.009 447.667L436.322 385.792C438.334 385.088 440.079 383.778 441.316 382.043C442.554 380.307 443.223 378.23 443.231 376.098V202.951L261.112 266.786C252.299 269.867 242.701 269.867 233.888 266.786Z" fill="#FF866E"/>
<path d="M261.112 266.786C252.299 269.867 242.701 269.867 233.888 266.786L51.5625 202.951V254.514L233.888 318.348C242.701 321.429 252.299 321.429 261.112 318.348L443.438 254.514V202.951L261.112 266.786Z" fill="#FF6242"/>
<path d="M233.888 266.786L51.5625 202.951V376.098C51.571 378.23 52.2399 380.307 53.4773 382.043C54.7146 383.778 56.4595 385.088 58.4719 385.792L233.784 447.667C242.612 450.661 252.181 450.661 261.009 447.667L436.322 385.792C438.334 385.088 440.079 383.778 441.316 382.043C442.554 380.307 443.223 378.23 443.231 376.098V202.951L261.112 266.786C252.299 269.867 242.701 269.867 233.888 266.786Z" stroke="#45413C" stroke-width="7" stroke-linecap="round" stroke-linejoin="round"/>
<path d="M247.5 431.373V292.154" stroke="#E04122" stroke-width="7" stroke-linecap="round" stroke-linejoin="round"/>
<path d="M233.888 194.597L41.25 127.153V192.019C41.2585 194.151 41.9274 196.227 43.1648 197.963C44.4021 199.699 46.147 201.009 48.1594 201.713L233.784 266.785C242.598 269.866 252.196 269.866 261.009 266.785L446.634 201.713C448.647 201.009 450.392 199.699 451.629 197.963C452.866 196.227 453.535 194.151 453.544 192.019V127.153L261.112 194.597C252.299 197.678 242.701 197.678 233.888 194.597Z" fill="#FF866E"/>
<path d="M261.112 194.597C252.299 197.678 242.701 197.678 233.887 194.597L41.25 127.153V158.091L233.887 225.535C242.701 228.616 252.299 228.616 261.112 225.535L453.75 158.091V127.153L261.112 194.597Z" fill="#FFA694"/>
<path d="M233.888 194.597L41.25 127.153V192.019C41.2585 194.151 41.9274 196.227 43.1648 197.963C44.4021 199.699 46.147 201.009 48.1594 201.713L233.784 266.785C242.598 269.866 252.196 269.866 261.009 266.785L446.634 201.713C448.647 201.009 450.392 199.699 451.629 197.963C452.866 196.227 453.535 194.151 453.544 192.019V127.153L261.112 194.597C252.299 197.678 242.701 197.678 233.888 194.597Z" stroke="#45413C" stroke-width="7" stroke-linecap="round" stroke-linejoin="round"/>
<path d="M41.25 127.154L233.887 59.7102C242.701 56.6292 252.299 56.6292 261.112 59.7102L453.75 127.154L261.112 194.598C252.299 197.679 242.701 197.679 233.887 194.598L41.25 127.154Z" fill="#FF866E" stroke="#45413C" stroke-width="7" stroke-linecap="round" stroke-linejoin="round"/>
<path d="M290.4 70.0225L82.5 141.591V213.779L175.312 246.263V174.076L383.212 102.507L290.4 70.0225Z" fill="#EDDBFF" stroke="#45413C" stroke-width="7" stroke-linecap="round" stroke-linejoin="round"/>
<path d="M110.035 151.285L156.957 167.682" stroke="#BF8DF2" stroke-width="7" stroke-linecap="round" stroke-linejoin="round"/>
<path d="M92.8125 217.389V397.857L185.625 430.342V249.873L92.8125 217.389Z" fill="#EDDBFF"/>
<path d="M92.8125 217.389V268.951L185.625 301.436V249.873L92.8125 217.389Z" fill="#DABFF5"/>
<path d="M92.8125 217.389V397.857L185.625 430.342V249.873L92.8125 217.389Z" stroke="#45413C" stroke-width="7" stroke-linecap="round" stroke-linejoin="round"/>
<path d="M204.6 70.0225L412.5 141.591V213.779L319.687 246.263V174.076L111.787 102.507L204.6 70.0225Z" fill="#EDDBFF" stroke="#45413C" stroke-width="7" stroke-linecap="round" stroke-linejoin="round"/>
<path d="M384.965 151.285L338.043 167.682" stroke="#BF8DF2" stroke-width="7" stroke-linecap="round" stroke-linejoin="round"/>
<path d="M402.188 217.389V397.857L309.375 430.342V249.873L402.188 217.389Z" fill="#EDDBFF"/>
<path d="M402.188 217.389V268.951L309.375 301.436V249.873L402.188 217.389Z" fill="#DABFF5"/>
<path d="M402.188 217.389V397.857L309.375 430.342V249.873L402.188 217.389Z" stroke="#45413C" stroke-width="7" stroke-linecap="round" stroke-linejoin="round"/>
<path d="M216.562 137.982L232.031 112.201C232.031 112.201 168.197 28.8757 97.9685 49.1913C91.2265 51.1442 85.3491 55.3317 81.3013 61.0661C77.2534 66.8005 75.2759 73.7409 75.6935 80.7475L77.756 114.366L216.562 137.982Z" fill="#DABFF5" stroke="#45413C" stroke-width="7" stroke-linecap="round" stroke-linejoin="round"/>
<path d="M216.562 137.982C216.562 137.982 159.019 161.598 83.5312 123.339C81.6207 122.444 80.0307 120.984 78.9757 119.157C77.9207 117.33 77.4514 115.223 77.6313 113.121C77.8112 111.019 78.6314 109.023 79.9815 107.401C81.3315 105.78 83.1464 104.612 85.1812 104.054C108.1 97.2872 132.427 96.869 155.565 102.844C178.703 108.82 199.786 120.964 216.562 137.982V137.982Z" fill="#BF8DF2" stroke="#45413C" stroke-width="7" stroke-linecap="round" stroke-linejoin="round"/>
<path d="M278.953 137.982L263.484 112.201C263.484 112.201 327.319 28.8757 397.547 49.1913C404.212 51.221 409.997 55.4412 413.965 61.1683C417.932 66.8954 419.851 73.7942 419.409 80.7475L417.244 114.366L278.953 137.982Z" fill="#DABFF5" stroke="#45413C" stroke-width="7" stroke-linecap="round" stroke-linejoin="round"/>
<path d="M278.953 137.982C278.953 137.982 335.981 161.598 411.469 123.338C413.379 122.443 414.969 120.984 416.024 119.157C417.079 117.33 417.549 115.223 417.369 113.121C417.189 111.019 416.369 109.022 415.018 107.401C413.668 105.78 411.854 104.612 409.819 104.054C386.973 97.387 362.75 97.0204 339.713 102.993C316.676 108.966 295.682 121.055 278.953 137.982V137.982Z" fill="#BF8DF2" stroke="#45413C" stroke-width="7" stroke-linecap="round" stroke-linejoin="round"/>
<path d="M272.044 128.907C272.044 128.907 347.119 152.007 363.413 207.282L326.391 200.888L314.841 238.117C314.841 238.117 279.881 153.967 247.5 141.901L272.044 128.907Z" fill="#BF8DF2" stroke="#45413C" stroke-width="7" stroke-linecap="round" stroke-linejoin="round"/>
<path d="M222.957 128.907C222.957 128.907 147.882 152.007 131.588 207.282L168.61 200.888L180.16 238.117C180.16 238.117 215.119 153.657 247.5 141.592L222.957 128.907Z" fill="#BF8DF2" stroke="#45413C" stroke-width="7" stroke-linecap="round" stroke-linejoin="round"/>
<path d="M201.094 116.119C201.094 125.692 205.983 134.872 214.686 141.641C223.389 148.41 235.192 152.213 247.5 152.213C259.808 152.213 271.611 148.41 280.314 141.641C289.017 134.872 293.906 125.692 293.906 116.119C293.906 106.546 289.017 97.3659 280.314 90.597C271.611 83.8281 259.808 80.0254 247.5 80.0254C235.192 80.0254 223.389 83.8281 214.686 90.597C205.983 97.3659 201.094 106.546 201.094 116.119V116.119Z" fill="#BF8DF2"/>
<path d="M247.5 100.65C256.597 100.093 265.655 102.245 273.529 106.833C281.404 111.422 287.741 118.242 291.741 126.432C293.08 123.153 293.814 119.659 293.906 116.119C293.906 96.1129 273.281 80.0254 247.5 80.0254C221.719 80.0254 201.094 96.1129 201.094 116.119C201.186 119.659 201.92 123.153 203.259 126.432C207.259 118.242 213.596 111.422 221.471 106.833C229.345 102.245 238.403 100.093 247.5 100.65V100.65Z" fill="#DABFF5"/>
<path d="M201.094 116.119C201.094 125.692 205.983 134.872 214.686 141.641C223.389 148.41 235.192 152.213 247.5 152.213C259.808 152.213 271.611 148.41 280.314 141.641C289.017 134.872 293.906 125.692 293.906 116.119C293.906 106.546 289.017 97.3659 280.314 90.597C271.611 83.8281 259.808 80.0254 247.5 80.0254C235.192 80.0254 223.389 83.8281 214.686 90.597C205.983 97.3659 201.094 106.546 201.094 116.119V116.119Z" stroke="#45413C" stroke-width="7" stroke-linecap="round" stroke-linejoin="round"/>
</svg>
