<svg width="496" height="496" viewBox="0 0 496 496" fill="none" xmlns="http://www.w3.org/2000/svg">
<g clip-path="url(#clip0_1175_5980)">
<path d="M15.5 215.576C15.5 236.379 19.5974 256.978 27.5582 276.197C35.5191 295.416 47.1875 312.879 61.8972 327.589C76.6069 342.299 94.0699 353.967 113.289 361.928C132.508 369.889 153.107 373.986 173.91 373.986C194.713 373.986 215.312 369.889 234.531 361.928C253.75 353.967 271.213 342.299 285.923 327.589C300.633 312.879 312.301 295.416 320.262 276.197C328.223 256.978 332.32 236.379 332.32 215.576C332.32 194.773 328.223 174.174 320.262 154.955C312.301 135.736 300.633 118.273 285.923 103.563C271.213 88.8535 253.75 77.1851 234.531 69.2243C215.312 61.2634 194.713 57.166 173.91 57.166C153.107 57.166 132.508 61.2634 113.289 69.2243C94.0699 77.1851 76.6069 88.8535 61.8972 103.563C47.1875 118.273 35.5191 135.736 27.5582 154.955C19.5974 174.174 15.5 194.773 15.5 215.576V215.576Z" fill="#FFE500"/>
<path d="M173.91 57.166C142.58 57.166 111.953 66.4566 85.9022 83.8629C59.8518 101.269 39.548 126.009 27.5583 154.955C15.5686 183.901 12.4316 215.752 18.5439 246.48C24.6562 277.209 39.7433 305.435 61.8973 327.589C84.0513 349.743 112.277 364.83 143.006 370.942C173.734 377.054 205.585 373.917 234.531 361.928C263.477 349.938 288.217 329.634 305.623 303.584C323.03 277.534 332.32 246.907 332.32 215.576C332.32 173.563 315.631 133.271 285.923 103.563C256.215 73.8556 215.923 57.166 173.91 57.166V57.166ZM173.91 350.219C145.298 350.219 117.328 341.735 93.5376 325.839C69.7473 309.942 51.205 287.349 40.2555 260.914C29.306 234.48 26.4411 205.392 32.0231 177.33C37.6051 149.267 51.3833 123.49 71.6153 103.258C91.8473 83.0259 117.624 69.2477 145.687 63.6657C173.75 58.0838 202.837 60.9486 229.272 71.8981C255.706 82.8476 278.3 101.39 294.196 125.18C310.092 148.97 318.577 176.94 318.577 205.553C318.577 243.921 303.335 280.717 276.205 307.847C249.075 334.978 212.278 350.219 173.91 350.219V350.219Z" fill="#EBCB00"/>
<path d="M126.377 88.8892C126.377 92.0408 131.385 95.0634 140.299 97.292C149.213 99.5205 161.304 100.773 173.91 100.773C186.517 100.773 198.607 99.5205 207.521 97.292C216.436 95.0634 221.444 92.0408 221.444 88.8892C221.444 85.7375 216.436 82.715 207.521 80.4864C198.607 78.2579 186.517 77.0059 173.91 77.0059C161.304 77.0059 149.213 78.2579 140.299 80.4864C131.385 82.715 126.377 85.7375 126.377 88.8892V88.8892Z" fill="#FFF48C"/>
<path d="M15.5 215.576C15.5 236.379 19.5974 256.978 27.5582 276.197C35.5191 295.416 47.1875 312.879 61.8972 327.589C76.6069 342.299 94.0699 353.967 113.289 361.928C132.508 369.889 153.107 373.986 173.91 373.986C194.713 373.986 215.312 369.889 234.531 361.928C253.75 353.967 271.213 342.299 285.923 327.589C300.633 312.879 312.301 295.416 320.262 276.197C328.223 256.978 332.32 236.379 332.32 215.576C332.32 194.773 328.223 174.174 320.262 154.955C312.301 135.736 300.633 118.273 285.923 103.563C271.213 88.8535 253.75 77.1851 234.531 69.2243C215.312 61.2634 194.713 57.166 173.91 57.166C153.107 57.166 132.508 61.2634 113.289 69.2243C94.0699 77.1851 76.6069 88.8535 61.8972 103.563C47.1875 118.273 35.5191 135.736 27.5582 154.955C19.5974 174.174 15.5 194.773 15.5 215.576V215.576Z" stroke="#45413C" stroke-width="7" stroke-linecap="round" stroke-linejoin="round"/>
<path d="M173.91 265.176C176.009 263.983 178.354 263.286 180.764 263.14C183.174 262.993 185.586 263.4 187.814 264.33C190.042 265.26 192.028 266.689 193.619 268.505C195.209 270.322 196.363 272.479 196.99 274.81C197.618 277.142 197.703 279.586 197.24 281.956C196.776 284.326 195.776 286.558 194.316 288.481C192.856 290.404 190.975 291.967 188.817 293.05C186.659 294.133 184.281 294.708 181.867 294.73C185.852 295.052 189.571 296.862 192.282 299.801C194.993 302.741 196.499 306.593 196.499 310.591C196.499 314.59 194.993 318.442 192.282 321.381C189.571 324.32 185.852 326.131 181.867 326.453C179.037 326.445 176.258 325.697 173.807 324.283" stroke="#45413C" stroke-width="7" stroke-linecap="round" stroke-linejoin="round"/>
<path d="M59.1074 255.153C59.1074 261.766 67.8908 267.036 78.8441 267.036C89.7974 267.036 98.6841 261.766 98.6841 255.153C98.6841 248.54 89.7974 243.27 78.8441 243.27C67.8908 243.27 59.1074 248.333 59.1074 255.153Z" fill="#FFAA54"/>
<path d="M288.713 255.153C288.713 261.766 279.827 267.036 268.977 267.036C258.127 267.036 249.137 261.766 249.137 255.153C249.137 248.54 258.333 243.27 268.667 243.27C279 243.27 288.713 248.333 288.713 255.153Z" fill="#FFAA54"/>
<path d="M98.6829 211.65C98.6829 213.224 98.2162 214.762 97.3419 216.071C96.4676 217.379 95.225 218.399 93.7711 219.001C92.3172 219.603 90.7174 219.761 89.1739 219.454C87.6305 219.147 86.2127 218.389 85.1 217.276C83.9872 216.163 83.2294 214.746 82.9224 213.202C82.6154 211.659 82.773 210.059 83.3752 208.605C83.9774 207.151 84.9972 205.909 86.3057 205.034C87.6142 204.16 89.1525 203.693 90.7262 203.693C92.8364 203.693 94.8602 204.532 96.3524 206.024C97.8446 207.516 98.6829 209.54 98.6829 211.65Z" fill="#45413C" stroke="#45413C" stroke-width="7" stroke-linecap="round" stroke-linejoin="round"/>
<path d="M249.137 211.65C249.137 213.223 249.604 214.762 250.478 216.07C251.353 217.379 252.595 218.399 254.049 219.001C255.503 219.603 257.103 219.761 258.646 219.454C260.19 219.147 261.608 218.389 262.72 217.276C263.833 216.163 264.591 214.745 264.898 213.202C265.205 211.659 265.047 210.059 264.445 208.605C263.843 207.151 262.823 205.908 261.515 205.034C260.206 204.16 258.668 203.693 257.094 203.693C256.045 203.679 255.004 203.875 254.033 204.27C253.061 204.665 252.179 205.251 251.437 205.993C250.695 206.734 250.11 207.617 249.715 208.588C249.32 209.56 249.124 210.601 249.137 211.65Z" fill="#45413C" stroke="#45413C" stroke-width="7" stroke-linecap="round" stroke-linejoin="round"/>
<path d="M391.426 134.667C391.446 138.048 390.461 141.358 388.595 144.178C386.73 146.998 384.068 149.199 380.948 150.502C377.829 151.805 374.392 152.152 371.075 151.497C367.758 150.843 364.711 149.217 362.32 146.826C359.929 144.435 358.303 141.388 357.649 138.071C356.994 134.754 357.341 131.317 358.644 128.197C359.947 125.078 362.148 122.416 364.968 120.55C367.788 118.685 371.098 117.7 374.479 117.72C378.965 117.747 383.26 119.541 386.432 122.714C389.605 125.886 391.399 130.181 391.426 134.667Z" stroke="#48CF3E" stroke-width="7" stroke-linecap="round" stroke-linejoin="round"/>
<path d="M476.264 117.203C476.264 120.579 475.261 123.88 473.383 126.686C471.505 129.492 468.836 131.677 465.715 132.964C462.593 134.252 459.16 134.583 455.85 133.917C452.539 133.251 449.502 131.617 447.121 129.222C444.741 126.827 443.125 123.779 442.479 120.465C441.833 117.151 442.185 113.72 443.492 110.606C444.798 107.492 447 104.837 449.817 102.976C452.634 101.115 455.941 100.132 459.317 100.153C463.821 100.18 468.132 101.988 471.307 105.183C474.482 108.377 476.264 112.699 476.264 117.203V117.203Z" stroke="#48CF3E" stroke-width="7" stroke-linecap="round" stroke-linejoin="round"/>
<path d="M391.426 134.15V57.7867L476.262 23.79V117.1" stroke="#48CF3E" stroke-width="7" stroke-linecap="round" stroke-linejoin="round"/>
<path d="M373.136 378.016C373.156 381.335 372.189 384.586 370.358 387.355C368.526 390.123 365.913 392.285 362.85 393.565C359.787 394.845 356.413 395.185 353.156 394.542C349.899 393.9 346.907 392.303 344.559 389.956C342.212 387.609 340.616 384.616 339.973 381.359C339.33 378.103 339.671 374.728 340.95 371.665C342.23 368.602 344.392 365.989 347.16 364.157C349.929 362.326 353.18 361.359 356.499 361.379C360.903 361.406 365.119 363.168 368.233 366.282C371.347 369.396 373.109 373.612 373.136 378.016V378.016Z" stroke="#FF4064" stroke-width="7" stroke-linecap="round" stroke-linejoin="round"/>
<path d="M373.137 378.016V302.893L398.143 319.633" stroke="#FF4064" stroke-width="7" stroke-linecap="round" stroke-linejoin="round"/>
<path d="M280.034 35.0533C280.031 37.0745 279.436 39.0505 278.322 40.7369C277.208 42.4232 275.623 43.7457 273.765 44.5407C271.907 45.3358 269.856 45.5684 267.867 45.2097C265.878 44.8511 264.038 43.917 262.574 42.5231C261.11 41.1292 260.088 39.3367 259.633 37.3674C259.177 35.3981 259.31 33.3386 260.013 31.4438C260.717 29.549 261.96 27.9021 263.59 26.707C265.22 25.5119 267.165 24.821 269.184 24.72C270.584 24.6499 271.983 24.8653 273.297 25.3531C274.611 25.841 275.812 26.591 276.827 27.5576C277.842 28.5242 278.65 29.6872 279.201 30.9758C279.752 32.2644 280.036 33.6517 280.034 35.0533Z" stroke="#FFB700" stroke-width="7" stroke-linecap="round" stroke-linejoin="round"/>
<path d="M280.033 35.053V-13.5137L296.257 -2.767" stroke="#FFB700" stroke-width="7" stroke-linecap="round" stroke-linejoin="round"/>
<path d="M401.037 205.243V199.25" stroke="#00AED9" stroke-width="7" stroke-linecap="round" stroke-linejoin="round"/>
<path d="M413.643 210.41L417.776 206.276" stroke="#00AED9" stroke-width="7" stroke-linecap="round" stroke-linejoin="round"/>
<path d="M418.811 223.017H424.804" stroke="#00AED9" stroke-width="7" stroke-linecap="round" stroke-linejoin="round"/>
<path d="M413.643 235.623L417.776 239.86" stroke="#00AED9" stroke-width="7" stroke-linecap="round" stroke-linejoin="round"/>
<path d="M401.037 240.893V246.783" stroke="#00AED9" stroke-width="7" stroke-linecap="round" stroke-linejoin="round"/>
<path d="M388.43 235.623L384.193 239.86" stroke="#00AED9" stroke-width="7" stroke-linecap="round" stroke-linejoin="round"/>
<path d="M383.16 223.017H377.27" stroke="#00AED9" stroke-width="7" stroke-linecap="round" stroke-linejoin="round"/>
<path d="M388.43 210.41L384.193 206.276" stroke="#00AED9" stroke-width="7" stroke-linecap="round" stroke-linejoin="round"/>
<path d="M459.523 289.666V258.046" stroke="#00AED9" stroke-width="7" stroke-linecap="round" stroke-linejoin="round"/>
<path d="M443.713 273.856H475.436" stroke="#00AED9" stroke-width="7" stroke-linecap="round" stroke-linejoin="round"/>
<path d="M424.803 2.29633V-13.5137" stroke="#00AED9" stroke-width="7" stroke-linecap="round" stroke-linejoin="round"/>
<path d="M435.551 364.687V348.773" stroke="#00AED9" stroke-width="7" stroke-linecap="round" stroke-linejoin="round"/>
<path d="M427.594 356.729H443.404" stroke="#00AED9" stroke-width="7" stroke-linecap="round" stroke-linejoin="round"/>
<path d="M322.711 55.8225V39.9092" stroke="#00AED9" stroke-width="7" stroke-linecap="round" stroke-linejoin="round"/>
<path d="M314.754 47.8662H330.564" stroke="#00AED9" stroke-width="7" stroke-linecap="round" stroke-linejoin="round"/>
</g>
<defs>
<clipPath id="clip0_1175_5980">
<rect width="496" height="496" fill="white"/>
</clipPath>
</defs>
</svg>
