<svg width="495" height="495" viewBox="0 0 495 495" fill="none" xmlns="http://www.w3.org/2000/svg">
<path d="M317.549 314.46L284.136 342.82C260.979 359.181 234.677 370.559 206.896 376.232V376.232C179.155 381.933 152.893 393.309 129.758 409.645L96.552 433.054C95.4964 433.813 94.2988 434.353 93.0305 434.64C91.7622 434.927 90.4491 434.956 89.1693 434.725C87.8896 434.494 86.6695 434.008 85.5815 433.295C84.4935 432.583 83.5599 431.659 82.8363 430.579L11.577 327.454C10.638 326.043 10.103 324.403 10.0301 322.71L5.08008 260.835L316.518 246.707L321.261 306.52C321.31 308.042 320.999 309.554 320.354 310.933C319.709 312.313 318.748 313.521 317.549 314.46V314.46Z" fill="#6DD627" stroke="#45413C" stroke-width="7" stroke-linecap="round" stroke-linejoin="round"/>
<path d="M285.478 387.988C284.296 387.235 283.344 386.171 282.727 384.913C282.11 383.655 281.851 382.251 281.979 380.856C282.107 379.461 282.616 378.127 283.452 377.002C284.287 375.877 285.416 375.004 286.715 374.478C321.376 359.781 359.205 354.138 396.646 358.082C459.14 367.053 502.556 399.332 486.056 426.763C471.721 450.172 430.574 430.682 430.574 430.682C430.574 430.682 444.806 458.113 421.499 469.766C398.193 481.419 364.678 437.385 364.678 437.385C364.678 437.385 359.521 463.785 339.309 458.01C312.393 450.688 321.262 427.072 312.599 411.603C305.197 402.027 295.981 394.003 285.478 387.988V387.988Z" fill="#E5FEFF"/>
<path d="M285.478 387.988C288.365 389.947 291.665 392.113 294.862 394.485C326.781 382.451 361.085 378.106 394.996 381.8C440.474 388.4 475.846 407.478 485.334 427.794C485.599 427.468 485.84 427.123 486.056 426.763C502.556 399.641 459.14 367.053 396.646 358.082C359.205 354.138 321.376 359.781 286.715 374.478C285.416 375.004 284.287 375.877 283.452 377.002C282.616 378.127 282.107 379.461 281.979 380.856C281.851 382.251 282.11 383.655 282.727 384.913C283.344 386.171 284.296 387.235 285.478 387.988V387.988Z" fill="white"/>
<path d="M285.478 387.988C284.296 387.235 283.344 386.171 282.727 384.913C282.11 383.655 281.851 382.251 281.979 380.856C282.107 379.461 282.616 378.127 283.452 377.002C284.287 375.877 285.416 375.004 286.715 374.478C321.376 359.781 359.205 354.138 396.646 358.082C459.14 367.053 502.556 399.332 486.056 426.763C471.721 450.172 430.574 430.682 430.574 430.682C430.574 430.682 444.806 458.113 421.499 469.766C398.193 481.419 364.678 437.385 364.678 437.385C364.678 437.385 359.521 463.785 339.309 458.01C312.393 450.688 321.262 427.072 312.599 411.603C305.197 402.027 295.981 394.003 285.478 387.988V387.988Z" stroke="#45413C" stroke-width="7" stroke-linecap="round" stroke-linejoin="round"/>
<path d="M430.575 430.681C423.555 417.19 413.79 405.317 401.906 395.825Z" fill="#FFAA54"/>
<path d="M430.575 430.681C423.555 417.19 413.79 405.317 401.906 395.825" stroke="#45413C" stroke-width="7" stroke-linecap="round" stroke-linejoin="round"/>
<path d="M364.678 437.385C366.194 424.109 362.497 410.761 354.365 400.157Z" fill="#FFAA54"/>
<path d="M364.678 437.385C366.194 424.109 362.497 410.761 354.365 400.157" stroke="#45413C" stroke-width="7" stroke-linecap="round" stroke-linejoin="round"/>
<path d="M115.116 169.466C115.997 170.322 117.117 170.892 118.327 171.099C119.538 171.307 120.783 171.143 121.899 170.63C123.015 170.117 123.949 169.278 124.579 168.223C125.209 167.169 125.505 165.948 125.429 164.722C126.863 134.751 120.653 104.906 107.382 77.9944C82.735 33.7538 46.3319 10.2413 30.6569 30.1444C17.1475 47.2631 43.135 72.6319 43.135 72.6319C43.135 72.6319 18.5913 69.6412 16.3225 90.2662C14.0538 110.891 56.335 123.782 56.335 123.782C56.335 123.782 37.9788 134.919 47.5694 148.532C60.46 166.785 76.135 153.379 89.6444 155.751C98.9869 158.525 107.658 163.193 115.116 169.466V169.466Z" fill="#E5FEFF"/>
<path d="M104.803 106.972C114.799 126.397 120.696 147.668 122.128 169.466C122.957 168.977 123.647 168.284 124.134 167.454C124.621 166.625 124.889 165.684 124.913 164.722C126.347 134.751 120.137 104.906 106.866 77.9944C82.7346 33.7538 46.3315 10.2413 30.6565 30.1444C28.0141 34.0393 26.6016 38.6377 26.6016 43.3444C26.6016 48.051 28.0141 52.6494 30.6565 56.5444C47.9815 41.6944 82.219 65.0006 104.803 106.972Z" fill="white"/>
<path d="M115.116 169.466C115.997 170.322 117.117 170.892 118.327 171.099C119.538 171.307 120.783 171.143 121.899 170.63C123.015 170.117 123.949 169.278 124.579 168.223C125.209 167.169 125.505 165.948 125.429 164.722C126.863 134.751 120.653 104.906 107.382 77.9944C82.735 33.7538 46.3319 10.2413 30.6569 30.1444C17.1475 47.2631 43.135 72.6319 43.135 72.6319C43.135 72.6319 18.5913 69.6412 16.3225 90.2662C14.0538 110.891 56.335 123.782 56.335 123.782C56.335 123.782 37.9788 134.919 47.5694 148.532C60.46 166.785 76.135 153.379 89.6444 155.751C98.9869 158.525 107.658 163.193 115.116 169.466V169.466Z" stroke="#45413C" stroke-width="7" stroke-linecap="round" stroke-linejoin="round"/>
<path d="M43.1348 72.6318C55.1301 74.2375 66.6349 78.4243 76.8566 84.9037Z" fill="#FFAA54"/>
<path d="M43.1348 72.6318C55.1301 74.2375 66.6349 78.4243 76.8566 84.9037" stroke="#45413C" stroke-width="7" stroke-linecap="round" stroke-linejoin="round"/>
<path d="M56.334 123.781C65.7424 119.09 76.5872 118.168 86.6527 121.203Z" fill="#FFAA54"/>
<path d="M56.334 123.781C65.7424 119.09 76.5872 118.168 86.6527 121.203" stroke="#45413C" stroke-width="7" stroke-linecap="round" stroke-linejoin="round"/>
<path d="M119.447 194.732C91.6914 200.387 65.42 211.766 42.3092 228.144L8.9998 251.554C6.96285 253.13 5.58981 255.412 5.15086 257.951C4.7119 260.489 5.23882 263.1 6.62792 265.269L77.5779 365.816C79.1548 367.853 81.4369 369.226 83.9752 369.665C86.5135 370.104 89.1242 369.577 91.2936 368.188L124.603 344.675C147.761 328.381 174.014 317.009 201.74 311.263C229.522 305.59 255.823 294.212 278.981 277.85L312.187 254.441C314.224 252.864 315.597 250.582 316.036 248.044C316.475 245.505 315.948 242.895 314.559 240.725L243.609 140.179C242.032 138.142 239.75 136.769 237.212 136.33C234.674 135.891 232.063 136.418 229.894 137.807L196.687 161.319C173.51 177.647 147.216 189.021 119.447 194.732V194.732Z" fill="#6DD627" stroke="#45413C" stroke-width="7" stroke-linecap="round" stroke-linejoin="round"/>
<path d="M40.9686 271.251L83.5592 331.476C85.1361 333.513 87.4182 334.886 89.9565 335.325C92.4948 335.763 95.1055 335.237 97.2748 333.847L114.394 321.782C137.541 305.402 163.847 294.023 191.634 288.369V288.369C219.375 282.668 245.637 271.292 268.772 254.957L277.95 248.563C279.97 246.972 281.323 244.683 281.743 242.145C282.162 239.608 281.619 237.005 280.219 234.847L237.731 174.519C236.154 172.482 233.872 171.109 231.334 170.67C228.795 170.231 226.185 170.758 224.015 172.147L206.794 183.904C183.683 200.281 157.411 211.661 129.656 217.316V217.316C101.903 223.08 75.6196 234.45 52.4154 250.729L43.3404 257.226C41.22 258.812 39.7911 261.153 39.3495 263.764C38.9079 266.375 39.4877 269.055 40.9686 271.251Z" fill="#E4FFD1" stroke="#45413C" stroke-width="7" stroke-linecap="round" stroke-linejoin="round"/>
<path d="M188.437 242.788C192.046 253.1 182.558 265.785 167.193 271.147C151.827 276.51 136.255 272.694 132.749 262.485C129.243 252.275 138.627 239.488 154.096 234.022C169.565 228.557 185.343 232.578 188.437 242.788Z" fill="#9CEB60" stroke="#45413C" stroke-width="7" stroke-linecap="round" stroke-linejoin="round"/>
<path d="M84.3848 370.147L89.541 434.704" stroke="#45413C" stroke-width="7" stroke-linecap="round" stroke-linejoin="round"/>
<path d="M319.406 290.122L285.066 319.203C260.889 336.303 233.43 348.207 204.422 354.163V354.163C175.438 360.037 148.003 371.91 123.881 389.019L87.8906 414.697" stroke="#45413C" stroke-width="7" stroke-linecap="round" stroke-linejoin="round"/>
<path d="M318.065 268.466L283.725 297.341C259.579 314.407 232.153 326.276 203.184 332.197V332.197C174.204 338.184 146.758 350.047 122.54 367.053L86.2402 392.938" stroke="#45413C" stroke-width="7" stroke-linecap="round" stroke-linejoin="round"/>
<path d="M87.375 407.788L7.45312 292.185Z" fill="#FFAA54"/>
<path d="M87.375 407.788L7.45312 292.185" stroke="#45413C" stroke-width="7" stroke-linecap="round" stroke-linejoin="round"/>
</svg>
