<svg width="495" height="495" viewBox="0 0 495 495" fill="none" xmlns="http://www.w3.org/2000/svg">
<path d="M191.679 460.556L33.6918 302.671C32.7175 301.898 31.9629 300.883 31.5034 299.727C31.0438 298.571 30.8953 297.315 31.0727 296.083C31.2501 294.852 31.7471 293.689 32.5143 292.71C33.2815 291.731 34.2919 290.97 35.4449 290.503L45.1387 286.378C47.7916 285.553 50.6326 285.553 53.2856 286.378L131.97 302.568L191.989 362.587L208.386 441.065C208.926 443.828 208.676 446.688 207.664 449.315L203.745 458.906C203.283 460.053 202.526 461.057 201.55 461.816C200.575 462.576 199.416 463.065 198.191 463.232C196.966 463.4 195.718 463.24 194.575 462.77C193.431 462.3 192.432 461.536 191.679 460.556Z" fill="#4ACFFF"/>
<path d="M159.195 355.885L171.054 341.963L131.97 302.569L53.2856 286.378C50.5597 285.785 47.7177 286.037 45.1387 287.1L35.4449 290.916C34.2919 291.383 33.2815 292.144 32.5143 293.123C31.7471 294.102 31.2501 295.265 31.0727 296.497C30.8953 297.728 31.0438 298.984 31.5034 300.14C31.9629 301.296 32.7175 302.311 33.6918 303.085L44.0043 313.397H45.2418C47.8208 312.334 50.6628 312.082 53.3887 312.675L131.97 328.35L159.195 355.885Z" fill="#80DDFF"/>
<path d="M191.679 362.587L186.419 357.328L122.275 391.359L155.275 424.256C160.34 424.282 165.379 423.552 170.229 422.091C181.545 418.474 192.052 412.696 201.166 405.075L191.679 362.587Z" fill="#00B8F0"/>
<path d="M191.679 460.556L33.6918 302.671C32.7175 301.898 31.9629 300.883 31.5034 299.727C31.0438 298.571 30.8953 297.315 31.0727 296.083C31.2501 294.852 31.7471 293.689 32.5143 292.71C33.2815 291.731 34.2919 290.97 35.4449 290.503L45.1387 286.378C47.7916 285.553 50.6326 285.553 53.2856 286.378L131.97 302.568L191.989 362.587L208.386 441.065C208.926 443.828 208.676 446.688 207.664 449.315L203.745 458.906C203.283 460.053 202.526 461.057 201.55 461.816C200.575 462.576 199.416 463.065 198.191 463.232C196.966 463.4 195.718 463.24 194.575 462.77C193.431 462.3 192.432 461.536 191.679 460.556Z" stroke="#45413C" stroke-width="6" stroke-linecap="round" stroke-linejoin="round"/>
<path d="M424.295 274.304L444.712 294.721C447.42 297.429 448.941 301.101 448.941 304.93C448.941 308.759 447.42 312.431 444.712 315.139L388.491 371.361L347.655 330.525L403.877 274.304C405.218 272.963 406.809 271.899 408.561 271.174C410.313 270.448 412.19 270.075 414.086 270.075C415.982 270.075 417.859 270.448 419.611 271.174C421.363 271.899 422.954 272.963 424.295 274.304V274.304Z" fill="#C0DCEB" stroke="#45413C" stroke-width="6" stroke-linecap="round" stroke-linejoin="round"/>
<path d="M199.482 49.6385L219.9 70.0562C222.608 72.7638 224.129 76.436 224.129 80.2651C224.129 84.0942 222.608 87.7664 219.9 90.474L163.751 146.623L122.916 105.787L179.065 49.6385C181.772 46.931 185.444 45.4099 189.273 45.4099C193.102 45.4099 196.775 46.931 199.482 49.6385V49.6385Z" fill="#C0DCEB" stroke="#45413C" stroke-width="6" stroke-linecap="round" stroke-linejoin="round"/>
<path d="M398.548 418.275L301.611 294.525L199.517 192.328L75.7673 95.3907C73.7742 93.8279 72.2273 91.7683 71.2819 89.4187C70.3364 87.069 70.0258 84.512 70.381 82.0043C70.7363 79.4966 71.745 77.1265 73.3058 75.1319C74.8667 73.1373 76.9248 71.5884 79.2735 70.6407L98.9704 62.8032C104.263 60.6362 110.091 60.1326 115.677 61.3595L276.345 95.7001L398.755 218.316L432.683 378.263C433.745 383.874 433.172 389.673 431.033 394.969L423.092 414.666C422.139 416.978 420.601 419.002 418.629 420.541C416.658 422.08 414.32 423.081 411.846 423.445C409.372 423.809 406.845 423.523 404.514 422.617C402.183 421.711 400.127 420.215 398.548 418.275Z" fill="#4ACFFF"/>
<path d="M389.473 209.034L398.754 218.212L410.407 273.178L330.795 331.856L301.713 294.834L294.082 287.306L389.473 209.034Z" fill="#00B8F0"/>
<path d="M282.636 102.093L263.661 124.884L116.192 93.9463C110.572 92.7112 104.709 93.2147 99.3825 95.3901L83.3981 101.784L76.1794 96.1119C74.1863 94.5492 72.6394 92.4895 71.694 90.1399C70.7485 87.7902 70.4379 85.2332 70.7931 82.7255C71.1484 80.2178 72.1571 77.8477 73.7179 75.8531C75.2788 73.8585 77.3369 72.3097 79.6856 71.3619L99.3825 63.4213C104.734 61.3482 110.566 60.8473 116.192 61.9776L276.345 95.5963L282.636 102.093Z" fill="#80DDFF"/>
<path d="M398.548 418.275L301.611 294.525L199.517 192.328L75.7673 95.3907C73.7742 93.8279 72.2273 91.7683 71.2819 89.4187C70.3364 87.069 70.0258 84.512 70.381 82.0043C70.7363 79.4966 71.745 77.1265 73.3058 75.1319C74.8667 73.1373 76.9248 71.5884 79.2735 70.6407L98.9704 62.8032C104.263 60.6362 110.091 60.1326 115.677 61.3595L276.345 95.7001L398.755 218.316L432.683 378.263C433.745 383.874 433.172 389.673 431.033 394.969L423.092 414.666C422.139 416.978 420.601 419.002 418.629 420.541C416.658 422.08 414.32 423.081 411.846 423.445C409.372 423.809 406.845 423.523 404.514 422.617C402.183 421.711 400.127 420.215 398.548 418.275Z" stroke="#45413C" stroke-width="6" stroke-linecap="round" stroke-linejoin="round"/>
<path d="M101.032 358.565L288.101 133.546C292.694 128.036 297.921 123.086 303.673 118.8C349.46 79.1996 418.554 51.2527 449.801 82.4996C455.173 87.9941 459.043 94.7765 461.041 102.196C465.785 79.0965 463.413 58.059 449.801 44.4465C418.863 13.509 349.46 41.2496 303.673 80.8496C297.898 85.07 292.668 89.9886 288.101 95.4933L101.032 320.821C94.6916 328.22 90.4485 337.182 88.7437 346.776C87.039 356.369 87.9349 366.244 91.3383 375.375C93.6073 369.269 96.884 363.587 101.032 358.565V358.565Z" fill="white"/>
<path d="M413.501 190.678C453.101 144.89 481.151 75.7967 449.801 44.4467C418.451 13.0967 349.461 41.2498 303.673 80.8498C297.899 85.0703 292.668 89.9889 288.101 95.4936L101.033 320.822C92.3235 330.672 87.6113 343.422 87.8212 356.568C88.0311 369.715 93.1479 382.308 102.167 391.875C111.732 400.886 124.314 406.007 137.454 406.236C150.594 406.465 163.347 401.785 173.22 393.112L398.858 206.147C404.334 201.588 409.249 196.395 413.501 190.678Z" fill="#E8F4FA"/>
<path d="M413.501 190.678C453.101 144.89 481.151 75.7967 449.801 44.4467C418.451 13.0967 349.461 41.2498 303.673 80.8498C297.899 85.0703 292.668 89.9889 288.101 95.4936L101.033 320.822C92.3235 330.672 87.6113 343.422 87.8212 356.568C88.0311 369.715 93.1479 382.308 102.167 391.875C111.732 400.886 124.314 406.007 137.454 406.236C150.594 406.465 163.347 401.785 173.22 393.112L398.858 206.147C404.334 201.588 409.249 196.395 413.501 190.678Z" stroke="#45413C" stroke-width="6" stroke-linecap="round" stroke-linejoin="round"/>
<path d="M408.655 85.5934C400.023 77.1853 389.527 70.9347 378.022 67.3506C366.517 63.7665 354.329 62.9503 342.448 64.9684L338.942 95.9059C338.798 97.0238 338.917 98.1601 339.291 99.2235C339.665 100.287 340.282 101.248 341.094 102.03C341.906 102.812 342.89 103.393 343.967 103.726C345.044 104.06 346.184 104.136 347.295 103.95C357.608 102.197 374.417 102.3 383.08 110.962C391.742 119.625 391.948 136.847 390.092 146.85C389.906 147.961 389.982 149.101 390.316 150.178C390.649 151.255 391.23 152.239 392.012 153.051C392.794 153.863 393.755 154.48 394.818 154.854C395.882 155.228 397.018 155.347 398.136 155.203L429.074 151.697C431.06 139.849 430.248 127.701 426.702 116.224C423.157 104.746 416.977 94.2567 408.655 85.5934V85.5934Z" fill="#00B8F0"/>
<path d="M342.448 64.7623L338.942 95.6998C338.798 96.8177 338.917 97.954 339.291 99.0174C339.665 100.081 340.282 101.042 341.094 101.824C341.906 102.606 342.89 103.187 343.967 103.52C345.044 103.853 346.184 103.93 347.295 103.744C353.192 102.775 359.193 102.601 365.136 103.228L407.623 84.1498C398.976 76.1334 388.6 70.2151 377.298 66.8531C365.996 63.4911 354.071 62.7757 342.448 64.7623Z" fill="#4ACFFF"/>
<path d="M408.655 85.5934C400.023 77.1853 389.527 70.9347 378.022 67.3506C366.517 63.7665 354.329 62.9503 342.448 64.9684L338.942 95.9059C338.798 97.0238 338.917 98.1601 339.291 99.2235C339.665 100.287 340.282 101.248 341.094 102.03C341.906 102.812 342.89 103.393 343.967 103.726C345.044 104.06 346.184 104.136 347.295 103.95C357.608 102.197 374.417 102.3 383.08 110.962C391.742 119.625 391.948 136.847 390.092 146.85C389.906 147.961 389.982 149.101 390.316 150.178C390.649 151.255 391.23 152.239 392.012 153.051C392.794 153.863 393.755 154.48 394.818 154.854C395.882 155.228 397.018 155.347 398.136 155.203L429.074 151.697C431.06 139.849 430.248 127.701 426.702 116.224C423.157 104.746 416.977 94.2567 408.655 85.5934V85.5934Z" stroke="#45413C" stroke-width="6" stroke-linecap="round" stroke-linejoin="round"/>
<path d="M413.502 190.678C425.324 175.448 431.329 156.502 430.441 137.243C429.553 117.984 421.829 99.6713 408.655 85.5939C394.602 72.4047 376.295 64.677 357.042 63.807C337.789 62.937 318.859 68.9821 303.674 80.8501" stroke="#45413C" stroke-width="6" stroke-linecap="round" stroke-linejoin="round"/>
<path d="M102.374 391.875C101.014 390.524 99.9354 388.917 99.1992 387.147C98.463 385.377 98.084 383.479 98.084 381.563C98.084 379.646 98.463 377.748 99.1992 375.978C99.9354 374.208 101.014 372.601 102.374 371.25L158.577 315.047C159.931 313.693 161.539 312.618 163.308 311.886C165.078 311.153 166.974 310.775 168.889 310.775C170.804 310.775 172.701 311.153 174.47 311.886C176.24 312.618 177.848 313.693 179.202 315.047C180.556 316.401 181.63 318.009 182.363 319.778C183.096 321.548 183.473 323.444 183.473 325.359C183.473 327.275 183.096 329.171 182.363 330.941C181.63 332.71 180.556 334.318 179.202 335.672L122.999 391.875C121.647 393.235 120.041 394.313 118.271 395.05C116.501 395.786 114.603 396.165 112.686 396.165C110.769 396.165 108.871 395.786 107.102 395.05C105.332 394.313 103.725 393.235 102.374 391.875V391.875Z" fill="#4ACFFF" stroke="#45413C" stroke-width="6" stroke-linecap="round" stroke-linejoin="round"/>
</svg>
