<svg width="495" height="495" viewBox="0 0 495 495" fill="none" xmlns="http://www.w3.org/2000/svg">
<path opacity="0.15" d="M80.0742 460.663C80.0742 463.02 84.4114 465.353 92.8382 467.53C101.265 469.707 113.616 471.685 129.187 473.352C144.758 475.018 163.243 476.34 183.587 477.241C203.931 478.143 225.735 478.607 247.755 478.607C269.776 478.607 291.58 478.143 311.924 477.241C332.268 476.34 350.753 475.018 366.324 473.352C381.895 471.685 394.246 469.707 402.673 467.53C411.099 465.353 415.437 463.02 415.437 460.663C415.437 458.307 411.099 455.974 402.673 453.797C394.246 451.62 381.895 449.642 366.324 447.975C350.753 446.309 332.268 444.987 311.924 444.086C291.58 443.184 269.776 442.72 247.755 442.72C225.735 442.72 203.931 443.184 183.587 444.086C163.243 444.987 144.758 446.309 129.187 447.975C113.616 449.642 101.265 451.62 92.8382 453.797C84.4114 455.974 80.0742 458.307 80.0742 460.663V460.663Z" fill="#45413C"/>
<path d="M247.755 32.7979C138.443 32.7979 50.4771 89.5166 53.0553 158.92L86.4678 437.357C87.267 443.097 90.1225 448.352 94.5039 452.145C98.8852 455.939 104.494 458.013 110.29 457.982H385.221C391.016 458.013 396.625 455.939 401.007 452.145C405.388 448.352 408.243 443.097 409.043 437.357L442.455 158.92C445.033 89.5166 357.068 32.7979 247.755 32.7979Z" fill="#E04122" stroke="#45413C" stroke-width="7" stroke-linecap="round" stroke-linejoin="round"/>
<path d="M155.974 309.07L120.499 315.155C118.94 315.424 117.338 315.066 116.043 314.158C114.748 313.249 113.866 311.865 113.589 310.308L67.6987 43.3171C67.4965 42.0139 67.7306 40.6804 68.3648 39.5241C68.9989 38.3678 69.9974 37.4535 71.2049 36.9233L105.133 21.9702C105.958 21.5932 106.859 21.4123 107.766 21.4415C108.672 21.4708 109.56 21.7095 110.359 22.139C111.158 22.5685 111.847 23.177 112.371 23.9171C112.896 24.6571 113.242 25.5085 113.383 26.4046L160.821 302.161C161.09 303.719 160.732 305.321 159.824 306.616C158.915 307.911 157.531 308.793 155.974 309.07V309.07Z" fill="#FFE500"/>
<path d="M72.4432 71.5734L118.231 54.764L113.693 26.4046C113.552 25.5085 113.206 24.6571 112.682 23.9171C112.157 23.177 111.468 22.5685 110.669 22.139C109.87 21.7095 108.983 21.4708 108.076 21.4415C107.169 21.4123 106.268 21.5932 105.443 21.9702L71.2057 36.9233C69.9869 37.4388 68.9776 38.3505 68.3413 39.5108C67.705 40.6712 67.4788 42.0123 67.6994 43.3171L72.4432 71.5734Z" fill="#FFF48C"/>
<path d="M155.974 309.07L120.499 315.155C118.94 315.424 117.338 315.066 116.043 314.158C114.748 313.249 113.866 311.865 113.589 310.308L67.6987 43.3171C67.4965 42.0139 67.7306 40.6804 68.3648 39.5241C68.9989 38.3678 69.9974 37.4535 71.2049 36.9233L105.133 21.9702C105.958 21.5932 106.859 21.4123 107.766 21.4415C108.672 21.4708 109.56 21.7095 110.359 22.139C111.158 22.5685 111.847 23.177 112.371 23.9171C112.896 24.6571 113.242 25.5085 113.383 26.4046L160.821 302.161C161.09 303.719 160.732 305.321 159.824 306.616C158.915 307.911 157.531 308.793 155.974 309.07V309.07Z" stroke="#45413C" stroke-width="7" stroke-linecap="round" stroke-linejoin="round"/>
<path d="M166.905 20.8357H202.895C204.482 20.8357 206.003 21.4658 207.125 22.5875C208.247 23.7092 208.877 25.2306 208.877 26.8169L206.505 297.933C206.517 299.267 206.074 300.566 205.249 301.616C204.424 302.665 203.267 303.403 201.967 303.708L165.977 312.473C165.091 312.673 164.172 312.673 163.286 312.471C162.4 312.27 161.571 311.872 160.859 311.309C160.147 310.745 159.57 310.029 159.171 309.214C158.772 308.398 158.56 307.503 158.552 306.595L160.821 26.7138C160.82 25.9242 160.979 25.1426 161.287 24.4156C161.595 23.6887 162.047 23.0313 162.614 22.4827C163.182 21.934 163.855 21.5055 164.592 21.2225C165.329 20.9395 166.116 20.8079 166.905 20.8357V20.8357Z" fill="#FFE500"/>
<path d="M208.567 61.5704V27.1267C208.567 26.3412 208.413 25.5634 208.112 24.8378C207.811 24.1121 207.371 23.4527 206.816 22.8973C206.26 22.3419 205.601 21.9013 204.875 21.6007C204.149 21.3001 203.372 21.1454 202.586 21.1454H166.595C165.815 21.1317 165.039 21.2737 164.314 21.5629C163.589 21.8522 162.929 22.283 162.372 22.8302C161.815 23.3774 161.373 24.03 161.071 24.75C160.77 25.47 160.614 26.2429 160.614 27.0236V61.4673L208.567 61.5704Z" fill="#FFF48C"/>
<path d="M166.905 20.8357H202.895C204.482 20.8357 206.003 21.4658 207.125 22.5875C208.247 23.7092 208.877 25.2306 208.877 26.8169L206.505 297.933C206.517 299.267 206.074 300.566 205.249 301.616C204.424 302.665 203.267 303.403 201.967 303.708L165.977 312.473C165.091 312.673 164.172 312.673 163.286 312.471C162.4 312.27 161.571 311.872 160.859 311.309C160.147 310.745 159.57 310.029 159.171 309.214C158.772 308.398 158.56 307.503 158.552 306.595L160.821 26.7138C160.82 25.9242 160.979 25.1426 161.287 24.4156C161.595 23.6887 162.047 23.0313 162.614 22.4827C163.182 21.934 163.855 21.5055 164.592 21.2225C165.329 20.9395 166.116 20.8079 166.905 20.8357V20.8357Z" stroke="#45413C" stroke-width="7" stroke-linecap="round" stroke-linejoin="round"/>
<path d="M233.421 63.2201L269.206 66.1076C269.992 66.1725 270.758 66.3923 271.459 66.7546C272.161 67.1168 272.783 67.6142 273.291 68.2181C273.799 68.822 274.183 69.5205 274.42 70.2734C274.656 71.0262 274.742 71.8184 274.671 72.6045L252.499 342.483C252.399 343.831 251.844 345.105 250.927 346.097C250.009 347.09 248.782 347.742 247.446 347.948L210.94 353.929C210.045 354.073 209.128 354.011 208.26 353.749C207.392 353.486 206.595 353.03 205.93 352.414C205.264 351.798 204.747 351.039 204.418 350.194C204.089 349.348 203.957 348.44 204.031 347.536L227.131 68.6857C227.262 67.1355 227.993 65.6976 229.168 64.6771C230.342 63.6567 231.868 63.134 233.421 63.2201V63.2201Z" fill="#FFE500"/>
<path d="M274.671 72.6047C274.741 71.8187 274.656 71.0264 274.419 70.2736C274.182 69.5208 273.799 68.8223 273.291 68.2184C272.782 67.6144 272.16 67.117 271.459 66.7548C270.758 66.3926 269.992 66.1727 269.205 66.1078L233.421 63.2203C232.635 63.1496 231.842 63.2352 231.09 63.4721C230.337 63.7089 229.638 64.0925 229.034 64.6005C228.43 65.1086 227.933 65.7312 227.571 66.4323C227.209 67.1335 226.989 67.8994 226.924 68.686L224.346 100.345L272.093 104.264L274.671 72.6047Z" fill="#FFF48C"/>
<path d="M233.421 63.2201L269.206 66.1076C269.992 66.1725 270.758 66.3923 271.459 66.7546C272.161 67.1168 272.783 67.6142 273.291 68.2181C273.799 68.822 274.183 69.5205 274.42 70.2734C274.656 71.0262 274.742 71.8184 274.671 72.6045L252.499 342.483C252.399 343.831 251.844 345.105 250.927 346.097C250.009 347.09 248.782 347.742 247.446 347.948L210.94 353.929C210.045 354.073 209.128 354.011 208.26 353.749C207.392 353.486 206.595 353.03 205.93 352.414C205.264 351.798 204.747 351.039 204.418 350.194C204.089 349.348 203.957 348.44 204.031 347.536L227.131 68.6857C227.262 67.1355 227.993 65.6976 229.168 64.6771C230.342 63.6567 231.868 63.134 233.421 63.2201V63.2201Z" stroke="#45413C" stroke-width="7" stroke-linecap="round" stroke-linejoin="round"/>
<path d="M381.199 358.055L345.724 352.692C344.944 352.579 344.195 352.312 343.519 351.909C342.843 351.505 342.253 350.971 341.783 350.339C341.314 349.706 340.974 348.988 340.783 348.223C340.592 347.459 340.554 346.665 340.671 345.886L380.786 77.761C380.97 76.4337 381.602 75.209 382.578 74.29C383.553 73.371 384.813 72.8128 386.149 72.7079L423.068 69.4079C423.975 69.3374 424.886 69.4714 425.735 69.7999C426.584 70.1284 427.348 70.6431 427.971 71.3061C428.595 71.969 429.062 72.7634 429.337 73.6307C429.613 74.498 429.691 75.416 429.564 76.3173L388.314 353.002C388.204 353.812 387.928 354.591 387.505 355.291C387.081 355.991 386.518 356.596 385.851 357.07C385.184 357.543 384.427 357.875 383.627 358.044C382.827 358.214 382 358.217 381.199 358.055Z" fill="#FFE500"/>
<path d="M417.087 101.067C418.718 100.911 420.358 101.251 421.793 102.042C423.228 102.833 424.391 104.039 425.13 105.501L429.565 76.4197C429.708 75.5107 429.643 74.581 429.375 73.7006C429.108 72.8202 428.643 72.0121 428.018 71.337C427.393 70.6619 426.622 70.1375 425.765 69.8033C424.907 69.469 423.985 69.3336 423.068 69.4072L386.149 73.0166C384.813 73.1214 383.553 73.6796 382.578 74.5986C381.603 75.5177 380.971 76.7423 380.787 78.0697L377.074 102.923L417.087 101.067Z" fill="#FFF48C"/>
<path d="M381.199 358.055L345.724 352.692C344.944 352.579 344.195 352.312 343.519 351.909C342.843 351.505 342.253 350.971 341.783 350.339C341.314 349.706 340.974 348.988 340.783 348.223C340.592 347.459 340.554 346.665 340.671 345.886L380.786 77.761C380.97 76.4337 381.602 75.209 382.578 74.29C383.553 73.371 384.813 72.8128 386.149 72.7079L423.068 69.4079C423.975 69.3374 424.886 69.4714 425.735 69.7999C426.584 70.1284 427.348 70.6431 427.971 71.3061C428.595 71.969 429.062 72.7634 429.337 73.6307C429.613 74.498 429.691 75.416 429.564 76.3173L388.314 353.002C388.204 353.812 387.928 354.591 387.505 355.291C387.081 355.991 386.518 356.596 385.851 357.07C385.184 357.543 384.427 357.875 383.627 358.044C382.827 358.214 382 358.217 381.199 358.055Z" stroke="#45413C" stroke-width="7" stroke-linecap="round" stroke-linejoin="round"/>
<path d="M326.028 307.008L361.915 304.326C362.702 304.261 363.468 304.042 364.169 303.679C364.87 303.317 365.492 302.82 366 302.216C366.509 301.612 366.892 300.913 367.129 300.161C367.366 299.408 367.451 298.615 367.381 297.829L346.756 27.8482C346.66 26.5151 346.12 25.2525 345.223 24.2618C344.326 23.2712 343.123 22.6096 341.806 22.3826L305.299 16.0919C304.406 15.9334 303.487 15.9804 302.614 16.2293C301.741 16.4783 300.936 16.9227 300.261 17.5289C299.585 18.1351 299.056 18.8872 298.714 19.7281C298.372 20.5691 298.226 21.4768 298.287 22.3826L318.912 301.439C318.955 302.294 319.182 303.131 319.577 303.891C319.971 304.652 320.525 305.319 321.199 305.847C321.874 306.375 322.654 306.752 323.487 306.952C324.32 307.152 325.187 307.171 326.028 307.008Z" fill="#FFE500"/>
<path d="M306.433 57.8576L349.746 63.3232L347.168 27.8482C347.072 26.5151 346.532 25.2525 345.635 24.2618C344.738 23.2712 343.535 22.6096 342.218 22.3826L305.712 16.0919C304.818 15.9334 303.899 15.9804 303.026 16.2293C302.153 16.4783 301.349 16.9227 300.673 17.5289C299.997 18.1351 299.468 18.8872 299.126 19.7281C298.784 20.5691 298.638 21.4768 298.699 22.3826L301.38 58.8888C302.916 58.0273 304.683 57.6668 306.433 57.8576V57.8576Z" fill="#FFF48C"/>
<path d="M326.028 307.008L361.915 304.326C362.702 304.261 363.468 304.042 364.169 303.679C364.87 303.317 365.492 302.82 366 302.216C366.509 301.612 366.892 300.913 367.129 300.161C367.366 299.408 367.451 298.615 367.381 297.829L346.756 27.8482C346.66 26.5151 346.12 25.2525 345.223 24.2618C344.326 23.2712 343.123 22.6096 341.806 22.3826L305.299 16.0919C304.406 15.9334 303.487 15.9804 302.614 16.2293C301.741 16.4783 300.936 16.9227 300.261 17.5289C299.585 18.1351 299.056 18.8872 298.714 19.7281C298.372 20.5691 298.226 21.4768 298.287 22.3826L318.912 301.439C318.955 302.294 319.182 303.131 319.577 303.891C319.971 304.652 320.525 305.319 321.199 305.847C321.874 306.375 322.654 306.752 323.487 306.952C324.32 307.152 325.187 307.171 326.028 307.008Z" stroke="#45413C" stroke-width="7" stroke-linecap="round" stroke-linejoin="round"/>
<path d="M357.067 382.907L321.592 388.992C320.022 389.232 318.421 388.848 317.13 387.923C315.839 386.998 314.961 385.605 314.683 384.042L268.38 117.67C268.189 116.354 268.426 115.011 269.058 113.841C269.689 112.671 270.681 111.735 271.886 111.173L305.814 96.2199C306.649 95.864 307.553 95.7025 308.459 95.7477C309.365 95.7928 310.249 96.0435 311.044 96.4806C311.838 96.9178 312.523 97.53 313.047 98.2709C313.57 99.0119 313.918 99.8622 314.064 100.757L361.502 376.514C361.626 377.93 361.25 379.344 360.44 380.512C359.63 381.68 358.437 382.527 357.067 382.907Z" fill="#FFE500"/>
<path d="M321.283 139.636L314.477 100.242C314.331 99.3466 313.983 98.4963 313.46 97.7553C312.936 97.0144 312.251 96.4022 311.457 95.965C310.662 95.5278 309.778 95.2772 308.872 95.232C307.966 95.1869 307.062 95.3484 306.227 95.7043L272.299 110.657C270.918 111.169 269.765 112.156 269.047 113.441C268.329 114.727 268.092 116.226 268.38 117.67L275.187 156.961L321.283 139.636Z" fill="#FFF48C"/>
<path d="M357.067 382.907L321.592 388.992C320.022 389.232 318.421 388.848 317.13 387.923C315.839 386.998 314.961 385.605 314.683 384.042L268.38 117.67C268.189 116.354 268.426 115.011 269.058 113.841C269.689 112.671 270.681 111.735 271.886 111.173L305.814 96.2199C306.649 95.864 307.553 95.7025 308.459 95.7477C309.365 95.7928 310.249 96.0435 311.044 96.4806C311.838 96.9178 312.523 97.53 313.047 98.2709C313.57 99.0119 313.918 99.8622 314.064 100.757L361.502 376.514C361.626 377.93 361.25 379.344 360.44 380.512C359.63 381.68 358.437 382.527 357.067 382.907Z" stroke="#45413C" stroke-width="7" stroke-linecap="round" stroke-linejoin="round"/>
<path d="M127.306 400.851L163.09 403.636C163.876 403.692 164.665 403.592 165.412 403.342C166.159 403.092 166.85 402.697 167.444 402.18C168.038 401.662 168.524 401.033 168.874 400.327C169.224 399.621 169.431 398.853 169.484 398.067L190.109 128.086C190.215 126.754 189.864 125.425 189.115 124.319C188.365 123.213 187.26 122.395 185.984 122.001L150.921 110.245C150.058 109.963 149.143 109.878 148.243 109.996C147.343 110.114 146.48 110.431 145.719 110.926C144.957 111.42 144.316 112.079 143.843 112.853C143.369 113.628 143.074 114.498 142.981 115.401L121.324 394.354C121.283 395.175 121.405 395.997 121.685 396.77C121.964 397.543 122.395 398.253 122.952 398.858C123.509 399.463 124.18 399.95 124.928 400.293C125.676 400.635 126.484 400.825 127.306 400.851V400.851Z" fill="#FFE500"/>
<path d="M188.356 155.827L190.521 127.983C190.628 126.651 190.277 125.322 189.527 124.216C188.777 123.11 187.673 122.293 186.396 121.899L151.334 110.142C150.471 109.861 149.556 109.775 148.655 109.893C147.755 110.011 146.893 110.329 146.132 110.823C145.37 111.318 144.729 111.976 144.255 112.751C143.781 113.525 143.487 114.396 143.393 115.299L141.228 143.245L188.356 155.827Z" fill="#FFF48C"/>
<path d="M127.306 400.851L163.09 403.636C163.876 403.692 164.665 403.592 165.412 403.342C166.159 403.092 166.85 402.697 167.444 402.18C168.038 401.662 168.524 401.033 168.874 400.327C169.224 399.621 169.431 398.853 169.484 398.067L190.109 128.086C190.215 126.754 189.864 125.425 189.115 124.319C188.365 123.213 187.26 122.395 185.984 122.001L150.921 110.245C150.058 109.963 149.143 109.878 148.243 109.996C147.343 110.114 146.48 110.431 145.719 110.926C144.957 111.42 144.316 112.079 143.843 112.853C143.369 113.628 143.074 114.498 142.981 115.401L121.324 394.354C121.283 395.175 121.405 395.997 121.685 396.77C121.964 397.543 122.395 398.253 122.952 398.858C123.509 399.463 124.18 399.95 124.928 400.293C125.676 400.635 126.484 400.825 127.306 400.851V400.851Z" stroke="#45413C" stroke-width="7" stroke-linecap="round" stroke-linejoin="round"/>
<path d="M221.871 452.002L185.88 452.93C185.099 452.957 184.321 452.829 183.591 452.552C182.861 452.276 182.193 451.856 181.626 451.319C181.06 450.781 180.606 450.136 180.292 449.421C179.977 448.706 179.809 447.936 179.796 447.155L172.989 176.348C172.985 175.019 173.416 173.724 174.216 172.662C175.017 171.601 176.144 170.831 177.424 170.47L213.105 160.158C213.982 159.923 214.902 159.891 215.794 160.064C216.686 160.237 217.526 160.612 218.252 161.158C218.978 161.705 219.569 162.41 219.982 163.219C220.394 164.029 220.617 164.921 220.633 165.83L227.646 445.505C227.732 446.318 227.647 447.141 227.397 447.92C227.147 448.699 226.737 449.418 226.193 450.029C225.65 450.641 224.985 451.132 224.24 451.472C223.496 451.811 222.689 451.992 221.871 452.002Z" fill="#FFE500"/>
<path d="M178.971 207.389L221.458 198.314L220.633 166.242C220.617 165.333 220.394 164.441 219.982 163.631C219.569 162.822 218.978 162.117 218.252 161.57C217.526 161.024 216.686 160.649 215.794 160.476C214.902 160.303 213.982 160.335 213.105 160.57L177.424 170.882C176.144 171.243 175.017 172.013 174.216 173.075C173.416 174.136 172.985 175.431 172.989 176.761L173.917 210.482C174.498 209.643 175.247 208.934 176.117 208.402C176.987 207.869 177.959 207.524 178.971 207.389V207.389Z" fill="#FFF48C"/>
<path d="M221.871 452.002L185.88 452.93C185.099 452.957 184.321 452.829 183.591 452.552C182.861 452.276 182.193 451.856 181.626 451.319C181.06 450.781 180.606 450.136 180.292 449.421C179.977 448.706 179.809 447.936 179.796 447.155L172.989 176.348C172.985 175.019 173.416 173.724 174.216 172.662C175.017 171.601 176.144 170.831 177.424 170.47L213.105 160.158C213.982 159.923 214.902 159.891 215.794 160.064C216.686 160.237 217.526 160.612 218.252 161.158C218.978 161.705 219.569 162.41 219.982 163.219C220.394 164.029 220.617 164.921 220.633 165.83L227.646 445.505C227.732 446.318 227.647 447.141 227.397 447.92C227.147 448.699 226.737 449.418 226.193 450.029C225.65 450.641 224.985 451.132 224.24 451.472C223.496 451.811 222.689 451.992 221.871 452.002Z" stroke="#45413C" stroke-width="7" stroke-linecap="round" stroke-linejoin="round"/>
<path d="M263.018 141.285L298.699 145.513C300.271 145.695 301.706 146.491 302.692 147.728C303.677 148.965 304.133 150.541 303.959 152.113L272.093 421.063C271.957 422.412 271.36 423.672 270.401 424.631C269.443 425.589 268.182 426.187 266.834 426.323L230.121 430.963C229.223 431.078 228.31 430.988 227.451 430.698C226.593 430.409 225.811 429.928 225.166 429.293C224.52 428.657 224.027 427.883 223.725 427.029C223.422 426.175 223.317 425.264 223.418 424.363L256.418 146.545C256.495 145.761 256.728 145.001 257.103 144.31C257.479 143.618 257.99 143.009 258.605 142.518C259.221 142.028 259.929 141.666 260.687 141.454C261.445 141.242 262.238 141.185 263.018 141.285V141.285Z" fill="#FFE500"/>
<path d="M296.74 182.226C297.982 182.32 299.184 182.709 300.246 183.361L303.959 152.423C304.133 150.851 303.677 149.274 302.691 148.037C301.706 146.8 300.27 146.004 298.699 145.823L263.018 141.595C262.237 141.494 261.444 141.552 260.686 141.764C259.928 141.976 259.221 142.337 258.605 142.828C257.99 143.318 257.479 143.928 257.103 144.619C256.727 145.311 256.494 146.071 256.418 146.854L252.809 177.276L296.74 182.226Z" fill="#FFF48C"/>
<path d="M263.018 141.285L298.699 145.513C300.271 145.695 301.706 146.491 302.692 147.728C303.677 148.965 304.133 150.541 303.959 152.113L272.093 421.063C271.957 422.412 271.36 423.672 270.401 424.631C269.443 425.589 268.182 426.187 266.834 426.323L230.121 430.963C229.223 431.078 228.31 430.988 227.451 430.698C226.593 430.409 225.811 429.928 225.166 429.293C224.52 428.657 224.027 427.883 223.725 427.029C223.422 426.175 223.317 425.264 223.418 424.363L256.418 146.545C256.495 145.761 256.728 145.001 257.103 144.31C257.479 143.618 257.99 143.009 258.605 142.518C259.221 142.028 259.929 141.666 260.687 141.454C261.445 141.242 262.238 141.185 263.018 141.285V141.285Z" stroke="#45413C" stroke-width="7" stroke-linecap="round" stroke-linejoin="round"/>
<path d="M404.815 158.92C402.304 158.889 399.848 159.65 397.793 161.094C395.739 162.537 394.191 164.591 393.368 166.963C377.899 217.288 318.603 254.723 247.756 254.723C176.909 254.723 117.612 216.876 102.143 166.551C101.252 164.256 99.6751 162.291 97.6265 160.925C95.5779 159.559 93.1577 158.859 90.6963 158.92H53.0557L86.4682 437.357C87.2674 443.097 90.123 448.352 94.5043 452.145C98.8856 455.938 104.495 458.013 110.29 457.982H385.221C391.017 458.013 396.626 455.938 401.007 452.145C405.388 448.352 408.244 443.097 409.043 437.357L442.456 158.92H404.815Z" fill="#FF6242"/>
<path d="M77.5994 212.442C79.99 212.331 82.3586 212.941 84.3992 214.191C86.4398 215.441 88.0586 217.274 89.0463 219.454C104.515 263.798 176.909 296.798 247.756 296.798C318.603 296.798 390.996 263.798 406.465 219.454C407.453 217.274 409.072 215.441 411.112 214.191C413.153 212.941 415.521 212.331 417.912 212.442H435.959L442.456 158.92H404.815C402.304 158.889 399.848 159.65 397.793 161.094C395.739 162.537 394.191 164.591 393.368 166.963C377.899 217.288 318.603 254.723 247.756 254.723C176.909 254.723 117.612 216.876 102.143 166.551C101.252 164.256 99.6751 162.291 97.6265 160.925C95.5779 159.559 93.1577 158.859 90.6963 158.92H53.0557L59.5525 212.854L77.5994 212.442Z" fill="#FF866E"/>
<path d="M404.815 158.92C402.304 158.889 399.848 159.65 397.793 161.094C395.739 162.537 394.191 164.591 393.368 166.963C377.899 217.288 318.603 254.723 247.756 254.723C176.909 254.723 117.612 216.876 102.143 166.551C101.252 164.256 99.6751 162.291 97.6265 160.925C95.5779 159.559 93.1577 158.859 90.6963 158.92H53.0557L86.4682 437.357C87.2674 443.097 90.123 448.352 94.5043 452.145C98.8856 455.938 104.495 458.013 110.29 457.982H385.221C391.017 458.013 396.626 455.938 401.007 452.145C405.388 448.352 408.244 443.097 409.043 437.357L442.456 158.92H404.815Z" stroke="#45413C" stroke-width="7" stroke-linecap="round" stroke-linejoin="round"/>
<path d="M181.858 356.198C181.858 367.33 188.801 378.006 201.159 385.877C213.517 393.748 230.278 398.17 247.755 398.17C265.232 398.17 281.993 393.748 294.351 385.877C306.709 378.006 313.652 367.33 313.652 356.198C313.652 345.067 306.709 334.391 294.351 326.52C281.993 318.649 265.232 314.227 247.755 314.227C230.278 314.227 213.517 318.649 201.159 326.52C188.801 334.391 181.858 345.067 181.858 356.198V356.198Z" fill="#FFE500" stroke="#45413C" stroke-width="7" stroke-linecap="round" stroke-linejoin="round"/>
</svg>
