<svg width="495" height="495" viewBox="0 0 495 495" fill="none" xmlns="http://www.w3.org/2000/svg">
<path d="M109.956 318.403L199.984 289.115L290.115 318.712C304.559 322.663 317.379 331.089 326.735 342.78C336.092 354.471 341.503 368.826 342.193 383.784V443.803H57.8777V383.475C58.5676 368.516 63.9793 354.162 73.3358 342.471C82.6923 330.78 95.5124 322.354 109.956 318.403V318.403Z" fill="white"/>
<path d="M109.956 318.403L199.984 289.115L290.115 318.712C304.559 322.663 317.379 331.089 326.735 342.78C336.092 354.471 341.503 368.826 342.193 383.784V414.721C341.503 399.763 336.092 385.408 326.735 373.717C317.379 362.026 304.559 353.601 290.115 349.65L199.984 320.053L109.956 349.65C95.6083 353.693 82.9016 362.158 73.644 373.841C64.3864 385.524 59.0497 399.83 58.3934 414.721V383.784C58.9858 368.838 64.2934 354.463 73.5557 342.719C82.818 330.974 95.5598 322.462 109.956 318.403Z" fill="#E0E0E0"/>
<path d="M109.956 318.403L199.984 289.115L290.115 318.712C304.559 322.663 317.379 331.089 326.735 342.78C336.092 354.471 341.503 368.826 342.193 383.784V443.803H57.8777V383.475C58.5676 368.516 63.9793 354.162 73.3358 342.471C82.6923 330.78 95.5124 322.354 109.956 318.403V318.403Z" stroke="#45413C" stroke-width="7" stroke-linecap="round" stroke-linejoin="round"/>
<path d="M115.318 443.803V327.271" stroke="#45413C" stroke-width="7" stroke-linecap="round" stroke-linejoin="round"/>
<path d="M284.65 443.803V327.271" stroke="#45413C" stroke-width="7" stroke-linecap="round" stroke-linejoin="round"/>
<path d="M263.818 386.156H216.896V411.938H263.818V386.156Z" fill="#FF6242" stroke="#45413C" stroke-width="7" stroke-linecap="round" stroke-linejoin="round"/>
<path d="M162.137 399.047C162.137 402.466 160.779 405.744 158.361 408.162C155.944 410.579 152.665 411.937 149.246 411.938C145.827 411.937 142.548 410.579 140.131 408.162C137.714 405.744 136.355 402.466 136.355 399.047C136.355 395.628 137.714 392.349 140.131 389.932C142.548 387.514 145.827 386.156 149.246 386.156C152.665 386.156 155.944 387.514 158.361 389.932C160.779 392.349 162.137 395.628 162.137 399.047V399.047Z" fill="#009FD9" stroke="#45413C" stroke-width="7" stroke-linecap="round" stroke-linejoin="round"/>
<path d="M293.828 310.153C293.828 320.628 283.941 330.675 266.342 338.082C248.743 345.489 224.873 349.65 199.984 349.65C175.095 349.65 151.226 345.489 133.627 338.082C116.028 330.675 106.141 320.628 106.141 310.153C106.141 299.678 116.028 289.632 133.627 282.225C151.226 274.818 175.095 270.656 199.984 270.656C224.873 270.656 248.743 274.818 266.342 282.225C283.941 289.632 293.828 299.678 293.828 310.153V310.153Z" fill="white"/>
<path d="M199.985 270.656C245.36 270.656 283.207 284.166 291.973 302.213C283.207 320.156 245.36 333.769 199.985 333.769C154.61 333.769 116.866 320.053 108.101 302.213C116.866 284.166 154.507 270.656 199.985 270.656Z" fill="#E0E0E0"/>
<path d="M293.828 310.153C293.828 320.628 283.941 330.675 266.342 338.082C248.743 345.489 224.873 349.65 199.984 349.65C175.095 349.65 151.226 345.489 133.627 338.082C116.028 330.675 106.141 320.628 106.141 310.153C106.141 299.678 116.028 289.632 133.627 282.225C151.226 274.818 175.095 270.656 199.984 270.656C224.873 270.656 248.743 274.818 266.342 282.225C283.941 289.632 293.828 299.678 293.828 310.153V310.153Z" stroke="#45413C" stroke-width="7" stroke-linecap="round" stroke-linejoin="round"/>
<path d="M264.85 304.482C264.85 306.472 263.172 308.444 259.912 310.283C256.652 312.122 251.874 313.793 245.851 315.201C239.828 316.609 232.677 317.725 224.807 318.487C216.937 319.249 208.502 319.641 199.984 319.641C191.466 319.641 183.031 319.249 175.161 318.487C167.291 317.725 160.14 316.609 154.117 315.201C148.094 313.793 143.316 312.122 140.056 310.283C136.796 308.444 135.118 306.472 135.118 304.482C135.118 302.491 136.796 300.52 140.056 298.68C143.316 296.841 148.094 295.17 154.117 293.762C160.14 292.355 167.291 291.238 175.161 290.476C183.031 289.714 191.466 289.322 199.984 289.322C208.502 289.322 216.937 289.714 224.807 290.476C232.677 291.238 239.828 292.355 245.851 293.762C251.874 295.17 256.652 296.841 259.912 298.68C263.172 300.52 264.85 302.491 264.85 304.482V304.482Z" fill="#656769" stroke="#45413C" stroke-width="7" stroke-linecap="round" stroke-linejoin="round"/>
<path d="M226.693 318.3C209.242 320.086 191.654 320.086 174.203 318.3V284.784H226.693V318.3Z" fill="#FFCEBF" stroke="#45413C" stroke-width="7" stroke-linecap="round" stroke-linejoin="round"/>
<path d="M331.131 353.169L355.697 288.259C357.188 284.32 357.053 279.95 355.322 276.11C353.59 272.27 350.405 269.276 346.465 267.785C344.444 267.02 342.203 267.089 340.233 267.977C338.263 268.866 336.727 270.5 335.962 272.521L317.2 322.095C314.941 328.064 315.138 334.685 317.749 340.509C320.36 346.332 325.171 350.885 331.131 353.169Z" fill="#E0E0E0"/>
<path d="M331.131 353.169L355.697 288.259C357.188 284.32 357.053 279.95 355.322 276.11C353.59 272.27 350.405 269.276 346.465 267.785C344.444 267.02 342.203 267.089 340.233 267.977C338.263 268.866 336.727 270.5 335.962 272.521L317.2 322.095C314.941 328.064 315.138 334.685 317.749 340.509C320.36 346.332 325.171 350.885 331.131 353.169Z" stroke="#45413C" stroke-width="7" stroke-linecap="round" stroke-linejoin="round"/>
<path d="M448 418.95C448 421.056 447.163 423.076 445.674 424.565C444.185 426.054 442.165 426.891 440.059 426.891H432.944C431.712 432.665 429.987 438.324 427.787 443.803H220.3C218.1 438.324 216.375 432.665 215.144 426.891H208.028C206.977 426.904 205.933 426.709 204.958 426.316C203.982 425.923 203.095 425.34 202.346 424.602C201.598 423.863 201.004 422.983 200.599 422.013C200.193 421.042 199.984 420.001 199.984 418.95V387.497C199.984 386.445 200.193 385.404 200.599 384.434C201.004 383.464 201.598 382.584 202.346 381.845C203.095 381.106 203.982 380.524 204.958 380.131C205.933 379.738 206.977 379.543 208.028 379.556H215.144C220.486 354.639 234.212 332.308 254.03 316.289C273.848 300.269 298.561 291.53 324.044 291.53C349.527 291.53 374.239 300.269 394.058 316.289C413.876 332.308 427.601 354.639 432.944 379.556H440.059C442.165 379.556 444.185 380.393 445.674 381.882C447.163 383.371 448 385.391 448 387.497V418.95Z" fill="#E0E0E0"/>
<path d="M208.028 379.556H215.144C220.486 354.639 234.212 332.308 254.03 316.289C273.848 300.269 298.561 291.53 324.044 291.53C349.527 291.53 374.239 300.269 394.058 316.289C413.876 332.308 427.601 354.639 432.944 379.556H440.059C442.165 379.556 444.185 380.393 445.674 381.882C447.163 383.371 448 385.391 448 387.497V409.875C448 407.759 447.167 405.729 445.681 404.223C444.194 402.718 442.175 401.858 440.059 401.831C438.078 401.839 436.149 401.198 434.566 400.006C432.983 398.814 431.834 397.137 431.294 395.231C424.675 371.888 410.621 351.341 391.264 336.711C371.908 322.08 348.307 314.164 324.044 314.164C299.78 314.164 276.179 322.08 256.823 336.711C237.467 351.341 223.413 371.888 216.794 395.231C216.238 397.129 215.085 398.796 213.506 399.985C211.926 401.174 210.005 401.822 208.028 401.831C205.895 401.831 203.849 402.679 202.34 404.187C200.832 405.696 199.984 407.742 199.984 409.875V387.497C199.984 386.445 200.193 385.404 200.599 384.434C201.004 383.464 201.598 382.584 202.346 381.845C203.095 381.106 203.982 380.524 204.958 380.131C205.933 379.738 206.977 379.543 208.028 379.556Z" fill="white"/>
<path d="M448 418.95C448 421.056 447.163 423.076 445.674 424.565C444.185 426.054 442.165 426.891 440.059 426.891H432.944C431.712 432.665 429.987 438.324 427.787 443.803H220.3C218.1 438.324 216.375 432.665 215.144 426.891H208.028C206.977 426.904 205.933 426.709 204.958 426.316C203.982 425.923 203.095 425.34 202.346 424.602C201.598 423.863 201.004 422.983 200.599 422.013C200.193 421.042 199.984 420.001 199.984 418.95V387.497C199.984 386.445 200.193 385.404 200.599 384.434C201.004 383.464 201.598 382.584 202.346 381.845C203.095 381.106 203.982 380.524 204.958 380.131C205.933 379.738 206.977 379.543 208.028 379.556H215.144C220.486 354.639 234.212 332.308 254.03 316.289C273.848 300.269 298.561 291.53 324.044 291.53C349.527 291.53 374.239 300.269 394.058 316.289C413.876 332.308 427.601 354.639 432.944 379.556H440.059C442.165 379.556 444.185 380.393 445.674 381.882C447.163 383.371 448 385.391 448 387.497V418.95Z" stroke="#45413C" stroke-width="7" stroke-linecap="round" stroke-linejoin="round"/>
<path d="M244.637 443.803C238.487 431.788 235.144 418.534 234.86 405.04C234.575 391.546 237.357 378.163 242.995 365.9C248.632 353.636 256.98 342.812 267.407 334.243C277.835 325.673 290.072 319.582 303.195 316.427C316.319 313.273 329.987 313.138 343.17 316.032C356.354 318.926 368.708 324.774 379.304 333.135C389.899 341.497 398.459 352.154 404.338 364.303C410.218 376.452 413.263 389.778 413.246 403.275C413.108 417.416 409.571 431.316 402.934 443.803H244.637Z" fill="#00B8F0"/>
<path d="M324.043 358.416C279.7 358.416 242.987 383.991 236.078 417.3C234.221 405.192 234.88 392.831 238.016 380.99C241.151 369.148 246.694 358.08 254.299 348.477C261.904 338.874 271.408 330.942 282.216 325.177C293.024 319.412 304.905 315.938 317.117 314.971C329.328 314.005 341.608 315.566 353.189 319.559C364.769 323.551 375.402 329.889 384.424 338.176C393.445 346.463 400.661 356.521 405.62 367.722C410.579 378.923 413.175 391.026 413.246 403.275C413.355 407.969 413.044 412.662 412.318 417.3C405.1 383.991 368.387 358.416 324.043 358.416Z" fill="#4ACFFF"/>
<path d="M244.637 443.803C238.487 431.788 235.144 418.534 234.86 405.04C234.575 391.546 237.357 378.163 242.995 365.9C248.632 353.636 256.98 342.812 267.407 334.243C277.835 325.673 290.072 319.582 303.195 316.427C316.319 313.273 329.987 313.138 343.17 316.032C356.354 318.926 368.708 324.774 379.304 333.135C389.899 341.497 398.459 352.154 404.338 364.303C410.218 376.452 413.263 389.778 413.246 403.275C413.108 417.416 409.571 431.316 402.934 443.803H244.637Z" stroke="#45413C" stroke-width="7" stroke-linecap="round" stroke-linejoin="round"/>
<path d="M360.506 330.677L385.015 293.351L365.102 280.276L340.593 317.601L360.506 330.677Z" fill="#BDBEC0"/>
<path d="M375.09 286.847C377.712 288.573 379.542 291.268 380.18 294.342C380.818 297.415 380.211 300.616 378.493 303.243L369.934 316.237C370.85 314.922 371.49 313.434 371.816 311.865C372.141 310.295 372.145 308.676 371.827 307.105C371.508 305.534 370.875 304.043 369.965 302.724C369.055 301.404 367.886 300.283 366.531 299.428C363.888 297.704 360.67 297.095 357.58 297.732C354.49 298.37 351.776 300.202 350.031 302.831L358.693 289.837C359.571 288.561 360.692 287.471 361.992 286.63C363.293 285.788 364.746 285.212 366.27 284.934C367.794 284.656 369.357 284.682 370.871 285.01C372.384 285.338 373.818 285.963 375.09 286.847V286.847Z" fill="#E0E0E0"/>
<path d="M360.506 330.677L385.015 293.351L365.102 280.276L340.593 317.601L360.506 330.677Z" stroke="#45413C" stroke-width="7" stroke-linecap="round" stroke-linejoin="round"/>
<path d="M380.602 343.476L405.111 306.15L385.198 293.075L360.689 330.4L380.602 343.476Z" fill="#BDBEC0"/>
<path d="M395.199 299.428C397.828 301.174 399.661 303.887 400.298 306.977C400.936 310.068 400.326 313.285 398.603 315.928L390.043 328.922C391.766 326.282 392.37 323.067 391.722 319.982C391.075 316.897 389.228 314.196 386.589 312.473C383.949 310.75 380.734 310.146 377.649 310.794C374.564 311.442 371.863 313.289 370.14 315.928L378.699 302.934C380.429 300.289 383.135 298.435 386.226 297.778C389.318 297.121 392.544 297.714 395.199 299.428V299.428Z" fill="#E0E0E0"/>
<path d="M380.602 343.476L405.111 306.15L385.198 293.075L360.689 330.4L380.602 343.476Z" stroke="#45413C" stroke-width="7" stroke-linecap="round" stroke-linejoin="round"/>
<path d="M398.846 358.991L423.355 321.666L403.442 308.59L378.933 345.916L398.846 358.991Z" fill="#BDBEC0"/>
<path d="M413.453 315.103C416.075 316.829 417.906 319.525 418.544 322.598C419.181 325.672 418.575 328.873 416.856 331.5L408.297 344.597C409.334 343.297 410.088 341.795 410.512 340.187C410.935 338.579 411.019 336.901 410.758 335.259C410.497 333.617 409.896 332.047 408.994 330.65C408.092 329.253 406.909 328.06 405.52 327.146C404.131 326.232 402.567 325.617 400.927 325.342C399.287 325.066 397.608 325.135 395.996 325.545C394.385 325.955 392.877 326.696 391.568 327.721C390.259 328.747 389.178 330.034 388.394 331.5L396.953 318.506C397.808 317.194 398.915 316.064 400.209 315.182C401.504 314.299 402.96 313.682 404.494 313.366C406.028 313.049 407.61 313.04 409.147 313.338C410.685 313.636 412.149 314.236 413.453 315.103Z" fill="#E0E0E0"/>
<path d="M398.846 358.991L423.355 321.666L403.442 308.59L378.933 345.916L398.846 358.991Z" stroke="#45413C" stroke-width="7" stroke-linecap="round" stroke-linejoin="round"/>
<path d="M199.984 51C208.506 51.008 216.994 52.082 225.249 54.1969C244.327 58.5281 269.284 65.7469 291.868 61.4156C292.779 67.2325 292.479 73.1747 290.989 78.8706C289.498 84.5665 286.849 89.8936 283.205 94.5188C295.044 111.447 301.381 131.611 301.355 152.269V205.275H98.7148V152.269C98.7148 125.411 109.384 99.6525 128.376 80.6609C147.367 61.6694 173.125 51 199.984 51Z" fill="#A86C4D"/>
<path d="M199.985 51C208.507 51.008 216.995 52.082 225.251 54.1969C244.329 58.5281 269.285 65.7469 291.87 61.4156C293.321 72.2355 290.832 83.2165 284.857 92.3531C264.69 92.6766 244.591 89.9295 225.251 84.2063C210.288 80.3513 194.642 79.9713 179.509 83.0955C164.377 86.2196 150.16 92.7651 137.948 102.231C125.735 111.696 115.85 123.831 109.05 137.705C102.25 151.58 98.7156 166.827 98.7164 182.278V152.269C98.7164 125.411 109.386 99.6525 128.377 80.6609C147.369 61.6694 173.127 51 199.985 51Z" fill="#DE926A"/>
<path d="M199.984 51C208.506 51.008 216.994 52.082 225.249 54.1969C244.327 58.5281 269.284 65.7469 291.868 61.4156C292.779 67.2325 292.479 73.1747 290.989 78.8706C289.498 84.5665 286.849 89.8936 283.205 94.5188C295.044 111.447 301.381 131.611 301.355 152.269V205.275H98.7148V152.269C98.7148 125.411 109.384 99.6525 128.376 80.6609C147.367 61.6694 173.125 51 199.984 51Z" stroke="#45413C" stroke-width="7" stroke-linecap="round" stroke-linejoin="round"/>
<path d="M87.8876 197.541C88.3959 193.741 90.0497 190.185 92.6289 187.348C95.208 184.511 98.5902 182.527 102.325 181.66L108.306 180.01C112.789 178.744 116.732 176.039 119.527 172.312C122.322 168.585 123.815 164.043 123.775 159.385V138.347C123.793 134.081 125.217 129.94 127.827 126.565C130.437 123.19 134.088 120.771 138.213 119.682C157.883 127.513 178.92 131.335 200.088 130.922C221.257 131.354 242.298 127.532 261.963 119.682C266.096 120.755 269.757 123.17 272.37 126.548C274.983 129.927 276.4 134.077 276.4 138.347V159.591C276.378 164.245 277.877 168.779 280.669 172.502C283.462 176.226 287.395 178.934 291.869 180.216L297.953 181.866C302.311 182.921 306.132 185.535 308.695 189.214C311.259 192.893 312.386 197.383 311.866 201.837C311.346 206.29 309.214 210.399 305.872 213.389C302.53 216.378 298.209 218.041 293.725 218.063H292.591C289.351 240.243 278.237 260.516 261.281 275.176C244.324 289.836 222.658 297.904 200.242 297.904C177.827 297.904 156.16 289.836 139.204 275.176C122.247 260.516 111.133 240.243 107.894 218.063H106.759C104.131 218.089 101.527 217.563 99.1153 216.518C96.7035 215.474 94.538 213.934 92.7589 212C90.9799 210.065 89.627 207.778 88.7878 205.288C87.9487 202.797 87.642 200.158 87.8876 197.541V197.541Z" fill="#FFCEBF" stroke="#45413C" stroke-width="7" stroke-linecap="round" stroke-linejoin="round"/>
<path d="M256.085 195.375C256.106 196.974 255.649 198.544 254.773 199.882C253.897 201.221 252.642 202.267 251.168 202.889C249.694 203.511 248.068 203.679 246.498 203.372C244.928 203.064 243.486 202.296 242.354 201.165C241.223 200.034 240.455 198.591 240.148 197.021C239.841 195.452 240.009 193.826 240.63 192.352C241.252 190.878 242.299 189.623 243.637 188.747C244.976 187.871 246.545 187.414 248.145 187.434C250.251 187.434 252.27 188.271 253.76 189.76C255.249 191.249 256.085 193.269 256.085 195.375V195.375Z" fill="#45413C" stroke="#45413C" stroke-width="7" stroke-linecap="round" stroke-linejoin="round"/>
<path d="M144.193 195.375C144.193 196.945 144.659 198.481 145.531 199.786C146.404 201.092 147.644 202.11 149.095 202.711C150.546 203.312 152.142 203.469 153.683 203.163C155.223 202.857 156.638 202.1 157.748 200.99C158.859 199.879 159.615 198.464 159.922 196.924C160.228 195.384 160.071 193.787 159.47 192.336C158.869 190.885 157.851 189.645 156.545 188.773C155.239 187.9 153.704 187.434 152.134 187.434C151.087 187.42 150.048 187.616 149.079 188.01C148.109 188.405 147.228 188.989 146.488 189.729C145.748 190.469 145.163 191.35 144.769 192.32C144.375 193.29 144.179 194.328 144.193 195.375V195.375Z" fill="#45413C" stroke="#45413C" stroke-width="7" stroke-linecap="round" stroke-linejoin="round"/>
<path d="M229.272 243.74C229.923 243.765 230.562 243.923 231.15 244.205C231.737 244.488 232.26 244.888 232.686 245.382C233.112 245.875 233.431 246.451 233.624 247.074C233.818 247.696 233.881 248.352 233.809 249C232.479 256.996 228.355 264.261 222.17 269.502C215.986 274.743 208.142 277.619 200.036 277.619C191.93 277.619 184.086 274.743 177.902 269.502C171.717 264.261 167.593 256.996 166.263 249C166.175 248.349 166.226 247.687 166.414 247.058C166.601 246.429 166.919 245.846 167.348 245.349C167.777 244.852 168.306 244.452 168.901 244.174C169.496 243.897 170.144 243.749 170.8 243.74H229.272Z" fill="#FF6242"/>
<path d="M199.984 258.178C209.321 257.855 218.5 260.648 226.074 266.119C222.813 269.808 218.805 272.762 214.316 274.786C209.827 276.809 204.959 277.856 200.035 277.856C195.111 277.856 190.243 276.809 185.754 274.786C181.265 272.762 177.257 269.808 173.996 266.119C181.513 260.613 190.673 257.814 199.984 258.178V258.178Z" fill="#FFA694"/>
<path d="M229.272 243.74C229.923 243.765 230.562 243.923 231.15 244.205C231.737 244.488 232.26 244.888 232.686 245.382C233.112 245.875 233.431 246.451 233.624 247.074C233.818 247.696 233.881 248.352 233.809 249C232.479 256.996 228.355 264.261 222.17 269.502C215.986 274.743 208.142 277.619 200.036 277.619C191.93 277.619 184.086 274.743 177.902 269.502C171.717 264.261 167.593 256.996 166.263 249C166.175 248.349 166.226 247.687 166.414 247.058C166.601 246.429 166.919 245.846 167.348 245.349C167.777 244.852 168.306 244.452 168.901 244.174C169.496 243.897 170.144 243.749 170.8 243.74H229.272Z" stroke="#45413C" stroke-width="7" stroke-linecap="round" stroke-linejoin="round"/>
<path d="M271.553 229.2C271.553 230.841 270.466 232.415 268.532 233.575C266.598 234.736 263.975 235.388 261.24 235.388C258.505 235.388 255.882 234.736 253.948 233.575C252.014 232.415 250.928 230.841 250.928 229.2C250.928 227.559 252.014 225.985 253.948 224.825C255.882 223.665 258.505 223.013 261.24 223.013C263.975 223.013 266.598 223.665 268.532 224.825C270.466 225.985 271.553 227.559 271.553 229.2Z" fill="#FFB59E"/>
<path d="M149.041 229.2C149.041 230.841 147.954 232.415 146.021 233.575C144.087 234.736 141.464 235.388 138.729 235.388C135.993 235.388 133.37 234.736 131.436 233.575C129.503 232.415 128.416 230.841 128.416 229.2C128.416 227.559 129.503 225.985 131.436 224.825C133.37 223.665 135.993 223.013 138.729 223.013C141.464 223.013 144.087 223.665 146.021 224.825C147.954 225.985 149.041 227.559 149.041 229.2Z" fill="#FFB59E"/>
</svg>
