<svg width="496" height="496" viewBox="0 0 496 496" fill="none" xmlns="http://www.w3.org/2000/svg">
<path d="M248.219 248.243C237.886 248.243 233.753 253.513 227.553 260.747L228.276 278.727C230.591 275.539 233.576 272.897 237.022 270.987C240.467 269.077 244.289 267.944 248.219 267.67C252.274 267.839 256.238 268.921 259.817 270.836C263.395 272.75 266.495 275.447 268.886 278.727V260.437C262.686 253.513 258.553 248.243 248.219 248.243Z" fill="#E8F4FA" stroke="#45413C" stroke-width="8" stroke-linecap="round" stroke-linejoin="round"/>
<path d="M10.5527 257.751L81.7494 125.071C89.185 111.301 101.325 100.665 115.953 95.1045L142.819 84.7712C144.547 84.1056 146.421 83.9162 148.246 84.2228C150.072 84.5294 151.781 85.3206 153.197 86.5139C154.612 87.7072 155.68 89.2587 156.29 91.0062C156.901 92.7537 157.031 94.6331 156.666 96.4479C154.735 106.089 149.791 114.867 142.548 121.516C135.305 128.165 126.137 132.341 116.366 133.441V133.441C112.43 133.859 108.663 135.261 105.412 137.518C102.162 139.776 99.5319 142.816 97.7661 146.358L31.2194 279.245L10.5527 257.751Z" fill="#87898C"/>
<path d="M485.921 257.751L414.724 125.071C407.289 111.301 395.149 100.665 380.521 95.1045L353.654 84.7712C351.927 84.1056 350.053 83.9162 348.227 84.2228C346.402 84.5294 344.692 85.3206 343.277 86.5139C341.862 87.7072 340.794 89.2587 340.183 91.0062C339.573 92.7537 339.443 94.6331 339.808 96.4479V96.4479C341.739 106.089 346.682 114.867 353.926 121.516C361.169 128.165 370.337 132.341 380.108 133.441V133.441C384.043 133.859 387.811 135.261 391.061 137.518C394.312 139.776 396.942 142.816 398.708 146.358L465.254 279.245L485.921 257.751Z" fill="#87898C"/>
<path d="M81.7514 146.778C89.0214 132.643 101.175 121.627 115.955 115.778L142.821 105.444C144.517 104.747 146.368 104.513 148.184 104.768C150 105.022 151.716 105.755 153.155 106.891C154.903 103.387 156.188 99.6701 156.978 95.8344C157.243 94.0288 157.025 92.1852 156.347 90.4911C155.668 88.797 154.553 87.3128 153.115 86.1895C151.677 85.0662 149.966 84.3438 148.158 84.0958C146.35 83.8479 144.509 84.0831 142.821 84.7777L115.955 95.1111C101.346 100.704 89.2161 111.331 81.7514 125.078L10.5547 257.758L17.8914 265.404L81.7514 146.778Z" fill="#BDBEC0"/>
<path d="M343.631 107.298C345.07 106.162 346.786 105.429 348.602 105.175C350.418 104.92 352.269 105.154 353.964 105.851L380.831 116.185C395.426 121.994 407.452 132.847 414.724 146.771L478.584 265.811L485.921 258.165L414.724 125.071C407.26 111.325 395.13 100.697 380.521 95.1045L353.654 84.7712C351.927 84.1056 350.053 83.9162 348.227 84.2228C346.402 84.5294 344.692 85.3206 343.277 86.5139C341.862 87.7072 340.794 89.2587 340.183 91.0062C339.573 92.7537 339.443 94.6331 339.808 96.4479C340.614 100.213 341.899 103.859 343.631 107.298V107.298Z" fill="#BDBEC0"/>
<path d="M10.5527 257.751L81.7494 125.071C89.185 111.301 101.325 100.665 115.953 95.1045L142.819 84.7712C144.547 84.1056 146.421 83.9162 148.246 84.2228C150.072 84.5294 151.781 85.3206 153.197 86.5139C154.612 87.7072 155.68 89.2587 156.29 91.0062C156.901 92.7537 157.031 94.6331 156.666 96.4479C154.735 106.089 149.791 114.867 142.548 121.516C135.305 128.165 126.137 132.341 116.366 133.441V133.441C112.43 133.859 108.663 135.261 105.412 137.518C102.162 139.776 99.5319 142.816 97.7661 146.358L31.2194 279.245L10.5527 257.751Z" stroke="#45413C" stroke-width="8" stroke-linecap="round" stroke-linejoin="round"/>
<path d="M485.921 257.751L414.724 125.071C407.289 111.301 395.149 100.665 380.521 95.1045L353.654 84.7712C351.927 84.1056 350.053 83.9162 348.227 84.2228C346.402 84.5294 344.692 85.3206 343.277 86.5139C341.862 87.7072 340.794 89.2587 340.183 91.0062C339.573 92.7537 339.443 94.6331 339.808 96.4479V96.4479C341.739 106.089 346.682 114.867 353.926 121.516C361.169 128.165 370.337 132.341 380.108 133.441V133.441C384.043 133.859 387.811 135.261 391.061 137.518C394.312 139.776 396.942 142.816 398.708 146.358L465.254 279.245L485.921 257.751Z" stroke="#45413C" stroke-width="8" stroke-linecap="round" stroke-linejoin="round"/>
<path d="M19.9566 248.243H46.72V284.41H19.9566C17.4627 284.41 15.0709 283.419 13.3075 281.656C11.544 279.892 10.5533 277.5 10.5533 275.007V257.75C10.5396 256.506 10.7728 255.272 11.2392 254.12C11.7057 252.967 12.3961 251.918 13.2707 251.034C14.1452 250.15 15.1865 249.448 16.3341 248.969C17.4818 248.49 18.713 248.243 19.9566 248.243V248.243Z" fill="#E8F4FA" stroke="#45413C" stroke-width="8" stroke-linecap="round" stroke-linejoin="round"/>
<path d="M476.483 284.511H449.719V248.344H476.483C478.977 248.344 481.369 249.335 483.132 251.098C484.895 252.862 485.886 255.253 485.886 257.747V275.004C485.9 276.248 485.667 277.481 485.2 278.634C484.734 279.787 484.043 280.836 483.169 281.72C482.294 282.604 481.253 283.306 480.105 283.785C478.958 284.264 477.726 284.511 476.483 284.511V284.511Z" fill="#E8F4FA" stroke="#45413C" stroke-width="8" stroke-linecap="round" stroke-linejoin="round"/>
<path d="M41.554 279.243C41.554 279.243 31.2207 279.967 31.2207 263.743C31.2207 247.52 42.794 232.743 134.554 232.743C226.314 232.743 232.721 254.133 232.721 268.91C232.721 283.686 222.387 279.243 222.387 279.243H41.554Z" fill="#87898C"/>
<path d="M454.887 279.243C454.887 279.243 465.221 279.967 465.221 263.743C465.221 247.52 453.647 232.743 361.887 232.743C270.127 232.743 263.721 254.133 263.721 268.91C263.721 283.686 274.054 279.243 274.054 279.243H454.887Z" fill="#87898C"/>
<path d="M134.567 250.113C206.9 250.113 226.327 263.546 231.08 276.463C232.344 274.01 232.915 271.26 232.734 268.507C232.734 253.73 226.327 232.34 134.567 232.34C42.8069 232.34 31.2336 247.22 31.2336 263.34C31.1295 266.478 31.6566 269.606 32.7836 272.537C38.1569 260.447 59.5469 250.113 134.567 250.113Z" fill="#BDBEC0"/>
<path d="M361.92 250.113C436.94 250.113 458.33 260.447 463.704 272.537C464.831 269.606 465.358 266.478 465.254 263.34C465.254 247.22 453.68 232.34 361.92 232.34C270.16 232.34 263.754 253.73 263.754 268.507C263.572 271.26 264.144 274.01 265.407 276.463C270.16 263.96 289.587 250.113 361.92 250.113Z" fill="#BDBEC0"/>
<path d="M41.554 279.243C41.554 279.243 31.2207 279.967 31.2207 263.743C31.2207 247.52 42.794 232.743 134.554 232.743C226.314 232.743 232.721 254.133 232.721 268.91C232.721 283.686 222.387 279.243 222.387 279.243H41.554Z" stroke="#45413C" stroke-width="8" stroke-linecap="round" stroke-linejoin="round"/>
<path d="M454.887 279.243C454.887 279.243 465.221 279.967 465.221 263.743C465.221 247.52 453.647 232.743 361.887 232.743C270.127 232.743 263.721 254.133 263.721 268.91C263.721 283.686 274.054 279.243 274.054 279.243H454.887Z" stroke="#45413C" stroke-width="8" stroke-linecap="round" stroke-linejoin="round"/>
<path d="M41.5722 279.247C70.1914 271.548 99.7809 268.067 129.405 268.913C160.717 268.43 191.964 271.902 222.406 279.247C222.406 279.247 225.816 380.927 196.572 398.08C167.329 415.233 88.0722 418.747 62.2388 387.747C36.4055 356.747 41.5722 279.247 41.5722 279.247Z" fill="#00B8F0"/>
<path d="M195.746 273.873C173.791 270.532 151.613 268.873 129.405 268.913C99.7809 268.067 70.1914 271.548 41.5722 279.247C41.5722 279.247 36.4055 356.747 62.2388 387.747C72.5722 400.767 93.2388 407.69 115.249 410.067L195.746 273.873Z" fill="#4ACFFF"/>
<path d="M41.5722 279.247C70.1914 271.548 99.7809 268.067 129.405 268.913C160.717 268.43 191.964 271.902 222.406 279.247C222.406 279.247 225.816 380.927 196.572 398.08C167.329 415.233 88.0722 418.747 62.2388 387.747C36.4055 356.747 41.5722 279.247 41.5722 279.247Z" stroke="#45413C" stroke-width="8" stroke-linecap="round" stroke-linejoin="round"/>
<path d="M454.848 279.247C426.229 271.548 396.639 268.067 367.015 268.913C335.703 268.43 304.456 271.902 274.015 279.247C274.015 279.247 270.605 380.927 299.848 398.08C329.091 415.233 408.348 418.747 434.181 387.747C460.015 356.747 454.848 279.247 454.848 279.247Z" fill="#00B8F0"/>
<path d="M421.368 272.427C403.348 270.054 385.19 268.88 367.015 268.914C335.703 268.43 304.456 271.902 274.015 279.247C274.015 279.247 270.605 380.927 299.848 398.08C312.394 404.555 326.083 408.521 340.148 409.757L421.368 272.427Z" fill="#4ACFFF"/>
<path d="M454.848 279.247C426.229 271.548 396.639 268.067 367.015 268.913C335.703 268.43 304.456 271.902 274.015 279.247C274.015 279.247 270.605 380.927 299.848 398.08C329.091 415.233 408.348 418.747 434.181 387.747C460.015 356.747 454.848 279.247 454.848 279.247Z" stroke="#45413C" stroke-width="8" stroke-linecap="round" stroke-linejoin="round"/>
</svg>
