<svg width="496" height="496" viewBox="0 0 496 496" fill="none" xmlns="http://www.w3.org/2000/svg">
<rect width="496" height="496" fill="white"/>
<path d="M256.25 281H239.75L235.5 151H260.5L256.25 281ZM248 328C244.333 328 241.083 326.667 238.25 324C235.583 321.167 234.25 317.917 234.25 314.25C234.25 310.417 235.583 307.167 238.25 304.5C241.083 301.833 244.333 300.5 248 300.5C251.833 300.5 255.083 301.833 257.75 304.5C260.417 307.167 261.75 310.417 261.75 314.25C261.75 317.917 260.417 321.167 257.75 324C255.083 326.667 251.833 328 248 328Z" fill="black"/>
</svg>
