<svg width="496" height="496" viewBox="0 0 496 496" fill="none" xmlns="http://www.w3.org/2000/svg">
<path d="M126.585 13.0962C118.155 13.1278 109.76 14.1685 101.578 16.1962C82.6681 20.5362 57.9715 27.7695 35.5481 23.4295C34.6526 29.2021 34.9518 35.0971 36.4271 40.7494C37.9024 46.4017 40.5224 51.6909 44.1248 56.2895C32.3778 73.0642 26.0984 93.0575 26.1448 113.536V166.029H227.335V113.536C227.335 100.32 224.727 87.2339 219.66 75.0277C214.593 62.8215 207.167 51.7353 197.807 42.4045C188.447 33.0738 177.338 25.6819 165.117 20.6526C152.895 15.6232 139.801 13.0554 126.585 13.0962V13.0962Z" fill="#A86C4D"/>
<path d="M126.585 13.0962C118.156 13.1278 109.761 14.1685 101.579 16.1962C82.6687 20.5362 57.972 27.7695 35.5487 23.4295C34.0356 34.2599 36.495 45.2719 42.472 54.4295C62.4789 54.7985 82.4208 52.0443 101.579 46.2662C109.761 44.2385 118.156 43.1978 126.585 43.1662C139.784 43.1254 152.861 45.6864 165.07 50.7029C177.278 55.7193 188.378 63.0927 197.735 72.4016C207.091 81.7104 214.522 92.7723 219.601 104.955C224.68 117.137 227.308 130.201 227.335 143.4V113.536C227.335 100.32 224.727 87.2339 219.66 75.0277C214.593 62.8215 207.167 51.7353 197.808 42.4046C188.448 33.0738 177.339 25.6819 165.117 20.6526C152.896 15.6232 139.801 13.0554 126.585 13.0962V13.0962Z" fill="#DE926A"/>
<path d="M126.585 13.0962C118.155 13.1278 109.76 14.1685 101.578 16.1962C82.6681 20.5362 57.9715 27.7695 35.5481 23.4295C34.6526 29.2021 34.9518 35.0971 36.4271 40.7494C37.9024 46.4017 40.5224 51.6909 44.1248 56.2895C32.3778 73.0642 26.0984 93.0575 26.1448 113.536V166.029H227.335V113.536C227.335 100.32 224.727 87.2339 219.66 75.0277C214.593 62.8215 207.167 51.7353 197.807 42.4045C188.447 33.0738 177.338 25.6819 165.117 20.6526C152.895 15.6232 139.801 13.0554 126.585 13.0962V13.0962Z" stroke="#45413C" stroke-width="7" stroke-linecap="round" stroke-linejoin="round"/>
<path d="M126.585 261.613C142.529 261.613 158.318 264.754 173.049 270.856C187.78 276.957 201.165 285.901 212.439 297.175C223.714 308.45 232.657 321.835 238.759 336.566C244.861 351.297 248.001 367.085 248.001 383.03V489.05H5.16797V383.03C5.16797 367.085 8.3085 351.297 14.4103 336.566C20.512 321.835 29.4555 308.45 40.7301 297.175C63.5001 274.405 94.3829 261.613 126.585 261.613V261.613Z" fill="#00B8F0"/>
<path d="M126.585 261.613C94.3829 261.613 63.5001 274.405 40.7301 297.175C17.96 319.945 5.16797 350.828 5.16797 383.03V420.127C5.16797 387.925 17.96 357.042 40.7301 334.272C63.5001 311.502 94.3829 298.71 126.585 298.71C158.786 298.71 189.669 311.502 212.439 334.272C235.209 357.042 248.001 387.925 248.001 420.127V383.03C248.001 367.085 244.861 351.297 238.759 336.566C232.657 321.835 223.714 308.45 212.439 297.175C201.165 285.901 187.78 276.957 173.049 270.856C158.318 264.754 142.529 261.613 126.585 261.613V261.613Z" fill="#009FD9"/>
<path d="M126.585 261.613C142.529 261.613 158.318 264.754 173.049 270.856C187.78 276.957 201.165 285.901 212.439 297.175C223.714 308.45 232.657 321.835 238.759 336.566C244.861 351.297 248.001 367.085 248.001 383.03V489.05H5.16797V383.03C5.16797 367.085 8.3085 351.297 14.4103 336.566C20.512 321.835 29.4555 308.45 40.7301 297.175C63.5001 274.405 94.3829 261.613 126.585 261.613V261.613Z" stroke="#45413C" stroke-width="7" stroke-linecap="round" stroke-linejoin="round"/>
<path d="M100.543 220.177H152.52V301.293H100.543V220.177Z" fill="#FFCEBF"/>
<path d="M100.543 220.177H152.52V280.317H100.543V220.177Z" fill="#FFB59E"/>
<path d="M100.543 220.177H152.52V301.293H100.543V220.177Z" stroke="#45413C" stroke-width="7" stroke-linecap="round" stroke-linejoin="round"/>
<path d="M237.668 156.937C236.795 152.508 234.39 148.527 230.876 145.693C227.362 142.858 222.962 141.352 218.448 141.437C214.118 141.437 209.965 139.717 206.903 136.655C203.841 133.593 202.121 129.441 202.121 125.11V99.6905C202.168 95.4027 200.78 91.2223 198.177 87.8145C195.574 84.4067 191.907 81.9671 187.758 80.8838C168.314 88.6434 147.515 92.4377 126.584 92.0438C105.653 92.4377 84.8546 88.6434 65.411 80.8838C61.3774 82.0819 57.8485 84.5707 55.3658 87.968C52.8832 91.3653 51.584 95.4835 51.6677 99.6905V125.11C51.6677 127.254 51.2454 129.378 50.4249 131.358C49.6044 133.339 48.4018 135.139 46.8857 136.655C45.3696 138.171 43.5698 139.374 41.589 140.194C39.6081 141.015 37.4851 141.437 35.341 141.437C30.8271 141.352 26.4272 142.858 22.9129 145.693C19.3985 148.527 16.994 152.508 16.121 156.937C15.6692 159.595 15.8038 162.32 16.5155 164.92C17.2272 167.52 18.4987 169.934 20.2411 171.991C21.9834 174.048 24.1545 175.7 26.6022 176.83C29.0498 177.96 31.715 178.542 34.411 178.534H35.5477C39.3834 200.025 50.6576 219.483 67.3959 233.498C84.1342 247.514 105.27 255.194 127.101 255.194C148.932 255.194 170.068 247.514 186.806 233.498C203.544 219.483 214.819 200.025 218.654 178.534H219.791C222.452 178.482 225.071 177.857 227.468 176.701C229.865 175.545 231.985 173.885 233.682 171.835C235.379 169.785 236.614 167.392 237.301 164.821C237.989 162.25 238.114 159.561 237.668 156.937V156.937Z" fill="#FFCEBF" stroke="#45413C" stroke-width="7" stroke-linecap="round" stroke-linejoin="round"/>
<path d="M70.9922 156.214C71.0194 158.306 71.8696 160.303 73.3589 161.773C74.8481 163.243 76.8564 164.067 78.9489 164.067C81.0317 164.067 83.0292 163.24 84.502 161.767C85.9748 160.294 86.8022 158.297 86.8022 156.214C86.8022 154.131 85.9748 152.133 84.502 150.661C83.0292 149.188 81.0317 148.36 78.9489 148.36C76.8564 148.36 74.8481 149.184 73.3589 150.654C71.8696 152.124 71.0194 154.121 70.9922 156.214V156.214Z" fill="#45413C" stroke="#45413C" stroke-width="7" stroke-linecap="round" stroke-linejoin="round"/>
<path d="M182.177 156.214C182.15 158.306 181.3 160.303 179.811 161.773C178.321 163.243 176.313 164.067 174.221 164.067C172.138 164.067 170.14 163.24 168.667 161.767C167.195 160.294 166.367 158.297 166.367 156.214C166.367 154.131 167.195 152.133 168.667 150.661C170.14 149.188 172.138 148.36 174.221 148.36C176.313 148.36 178.321 149.184 179.811 150.654C181.3 152.124 182.15 154.121 182.177 156.214V156.214Z" fill="#45413C" stroke="#45413C" stroke-width="7" stroke-linecap="round" stroke-linejoin="round"/>
<path d="M97.5461 204.16C96.8935 204.181 96.2525 204.339 95.665 204.624C95.0775 204.909 94.5565 205.314 94.1361 205.813C93.7098 206.304 93.3964 206.882 93.2178 207.507C93.0393 208.132 93 208.788 93.1027 209.43C94.4909 217.301 98.6078 224.432 104.731 229.569C110.853 234.706 118.59 237.522 126.583 237.522C134.575 237.522 142.312 234.706 148.435 229.569C154.558 224.432 158.675 217.301 160.063 209.43C160.165 208.788 160.126 208.132 159.948 207.507C159.769 206.882 159.456 206.304 159.029 205.813C158.609 205.314 158.088 204.909 157.5 204.624C156.913 204.339 156.272 204.181 155.619 204.16H97.5461Z" fill="#FF6242"/>
<path d="M126.583 237.744C135.454 237.754 143.979 234.306 150.35 228.134C143.972 221.972 135.451 218.527 126.583 218.527C117.715 218.527 109.194 221.972 102.816 228.134C109.187 234.306 117.712 237.754 126.583 237.744V237.744Z" fill="#FFA694"/>
<path d="M97.5461 204.16C96.8935 204.181 96.2525 204.339 95.665 204.624C95.0775 204.909 94.5565 205.314 94.1361 205.813C93.7098 206.304 93.3964 206.882 93.2178 207.507C93.0393 208.132 93 208.788 93.1027 209.43C94.4909 217.301 98.6078 224.432 104.731 229.569C110.853 234.706 118.59 237.522 126.583 237.522C134.575 237.522 142.312 234.706 148.435 229.569C154.558 224.432 158.675 217.301 160.063 209.43C160.165 208.788 160.126 208.132 159.948 207.507C159.769 206.882 159.456 206.304 159.029 205.813C158.609 205.314 158.088 204.909 157.5 204.624C156.913 204.339 156.272 204.181 155.619 204.16H97.5461Z" stroke="#45413C" stroke-width="7" stroke-linecap="round" stroke-linejoin="round"/>
<path d="M55.5938 489.05V377.76" stroke="#45413C" stroke-width="7" stroke-linecap="round" stroke-linejoin="round"/>
<path d="M55.5938 189.797C55.5938 191.414 56.6715 192.965 58.59 194.108C60.5085 195.251 63.1106 195.894 65.8237 195.894C68.5369 195.894 71.139 195.251 73.0575 194.108C74.976 192.965 76.0538 191.414 76.0538 189.797C76.0538 188.18 74.976 186.629 73.0575 185.486C71.139 184.343 68.5369 183.7 65.8237 183.7C63.1106 183.7 60.5085 184.343 58.59 185.486C56.6715 186.629 55.5938 188.18 55.5938 189.797Z" fill="#FFB59E"/>
<path d="M177.113 189.797C177.113 191.414 178.191 192.965 180.11 194.108C182.028 195.251 184.63 195.894 187.343 195.894C190.056 195.894 192.658 195.251 194.577 194.108C196.495 192.965 197.573 191.414 197.573 189.797C197.573 188.18 196.495 186.629 194.577 185.486C192.658 184.343 190.056 183.7 187.343 183.7C184.63 183.7 182.028 184.343 180.11 185.486C178.191 186.629 177.113 188.18 177.113 189.797V189.797Z" fill="#FFB59E"/>
<path d="M369.416 7C398.905 7 427.185 18.7143 448.037 39.5658C468.888 60.4174 480.603 88.6981 480.603 118.187V262.853C480.589 265.357 479.837 267.8 478.44 269.878C477.042 271.955 475.063 273.573 472.749 274.53V274.53C406.421 301.091 332.411 301.091 266.083 274.53V274.53C263.852 273.586 261.937 272.025 260.564 270.029C259.191 268.034 258.417 265.687 258.333 263.267V118.6C258.278 103.973 261.111 89.4784 266.668 75.9476C272.224 62.4169 280.397 50.1155 290.716 39.7484C301.035 29.3813 313.298 21.1522 326.803 15.5327C340.308 9.91309 354.789 7.01349 369.416 7V7Z" fill="#A86C4D"/>
<path d="M369.419 7C339.949 7.02739 311.695 18.7538 290.865 39.6023C270.036 60.4509 258.336 88.716 258.336 118.187V150.943C258.309 136.333 261.161 121.861 266.73 108.354C272.299 94.8475 280.476 82.5706 290.792 72.2254C301.109 61.8802 313.363 53.6696 326.854 48.063C340.345 42.4563 354.81 39.5635 369.419 39.55V39.55C384.038 39.55 398.513 42.4327 412.017 48.0333C425.52 53.6339 437.786 61.8423 448.113 72.1888C458.441 82.5354 466.626 94.8169 472.202 108.331C477.777 121.844 480.633 136.325 480.606 150.943V118.187C480.606 88.6981 468.892 60.4174 448.04 39.5658C427.189 18.7143 398.908 7 369.419 7V7Z" fill="#DE926A"/>
<path d="M369.416 7C398.905 7 427.185 18.7143 448.037 39.5658C468.888 60.4174 480.603 88.6981 480.603 118.187V262.853C480.589 265.357 479.837 267.8 478.44 269.878C477.042 271.955 475.063 273.573 472.749 274.53V274.53C406.421 301.091 332.411 301.091 266.083 274.53V274.53C263.852 273.586 261.937 272.025 260.564 270.029C259.191 268.034 258.417 265.687 258.333 263.267V118.6C258.278 103.973 261.111 89.4784 266.668 75.9476C272.224 62.4169 280.397 50.1155 290.716 39.7484C301.035 29.3813 313.298 21.1522 326.803 15.5327C340.308 9.91309 354.789 7.01349 369.416 7V7Z" stroke="#45413C" stroke-width="7" stroke-linecap="round" stroke-linejoin="round"/>
<path d="M369.417 261.613C385.361 261.613 401.15 264.754 415.881 270.856C430.612 276.957 443.997 285.901 455.271 297.175C466.546 308.45 475.489 321.835 481.591 336.566C487.693 351.297 490.833 367.085 490.833 383.03V489.05H248V383.03C248 367.085 251.141 351.297 257.242 336.566C263.344 321.835 272.288 308.45 283.562 297.175C306.332 274.405 337.215 261.613 369.417 261.613V261.613Z" fill="#FF87AF"/>
<path d="M369.417 261.613C337.215 261.613 306.332 274.405 283.562 297.175C260.792 319.945 248 350.828 248 383.03V420.127C248 387.925 260.792 357.042 283.562 334.272C306.332 311.502 337.215 298.71 369.417 298.71C401.618 298.71 432.501 311.502 455.271 334.272C478.041 357.042 490.833 387.925 490.833 420.127V383.03C490.833 367.085 487.693 351.297 481.591 336.566C475.489 321.835 466.546 308.45 455.271 297.175C443.997 285.901 430.612 276.957 415.881 270.856C401.15 264.754 385.361 261.613 369.417 261.613V261.613Z" fill="#FF6196"/>
<path d="M369.417 261.613C385.361 261.613 401.15 264.754 415.881 270.856C430.612 276.957 443.997 285.901 455.271 297.175C466.546 308.45 475.489 321.835 481.591 336.566C487.693 351.297 490.833 367.085 490.833 383.03V489.05H248V383.03C248 367.085 251.141 351.297 257.242 336.566C263.344 321.835 272.288 308.45 283.562 297.175C306.332 274.405 337.215 261.613 369.417 261.613V261.613Z" stroke="#45413C" stroke-width="7" stroke-linecap="round" stroke-linejoin="round"/>
<path d="M343.379 220.177H395.356V301.293H343.379V220.177Z" fill="#FFCEBF" stroke="#45413C" stroke-width="7" stroke-linecap="round" stroke-linejoin="round"/>
<path d="M462.106 141.437C449.171 137.732 437.235 131.165 427.182 122.221C417.129 113.277 409.218 102.187 404.033 89.7701L397.73 74.5801C373.086 107.777 336.732 130.35 296.05 137.717L276.726 141.127C272.046 141.476 267.671 143.582 264.479 147.022C261.286 150.462 259.512 154.982 259.512 159.675C259.512 164.368 261.286 168.888 264.479 172.328C267.671 175.768 272.046 177.874 276.726 178.223H277.863C281.699 199.715 292.973 219.172 309.711 233.188C326.45 247.203 347.585 254.884 369.416 254.884C391.248 254.884 412.383 247.203 429.121 233.188C445.86 219.172 457.134 199.715 460.97 178.223H462.106C466.786 177.874 471.161 175.768 474.354 172.328C477.547 168.888 479.321 164.368 479.321 159.675C479.321 154.982 477.547 150.462 474.354 147.022C471.161 143.582 466.786 141.476 462.106 141.127V141.437Z" fill="#FFCEBF" stroke="#45413C" stroke-width="7" stroke-linecap="round" stroke-linejoin="round"/>
<path d="M313.824 156.214C313.851 158.306 314.702 160.303 316.191 161.773C317.68 163.243 319.688 164.067 321.781 164.067C323.864 164.067 325.861 163.24 327.334 161.767C328.807 160.294 329.634 158.297 329.634 156.214C329.634 154.131 328.807 152.133 327.334 150.661C325.861 149.188 323.864 148.36 321.781 148.36C319.688 148.36 317.68 149.184 316.191 150.654C314.702 152.124 313.851 154.121 313.824 156.214V156.214Z" fill="#45413C" stroke="#45413C" stroke-width="7" stroke-linecap="round" stroke-linejoin="round"/>
<path d="M425.013 156.214C424.986 158.306 424.136 160.303 422.646 161.773C421.157 163.243 419.149 164.067 417.056 164.067C414.974 164.067 412.976 163.24 411.503 161.767C410.031 160.294 409.203 158.297 409.203 156.214C409.203 154.131 410.031 152.133 411.503 150.661C412.976 149.188 414.974 148.36 417.056 148.36C419.149 148.36 421.157 149.184 422.646 150.654C424.136 152.124 424.986 154.121 425.013 156.214V156.214Z" fill="#45413C" stroke="#45413C" stroke-width="7" stroke-linecap="round" stroke-linejoin="round"/>
<path d="M340.382 204.16C339.729 204.181 339.088 204.339 338.501 204.624C337.913 204.909 337.392 205.314 336.972 205.813C336.546 206.304 336.232 206.882 336.054 207.507C335.875 208.132 335.836 208.788 335.939 209.43C337.327 217.301 341.444 224.432 347.566 229.569C353.689 234.706 361.426 237.522 369.419 237.522C377.411 237.522 385.148 234.706 391.271 229.569C397.394 224.432 401.511 217.301 402.899 209.43C403.001 208.788 402.962 208.132 402.784 207.507C402.605 206.882 402.292 206.304 401.865 205.813C401.445 205.314 400.924 204.909 400.336 204.624C399.749 204.339 399.108 204.181 398.455 204.16H340.382Z" fill="#FF6242"/>
<path d="M369.419 237.744C378.29 237.754 386.815 234.306 393.186 228.134C386.808 221.972 378.287 218.527 369.419 218.527C360.551 218.527 352.03 221.972 345.652 228.134C352.023 234.306 360.548 237.754 369.419 237.744V237.744Z" fill="#FFA694"/>
<path d="M340.382 204.16C339.729 204.181 339.088 204.339 338.501 204.624C337.913 204.909 337.392 205.314 336.972 205.813C336.546 206.304 336.232 206.882 336.054 207.507C335.875 208.132 335.836 208.788 335.939 209.43C337.327 217.301 341.444 224.432 347.566 229.569C353.689 234.706 361.426 237.522 369.419 237.522C377.411 237.522 385.148 234.706 391.271 229.569C397.394 224.432 401.511 217.301 402.899 209.43C403.001 208.788 402.962 208.132 402.784 207.507C402.605 206.882 402.292 206.304 401.865 205.813C401.445 205.314 400.924 204.909 400.336 204.624C399.749 204.339 399.108 204.181 398.455 204.16H340.382Z" stroke="#45413C" stroke-width="7" stroke-linecap="round" stroke-linejoin="round"/>
<path d="M440.406 489.05V377.76" stroke="#45413C" stroke-width="7" stroke-linecap="round" stroke-linejoin="round"/>
<path d="M298.43 189.797C298.43 191.414 299.507 192.965 301.426 194.108C303.344 195.251 305.947 195.894 308.66 195.894C311.373 195.894 313.975 195.251 315.893 194.108C317.812 192.965 318.89 191.414 318.89 189.797C318.89 188.18 317.812 186.629 315.893 185.486C313.975 184.343 311.373 183.7 308.66 183.7C305.947 183.7 303.344 184.343 301.426 185.486C299.507 186.629 298.43 188.18 298.43 189.797V189.797Z" fill="#FFB59E"/>
<path d="M419.949 189.797C419.949 191.414 421.027 192.965 422.946 194.108C424.864 195.251 427.466 195.894 430.179 195.894C432.892 195.894 435.494 195.251 437.413 194.108C439.331 192.965 440.409 191.414 440.409 189.797C440.409 188.18 439.331 186.629 437.413 185.486C435.494 184.343 432.892 183.7 430.179 183.7C427.466 183.7 424.864 184.343 422.946 185.486C421.027 186.629 419.949 188.18 419.949 189.797Z" fill="#FFB59E"/>
<path d="M248.003 489.05C241.007 470.566 228.549 454.65 212.288 443.417C196.026 432.185 176.73 426.169 156.966 426.169C137.203 426.169 117.907 432.185 101.645 443.417C85.3835 454.65 72.9262 470.566 65.9297 489.05H248.003Z" fill="#D91A1E"/>
<path d="M156.966 454.64C171.096 454.608 185.061 457.673 197.879 463.617C210.697 469.562 222.057 478.243 231.16 489.05H248.003C241.007 470.566 228.549 454.65 212.288 443.417C196.026 432.185 176.73 426.169 156.966 426.169C137.203 426.169 117.907 432.185 101.645 443.417C85.3835 454.65 72.9262 470.566 65.9297 489.05H82.6697C91.8021 478.252 103.182 469.578 116.015 463.634C128.848 457.691 142.824 454.621 156.966 454.64Z" fill="#C8161A"/>
<path d="M248.003 489.05C241.007 470.566 228.549 454.65 212.288 443.417C196.026 432.185 176.73 426.169 156.966 426.169C137.203 426.169 117.907 432.185 101.645 443.417C85.3835 454.65 72.9262 470.566 65.9297 489.05H248.003Z" stroke="#45413C" stroke-width="7" stroke-linecap="round" stroke-linejoin="round"/>
<path d="M137.746 393.156H176.186V459.29H137.746V393.156Z" fill="#FFCEBF"/>
<path d="M137.746 393.156H176.186V441.103H137.746V393.156Z" fill="#FFB59E"/>
<path d="M137.746 393.156H176.186V459.29H137.746V393.156Z" stroke="#45413C" stroke-width="7" stroke-linecap="round" stroke-linejoin="round"/>
<path d="M156.965 243.84C150.656 243.84 144.371 244.639 138.262 246.217C122.358 251.291 105.596 253.118 88.972 251.59C88.3179 255.886 88.5391 260.27 89.6223 264.479C90.7055 268.687 92.6284 272.633 95.2753 276.08C86.6495 288.568 82.0026 303.373 81.9453 318.55V357.816H231.985V318.55C231.903 298.707 223.963 279.705 209.903 265.703C195.843 251.701 176.808 243.84 156.965 243.84V243.84Z" fill="#A86C4D"/>
<path d="M156.966 243.84C150.657 243.84 144.372 244.639 138.263 246.217C122.359 251.291 105.597 253.118 88.973 251.59C88.3272 255.846 88.5432 260.189 89.6083 264.361C90.6733 268.532 92.5657 272.447 95.173 275.873C109.757 275.958 124.275 273.904 138.263 269.777C149.321 266.93 160.882 266.645 172.067 268.943C183.251 271.241 193.763 276.062 202.802 283.038C211.842 290.014 219.169 298.962 224.227 309.199C229.284 319.435 231.938 330.692 231.986 342.11V318.55C231.904 298.707 223.964 279.705 209.904 265.703C195.844 251.701 176.809 243.84 156.966 243.84V243.84Z" fill="#DE926A"/>
<path d="M156.965 243.84C150.656 243.84 144.371 244.639 138.262 246.217C122.358 251.291 105.596 253.118 88.972 251.59C88.3179 255.886 88.5391 260.27 89.6223 264.479C90.7055 268.687 92.6284 272.633 95.2753 276.08C86.6495 288.568 82.0026 303.373 81.9453 318.55V357.816H231.985V318.55C231.903 298.707 223.963 279.705 209.903 265.703C195.843 251.701 176.808 243.84 156.965 243.84V243.84Z" stroke="#45413C" stroke-width="7" stroke-linecap="round" stroke-linejoin="round"/>
<path d="M84.5282 340.56C81.8437 341.3 79.4347 342.81 77.5984 344.904C75.7621 346.997 74.5789 349.582 74.1948 352.34C74.0381 354.257 74.2794 356.185 74.9034 358.004C75.5274 359.823 76.5207 361.493 77.821 362.91C79.1212 364.326 80.7004 365.459 82.4592 366.236C84.218 367.014 86.1186 367.419 88.0415 367.427H88.8682C91.2642 383.859 99.4953 398.88 112.056 409.742C124.617 420.605 140.669 426.583 157.275 426.583C173.881 426.583 189.932 420.605 202.493 409.742C215.054 398.88 223.286 383.859 225.682 367.427H226.508C229.983 367.667 233.416 366.559 236.095 364.333C238.773 362.107 240.49 358.934 240.89 355.474C241.289 352.014 240.339 348.534 238.238 345.756C236.137 342.978 233.046 341.117 229.608 340.56C198.608 334.463 181.662 301.707 181.248 300.983C180.422 301.913 155.002 341.49 84.5282 340.56Z" fill="#FFCEBF" stroke="#45413C" stroke-width="7" stroke-linecap="round" stroke-linejoin="round"/>
<path d="M120.59 356.37C120.59 357.74 121.134 359.054 122.103 360.023C123.072 360.992 124.386 361.536 125.757 361.536C127.127 361.536 128.441 360.992 129.41 360.023C130.379 359.054 130.923 357.74 130.923 356.37C130.923 355 130.379 353.685 129.41 352.716C128.441 351.747 127.127 351.203 125.757 351.203C124.386 351.203 123.072 351.747 122.103 352.716C121.134 353.685 120.59 355 120.59 356.37Z" fill="#45413C" stroke="#45413C" stroke-width="7" stroke-linecap="round" stroke-linejoin="round"/>
<path d="M193.337 356.37C193.311 357.732 192.758 359.031 191.795 359.994C190.831 360.957 189.533 361.51 188.171 361.536C186.8 361.536 185.486 360.992 184.517 360.023C183.548 359.054 183.004 357.74 183.004 356.37C183.004 355 183.548 353.685 184.517 352.716C185.486 351.747 186.8 351.203 188.171 351.203C189.541 351.203 190.855 351.747 191.824 352.716C192.793 353.685 193.337 355 193.337 356.37Z" fill="#45413C" stroke="#45413C" stroke-width="7" stroke-linecap="round" stroke-linejoin="round"/>
<path d="M105.297 378.277C105.297 379.346 106.005 380.371 107.264 381.127C108.524 381.882 110.232 382.307 112.014 382.307C113.795 382.307 115.503 381.882 116.763 381.127C118.023 380.371 118.73 379.346 118.73 378.277C118.73 377.208 118.023 376.183 116.763 375.427C115.503 374.672 113.795 374.247 112.014 374.247C110.232 374.247 108.524 374.672 107.264 375.427C106.005 376.183 105.297 377.208 105.297 378.277V378.277Z" fill="#FFB59E"/>
<path d="M195.094 378.277C195.094 379.346 195.801 380.371 197.061 381.127C198.321 381.882 200.029 382.307 201.81 382.307C203.592 382.307 205.3 381.882 206.56 381.127C207.819 380.371 208.527 379.346 208.527 378.277C208.527 377.208 207.819 376.183 206.56 375.427C205.3 374.672 203.592 374.247 201.81 374.247C200.029 374.247 198.321 374.672 197.061 375.427C195.801 376.183 195.094 377.208 195.094 378.277V378.277Z" fill="#FFB59E"/>
<path d="M139.5 397.394C144.363 401.474 150.635 403.478 156.963 402.974C163.291 403.478 169.564 401.474 174.427 397.394" stroke="#45413C" stroke-width="7" stroke-linecap="round" stroke-linejoin="round"/>
<path d="M237.047 423.64C243.641 417.665 249.255 410.691 253.684 402.973C261.95 388.713 281.48 385.51 289.54 398.22C296.464 409.173 292.33 422.503 274.04 429.22C267.895 431.431 261.296 432.079 254.838 431.105C248.381 430.131 242.266 427.565 237.047 423.64V423.64Z" fill="#A86C4D" stroke="#45413C" stroke-width="7" stroke-linecap="round" stroke-linejoin="round"/>
<path d="M441.131 423.64C434.488 417.685 428.837 410.708 424.391 402.973C416.124 388.713 396.594 385.51 388.638 398.22C381.714 409.173 385.744 422.503 404.034 429.22C410.198 431.422 416.811 432.064 423.284 431.091C429.756 430.117 435.887 427.557 441.131 423.64Z" fill="#A86C4D" stroke="#45413C" stroke-width="7" stroke-linecap="round" stroke-linejoin="round"/>
<path d="M430.073 489.05C423.077 470.566 410.62 454.65 394.358 443.417C378.096 432.185 358.801 426.169 339.037 426.169C319.273 426.169 299.977 432.185 283.715 443.417C267.454 454.65 254.996 470.566 248 489.05H430.073Z" fill="#401B97"/>
<path d="M339.037 454.64C353.179 454.621 367.155 457.691 379.988 463.634C392.821 469.578 404.201 478.252 413.333 489.05H430.073C423.077 470.566 410.62 454.65 394.358 443.417C378.096 432.185 358.801 426.169 339.037 426.169C319.273 426.169 299.977 432.185 283.715 443.417C267.454 454.65 254.996 470.566 248 489.05H264.843C273.946 478.243 285.306 469.562 298.124 463.617C310.942 457.673 324.907 454.608 339.037 454.64Z" fill="#21006E"/>
<path d="M430.073 489.05C423.077 470.566 410.62 454.65 394.358 443.417C378.096 432.185 358.801 426.169 339.037 426.169C319.273 426.169 299.977 432.185 283.715 443.417C267.454 454.65 254.996 470.566 248 489.05H430.073Z" stroke="#45413C" stroke-width="7" stroke-linecap="round" stroke-linejoin="round"/>
<path d="M319.816 393.156H358.256V459.29H319.816V393.156Z" fill="#FFCEBF"/>
<path d="M319.816 393.156H358.256V441.103H319.816V393.156Z" fill="#FFB59E"/>
<path d="M319.816 393.156H358.256V459.29H319.816V393.156Z" stroke="#45413C" stroke-width="7" stroke-linecap="round" stroke-linejoin="round"/>
<path d="M339.04 243.84C358.883 243.84 377.917 251.701 391.977 265.703C406.037 279.705 413.978 298.707 414.06 318.55V357.816H264.02V318.55C264.102 298.707 272.042 279.705 286.102 265.703C300.162 251.701 319.197 243.84 339.04 243.84V243.84Z" fill="#A86C4D"/>
<path d="M339.04 243.84C319.197 243.84 300.162 251.701 286.102 265.703C272.042 279.705 264.102 298.707 264.02 318.55V342.11C264.02 322.213 271.923 303.132 285.992 289.063C300.061 274.994 319.143 267.09 339.04 267.09C358.936 267.09 378.018 274.994 392.087 289.063C406.156 303.132 414.06 322.213 414.06 342.11V318.55C413.978 298.707 406.037 279.705 391.977 265.703C377.917 251.701 358.883 243.84 339.04 243.84V243.84Z" fill="#DE926A"/>
<path d="M339.04 243.84C319.197 243.84 300.162 251.701 286.102 265.703C272.042 279.705 264.102 298.707 264.02 318.55V357.816H414.06V318.55C413.978 298.707 406.037 279.705 391.977 265.703C377.917 251.701 358.883 243.84 339.04 243.84V243.84Z" stroke="#45413C" stroke-width="7" stroke-linecap="round" stroke-linejoin="round"/>
<path d="M422.117 352.34C421.733 349.582 420.55 346.997 418.713 344.904C416.877 342.81 414.468 341.3 411.784 340.56C397.252 341.258 382.811 337.932 370.048 330.949C357.286 323.967 346.698 313.597 339.45 300.983C332.211 313.605 321.625 323.981 308.861 330.965C296.096 337.949 281.65 341.27 267.117 340.56C263.679 341.117 260.588 342.978 258.487 345.756C256.386 348.534 255.436 352.014 255.835 355.474C256.235 358.934 257.952 362.107 260.63 364.333C263.309 366.559 266.742 367.667 270.217 367.427H271.044C273.44 383.859 281.671 398.88 294.232 409.742C306.793 420.605 322.844 426.583 339.45 426.583C356.056 426.583 372.108 420.605 384.669 409.742C397.23 398.88 405.461 383.859 407.857 367.427H408.684C410.571 367.363 412.427 366.917 414.137 366.115C415.847 365.313 417.376 364.172 418.632 362.761C419.888 361.351 420.845 359.7 421.444 357.908C422.043 356.117 422.272 354.223 422.117 352.34V352.34Z" fill="#FFCEBF" stroke="#45413C" stroke-width="7" stroke-linecap="round" stroke-linejoin="round"/>
<path d="M302.664 356.37C302.691 357.732 303.243 359.031 304.207 359.994C305.17 360.957 306.469 361.51 307.831 361.536C309.201 361.536 310.515 360.992 311.484 360.023C312.453 359.054 312.997 357.74 312.997 356.37C312.997 355 312.453 353.685 311.484 352.716C310.515 351.747 309.201 351.203 307.831 351.203C306.46 351.203 305.146 351.747 304.177 352.716C303.208 353.685 302.664 355 302.664 356.37Z" fill="#45413C" stroke="#45413C" stroke-width="7" stroke-linecap="round" stroke-linejoin="round"/>
<path d="M375.411 356.37C375.411 357.74 374.867 359.054 373.898 360.023C372.929 360.992 371.615 361.536 370.245 361.536C368.875 361.536 367.56 360.992 366.591 360.023C365.622 359.054 365.078 357.74 365.078 356.37C365.078 355 365.622 353.685 366.591 352.716C367.56 351.747 368.875 351.203 370.245 351.203C371.615 351.203 372.929 351.747 373.898 352.716C374.867 353.685 375.411 355 375.411 356.37Z" fill="#45413C" stroke="#45413C" stroke-width="7" stroke-linecap="round" stroke-linejoin="round"/>
<path d="M287.477 378.277C287.477 379.346 288.184 380.371 289.444 381.127C290.703 381.882 292.412 382.307 294.193 382.307C295.975 382.307 297.683 381.882 298.943 381.127C300.202 380.371 300.91 379.346 300.91 378.277C300.91 377.208 300.202 376.183 298.943 375.427C297.683 374.672 295.975 374.247 294.193 374.247C292.412 374.247 290.703 374.672 289.444 375.427C288.184 376.183 287.477 377.208 287.477 378.277V378.277Z" fill="#FFB59E"/>
<path d="M377.27 378.277C377.27 379.346 377.977 380.371 379.237 381.127C380.496 381.882 382.205 382.307 383.986 382.307C385.768 382.307 387.476 381.882 388.736 381.127C389.995 380.371 390.703 379.346 390.703 378.277C390.703 377.208 389.995 376.183 388.736 375.427C387.476 374.672 385.768 374.247 383.986 374.247C382.205 374.247 380.496 374.672 379.237 375.427C377.977 376.183 377.27 377.208 377.27 378.277Z" fill="#FFB59E"/>
<path d="M321.574 398.736C326.437 402.817 332.71 404.821 339.038 404.316C345.365 404.821 351.638 402.817 356.501 398.736" stroke="#45413C" stroke-width="7" stroke-linecap="round" stroke-linejoin="round"/>
</svg>
