<svg width="496" height="496" viewBox="0 0 496 496" fill="none" xmlns="http://www.w3.org/2000/svg">
<rect width="496" height="496" fill="white"/>
<path d="M247.75 148.5C259.25 148.5 269.583 151.083 278.75 156.25C288.083 161.417 295.333 168.417 300.5 177.25C305.833 186.083 308.5 195.833 308.5 206.5C308.5 213.167 307.25 220 304.75 227C302.25 233.833 299.333 239.75 296 244.75L244.25 326H219.75L261 261.75C256.667 263.417 251.667 264.25 246 264.25C235.167 264.25 225.167 261.667 216 256.5C207 251.333 199.833 244.333 194.5 235.5C189.333 226.667 186.75 217 186.75 206.5C186.75 195.833 189.417 186.083 194.75 177.25C200.083 168.417 207.333 161.417 216.5 156.25C225.833 151.083 236.25 148.5 247.75 148.5ZM247.75 243.5C254.917 243.5 261.417 241.917 267.25 238.75C273.083 235.417 277.667 230.917 281 225.25C284.333 219.583 286 213.333 286 206.5C286 199.5 284.333 193.167 281 187.5C277.667 181.833 273.083 177.417 267.25 174.25C261.417 170.917 254.917 169.25 247.75 169.25C240.417 169.25 233.833 170.917 228 174.25C222.167 177.417 217.583 181.833 214.25 187.5C210.917 193.167 209.25 199.5 209.25 206.5C209.25 213.333 210.917 219.583 214.25 225.25C217.583 230.917 222.167 235.417 228 238.75C233.833 241.917 240.417 243.5 247.75 243.5Z" fill="black"/>
</svg>
