<svg width="495" height="495" viewBox="0 0 495 495" fill="none" xmlns="http://www.w3.org/2000/svg">
<path d="M247.972 479.062C233.767 479.063 219.702 476.26 206.582 470.814C193.462 465.369 181.545 457.388 171.515 447.329C161.485 437.27 153.538 425.331 148.13 412.195C142.722 399.06 139.96 384.986 140 370.781V123.281C139.96 109.076 142.722 95.0027 148.13 81.8672C153.538 68.7317 161.485 56.7924 171.515 46.7335C181.545 36.6746 193.462 28.6938 206.582 23.2484C219.702 17.8029 233.767 14.9999 247.972 15V15C262.177 14.9999 276.243 17.8029 289.363 23.2484C302.483 28.6938 314.399 36.6746 324.43 46.7335C334.46 56.7924 342.406 68.7317 347.814 81.8672C353.222 95.0027 355.985 109.076 355.944 123.281V370.781C355.985 384.986 353.222 399.06 347.814 412.195C342.406 425.331 334.46 437.27 324.43 447.329C314.399 457.388 302.483 465.369 289.363 470.814C276.243 476.26 262.177 479.063 247.972 479.062V479.062Z" fill="#DAEDF7"/>
<path d="M247.972 15C233.767 14.9999 219.702 17.8029 206.582 23.2484C193.462 28.6938 181.545 36.6746 171.515 46.7335C161.485 56.7924 153.538 68.7317 148.13 81.8672C142.722 95.0027 139.96 109.076 140 123.281V150.197C140 121.561 151.376 94.0979 171.625 73.8492C191.873 53.6006 219.336 42.225 247.972 42.225C276.608 42.225 304.071 53.6006 324.32 73.8492C344.569 94.0979 355.944 121.561 355.944 150.197V123.281C355.985 109.076 353.222 95.0027 347.814 81.8672C342.406 68.7317 334.46 56.7924 324.43 46.7335C314.399 36.6746 302.483 28.6938 289.363 23.2484C276.243 17.8029 262.177 14.9999 247.972 15V15Z" fill="white"/>
<path d="M247.972 479.062C233.767 479.063 219.702 476.26 206.582 470.814C193.462 465.369 181.545 457.388 171.515 447.329C161.485 437.27 153.538 425.331 148.13 412.195C142.722 399.06 139.96 384.986 140 370.781V123.281C139.96 109.076 142.722 95.0027 148.13 81.8672C153.538 68.7317 161.485 56.7924 171.515 46.7335C181.545 36.6746 193.462 28.6938 206.582 23.2484C219.702 17.8029 233.767 14.9999 247.972 15V15C262.177 14.9999 276.243 17.8029 289.363 23.2484C302.483 28.6938 314.399 36.6746 324.43 46.7335C334.46 56.7924 342.406 68.7317 347.814 81.8672C353.222 95.0027 355.985 109.076 355.944 123.281V370.781C355.985 384.986 353.222 399.06 347.814 412.195C342.406 425.331 334.46 437.27 324.43 447.329C314.399 457.388 302.483 465.369 289.363 470.814C276.243 476.26 262.177 479.063 247.972 479.062V479.062Z" stroke="#45413C" stroke-width="7" stroke-linecap="round" stroke-linejoin="round"/>
<path d="M247.971 452.044C237.314 452.044 226.762 449.94 216.92 445.852C207.078 441.764 198.14 435.774 190.619 428.224C183.098 420.674 177.141 411.713 173.091 401.856C169.041 391.998 166.977 381.438 167.018 370.781V123.281C166.977 112.624 169.041 102.064 173.091 92.2066C177.141 82.3492 183.098 73.3884 190.619 65.8385C198.14 58.2885 207.078 52.2978 216.92 48.2102C226.762 44.1226 237.314 42.0185 247.971 42.0186V42.0186C258.628 42.0185 269.18 44.1226 279.022 48.2102C288.864 52.2978 297.802 58.2885 305.323 65.8385C312.845 73.3884 318.801 82.3492 322.851 92.2066C326.901 102.064 328.965 112.624 328.924 123.281V370.781C328.965 381.438 326.901 391.998 322.851 401.856C318.801 411.713 312.845 420.674 305.323 428.224C297.802 435.774 288.864 441.764 279.022 445.852C269.18 449.94 258.628 452.044 247.971 452.044V452.044Z" fill="#87898C"/>
<path d="M247.971 42.0186C237.314 42.0185 226.762 44.1226 216.92 48.2102C207.078 52.2978 198.14 58.2885 190.619 65.8385C183.098 73.3884 177.141 82.3492 173.091 92.2066C169.041 102.064 166.977 112.624 167.018 123.281V151.64C167.018 130.17 175.547 109.58 190.729 94.3979C205.91 79.2163 226.501 70.6873 247.971 70.6873C269.441 70.6873 290.032 79.2163 305.214 94.3979C320.395 109.58 328.924 130.17 328.924 151.64V123.281C328.965 112.624 326.901 102.064 322.851 92.2066C318.801 82.3492 312.845 73.3884 305.323 65.8385C297.802 58.2885 288.864 52.2978 279.022 48.2102C269.18 44.1226 258.628 42.0185 247.971 42.0186V42.0186Z" fill="#656769"/>
<path d="M247.971 452.044C237.314 452.044 226.762 449.94 216.92 445.852C207.078 441.764 198.14 435.774 190.619 428.224C183.098 420.674 177.141 411.713 173.091 401.856C169.041 391.998 166.977 381.438 167.018 370.781V123.281C166.977 112.624 169.041 102.064 173.091 92.2066C177.141 82.3492 183.098 73.3884 190.619 65.8385C198.14 58.2885 207.078 52.2978 216.92 48.2102C226.762 44.1226 237.314 42.0185 247.971 42.0186V42.0186C258.628 42.0185 269.18 44.1226 279.022 48.2102C288.864 52.2978 297.802 58.2885 305.323 65.8385C312.845 73.3884 318.801 82.3492 322.851 92.2066C326.901 102.064 328.965 112.624 328.924 123.281V370.781C328.965 381.438 326.901 391.998 322.851 401.856C318.801 411.713 312.845 420.674 305.323 428.224C297.802 435.774 288.864 441.764 279.022 445.852C269.18 449.94 258.628 452.044 247.971 452.044V452.044Z" stroke="#45413C" stroke-width="7" stroke-linecap="round" stroke-linejoin="round"/>
<path d="M201.564 252.188C201.564 264.495 206.454 276.299 215.157 285.002C223.859 293.705 235.663 298.594 247.971 298.594C260.278 298.594 272.082 293.705 280.785 285.002C289.488 276.299 294.377 264.495 294.377 252.188C294.377 239.88 289.488 228.076 280.785 219.373C272.082 210.67 260.278 205.781 247.971 205.781C235.663 205.781 223.859 210.67 215.157 219.373C206.454 228.076 201.564 239.88 201.564 252.188V252.188Z" fill="#FFE500"/>
<path d="M247.971 205.781C237.409 205.724 227.145 209.28 218.883 215.859C210.62 222.438 204.854 231.644 202.543 241.949C200.231 252.255 201.512 263.042 206.174 272.519C210.835 281.997 218.597 289.596 228.171 294.056L279.733 218.672C271.185 210.47 259.818 205.856 247.971 205.781Z" fill="#FFF48C"/>
<path d="M201.564 133.594C201.564 145.901 206.454 157.705 215.157 166.408C223.859 175.111 235.663 180 247.971 180C260.278 180 272.082 175.111 280.785 166.408C289.488 157.705 294.377 145.901 294.377 133.594C294.377 121.286 289.488 109.482 280.785 100.78C272.082 92.0767 260.278 87.1875 247.971 87.1875C235.663 87.1875 223.859 92.0767 215.157 100.78C206.454 109.482 201.564 121.286 201.564 133.594Z" fill="#6DD627"/>
<path d="M247.971 87.1872C237.409 87.1306 227.145 90.6867 218.883 97.2653C210.62 103.844 204.854 113.05 202.543 123.356C200.231 133.662 201.512 144.448 206.174 153.926C210.835 163.403 218.597 171.002 228.171 175.462L279.733 100.078C271.185 91.8758 259.818 87.2625 247.971 87.1872V87.1872Z" fill="#9CEB60"/>
<path d="M201.564 370.781C201.564 383.089 206.454 394.893 215.157 403.595C223.859 412.298 235.663 417.188 247.971 417.188C260.278 417.188 272.082 412.298 280.785 403.595C289.488 394.893 294.377 383.089 294.377 370.781C294.377 358.474 289.488 346.67 280.785 337.967C272.082 329.264 260.278 324.375 247.971 324.375C235.663 324.375 223.859 329.264 215.157 337.967C206.454 346.67 201.564 358.474 201.564 370.781Z" fill="#FF6242"/>
<path d="M247.971 324.375C237.409 324.318 227.145 327.874 218.883 334.453C210.62 341.031 204.854 350.237 202.543 360.543C200.231 370.849 201.512 381.636 206.174 391.113C210.835 400.591 218.597 408.19 228.171 412.65L279.733 337.265C271.185 329.063 259.818 324.45 247.971 324.375V324.375Z" fill="#FF866E"/>
<path d="M201.564 252.188C201.564 264.495 206.454 276.299 215.157 285.002C223.859 293.705 235.663 298.594 247.971 298.594C260.278 298.594 272.082 293.705 280.785 285.002C289.488 276.299 294.377 264.495 294.377 252.188C294.377 239.88 289.488 228.076 280.785 219.373C272.082 210.67 260.278 205.781 247.971 205.781C235.663 205.781 223.859 210.67 215.157 219.373C206.454 228.076 201.564 239.88 201.564 252.188V252.188Z" stroke="#45413C" stroke-width="7" stroke-linecap="round" stroke-linejoin="round"/>
<path d="M201.564 133.594C201.564 145.901 206.454 157.705 215.157 166.408C223.859 175.111 235.663 180 247.971 180C260.278 180 272.082 175.111 280.785 166.408C289.488 157.705 294.377 145.901 294.377 133.594C294.377 121.286 289.488 109.482 280.785 100.78C272.082 92.0767 260.278 87.1875 247.971 87.1875C235.663 87.1875 223.859 92.0767 215.157 100.78C206.454 109.482 201.564 121.286 201.564 133.594Z" stroke="#45413C" stroke-width="7" stroke-linecap="round" stroke-linejoin="round"/>
<path d="M201.564 370.781C201.564 383.089 206.454 394.893 215.157 403.595C223.859 412.298 235.663 417.188 247.971 417.188C260.278 417.188 272.082 412.298 280.785 403.595C289.488 394.893 294.377 383.089 294.377 370.781C294.377 358.474 289.488 346.67 280.785 337.967C272.082 329.264 260.278 324.375 247.971 324.375C235.663 324.375 223.859 329.264 215.157 337.967C206.454 346.67 201.564 358.474 201.564 370.781Z" stroke="#45413C" stroke-width="7" stroke-linecap="round" stroke-linejoin="round"/>
<path d="M299.533 367.687C299.533 396.15 291.18 341.906 247.971 341.906C204.761 341.906 196.408 396.15 196.408 367.687C196.408 354.012 201.841 340.897 211.511 331.227C221.18 321.557 234.295 316.125 247.971 316.125C261.646 316.125 274.761 321.557 284.431 331.227C294.101 340.897 299.533 354.012 299.533 367.687Z" fill="#BDBEC0" stroke="#45413C" stroke-width="7" stroke-linecap="round" stroke-linejoin="round"/>
<path d="M299.533 249.094C299.533 277.556 291.18 223.312 247.971 223.312C204.761 223.312 196.408 277.969 196.408 249.094C196.408 235.419 201.841 222.303 211.511 212.634C221.18 202.964 234.295 197.531 247.971 197.531C261.646 197.531 274.761 202.964 284.431 212.634C294.101 222.303 299.533 235.419 299.533 249.094V249.094Z" fill="#BDBEC0" stroke="#45413C" stroke-width="7" stroke-linecap="round" stroke-linejoin="round"/>
<path d="M299.533 130.5C299.533 158.962 291.18 104.719 247.971 104.719C204.761 104.719 196.408 158.962 196.408 130.5C196.408 116.825 201.841 103.71 211.511 94.0398C221.18 84.37 234.295 78.9375 247.971 78.9375C261.646 78.9375 274.761 84.37 284.431 94.0398C294.101 103.71 299.533 116.825 299.533 130.5V130.5Z" fill="#BDBEC0" stroke="#45413C" stroke-width="7" stroke-linecap="round" stroke-linejoin="round"/>
</svg>
