<svg width="496" height="496" viewBox="0 0 496 496" fill="none" xmlns="http://www.w3.org/2000/svg">
<path d="M145.906 79.6935L138.879 166.804H171.119L175.666 79.9002C176.17 66.9132 181.66 54.62 190.993 45.5753C200.326 36.5306 212.786 31.43 225.782 31.3335V31.3335C238.791 31.3457 251.297 36.3647 260.705 45.3494C270.113 54.3342 275.702 66.5954 276.312 79.5902L280.446 166.494H312.686L305.659 79.3835C304.049 59.2994 294.937 40.5574 280.137 26.8863C265.336 13.2151 245.931 5.617 225.782 5.60352V5.60352C205.577 5.599 186.117 13.2321 171.304 26.9726C156.49 40.713 147.418 59.5451 145.906 79.6935V79.6935Z" fill="#F7E5C6"/>
<path d="M145.907 107.593C147.198 91.3179 153.432 75.826 163.774 63.1935C174.117 50.5609 188.073 41.3912 203.773 36.9131C210.592 33.4463 218.134 31.6394 225.783 31.6394C233.433 31.6394 240.975 33.4463 247.793 36.9131C263.494 41.3912 277.45 50.5609 287.792 63.1935C298.135 75.826 304.369 91.3179 305.66 107.593L310 166.803H312.273L305.247 79.6931C303.793 59.5012 294.747 40.609 279.927 26.8177C265.107 13.0263 245.614 5.35938 225.37 5.35938C205.126 5.35937 185.633 13.0263 170.813 26.8177C155.994 40.609 146.947 59.5012 145.493 79.6931L138.467 166.803H140.74L145.907 107.593Z" fill="#FFF5E3"/>
<path d="M363.216 166.803H116.146C108.279 166.809 100.6 169.217 94.1375 173.704C87.6747 178.191 82.7353 184.543 79.9796 191.913C76.8796 200.283 73.7796 208.653 72.3329 213.613C61.7481 248.38 55.6366 284.354 54.1462 320.666L52.3896 364.583C52.1524 369.795 52.9731 375.001 54.8023 379.888C56.6315 384.775 59.4313 389.24 63.0329 393.016C66.6344 396.791 70.9632 399.798 75.7582 401.855C80.5532 403.912 85.7152 404.977 90.9329 404.986H298.426C308.405 404.969 317.993 401.102 325.192 394.191C332.391 387.281 336.647 377.859 337.073 367.889L338.933 320.666C340.88 271.255 351.368 222.555 369.933 176.723C370.346 175.624 370.49 174.443 370.353 173.277C370.215 172.112 369.8 170.996 369.142 170.025C368.484 169.053 367.602 168.253 366.571 167.692C365.54 167.132 364.39 166.827 363.216 166.803V166.803Z" fill="#947746" stroke="#45413C" stroke-width="7" stroke-linecap="round" stroke-linejoin="round"/>
<path d="M69.1296 224.773C60.5414 256.072 55.5151 288.24 54.1462 320.667L52.3896 364.583C52.1524 369.796 52.9731 375.002 54.8023 379.889C56.6315 384.775 59.4313 389.241 63.0329 393.016C66.6344 396.792 70.9632 399.799 75.7582 401.856C80.5532 403.913 85.7152 404.978 90.9329 404.987H287.266L301.836 224.773H69.1296Z" fill="#DEBB7E"/>
<path d="M298.117 267.347L301.527 224.773H69.1301C65.3067 238.827 62.3101 253.087 59.8301 267.347H298.117Z" fill="#B89558"/>
<path d="M69.1296 224.773C60.5414 256.072 55.5151 288.24 54.1462 320.667L52.3896 364.583C52.1524 369.796 52.9731 375.002 54.8023 379.889C56.6315 384.775 59.4313 389.241 63.0329 393.016C66.6344 396.792 70.9632 399.799 75.7582 401.856C80.5532 403.913 85.7152 404.978 90.9329 404.987H287.266L301.836 224.773H69.1296Z" stroke="#45413C" stroke-width="7" stroke-linecap="round" stroke-linejoin="round"/>
<path d="M357.121 166.803C367.134 166.849 376.919 169.803 385.284 175.306C393.65 180.81 400.235 188.626 404.241 197.803C412.62 216.136 419.732 235.021 425.527 254.327C431.926 279.426 435.7 305.121 436.791 331L438.134 364.893C438.343 370.098 437.498 375.29 435.649 380.159C433.801 385.029 430.987 389.474 427.378 393.228C423.768 396.983 419.437 399.969 414.644 402.007C409.851 404.046 404.696 405.094 399.487 405.09H192.097C182.111 405.098 172.509 401.24 165.304 394.324C158.099 387.408 153.851 377.972 153.451 367.993L151.591 320.667C150.471 293.231 146.734 265.965 140.431 239.24C137.951 228.907 134.851 211.857 132.267 196.77C131.618 193.065 131.789 189.263 132.767 185.631C133.746 181.999 135.51 178.626 137.933 175.749C140.357 172.872 143.382 170.562 146.795 168.981C150.208 167.399 153.926 166.586 157.687 166.597L357.121 166.803Z" fill="#DEBB7E"/>
<path d="M135.469 214.956C137.733 211.076 140.978 207.86 144.877 205.629C148.776 203.398 153.194 202.231 157.686 202.246H357.119C367.133 202.291 376.917 205.245 385.282 210.749C393.648 216.253 400.234 224.069 404.239 233.246C412.597 251.552 419.709 270.401 425.526 289.666C431.917 314.767 435.691 340.461 436.789 366.339V375.329C437.598 371.947 437.946 368.471 437.822 364.996L436.789 330.999C435.699 305.121 431.924 279.425 425.526 254.326C419.731 235.021 412.618 216.135 404.239 197.803C400.234 188.625 393.648 180.809 385.282 175.306C376.917 169.802 367.133 166.848 357.119 166.803H157.686C153.955 166.799 150.268 167.607 146.881 169.17C143.494 170.733 140.487 173.014 138.069 175.855C135.651 178.696 133.879 182.028 132.877 185.622C131.875 189.215 131.667 192.984 132.266 196.666C133.299 202.763 134.332 208.963 135.469 214.956Z" fill="#F0D5A8"/>
<path d="M357.121 166.803C367.134 166.849 376.919 169.803 385.284 175.306C393.65 180.81 400.235 188.626 404.241 197.803C412.62 216.136 419.732 235.021 425.527 254.327C431.926 279.426 435.7 305.121 436.791 331L438.134 364.893C438.343 370.098 437.498 375.29 435.649 380.159C433.801 385.029 430.987 389.474 427.378 393.228C423.768 396.983 419.437 399.969 414.644 402.007C409.851 404.046 404.696 405.094 399.487 405.09H192.097C182.111 405.098 172.509 401.24 165.304 394.324C158.099 387.408 153.851 377.972 153.451 367.993L151.591 320.667C150.471 293.231 146.734 265.965 140.431 239.24C137.951 228.907 134.851 211.857 132.267 196.77C131.618 193.065 131.789 189.263 132.767 185.631C133.746 181.999 135.51 178.626 137.933 175.749C140.357 172.872 143.382 170.562 146.795 168.981C150.208 167.399 153.926 166.586 157.687 166.597L357.121 166.803Z" stroke="#45413C" stroke-width="7" stroke-linecap="round" stroke-linejoin="round"/>
<path d="M223.303 218.366H195.3C190.066 218.331 184.966 216.713 180.669 213.725C176.372 210.738 173.079 206.52 171.223 201.626L158.203 166.803H222.58L235.393 200.903C236.128 202.857 236.378 204.961 236.122 207.033C235.866 209.105 235.112 211.085 233.923 212.802C232.735 214.519 231.147 215.922 229.298 216.891C227.448 217.86 225.391 218.366 223.303 218.366V218.366Z" fill="#E8F4FA" stroke="#45413C" stroke-width="7" stroke-linecap="round" stroke-linejoin="round"/>
<path d="M358.464 218.366H330.667C325.433 218.331 320.333 216.713 316.036 213.725C311.739 210.738 308.446 206.52 306.59 201.626L293.57 166.803H357.947L370.657 200.903C371.422 202.865 371.691 204.985 371.441 207.076C371.191 209.167 370.43 211.164 369.224 212.891C368.018 214.617 366.406 216.02 364.529 216.975C362.652 217.93 360.569 218.408 358.464 218.366Z" fill="#E8F4FA" stroke="#45413C" stroke-width="7" stroke-linecap="round" stroke-linejoin="round"/>
<path d="M145.906 79.6935L138.879 166.804H171.119L175.666 79.9002C176.17 66.9132 181.66 54.62 190.993 45.5753C200.326 36.5306 212.786 31.43 225.782 31.3335V31.3335C238.791 31.3457 251.297 36.3647 260.705 45.3494C270.113 54.3342 275.702 66.5954 276.312 79.5902L280.446 166.494H312.686L305.659 79.3835C304.049 59.2994 294.937 40.5574 280.137 26.8863C265.336 13.2151 245.931 5.617 225.782 5.60352V5.60352C205.577 5.599 186.117 13.2321 171.304 26.9726C156.49 40.713 147.418 59.5451 145.906 79.6935V79.6935Z" stroke="#45413C" stroke-width="7" stroke-linecap="round" stroke-linejoin="round"/>
<path d="M190.34 166.803L209.663 218.366" stroke="#45413C" stroke-width="7" stroke-linecap="round" stroke-linejoin="round"/>
<path d="M325.5 166.803L344.823 218.366" stroke="#45413C" stroke-width="7" stroke-linecap="round" stroke-linejoin="round"/>
<path d="M178.042 79.6929L171.119 166.803H203.256L207.389 79.8996C207.925 66.7784 213.537 54.3786 223.042 45.3172C232.547 36.2558 245.201 31.2416 258.332 31.3329V31.3329C271.352 31.3439 283.869 36.3594 293.294 45.3417C302.718 54.324 308.329 66.5857 308.966 79.5896L313.099 166.493H345.236L338.312 79.3829C336.604 59.3454 327.439 40.6785 312.629 27.0739C297.819 13.4694 278.443 5.91788 258.332 5.91292C238.113 5.82224 218.605 13.3738 203.717 27.0551C188.828 40.7365 179.658 59.5376 178.042 79.6929V79.6929Z" fill="#F7E5C6"/>
<path d="M178.042 107.593C179.341 91.3045 185.59 75.8031 195.952 63.1691C206.314 50.535 220.293 41.373 236.012 36.9128C242.813 33.4469 250.338 31.6401 257.971 31.6401C265.604 31.6401 273.128 33.4469 279.929 36.9128C295.634 41.3993 309.597 50.5687 319.955 63.1975C330.313 75.8263 336.573 91.3136 337.899 107.593L342.652 166.803H344.822L337.899 79.6928C336.283 59.6042 327.161 40.8609 312.35 27.1936C297.539 13.5264 278.124 5.9375 257.971 5.9375C237.817 5.9375 218.403 13.5264 203.592 27.1936C188.78 40.8609 179.659 59.6042 178.042 79.6928L171.119 166.803H173.289L178.042 107.593Z" fill="#FFF5E3"/>
<path d="M178.042 79.6929L171.119 166.803H203.256L207.389 79.8996C207.925 66.7784 213.537 54.3786 223.042 45.3172C232.547 36.2558 245.201 31.2416 258.332 31.3329V31.3329C271.352 31.3439 283.869 36.3594 293.294 45.3417C302.718 54.324 308.329 66.5857 308.966 79.5896L313.099 166.493H345.236L338.312 79.3829C336.604 59.3454 327.439 40.6785 312.629 27.0739C297.819 13.4694 278.443 5.91788 258.332 5.91292C238.113 5.82224 218.605 13.3738 203.717 27.0551C188.828 40.7365 179.658 59.5376 178.042 79.6929V79.6929Z" stroke="#45413C" stroke-width="7" stroke-linecap="round" stroke-linejoin="round"/>
</svg>
