<svg width="496" height="496" viewBox="0 0 496 496" fill="none" xmlns="http://www.w3.org/2000/svg">
<path d="M31.8067 345.45H121.81C129.429 345.124 137.036 346.343 144.171 349.034C151.307 351.725 157.824 355.832 163.331 361.108C168.837 366.384 173.219 372.72 176.213 379.734C179.206 386.748 180.75 394.296 180.75 401.922C180.75 409.548 179.206 417.095 176.213 424.109C173.219 431.123 168.837 437.459 163.331 442.735C157.824 448.011 151.307 452.118 144.171 454.809C137.036 457.5 129.429 458.719 121.81 458.393H84.0933C79.333 458.041 74.882 455.901 71.6338 452.403C68.3855 448.905 66.5802 444.309 66.5802 439.535C66.5802 434.762 68.3855 430.165 71.6338 426.667C74.882 423.169 79.333 421.029 84.0933 420.677H55.78C50.7922 420.677 46.0086 418.695 42.4817 415.168C38.9547 411.642 36.9733 406.858 36.9733 401.87C36.9733 396.882 38.9547 392.099 42.4817 388.572C46.0086 385.045 50.7922 383.063 55.78 383.063H31.8067C26.8188 383.063 22.0353 381.082 18.5083 377.555C14.9814 374.028 13 369.245 13 364.257C13 359.269 14.9814 354.485 18.5083 350.958C22.0353 347.432 26.8188 345.45 31.8067 345.45V345.45Z" fill="white"/>
<path d="M84.1193 438.037H121.836C135.041 438.034 147.826 433.4 157.965 424.941C168.105 416.482 174.956 404.734 177.326 391.744C178 395.148 178.346 398.608 178.359 402.077C178.359 417.068 172.404 431.445 161.804 442.046C151.204 452.646 136.827 458.601 121.836 458.601H84.1193C79.1398 458.574 74.372 456.584 70.8509 453.062C67.3298 449.541 65.3397 444.774 65.3126 439.794C65.3016 436.134 66.3417 432.547 68.3093 429.461C70.0043 432.111 72.3437 434.287 75.1086 435.787C77.8736 437.287 80.9738 438.061 84.1193 438.037V438.037Z" fill="#E5FEFF"/>
<path d="M31.8067 345.45H121.81C129.429 345.124 137.036 346.343 144.171 349.034C151.307 351.725 157.824 355.832 163.331 361.108C168.837 366.384 173.219 372.72 176.213 379.734C179.206 386.748 180.75 394.296 180.75 401.922C180.75 409.548 179.206 417.095 176.213 424.109C173.219 431.123 168.837 437.459 163.331 442.735C157.824 448.011 151.307 452.118 144.171 454.809C137.036 457.5 129.429 458.719 121.81 458.393H84.0933C79.333 458.041 74.882 455.901 71.6338 452.403C68.3855 448.905 66.5802 444.309 66.5802 439.535C66.5802 434.762 68.3855 430.165 71.6338 426.667C74.882 423.169 79.333 421.029 84.0933 420.677H55.78C50.7922 420.677 46.0086 418.695 42.4817 415.168C38.9547 411.642 36.9733 406.858 36.9733 401.87C36.9733 396.882 38.9547 392.099 42.4817 388.572C46.0086 385.045 50.7922 383.063 55.78 383.063H31.8067C26.8188 383.063 22.0353 381.082 18.5083 377.555C14.9814 374.028 13 369.245 13 364.257C13 359.269 14.9814 354.485 18.5083 350.958C22.0353 347.432 26.8188 345.45 31.8067 345.45V345.45Z" stroke="#45413C" stroke-width="7" stroke-linecap="round" stroke-linejoin="round"/>
<path d="M98.6685 383.065H55.7852" stroke="#45413C" stroke-width="7" stroke-linecap="round" stroke-linejoin="round"/>
<path d="M84.043 420.675H116.283" stroke="#45413C" stroke-width="7" stroke-linecap="round" stroke-linejoin="round"/>
<path d="M464.353 345.452H374.35C366.731 345.126 359.124 346.345 351.989 349.036C344.853 351.727 338.336 355.834 332.829 361.11C327.323 366.386 322.941 372.722 319.947 379.736C316.953 386.75 315.41 394.298 315.41 401.924C315.41 409.55 316.953 417.097 319.947 424.111C322.941 431.125 327.323 437.461 332.829 442.737C338.336 448.013 344.853 452.12 351.989 454.811C359.124 457.502 366.731 458.721 374.35 458.395H412.066C416.827 458.043 421.278 455.903 424.526 452.405C427.774 448.907 429.579 444.311 429.579 439.537C429.579 434.764 427.774 430.167 424.526 426.669C421.278 423.171 416.827 421.031 412.066 420.679H440.38C445.368 420.679 450.151 418.697 453.678 415.17C457.205 411.643 459.186 406.86 459.186 401.872C459.186 396.884 457.205 392.101 453.678 388.574C450.151 385.047 445.368 383.065 440.38 383.065H464.353C469.341 383.065 474.124 381.084 477.651 377.557C481.178 374.03 483.16 369.247 483.16 364.259C483.16 359.271 481.178 354.487 477.651 350.96C474.124 347.433 469.341 345.452 464.353 345.452V345.452Z" fill="white"/>
<path d="M412.072 438.036H374.355C361.151 438.033 348.366 433.399 338.226 424.94C328.087 416.481 321.235 404.733 318.865 391.743C318.191 395.147 317.845 398.607 317.832 402.076C317.832 409.499 319.294 416.849 322.135 423.707C324.975 430.565 329.139 436.796 334.387 442.045C339.636 447.293 345.867 451.457 352.725 454.297C359.583 457.138 366.933 458.6 374.355 458.6H412.072C417.051 458.573 421.819 456.583 425.34 453.061C428.861 449.54 430.852 444.773 430.879 439.793C430.89 436.133 429.85 432.546 427.882 429.46C426.187 432.11 423.848 434.286 421.083 435.786C418.318 437.286 415.218 438.06 412.072 438.036V438.036Z" fill="#E5FEFF"/>
<path d="M464.353 345.452H374.35C366.731 345.126 359.124 346.345 351.989 349.036C344.853 351.727 338.336 355.834 332.829 361.11C327.323 366.386 322.941 372.722 319.947 379.736C316.953 386.75 315.41 394.298 315.41 401.924C315.41 409.55 316.953 417.097 319.947 424.111C322.941 431.125 327.323 437.461 332.829 442.737C338.336 448.013 344.853 452.12 351.989 454.811C359.124 457.502 366.731 458.721 374.35 458.395H412.066C416.827 458.043 421.278 455.903 424.526 452.405C427.774 448.907 429.579 444.311 429.579 439.537C429.579 434.764 427.774 430.167 424.526 426.669C421.278 423.171 416.827 421.031 412.066 420.679H440.38C445.368 420.679 450.151 418.697 453.678 415.17C457.205 411.643 459.186 406.86 459.186 401.872C459.186 396.884 457.205 392.101 453.678 388.574C450.151 385.047 445.368 383.065 440.38 383.065H464.353C469.341 383.065 474.124 381.084 477.651 377.557C481.178 374.03 483.16 369.247 483.16 364.259C483.16 359.271 481.178 354.487 477.651 350.96C474.124 347.433 469.341 345.452 464.353 345.452V345.452Z" stroke="#45413C" stroke-width="7" stroke-linecap="round" stroke-linejoin="round"/>
<path d="M397.434 383.065H440.317" stroke="#45413C" stroke-width="7" stroke-linecap="round" stroke-linejoin="round"/>
<path d="M412.072 420.677H379.832" stroke="#45413C" stroke-width="7" stroke-linecap="round" stroke-linejoin="round"/>
<path d="M61.9219 279.112C61.9219 283.522 62.7077 287.889 64.2344 291.963C65.7612 296.038 67.9989 299.74 70.82 302.859C73.641 305.977 76.9901 308.451 80.676 310.139C84.3618 311.826 88.3123 312.695 92.3019 312.695C96.2914 312.695 100.242 311.826 103.928 310.139C107.614 308.451 110.963 305.977 113.784 302.859C116.605 299.74 118.843 296.038 120.369 291.963C121.896 287.889 122.682 283.522 122.682 279.112C122.682 274.701 121.896 270.334 120.369 266.26C118.843 262.185 116.605 258.483 113.784 255.365C110.963 252.246 107.614 249.772 103.928 248.085C100.242 246.397 96.2914 245.528 92.3019 245.528C88.3123 245.528 84.3618 246.397 80.676 248.085C76.9901 249.772 73.641 252.246 70.82 255.365C67.9989 258.483 65.7612 262.185 64.2344 266.26C62.7077 270.334 61.9219 274.701 61.9219 279.112V279.112Z" fill="#FFE500" stroke="#45413C" stroke-width="7" stroke-linecap="round" stroke-linejoin="round"/>
<path d="M373.375 279.112C373.375 283.522 374.161 287.889 375.688 291.963C377.214 296.038 379.452 299.74 382.273 302.859C385.094 305.977 388.443 308.451 392.129 310.139C395.815 311.826 399.765 312.695 403.755 312.695C407.745 312.695 411.695 311.826 415.381 310.139C419.067 308.451 422.416 305.977 425.237 302.859C428.058 299.74 430.296 296.038 431.822 291.963C433.349 287.889 434.135 283.522 434.135 279.112C434.135 274.701 433.349 270.334 431.822 266.26C430.296 262.185 428.058 258.483 425.237 255.365C422.416 252.246 419.067 249.772 415.381 248.085C411.695 246.397 407.745 245.528 403.755 245.528C399.765 245.528 395.815 246.397 392.129 248.085C388.443 249.772 385.094 252.246 382.273 255.365C379.452 258.483 377.214 262.185 375.688 266.26C374.161 270.334 373.375 274.701 373.375 279.112V279.112Z" fill="#FFE500" stroke="#45413C" stroke-width="7" stroke-linecap="round" stroke-linejoin="round"/>
<path d="M92.4375 279.108C92.4375 299.558 96.4654 319.808 104.291 338.701C112.117 357.594 123.588 374.761 138.048 389.221C152.508 403.681 169.675 415.152 188.568 422.978C207.461 430.804 227.711 434.831 248.161 434.831C268.611 434.831 288.86 430.804 307.754 422.978C326.647 415.152 343.814 403.681 358.274 389.221C372.734 374.761 384.205 357.594 392.03 338.701C399.856 319.808 403.884 299.558 403.884 279.108C403.884 258.658 399.856 238.409 392.03 219.515C384.205 200.622 372.734 183.455 358.274 168.995C343.814 154.535 326.647 143.064 307.754 135.239C288.86 127.413 268.611 123.385 248.161 123.385C227.711 123.385 207.461 127.413 188.568 135.239C169.675 143.064 152.508 154.535 138.048 168.995C123.588 183.455 112.117 200.622 104.291 219.515C96.4654 238.409 92.4375 258.658 92.4375 279.108V279.108Z" fill="#FFE500"/>
<path d="M248.161 123.491C217.357 123.491 187.246 132.627 161.635 149.743C136.024 166.858 116.065 191.185 104.281 219.646C92.4981 248.106 89.4203 279.423 95.4373 309.633C101.454 339.843 116.296 367.59 138.084 389.364C159.873 411.138 187.63 425.961 217.844 431.958C248.058 437.955 279.372 434.857 307.825 423.055C336.278 411.252 360.592 391.277 377.69 365.655C394.789 340.032 403.905 309.915 403.884 279.111C403.857 237.829 387.438 198.246 358.237 169.065C329.037 139.884 289.443 123.491 248.161 123.491V123.491ZM248.161 411.481C220.055 411.481 192.581 403.146 169.213 387.529C145.845 371.912 127.634 349.715 116.883 323.747C106.132 297.779 103.325 269.205 108.815 241.641C114.306 214.076 127.848 188.76 147.729 168.893C167.61 149.027 192.937 135.503 220.505 130.032C248.073 124.561 276.645 127.39 302.605 138.16C328.566 148.929 350.749 167.157 366.349 190.536C381.949 213.915 390.265 241.395 390.244 269.501C390.217 307.166 375.235 343.279 348.592 369.903C321.95 396.526 285.826 411.481 248.161 411.481V411.481Z" fill="#EBCB00"/>
<path d="M92.4375 279.108C92.4375 299.558 96.4654 319.808 104.291 338.701C112.117 357.594 123.588 374.761 138.048 389.221C152.508 403.681 169.675 415.152 188.568 422.978C207.461 430.804 227.711 434.831 248.161 434.831C268.611 434.831 288.86 430.804 307.754 422.978C326.647 415.152 343.814 403.681 358.274 389.221C372.734 374.761 384.205 357.594 392.03 338.701C399.856 319.808 403.884 299.558 403.884 279.108C403.884 258.658 399.856 238.409 392.03 219.515C384.205 200.622 372.734 183.455 358.274 168.995C343.814 154.535 326.647 143.064 307.754 135.239C288.86 127.413 268.611 123.385 248.161 123.385C227.711 123.385 207.461 127.413 188.568 135.239C169.675 143.064 152.508 154.535 138.048 168.995C123.588 183.455 112.117 200.622 104.291 219.515C96.4654 238.409 92.4375 258.658 92.4375 279.108V279.108Z" stroke="#45413C" stroke-width="7" stroke-linecap="round" stroke-linejoin="round"/>
<path d="M174.136 278.388C174.116 279.916 173.644 281.404 172.78 282.665C171.916 283.925 170.699 284.903 169.281 285.473C167.863 286.044 166.308 286.183 164.812 285.872C163.315 285.562 161.944 284.816 160.87 283.728C159.797 282.64 159.069 281.259 158.778 279.759C158.487 278.258 158.647 276.705 159.236 275.295C159.826 273.885 160.819 272.681 162.091 271.833C163.363 270.986 164.858 270.534 166.386 270.534C167.413 270.534 168.429 270.738 169.376 271.134C170.323 271.53 171.182 272.11 171.903 272.841C172.624 273.571 173.193 274.438 173.576 275.39C173.959 276.342 174.15 277.361 174.136 278.388V278.388Z" fill="#45413C" stroke="#45413C" stroke-width="7" stroke-linecap="round" stroke-linejoin="round"/>
<path d="M322.032 278.388C322.052 279.916 322.524 281.404 323.388 282.665C324.252 283.925 325.469 284.903 326.887 285.473C328.305 286.044 329.86 286.183 331.356 285.872C332.853 285.562 334.224 284.816 335.297 283.728C336.371 282.64 337.099 281.259 337.39 279.759C337.68 278.258 337.521 276.705 336.932 275.295C336.342 273.885 335.349 272.681 334.077 271.833C332.805 270.986 331.31 270.534 329.782 270.534C328.755 270.534 327.739 270.738 326.792 271.134C325.845 271.53 324.986 272.11 324.265 272.841C323.544 273.571 322.975 274.438 322.592 275.39C322.209 276.342 322.018 277.361 322.032 278.388V278.388Z" fill="#45413C" stroke="#45413C" stroke-width="7" stroke-linecap="round" stroke-linejoin="round"/>
<path d="M360.885 325.093C360.885 331.499 352.205 336.769 341.458 336.769C330.711 336.769 322.031 331.499 322.031 325.093C322.031 318.686 330.711 313.416 341.045 313.416C351.378 313.416 360.885 318.583 360.885 325.093Z" fill="#FFAA54"/>
<path d="M135.223 325.093C135.223 331.499 143.903 336.769 154.649 336.769C165.396 336.769 174.076 331.499 174.076 325.093C174.076 318.686 165.396 313.416 155.063 313.416C144.729 313.416 135.223 318.583 135.223 325.093Z" fill="#FFAA54"/>
<path d="M410.783 242.944C410.783 242.944 405.616 89.9072 248.033 89.9072C96.9596 89.9072 84.663 223.621 84.043 241.084C86.0378 240.93 88.0415 240.93 90.0363 241.084C99.525 242.592 109.234 241.874 118.398 238.987C127.562 236.099 135.929 231.122 142.84 224.447V224.447L145.423 241.911L199.673 214.114C217.195 230.87 239.529 241.712 263.533 245.114C282.874 248.59 302.679 248.59 322.02 245.114L326.876 217.834L346.303 231.164C355.634 237.517 366.192 241.847 377.297 243.876C388.402 245.905 399.808 245.587 410.783 242.944Z" fill="#724F3D"/>
<path d="M248.033 120.391C361.7 120.391 395.8 199.337 406.236 244.391C407.786 244.391 409.336 243.874 410.783 243.461C412.23 243.047 405.616 89.9072 248.033 89.9072C96.9596 89.9072 84.663 223.621 84.043 241.084C85.5223 240.981 87.007 240.981 88.4863 241.084C99.0263 196.547 134.366 120.391 248.033 120.391Z" fill="#A86C4D"/>
<path d="M410.783 242.944C410.783 242.944 405.616 89.9072 248.033 89.9072C96.9596 89.9072 84.663 223.621 84.043 241.084C86.0378 240.93 88.0415 240.93 90.0363 241.084C99.525 242.592 109.234 241.874 118.398 238.987C127.562 236.099 135.929 231.122 142.84 224.447V224.447L145.423 241.911L199.673 214.114C217.195 230.87 239.529 241.712 263.533 245.114C282.874 248.59 302.679 248.59 322.02 245.114L326.876 217.834L346.303 231.164C355.634 237.517 366.192 241.847 377.297 243.876C388.402 245.905 399.808 245.587 410.783 242.944Z" stroke="#45413C" stroke-width="7" stroke-linecap="round" stroke-linejoin="round"/>
<path d="M248.109 37C159.966 37 88.5625 65.0033 88.5625 99.62C88.5625 134.237 159.966 162.343 248.109 162.343C336.252 162.343 407.656 134.237 407.656 99.62C407.656 65.0033 336.252 37 248.109 37ZM248.109 130.723C186.109 130.723 135.269 116.773 135.269 99.7233C135.269 82.6733 185.799 68.7233 248.109 68.7233C310.419 68.7233 360.949 82.6733 360.949 99.7233C360.949 116.773 310.109 130.723 248.109 130.723Z" fill="#00DFEB"/>
<path d="M248.109 56.4267C327.779 56.4267 393.706 79.3667 405.589 109.333C406.885 106.255 407.586 102.959 407.656 99.62C407.656 65.0033 336.252 37 248.109 37C159.966 37 88.5625 65.0033 88.5625 99.62C88.632 102.959 89.3333 106.255 90.6292 109.333C102.512 79.3667 168.439 56.4267 248.109 56.4267Z" fill="#A6FBFF"/>
<path d="M248.109 37C159.966 37 88.5625 65.0033 88.5625 99.62C88.5625 134.237 159.966 162.343 248.109 162.343C336.252 162.343 407.656 134.237 407.656 99.62C407.656 65.0033 336.252 37 248.109 37ZM248.109 130.723C186.109 130.723 135.269 116.773 135.269 99.7233C135.269 82.6733 185.799 68.7233 248.109 68.7233C310.419 68.7233 360.949 82.6733 360.949 99.7233C360.949 116.773 310.109 130.723 248.109 130.723Z" stroke="#45413C" stroke-width="7" stroke-linecap="round" stroke-linejoin="round"/>
<path d="M205.137 357.333C210.433 363.417 217.051 368.209 224.483 371.343C231.916 374.477 239.967 375.871 248.02 375.416C256.074 375.871 264.124 374.477 271.557 371.343C278.989 368.209 285.607 363.417 290.903 357.333" stroke="#45413C" stroke-width="7" stroke-linecap="round" stroke-linejoin="round"/>
</svg>
