<svg width="496" height="496" viewBox="0 0 496 496" fill="none" xmlns="http://www.w3.org/2000/svg">
<rect width="496" height="496" fill="white"/>
<path d="M251 328.5C239.833 328.5 229.583 325.75 220.25 320.25C210.917 314.583 203.5 307 198 297.5C192.5 288 189.75 277.5 189.75 266C189.75 254.333 192.417 243.75 197.75 234.25C203.25 224.75 210.583 217.25 219.75 211.75C228.917 206.25 238.917 203.5 249.75 203.5C260.417 203.5 270.167 206.083 279 211.25C287.833 216.417 294.75 223.583 299.75 232.75C304.75 241.75 307.25 252 307.25 263.5C307.25 266.167 307 269.5 306.5 273.5H211C212.333 283.5 216.833 291.917 224.5 298.75C232.167 305.583 241.333 309 252 309C265.167 309 276.917 303.5 287.25 292.5L301 305.25C296.167 311.583 289.417 317.083 280.75 321.75C272.25 326.25 262.333 328.5 251 328.5ZM286.25 256.5C284.583 246 280.5 237.667 274 231.5C267.667 225.333 259.583 222.25 249.75 222.25C239.583 222.25 231 225.5 224 232C217 238.333 212.583 246.5 210.75 256.5H286.25ZM255.75 185.5H239.25L258 151.5H280.75L255.75 185.5Z" fill="black"/>
</svg>
