<svg width="495" height="495" viewBox="0 0 495 495" fill="none" xmlns="http://www.w3.org/2000/svg">
<path d="M325.372 318.404L247.616 289.116L169.859 318.713C156.674 323.744 145.327 332.659 137.317 344.277C129.307 355.896 125.012 369.673 125 383.785V443.804H370.231V383.476C370.219 369.363 365.924 355.587 357.914 343.968C349.904 332.349 338.557 323.435 325.372 318.404V318.404Z" fill="#656769"/>
<path d="M325.372 318.404L247.616 289.116L169.859 318.713C156.674 323.744 145.327 332.659 137.317 344.277C129.307 355.896 125.012 369.673 125 383.785V414.722C125.012 400.61 129.307 386.834 137.317 375.215C145.327 363.596 156.674 354.682 169.859 349.651L247.616 320.054L325.372 349.651C338.557 354.682 349.904 363.596 357.914 375.215C365.924 386.834 370.219 400.61 370.231 414.722V383.785C370.282 369.62 366.016 355.776 358.002 344.095C349.988 332.415 338.606 323.454 325.372 318.404V318.404Z" fill="#525252"/>
<path d="M325.372 318.404L247.616 289.116L169.859 318.713C156.674 323.744 145.327 332.659 137.317 344.277C129.307 355.896 125.012 369.673 125 383.785V443.804H370.231V383.476C370.219 369.363 365.924 355.587 357.914 343.968C349.904 332.349 338.557 323.435 325.372 318.404V318.404Z" stroke="#45413C" stroke-width="6" stroke-linecap="round" stroke-linejoin="round"/>
<path d="M311.864 349.238L333.829 343.772L317.948 315.516L247.617 288.807L177.286 315.516L161.404 343.772L183.37 349.238L175.842 372.132L226.167 443.804H269.067L319.392 372.132L311.864 349.238Z" fill="#656769" stroke="#45413C" stroke-width="6" stroke-linecap="round" stroke-linejoin="round"/>
<path d="M247.615 289.116C247.615 289.116 196.053 289.116 196.053 318.094C197.009 339.814 204.805 360.677 218.328 377.701L247.615 352.538L277.418 377.701C290.941 360.677 298.737 339.814 299.693 318.094C299.693 289.116 247.615 289.116 247.615 289.116Z" fill="white" stroke="#45413C" stroke-width="6" stroke-linecap="round" stroke-linejoin="round"/>
<path d="M247.616 352.538L224.413 329.335C222.507 327.415 221.433 324.822 221.422 322.117V291.179C221.422 284.232 224.182 277.57 229.094 272.657C234.006 267.745 240.669 264.985 247.616 264.985V264.985C254.563 264.985 261.225 267.745 266.137 272.657C271.05 277.57 273.809 284.232 273.809 291.179V322.117C273.798 324.822 272.724 327.415 270.819 329.335L247.616 352.538Z" fill="#FFCEBF"/>
<path d="M247.616 264.985C240.669 264.985 234.006 267.745 229.094 272.657C224.182 277.57 221.422 284.232 221.422 291.179V297.263C221.422 304.211 224.182 310.873 229.094 315.785C234.006 320.698 240.669 323.457 247.616 323.457C254.563 323.457 261.225 320.698 266.137 315.785C271.05 310.873 273.809 304.211 273.809 297.263V291.179C273.809 284.232 271.05 277.57 266.137 272.657C261.225 267.745 254.563 264.985 247.616 264.985V264.985Z" fill="#FFB59E"/>
<path d="M247.616 352.538L224.413 329.335C222.507 327.415 221.433 324.822 221.422 322.117V291.179C221.422 284.232 224.182 277.57 229.094 272.657C234.006 267.745 240.669 264.985 247.616 264.985V264.985C254.563 264.985 261.225 267.745 266.137 272.657C271.05 277.57 273.809 284.232 273.809 291.179V322.117C273.798 324.822 272.724 327.415 270.819 329.335L247.616 352.538Z" stroke="#45413C" stroke-width="6" stroke-linecap="round" stroke-linejoin="round"/>
<path d="M277.419 377.701L268.756 443.804H226.166L217.812 377.701L247.616 352.538L277.419 377.701Z" fill="white" stroke="#45413C" stroke-width="6" stroke-linecap="round" stroke-linejoin="round"/>
<path d="M242.459 398.944C242.459 400.312 243.002 401.623 243.969 402.59C244.936 403.557 246.248 404.101 247.615 404.101C248.983 404.101 250.294 403.557 251.261 402.59C252.228 401.623 252.771 400.312 252.771 398.944C252.771 397.577 252.228 396.265 251.261 395.298C250.294 394.331 248.983 393.788 247.615 393.788C246.248 393.788 244.936 394.331 243.969 395.298C243.002 396.265 242.459 397.577 242.459 398.944Z" fill="#45413C"/>
<path d="M242.459 422.147C242.459 423.515 243.002 424.826 243.969 425.793C244.936 426.76 246.248 427.304 247.615 427.304C248.983 427.304 250.294 426.76 251.261 425.793C252.228 424.826 252.771 423.515 252.771 422.147C252.771 420.78 252.228 419.468 251.261 418.501C250.294 417.534 248.983 416.991 247.615 416.991C246.248 416.991 244.936 417.534 243.969 418.501C243.002 419.468 242.459 420.78 242.459 422.147Z" fill="#45413C"/>
<path d="M247.616 364.913L216.679 346.247C214.822 345.126 212.703 344.513 210.535 344.468C208.366 344.424 206.224 344.951 204.323 345.995C202.422 347.04 200.829 348.565 199.703 350.42C198.578 352.274 197.959 354.391 197.91 356.56V372.132C197.97 374.285 198.59 376.385 199.71 378.225C200.83 380.065 202.411 381.58 204.296 382.622C206.181 383.664 208.306 384.195 210.459 384.164C212.613 384.133 214.721 383.54 216.576 382.444L247.616 364.913Z" fill="#009FD9" stroke="#45413C" stroke-width="6" stroke-linecap="round" stroke-linejoin="round"/>
<path d="M221.217 364.913H247.617" stroke="#45413C" stroke-width="6" stroke-linecap="round" stroke-linejoin="round"/>
<path d="M247.615 364.913L278.553 346.247C280.41 345.126 282.528 344.513 284.697 344.468C286.866 344.424 289.008 344.951 290.909 345.995C292.81 347.04 294.403 348.565 295.528 350.42C296.654 352.274 297.272 354.391 297.321 356.56V372.132C297.252 374.27 296.63 376.353 295.516 378.179C294.401 380.004 292.833 381.51 290.963 382.549C289.093 383.587 286.986 384.124 284.847 384.106C282.708 384.087 280.611 383.515 278.759 382.444L247.615 364.913Z" fill="#009FD9" stroke="#45413C" stroke-width="6" stroke-linecap="round" stroke-linejoin="round"/>
<path d="M274.015 364.913H247.615" stroke="#45413C" stroke-width="6" stroke-linecap="round" stroke-linejoin="round"/>
<path d="M233.281 364.913C233.281 368.715 234.791 372.361 237.48 375.049C240.168 377.738 243.814 379.248 247.616 379.248C251.417 379.248 255.063 377.738 257.752 375.049C260.44 372.361 261.95 368.715 261.95 364.913C261.95 361.112 260.44 357.466 257.752 354.778C255.063 352.089 251.417 350.579 247.616 350.579C243.814 350.579 240.168 352.089 237.48 354.778C234.791 357.466 233.281 361.112 233.281 364.913V364.913Z" fill="#009FD9" stroke="#45413C" stroke-width="6" stroke-linecap="round" stroke-linejoin="round"/>
<path d="M247.616 51.0005C239.132 50.9737 230.679 52.0131 222.454 54.0943C203.273 58.4255 178.316 65.7474 155.732 61.4161C154.864 67.2329 155.184 73.1652 156.673 78.8548C158.162 84.5444 160.789 89.8731 164.395 94.5193C152.629 111.478 146.331 131.629 146.348 152.269V205.276H348.885V152.269C348.885 125.411 338.216 99.653 319.224 80.6614C300.233 61.6699 274.475 51.0005 247.616 51.0005V51.0005Z" fill="#A86C4D"/>
<path d="M247.616 51.0005C239.132 50.9737 230.678 52.0131 222.453 54.0943C203.272 58.4255 178.316 65.7474 155.731 61.4161C154.308 72.2348 156.795 83.2062 162.744 92.3536C182.95 92.7719 203.097 90.0229 222.453 84.2068C237.413 80.4317 253.036 80.1141 268.137 83.2781C283.238 86.4421 297.42 93.0044 309.606 102.467C321.793 111.93 331.663 124.044 338.469 137.891C345.274 151.738 348.836 166.953 348.884 182.382V152.269C348.884 125.411 338.215 99.653 319.223 80.6614C300.232 61.6699 274.474 51.0005 247.616 51.0005V51.0005Z" fill="#DE926A"/>
<path d="M247.616 51.0005C239.132 50.9737 230.679 52.0131 222.454 54.0943C203.273 58.4255 178.316 65.7474 155.732 61.4161C154.864 67.2329 155.184 73.1652 156.673 78.8548C158.162 84.5444 160.789 89.8731 164.395 94.5193C152.629 111.478 146.331 131.629 146.348 152.269V205.276H348.885V152.269C348.885 125.411 338.216 99.653 319.224 80.6614C300.233 61.6699 274.475 51.0005 247.616 51.0005V51.0005Z" stroke="#45413C" stroke-width="6" stroke-linecap="round" stroke-linejoin="round"/>
<path d="M359.712 197.541C359.211 193.754 357.572 190.209 355.013 187.373C352.453 184.537 349.094 182.545 345.378 181.66L339.293 179.907C334.755 178.737 330.751 176.058 327.939 172.309C325.128 168.56 323.676 163.965 323.825 159.282V138.244C323.82 133.987 322.398 129.852 319.784 126.491C317.17 123.13 313.512 120.735 309.387 119.682C289.708 127.484 268.678 131.304 247.512 130.922C226.347 131.304 205.316 127.484 185.637 119.682C181.512 120.735 177.854 123.13 175.24 126.491C172.626 129.852 171.205 133.987 171.2 138.244V159.591C171.348 164.275 169.897 168.869 167.085 172.618C164.273 176.367 160.269 179.047 155.731 180.216L149.647 181.969C145.931 182.855 142.571 184.847 140.012 187.682C137.452 190.518 135.813 194.064 135.312 197.85C135.037 200.461 135.315 203.101 136.129 205.596C136.942 208.092 138.273 210.388 140.035 212.335C141.797 214.281 143.949 215.834 146.351 216.892C148.754 217.95 151.353 218.49 153.978 218.475H155.112C157.525 241.272 168.289 262.369 185.331 277.702C202.372 293.035 224.485 301.518 247.409 301.518C270.333 301.518 292.446 293.035 309.487 277.702C326.529 262.369 337.293 241.272 339.706 218.475H340.84C343.512 218.525 346.163 218 348.614 216.937C351.066 215.873 353.26 214.296 355.049 212.311C356.838 210.326 358.18 207.981 358.985 205.432C359.789 202.884 360.037 200.193 359.712 197.541V197.541Z" fill="#FFCEBF" stroke="#45413C" stroke-width="6" stroke-linecap="round" stroke-linejoin="round"/>
<path d="M191.619 195.375C191.619 197.481 192.456 199.501 193.945 200.99C195.434 202.479 197.454 203.316 199.56 203.316C201.666 203.316 203.685 202.479 205.175 200.99C206.664 199.501 207.5 197.481 207.5 195.375C207.5 193.269 206.664 191.249 205.175 189.76C203.685 188.271 201.666 187.435 199.56 187.435C197.454 187.435 195.434 188.271 193.945 189.76C192.456 191.249 191.619 193.269 191.619 195.375Z" fill="#45413C" stroke="#45413C" stroke-width="6" stroke-linecap="round" stroke-linejoin="round"/>
<path d="M303.612 195.375C303.612 197.481 302.775 199.501 301.286 200.99C299.797 202.479 297.777 203.316 295.671 203.316C293.565 203.316 291.545 202.479 290.056 200.99C288.567 199.501 287.73 197.481 287.73 195.375C287.73 193.269 288.567 191.249 290.056 189.76C291.545 188.271 293.565 187.435 295.671 187.435C297.777 187.435 299.797 188.271 301.286 189.76C302.775 191.249 303.612 193.269 303.612 195.375Z" fill="#45413C" stroke="#45413C" stroke-width="6" stroke-linecap="round" stroke-linejoin="round"/>
<path d="M218.329 243.741C217.687 243.755 217.054 243.899 216.469 244.165C215.884 244.431 215.359 244.813 214.926 245.288C214.486 245.789 214.165 246.384 213.986 247.026C213.807 247.669 213.776 248.344 213.895 249.001C215.287 256.933 219.432 264.121 225.599 269.3C231.767 274.479 239.563 277.318 247.617 277.318C255.67 277.318 263.466 274.479 269.634 269.3C275.802 264.121 279.946 256.933 281.338 249.001C281.457 248.344 281.426 247.669 281.247 247.026C281.069 246.384 280.747 245.789 280.307 245.288C279.878 244.808 279.354 244.423 278.768 244.157C278.182 243.891 277.548 243.749 276.904 243.741H218.329Z" fill="#FF6242"/>
<path d="M247.616 258.179C238.317 257.902 229.185 260.692 221.629 266.12C224.861 269.767 228.83 272.688 233.274 274.688C237.718 276.688 242.537 277.723 247.41 277.723C252.284 277.723 257.102 276.688 261.546 274.688C265.99 272.688 269.96 269.767 273.191 266.12C265.749 260.778 256.776 257.992 247.616 258.179V258.179Z" fill="#FFA694"/>
<path d="M218.329 243.741C217.687 243.755 217.054 243.899 216.469 244.165C215.884 244.431 215.359 244.813 214.926 245.288C214.486 245.789 214.165 246.384 213.986 247.026C213.807 247.669 213.776 248.344 213.895 249.001C215.287 256.933 219.432 264.121 225.599 269.3C231.767 274.479 239.563 277.318 247.617 277.318C255.67 277.318 263.466 274.479 269.634 269.3C275.802 264.121 279.946 256.933 281.338 249.001C281.457 248.344 281.426 247.669 281.247 247.026C281.069 246.384 280.747 245.789 280.307 245.288C279.878 244.808 279.354 244.423 278.768 244.157C278.182 243.891 277.548 243.749 276.904 243.741H218.329Z" stroke="#45413C" stroke-width="6" stroke-linecap="round" stroke-linejoin="round"/>
<path d="M176.047 229.2C176.047 230.841 177.133 232.415 179.067 233.575C181.001 234.736 183.624 235.388 186.359 235.388C189.094 235.388 191.717 234.736 193.651 233.575C195.585 232.415 196.672 230.841 196.672 229.2C196.672 227.559 195.585 225.985 193.651 224.825C191.717 223.665 189.094 223.013 186.359 223.013C183.624 223.013 181.001 223.665 179.067 224.825C177.133 225.985 176.047 227.559 176.047 229.2Z" fill="#FFB59E"/>
<path d="M298.559 229.2C298.559 230.841 299.645 232.415 301.579 233.575C303.513 234.736 306.136 235.388 308.871 235.388C311.606 235.388 314.229 234.736 316.163 233.575C318.097 232.415 319.184 230.841 319.184 229.2C319.184 227.559 318.097 225.985 316.163 224.825C314.229 223.665 311.606 223.013 308.871 223.013C306.136 223.013 303.513 223.665 301.579 224.825C299.645 225.985 298.559 227.559 298.559 229.2Z" fill="#FFB59E"/>
</svg>
