<svg width="496" height="496" viewBox="0 0 496 496" fill="none" xmlns="http://www.w3.org/2000/svg">
<path d="M256.141 316.852C288.699 316.852 319.923 329.785 342.945 352.807C365.967 375.829 378.901 407.054 378.901 439.612V459.245H133.381V439.612C133.381 407.054 146.314 375.829 169.336 352.807C192.358 329.785 223.583 316.852 256.141 316.852V316.852Z" fill="white"/>
<path d="M256.141 316.852C223.583 316.852 192.358 329.785 169.336 352.807C146.314 375.829 133.381 407.054 133.381 439.612V459.245H134.518C138.546 429.849 153.085 402.906 175.444 383.402C197.803 363.898 226.47 353.152 256.141 353.152C285.812 353.152 314.478 363.898 336.838 383.402C359.197 402.906 373.736 429.849 377.764 459.245H378.901V439.612C378.901 407.054 365.967 375.829 342.945 352.807C319.923 329.785 288.699 316.852 256.141 316.852Z" fill="#F0F0F0"/>
<path d="M256.141 316.852C288.699 316.852 319.923 329.785 342.945 352.807C365.967 375.829 378.901 407.054 378.901 439.612V459.245H133.381V439.612C133.381 407.054 146.314 375.829 169.336 352.807C192.358 329.785 223.583 316.852 256.141 316.852V316.852Z" stroke="#45413C" stroke-width="7" stroke-linecap="round" stroke-linejoin="round"/>
<path d="M207.471 341.962C207.471 351.663 212.598 360.968 221.726 367.828C230.853 374.688 243.233 378.542 256.141 378.542C269.049 378.542 281.428 374.688 290.556 367.828C299.683 360.968 304.811 351.663 304.811 341.962C304.811 332.26 299.683 322.956 290.556 316.096C281.428 309.236 269.049 305.382 256.141 305.382C243.233 305.382 230.853 309.236 221.726 316.096C212.598 322.956 207.471 332.26 207.471 341.962V341.962Z" fill="#00DBA8"/>
<path d="M256.141 305.381C246.738 304.754 237.353 306.846 229.107 311.409C220.861 315.971 214.103 322.811 209.641 331.111C214.079 339.439 220.829 346.308 229.078 350.891C237.327 355.474 246.725 357.576 256.141 356.945C265.556 357.576 274.954 355.474 283.203 350.891C291.452 346.308 298.202 339.439 302.641 331.111C298.178 322.811 291.42 315.971 283.174 311.409C274.928 306.846 265.544 304.754 256.141 305.381V305.381Z" fill="#00AD85"/>
<path d="M207.471 341.962C207.471 351.663 212.598 360.968 221.726 367.828C230.853 374.688 243.233 378.542 256.141 378.542C269.049 378.542 281.428 374.688 290.556 367.828C299.683 360.968 304.811 351.663 304.811 341.962C304.811 332.26 299.683 322.956 290.556 316.096C281.428 309.236 269.049 305.382 256.141 305.382C243.233 305.382 230.853 309.236 221.726 316.096C212.598 322.956 207.471 332.26 207.471 341.962V341.962Z" stroke="#45413C" stroke-width="7" stroke-linecap="round" stroke-linejoin="round"/>
<path d="M256.139 274.898C252.684 274.898 249.263 275.581 246.071 276.906C242.88 278.232 239.982 280.174 237.544 282.622C235.105 285.071 233.174 287.976 231.861 291.173C230.548 294.369 229.879 297.793 229.893 301.248V330.595C229.893 337.556 232.658 344.232 237.58 349.154C242.502 354.076 249.178 356.842 256.139 356.842C263.101 356.842 269.776 354.076 274.699 349.154C279.621 344.232 282.386 337.556 282.386 330.595V301.248C282.4 297.793 281.731 294.369 280.418 291.173C279.105 287.976 277.174 285.071 274.735 282.622C272.297 280.174 269.399 278.232 266.208 276.906C263.016 275.581 259.595 274.898 256.139 274.898V274.898Z" fill="#FFCEBF"/>
<path d="M256.141 274.898C249.18 274.898 242.504 277.664 237.582 282.586C232.66 287.508 229.895 294.184 229.895 301.145V307.345C229.895 314.306 232.66 320.982 237.582 325.904C242.504 330.826 249.18 333.592 256.141 333.592C263.102 333.592 269.778 330.826 274.7 325.904C279.623 320.982 282.388 314.306 282.388 307.345V301.248C282.401 297.793 281.733 294.369 280.42 291.173C279.107 287.976 277.176 285.071 274.737 282.622C272.298 280.174 269.4 278.232 266.209 276.906C263.018 275.581 259.597 274.898 256.141 274.898V274.898Z" fill="#FFB59E"/>
<path d="M256.139 274.898C252.684 274.898 249.263 275.581 246.071 276.906C242.88 278.232 239.982 280.174 237.544 282.622C235.105 285.071 233.174 287.976 231.861 291.173C230.548 294.369 229.879 297.793 229.893 301.248V330.595C229.893 337.556 232.658 344.232 237.58 349.154C242.502 354.076 249.178 356.842 256.139 356.842C263.101 356.842 269.776 354.076 274.699 349.154C279.621 344.232 282.386 337.556 282.386 330.595V301.248C282.4 297.793 281.731 294.369 280.418 291.173C279.105 287.976 277.174 285.071 274.735 282.622C272.297 280.174 269.399 278.232 266.208 276.906C263.016 275.581 259.595 274.898 256.139 274.898V274.898Z" stroke="#45413C" stroke-width="7" stroke-linecap="round" stroke-linejoin="round"/>
<path d="M184.428 459.245V434.342" stroke="#45413C" stroke-width="7" stroke-linecap="round" stroke-linejoin="round"/>
<path d="M327.854 459.245V434.238" stroke="#45413C" stroke-width="7" stroke-linecap="round" stroke-linejoin="round"/>
<path d="M277.84 377.405C282.991 384.417 290.224 389.624 298.507 392.285C311.94 396.005 320.62 390.425 326.407 394.042C317.933 370.689 297.887 358.599 285.073 364.489C272.26 370.379 277.84 377.405 277.84 377.405Z" fill="#00DBA8" stroke="#45413C" stroke-width="7" stroke-linecap="round" stroke-linejoin="round"/>
<path d="M266.474 377.818C262.027 387.065 260.617 397.481 262.444 407.578C266.164 423.388 276.601 429.175 276.187 437.132C295.407 415.432 296.854 388.152 283.421 378.232C269.987 368.312 266.474 377.818 266.474 377.818Z" fill="#00DBA8" stroke="#45413C" stroke-width="7" stroke-linecap="round" stroke-linejoin="round"/>
<path d="M256.141 356.945C259.81 358.789 262.756 361.808 264.511 365.521C265.782 369.498 266.444 373.643 266.474 377.818C269.485 379.148 272.741 379.834 276.032 379.834C279.324 379.834 282.579 379.148 285.591 377.818C287.715 376.458 289.538 374.676 290.944 372.582C292.351 370.489 293.312 368.128 293.767 365.647C294.223 363.166 294.163 360.617 293.592 358.161C293.021 355.704 291.95 353.39 290.447 351.365C283.421 342.271 268.231 340.205 256.141 356.945Z" fill="#00DBA8" stroke="#45413C" stroke-width="7" stroke-linecap="round" stroke-linejoin="round"/>
<path d="M256.139 65.6484C247.634 65.6564 239.163 66.7326 230.926 68.8518C211.706 73.1918 186.699 80.4251 164.069 76.0851C163.188 81.9137 163.503 87.8608 164.995 93.5636C166.487 99.2665 169.126 104.606 172.749 109.255C160.96 126.248 154.65 146.44 154.666 167.122V220.235H357.613V167.122C357.613 140.209 346.922 114.399 327.892 95.3693C308.862 76.3393 283.052 65.6484 256.139 65.6484V65.6484Z" fill="#A86C4D" stroke="#45413C" stroke-width="7" stroke-linecap="round" stroke-linejoin="round"/>
<path d="M368.463 212.485C367.96 208.691 366.318 205.138 363.754 202.297C361.189 199.455 357.823 197.459 354.099 196.572L348.003 194.919C343.511 193.65 339.56 190.94 336.759 187.206C333.959 183.471 332.463 178.92 332.503 174.252V153.172C332.491 148.911 331.079 144.771 328.484 141.392C325.888 138.012 322.253 135.579 318.139 134.469C298.435 142.335 277.352 146.165 256.139 145.732C234.927 146.165 213.844 142.335 194.139 134.469C190.006 135.56 186.348 137.985 183.733 141.366C181.117 144.747 179.69 148.897 179.673 153.172V174.459C179.713 179.126 178.217 183.678 175.416 187.412C172.615 191.146 168.665 193.857 164.173 195.125L158.076 196.779C154.353 197.666 150.986 199.662 148.422 202.504C145.857 205.345 144.215 208.898 143.713 212.692C143.437 215.308 143.715 217.953 144.531 220.454C145.346 222.955 146.68 225.255 148.445 227.206C150.21 229.156 152.367 230.712 154.774 231.773C157.182 232.833 159.786 233.373 162.416 233.359H163.553C165.971 256.201 176.757 277.341 193.832 292.705C210.908 308.069 233.066 316.569 256.036 316.569C279.006 316.569 301.164 308.069 318.24 292.705C335.316 277.341 346.101 256.201 348.519 233.359H349.656C352.315 233.391 354.95 232.857 357.385 231.791C359.821 230.725 362.001 229.152 363.781 227.176C365.561 225.201 366.899 222.869 367.706 220.336C368.513 217.802 368.771 215.126 368.463 212.485V212.485Z" fill="#FFCEBF" stroke="#45413C" stroke-width="7" stroke-linecap="round" stroke-linejoin="round"/>
<path d="M200.03 210.315C200.03 211.888 200.497 213.427 201.371 214.735C202.245 216.044 203.488 217.064 204.942 217.666C206.396 218.268 207.995 218.426 209.539 218.119C211.082 217.812 212.5 217.054 213.613 215.941C214.726 214.828 215.483 213.41 215.79 211.867C216.097 210.324 215.94 208.724 215.338 207.27C214.735 205.816 213.716 204.573 212.407 203.699C211.099 202.825 209.56 202.358 207.987 202.358C206.938 202.344 205.897 202.541 204.925 202.935C203.954 203.33 203.071 203.916 202.329 204.658C201.588 205.399 201.002 206.282 200.607 207.254C200.212 208.225 200.016 209.266 200.03 210.315V210.315Z" fill="#45413C" stroke="#45413C" stroke-width="7" stroke-linecap="round" stroke-linejoin="round"/>
<path d="M312.251 210.315C312.251 211.888 311.785 213.427 310.91 214.735C310.036 216.044 308.793 217.064 307.339 217.666C305.886 218.268 304.286 218.426 302.742 218.119C301.199 217.812 299.781 217.054 298.668 215.941C297.556 214.828 296.798 213.41 296.491 211.867C296.184 210.324 296.341 208.724 296.944 207.27C297.546 205.816 298.566 204.573 299.874 203.699C301.183 202.825 302.721 202.358 304.295 202.358C305.343 202.344 306.384 202.541 307.356 202.935C308.327 203.33 309.21 203.916 309.952 204.658C310.693 205.399 311.279 206.282 311.674 207.254C312.069 208.225 312.265 209.266 312.251 210.315V210.315Z" fill="#45413C" stroke="#45413C" stroke-width="7" stroke-linecap="round" stroke-linejoin="round"/>
<path d="M226.793 258.778C226.139 258.792 225.496 258.947 224.907 259.233C224.319 259.518 223.799 259.927 223.383 260.432C222.95 260.918 222.633 261.496 222.454 262.122C222.275 262.748 222.24 263.407 222.35 264.048C223.745 271.997 227.898 279.199 234.078 284.389C240.258 289.579 248.07 292.423 256.14 292.423C264.21 292.423 272.021 289.579 278.202 284.389C284.382 279.199 288.534 271.997 289.93 264.048C290.04 263.407 290.004 262.748 289.825 262.122C289.646 261.496 289.329 260.918 288.896 260.432C288.48 259.927 287.96 259.518 287.372 259.233C286.783 258.947 286.14 258.792 285.486 258.778H226.793Z" fill="#FF6242"/>
<path d="M256.14 273.245C246.81 272.881 237.632 275.685 230.1 281.202C233.356 284.828 237.339 287.728 241.79 289.714C246.24 291.699 251.059 292.725 255.933 292.725C260.806 292.725 265.625 291.699 270.076 289.714C274.527 287.728 278.51 284.828 281.766 281.202C274.347 275.774 265.329 272.974 256.14 273.245Z" fill="#FFA694"/>
<path d="M226.793 258.778C226.139 258.792 225.496 258.947 224.907 259.233C224.319 259.518 223.799 259.927 223.383 260.432C222.95 260.918 222.633 261.496 222.454 262.122C222.275 262.748 222.24 263.407 222.35 264.048C223.745 271.997 227.898 279.199 234.078 284.389C240.258 289.579 248.07 292.423 256.14 292.423C264.21 292.423 272.021 289.579 278.202 284.389C284.382 279.199 288.534 271.997 289.93 264.048C290.04 263.407 290.004 262.748 289.825 262.122C289.646 261.496 289.329 260.918 288.896 260.432C288.48 259.927 287.96 259.518 287.372 259.233C286.783 258.947 286.14 258.792 285.486 258.778H226.793Z" stroke="#45413C" stroke-width="7" stroke-linecap="round" stroke-linejoin="round"/>
<path d="M184.428 244.209C184.428 245.853 185.516 247.43 187.454 248.593C189.392 249.756 192.02 250.409 194.761 250.409C197.502 250.409 200.13 249.756 202.068 248.593C204.006 247.43 205.094 245.853 205.094 244.209C205.094 242.564 204.006 240.987 202.068 239.825C200.13 238.662 197.502 238.009 194.761 238.009C192.02 238.009 189.392 238.662 187.454 239.825C185.516 240.987 184.428 242.564 184.428 244.209Z" fill="#FFB59E"/>
<path d="M307.188 244.209C307.188 245.853 308.276 247.43 310.214 248.593C312.152 249.756 314.78 250.409 317.521 250.409C320.261 250.409 322.89 249.756 324.828 248.593C326.765 247.43 327.854 245.853 327.854 244.209C327.854 242.564 326.765 240.987 324.828 239.825C322.89 238.662 320.261 238.009 317.521 238.009C314.78 238.009 312.152 238.662 310.214 239.825C308.276 240.987 307.188 242.564 307.188 244.209Z" fill="#FFB59E"/>
<path d="M149.396 176.732C149.396 165.779 197.136 156.892 256.14 156.892C315.143 156.892 362.883 165.779 362.883 176.732L359.473 137.052C359.473 126.099 313.18 117.315 256.14 117.315C199.1 117.315 152.806 126.099 152.806 137.052L149.396 176.732Z" fill="#8CA4B8"/>
<path d="M256.14 117.315C199.1 117.315 152.806 126.099 152.806 137.052L149.396 176.112C151.153 165.779 198.273 156.892 256.14 156.892H272.776C293.071 148.718 311.887 137.268 328.473 122.999C304.577 118.976 280.371 117.074 256.14 117.315V117.315Z" fill="#627B8C"/>
<path d="M149.396 176.732C149.396 165.779 197.136 156.892 256.14 156.892C315.143 156.892 362.883 165.779 362.883 176.732L359.473 137.052C359.473 126.099 313.18 117.315 256.14 117.315C199.1 117.315 152.806 126.099 152.806 137.052L149.396 176.732Z" stroke="#45413C" stroke-width="7" stroke-linecap="round" stroke-linejoin="round"/>
<path d="M372.804 87.2449C350.897 52.1115 295.51 43.0182 256.14 45.9115C209.96 51.3422 165.856 68.1742 127.8 94.8915C109.82 107.912 103.517 121.758 108.787 129.922C119.844 150.588 178.537 155.445 268.437 117.418C320.104 118.555 359.474 126.925 359.474 137.052C359.474 137.052 392.23 117.315 372.804 87.2449Z" fill="#8CA4B8"/>
<path d="M112.714 134.882C117.015 129.354 122.097 124.481 127.8 120.415C165.886 93.8076 209.988 77.0831 256.14 71.7449C295.51 68.5415 350.897 77.6349 372.804 112.252C374.104 114.206 375.212 116.282 376.11 118.452C378.385 113.426 379.279 107.885 378.697 102.399C378.116 96.9131 376.081 91.6818 372.804 87.2449C350.897 52.1115 295.51 43.0182 256.14 45.9115C209.96 51.3422 165.856 68.1742 127.8 94.8915C109.82 107.912 103.517 121.758 108.787 129.922C109.848 131.757 111.17 133.428 112.714 134.882V134.882Z" fill="#ADC4D9"/>
<path d="M372.804 87.2449C350.897 52.1115 295.51 43.0182 256.14 45.9115C209.96 51.3422 165.856 68.1742 127.8 94.8915C109.82 107.912 103.517 121.758 108.787 129.922C119.844 150.588 178.537 155.445 268.437 117.418C320.104 118.555 359.474 126.925 359.474 137.052C359.474 137.052 392.23 117.315 372.804 87.2449Z" stroke="#45413C" stroke-width="7" stroke-linecap="round" stroke-linejoin="round"/>
<path d="M268.438 117.419C282.284 111.529 296.957 104.605 312.251 96.752" stroke="#45413C" stroke-width="7" stroke-linecap="round" stroke-linejoin="round"/>
<path d="M239.088 48.2635C239.263 49.7321 239.878 51.1336 240.897 52.3879C241.915 53.6422 243.317 54.7248 245.023 55.5739C246.729 56.4229 248.705 57.0218 250.839 57.3363C252.973 57.6508 255.222 57.6748 257.459 57.4069C259.695 57.139 261.875 56.5845 263.874 55.775C265.873 54.9655 267.652 53.9168 269.109 52.6889C270.567 51.461 271.673 50.0779 272.367 48.6186C273.06 47.1592 273.327 45.6522 273.151 44.1836C272.975 42.715 272.36 41.3135 271.342 40.0592C270.323 38.8049 268.921 37.7223 267.215 36.8732C265.509 36.0242 263.533 35.4253 261.399 35.1108C259.266 34.7962 257.016 34.7722 254.78 35.0401C252.543 35.308 250.363 35.8626 248.364 36.6721C246.365 37.4816 244.586 38.5302 243.129 39.7581C241.672 40.986 240.565 42.3691 239.871 43.8285C239.178 45.2878 238.912 46.7949 239.088 48.2635V48.2635Z" fill="#627B8C" stroke="#45413C" stroke-width="7" stroke-linecap="round" stroke-linejoin="round"/>
<path d="M83.0573 459.246C83.0573 459.246 14.3406 380.919 73.5506 371.929C137.721 362.319 207.884 459.246 207.884 459.246H83.0573Z" fill="#DEBB7E"/>
<path d="M73.5503 401.379C114.057 395.282 156.734 431.552 182.774 459.246H207.47C207.47 459.246 137.72 362.319 73.137 371.929C46.8903 375.959 45.7537 393.422 52.4703 411.816C55.0262 408.662 58.2326 406.097 61.8706 404.295C65.5087 402.494 69.4926 401.499 73.5503 401.379V401.379Z" fill="#F0D5A8"/>
<path d="M83.0573 459.246C83.0573 459.246 14.3406 380.919 73.5506 371.929C137.721 362.319 207.884 459.246 207.884 459.246H83.0573Z" stroke="#45413C" stroke-width="7" stroke-linecap="round" stroke-linejoin="round"/>
<path d="M95.843 408.262C97.7445 409.592 99.7638 410.714 101.785 411.564C103.807 412.414 105.792 412.976 107.626 413.216C109.46 413.457 111.107 413.372 112.474 412.967C113.842 412.561 114.902 411.843 115.594 410.854C116.286 409.864 116.597 408.622 116.509 407.199C116.421 405.775 115.935 404.199 115.08 402.558C114.225 400.918 113.017 399.247 111.525 397.639C110.033 396.032 108.287 394.52 106.385 393.19C104.484 391.86 102.464 390.738 100.443 389.888C98.4211 389.038 96.4366 388.477 94.6025 388.236C92.7685 387.995 91.1209 388.08 89.7537 388.485C88.3865 388.891 87.3265 389.609 86.6343 390.599C85.9421 391.588 85.6312 392.83 85.7194 394.253C85.8075 395.677 86.293 397.253 87.1481 398.894C88.0033 400.534 89.2112 402.206 90.7031 403.813C92.1949 405.42 93.9415 406.932 95.843 408.262V408.262Z" fill="#FF6242" stroke="#45413C" stroke-width="7" stroke-linecap="round" stroke-linejoin="round"/>
<path d="M143.581 433.543C147.422 436.229 151.66 438.011 155.364 438.496C159.068 438.982 161.934 438.133 163.332 436.134C164.73 434.135 164.545 431.151 162.818 427.839C161.091 424.526 157.964 421.156 154.123 418.47C150.283 415.784 146.045 414.002 142.341 413.516C138.637 413.03 135.771 413.88 134.373 415.879C132.975 417.878 133.159 420.861 134.886 424.174C136.613 427.487 139.741 430.857 143.581 433.543Z" fill="#FFE500" stroke="#45413C" stroke-width="7" stroke-linecap="round" stroke-linejoin="round"/>
<path d="M411.554 369.759L389.854 364.385L404.837 292.672L431.6 299.285L411.554 369.759Z" fill="#DAEDF7" stroke="#45413C" stroke-width="7" stroke-linecap="round" stroke-linejoin="round"/>
<path d="M389.832 364.33L411.607 369.683L391.258 452.468L369.483 447.116L389.832 364.33Z" fill="#BF8256" stroke="#45413C" stroke-width="7" stroke-linecap="round" stroke-linejoin="round"/>
<path d="M404.837 292.671C398.12 279.858 406.697 264.151 416.514 256.091C422.767 251.302 427.329 244.64 429.534 237.078C435.659 241.339 440.407 247.294 443.197 254.214C445.987 261.134 446.697 268.717 445.24 276.035C444.646 280.605 443.153 285.012 440.847 289.002C438.542 292.993 435.469 296.487 431.807 299.285L404.837 292.671Z" fill="#FFF5E3" stroke="#45413C" stroke-width="7" stroke-linecap="round" stroke-linejoin="round"/>
<path d="M408.35 265.081C413.648 268.121 419.355 270.383 425.296 271.798C432.046 273.493 439.024 274.086 445.963 273.555C446.823 266.575 445.768 259.492 442.91 253.066C440.052 246.641 435.499 241.114 429.74 237.078C427.535 244.64 422.973 251.302 416.72 256.091C413.488 258.644 410.665 261.676 408.35 265.081Z" fill="#FF6242" stroke="#45413C" stroke-width="7" stroke-linecap="round" stroke-linejoin="round"/>
<path d="M372.083 369.044C376.181 370.051 379.712 372.646 381.897 376.256C384.083 379.866 384.745 384.197 383.737 388.296L367.137 455.829C360.91 454.298 355.545 450.356 352.224 444.87C348.903 439.384 347.897 432.803 349.428 426.576L362.18 374.697C362.697 372.594 364.028 370.783 365.88 369.662C367.732 368.541 369.954 368.201 372.056 368.718L372.083 369.044Z" fill="#FFCEBF"/>
<path d="M372.081 369.035C371.009 368.693 369.877 368.579 368.758 368.701C367.64 368.822 366.559 369.177 365.586 369.741C364.612 370.306 363.768 371.068 363.107 371.978C362.446 372.889 361.983 373.928 361.748 375.028L356.994 394.248C357.244 393.156 357.715 392.126 358.38 391.224C359.044 390.322 359.888 389.566 360.857 389.004C361.826 388.442 362.901 388.085 364.014 387.956C365.128 387.827 366.255 387.929 367.327 388.255C369.373 388.739 371.303 389.625 373.002 390.863C374.701 392.101 376.136 393.665 377.224 395.465C378.311 397.264 379.028 399.262 379.334 401.342C379.64 403.422 379.528 405.542 379.004 407.578L383.757 388.358C384.267 386.323 384.368 384.206 384.056 382.131C383.744 380.056 383.025 378.063 381.939 376.267C380.854 374.471 379.424 372.908 377.732 371.667C376.041 370.425 374.12 369.531 372.081 369.035Z" fill="#FFDCD1"/>
<path d="M372.083 369.044C376.181 370.051 379.712 372.646 381.897 376.256C384.083 379.866 384.745 384.197 383.737 388.296L367.137 455.829C360.91 454.298 355.545 450.356 352.224 444.87C348.903 439.384 347.897 432.803 349.428 426.576L362.18 374.697C362.697 372.594 364.028 370.783 365.88 369.662C367.732 368.541 369.954 368.201 372.056 368.718L372.083 369.044Z" stroke="#45413C" stroke-width="7" stroke-linecap="round" stroke-linejoin="round"/>
<path d="M410.107 393.009L390.473 388.049C387.452 387.288 384.252 387.745 381.564 389.321C378.876 390.896 376.914 393.464 376.101 396.472C375.288 399.48 375.689 402.687 377.218 405.402C378.746 408.118 381.28 410.124 384.273 410.989C381.31 410.58 378.302 411.303 375.849 413.015C373.396 414.726 371.679 417.299 371.04 420.221C370.401 423.143 370.887 426.198 372.401 428.778C373.916 431.357 376.347 433.27 379.21 434.136C377.69 433.762 376.112 433.692 374.565 433.929C373.018 434.166 371.533 434.705 370.194 435.516C368.855 436.327 367.69 437.393 366.763 438.655C365.837 439.916 365.168 441.347 364.795 442.867C364.422 444.387 364.352 445.966 364.588 447.512C364.825 449.059 365.365 450.545 366.175 451.883C366.986 453.222 368.053 454.387 369.314 455.314C370.575 456.24 372.007 456.909 373.527 457.282L393.47 462.139C399.293 463.575 405.449 462.64 410.583 459.539C415.718 456.439 419.412 451.428 420.853 445.606L427.053 420.392C428.489 414.569 427.554 408.413 424.454 403.279C421.354 398.144 416.342 394.45 410.52 393.009H410.107Z" fill="#FFCEBF"/>
<path d="M410.107 393.009L390.473 388.049C388.954 387.68 387.376 387.614 385.83 387.856C384.285 388.098 382.802 388.642 381.468 389.458C380.134 390.274 378.973 391.346 378.054 392.611C377.135 393.876 376.474 395.311 376.11 396.832C375.539 398.824 375.539 400.937 376.11 402.929C377.53 401.432 379.315 400.33 381.29 399.732C383.265 399.134 385.362 399.061 387.373 399.519L407.42 404.479C410.299 405.181 413.011 406.444 415.401 408.196C417.791 409.948 419.811 412.154 421.347 414.688C422.883 417.223 423.904 420.035 424.351 422.964C424.798 425.893 424.663 428.882 423.953 431.759L426.743 420.392C427.453 417.502 427.585 414.5 427.132 411.558C426.68 408.616 425.651 405.793 424.106 403.249C422.56 400.706 420.528 398.492 418.126 396.735C415.724 394.978 412.999 393.711 410.107 393.009V393.009Z" fill="#FFDCD1"/>
<path d="M410.107 393.009L390.473 388.049C387.452 387.288 384.252 387.745 381.564 389.321C378.876 390.896 376.914 393.464 376.101 396.472C375.288 399.48 375.689 402.687 377.218 405.402C378.746 408.118 381.28 410.124 384.273 410.989C381.31 410.58 378.302 411.303 375.849 413.015C373.396 414.726 371.679 417.299 371.04 420.221C370.401 423.143 370.887 426.198 372.401 428.778C373.916 431.357 376.347 433.27 379.21 434.136C377.69 433.762 376.112 433.692 374.565 433.929C373.018 434.166 371.533 434.705 370.194 435.516C368.855 436.327 367.69 437.393 366.763 438.655C365.837 439.916 365.168 441.347 364.795 442.867C364.422 444.387 364.352 445.966 364.588 447.512C364.825 449.059 365.365 450.545 366.175 451.883C366.986 453.222 368.053 454.387 369.314 455.314C370.575 456.24 372.007 456.909 373.527 457.282L393.47 462.139C399.293 463.575 405.449 462.64 410.583 459.539C415.718 456.439 419.412 451.428 420.853 445.606L427.053 420.392C428.489 414.569 427.554 408.413 424.454 403.279C421.354 398.144 416.342 394.45 410.52 393.009H410.107Z" stroke="#45413C" stroke-width="7" stroke-linecap="round" stroke-linejoin="round"/>
</svg>
