<svg width="495" height="495" viewBox="0 0 495 495" fill="none" xmlns="http://www.w3.org/2000/svg">
<path d="M444.382 332.597V383.334C444.382 423.862 356.004 456.656 247 456.656C137.997 456.656 49.6191 423.862 49.6191 383.334V332.597H444.382Z" fill="#DEBB7E"/>
<path d="M49.6191 355.181C49.6191 395.606 137.997 428.503 247 428.503C356.004 428.503 444.382 395.606 444.382 355.181V332.597H49.6191V355.181Z" fill="#B89558"/>
<path d="M444.382 332.597V383.334C444.382 423.862 356.004 456.656 247 456.656C137.997 456.656 49.6191 423.862 49.6191 383.334V332.597H444.382Z" stroke="#45413C" stroke-width="7" stroke-linecap="round" stroke-linejoin="round"/>
<path d="M247 399.938C490.169 399.938 484.188 321.047 455.622 276.188C427.469 236.794 362.191 202.969 247 202.969C131.81 202.969 66.5315 236.794 38.3783 276.188C9.8127 321.356 3.83145 399.938 247 399.938Z" fill="#BF8256" stroke="#45413C" stroke-width="7" stroke-linecap="round" stroke-linejoin="round"/>
<path d="M444.381 253.706C444.381 253.706 478.206 264.947 478.206 298.772C478.206 332.597 433.037 304.444 416.331 315.684C399.625 326.925 412.103 352.809 388.178 360.853C354.353 372.094 336.616 339.506 314.856 343.94C286.703 349.509 297.944 377.765 247.206 377.765C196.469 377.765 207.709 349.509 179.556 343.94C157.384 339.506 140.059 372.094 106.234 360.853C82 352.809 94.7875 327.028 77.875 315.684C60.9625 304.34 16 332.597 16 298.772C16 264.947 49.825 253.706 49.825 253.706H444.381Z" fill="#6DD627" stroke="#45413C" stroke-width="7" stroke-linecap="round" stroke-linejoin="round"/>
<path d="M438.709 287.943H342.803V321.356C342.803 327.346 345.182 333.09 349.418 337.325C353.653 341.561 359.397 343.94 365.387 343.94H376.628V369C376.989 373.991 379.226 378.66 382.89 382.068C386.554 385.477 391.372 387.372 396.376 387.372C401.38 387.372 406.199 385.477 409.863 382.068C413.526 378.66 415.764 373.991 416.125 369V326.718C422.114 326.718 427.859 324.339 432.094 320.104C436.33 315.868 438.709 310.124 438.709 304.134V287.943Z" fill="#FFE500" stroke="#45413C" stroke-width="7" stroke-linecap="round" stroke-linejoin="round"/>
<path d="M247 321.356C490.169 321.356 484.188 242.362 455.622 197.606C427.469 157.8 362.191 123.975 247 123.975C131.81 123.975 66.5315 157.8 38.3783 197.296C9.8127 242.362 3.83145 321.356 247 321.356Z" fill="#BF8256" stroke="#45413C" stroke-width="7" stroke-linecap="round" stroke-linejoin="round"/>
<path d="M444.381 174.713C444.381 174.713 478.206 186.057 478.206 219.882C478.206 253.707 433.037 225.45 416.331 236.794C399.625 248.138 412.103 273.919 388.178 281.86C354.353 293.1 336.616 260.513 314.856 264.947C286.703 270.619 297.944 298.772 247.206 298.772C196.469 298.772 207.709 270.619 179.556 264.947C157.384 260.513 140.059 293.1 106.234 281.86C82 273.919 94.7875 248.035 77.875 236.794C60.9625 225.554 16 253.707 16 219.882C16 186.057 49.825 174.713 49.825 174.713H444.381Z" fill="#6DD627" stroke="#45413C" stroke-width="7" stroke-linecap="round" stroke-linejoin="round"/>
<path d="M72.2034 197.297C72.2034 197.297 53.4346 236.279 94.7878 248.035C134.285 259.275 173.678 225.45 207.503 225.45C241.328 225.45 272.988 275.363 314.65 264.947C359.716 253.707 337.235 231.122 365.388 219.882C393.541 208.641 489.138 248.035 433.038 180.385L72.2034 197.297Z" fill="#FF6242" stroke="#45413C" stroke-width="7" stroke-linecap="round" stroke-linejoin="round"/>
<path d="M275.153 231.122H179.35V259.275C179.35 265.265 181.729 271.009 185.964 275.245C190.2 279.48 195.944 281.86 201.934 281.86H213.175V307.125C212.978 309.839 213.343 312.563 214.247 315.129C215.151 317.695 216.573 320.048 218.426 322.04C220.279 324.031 222.523 325.62 225.017 326.706C227.511 327.793 230.203 328.353 232.923 328.353C235.644 328.353 238.335 327.793 240.829 326.706C243.323 325.62 245.567 324.031 247.42 322.04C249.273 320.048 250.696 317.695 251.599 315.129C252.503 312.563 252.868 309.839 252.671 307.125V264.844C258.643 264.817 264.361 262.425 268.574 258.193C272.788 253.96 275.153 248.231 275.153 242.26V231.122Z" fill="#FFE500" stroke="#45413C" stroke-width="7" stroke-linecap="round" stroke-linejoin="round"/>
<path d="M444.382 169.144C444.382 209.569 356.004 242.362 247 242.362C137.997 242.362 49.6191 209.569 49.6191 169.144C49.6191 169.144 61.3754 39 247 39C432.625 39 444.382 169.144 444.382 169.144Z" fill="#F0D5A8"/>
<path d="M247 202.968C154.188 202.968 75.7098 178.94 55.0848 146.662C52.4442 153.933 50.6113 161.472 49.6191 169.143C49.6191 209.568 137.997 242.362 247 242.362C356.004 242.362 444.382 209.568 444.382 169.143C443.389 161.472 441.557 153.933 438.916 146.662C418.291 178.94 339.813 202.968 247 202.968Z" fill="#DEBB7E"/>
<path d="M444.382 169.144C444.382 209.569 356.004 242.362 247 242.362C137.997 242.362 49.6191 209.569 49.6191 169.144C49.6191 169.144 61.3754 39 247 39C432.625 39 444.382 169.144 444.382 169.144Z" stroke="#45413C" stroke-width="7" stroke-linecap="round" stroke-linejoin="round"/>
<path d="M131.294 99.1222C128.408 99.9017 125.95 101.796 124.461 104.387C122.972 106.979 122.573 110.055 123.353 112.941C124.132 115.826 126.026 118.284 128.618 119.773C131.209 121.262 134.286 121.661 137.172 120.882L148.103 117.994C149.532 117.608 150.87 116.945 152.043 116.041C153.215 115.138 154.198 114.012 154.935 112.729C155.673 111.446 156.15 110.03 156.34 108.563C156.53 107.095 156.43 105.604 156.044 104.175C155.658 102.747 154.994 101.408 154.091 100.236C153.187 99.0633 152.062 98.0804 150.779 97.3431C149.496 96.6057 148.08 96.1283 146.612 95.9382C145.144 95.748 143.654 95.8488 142.225 96.2347L131.294 99.1222Z" fill="#DEBB7E" stroke="#45413C" stroke-width="7" stroke-linecap="round" stroke-linejoin="round"/>
<path d="M197.294 129.647C196.063 132.382 195.969 135.494 197.033 138.298C198.097 141.102 200.231 143.369 202.966 144.6C205.701 145.831 208.813 145.925 211.617 144.861C214.421 143.797 216.688 141.663 217.919 138.928L222.56 128.616C223.176 127.261 223.519 125.799 223.57 124.312C223.621 122.825 223.379 121.343 222.857 119.949C222.335 118.556 221.544 117.279 220.528 116.192C219.513 115.104 218.293 114.227 216.939 113.611C215.585 112.995 214.123 112.651 212.636 112.6C211.149 112.549 209.666 112.792 208.273 113.314C206.88 113.836 205.603 114.627 204.515 115.642C203.428 116.657 202.551 117.877 201.935 119.231L197.294 129.647Z" fill="#DEBB7E" stroke="#45413C" stroke-width="7" stroke-linecap="round" stroke-linejoin="round"/>
<path d="M362.706 99.1222C364.135 99.5082 365.474 100.172 366.646 101.075C367.818 101.978 368.801 103.104 369.539 104.387C370.276 105.67 370.753 107.086 370.944 108.554C371.134 110.021 371.033 111.512 370.647 112.941C370.261 114.37 369.597 115.708 368.694 116.881C367.791 118.053 366.665 119.036 365.382 119.773C364.099 120.511 362.683 120.988 361.215 121.178C359.748 121.368 358.257 121.268 356.828 120.882L345.897 117.994C344.468 117.608 343.13 116.945 341.957 116.041C340.785 115.138 339.802 114.012 339.065 112.729C338.327 111.446 337.85 110.03 337.66 108.563C337.47 107.095 337.57 105.604 337.956 104.175C338.342 102.747 339.006 101.408 339.909 100.236C340.813 99.0633 341.938 98.0804 343.221 97.3431C344.504 96.6057 345.92 96.1283 347.388 95.9382C348.856 95.748 350.346 95.8488 351.775 96.2347L362.706 99.1222Z" fill="#DEBB7E" stroke="#45413C" stroke-width="7" stroke-linecap="round" stroke-linejoin="round"/>
<path d="M296.706 129.647C297.315 131.001 297.652 132.462 297.697 133.947C297.741 135.431 297.493 136.91 296.967 138.298C296.44 139.687 295.645 140.958 294.627 142.039C293.609 143.121 292.388 143.991 291.034 144.6C289.68 145.21 288.219 145.546 286.734 145.591C285.25 145.636 283.771 145.388 282.383 144.861C280.994 144.334 279.723 143.539 278.642 142.521C277.56 141.503 276.69 140.282 276.081 138.928L271.44 128.616C270.824 127.261 270.481 125.799 270.43 124.312C270.378 122.825 270.621 121.343 271.143 119.949C272.197 117.135 274.325 114.855 277.06 113.611C278.415 112.995 279.877 112.651 281.364 112.6C282.851 112.549 284.333 112.792 285.727 113.314C288.541 114.368 290.821 116.496 292.065 119.231L296.706 129.647Z" fill="#DEBB7E" stroke="#45413C" stroke-width="7" stroke-linecap="round" stroke-linejoin="round"/>
</svg>
