<svg width="495" height="495" viewBox="0 0 495 495" fill="none" xmlns="http://www.w3.org/2000/svg">
<path d="M325.255 318.404L247.498 289.116L169.742 318.713C156.557 323.744 145.21 332.659 137.2 344.277C129.19 355.896 124.895 369.673 124.883 383.785V443.804H370.114V383.476C370.102 369.363 365.807 355.587 357.797 343.968C349.787 332.349 338.44 323.435 325.255 318.404V318.404Z" fill="#656769"/>
<path d="M325.255 318.404L247.498 289.116L169.742 318.713C156.557 323.744 145.21 332.659 137.2 344.277C129.19 355.896 124.895 369.673 124.883 383.785V414.722C124.895 400.61 129.19 386.834 137.2 375.215C145.21 363.596 156.557 354.682 169.742 349.651L247.498 320.054L325.255 349.651C338.44 354.682 349.787 363.596 357.797 375.215C365.807 386.834 370.102 400.61 370.114 414.722V383.785C370.165 369.62 365.899 355.776 357.885 344.095C349.871 332.415 338.489 323.454 325.255 318.404V318.404Z" fill="#525252"/>
<path d="M325.255 318.404L247.498 289.116L169.742 318.713C156.557 323.744 145.21 332.659 137.2 344.277C129.19 355.896 124.895 369.673 124.883 383.785V443.804H370.114V383.476C370.102 369.363 365.807 355.587 357.797 343.968C349.787 332.349 338.44 323.435 325.255 318.404V318.404Z" stroke="#45413C" stroke-width="6" stroke-linecap="round" stroke-linejoin="round"/>
<path d="M311.746 349.238L333.712 343.772L317.831 315.516L247.5 288.807L177.168 315.516L161.287 343.772L183.253 349.238L175.725 372.132L226.05 443.804H268.95L319.275 372.132L311.746 349.238Z" fill="#656769" stroke="#45413C" stroke-width="6" stroke-linecap="round" stroke-linejoin="round"/>
<path d="M247.498 289.116C247.498 289.116 195.936 289.116 195.936 318.094C196.892 339.814 204.688 360.677 218.211 377.701L247.498 352.538L277.301 377.701C290.824 360.677 298.62 339.814 299.576 318.094C299.576 289.116 247.498 289.116 247.498 289.116Z" fill="white" stroke="#45413C" stroke-width="6" stroke-linecap="round" stroke-linejoin="round"/>
<path d="M247.498 352.538L224.295 329.335C222.39 327.415 221.316 324.822 221.305 322.117V291.179C221.305 284.232 224.064 277.57 228.977 272.657C233.889 267.745 240.551 264.985 247.498 264.985V264.985C254.445 264.985 261.108 267.745 266.02 272.657C270.933 277.57 273.692 284.232 273.692 291.179V322.117C273.681 324.822 272.607 327.415 270.702 329.335L247.498 352.538Z" fill="#FFCEBF"/>
<path d="M247.498 264.985C240.551 264.985 233.889 267.745 228.977 272.657C224.064 277.57 221.305 284.232 221.305 291.179V297.263C221.305 304.211 224.064 310.873 228.977 315.785C233.889 320.698 240.551 323.457 247.498 323.457C254.445 323.457 261.108 320.698 266.02 315.785C270.933 310.873 273.692 304.211 273.692 297.263V291.179C273.692 284.232 270.933 277.57 266.02 272.657C261.108 267.745 254.445 264.985 247.498 264.985V264.985Z" fill="#FFB59E"/>
<path d="M247.498 352.538L224.295 329.335C222.39 327.415 221.316 324.822 221.305 322.117V291.179C221.305 284.232 224.064 277.57 228.977 272.657C233.889 267.745 240.551 264.985 247.498 264.985V264.985C254.445 264.985 261.108 267.745 266.02 272.657C270.933 277.57 273.692 284.232 273.692 291.179V322.117C273.681 324.822 272.607 327.415 270.702 329.335L247.498 352.538Z" stroke="#45413C" stroke-width="6" stroke-linecap="round" stroke-linejoin="round"/>
<path d="M277.302 377.701L268.639 443.804H226.048L217.695 377.701L247.498 352.538L277.302 377.701Z" fill="white" stroke="#45413C" stroke-width="6" stroke-linecap="round" stroke-linejoin="round"/>
<path d="M242.342 398.944C242.342 400.312 242.885 401.623 243.852 402.59C244.819 403.557 246.131 404.101 247.498 404.101C248.866 404.101 250.177 403.557 251.144 402.59C252.111 401.623 252.654 400.312 252.654 398.944C252.654 397.577 252.111 396.265 251.144 395.298C250.177 394.331 248.866 393.788 247.498 393.788C246.131 393.788 244.819 394.331 243.852 395.298C242.885 396.265 242.342 397.577 242.342 398.944Z" fill="#45413C"/>
<path d="M242.342 422.147C242.342 423.515 242.885 424.826 243.852 425.793C244.819 426.76 246.131 427.304 247.498 427.304C248.866 427.304 250.177 426.76 251.144 425.793C252.111 424.826 252.654 423.515 252.654 422.147C252.654 420.78 252.111 419.468 251.144 418.501C250.177 417.534 248.866 416.991 247.498 416.991C246.131 416.991 244.819 417.534 243.852 418.501C242.885 419.468 242.342 420.78 242.342 422.147Z" fill="#45413C"/>
<path d="M247.499 364.913L216.562 346.247C214.705 345.126 212.586 344.513 210.417 344.468C208.249 344.424 206.107 344.951 204.206 345.995C202.305 347.04 200.712 348.565 199.586 350.42C198.461 352.274 197.842 354.391 197.793 356.56V372.132C197.852 374.285 198.473 376.385 199.593 378.225C200.713 380.065 202.294 381.58 204.179 382.622C206.064 383.664 208.189 384.195 210.342 384.164C212.496 384.133 214.604 383.54 216.459 382.444L247.499 364.913Z" fill="#009FD9" stroke="#45413C" stroke-width="6" stroke-linecap="round" stroke-linejoin="round"/>
<path d="M221.1 364.913H247.5" stroke="#45413C" stroke-width="6" stroke-linecap="round" stroke-linejoin="round"/>
<path d="M247.498 364.913L278.436 346.247C280.292 345.126 282.411 344.513 284.58 344.468C286.748 344.424 288.891 344.951 290.792 345.995C292.693 347.04 294.286 348.565 295.411 350.42C296.537 352.274 297.155 354.391 297.204 356.56V372.132C297.135 374.27 296.513 376.353 295.398 378.179C294.284 380.004 292.715 381.51 290.846 382.549C288.976 383.587 286.869 384.124 284.73 384.106C282.591 384.087 280.494 383.515 278.642 382.444L247.498 364.913Z" fill="#009FD9" stroke="#45413C" stroke-width="6" stroke-linecap="round" stroke-linejoin="round"/>
<path d="M273.898 364.913H247.498" stroke="#45413C" stroke-width="6" stroke-linecap="round" stroke-linejoin="round"/>
<path d="M233.164 364.913C233.164 368.715 234.674 372.361 237.363 375.049C240.051 377.738 243.697 379.248 247.498 379.248C251.3 379.248 254.946 377.738 257.634 375.049C260.323 372.361 261.833 368.715 261.833 364.913C261.833 361.112 260.323 357.466 257.634 354.778C254.946 352.089 251.3 350.579 247.498 350.579C243.697 350.579 240.051 352.089 237.363 354.778C234.674 357.466 233.164 361.112 233.164 364.913V364.913Z" fill="#009FD9" stroke="#45413C" stroke-width="6" stroke-linecap="round" stroke-linejoin="round"/>
<path d="M247.499 51.0005C239.015 50.9737 230.562 52.0131 222.337 54.0943C203.155 58.4255 178.199 65.7474 155.615 61.4161C154.747 67.2329 155.067 73.1652 156.556 78.8548C158.045 84.5444 160.672 89.8731 164.277 94.5193C152.511 111.478 146.214 131.629 146.231 152.269V205.276H348.768V152.269C348.768 125.411 338.099 99.653 319.107 80.6614C300.115 61.6699 274.357 51.0005 247.499 51.0005V51.0005Z" fill="#A86C4D"/>
<path d="M247.498 51.0005C239.014 50.9737 230.561 52.0131 222.336 54.0943C203.155 58.4255 178.198 65.7474 155.614 61.4161C154.19 72.2348 156.677 83.2062 162.627 92.3536C182.833 92.7719 202.98 90.0229 222.336 84.2068C237.296 80.4317 252.919 80.1141 268.02 83.2781C283.121 86.4421 297.303 93.0044 309.489 102.467C321.675 111.93 331.546 124.044 338.352 137.891C345.157 151.738 348.719 166.953 348.767 182.382V152.269C348.767 125.411 338.098 99.653 319.106 80.6614C300.115 61.6699 274.357 51.0005 247.498 51.0005V51.0005Z" fill="#DE926A"/>
<path d="M247.499 51.0005C239.015 50.9737 230.562 52.0131 222.337 54.0943C203.155 58.4255 178.199 65.7474 155.615 61.4161C154.747 67.2329 155.067 73.1652 156.556 78.8548C158.045 84.5444 160.672 89.8731 164.277 94.5193C152.511 111.478 146.214 131.629 146.231 152.269V205.276H348.768V152.269C348.768 125.411 338.099 99.653 319.107 80.6614C300.115 61.6699 274.357 51.0005 247.499 51.0005V51.0005Z" stroke="#45413C" stroke-width="6" stroke-linecap="round" stroke-linejoin="round"/>
<path d="M359.595 197.541C359.094 193.754 357.455 190.209 354.896 187.373C352.336 184.537 348.976 182.545 345.261 181.66L339.176 179.907C334.638 178.737 330.634 176.058 327.822 172.309C325.01 168.56 323.559 163.965 323.707 159.282V138.244C323.702 133.987 322.281 129.852 319.667 126.491C317.053 123.13 313.395 120.735 309.27 119.682C289.591 127.484 268.56 131.304 247.395 130.922C226.23 131.304 205.199 127.484 185.52 119.682C181.395 120.735 177.737 123.13 175.123 126.491C172.509 129.852 171.088 133.987 171.082 138.244V159.591C171.231 164.275 169.779 168.869 166.968 172.618C164.156 176.367 160.152 179.047 155.614 180.216L149.529 181.969C145.813 182.855 142.454 184.847 139.894 187.682C137.335 190.518 135.696 194.064 135.195 197.85C134.919 200.461 135.198 203.101 136.011 205.596C136.825 208.092 138.156 210.388 139.918 212.335C141.679 214.281 143.832 215.834 146.234 216.892C148.637 217.95 151.235 218.49 153.861 218.475H154.995C157.408 241.272 168.172 262.369 185.214 277.702C202.255 293.035 224.368 301.518 247.292 301.518C270.216 301.518 292.329 293.035 309.37 277.702C326.411 262.369 337.176 241.272 339.589 218.475H340.723C343.395 218.525 346.046 218 348.497 216.937C350.948 215.873 353.143 214.296 354.932 212.311C356.721 210.326 358.063 207.981 358.868 205.432C359.672 202.884 359.92 200.193 359.595 197.541V197.541Z" fill="#FFCEBF" stroke="#45413C" stroke-width="6" stroke-linecap="round" stroke-linejoin="round"/>
<path d="M191.502 195.375C191.502 197.481 192.339 199.501 193.828 200.99C195.317 202.479 197.337 203.316 199.443 203.316C201.549 203.316 203.568 202.479 205.057 200.99C206.547 199.501 207.383 197.481 207.383 195.375C207.383 193.269 206.547 191.249 205.057 189.76C203.568 188.271 201.549 187.435 199.443 187.435C197.337 187.435 195.317 188.271 193.828 189.76C192.339 191.249 191.502 193.269 191.502 195.375Z" fill="#45413C" stroke="#45413C" stroke-width="6" stroke-linecap="round" stroke-linejoin="round"/>
<path d="M303.495 195.375C303.495 197.481 302.658 199.501 301.169 200.99C299.68 202.479 297.66 203.316 295.554 203.316C293.448 203.316 291.428 202.479 289.939 200.99C288.45 199.501 287.613 197.481 287.613 195.375C287.613 193.269 288.45 191.249 289.939 189.76C291.428 188.271 293.448 187.435 295.554 187.435C297.66 187.435 299.68 188.271 301.169 189.76C302.658 191.249 303.495 193.269 303.495 195.375Z" fill="#45413C" stroke="#45413C" stroke-width="6" stroke-linecap="round" stroke-linejoin="round"/>
<path d="M218.212 243.741C217.569 243.755 216.936 243.899 216.351 244.165C215.766 244.431 215.242 244.813 214.809 245.288C214.369 245.789 214.047 246.384 213.869 247.026C213.69 247.669 213.659 248.344 213.777 249.001C215.17 256.933 219.314 264.121 225.482 269.3C231.65 274.479 239.446 277.318 247.499 277.318C255.553 277.318 263.349 274.479 269.517 269.3C275.684 264.121 279.829 256.933 281.221 249.001C281.34 248.344 281.308 247.669 281.13 247.026C280.951 246.384 280.63 245.789 280.19 245.288C279.761 244.808 279.237 244.423 278.651 244.157C278.065 243.891 277.43 243.749 276.787 243.741H218.212Z" fill="#FF6242"/>
<path d="M247.499 258.179C238.2 257.902 229.068 260.692 221.512 266.12C224.744 269.767 228.713 272.688 233.157 274.688C237.601 276.688 242.419 277.723 247.293 277.723C252.167 277.723 256.985 276.688 261.429 274.688C265.873 272.688 269.842 269.767 273.074 266.12C265.631 260.778 256.658 257.992 247.499 258.179V258.179Z" fill="#FFA694"/>
<path d="M218.212 243.741C217.569 243.755 216.936 243.899 216.351 244.165C215.766 244.431 215.242 244.813 214.809 245.288C214.369 245.789 214.047 246.384 213.869 247.026C213.69 247.669 213.659 248.344 213.777 249.001C215.17 256.933 219.314 264.121 225.482 269.3C231.65 274.479 239.446 277.318 247.499 277.318C255.553 277.318 263.349 274.479 269.517 269.3C275.684 264.121 279.829 256.933 281.221 249.001C281.34 248.344 281.308 247.669 281.13 247.026C280.951 246.384 280.63 245.789 280.19 245.288C279.761 244.808 279.237 244.423 278.651 244.157C278.065 243.891 277.43 243.749 276.787 243.741H218.212Z" stroke="#45413C" stroke-width="6" stroke-linecap="round" stroke-linejoin="round"/>
<path d="M175.93 229.2C175.93 230.841 177.016 232.415 178.95 233.575C180.884 234.736 183.507 235.388 186.242 235.388C188.977 235.388 191.6 234.736 193.534 233.575C195.468 232.415 196.555 230.841 196.555 229.2C196.555 227.559 195.468 225.985 193.534 224.825C191.6 223.665 188.977 223.013 186.242 223.013C183.507 223.013 180.884 223.665 178.95 224.825C177.016 225.985 175.93 227.559 175.93 229.2Z" fill="#FFB59E"/>
<path d="M298.441 229.2C298.441 230.841 299.528 232.415 301.462 233.575C303.396 234.736 306.019 235.388 308.754 235.388C311.489 235.388 314.112 234.736 316.046 233.575C317.98 232.415 319.066 230.841 319.066 229.2C319.066 227.559 317.98 225.985 316.046 224.825C314.112 223.665 311.489 223.013 308.754 223.013C306.019 223.013 303.396 223.665 301.462 224.825C299.528 225.985 298.441 227.559 298.441 229.2Z" fill="#FFB59E"/>
</svg>
