<svg width="496" height="496" viewBox="0 0 496 496" fill="none" xmlns="http://www.w3.org/2000/svg">
<rect width="496" height="496" transform="matrix(-1 0 0 1 496 0)" fill="white"/>
<path d="M248 328.5C231.167 328.5 215.75 324.5 201.75 316.5C187.917 308.5 176.917 297.667 168.75 284C160.75 270.167 156.75 255 156.75 238.5C156.75 222 160.75 206.917 168.75 193.25C176.917 179.417 187.917 168.5 201.75 160.5C215.75 152.5 231.167 148.5 248 148.5C264.833 148.5 280.167 152.5 294 160.5C308 168.5 319 179.417 327 193.25C335.167 206.917 339.25 222 339.25 238.5C339.25 255 335.167 270.167 327 284C319 297.667 308 308.5 294 316.5C280.167 324.5 264.833 328.5 248 328.5ZM248 307.75C260.5 307.75 272 304.667 282.5 298.5C293.167 292.333 301.5 284 307.5 273.5C313.667 262.833 316.75 251.167 316.75 238.5C316.75 225.833 313.667 214.25 307.5 203.75C301.5 193.083 293.167 184.667 282.5 178.5C272 172.333 260.5 169.25 248 169.25C235.333 169.25 223.75 172.333 213.25 178.5C202.75 184.667 194.417 193.083 188.25 203.75C182.25 214.25 179.25 225.833 179.25 238.5C179.25 251.167 182.25 262.833 188.25 273.5C194.417 284 202.75 292.333 213.25 298.5C223.75 304.667 235.333 307.75 248 307.75Z" fill="black"/>
</svg>
