<svg width="496" height="496" viewBox="0 0 496 496" fill="none" xmlns="http://www.w3.org/2000/svg">
<path d="M148.554 122.334L141.527 209.444H173.767L178.314 122.541C178.819 109.554 184.308 97.2606 193.641 88.2159C202.975 79.1712 215.434 74.0707 228.431 73.9741V73.9741C241.44 73.9864 253.945 79.0053 263.353 87.9901C272.761 96.9748 278.35 109.236 278.961 122.231L283.094 209.134H315.334L308.307 122.024C306.698 101.94 297.586 83.198 282.785 69.5269C267.984 55.8558 248.579 48.2576 228.431 48.2441V48.2441C208.226 48.2396 188.766 55.8727 173.952 69.6132C159.138 83.3536 150.066 102.186 148.554 122.334V122.334Z" fill="#F7E5C6"/>
<path d="M148.555 150.234C149.846 133.959 156.08 118.467 166.423 105.834C176.765 93.2015 190.722 84.0318 206.422 79.5537C213.241 76.087 220.782 74.28 228.432 74.28C236.082 74.28 243.623 76.087 250.442 79.5537C266.142 84.0318 280.098 93.2015 290.441 105.834C300.783 118.467 307.018 133.959 308.309 150.234L312.649 209.444H314.922L307.895 122.334C306.442 102.142 297.395 83.2496 282.575 69.4583C267.756 55.667 248.263 48 228.019 48C207.774 48 188.281 55.667 173.462 69.4583C158.642 83.2496 149.595 102.142 148.142 122.334L141.115 209.444H143.389L148.555 150.234Z" fill="#FFF5E3"/>
<path d="M365.865 209.443H118.795C110.927 209.45 103.249 211.857 96.7859 216.344C90.3231 220.831 85.3838 227.184 82.628 234.553C79.528 242.923 76.428 251.293 74.9813 256.253C64.3965 291.02 58.285 326.995 56.7947 363.307L55.038 407.223C54.8008 412.436 55.6216 417.642 57.4508 422.529C59.28 427.415 62.0798 431.881 65.6813 435.656C69.2829 439.431 73.6116 442.438 78.4066 444.496C83.2017 446.553 88.3636 447.618 93.5813 447.627H301.075C311.054 447.609 320.641 443.742 327.841 436.832C335.04 429.922 339.296 420.5 339.721 410.53L341.581 363.307C343.528 313.896 354.016 265.195 372.581 219.363C372.995 218.265 373.139 217.083 373.001 215.918C372.863 214.752 372.448 213.637 371.79 212.665C371.132 211.693 370.251 210.894 369.22 210.333C368.189 209.772 367.038 209.467 365.865 209.443V209.443Z" fill="#947746" stroke="#45413C" stroke-width="7" stroke-linecap="round" stroke-linejoin="round"/>
<path d="M71.778 267.414C63.1899 298.713 58.1636 330.881 56.7947 363.307L55.038 407.224C54.8008 412.436 55.6216 417.643 57.4508 422.529C59.28 427.416 62.0798 431.881 65.6813 435.657C69.2829 439.432 73.6116 442.439 78.4066 444.496C83.2017 446.554 88.3636 447.619 93.5813 447.627H289.915L304.485 267.414H71.778Z" fill="#DEBB7E"/>
<path d="M300.765 309.987L304.175 267.414H71.7785C67.9552 281.467 64.9585 295.727 62.4785 309.987H300.765Z" fill="#B89558"/>
<path d="M71.778 267.414C63.1899 298.713 58.1636 330.881 56.7947 363.307L55.038 407.224C54.8008 412.436 55.6216 417.643 57.4508 422.529C59.28 427.416 62.0798 431.881 65.6813 435.657C69.2829 439.432 73.6116 442.439 78.4066 444.496C83.2017 446.554 88.3636 447.619 93.5813 447.627H289.915L304.485 267.414H71.778Z" stroke="#45413C" stroke-width="7" stroke-linecap="round" stroke-linejoin="round"/>
<path d="M359.769 209.444C369.783 209.489 379.567 212.443 387.933 217.947C396.298 223.451 402.884 231.267 406.889 240.444C415.268 258.777 422.381 277.662 428.176 296.967C434.574 322.066 438.349 347.762 439.439 373.641L440.783 407.534C440.991 412.738 440.146 417.931 438.298 422.8C436.449 427.669 433.636 432.115 430.026 435.869C426.416 439.624 422.085 442.61 417.292 444.648C412.5 446.686 407.344 447.735 402.136 447.731H194.746C184.759 447.739 175.157 443.881 167.952 436.965C160.748 430.049 156.5 420.613 156.099 410.634L154.239 363.307C153.119 335.872 149.382 308.606 143.079 281.881C140.599 271.547 137.499 254.497 134.916 239.411C134.266 235.706 134.437 231.903 135.416 228.271C136.395 224.639 138.158 221.266 140.582 218.39C143.005 215.513 146.03 213.202 149.443 211.621C152.856 210.04 156.574 209.226 160.336 209.237L359.769 209.444Z" fill="#DEBB7E"/>
<path d="M138.118 257.597C140.382 253.717 143.626 250.5 147.525 248.269C151.425 246.039 155.842 244.872 160.334 244.887H359.768C369.781 244.932 379.565 247.886 387.931 253.39C396.296 258.893 402.882 266.709 406.888 275.887C415.246 294.192 422.358 313.042 428.174 332.307C434.565 357.407 438.34 383.102 439.438 408.98V417.97C440.247 414.588 440.594 411.112 440.471 407.637L439.438 373.64C438.347 347.761 434.572 322.066 428.174 296.967C422.379 277.661 415.267 258.776 406.888 240.443C402.882 231.266 396.296 223.45 387.931 217.946C379.565 212.443 369.781 209.489 359.768 209.443H160.334C156.604 209.44 152.917 210.248 149.53 211.811C146.142 213.374 143.135 215.655 140.717 218.496C138.299 221.336 136.528 224.669 135.526 228.263C134.524 231.856 134.315 235.625 134.914 239.307C135.948 245.403 136.981 251.603 138.118 257.597Z" fill="#F0D5A8"/>
<path d="M359.769 209.444C369.783 209.489 379.567 212.443 387.933 217.947C396.298 223.451 402.884 231.267 406.889 240.444C415.268 258.777 422.381 277.662 428.176 296.967C434.574 322.066 438.349 347.762 439.439 373.641L440.783 407.534C440.991 412.738 440.146 417.931 438.298 422.8C436.449 427.669 433.636 432.115 430.026 435.869C426.416 439.624 422.085 442.61 417.292 444.648C412.5 446.686 407.344 447.735 402.136 447.731H194.746C184.759 447.739 175.157 443.881 167.952 436.965C160.748 430.049 156.5 420.613 156.099 410.634L154.239 363.307C153.119 335.872 149.382 308.606 143.079 281.881C140.599 271.547 137.499 254.497 134.916 239.411C134.266 235.706 134.437 231.903 135.416 228.271C136.395 224.639 138.158 221.266 140.582 218.39C143.005 215.513 146.03 213.202 149.443 211.621C152.856 210.04 156.574 209.226 160.336 209.237L359.769 209.444Z" stroke="#45413C" stroke-width="7" stroke-linecap="round" stroke-linejoin="round"/>
<path d="M225.952 261.007H197.948C192.715 260.971 187.614 259.354 183.317 256.366C179.02 253.378 175.727 249.16 173.872 244.267L160.852 209.443H225.228L238.042 243.543C238.777 245.498 239.027 247.601 238.771 249.674C238.515 251.746 237.76 253.725 236.572 255.442C235.383 257.159 233.796 258.562 231.946 259.531C230.097 260.5 228.04 261.007 225.952 261.007V261.007Z" fill="#E8F4FA" stroke="#45413C" stroke-width="7" stroke-linecap="round" stroke-linejoin="round"/>
<path d="M361.112 261.007H333.315C328.082 260.971 322.981 259.354 318.684 256.366C314.387 253.378 311.094 249.16 309.239 244.267L296.219 209.443H360.595L373.305 243.543C374.07 245.505 374.339 247.626 374.089 249.717C373.839 251.808 373.078 253.805 371.872 255.531C370.667 257.258 369.054 258.661 367.178 259.616C365.301 260.571 363.217 261.049 361.112 261.007Z" fill="#E8F4FA" stroke="#45413C" stroke-width="7" stroke-linecap="round" stroke-linejoin="round"/>
<path d="M148.554 122.334L141.527 209.444H173.767L178.314 122.541C178.819 109.554 184.308 97.2606 193.641 88.2159C202.975 79.1712 215.434 74.0707 228.431 73.9741V73.9741C241.44 73.9864 253.945 79.0053 263.353 87.9901C272.761 96.9748 278.35 109.236 278.961 122.231L283.094 209.134H315.334L308.307 122.024C306.698 101.94 297.586 83.198 282.785 69.5269C267.984 55.8558 248.579 48.2576 228.431 48.2441V48.2441C208.226 48.2396 188.766 55.8727 173.952 69.6132C159.138 83.3536 150.066 102.186 148.554 122.334V122.334Z" stroke="#45413C" stroke-width="7" stroke-linecap="round" stroke-linejoin="round"/>
<path d="M192.988 209.443L212.312 261.007" stroke="#45413C" stroke-width="7" stroke-linecap="round" stroke-linejoin="round"/>
<path d="M328.148 209.443L347.472 261.007" stroke="#45413C" stroke-width="7" stroke-linecap="round" stroke-linejoin="round"/>
<path d="M180.691 122.334L173.768 209.444H205.904L210.038 122.54C210.573 109.419 216.186 97.0193 225.691 87.9578C235.196 78.8964 247.849 73.8822 260.981 73.9735V73.9735C274 73.9845 286.517 79 295.942 87.9823C305.367 96.9646 310.978 109.226 311.614 122.23L315.748 209.134H347.884L340.961 122.024C339.253 101.986 330.087 83.3191 315.277 69.7145C300.467 56.11 281.091 48.5585 260.981 48.5535C240.761 48.4629 221.254 56.0144 206.365 69.6958C191.476 83.3771 182.306 102.178 180.691 122.334V122.334Z" fill="#F7E5C6"/>
<path d="M180.691 150.233C181.989 133.945 188.238 118.444 198.601 105.81C208.963 93.1757 222.942 84.0137 238.661 79.5534C245.462 76.0875 252.986 74.2807 260.619 74.2807C268.252 74.2807 275.777 76.0875 282.578 79.5534C298.282 84.0399 312.245 93.2094 322.603 105.838C332.961 118.467 339.221 133.954 340.548 150.233L345.301 209.443H347.471L340.548 122.333C338.931 102.245 329.81 83.5015 314.998 69.8343C300.187 56.167 280.773 48.5781 260.619 48.5781C240.466 48.5781 221.051 56.167 206.24 69.8343C191.429 83.5015 182.307 102.245 180.691 122.333L173.768 209.443H175.938L180.691 150.233Z" fill="#FFF5E3"/>
<path d="M180.691 122.334L173.768 209.444H205.904L210.038 122.54C210.573 109.419 216.186 97.0193 225.691 87.9578C235.196 78.8964 247.849 73.8822 260.981 73.9735V73.9735C274 73.9845 286.517 79 295.942 87.9823C305.367 96.9646 310.978 109.226 311.614 122.23L315.748 209.134H347.884L340.961 122.024C339.253 101.986 330.087 83.3191 315.277 69.7145C300.467 56.11 281.091 48.5585 260.981 48.5535C240.761 48.4629 221.254 56.0144 206.365 69.6958C191.476 83.3771 182.306 102.178 180.691 122.334V122.334Z" stroke="#45413C" stroke-width="7" stroke-linecap="round" stroke-linejoin="round"/>
</svg>
