<svg width="495" height="495" viewBox="0 0 495 495" fill="none" xmlns="http://www.w3.org/2000/svg">
<path d="M30 30H464.053V464.053H30V30Z" fill="white"/>
<path d="M426.928 432.703H67.2281C57.5152 432.569 48.2394 428.644 41.3803 421.766C34.5213 414.888 30.6223 405.601 30.5156 395.888V426.825C30.5156 436.699 34.4379 446.168 41.4195 453.149C48.4011 460.131 57.8702 464.053 67.7438 464.053H426.928C436.802 464.053 446.271 460.131 453.252 453.149C460.234 446.168 464.156 436.699 464.156 426.825V395.888C464.048 405.69 460.078 415.053 453.108 421.946C446.138 428.838 436.731 432.704 426.928 432.703Z" fill="#F0F0F0"/>
<path d="M30 30H464.053V464.053H30V30Z" stroke="#45413C" stroke-width="6" stroke-linecap="round" stroke-linejoin="round"/>
<path d="M61.041 61.041H433.116V433.116H61.041V61.041Z" fill="#00B8F0"/>
<path d="M420.741 401.766H73.4156C70.2584 401.661 67.2606 400.353 65.0365 398.11C62.8124 395.867 61.5304 392.858 61.4531 389.7V420.638C61.5304 423.796 62.8124 426.804 65.0365 429.048C67.2606 431.291 70.2584 432.599 73.4156 432.703H420.741C424.023 432.703 427.17 431.399 429.491 429.079C431.812 426.758 433.116 423.61 433.116 420.328V389.391C433.116 392.673 431.812 395.82 429.491 398.141C427.17 400.462 424.023 401.766 420.741 401.766V401.766Z" fill="#009FD9"/>
<path d="M61.041 61.041H433.116V433.116H61.041V61.041Z" stroke="#45413C" stroke-width="6" stroke-linecap="round" stroke-linejoin="round"/>
<path d="M222.224 247.078L141.684 433.116H191.287L247.077 271.931L302.868 433.116H352.471L271.93 247.078H222.224Z" fill="#FF6242"/>
<path d="M155.09 402.075L141.684 433.116H191.287L202.012 402.075H155.09Z" fill="#E04122"/>
<path d="M292.145 402.075L302.87 433.116H352.473L339.066 402.075H292.145Z" fill="#E04122"/>
<path d="M222.224 245.531L141.684 431.569H191.287L247.077 270.384L302.868 431.569H352.471L271.93 245.531H222.224Z" stroke="#45413C" stroke-width="6" stroke-linecap="round" stroke-linejoin="round"/>
<path d="M247.079 116.831C221.319 116.831 196.137 124.47 174.718 138.782C153.299 153.093 136.605 173.435 126.747 197.235C116.888 221.034 114.309 247.222 119.335 272.488C124.36 297.753 136.765 320.961 154.981 339.176C173.196 357.392 196.404 369.797 221.669 374.822C246.934 379.848 273.123 377.268 296.922 367.41C320.722 357.552 341.064 340.858 355.375 319.439C369.687 298.02 377.326 272.838 377.326 247.078C377.299 212.543 363.567 179.43 339.147 155.01C314.727 130.59 281.614 116.858 247.079 116.831V116.831ZM247.079 346.284C227.458 346.284 208.277 340.466 191.963 329.565C175.649 318.664 162.933 303.17 155.424 285.043C147.916 266.915 145.951 246.968 149.779 227.724C153.607 208.48 163.055 190.803 176.93 176.929C190.804 163.054 208.481 153.606 227.725 149.778C246.969 145.95 266.916 147.915 285.044 155.423C303.171 162.932 318.665 175.648 329.566 191.962C340.467 208.276 346.285 227.457 346.285 247.078C346.285 273.389 335.833 298.623 317.228 317.227C298.624 335.832 273.39 346.284 247.079 346.284V346.284Z" fill="white" stroke="#45413C" stroke-width="6" stroke-linecap="round" stroke-linejoin="round"/>
<path d="M216.037 135.497C216.037 143.729 219.307 151.624 225.129 157.446C230.95 163.267 238.845 166.537 247.078 166.537C255.31 166.537 263.206 163.267 269.027 157.446C274.848 151.624 278.118 143.729 278.118 135.497C278.118 127.264 274.848 119.369 269.027 113.548C263.206 107.726 255.31 104.456 247.078 104.456C238.845 104.456 230.95 107.726 225.129 113.548C219.307 119.369 216.037 127.264 216.037 135.497Z" fill="#FF6242"/>
<path d="M216.037 364.95C216.037 373.182 219.307 381.078 225.129 386.899C230.95 392.72 238.845 395.99 247.078 395.99C255.31 395.99 263.206 392.72 269.027 386.899C274.848 381.078 278.118 373.182 278.118 364.95C278.118 356.717 274.848 348.822 269.027 343.001C263.206 337.18 255.31 333.909 247.078 333.909C238.845 333.909 230.95 337.18 225.129 343.001C219.307 348.822 216.037 356.717 216.037 364.95V364.95Z" fill="#FF6242"/>
<path d="M163.238 165.919C168.521 168.991 172.776 173.559 175.466 179.047C178.155 184.534 179.159 190.696 178.351 196.754C177.543 202.811 174.959 208.494 170.925 213.085C166.891 217.676 161.588 220.969 155.684 222.549C149.781 224.129 143.541 223.925 137.753 221.963C131.965 220.001 126.888 216.369 123.162 211.524C119.437 206.68 117.229 200.841 116.818 194.743C116.407 188.646 117.811 182.563 120.854 177.263C122.883 173.726 125.592 170.626 128.824 168.14C132.056 165.654 135.748 163.832 139.687 162.777C143.626 161.723 147.734 161.458 151.776 161.997C155.818 162.536 159.713 163.869 163.238 165.919V165.919Z" fill="#FF6242"/>
<path d="M361.96 280.697C367.2 283.805 371.406 288.392 374.05 293.882C376.694 299.372 377.657 305.521 376.82 311.556C375.982 317.592 373.382 323.245 369.343 327.808C365.305 332.371 360.009 335.64 354.12 337.205C348.231 338.769 342.011 338.56 336.241 336.604C330.47 334.647 325.406 331.03 321.683 326.206C317.961 321.382 315.745 315.566 315.315 309.488C314.885 303.41 316.26 297.34 319.266 292.04C321.296 288.463 324.018 285.325 327.275 282.812C330.531 280.299 334.256 278.461 338.231 277.405C342.207 276.348 346.353 276.095 350.427 276.661C354.502 277.226 358.422 278.598 361.96 280.697V280.697Z" fill="#FF6242"/>
<path d="M132.197 280.697C137.498 277.655 143.58 276.251 149.678 276.662C155.775 277.073 161.615 279.28 166.459 283.006C171.303 286.732 174.935 291.809 176.897 297.597C178.859 303.385 179.063 309.624 177.483 315.528C175.903 321.432 172.61 326.735 168.019 330.769C163.429 334.803 157.746 337.387 151.688 338.195C145.63 339.003 139.469 337.999 133.981 335.309C128.494 332.62 123.926 328.365 120.853 323.082C118.804 319.557 117.471 315.662 116.932 311.62C116.393 307.578 116.658 303.47 117.712 299.531C118.766 295.592 120.589 291.9 123.075 288.668C125.56 285.436 128.661 282.727 132.197 280.697V280.697Z" fill="#FF6242"/>
<path d="M330.918 165.919C336.241 162.925 342.33 161.573 348.419 162.033C354.508 162.494 360.325 164.746 365.136 168.506C369.948 172.266 373.539 177.366 375.457 183.164C377.376 188.961 377.535 195.196 375.917 201.084C374.298 206.972 370.973 212.25 366.36 216.251C361.748 220.253 356.054 222.8 349.996 223.572C343.939 224.344 337.788 223.306 332.32 220.589C326.851 217.872 322.309 213.597 319.265 208.303C317.228 204.76 315.913 200.848 315.397 196.793C314.88 192.739 315.172 188.622 316.255 184.681C317.339 180.74 319.193 177.053 321.709 173.833C324.226 170.612 327.356 167.922 330.918 165.919Z" fill="#FF6242"/>
<path d="M247.078 126.113C253.461 126.131 259.682 128.122 264.888 131.815C270.095 135.507 274.032 140.72 276.159 146.738C277.457 143.135 278.086 139.326 278.016 135.497C278.016 127.292 274.756 119.423 268.954 113.621C263.152 107.819 255.283 104.56 247.078 104.56C238.873 104.56 231.004 107.819 225.202 113.621C219.4 119.423 216.141 127.292 216.141 135.497C216.152 139.194 216.816 142.859 218.1 146.325C220.29 140.401 224.24 135.289 229.42 131.676C234.6 128.062 240.762 126.121 247.078 126.113V126.113Z" fill="#FF866E"/>
<path d="M247.079 355.565C253.461 355.583 259.682 357.575 264.889 361.268C270.095 364.96 274.032 370.173 276.16 376.19C277.386 372.887 278.048 369.401 278.119 365.878C278.119 357.673 274.86 349.804 269.058 344.002C263.256 338.2 255.387 334.94 247.182 334.94C238.977 334.94 231.107 338.2 225.306 344.002C219.504 349.804 216.244 357.673 216.244 365.878C216.315 369.401 216.977 372.887 218.204 376.19C220.319 370.206 224.225 365.016 229.39 361.327C234.556 357.637 240.731 355.626 247.079 355.565V355.565Z" fill="#FF866E"/>
<path d="M120.853 199.022C122.883 195.486 125.591 192.386 128.823 189.9C132.056 187.414 135.747 185.591 139.686 184.537C143.625 183.483 147.733 183.218 151.775 183.757C155.817 184.296 159.712 185.629 163.237 187.679C169.46 191.275 174.237 196.927 176.746 203.663C178.47 198.986 179.037 193.963 178.401 189.02C177.766 184.076 175.945 179.36 173.094 175.272C170.244 171.184 166.448 167.845 162.029 165.539C157.611 163.233 152.701 162.029 147.717 162.029C142.733 162.029 137.823 163.233 133.404 165.539C128.986 167.845 125.19 171.184 122.339 175.272C119.489 179.36 117.668 184.076 117.032 189.02C116.396 193.963 116.964 198.986 118.687 203.663C119.324 202.078 120.047 200.528 120.853 199.022V199.022Z" fill="#FF866E"/>
<path d="M319.265 313.697C322.186 308.582 326.507 304.406 331.72 301.662C336.932 298.918 342.82 297.72 348.69 298.207C354.561 298.694 360.17 300.848 364.859 304.414C369.548 307.98 373.121 312.81 375.159 318.338C376.882 313.661 377.449 308.638 376.814 303.694C376.178 298.751 374.357 294.035 371.506 289.947C368.656 285.858 364.86 282.52 360.441 280.214C356.023 277.908 351.113 276.704 346.129 276.704C341.145 276.704 336.235 277.908 331.816 280.214C327.398 282.52 323.602 285.858 320.751 289.947C317.901 294.035 316.08 298.751 315.444 303.694C314.808 308.638 315.376 313.661 317.099 318.338C317.72 316.745 318.443 315.195 319.265 313.697Z" fill="#FF6242"/>
<path d="M132.198 302.353C135.735 300.254 139.656 298.882 143.73 298.317C147.805 297.752 151.951 298.004 155.926 299.061C159.902 300.117 163.627 301.955 166.883 304.468C170.139 306.981 172.862 310.119 174.891 313.696C175.717 315.228 176.441 316.813 177.057 318.44C178.78 313.764 179.348 308.74 178.712 303.797C178.076 298.854 176.255 294.137 173.405 290.049C170.554 285.961 166.758 282.622 162.34 280.316C157.921 278.011 153.011 276.807 148.027 276.807C143.043 276.807 138.133 278.011 133.715 280.316C129.296 282.622 125.5 285.961 122.65 290.049C119.799 294.137 117.979 298.854 117.343 303.797C116.707 308.74 117.275 313.764 118.998 318.44C121.408 311.714 126.072 306.03 132.198 302.353Z" fill="#FF866E"/>
<path d="M330.919 187.679C334.444 185.629 338.339 184.296 342.381 183.757C346.423 183.218 350.531 183.483 354.47 184.537C358.409 185.591 362.101 187.414 365.333 189.9C368.565 192.386 371.274 195.486 373.304 199.022C374.11 200.528 374.832 202.078 375.469 203.663C377.192 198.986 377.76 193.963 377.124 189.02C376.488 184.076 374.668 179.36 371.817 175.272C368.966 171.184 365.17 167.845 360.752 165.539C356.333 163.233 351.423 162.029 346.439 162.029C341.456 162.029 336.545 163.233 332.127 165.539C327.709 167.845 323.912 171.184 321.062 175.272C318.211 179.36 316.391 184.076 315.755 189.02C315.119 193.963 315.687 198.986 317.41 203.663C319.919 196.927 324.696 191.275 330.919 187.679V187.679Z" fill="#FF866E"/>
<path d="M222.225 247.078C222.225 250.341 222.867 253.573 224.116 256.589C225.365 259.604 227.196 262.344 229.504 264.652C231.812 266.959 234.552 268.79 237.567 270.039C240.582 271.288 243.814 271.931 247.078 271.931C250.341 271.931 253.573 271.288 256.589 270.039C259.604 268.79 262.344 266.959 264.652 264.652C266.959 262.344 268.79 259.604 270.039 256.589C271.288 253.573 271.931 250.341 271.931 247.078C271.931 243.814 271.288 240.582 270.039 237.567C268.79 234.552 266.959 231.812 264.652 229.504C262.344 227.196 259.604 225.365 256.589 224.116C253.573 222.867 250.341 222.225 247.078 222.225C243.814 222.225 240.582 222.867 237.567 224.116C234.552 225.365 231.812 227.196 229.504 229.504C227.196 231.812 225.365 234.552 224.116 237.567C222.867 240.582 222.225 243.814 222.225 247.078V247.078Z" fill="#FF6242"/>
<path d="M247.078 240.891C252.188 240.912 257.167 242.507 261.337 245.46C265.508 248.412 268.667 252.578 270.384 257.391C271.373 254.644 271.896 251.751 271.931 248.832C271.931 242.24 269.312 235.919 264.652 231.258C259.991 226.597 253.669 223.979 247.078 223.979C240.486 223.979 234.165 226.597 229.504 231.258C224.843 235.919 222.225 242.24 222.225 248.832C222.26 251.751 222.782 254.644 223.771 257.391C225.489 252.578 228.648 248.412 232.818 245.46C236.989 242.507 241.968 240.912 247.078 240.891V240.891Z" fill="#FF866E"/>
<path d="M216.037 135.497C216.037 143.729 219.307 151.624 225.129 157.446C230.95 163.267 238.845 166.537 247.078 166.537C255.31 166.537 263.206 163.267 269.027 157.446C274.848 151.624 278.118 143.729 278.118 135.497C278.118 127.264 274.848 119.369 269.027 113.548C263.206 107.726 255.31 104.456 247.078 104.456C238.845 104.456 230.95 107.726 225.129 113.548C219.307 119.369 216.037 127.264 216.037 135.497Z" stroke="#45413C" stroke-width="6" stroke-linecap="round" stroke-linejoin="round"/>
<path d="M163.238 165.919C168.521 168.991 172.776 173.559 175.466 179.047C178.155 184.534 179.159 190.696 178.351 196.754C177.543 202.811 174.959 208.494 170.925 213.085C166.891 217.676 161.588 220.969 155.684 222.549C149.781 224.129 143.541 223.925 137.753 221.963C131.965 220.001 126.888 216.369 123.162 211.524C119.437 206.68 117.229 200.841 116.818 194.743C116.407 188.646 117.811 182.563 120.854 177.263C122.883 173.726 125.592 170.626 128.824 168.14C132.056 165.654 135.748 163.832 139.687 162.777C143.626 161.723 147.734 161.458 151.776 161.997C155.818 162.536 159.713 163.869 163.238 165.919V165.919Z" stroke="#45413C" stroke-width="6" stroke-linecap="round" stroke-linejoin="round"/>
<path d="M361.96 280.697C367.2 283.805 371.406 288.392 374.05 293.882C376.694 299.372 377.657 305.521 376.82 311.556C375.982 317.592 373.382 323.245 369.343 327.808C365.305 332.371 360.009 335.64 354.12 337.205C348.231 338.769 342.011 338.56 336.241 336.604C330.47 334.647 325.406 331.03 321.683 326.206C317.961 321.382 315.745 315.566 315.315 309.488C314.885 303.41 316.26 297.34 319.266 292.04C321.296 288.463 324.018 285.325 327.275 282.812C330.531 280.299 334.256 278.461 338.231 277.405C342.207 276.348 346.353 276.095 350.427 276.661C354.502 277.226 358.422 278.598 361.96 280.697V280.697Z" stroke="#45413C" stroke-width="6" stroke-linecap="round" stroke-linejoin="round"/>
<path d="M132.197 280.697C137.498 277.655 143.58 276.251 149.678 276.662C155.775 277.073 161.615 279.28 166.459 283.006C171.303 286.732 174.935 291.809 176.897 297.597C178.859 303.385 179.063 309.624 177.483 315.528C175.903 321.432 172.61 326.735 168.019 330.769C163.429 334.803 157.746 337.387 151.688 338.195C145.63 339.003 139.469 337.999 133.981 335.309C128.494 332.62 123.926 328.365 120.853 323.082C118.804 319.557 117.471 315.662 116.932 311.62C116.393 307.578 116.658 303.47 117.712 299.531C118.766 295.592 120.589 291.9 123.075 288.668C125.56 285.436 128.661 282.727 132.197 280.697V280.697Z" stroke="#45413C" stroke-width="6" stroke-linecap="round" stroke-linejoin="round"/>
<path d="M330.918 165.919C336.241 162.925 342.33 161.573 348.419 162.033C354.508 162.494 360.325 164.746 365.136 168.506C369.948 172.266 373.539 177.366 375.457 183.164C377.376 188.961 377.535 195.196 375.917 201.084C374.298 206.972 370.973 212.25 366.36 216.251C361.748 220.253 356.054 222.8 349.996 223.572C343.939 224.344 337.788 223.306 332.32 220.589C326.851 217.872 322.309 213.597 319.265 208.303C317.228 204.76 315.913 200.848 315.397 196.793C314.88 192.739 315.172 188.622 316.255 184.681C317.339 180.74 319.193 177.053 321.709 173.833C324.226 170.612 327.356 167.922 330.918 165.919Z" stroke="#45413C" stroke-width="6" stroke-linecap="round" stroke-linejoin="round"/>
<path d="M222.225 248.625C222.225 251.888 222.867 255.12 224.116 258.135C225.365 261.151 227.196 263.891 229.504 266.198C231.812 268.506 234.552 270.337 237.567 271.586C240.582 272.835 243.814 273.478 247.078 273.478C250.341 273.478 253.573 272.835 256.589 271.586C259.604 270.337 262.344 268.506 264.652 266.198C266.959 263.891 268.79 261.151 270.039 258.135C271.288 255.12 271.931 251.888 271.931 248.625C271.931 245.361 271.288 242.129 270.039 239.114C268.79 236.098 266.959 233.359 264.652 231.051C262.344 228.743 259.604 226.912 256.589 225.663C253.573 224.414 250.341 223.771 247.078 223.771C243.814 223.771 240.582 224.414 237.567 225.663C234.552 226.912 231.812 228.743 229.504 231.051C227.196 233.359 225.365 236.098 224.116 239.114C222.867 242.129 222.225 245.361 222.225 248.625V248.625Z" stroke="#45413C" stroke-width="6" stroke-linecap="round" stroke-linejoin="round"/>
<path d="M247.078 166.435V222.225" stroke="#45413C" stroke-width="6" stroke-linecap="round" stroke-linejoin="round"/>
<path d="M178.912 209.85L222.225 234.703" stroke="#45413C" stroke-width="6" stroke-linecap="round" stroke-linejoin="round"/>
<path d="M271.932 234.703L315.244 209.85" stroke="#45413C" stroke-width="6" stroke-linecap="round" stroke-linejoin="round"/>
<path d="M222.225 265.641L178.912 290.494" stroke="#45413C" stroke-width="6" stroke-linecap="round" stroke-linejoin="round"/>
<path d="M271.932 265.641L315.244 290.494" stroke="#45413C" stroke-width="6" stroke-linecap="round" stroke-linejoin="round"/>
<path d="M216.037 364.95C216.037 373.182 219.307 381.078 225.129 386.899C230.95 392.72 238.845 395.99 247.078 395.99C255.31 395.99 263.206 392.72 269.027 386.899C274.848 381.078 278.118 373.182 278.118 364.95C278.118 356.717 274.848 348.822 269.027 343.001C263.206 337.18 255.31 333.909 247.078 333.909C238.845 333.909 230.95 337.18 225.129 343.001C219.307 348.822 216.037 356.717 216.037 364.95V364.95Z" stroke="#45413C" stroke-width="6" stroke-linecap="round" stroke-linejoin="round"/>
<path d="M247.078 276.435V332.225" stroke="#45413C" stroke-width="6" stroke-linecap="round" stroke-linejoin="round"/>
</svg>
