<svg width="493" height="493" viewBox="0 0 493 493" fill="none" xmlns="http://www.w3.org/2000/svg">
<path d="M15.4062 246.513C15.4063 294.918 34.6352 341.341 68.863 375.569C103.091 409.796 149.514 429.025 197.919 429.025C246.324 429.025 292.747 409.796 326.975 375.569C361.203 341.341 380.432 294.918 380.432 246.513C380.432 198.107 361.203 151.684 326.975 117.457C292.747 83.229 246.324 64 197.919 64C149.514 64 103.091 83.229 68.863 117.457C34.6352 151.684 15.4063 198.107 15.4062 246.513V246.513Z" fill="#FFE500"/>
<path d="M197.862 64C161.739 64 126.428 74.7128 96.3952 94.7834C66.362 114.854 42.9558 143.381 29.1371 176.755C15.3184 210.13 11.708 246.853 18.7626 282.28C25.8172 317.706 43.2198 350.245 68.7693 375.78C94.3188 401.315 126.867 418.7 162.298 425.734C197.729 432.769 234.45 429.138 267.817 415.301C301.183 401.463 329.697 378.041 349.751 347.996C369.804 317.952 380.497 282.635 380.477 246.513C380.45 198.098 361.198 151.675 326.954 117.45C292.71 83.2257 246.276 64 197.862 64ZM197.862 401.705C164.913 401.705 132.704 391.934 105.307 373.629C77.9114 355.324 56.5588 329.305 43.9498 298.864C31.3408 268.424 28.0417 234.927 34.4697 202.611C40.8977 170.296 56.7641 140.612 80.0626 117.313C103.361 94.0147 133.045 78.1482 165.361 71.7202C197.677 65.2922 231.173 68.5913 261.614 81.2003C292.055 93.8093 318.073 115.162 336.378 142.558C354.684 169.954 364.454 202.163 364.454 235.112C364.454 256.989 360.145 278.652 351.773 298.864C343.401 319.076 331.13 337.441 315.661 352.911C300.191 368.381 281.826 380.652 261.614 389.024C241.402 397.396 219.739 401.705 197.862 401.705V401.705Z" fill="#EBCB00"/>
<path d="M143.152 100.464C143.152 104.087 148.92 107.561 159.186 110.123C169.453 112.685 183.377 114.124 197.896 114.124C212.415 114.124 226.339 112.685 236.605 110.123C246.872 107.561 252.639 104.087 252.639 100.464C252.639 96.841 246.872 93.3665 236.605 90.8047C226.339 88.2429 212.415 86.8037 197.896 86.8037C183.377 86.8037 169.453 88.2429 159.186 90.8047C148.92 93.3665 143.152 96.841 143.152 100.464V100.464Z" fill="#FFF48C"/>
<path d="M111.215 255.654C111.215 258.078 112.178 260.403 113.892 262.117C115.606 263.832 117.932 264.795 120.356 264.795C122.78 264.795 125.105 263.832 126.82 262.117C128.534 260.403 129.497 258.078 129.497 255.654C129.497 253.229 128.534 250.904 126.82 249.19C125.105 247.476 122.78 246.513 120.356 246.513C117.932 246.513 115.606 247.476 113.892 249.19C112.178 250.904 111.215 253.229 111.215 255.654V255.654Z" fill="#45413C" stroke="#45413C" stroke-width="7" stroke-linecap="round" stroke-linejoin="round"/>
<path d="M155.296 241.994C155.296 241.994 127.873 200.911 97.5742 214.571" stroke="#45413C" stroke-width="7" stroke-linecap="round" stroke-linejoin="round"/>
<path d="M240.562 241.994C240.562 241.994 267.986 200.911 298.387 214.571" stroke="#45413C" stroke-width="7" stroke-linecap="round" stroke-linejoin="round"/>
<path d="M266.402 255.654C266.402 258.078 267.365 260.403 269.08 262.117C270.794 263.832 273.119 264.795 275.543 264.795C277.968 264.795 280.293 263.832 282.007 262.117C283.721 260.403 284.684 258.078 284.684 255.654C284.684 253.229 283.721 250.904 282.007 249.19C280.293 247.476 277.968 246.513 275.543 246.513C273.119 246.513 270.794 247.476 269.08 249.19C267.365 250.904 266.402 253.229 266.402 255.654V255.654Z" fill="#45413C" stroke="#45413C" stroke-width="7" stroke-linecap="round" stroke-linejoin="round"/>
<path d="M152.297 337.821C165.81 328.791 181.698 323.971 197.951 323.971C214.204 323.971 230.091 328.791 243.605 337.821" stroke="#45413C" stroke-width="7" stroke-linecap="round"/>
<path d="M330.298 296.737C330.298 304.338 320.027 310.5 307.497 310.5C294.966 310.5 284.695 304.338 284.695 296.737C284.695 289.137 294.966 283.077 307.497 283.077C320.027 283.077 330.298 289.24 330.298 296.737Z" fill="#FFAA54"/>
<path d="M65.6367 296.737C65.6367 304.338 75.9076 310.5 88.438 310.5C100.968 310.5 111.239 304.338 111.239 296.737C111.239 289.137 100.968 283.077 88.438 283.077C75.9076 283.077 65.6367 289.24 65.6367 296.737Z" fill="#FFAA54"/>
<path d="M15.4062 246.513C15.4063 294.918 34.6352 341.341 68.863 375.569C103.091 409.796 149.514 429.025 197.919 429.025C246.324 429.025 292.747 409.796 326.975 375.569C361.203 341.341 380.432 294.918 380.432 246.513C380.432 198.107 361.203 151.684 326.975 117.457C292.747 83.229 246.324 64 197.919 64C149.514 64 103.091 83.229 68.863 117.457C34.6352 151.684 15.4063 198.107 15.4062 246.513V246.513Z" stroke="#45413C" stroke-width="7" stroke-linecap="round" stroke-linejoin="round"/>
<path d="M343.977 137.025H33.2844C31.8753 137.029 30.4857 137.355 29.2218 137.978C27.958 138.601 26.8532 139.505 25.9921 140.62C18.0441 151.043 11.3237 162.347 5.964 174.309C5.32839 175.699 5.05175 177.227 5.15941 178.752C5.26707 180.277 5.75559 181.751 6.58025 183.039C7.42769 184.312 8.57136 185.36 9.91308 186.093C11.2548 186.827 12.7545 187.224 14.2834 187.25H370.681C364.475 169.209 355.463 152.259 343.977 137.025Z" fill="#F0F0F0"/>
<path d="M343.986 137.024H33.2936C31.8845 137.028 30.4949 137.354 29.231 137.977C27.9671 138.6 26.8624 139.504 26.0013 140.619C22.3189 145.329 18.8904 150.232 15.7305 155.307H356.106C352.438 148.974 348.391 142.869 343.986 137.024V137.024Z" fill="white"/>
<path d="M343.977 137.025H33.2844C31.8753 137.029 30.4857 137.355 29.2218 137.978C27.958 138.601 26.8532 139.505 25.9921 140.62C18.0441 151.043 11.3237 162.347 5.964 174.309C5.32839 175.699 5.05175 177.227 5.15941 178.752C5.26707 180.277 5.75559 181.751 6.58025 183.039C7.42769 184.312 8.57136 185.36 9.91308 186.093C11.2548 186.827 12.7545 187.224 14.2834 187.25H370.681C364.475 169.209 355.463 152.259 343.977 137.025Z" stroke="#45413C" stroke-width="7" stroke-linecap="round" stroke-linejoin="round"/>
<path d="M353.062 164.446C353.062 164.446 403.184 220.422 477.75 213.644C479.253 213.482 480.772 213.7 482.168 214.277C483.565 214.854 484.794 215.772 485.745 216.947C486.695 218.122 487.335 219.516 487.607 221.002C487.879 222.489 487.775 224.02 487.302 225.455C482.06 240.376 475.815 254.925 468.609 269.003C467.607 271.036 465.886 272.623 463.779 273.458C461.673 274.293 459.331 274.316 457.209 273.523C432.148 264.279 354.398 229.461 353.062 164.446Z" fill="white" stroke="#45413C" stroke-width="7" stroke-linecap="round" stroke-linejoin="round"/>
<path d="M352.406 150.174C352.406 150.174 369.455 240.557 425.431 296.739C426.487 297.806 427.26 299.12 427.68 300.562C428.101 302.003 428.155 303.527 427.839 304.995C427.523 306.463 426.847 307.829 425.87 308.969C424.894 310.11 423.649 310.99 422.247 311.529C402.667 318.499 382.194 322.649 361.444 323.854C359.18 323.983 356.949 323.267 355.184 321.843C353.418 320.419 352.245 318.391 351.892 316.15C347.373 286.468 333.61 183.451 352.406 150.174Z" fill="white" stroke="#45413C" stroke-width="7" stroke-linecap="round" stroke-linejoin="round"/>
<path d="M384.989 162.086C384.989 169.959 381.862 177.509 376.295 183.075C370.729 188.642 363.179 191.769 355.307 191.769H350.787C346.749 192.007 342.705 191.417 338.904 190.035C335.102 188.654 331.623 186.51 328.68 183.735C325.737 180.96 323.392 177.613 321.789 173.899C320.186 170.185 319.359 166.183 319.359 162.138C319.359 158.093 320.186 154.091 321.789 150.377C323.392 146.663 325.737 143.316 328.68 140.541C331.623 137.766 335.102 135.622 338.904 134.24C342.705 132.859 346.749 132.269 350.787 132.506H355.307C359.2 132.493 363.057 133.248 366.658 134.729C370.259 136.209 373.532 138.386 376.289 141.134C379.047 143.882 381.235 147.147 382.728 150.743C384.221 154.338 384.989 158.193 384.989 162.086V162.086Z" fill="#F0F0F0"/>
<path d="M350.808 151.305H355.327C361.602 151.304 367.715 153.291 372.79 156.982C377.865 160.673 381.639 165.877 383.572 171.846C384.519 168.856 385.004 165.739 385.01 162.603C385.01 158.709 384.241 154.855 382.748 151.259C381.255 147.664 379.067 144.398 376.31 141.65C373.552 138.902 370.279 136.725 366.678 135.245C363.078 133.764 359.22 133.009 355.327 133.023H350.808C346.915 133.009 343.057 133.764 339.456 135.245C335.856 136.725 332.583 138.902 329.825 141.65C327.067 144.398 324.879 147.664 323.386 151.259C321.893 154.855 321.125 158.709 321.125 162.603C321.131 165.739 321.616 168.856 322.563 171.846C324.509 165.885 328.287 160.69 333.359 157.002C338.43 153.313 344.537 151.319 350.808 151.305V151.305Z" fill="white"/>
<path d="M384.989 162.086C384.989 169.959 381.862 177.509 376.295 183.075C370.729 188.642 363.179 191.769 355.307 191.769H350.787C346.749 192.007 342.705 191.417 338.904 190.035C335.102 188.654 331.623 186.51 328.68 183.735C325.737 180.96 323.392 177.613 321.789 173.899C320.186 170.185 319.359 166.183 319.359 162.138C319.359 158.093 320.186 154.091 321.789 150.377C323.392 146.663 325.737 143.316 328.68 140.541C331.623 137.766 335.102 135.622 338.904 134.24C342.705 132.859 346.749 132.269 350.787 132.506H355.307C359.2 132.493 363.057 133.248 366.658 134.729C370.259 136.209 373.532 138.386 376.289 141.134C379.047 143.882 381.235 147.147 382.728 150.743C384.221 154.338 384.989 158.193 384.989 162.086V162.086Z" stroke="#45413C" stroke-width="7" stroke-linecap="round" stroke-linejoin="round"/>
</svg>
