<svg width="496" height="496" viewBox="0 0 496 496" fill="none" xmlns="http://www.w3.org/2000/svg">
<rect width="496" height="496" fill="white"/>
<path d="M246.25 203.5C255.75 203.5 264.167 205.5 271.5 209.5C278.833 213.5 284.5 219.083 288.5 226.25C292.667 233.25 294.75 241.25 294.75 250.25V326H275V307.75H274.75C271.583 313.083 266.333 317.917 259 322.25C251.667 326.417 243.417 328.5 234.25 328.5C226.417 328.5 219.417 326.917 213.25 323.75C207.083 320.583 202.25 316.417 198.75 311.25C195.417 305.917 193.75 300.167 193.75 294C193.75 284 197.083 275.75 203.75 269.25C210.417 262.583 219.75 258.25 231.75 256.25L274.25 249.25V248.75C274.25 241.083 271.583 234.75 266.25 229.75C261.083 224.75 254.417 222.25 246.25 222.25C239.583 222.25 233.583 223.75 228.25 226.75C223.083 229.75 218.25 233.75 213.75 238.75L200.5 226C205.833 219.667 212.333 214.333 220 210C227.667 205.667 236.417 203.5 246.25 203.5ZM237.25 310.5C244.083 310.5 250.333 308.833 256 305.5C261.667 302.167 266.083 297.667 269.25 292C272.583 286.167 274.25 279.75 274.25 272.75V266L236.75 272.5C229.25 273.833 223.583 276.25 219.75 279.75C216.083 283.25 214.25 287.417 214.25 292.25C214.25 297.25 216.333 301.583 220.5 305.25C224.833 308.75 230.417 310.5 237.25 310.5ZM256 185.5H239.5L258.25 151.5H281L256 185.5Z" fill="black"/>
</svg>
