<svg width="496" height="496" viewBox="0 0 496 496" fill="none" xmlns="http://www.w3.org/2000/svg">
<rect width="496" height="496" fill="white"/>
<path d="M188 326C188 312.833 190.583 301.417 195.75 291.75C200.917 282.083 207.083 274.083 214.25 267.75C221.583 261.417 231.083 254.333 242.75 246.5C251.417 240.667 258.25 235.75 263.25 231.75C268.25 227.75 272.333 223.25 275.5 218.25C278.833 213.083 280.5 207.333 280.5 201C280.5 191.833 277.333 184.417 271 178.75C264.833 173.083 256.333 170.25 245.5 170.25C235.833 170.25 228 172.833 222 178C216 183.167 211.667 189.25 209 196.25L190.25 188C192.083 181.833 195.333 175.75 200 169.75C204.667 163.583 210.833 158.5 218.5 154.5C226.333 150.5 235.333 148.5 245.5 148.5C256.667 148.5 266.583 150.833 275.25 155.5C284.083 160.167 290.917 166.5 295.75 174.5C300.583 182.5 303 191.333 303 201C303 210.333 300.917 218.583 296.75 225.75C292.583 232.917 287.417 239.083 281.25 244.25C275.25 249.25 267.167 255.167 257 262C245 270.167 235.667 277.25 229 283.25C222.333 289.083 217.417 296.083 214.25 304.25H303V326H188Z" fill="black"/>
</svg>
