<svg width="496" height="496" viewBox="0 0 496 496" fill="none" xmlns="http://www.w3.org/2000/svg">
<rect width="496" height="496" fill="white"/>
<path d="M247.75 328.5C235.917 328.5 225.333 326.167 216 321.5C206.833 316.833 199.75 310.583 194.75 302.75C189.75 294.75 187.25 286 187.25 276.5C187.25 265.5 190.5 256.083 197 248.25C203.5 240.25 210.667 234.75 218.5 231.75C211.667 228.583 206 223.75 201.5 217.25C197 210.75 194.75 203.083 194.75 194.25C194.75 186.083 197 178.5 201.5 171.5C206 164.5 212.25 158.917 220.25 154.75C228.25 150.583 237.417 148.5 247.75 148.5C257.917 148.5 267 150.583 275 154.75C283.167 158.917 289.417 164.5 293.75 171.5C298.25 178.5 300.5 186.083 300.5 194.25C300.5 203.083 298.25 210.75 293.75 217.25C289.25 223.75 283.583 228.583 276.75 231.75C284.583 234.75 291.75 240.25 298.25 248.25C304.75 256.083 308 265.5 308 276.5C308 286 305.5 294.75 300.5 302.75C295.5 310.583 288.417 316.833 279.25 321.5C270.083 326.167 259.583 328.5 247.75 328.5ZM247.75 222.25C256.917 222.25 264.25 219.833 269.75 215C275.25 210 278 203.667 278 196C278 188.333 275.25 182 269.75 177C264.25 171.833 256.917 169.25 247.75 169.25C238.583 169.25 231.167 171.833 225.5 177C220 182 217.25 188.333 217.25 196C217.25 203.667 220 210 225.5 215C231.167 219.833 238.583 222.25 247.75 222.25ZM247.75 307.75C259.25 307.75 268.417 304.75 275.25 298.75C282.083 292.583 285.5 284.833 285.5 275.5C285.5 266.333 282 258.667 275 252.5C268.167 246.167 259.083 243 247.75 243C236.25 243 227 246.167 220 252.5C213.167 258.667 209.75 266.333 209.75 275.5C209.75 284.833 213.167 292.583 220 298.75C227 304.75 236.25 307.75 247.75 307.75Z" fill="black"/>
</svg>
