<svg width="496" height="496" viewBox="0 0 496 496" fill="none" xmlns="http://www.w3.org/2000/svg">
<rect width="496" height="496" fill="white"/>
<path d="M260 328.5C243.167 328.5 227.75 324.5 213.75 316.5C199.917 308.5 188.917 297.667 180.75 284C172.75 270.167 168.75 255 168.75 238.5C168.75 222 172.75 206.917 180.75 193.25C188.917 179.417 199.917 168.5 213.75 160.5C227.75 152.5 243.167 148.5 260 148.5C275.833 148.5 289.917 151.917 302.25 158.75C314.583 165.583 324.25 173.667 331.25 183L315.25 195.75C309.25 188.417 301.667 182.167 292.5 177C283.5 171.833 272.667 169.25 260 169.25C247.333 169.25 235.75 172.333 225.25 178.5C214.75 184.667 206.417 193.083 200.25 203.75C194.25 214.25 191.25 225.833 191.25 238.5C191.25 251.167 194.25 262.833 200.25 273.5C206.417 284 214.75 292.333 225.25 298.5C235.75 304.667 247.333 307.75 260 307.75C272.833 307.75 283.917 305.083 293.25 299.75C302.583 294.417 310.333 287.917 316.5 280.25L332.5 293.25C325.167 302.75 315.25 311 302.75 318C290.25 325 276 328.5 260 328.5Z" fill="black"/>
</svg>
