<svg width="495" height="495" viewBox="0 0 495 495" fill="none" xmlns="http://www.w3.org/2000/svg">
<path d="M103.124 211.469C103.124 230.428 106.858 249.202 114.114 266.719C121.369 284.235 132.004 300.151 145.41 313.557C158.817 326.964 174.733 337.598 192.249 344.854C209.765 352.109 228.539 355.844 247.499 355.844C266.459 355.844 285.233 352.109 302.749 344.854C320.265 337.598 336.181 326.964 349.588 313.557C362.994 300.151 373.629 284.235 380.884 266.719C388.14 249.202 391.874 230.428 391.874 211.469C391.874 192.509 388.14 173.735 380.884 156.219C373.629 138.702 362.994 122.787 349.588 109.38C336.181 95.9737 320.265 85.3392 302.749 78.0836C285.233 70.8281 266.459 67.0938 247.499 67.0938C228.539 67.0938 209.765 70.8281 192.249 78.0836C174.733 85.3392 158.817 95.9737 145.41 109.38C132.004 122.787 121.369 138.702 114.114 156.219C106.858 173.735 103.124 192.509 103.124 211.469V211.469Z" fill="#FFFEF2"/>
<path d="M247.499 94.6281C283.387 94.6428 317.983 108.023 344.542 132.16C371.1 156.298 387.717 189.461 391.152 225.184C391.152 220.647 391.874 216.109 391.874 211.469C391.874 173.178 376.663 136.456 349.588 109.38C322.512 82.3046 285.79 67.0937 247.499 67.0938C209.208 67.0938 172.486 82.3046 145.41 109.38C118.335 136.456 103.124 173.178 103.124 211.469C103.124 216.109 103.124 220.647 103.846 225.184C107.281 189.461 123.898 156.298 150.456 132.16C177.015 108.023 211.611 94.6428 247.499 94.6281V94.6281Z" fill="white"/>
<path d="M103.124 211.469C103.124 230.428 106.858 249.202 114.114 266.719C121.369 284.235 132.004 300.151 145.41 313.557C158.817 326.964 174.733 337.598 192.249 344.854C209.765 352.109 228.539 355.844 247.499 355.844C266.459 355.844 285.233 352.109 302.749 344.854C320.265 337.598 336.181 326.964 349.588 313.557C362.994 300.151 373.629 284.235 380.884 266.719C388.14 249.202 391.874 230.428 391.874 211.469C391.874 192.509 388.14 173.735 380.884 156.219C373.629 138.702 362.994 122.787 349.588 109.38C336.181 95.9737 320.265 85.3392 302.749 78.0836C285.233 70.8281 266.459 67.0938 247.499 67.0938C228.539 67.0938 209.765 70.8281 192.249 78.0836C174.733 85.3392 158.817 95.9737 145.41 109.38C132.004 122.787 121.369 138.702 114.114 156.219C106.858 173.735 103.124 192.509 103.124 211.469V211.469Z" stroke="#45413C" stroke-width="7" stroke-linecap="round" stroke-linejoin="round"/>
<path d="M247.499 67.0938C218.022 67.1135 189.256 76.1559 165.069 93.0058C140.882 109.856 122.432 133.705 112.199 161.35C116.258 167.477 121.822 172.459 128.359 175.818C134.896 179.176 142.186 180.799 149.53 180.531C194.184 180.531 185.624 142.272 221.718 134.125C256.059 126.391 258.637 149.594 299.062 149.594C310.738 150.309 322.387 147.801 332.735 142.345C343.083 136.889 351.733 128.695 357.74 118.656C344.226 102.554 327.359 89.5975 308.318 80.6913C289.277 71.7852 268.52 67.1446 247.499 67.0938V67.0938Z" fill="#FF87AF"/>
<path d="M120.552 170.218C131.011 150.85 145.76 134.131 163.671 121.337C181.583 108.543 202.182 100.014 223.895 96.4015C245.608 92.7893 267.86 94.1896 288.948 100.495C310.037 106.801 329.405 117.845 345.571 132.784C350.269 128.667 354.365 123.912 357.74 118.656C341.453 99.413 320.411 84.7704 296.707 76.1848C273.004 67.5993 247.466 65.3702 222.633 69.7192C197.801 74.0683 174.54 84.8439 155.165 100.974C135.791 117.104 120.977 138.026 112.199 161.659C114.631 164.836 117.436 167.71 120.552 170.218Z" fill="#FFB0CA"/>
<path d="M247.499 67.0938C218.022 67.1135 189.256 76.1559 165.069 93.0058C140.882 109.856 122.432 133.705 112.199 161.35C116.258 167.477 121.822 172.459 128.359 175.818C134.896 179.176 142.186 180.799 149.53 180.531C194.184 180.531 185.624 142.272 221.718 134.125C256.059 126.391 258.637 149.594 299.062 149.594C310.738 150.309 322.387 147.801 332.735 142.345C343.083 136.889 351.733 128.695 357.74 118.656C344.226 102.554 327.359 89.5975 308.318 80.6913C289.277 71.7852 268.52 67.1446 247.499 67.0938V67.0938Z" stroke="#45413C" stroke-width="7" stroke-linecap="round" stroke-linejoin="round"/>
<path d="M411.778 58.6377C401.367 58.6844 391.214 61.8816 382.655 67.8087C374.096 73.7357 367.531 82.1149 363.825 91.8439L302.878 247.563H333.815L384.759 118.656C386.817 113.15 390.506 108.402 395.334 105.048C400.162 101.694 405.899 99.8938 411.778 99.8877C417.248 99.8877 422.494 97.7147 426.362 93.8468C430.23 89.9788 432.403 84.7328 432.403 79.2627C432.403 73.7926 430.23 68.5466 426.362 64.6786C422.494 60.8107 417.248 58.6377 411.778 58.6377V58.6377Z" fill="#DAEDF7"/>
<path d="M411.778 58.6379C401.367 58.6846 391.214 61.8818 382.655 67.8089C374.096 73.7359 367.531 82.1151 363.825 91.8441L302.878 247.563H313.19L366.403 112.469C370.109 102.74 376.674 94.3609 385.233 88.4339C393.792 82.5068 403.945 79.3096 414.356 79.2629C417.54 79.3187 420.669 80.1112 423.496 81.5783C426.323 83.0454 428.771 85.1473 430.65 87.7191C430.65 86.6879 431.475 85.6566 431.784 84.6254C432.609 81.5611 432.716 78.3478 432.097 75.2354C431.477 72.1231 430.147 69.1957 428.212 66.6811C426.276 64.1666 423.786 62.1326 420.935 60.7375C418.085 59.3425 414.951 58.624 411.778 58.6379Z" fill="white"/>
<path d="M411.778 58.6377C401.367 58.6844 391.214 61.8816 382.655 67.8087C374.096 73.7357 367.531 82.1149 363.825 91.8439L302.878 247.563H333.815L384.759 118.656C386.817 113.15 390.506 108.402 395.334 105.048C400.162 101.694 405.899 99.8938 411.778 99.8877C417.248 99.8877 422.494 97.7147 426.362 93.8468C430.23 89.9788 432.403 84.7328 432.403 79.2627C432.403 73.7926 430.23 68.5466 426.362 64.6786C422.494 60.8107 417.248 58.6377 411.778 58.6377V58.6377Z" stroke="#45413C" stroke-width="7" stroke-linecap="round" stroke-linejoin="round"/>
<path d="M398.99 211.469C398.99 211.469 379.5 242.406 251.315 242.406C123.131 242.406 96.0089 211.469 96.0089 211.469C94.9214 211.468 93.8449 211.686 92.8428 212.108C91.8407 212.53 90.9332 213.149 90.174 213.927C89.4147 214.706 88.819 215.628 88.4219 216.641C88.0248 217.653 87.8345 218.735 87.862 219.822C89.7955 255.952 103.922 290.359 127.934 317.424C151.946 344.49 184.426 362.614 220.068 368.837C221.92 369.104 223.618 370.016 224.863 371.412C226.108 372.808 226.821 374.599 226.874 376.469V409.469C226.875 411.334 226.258 413.147 225.121 414.625C215.2 426.816 201.596 435.464 186.346 439.272V439.272C183.513 440.194 181.099 442.092 179.534 444.627C177.968 447.162 177.354 450.171 177.8 453.117C178.245 456.063 179.722 458.756 181.967 460.715C184.212 462.674 187.08 463.773 190.059 463.816H305.25C308.117 463.682 310.852 462.573 313.002 460.671C315.152 458.769 316.587 456.189 317.068 453.359C317.55 450.529 317.049 447.62 315.65 445.114C314.251 442.608 312.036 440.656 309.375 439.581V439.581C294.125 435.773 280.52 427.125 270.6 414.934C269.463 413.456 268.846 411.643 268.846 409.778V376.469C268.852 374.563 269.542 372.723 270.792 371.284C272.041 369.845 273.766 368.904 275.653 368.631C311.13 362.27 343.419 344.112 367.284 317.102C391.15 290.092 405.193 255.813 407.137 219.822C407.165 218.735 406.974 217.653 406.577 216.641C406.18 215.628 405.584 214.706 404.825 213.927C404.066 213.149 403.158 212.53 402.156 212.108C401.154 211.686 400.078 211.468 398.99 211.469V211.469Z" fill="#B8ECFF"/>
<path d="M398.99 211.469C398.99 211.469 379.5 242.406 251.315 242.406C123.131 242.406 96.0089 211.469 96.0089 211.469C94.9214 211.468 93.8449 211.686 92.8428 212.108C91.8407 212.53 90.9332 213.149 90.174 213.927C89.4147 214.706 88.819 215.628 88.4219 216.641C88.0248 217.653 87.8345 218.735 87.862 219.822C87.862 219.822 87.862 220.647 87.862 221.163C108.487 266.125 173.765 299.125 251.212 299.125C319.687 299.125 378.056 273.344 405.281 236.734C406.106 231.166 406.828 225.494 407.137 219.822C407.165 218.735 406.974 217.653 406.577 216.641C406.18 215.628 405.584 214.706 404.825 213.927C404.066 213.149 403.158 212.53 402.156 212.108C401.154 211.686 400.078 211.468 398.99 211.469V211.469Z" fill="#E5F8FF"/>
<path d="M398.99 211.469C398.99 211.469 379.5 242.406 251.315 242.406C123.131 242.406 96.0089 211.469 96.0089 211.469C94.9214 211.468 93.8449 211.686 92.8428 212.108C91.8407 212.53 90.9332 213.149 90.174 213.927C89.4147 214.706 88.819 215.628 88.4219 216.641C88.0248 217.653 87.8345 218.735 87.862 219.822C89.7955 255.952 103.922 290.359 127.934 317.424C151.946 344.49 184.426 362.614 220.068 368.837C221.92 369.104 223.618 370.016 224.863 371.412C226.108 372.808 226.821 374.599 226.874 376.469V409.469C226.875 411.334 226.258 413.147 225.121 414.625C215.2 426.816 201.596 435.464 186.346 439.272C183.458 440.124 180.972 441.985 179.338 444.514C177.705 447.044 177.033 450.076 177.445 453.059C177.857 456.042 179.325 458.779 181.583 460.771C183.841 462.764 186.738 463.881 189.749 463.919H305.25C308.261 463.881 311.158 462.764 313.416 460.771C315.674 458.779 317.142 456.042 317.554 453.059C317.966 450.076 317.294 447.044 315.661 444.514C314.027 441.985 311.541 440.124 308.653 439.272C293.403 435.464 279.799 426.816 269.878 414.625C268.741 413.147 268.124 411.334 268.125 409.469V376.469C268.13 374.563 268.82 372.723 270.07 371.284C271.319 369.845 273.045 368.904 274.931 368.631C310.54 362.416 342.995 344.322 367.003 317.298C391.012 290.275 405.158 255.916 407.137 219.822C407.165 218.735 406.974 217.653 406.577 216.641C406.18 215.628 405.584 214.706 404.825 213.927C404.066 213.149 403.158 212.53 402.156 212.108C401.154 211.686 400.078 211.468 398.99 211.469V211.469Z" stroke="#45413C" stroke-width="7" stroke-linecap="round" stroke-linejoin="round"/>
<path d="M235.847 56.7812C235.847 63.6189 238.563 70.1764 243.398 75.0113C248.233 79.8463 254.79 82.5625 261.628 82.5625C268.466 82.5625 275.023 79.8463 279.858 75.0113C284.693 70.1764 287.409 63.6189 287.409 56.7812C287.409 49.9436 284.693 43.3861 279.858 38.5512C275.023 33.7162 268.466 31 261.628 31C254.79 31 248.233 33.7162 243.398 38.5512C238.563 43.3861 235.847 49.9436 235.847 56.7812V56.7812Z" fill="#FF6242"/>
<path d="M261.628 46.4688C267.088 46.5012 272.397 48.2663 276.789 51.5096C281.181 54.7529 284.431 59.307 286.069 64.5156C286.881 62.0144 287.333 59.41 287.409 56.7812C287.409 49.9436 284.693 43.3861 279.858 38.5512C275.023 33.7162 268.466 31 261.628 31C254.79 31 248.233 33.7162 243.398 38.5512C238.563 43.3861 235.847 49.9436 235.847 56.7812C235.888 59.4052 236.305 62.0096 237.084 64.5156C238.727 59.2903 241.992 54.7242 246.405 51.4793C250.818 48.2344 256.15 46.4794 261.628 46.4688V46.4688Z" fill="#FF866E"/>
<path d="M235.847 56.7812C235.847 63.6189 238.563 70.1764 243.398 75.0113C248.233 79.8463 254.79 82.5625 261.628 82.5625C268.466 82.5625 275.023 79.8463 279.858 75.0113C284.693 70.1764 287.409 63.6189 287.409 56.7812C287.409 49.9436 284.693 43.3861 279.858 38.5512C275.023 33.7162 268.466 31 261.628 31C254.79 31 248.233 33.7162 243.398 38.5512C238.563 43.3861 235.847 49.9436 235.847 56.7812V56.7812Z" stroke="#45413C" stroke-width="7" stroke-linecap="round" stroke-linejoin="round"/>
</svg>
