<svg width="496" height="496" viewBox="0 0 496 496" fill="none" xmlns="http://www.w3.org/2000/svg">
<g clip-path="url(#clip0_1175_6225)">
<path d="M89.8771 53.2271C86.4514 49.7877 84.5323 45.1283 84.5419 40.2739C84.5516 35.4195 86.4893 30.7678 89.9287 27.3421C93.3682 23.9164 98.0276 21.9973 102.882 22.0069C107.736 22.0166 112.388 23.9543 115.814 27.3937L122.84 34.4204C125.266 36.8458 128.555 38.2084 131.985 38.2084C135.415 38.2084 138.705 36.8458 141.13 34.4204C143.556 31.995 144.918 28.7054 144.918 25.2754C144.918 21.8454 143.556 18.5558 141.13 16.1304L134.104 9.10373C125.591 2.58928 115.001 -0.611509 104.305 0.096672C93.6087 0.804853 83.5337 5.37379 75.9537 12.9537C68.3738 20.5337 63.8049 30.6087 63.0967 41.305C62.3885 52.0012 65.5893 62.5906 72.1037 71.1037L172.027 172.06L190.317 153.667L89.8771 53.2271Z" fill="#87898C" stroke="#45413C" stroke-width="7" stroke-linecap="round" stroke-linejoin="round"/>
<path d="M427.82 391.128L400.333 363.745L382.043 382.035L409.53 409.728C410.694 411.11 412.132 412.234 413.754 413.029C415.376 413.824 417.145 414.274 418.95 414.348C420.755 414.422 422.555 414.12 424.237 413.461C425.919 412.802 427.445 411.8 428.719 410.52C429.993 409.239 430.986 407.707 431.635 406.021C432.285 404.336 432.577 402.534 432.492 400.729C432.408 398.925 431.948 397.158 431.144 395.541C430.34 393.923 429.208 392.491 427.82 391.335V391.128Z" fill="#87898C" stroke="#45413C" stroke-width="7" stroke-linecap="round" stroke-linejoin="round"/>
<path d="M402.817 361.058L243.271 75.3412C242.859 74.6553 242.232 74.1252 241.487 73.8337C240.743 73.5422 239.922 73.5058 239.155 73.7302C238.387 73.9546 237.715 74.4271 237.245 75.0739C236.774 75.7206 236.531 76.5051 236.554 77.3045C237.05 85.7254 235.757 94.1558 232.76 102.041C229.762 109.926 225.129 117.086 219.164 123.051C213.199 129.016 206.039 133.649 198.154 136.647C190.269 139.644 181.838 140.937 173.417 140.441L161.844 139.821C161.348 139.791 160.851 139.867 160.386 140.043C159.921 140.219 159.498 140.492 159.147 140.844C158.795 141.195 158.522 141.618 158.346 142.083C158.169 142.548 158.094 143.045 158.124 143.541L158.744 155.115C159.253 163.512 157.979 171.922 155.006 179.792C152.032 187.661 147.428 194.813 141.494 200.776C135.56 206.739 128.431 211.379 120.576 214.391C112.721 217.403 104.317 218.719 95.9174 218.251C95.1054 218.172 94.291 218.378 93.6141 218.833C92.9372 219.289 92.44 219.966 92.2078 220.748C91.9756 221.53 92.0228 222.369 92.3415 223.12C92.6601 223.871 93.2303 224.488 93.9541 224.865L379.361 384.515C382.638 386.329 386.417 387.029 390.126 386.507C393.836 385.985 397.275 384.27 399.924 381.621C402.572 378.972 404.287 375.533 404.809 371.823C405.332 368.114 404.632 364.335 402.817 361.058Z" fill="#9DD4FF"/>
<path d="M215.902 126.078L391.569 386.168C394.086 385.458 396.409 384.185 398.362 382.445C400.316 380.706 401.848 378.545 402.843 376.126C403.839 373.708 404.271 371.094 404.108 368.484C403.945 365.873 403.191 363.334 401.902 361.058L243.182 75.3412C242.771 74.6553 242.144 74.1252 241.399 73.8337C240.654 73.5422 239.834 73.5058 239.066 73.7302C238.298 73.9546 237.627 74.4271 237.156 75.0739C236.686 75.7206 236.443 76.5051 236.466 77.3045C237.017 86.4678 235.448 95.6348 231.882 104.094C228.316 112.552 222.848 120.075 215.902 126.078Z" fill="#53AEF9"/>
<path d="M402.817 361.058L243.271 75.3412C242.859 74.6553 242.232 74.1252 241.487 73.8337C240.743 73.5422 239.922 73.5058 239.155 73.7302C238.387 73.9546 237.715 74.4271 237.245 75.0739C236.774 75.7206 236.531 76.5051 236.554 77.3045C237.05 85.7254 235.757 94.1558 232.76 102.041C229.762 109.926 225.129 117.086 219.164 123.051C213.199 129.016 206.039 133.649 198.154 136.647C190.269 139.644 181.838 140.937 173.417 140.441L161.844 139.821C161.348 139.791 160.851 139.867 160.386 140.043C159.921 140.219 159.498 140.492 159.147 140.844C158.795 141.195 158.522 141.618 158.346 142.083C158.169 142.548 158.094 143.045 158.124 143.541L158.744 155.115C159.253 163.512 157.979 171.922 155.006 179.792C152.032 187.661 147.428 194.813 141.494 200.776C135.56 206.739 128.431 211.379 120.576 214.391C112.721 217.403 104.317 218.719 95.9174 218.251C95.1054 218.172 94.291 218.378 93.6141 218.833C92.9372 219.289 92.44 219.966 92.2078 220.748C91.9756 221.53 92.0228 222.369 92.3415 223.12C92.6601 223.871 93.2303 224.488 93.9541 224.865L379.361 384.515C382.638 386.329 386.417 387.029 390.126 386.507C393.836 385.985 397.275 384.27 399.924 381.621C402.572 378.972 404.287 375.533 404.809 371.823C405.332 368.114 404.632 364.335 402.817 361.058Z" stroke="#45413C" stroke-width="7" stroke-linecap="round" stroke-linejoin="round"/>
</g>
<defs>
<clipPath id="clip0_1175_6225">
<rect width="496" height="496" fill="white"/>
</clipPath>
</defs>
</svg>
