<svg width="495" height="495" viewBox="0 0 495 495" fill="none" xmlns="http://www.w3.org/2000/svg">
<path d="M348.73 84.9533C348.721 106.885 366.056 138.373 366.056 138.373C366.056 138.373 403.027 160.454 428.138 157.142C454.034 153.727 495.268 144.82 484.446 121.048C477.445 105.67 454.459 116.582 445.464 102.279C436.459 87.9599 457.033 71.3053 445.464 58.9653C433.124 45.8025 414.722 68.2679 399.263 58.9653C383.917 49.731 394.148 25.4037 377.606 18.5394C351.484 7.70008 348.742 56.6717 348.73 84.9533Z" fill="#FF0099" stroke="black" stroke-width="10"/>
<path d="M145.493 410.047C145.502 388.115 128.168 356.627 128.168 356.627C128.168 356.627 91.1963 334.546 66.0853 337.858C40.1901 341.273 -1.04395 350.18 9.77788 373.952C16.7783 389.33 39.7651 378.418 48.7599 392.721C57.7648 407.04 37.1911 423.695 48.7599 436.035C61.1 449.197 79.5014 426.732 94.9609 436.035C110.307 445.269 100.075 469.596 116.618 476.461C142.74 487.3 145.481 438.328 145.493 410.047Z" fill="#FF0099" stroke="black" stroke-width="10"/>
<ellipse cx="246.697" cy="246.011" rx="160.961" ry="113.037" transform="rotate(-41.6958 246.697 246.011)" fill="#FFD366" stroke="black" stroke-width="10"/>
<path d="M363.448 270C332.384 217.994 285.286 169.02 230.715 131C191.889 146.105 164.423 162.385 139.948 206C202.561 239.528 257.036 292.362 280.948 353.5C320.738 330.973 340.221 311.491 363.448 270Z" fill="#FF0099"/>
</svg>
