<svg width="493" height="493" viewBox="0 0 493 493" fill="none" xmlns="http://www.w3.org/2000/svg">
<path d="M15.4062 246.513C15.4063 294.918 34.6352 341.341 68.863 375.569C103.091 409.796 149.514 429.025 197.919 429.025C246.324 429.025 292.747 409.796 326.975 375.569C361.203 341.341 380.432 294.918 380.432 246.513C380.432 198.107 361.203 151.685 326.975 117.457C292.747 83.229 246.324 64 197.919 64C149.514 64 103.091 83.229 68.863 117.457C34.6352 151.685 15.4063 198.107 15.4062 246.513Z" fill="#FFE500"/>
<path d="M197.862 64C161.739 64 126.428 74.7128 96.3952 94.7834C66.362 114.854 42.9558 143.381 29.1371 176.755C15.3184 210.13 11.708 246.853 18.7626 282.28C25.8172 317.706 43.2198 350.245 68.7693 375.78C94.3188 401.315 126.867 418.7 162.298 425.734C197.729 432.769 234.45 429.138 267.817 415.301C301.183 401.463 329.697 378.041 349.751 347.996C369.804 317.952 380.497 282.635 380.477 246.513C380.45 198.098 361.198 151.675 326.954 117.45C292.71 83.2257 246.276 64 197.862 64ZM197.862 401.705C164.913 401.705 132.704 391.934 105.307 373.629C77.9114 355.324 56.5588 329.305 43.9498 298.864C31.3408 268.424 28.0417 234.927 34.4697 202.611C40.8977 170.296 56.7641 140.612 80.0626 117.313C103.361 94.0147 133.045 78.1482 165.361 71.7202C197.677 65.2922 231.173 68.5913 261.614 81.2003C292.055 93.8093 318.073 115.162 336.378 142.558C354.684 169.954 364.454 202.163 364.454 235.112C364.454 256.989 360.145 278.652 351.773 298.864C343.401 319.076 331.13 337.441 315.661 352.911C300.191 368.381 281.826 380.652 261.614 389.024C241.402 397.396 219.739 401.705 197.862 401.705Z" fill="#EBCB00"/>
<path d="M143.152 100.463C143.152 104.086 148.92 107.56 159.186 110.122C169.453 112.684 183.377 114.123 197.896 114.123C212.415 114.123 226.339 112.684 236.605 110.122C246.872 107.56 252.639 104.086 252.639 100.463C252.639 96.84 246.872 93.3655 236.605 90.8037C226.339 88.2419 212.415 86.8027 197.896 86.8027C183.377 86.8027 169.453 88.2419 159.186 90.8037C148.92 93.3655 143.152 96.84 143.152 100.463Z" fill="#FFF48C"/>
<path d="M111.215 255.655C111.215 258.079 112.178 260.404 113.892 262.118C115.606 263.833 117.932 264.796 120.356 264.796C122.78 264.796 125.105 263.833 126.82 262.118C128.534 260.404 129.497 258.079 129.497 255.655C129.497 253.23 128.534 250.905 126.82 249.191C125.105 247.477 122.78 246.514 120.356 246.514C117.932 246.514 115.606 247.477 113.892 249.191C112.178 250.905 111.215 253.23 111.215 255.655Z" fill="#45413C" stroke="#45413C" stroke-width="7" stroke-linecap="round" stroke-linejoin="round"/>
<path d="M155.296 241.994C155.296 241.994 127.873 200.911 97.5742 214.571" stroke="#45413C" stroke-width="7" stroke-linecap="round" stroke-linejoin="round"/>
<path d="M240.562 241.994C240.562 241.994 267.986 200.911 298.387 214.571" stroke="#45413C" stroke-width="7" stroke-linecap="round" stroke-linejoin="round"/>
<path d="M266.402 255.655C266.402 258.079 267.365 260.404 269.08 262.118C270.794 263.833 273.119 264.796 275.543 264.796C277.968 264.796 280.293 263.833 282.007 262.118C283.721 260.404 284.684 258.079 284.684 255.655C284.684 253.23 283.721 250.905 282.007 249.191C280.293 247.477 277.968 246.514 275.543 246.514C273.119 246.514 270.794 247.477 269.08 249.191C267.365 250.905 266.402 253.23 266.402 255.655Z" fill="#45413C" stroke="#45413C" stroke-width="7" stroke-linecap="round" stroke-linejoin="round"/>
<path d="M152.297 337.821C165.81 328.791 181.698 323.971 197.951 323.971C214.204 323.971 230.091 328.791 243.605 337.821" stroke="#45413C" stroke-width="7" stroke-linecap="round"/>
<path d="M330.298 296.738C330.298 304.339 320.027 310.501 307.497 310.501C294.966 310.501 284.695 304.339 284.695 296.738C284.695 289.138 294.966 283.078 307.497 283.078C320.027 283.078 330.298 289.241 330.298 296.738Z" fill="#FFAA54"/>
<path d="M65.6367 296.736C65.6367 304.337 75.9076 310.499 88.438 310.499C100.968 310.499 111.239 304.337 111.239 296.736C111.239 289.136 100.968 283.076 88.438 283.076C75.9076 283.076 65.6367 289.239 65.6367 296.736Z" fill="#FFAA54"/>
<path d="M15.4062 246.513C15.4063 294.918 34.6352 341.341 68.863 375.569C103.091 409.796 149.514 429.025 197.919 429.025C246.324 429.025 292.747 409.796 326.975 375.569C361.203 341.341 380.432 294.918 380.432 246.513C380.432 198.107 361.203 151.684 326.975 117.457C292.747 83.229 246.324 64 197.919 64C149.514 64 103.091 83.229 68.863 117.457C34.6352 151.684 15.4063 198.107 15.4062 246.513V246.513Z" stroke="#45413C" stroke-width="7" stroke-linecap="round" stroke-linejoin="round"/>
<path d="M343.977 137.025H33.2844C31.8753 137.029 30.4857 137.355 29.2218 137.978C27.958 138.601 26.8532 139.505 25.9921 140.62C18.0441 151.043 11.3237 162.347 5.964 174.309C5.32839 175.699 5.05175 177.227 5.15941 178.752C5.26707 180.277 5.75559 181.751 6.58025 183.039C7.42769 184.312 8.57136 185.36 9.91308 186.093C11.2548 186.827 12.7545 187.224 14.2834 187.25H370.681C364.475 169.209 355.463 152.259 343.977 137.025Z" fill="#F0F0F0"/>
<path d="M343.986 137.023H33.2936C31.8845 137.027 30.4949 137.353 29.231 137.976C27.9671 138.599 26.8624 139.503 26.0013 140.618C22.3189 145.328 18.8904 150.231 15.7305 155.306H356.106C352.438 148.973 348.391 142.868 343.986 137.023Z" fill="white"/>
<path d="M343.977 137.025H33.2844C31.8753 137.029 30.4857 137.355 29.2218 137.978C27.958 138.601 26.8532 139.505 25.9921 140.62C18.0441 151.043 11.3237 162.347 5.964 174.309C5.32839 175.699 5.05175 177.227 5.15941 178.752C5.26707 180.277 5.75559 181.751 6.58025 183.039C7.42769 184.312 8.57136 185.36 9.91308 186.093C11.2548 186.827 12.7545 187.224 14.2834 187.25H370.681C364.475 169.209 355.463 152.259 343.977 137.025Z" stroke="#45413C" stroke-width="7" stroke-linecap="round" stroke-linejoin="round"/>
<path d="M353.062 164.447C353.062 164.447 403.184 220.423 477.75 213.645C479.253 213.483 480.772 213.701 482.168 214.278C483.565 214.855 484.794 215.773 485.745 216.948C486.695 218.123 487.335 219.517 487.607 221.003C487.879 222.49 487.775 224.021 487.302 225.456C482.06 240.377 475.815 254.926 468.609 269.004C467.607 271.037 465.886 272.624 463.779 273.459C461.673 274.294 459.331 274.317 457.209 273.524C432.148 264.28 354.398 229.462 353.062 164.447Z" fill="white" stroke="#45413C" stroke-width="7" stroke-linecap="round" stroke-linejoin="round"/>
<path d="M352.406 150.174C352.406 150.174 369.455 240.557 425.431 296.739C426.487 297.806 427.26 299.12 427.68 300.562C428.101 302.003 428.155 303.527 427.839 304.995C427.523 306.463 426.847 307.829 425.87 308.969C424.894 310.11 423.649 310.99 422.247 311.529C402.667 318.499 382.194 322.649 361.444 323.854C359.18 323.983 356.949 323.267 355.184 321.843C353.418 320.419 352.245 318.391 351.892 316.15C347.373 286.468 333.61 183.451 352.406 150.174Z" fill="white" stroke="#45413C" stroke-width="7" stroke-linecap="round" stroke-linejoin="round"/>
</svg>
