<svg width="495" height="495" viewBox="0 0 495 495" fill="none" xmlns="http://www.w3.org/2000/svg">
<path d="M192.679 461.557L34.6918 303.672C33.7175 302.899 32.9629 301.884 32.5034 300.728C32.0438 299.572 31.8953 298.316 32.0727 297.084C32.2501 295.853 32.7471 294.69 33.5143 293.711C34.2815 292.731 35.2919 291.97 36.4449 291.504L46.1387 287.379C48.7916 286.553 51.6326 286.553 54.2856 287.379L132.97 303.569L192.989 363.588L209.386 442.066C209.926 444.829 209.676 447.689 208.664 450.316L204.745 459.907C204.283 461.053 203.526 462.058 202.55 462.817C201.575 463.577 200.416 464.066 199.191 464.233C197.966 464.401 196.718 464.241 195.575 463.771C194.431 463.301 193.432 462.537 192.679 461.557Z" fill="#4ACFFF"/>
<path d="M160.195 356.885L172.054 342.963L132.97 303.569L54.2856 287.378C51.5597 286.785 48.7177 287.037 46.1387 288.1L36.4449 291.916C35.2919 292.383 34.2815 293.144 33.5143 294.123C32.7471 295.102 32.2501 296.265 32.0727 297.497C31.8953 298.728 32.0438 299.984 32.5034 301.14C32.9629 302.296 33.7175 303.311 34.6918 304.085L45.0043 314.397H46.2418C48.8208 313.334 51.6628 313.082 54.3887 313.675L132.97 329.35L160.195 356.885Z" fill="#80DDFF"/>
<path d="M192.68 363.587L187.421 358.328L123.277 392.359L156.277 425.256C161.342 425.282 166.381 424.552 171.23 423.091C182.547 419.474 193.054 413.696 202.168 406.075L192.68 363.587Z" fill="#00B8F0"/>
<path d="M192.679 461.557L34.6918 303.672C33.7175 302.899 32.9629 301.884 32.5034 300.728C32.0438 299.572 31.8953 298.316 32.0727 297.084C32.2501 295.853 32.7471 294.69 33.5143 293.711C34.2815 292.731 35.2919 291.97 36.4449 291.504L46.1387 287.379C48.7916 286.553 51.6326 286.553 54.2856 287.379L132.97 303.569L192.989 363.588L209.386 442.066C209.926 444.829 209.676 447.689 208.664 450.316L204.745 459.907C204.283 461.053 203.526 462.058 202.55 462.817C201.575 463.577 200.416 464.066 199.191 464.233C197.966 464.401 196.718 464.241 195.575 463.771C194.431 463.301 193.432 462.537 192.679 461.557Z" stroke="#45413C" stroke-width="6" stroke-linecap="round" stroke-linejoin="round"/>
<path d="M399.548 419.274L302.611 295.524L200.517 193.327L76.7673 96.3897C74.7742 94.8269 73.2273 92.7674 72.2819 90.4177C71.3364 88.068 71.0258 85.511 71.381 83.0033C71.7363 80.4957 72.745 78.1255 74.3058 76.1309C75.8667 74.1363 77.9248 72.5875 80.2735 71.6397L99.9704 63.8023C105.263 61.6352 111.091 61.1317 116.677 62.3585L277.345 96.6991L399.755 219.315L433.683 379.262C434.745 384.873 434.172 390.672 432.033 395.968L424.092 415.665C423.139 417.977 421.601 420.001 419.629 421.54C417.658 423.079 415.32 424.08 412.846 424.444C410.372 424.808 407.845 424.522 405.514 423.616C403.183 422.71 401.127 421.214 399.548 419.274Z" fill="#4ACFFF"/>
<path d="M390.473 210.035L399.754 219.213L411.407 274.179L331.795 332.857L302.713 295.835L295.082 288.307L390.473 210.035Z" fill="#00B8F0"/>
<path d="M283.634 103.094L264.659 125.885L117.19 94.9473C111.57 93.7121 105.707 94.2157 100.381 96.391L84.3962 102.785L77.1774 97.1129C75.1843 95.5501 73.6374 93.4905 72.692 91.1409C71.7466 88.7912 71.4359 86.2342 71.7912 83.7265C72.1464 81.2188 73.1551 78.8487 74.716 76.8541C76.2768 74.8595 78.3349 73.3106 80.6837 72.3629L100.381 64.4223C105.732 62.3492 111.564 61.8483 117.19 62.9785L277.343 96.5973L283.634 103.094Z" fill="#80DDFF"/>
<path d="M399.548 419.274L302.611 295.524L200.517 193.327L76.7673 96.3897C74.7742 94.8269 73.2273 92.7674 72.2819 90.4177C71.3364 88.068 71.0258 85.511 71.381 83.0033C71.7363 80.4957 72.745 78.1255 74.3058 76.1309C75.8667 74.1363 77.9248 72.5875 80.2735 71.6397L99.9704 63.8023C105.263 61.6352 111.091 61.1317 116.677 62.3585L277.345 96.6991L399.755 219.315L433.683 379.262C434.745 384.873 434.172 390.672 432.033 395.968L424.092 415.665C423.139 417.977 421.601 420.001 419.629 421.54C417.658 423.079 415.32 424.08 412.846 424.444C410.372 424.808 407.845 424.522 405.514 423.616C403.183 422.71 401.127 421.214 399.548 419.274Z" stroke="#45413C" stroke-width="6" stroke-linecap="round" stroke-linejoin="round"/>
<path d="M102.032 359.565L289.101 134.546C293.694 129.036 298.921 124.086 304.673 119.8C350.46 80.1996 419.554 52.2527 450.801 83.4996C456.173 88.9941 460.043 95.7765 462.041 103.196C466.785 80.0965 464.413 59.059 450.801 45.4465C419.863 14.509 350.46 42.2496 304.673 81.8496C298.898 86.07 293.668 90.9886 289.101 96.4933L102.032 321.821C95.6916 329.22 91.4485 338.182 89.7437 347.776C88.039 357.369 88.9349 367.244 92.3383 376.375C94.6073 370.269 97.884 364.587 102.032 359.565Z" fill="white"/>
<path d="M414.499 191.678C454.099 145.89 482.149 76.7967 450.799 45.4467C419.449 14.0967 350.459 42.2498 304.671 81.8498C298.897 86.0703 293.666 90.9889 289.099 96.4936L102.031 321.822C93.3215 331.672 88.6093 344.422 88.8192 357.568C89.0291 370.715 94.1459 383.308 103.165 392.875C112.73 401.886 125.312 407.007 138.452 407.236C151.592 407.465 164.345 402.785 174.218 394.112L399.856 207.147C405.332 202.588 410.247 197.395 414.499 191.678Z" fill="#E8F4FA"/>
<path d="M414.499 191.678C454.099 145.89 482.149 76.7967 450.799 45.4467C419.449 14.0967 350.459 42.2498 304.671 81.8498C298.897 86.0703 293.666 90.9889 289.099 96.4936L102.031 321.822C93.3215 331.672 88.6093 344.422 88.8192 357.568C89.0291 370.715 94.1459 383.308 103.165 392.875C112.73 401.886 125.312 407.007 138.452 407.236C151.592 407.465 164.345 402.785 174.218 394.112L399.856 207.147C405.332 202.588 410.247 197.395 414.499 191.678Z" stroke="#45413C" stroke-width="6" stroke-linecap="round" stroke-linejoin="round"/>
<path d="M409.655 86.5944C401.023 78.1862 390.527 71.9357 379.022 68.3516C367.517 64.7675 355.329 63.9513 343.448 65.9694L339.942 96.9069C339.798 98.0248 339.917 99.161 340.291 100.225C340.665 101.288 341.282 102.249 342.094 103.031C342.906 103.813 343.89 104.394 344.967 104.727C346.044 105.061 347.184 105.137 348.295 104.951C358.608 103.197 375.417 103.301 384.08 111.963C392.742 120.626 392.948 137.847 391.092 147.851C390.906 148.962 390.982 150.102 391.316 151.179C391.649 152.256 392.23 153.24 393.012 154.052C393.794 154.864 394.755 155.481 395.818 155.855C396.882 156.229 398.018 156.348 399.136 156.204L430.074 152.697C432.06 140.85 431.248 128.702 427.702 117.225C424.157 105.747 417.977 95.2577 409.655 86.5944Z" fill="#00B8F0"/>
<path d="M343.448 65.7623L339.942 96.6998C339.798 97.8177 339.917 98.954 340.291 100.017C340.665 101.081 341.282 102.042 342.094 102.824C342.906 103.606 343.89 104.187 344.967 104.52C346.044 104.853 347.184 104.93 348.295 104.744C354.192 103.775 360.193 103.601 366.136 104.228L408.623 85.1498C399.976 77.1334 389.6 71.2151 378.298 67.8531C366.996 64.4911 355.071 63.7757 343.448 65.7623Z" fill="#4ACFFF"/>
<path d="M409.655 86.5944C401.023 78.1862 390.527 71.9357 379.022 68.3516C367.517 64.7675 355.329 63.9513 343.448 65.9694L339.942 96.9069C339.798 98.0248 339.917 99.161 340.291 100.225C340.665 101.288 341.282 102.249 342.094 103.031C342.906 103.813 343.89 104.394 344.967 104.727C346.044 105.061 347.184 105.137 348.295 104.951C358.608 103.197 375.417 103.301 384.08 111.963C392.742 120.626 392.948 137.847 391.092 147.851C390.906 148.962 390.982 150.102 391.316 151.179C391.649 152.256 392.23 153.24 393.012 154.052C393.794 154.864 394.755 155.481 395.818 155.855C396.882 156.229 398.018 156.348 399.136 156.204L430.074 152.697C432.06 140.85 431.248 128.702 427.702 117.225C424.157 105.747 417.977 95.2577 409.655 86.5944V86.5944Z" stroke="#45413C" stroke-width="6" stroke-linecap="round" stroke-linejoin="round"/>
<path d="M414.5 191.678C426.322 176.448 432.328 157.502 431.439 138.243C430.551 118.984 422.827 100.671 409.653 86.5939C395.6 73.4047 377.293 65.677 358.04 64.807C338.787 63.937 319.857 69.9821 304.672 81.8501" stroke="#45413C" stroke-width="6" stroke-linecap="round" stroke-linejoin="round"/>
<path d="M103.372 392.875C102.012 391.524 100.933 389.917 100.197 388.147C99.461 386.377 99.082 384.479 99.082 382.563C99.082 380.646 99.461 378.748 100.197 376.978C100.933 375.208 102.012 373.601 103.372 372.25L159.575 316.047C160.929 314.693 162.537 313.618 164.306 312.886C166.076 312.153 167.972 311.775 169.887 311.775C171.803 311.775 173.699 312.153 175.468 312.886C177.238 313.618 178.846 314.693 180.2 316.047C181.554 317.401 182.628 319.009 183.361 320.778C184.094 322.548 184.471 324.444 184.471 326.359C184.471 328.275 184.094 330.171 183.361 331.941C182.628 333.71 181.554 335.318 180.2 336.672L123.997 392.875C122.645 394.235 121.039 395.313 119.269 396.05C117.499 396.786 115.601 397.165 113.684 397.165C111.767 397.165 109.869 396.786 108.1 396.05C106.33 395.313 104.723 394.235 103.372 392.875Z" fill="#4ACFFF" stroke="#45413C" stroke-width="6" stroke-linecap="round" stroke-linejoin="round"/>
</svg>
