<svg width="495" height="495" viewBox="0 0 495 495" fill="none" xmlns="http://www.w3.org/2000/svg">
<path d="M325.372 318.403L247.616 289.115L169.859 318.712C156.674 323.743 145.327 332.658 137.317 344.276C129.307 355.895 125.012 369.672 125 383.784V443.803H370.231V383.475C370.219 369.362 365.924 355.586 357.914 343.967C349.904 332.348 338.557 323.434 325.372 318.403Z" fill="#656769"/>
<path d="M325.372 318.403L247.616 289.115L169.859 318.712C156.674 323.743 145.327 332.658 137.317 344.276C129.307 355.895 125.012 369.672 125 383.784V414.721C125.012 400.609 129.307 386.833 137.317 375.214C145.327 363.595 156.674 354.681 169.859 349.65L247.616 320.053L325.372 349.65C338.557 354.681 349.904 363.595 357.914 375.214C365.924 386.833 370.219 400.609 370.231 414.721V383.784C370.282 369.619 366.016 355.775 358.002 344.094C349.988 332.414 338.606 323.453 325.372 318.403Z" fill="#525252"/>
<path d="M325.372 318.403L247.616 289.115L169.859 318.712C156.674 323.743 145.327 332.658 137.317 344.276C129.307 355.895 125.012 369.672 125 383.784V443.803H370.231V383.475C370.219 369.362 365.924 355.586 357.914 343.967C349.904 332.348 338.557 323.434 325.372 318.403V318.403Z" stroke="#45413C" stroke-width="6" stroke-linecap="round" stroke-linejoin="round"/>
<path d="M247.617 289.115C247.617 289.115 196.055 289.115 196.055 318.093C197.011 339.813 204.807 360.676 218.33 377.7L247.617 352.537L277.42 377.7C290.943 360.676 298.739 339.813 299.695 318.093C299.695 289.115 247.617 289.115 247.617 289.115Z" fill="white" stroke="#45413C" stroke-width="6" stroke-linecap="round" stroke-linejoin="round"/>
<path d="M247.616 352.538L224.413 329.334C222.507 327.414 221.433 324.821 221.422 322.116V291.178C221.422 284.231 224.182 277.569 229.094 272.656C234.006 267.744 240.669 264.984 247.616 264.984C254.563 264.984 261.225 267.744 266.137 272.656C271.05 277.569 273.809 284.231 273.809 291.178V322.116C273.798 324.821 272.724 327.414 270.819 329.334L247.616 352.538Z" fill="#FFCEBF"/>
<path d="M247.616 264.984C240.669 264.984 234.006 267.744 229.094 272.656C224.182 277.569 221.422 284.231 221.422 291.178V297.263C221.422 304.21 224.182 310.872 229.094 315.784C234.006 320.697 240.669 323.456 247.616 323.456C254.563 323.456 261.225 320.697 266.137 315.784C271.05 310.872 273.809 304.21 273.809 297.263V291.178C273.809 284.231 271.05 277.569 266.137 272.656C261.225 267.744 254.563 264.984 247.616 264.984Z" fill="#FFB59E"/>
<path d="M247.616 352.538L224.413 329.334C222.507 327.414 221.433 324.821 221.422 322.116V291.178C221.422 284.231 224.182 277.569 229.094 272.656C234.006 267.744 240.669 264.984 247.616 264.984V264.984C254.563 264.984 261.225 267.744 266.137 272.656C271.05 277.569 273.809 284.231 273.809 291.178V322.116C273.798 324.821 272.724 327.414 270.819 329.334L247.616 352.538Z" stroke="#45413C" stroke-width="6" stroke-linecap="round" stroke-linejoin="round"/>
<path d="M277.419 377.7L268.756 443.803H226.166L217.812 377.7L247.616 352.537L277.419 377.7Z" fill="white" stroke="#45413C" stroke-width="6" stroke-linecap="round" stroke-linejoin="round"/>
<path d="M242.461 398.943C242.461 400.311 243.004 401.622 243.971 402.589C244.938 403.556 246.25 404.1 247.617 404.1C248.985 404.1 250.296 403.556 251.263 402.589C252.23 401.622 252.773 400.311 252.773 398.943C252.773 397.576 252.23 396.264 251.263 395.297C250.296 394.33 248.985 393.787 247.617 393.787C246.25 393.787 244.938 394.33 243.971 395.297C243.004 396.264 242.461 397.576 242.461 398.943Z" fill="#45413C"/>
<path d="M242.461 422.146C242.461 423.514 243.004 424.826 243.971 425.793C244.938 426.759 246.25 427.303 247.617 427.303C248.985 427.303 250.296 426.759 251.263 425.793C252.23 424.826 252.773 423.514 252.773 422.146C252.773 420.779 252.23 419.467 251.263 418.5C250.296 417.533 248.985 416.99 247.617 416.99C246.25 416.99 244.938 417.533 243.971 418.5C243.004 419.467 242.461 420.779 242.461 422.146Z" fill="#45413C"/>
<path d="M247.616 364.912L216.679 346.246C214.822 345.125 212.703 344.512 210.535 344.467C208.366 344.423 206.224 344.95 204.323 345.994C202.422 347.039 200.829 348.564 199.703 350.419C198.578 352.273 197.959 354.39 197.91 356.559V372.131C197.97 374.284 198.59 376.384 199.71 378.224C200.83 380.064 202.411 381.579 204.296 382.621C206.181 383.663 208.306 384.194 210.459 384.163C212.613 384.132 214.721 383.539 216.576 382.443L247.616 364.912Z" fill="#009FD9" stroke="#45413C" stroke-width="6" stroke-linecap="round" stroke-linejoin="round"/>
<path d="M221.215 364.912H247.615" stroke="#45413C" stroke-width="6" stroke-linecap="round" stroke-linejoin="round"/>
<path d="M247.617 364.912L278.555 346.246C280.411 345.125 282.53 344.512 284.699 344.467C286.868 344.423 289.01 344.95 290.911 345.994C292.812 347.039 294.405 348.564 295.53 350.419C296.656 352.273 297.274 354.39 297.323 356.559V372.131C297.254 374.269 296.632 376.352 295.518 378.178C294.403 380.003 292.835 381.509 290.965 382.548C289.095 383.586 286.988 384.123 284.849 384.105C282.71 384.086 280.613 383.514 278.761 382.443L247.617 364.912Z" fill="#009FD9" stroke="#45413C" stroke-width="6" stroke-linecap="round" stroke-linejoin="round"/>
<path d="M274.017 364.912H247.617" stroke="#45413C" stroke-width="6" stroke-linecap="round" stroke-linejoin="round"/>
<path d="M233.281 364.912C233.281 368.714 234.791 372.36 237.48 375.048C240.168 377.737 243.814 379.247 247.616 379.247C251.417 379.247 255.063 377.737 257.752 375.048C260.44 372.36 261.95 368.714 261.95 364.912C261.95 361.111 260.44 357.465 257.752 354.777C255.063 352.088 251.417 350.578 247.616 350.578C243.814 350.578 240.168 352.088 237.48 354.777C234.791 357.465 233.281 361.111 233.281 364.912Z" fill="#009FD9" stroke="#45413C" stroke-width="6" stroke-linecap="round" stroke-linejoin="round"/>
<path d="M247.616 51.0005C239.132 50.9737 230.679 52.0131 222.454 54.0943C203.273 58.4255 178.316 65.7474 155.732 61.4161C154.864 67.2329 155.184 73.1652 156.673 78.8548C158.162 84.5444 160.789 89.8731 164.395 94.5193C152.629 111.478 146.331 131.629 146.348 152.269V205.276H348.885V152.269C348.885 125.411 338.216 99.653 319.224 80.6614C300.233 61.6699 274.475 51.0005 247.616 51.0005Z" fill="#A86C4D"/>
<path d="M247.616 51.0005C239.132 50.9737 230.678 52.0131 222.453 54.0943C203.272 58.4255 178.316 65.7474 155.731 61.4161C154.308 72.2348 156.795 83.2062 162.744 92.3536C182.95 92.7719 203.097 90.0229 222.453 84.2068C237.413 80.4317 253.036 80.1141 268.137 83.2781C283.238 86.4421 297.42 93.0044 309.606 102.467C321.793 111.93 331.663 124.044 338.469 137.891C345.274 151.738 348.836 166.953 348.884 182.382V152.269C348.884 125.411 338.215 99.653 319.223 80.6614C300.232 61.6699 274.474 51.0005 247.616 51.0005Z" fill="#DE926A"/>
<path d="M247.616 51.0005C239.132 50.9737 230.679 52.0131 222.454 54.0943C203.273 58.4255 178.316 65.7474 155.732 61.4161C154.864 67.2329 155.184 73.1652 156.673 78.8548C158.162 84.5444 160.789 89.8731 164.395 94.5193C152.629 111.478 146.331 131.629 146.348 152.269V205.276H348.885V152.269C348.885 125.411 338.216 99.653 319.224 80.6614C300.233 61.6699 274.475 51.0005 247.616 51.0005V51.0005Z" stroke="#45413C" stroke-width="6" stroke-linecap="round" stroke-linejoin="round"/>
<path d="M359.714 197.541C359.213 193.754 357.574 190.209 355.015 187.373C352.455 184.537 349.096 182.545 345.38 181.66L339.295 179.907C334.757 178.737 330.753 176.058 327.941 172.309C325.13 168.56 323.678 163.965 323.827 159.282V138.244C323.822 133.987 322.4 129.852 319.786 126.491C317.172 123.13 313.514 120.735 309.389 119.682C289.71 127.484 268.68 131.304 247.514 130.922C226.349 131.304 205.318 127.484 185.639 119.682C181.514 120.735 177.856 123.13 175.242 126.491C172.628 129.852 171.207 133.987 171.202 138.244V159.591C171.35 164.275 169.899 168.869 167.087 172.618C164.275 176.367 160.271 179.047 155.733 180.216L149.648 181.969C145.933 182.855 142.573 184.847 140.014 187.682C137.454 190.518 135.815 194.064 135.314 197.85C135.038 200.461 135.317 203.101 136.13 205.596C136.944 208.092 138.275 210.388 140.037 212.335C141.799 214.281 143.951 215.834 146.353 216.892C148.756 217.951 151.355 218.49 153.98 218.475H155.114C157.527 241.272 168.291 262.369 185.333 277.702C202.374 293.035 224.487 301.518 247.411 301.518C270.335 301.518 292.448 293.035 309.489 277.702C326.531 262.369 337.295 241.272 339.708 218.475H340.842C343.514 218.525 346.165 218 348.616 216.937C351.068 215.873 353.262 214.296 355.051 212.311C356.84 210.326 358.182 207.981 358.987 205.432C359.791 202.884 360.039 200.193 359.714 197.541Z" fill="#FFCEBF" stroke="#45413C" stroke-width="6" stroke-linecap="round" stroke-linejoin="round"/>
<path d="M191.617 195.376C191.617 197.482 192.454 199.502 193.943 200.991C195.432 202.48 197.452 203.317 199.558 203.317C201.664 203.317 203.684 202.48 205.173 200.991C206.662 199.502 207.498 197.482 207.498 195.376C207.498 193.27 206.662 191.25 205.173 189.761C203.684 188.272 201.664 187.436 199.558 187.436C197.452 187.436 195.432 188.272 193.943 189.761C192.454 191.25 191.617 193.27 191.617 195.376Z" fill="#45413C" stroke="#45413C" stroke-width="6" stroke-linecap="round" stroke-linejoin="round"/>
<path d="M303.612 195.376C303.612 197.482 302.775 199.502 301.286 200.991C299.797 202.48 297.777 203.317 295.671 203.317C293.565 203.317 291.545 202.48 290.056 200.991C288.567 199.502 287.73 197.482 287.73 195.376C287.73 193.27 288.567 191.25 290.056 189.761C291.545 188.272 293.565 187.436 295.671 187.436C297.777 187.436 299.797 188.272 301.286 189.761C302.775 191.25 303.612 193.27 303.612 195.376Z" fill="#45413C" stroke="#45413C" stroke-width="6" stroke-linecap="round" stroke-linejoin="round"/>
<path d="M218.329 243.74C217.687 243.754 217.054 243.898 216.469 244.164C215.884 244.43 215.359 244.812 214.926 245.287C214.486 245.788 214.165 246.383 213.986 247.025C213.807 247.668 213.776 248.343 213.895 249C215.287 256.932 219.432 264.12 225.599 269.299C231.767 274.478 239.563 277.318 247.617 277.318C255.67 277.318 263.466 274.478 269.634 269.299C275.802 264.12 279.946 256.932 281.338 249C281.457 248.343 281.426 247.668 281.247 247.025C281.069 246.383 280.747 245.788 280.307 245.287C279.878 244.807 279.354 244.422 278.768 244.156C278.182 243.89 277.548 243.748 276.904 243.74H218.329Z" fill="#FF6242"/>
<path d="M247.616 258.179C238.317 257.902 229.185 260.692 221.629 266.12C224.861 269.767 228.83 272.688 233.274 274.688C237.718 276.688 242.537 277.723 247.41 277.723C252.284 277.723 257.102 276.688 261.546 274.688C265.99 272.688 269.96 269.767 273.191 266.12C265.749 260.778 256.776 257.992 247.616 258.179Z" fill="#FFA694"/>
<path d="M218.329 243.74C217.687 243.754 217.054 243.898 216.469 244.164C215.884 244.43 215.359 244.812 214.926 245.287C214.486 245.788 214.165 246.383 213.986 247.025C213.807 247.668 213.776 248.343 213.895 249C215.287 256.932 219.432 264.12 225.599 269.299C231.767 274.478 239.563 277.318 247.617 277.318C255.67 277.318 263.466 274.478 269.634 269.299C275.802 264.12 279.946 256.932 281.338 249C281.457 248.343 281.426 247.668 281.247 247.025C281.069 246.383 280.747 245.788 280.307 245.287C279.878 244.807 279.354 244.422 278.768 244.156C278.182 243.89 277.548 243.748 276.904 243.74H218.329Z" stroke="#45413C" stroke-width="6" stroke-linecap="round" stroke-linejoin="round"/>
<path d="M176.047 229.201C176.047 230.842 177.133 232.416 179.067 233.576C181.001 234.737 183.624 235.389 186.359 235.389C189.094 235.389 191.717 234.737 193.651 233.576C195.585 232.416 196.672 230.842 196.672 229.201C196.672 227.56 195.585 225.986 193.651 224.826C191.717 223.666 189.094 223.014 186.359 223.014C183.624 223.014 181.001 223.666 179.067 224.826C177.133 225.986 176.047 227.56 176.047 229.201Z" fill="#FFB59E"/>
<path d="M298.559 229.201C298.559 230.842 299.645 232.416 301.579 233.576C303.513 234.737 306.136 235.389 308.871 235.389C311.606 235.389 314.229 234.737 316.163 233.576C318.097 232.416 319.184 230.842 319.184 229.201C319.184 227.56 318.097 225.986 316.163 224.826C314.229 223.666 311.606 223.014 308.871 223.014C306.136 223.014 303.513 223.666 301.579 224.826C299.645 225.986 298.559 227.56 298.559 229.201Z" fill="#FFB59E"/>
</svg>
