<svg width="495" height="495" viewBox="0 0 495 495" fill="none" xmlns="http://www.w3.org/2000/svg">
<path d="M103.125 216.562C103.125 235.522 106.859 254.296 114.115 271.812C121.37 289.329 132.005 305.245 145.411 318.651C158.818 332.057 174.734 342.692 192.25 349.948C209.766 357.203 228.54 360.938 247.5 360.938C266.46 360.938 285.234 357.203 302.75 349.948C320.266 342.692 336.182 332.057 349.589 318.651C362.995 305.245 373.63 289.329 380.885 271.812C388.141 254.296 391.875 235.522 391.875 216.562C391.875 197.603 388.141 178.829 380.885 161.313C373.63 143.796 362.995 127.88 349.589 114.474C336.182 101.067 320.266 90.4329 302.75 83.1774C285.234 75.9219 266.46 72.1875 247.5 72.1875C228.54 72.1875 209.766 75.9219 192.25 83.1774C174.734 90.4329 158.818 101.067 145.411 114.474C132.005 127.88 121.37 143.796 114.115 161.313C106.859 178.829 103.125 197.603 103.125 216.562Z" fill="#FFFEF2"/>
<path d="M247.5 99.7219C283.388 99.7365 317.984 113.117 344.543 137.254C371.101 161.391 387.718 194.555 391.153 230.278C391.153 225.741 391.875 221.203 391.875 216.562C391.875 178.272 376.664 141.55 349.589 114.474C322.513 87.3984 285.791 72.1875 247.5 72.1875C209.209 72.1875 172.487 87.3984 145.411 114.474C118.336 141.55 103.125 178.272 103.125 216.562C103.125 221.203 103.125 225.741 103.847 230.278C107.282 194.555 123.899 161.391 150.457 137.254C177.016 113.117 211.612 99.7365 247.5 99.7219Z" fill="white"/>
<path d="M103.125 216.562C103.125 235.522 106.859 254.296 114.115 271.812C121.37 289.329 132.005 305.245 145.411 318.651C158.818 332.057 174.734 342.692 192.25 349.948C209.766 357.203 228.54 360.937 247.5 360.938C266.46 360.938 285.234 357.203 302.75 349.948C320.266 342.692 336.182 332.057 349.589 318.651C362.995 305.245 373.63 289.329 380.885 271.812C388.141 254.296 391.875 235.522 391.875 216.562C391.875 197.603 388.141 178.829 380.885 161.313C373.63 143.796 362.995 127.88 349.589 114.474C336.182 101.067 320.266 90.4329 302.75 83.1774C285.234 75.9219 266.46 72.1875 247.5 72.1875C228.54 72.1875 209.766 75.9219 192.25 83.1774C174.734 90.4329 158.818 101.067 145.411 114.474C132.005 127.88 121.37 143.796 114.115 161.313C106.859 178.829 103.125 197.603 103.125 216.562V216.562Z" stroke="#45413C" stroke-width="7" stroke-linecap="round" stroke-linejoin="round"/>
<path d="M247.503 72.1875C218.025 72.2072 189.26 81.2496 165.073 98.0995C140.886 114.949 122.436 138.799 112.203 166.444C116.262 172.571 121.826 177.553 128.363 180.911C134.9 184.27 142.19 185.893 149.534 185.625C194.188 185.625 185.628 147.366 221.722 139.219C256.062 131.484 258.641 154.688 299.066 154.688C310.742 155.403 322.391 152.895 332.739 147.439C343.087 141.983 351.737 133.788 357.744 123.75C344.23 107.648 327.363 94.6912 308.322 85.7851C289.281 76.8789 268.524 72.2383 247.503 72.1875Z" fill="#FF87AF"/>
<path d="M120.556 175.312C131.015 155.944 145.764 139.224 163.675 126.43C181.587 113.636 202.186 105.107 223.899 101.495C245.612 97.883 267.864 99.2833 288.952 105.589C310.041 111.895 329.409 122.939 345.575 137.878C350.273 133.761 354.369 129.005 357.744 123.75C341.457 104.507 320.414 89.8641 296.711 81.2786C273.008 72.6931 247.469 70.4639 222.637 74.813C197.805 79.162 174.544 89.9377 155.169 106.068C135.795 122.198 120.981 143.12 112.203 166.753C114.635 169.93 117.44 172.803 120.556 175.312Z" fill="#FFB0CA"/>
<path d="M247.503 72.1875C218.025 72.2072 189.26 81.2496 165.073 98.0995C140.886 114.949 122.436 138.799 112.203 166.444C116.262 172.571 121.826 177.553 128.363 180.911C134.9 184.27 142.19 185.893 149.534 185.625C194.187 185.625 185.628 147.366 221.722 139.219C256.062 131.484 258.641 154.688 299.066 154.688C310.742 155.403 322.391 152.895 332.739 147.439C343.087 141.983 351.737 133.788 357.744 123.75C344.23 107.648 327.363 94.6912 308.322 85.7851C289.281 76.8789 268.524 72.2383 247.503 72.1875V72.1875Z" stroke="#45413C" stroke-width="7" stroke-linecap="round" stroke-linejoin="round"/>
<path d="M398.99 216.563C398.99 216.563 379.5 247.5 251.315 247.5C123.131 247.5 96.0089 216.563 96.0089 216.563C94.9214 216.562 93.8449 216.78 92.8428 217.202C91.8407 217.624 90.9332 218.243 90.174 219.021C89.4147 219.8 88.819 220.722 88.4219 221.735C88.0248 222.747 87.8345 223.829 87.862 224.916C89.7955 261.046 103.922 295.453 127.934 322.518C151.946 349.583 184.426 367.708 220.068 373.931C221.92 374.198 223.618 375.109 224.863 376.506C226.108 377.902 226.821 379.693 226.874 381.562V414.563C226.875 416.428 226.258 418.24 225.121 419.719C215.2 431.91 201.596 440.557 186.346 444.366C183.513 445.288 181.099 447.185 179.534 449.721C177.968 452.256 177.354 455.265 177.8 458.211C178.245 461.157 179.722 463.85 181.967 465.809C184.212 467.768 187.08 468.867 190.059 468.909H305.25C308.117 468.776 310.852 467.666 313.002 465.764C315.152 463.862 316.587 461.283 317.068 458.453C317.55 455.623 317.049 452.714 315.65 450.208C314.251 447.702 312.036 445.749 309.375 444.675C294.125 440.867 280.52 432.219 270.6 420.028C269.463 418.55 268.846 416.737 268.846 414.872V381.562C268.852 379.657 269.542 377.816 270.792 376.378C272.041 374.939 273.766 373.997 275.653 373.725C311.13 367.364 343.419 349.206 367.284 322.196C391.15 295.186 405.193 260.906 407.137 224.916C407.165 223.829 406.974 222.747 406.577 221.735C406.18 220.722 405.584 219.8 404.825 219.021C404.066 218.243 403.158 217.624 402.156 217.202C401.154 216.78 400.078 216.562 398.99 216.563Z" fill="#B8ECFF"/>
<path d="M398.99 216.563C398.99 216.563 379.5 247.5 251.315 247.5C123.131 247.5 96.0089 216.563 96.0089 216.563C94.9214 216.562 93.8449 216.78 92.8428 217.202C91.8407 217.624 90.9332 218.243 90.174 219.021C89.4147 219.8 88.819 220.722 88.4219 221.735C88.0248 222.747 87.8345 223.829 87.862 224.916C87.862 224.916 87.862 225.741 87.862 226.256C108.487 271.219 173.765 304.219 251.212 304.219C319.687 304.219 378.056 278.438 405.281 241.828C406.106 236.259 406.828 230.587 407.137 224.916C407.165 223.829 406.974 222.747 406.577 221.735C406.18 220.722 405.584 219.8 404.825 219.021C404.066 218.243 403.158 217.624 402.156 217.202C401.154 216.78 400.078 216.562 398.99 216.563Z" fill="#E5F8FF"/>
<path d="M398.99 216.563C398.99 216.563 379.5 247.5 251.315 247.5C123.131 247.5 96.0089 216.563 96.0089 216.563C94.9214 216.562 93.8449 216.78 92.8428 217.202C91.8407 217.624 90.9332 218.243 90.174 219.021C89.4147 219.8 88.819 220.722 88.4219 221.735C88.0248 222.747 87.8345 223.829 87.862 224.916C89.7955 261.046 103.922 295.453 127.934 322.518C151.946 349.583 184.426 367.708 220.068 373.931C221.92 374.198 223.618 375.109 224.863 376.506C226.108 377.902 226.821 379.693 226.874 381.562V414.563C226.875 416.428 226.258 418.24 225.121 419.719C215.2 431.91 201.596 440.557 186.346 444.366C183.458 445.218 180.972 447.078 179.338 449.608C177.705 452.138 177.033 455.17 177.445 458.153C177.857 461.136 179.325 463.873 181.583 465.865C183.841 467.858 186.738 468.975 189.749 469.012H305.25C308.261 468.975 311.158 467.858 313.416 465.865C315.674 463.873 317.142 461.136 317.554 458.153C317.966 455.17 317.294 452.138 315.661 449.608C314.027 447.078 311.541 445.218 308.653 444.366C293.403 440.557 279.799 431.91 269.878 419.719C268.741 418.24 268.124 416.428 268.125 414.563V381.562C268.13 379.657 268.82 377.816 270.07 376.378C271.319 374.939 273.045 373.997 274.931 373.725C310.54 367.51 342.995 349.416 367.003 322.392C391.012 295.369 405.158 261.009 407.137 224.916C407.165 223.829 406.974 222.747 406.577 221.735C406.18 220.722 405.584 219.8 404.825 219.021C404.066 218.243 403.158 217.624 402.156 217.202C401.154 216.78 400.078 216.562 398.99 216.563V216.563Z" stroke="#45413C" stroke-width="7" stroke-linecap="round" stroke-linejoin="round"/>
<path d="M235.844 61.875C235.844 68.7126 238.56 75.2702 243.395 80.1051C248.23 84.94 254.787 87.6562 261.625 87.6562C268.463 87.6562 275.02 84.94 279.855 80.1051C284.69 75.2702 287.406 68.7126 287.406 61.875C287.406 55.0374 284.69 48.4798 279.855 43.6449C275.02 38.81 268.463 36.0938 261.625 36.0938C254.787 36.0938 248.23 38.81 243.395 43.6449C238.56 48.4798 235.844 55.0374 235.844 61.875Z" fill="#FF6242"/>
<path d="M261.625 51.5625C267.085 51.595 272.394 53.36 276.786 56.6034C281.178 59.8467 284.428 64.4008 286.066 69.6094C286.878 67.1082 287.33 64.5038 287.406 61.875C287.406 55.0374 284.69 48.4798 279.855 43.6449C275.02 38.81 268.463 36.0938 261.625 36.0938C254.787 36.0938 248.23 38.81 243.395 43.6449C238.56 48.4798 235.844 55.0374 235.844 61.875C235.886 64.4989 236.302 67.1034 237.081 69.6094C238.725 64.384 241.989 59.8179 246.402 56.573C250.815 53.3281 256.147 51.5731 261.625 51.5625Z" fill="#FF866E"/>
<path d="M235.844 61.875C235.844 68.7126 238.56 75.2702 243.395 80.1051C248.23 84.94 254.787 87.6563 261.625 87.6562C268.463 87.6563 275.02 84.94 279.855 80.1051C284.69 75.2702 287.406 68.7126 287.406 61.875C287.406 55.0374 284.69 48.4798 279.855 43.6449C275.02 38.81 268.463 36.0938 261.625 36.0938C254.787 36.0938 248.23 38.81 243.395 43.6449C238.56 48.4798 235.844 55.0374 235.844 61.875V61.875Z" stroke="#45413C" stroke-width="7" stroke-linecap="round" stroke-linejoin="round"/>
</svg>
