<svg width="496" height="496" viewBox="0 0 496 496" fill="none" xmlns="http://www.w3.org/2000/svg">
<path d="M57 206.999C57 254.207 75.7535 299.482 109.135 332.863C142.516 366.245 187.791 384.998 235 384.998C282.208 384.998 327.483 366.245 360.865 332.863C394.246 299.482 413 254.207 413 206.999C413 159.791 394.246 114.516 360.865 81.1347C327.483 47.7534 282.208 29 235 29C187.791 29 142.516 47.7534 109.135 81.1347C75.7535 114.516 57 159.791 57 206.999Z" fill="#FFE500"/>
<path d="M235 29C199.795 29 165.38 39.4395 136.109 58.9982C106.837 78.557 84.0219 106.357 70.5495 138.882C57.0771 171.407 53.5521 207.196 60.4203 241.725C67.2885 276.253 84.2413 307.97 109.135 332.863C134.029 357.757 165.745 374.71 200.274 381.578C234.803 388.446 270.592 384.921 303.118 371.449C335.643 357.976 363.443 335.162 383.002 305.89C402.56 276.618 413 242.204 413 206.999C413 159.791 394.246 114.516 360.865 81.1347C327.483 47.7534 282.209 29 235 29ZM235 358.298C202.875 358.298 171.472 348.772 144.762 330.925C118.051 313.077 97.2325 287.71 84.9389 258.031C72.6454 228.352 69.4288 195.694 75.696 164.187C81.9632 132.68 97.4327 103.738 120.148 81.0229C142.864 58.3075 171.805 42.8381 203.312 36.5709C234.82 30.3037 267.478 33.5203 297.157 45.8138C326.837 58.1073 352.204 78.9256 370.051 105.636C387.899 132.347 397.425 163.75 397.425 195.874C397.425 238.952 380.312 280.265 349.852 310.725C319.391 341.186 278.078 358.298 235 358.298Z" fill="#EBCB00"/>
<path d="M181.598 64.6019C181.598 68.1425 187.224 71.5381 197.238 74.0417C207.253 76.5453 220.835 77.9518 234.998 77.9518C249.16 77.9518 262.743 76.5453 272.757 74.0417C282.772 71.5381 288.398 68.1425 288.398 64.6019C288.398 61.0613 282.772 57.6657 272.757 55.1621C262.743 52.6585 249.16 51.252 234.998 51.252C220.835 51.252 207.253 52.6585 197.238 55.1621C187.224 57.6657 181.598 61.0613 181.598 64.6019Z" fill="#FFF48C"/>
<path d="M57 206.999C57 254.207 75.7535 299.482 109.135 332.863C142.516 366.245 187.791 384.998 235 384.998C282.208 384.998 327.483 366.245 360.865 332.863C394.246 299.482 413 254.207 413 206.999C413 159.791 394.246 114.516 360.865 81.1347C327.483 47.7534 282.208 29 235 29C187.791 29 142.516 47.7534 109.135 81.1347C75.7535 114.516 57 159.791 57 206.999V206.999Z" stroke="#45413C" stroke-width="7" stroke-linecap="round" stroke-linejoin="round"/>
<path d="M364.055 251.5C364.055 258.887 354.087 264.85 341.805 264.85C329.523 264.85 319.555 258.887 319.555 251.5C319.555 244.113 329.523 238.15 341.805 238.15C354.087 238.15 364.055 244.113 364.055 251.5Z" fill="#FFAA54"/>
<path d="M105.949 251.5C105.949 258.887 115.917 264.85 128.199 264.85C140.481 264.85 150.449 258.887 150.449 251.5C150.449 244.113 140.481 238.15 128.199 238.15C115.917 238.15 105.949 244.113 105.949 251.5Z" fill="#FFAA54"/>
<path d="M150.452 171.4C150.452 173.16 149.93 174.881 148.952 176.345C147.974 177.808 146.584 178.949 144.958 179.622C143.332 180.296 141.542 180.472 139.816 180.129C138.09 179.785 136.504 178.938 135.259 177.693C134.014 176.448 133.167 174.863 132.823 173.136C132.48 171.41 132.656 169.62 133.33 167.994C134.003 166.368 135.144 164.978 136.608 164C138.071 163.022 139.792 162.5 141.552 162.5C143.913 162.5 146.177 163.438 147.846 165.107C149.515 166.776 150.452 169.04 150.452 171.4Z" fill="#45413C" stroke="#45413C" stroke-width="7" stroke-linecap="round" stroke-linejoin="round"/>
<path d="M319.555 198.099C319.555 199.859 320.077 201.58 321.055 203.044C322.033 204.507 323.423 205.648 325.049 206.322C326.675 206.995 328.465 207.172 330.191 206.828C331.917 206.485 333.503 205.637 334.748 204.392C335.993 203.148 336.84 201.562 337.184 199.835C337.527 198.109 337.351 196.32 336.677 194.693C336.004 193.067 334.863 191.677 333.399 190.699C331.936 189.721 330.215 189.199 328.455 189.199C326.094 189.199 323.831 190.137 322.161 191.806C320.492 193.475 319.555 195.739 319.555 198.099Z" fill="#45413C" stroke="#45413C" stroke-width="7" stroke-linecap="round" stroke-linejoin="round"/>
<path d="M399.652 140.25H413.002C416.543 140.25 419.939 141.657 422.442 144.16C424.946 146.664 426.352 150.059 426.352 153.6V166.95C426.352 170.49 424.946 173.886 422.442 176.39C419.939 178.893 416.543 180.3 413.002 180.3H399.652V140.25Z" fill="#87898C"/>
<path d="M413.002 140.25H399.652V153.6H413.002C416.543 153.6 419.939 155.006 422.442 157.51C424.946 160.014 426.352 163.409 426.352 166.95V153.6C426.352 150.059 424.946 146.664 422.442 144.16C419.939 141.657 416.543 140.25 413.002 140.25Z" fill="#BDBEC0"/>
<path d="M399.652 140.25H413.002C416.543 140.25 419.939 141.657 422.442 144.16C424.946 146.664 426.352 150.059 426.352 153.6V166.95C426.352 170.49 424.946 173.886 422.442 176.39C419.939 178.893 416.543 180.3 413.002 180.3H399.652V140.25Z" stroke="#45413C" stroke-width="7" stroke-linecap="round" stroke-linejoin="round"/>
<path d="M257.25 162.499C257.25 172.434 259.207 182.271 263.009 191.449C266.81 200.627 272.383 208.967 279.407 215.992C286.432 223.016 294.772 228.589 303.95 232.39C313.128 236.192 322.965 238.149 332.9 238.149C342.834 238.149 352.672 236.192 361.85 232.39C371.028 228.589 379.368 223.016 386.393 215.992C393.417 208.967 398.99 200.627 402.791 191.449C406.593 182.271 408.55 172.434 408.55 162.499C408.55 152.565 406.593 142.728 402.791 133.549C398.99 124.371 393.417 116.032 386.393 109.007C379.368 101.982 371.028 96.4098 361.85 92.6081C352.672 88.8063 342.834 86.8496 332.9 86.8496C322.965 86.8496 313.128 88.8063 303.95 92.6081C294.772 96.4098 286.432 101.982 279.407 109.007C272.383 116.032 266.81 124.371 263.009 133.549C259.207 142.728 257.25 152.565 257.25 162.499Z" fill="#87898C"/>
<path d="M332.9 104.65C351.421 104.652 369.298 111.448 383.142 123.75C396.987 136.053 405.837 153.007 408.016 171.399C408.016 168.462 408.55 165.525 408.55 162.499C408.55 142.436 400.58 123.194 386.393 109.007C372.205 94.8198 352.964 86.8496 332.9 86.8496C312.836 86.8496 293.594 94.8198 279.407 109.007C265.22 123.194 257.25 142.436 257.25 162.499C257.25 165.525 257.25 168.462 257.784 171.399C259.963 153.007 268.813 136.053 282.658 123.75C296.502 111.448 314.379 104.652 332.9 104.65Z" fill="#BDBEC0"/>
<path d="M257.25 162.499C257.25 172.434 259.207 182.271 263.009 191.449C266.81 200.627 272.383 208.967 279.407 215.992C286.432 223.016 294.772 228.589 303.95 232.39C313.128 236.192 322.965 238.149 332.9 238.149C342.834 238.149 352.672 236.192 361.85 232.39C371.028 228.589 379.368 223.016 386.393 215.992C393.417 208.967 398.99 200.627 402.791 191.449C406.593 182.271 408.55 172.434 408.55 162.499C408.55 152.565 406.593 142.728 402.791 133.549C398.99 124.371 393.417 116.032 386.393 109.007C379.368 101.982 371.028 96.4098 361.85 92.6081C352.672 88.8063 342.834 86.8496 332.9 86.8496C322.965 86.8496 313.128 88.8063 303.95 92.6081C294.772 96.4098 286.432 101.982 279.407 109.007C272.383 116.032 266.81 124.371 263.009 133.549C259.207 142.728 257.25 152.565 257.25 162.499Z" stroke="#45413C" stroke-width="7" stroke-linecap="round" stroke-linejoin="round"/>
<path d="M275.051 162.5C275.051 177.843 281.146 192.557 291.995 203.406C302.844 214.255 317.558 220.35 332.901 220.35C348.244 220.35 362.958 214.255 373.807 203.406C384.656 192.557 390.751 177.843 390.751 162.5C390.751 147.157 384.656 132.443 373.807 121.594C362.958 110.745 348.244 104.65 332.901 104.65C317.558 104.65 302.844 110.745 291.995 121.594C281.146 132.443 275.051 147.157 275.051 162.5Z" fill="#00B8F0"/>
<path d="M332.902 104.65C322.783 104.654 312.843 107.311 304.072 112.356C295.302 117.402 288.008 124.66 282.919 133.406C277.83 142.151 275.124 152.079 275.071 162.197C275.018 172.315 277.62 182.27 282.617 191.069L352.215 108.032C346.016 105.816 339.485 104.672 332.902 104.65Z" fill="#4ACFFF"/>
<path d="M275.051 162.5C275.051 177.843 281.146 192.557 291.995 203.406C302.844 214.255 317.558 220.35 332.901 220.35C348.244 220.35 362.958 214.255 373.807 203.406C384.656 192.557 390.751 177.843 390.751 162.5C390.751 147.157 384.656 132.443 373.807 121.594C362.958 110.745 348.244 104.65 332.901 104.65C317.558 104.65 302.844 110.745 291.995 121.594C281.146 132.443 275.051 147.157 275.051 162.5Z" stroke="#45413C" stroke-width="7" stroke-linecap="round" stroke-linejoin="round"/>
<path d="M426.349 158.051C426.349 158.051 439.699 158.585 439.699 175.851V327.15C440.074 331.92 439.411 336.715 437.754 341.205C436.098 345.694 433.488 349.771 430.104 353.154C426.721 356.538 422.644 359.148 418.154 360.804C413.665 362.461 408.87 363.125 404.1 362.75C399.315 363.187 394.493 362.567 389.975 360.933C385.457 359.299 381.353 356.69 377.956 353.293C374.559 349.896 371.951 345.793 370.316 341.275C368.682 336.757 368.062 331.934 368.5 327.15V324.747" stroke="#45413C" stroke-width="7" stroke-linecap="round" stroke-linejoin="round"/>
<path d="M208.301 270.367C216.646 266.462 225.791 264.572 235.001 264.849C244.21 264.572 253.356 266.462 261.701 270.367" stroke="#45413C" stroke-width="7" stroke-linecap="round" stroke-linejoin="round"/>
</svg>
