<svg width="495" height="495" viewBox="0 0 495 495" fill="none" xmlns="http://www.w3.org/2000/svg">
<path d="M348.719 84.9533C348.71 106.885 366.044 138.373 366.044 138.373C366.044 138.373 403.016 160.454 428.127 157.142C454.022 153.727 495.256 144.82 484.434 121.048C477.434 105.67 459.612 111.497 445.452 102.279C428.127 91 428.561 91.8401 416.992 79.5C404.652 66.3373 411.492 73 399.251 58.9653C387.479 45.468 394.137 25.4037 377.594 18.5394C351.472 7.70008 348.731 56.6717 348.719 84.9533Z" fill="#FF0099" stroke="black" stroke-width="10"/>
<path d="M145.484 410.047C145.494 388.115 128.159 356.627 128.159 356.627C128.159 356.627 91.1875 334.546 66.0765 337.858C40.1813 341.273 -1.05273 350.18 9.76909 373.952C16.7695 389.33 35.8887 381.765 48.7511 392.721C61.9922 404 60.4234 403.66 71.9922 416C84.3323 429.163 80.9922 424.5 94.9521 436.035C108.759 447.443 100.066 469.596 116.609 476.461C142.731 487.3 145.473 438.328 145.484 410.047Z" fill="#FF0099" stroke="black" stroke-width="10"/>
<ellipse cx="246.682" cy="246.01" rx="160.961" ry="113.037" transform="rotate(-41.6958 246.682 246.01)" fill="#FFD366" stroke="black" stroke-width="10"/>
<path d="M363.438 270C332.373 217.994 285.276 169.02 230.705 131C191.878 146.105 164.413 162.385 139.938 206C202.55 239.528 257.025 292.362 280.938 353.5C320.728 330.973 340.21 311.491 363.438 270Z" fill="#FF0099"/>
</svg>
