<svg width="496" height="496" viewBox="0 0 496 496" fill="none" xmlns="http://www.w3.org/2000/svg">
<rect width="496" height="496" fill="white"/>
<path d="M247.75 328.5C234.917 328.5 223.083 324.917 212.25 317.75C201.417 310.583 192.75 300.167 186.25 286.5C179.917 272.833 176.75 256.833 176.75 238.5C176.75 220.167 179.917 204.167 186.25 190.5C192.75 176.833 201.417 166.417 212.25 159.25C223.083 152.083 234.917 148.5 247.75 148.5C260.583 148.5 272.333 152.083 283 159.25C293.833 166.417 302.417 176.833 308.75 190.5C315.25 204.167 318.5 220.167 318.5 238.5C318.5 256.833 315.25 272.833 308.75 286.5C302.417 300.167 293.833 310.583 283 317.75C272.333 324.917 260.583 328.5 247.75 328.5ZM247.75 307.75C256.25 307.75 264.167 305.083 271.5 299.75C279 294.417 284.917 286.583 289.25 276.25C293.75 265.75 296 253.167 296 238.5C296 223.833 293.75 211.333 289.25 201C284.917 190.5 279 182.583 271.5 177.25C264.167 171.917 256.25 169.25 247.75 169.25C239.083 169.25 231.083 171.917 223.75 177.25C216.417 182.583 210.5 190.5 206 201C201.5 211.333 199.25 223.833 199.25 238.5C199.25 253.167 201.5 265.75 206 276.25C210.5 286.583 216.417 294.417 223.75 299.75C231.083 305.083 239.083 307.75 247.75 307.75Z" fill="black"/>
</svg>
