<svg width="493" height="493" viewBox="0 0 493 493" fill="none" xmlns="http://www.w3.org/2000/svg">
<path d="M458.457 329.022C449.656 327.099 440.676 326.125 431.67 326.116C415.508 326.075 399.497 329.234 384.554 335.413C369.61 341.593 356.028 350.67 344.586 362.126C333.143 373.581 324.065 387.19 317.871 402.172C311.677 417.155 308.488 433.217 308.488 449.438V469.161H458.457V329.022Z" fill="#87BBFF"/>
<path d="M431.67 326.116C415.508 326.075 399.497 329.234 384.554 335.413C369.61 341.593 356.028 350.67 344.586 362.126C333.143 373.581 324.065 387.19 317.871 402.172C311.677 417.155 308.488 433.217 308.488 449.438V469.161H309.729C314.031 439.806 328.724 412.989 351.118 393.62C373.512 374.251 402.108 363.627 431.67 363.694C440.683 363.686 449.669 364.695 458.457 366.704V329.022C449.656 327.099 440.676 326.125 431.67 326.116Z" fill="#6DACFF"/>
<path d="M458.457 329.022C449.656 327.099 440.676 326.125 431.67 326.116C415.508 326.075 399.497 329.234 384.554 335.413C369.61 341.593 356.028 350.67 344.586 362.126C333.143 373.581 324.065 387.19 317.871 402.172C311.677 417.155 308.488 433.217 308.488 449.438V469.161H458.457V329.022Z" stroke="#45413C" stroke-width="7" stroke-linecap="round" stroke-linejoin="round"/>
<path d="M405.852 284.084H458.496V366.506H405.852V284.084Z" fill="#FFE500"/>
<path d="M432.628 284.084C425.651 284.084 418.958 286.859 414.015 291.8C409.072 296.742 406.281 303.448 406.254 310.451V316.679C406.674 323.4 409.63 329.707 414.52 334.317C419.41 338.927 425.867 341.493 432.576 341.493C439.285 341.493 445.742 338.927 450.632 334.317C455.522 329.707 458.478 323.4 458.898 316.679V310.555C458.898 303.552 456.134 296.835 451.21 291.874C446.286 286.912 439.605 284.111 432.628 284.084Z" fill="#EBCB00"/>
<path d="M405.852 284.084H458.496V366.506H405.852V284.084Z" stroke="#45413C" stroke-width="7" stroke-linecap="round" stroke-linejoin="round"/>
<path d="M458.437 77.4087C449.712 74.989 440.701 73.7668 431.649 73.7754C423.102 73.7835 414.589 74.8645 406.309 76.9934C387.176 81.3533 362.146 88.6198 339.496 84.2599C338.582 90.1152 338.882 96.0966 340.377 101.83C341.872 107.564 344.53 112.926 348.184 117.582C336.31 134.622 329.954 154.919 329.981 175.713V229.07H458.437V77.4087Z" fill="#724F3D"/>
<path d="M431.649 73.7754C423.102 73.7835 414.589 74.8645 406.309 76.9934C387.175 81.3533 362.146 88.6198 339.495 84.2599C338.283 93.7011 339.941 103.29 344.253 111.769C365.241 112.675 386.229 109.972 406.309 103.776C414.593 101.682 423.106 100.635 431.649 100.661C440.7 100.653 449.711 101.875 458.436 104.295V77.4087C449.711 74.989 440.7 73.7668 431.649 73.7754Z" fill="#A86C4D"/>
<path d="M458.437 77.4087C449.712 74.989 440.701 73.7668 431.649 73.7754C423.102 73.7835 414.589 74.8645 406.309 76.9934C387.176 81.3533 362.146 88.6198 339.496 84.2599C338.582 90.1152 338.882 96.0966 340.377 101.83C341.872 107.564 344.53 112.926 348.184 117.582C336.31 134.622 329.954 154.919 329.981 175.713V229.07H458.437V77.4087Z" stroke="#45413C" stroke-width="7" stroke-linecap="round" stroke-linejoin="round"/>
<path d="M458.46 152.56C449.587 153.829 440.634 154.453 431.672 154.428C410.441 154.863 389.338 151.015 369.616 143.113C365.49 144.213 361.842 146.653 359.241 150.051C356.641 153.45 355.234 157.617 355.24 161.902V187.75C355.213 192.147 353.46 196.355 350.363 199.464C347.265 202.573 343.072 204.332 338.691 204.359C334.134 204.27 329.69 205.79 326.136 208.656C322.582 211.521 320.144 215.548 319.247 220.034C318.796 222.731 318.936 225.495 319.659 228.133C320.382 230.77 321.67 233.217 323.433 235.303C325.196 237.389 327.392 239.063 329.866 240.209C332.341 241.355 335.035 241.945 337.761 241.937H339.519C342.87 264.283 354.117 284.674 371.207 299.387C388.296 314.1 410.088 322.153 432.603 322.076C441.674 322.046 450.694 320.718 459.39 318.131L458.46 152.56Z" fill="#FFE500" stroke="#45413C" stroke-width="7" stroke-linecap="round" stroke-linejoin="round"/>
<path d="M375.387 219.089C375.367 220.7 375.825 222.279 376.704 223.626C377.582 224.974 378.841 226.028 380.319 226.653C381.798 227.279 383.428 227.448 385.003 227.139C386.577 226.83 388.024 226.057 389.158 224.918C390.293 223.779 391.063 222.327 391.371 220.747C391.679 219.167 391.511 217.53 390.887 216.046C390.264 214.563 389.214 213.299 387.872 212.418C386.529 211.536 384.955 211.076 383.351 211.096C382.305 211.096 381.27 211.303 380.304 211.705C379.337 212.106 378.459 212.695 377.72 213.437C376.98 214.18 376.394 215.061 375.994 216.031C375.593 217 375.387 218.04 375.387 219.089Z" fill="#45413C" stroke="#45413C" stroke-width="7" stroke-linecap="round" stroke-linejoin="round"/>
<path d="M359.875 469.17V444.152" stroke="#45413C" stroke-width="7" stroke-linecap="round" stroke-linejoin="round"/>
<path d="M359.875 253.148C359.875 254.8 360.965 256.384 362.904 257.552C364.844 258.72 367.475 259.377 370.218 259.377C372.961 259.377 375.591 258.72 377.531 257.552C379.471 256.384 380.56 254.8 380.56 253.148C380.56 251.496 379.471 249.912 377.531 248.744C375.591 247.576 372.961 246.92 370.218 246.92C367.475 246.92 364.844 247.576 362.904 248.744C360.965 249.912 359.875 251.496 359.875 253.148Z" fill="#FFAA54"/>
<path d="M458.428 267.783H402.267C401.614 267.808 400.972 267.967 400.383 268.252C399.794 268.536 399.27 268.939 398.843 269.436C398.416 269.932 398.095 270.512 397.902 271.139C397.708 271.765 397.645 272.425 397.716 273.077C398.824 279.633 401.792 285.729 406.265 290.634C410.737 295.539 416.524 299.045 422.932 300.733C429.34 302.42 436.097 302.217 442.393 300.147C448.689 298.077 454.256 294.229 458.428 289.064V267.783Z" fill="#FF6242"/>
<path d="M431.685 282.725C422.789 282.682 414.224 286.106 407.793 292.275C414.247 298.408 422.797 301.826 431.685 301.826C440.572 301.826 449.122 298.408 455.576 292.275C449.134 286.124 440.576 282.704 431.685 282.725Z" fill="#FFA694"/>
<path d="M458.428 267.783H402.267C401.614 267.808 400.972 267.967 400.383 268.252C399.794 268.536 399.27 268.939 398.843 269.436C398.416 269.932 398.095 270.512 397.902 271.139C397.708 271.765 397.645 272.425 397.716 273.077C398.824 279.633 401.792 285.729 406.265 290.634C410.737 295.539 416.524 299.045 422.932 300.733C429.34 302.42 436.097 302.217 442.393 300.147C448.689 298.077 454.256 294.229 458.428 289.064V267.783Z" stroke="#45413C" stroke-width="7" stroke-linecap="round" stroke-linejoin="round"/>
<path d="M60.2704 67.6316C51.421 67.6118 42.6012 68.6573 34 70.7458V358.705C78.659 362.918 123.673 356.296 165.249 339.397C167.6 338.445 169.614 336.81 171.033 334.702C172.452 332.593 173.211 330.107 173.212 327.563V180.469C173.199 165.611 170.265 150.902 164.578 137.184C158.891 123.466 150.563 111.01 140.071 100.528C129.579 90.0456 117.13 81.7443 103.436 76.0994C89.7427 70.4545 75.0739 67.577 60.2704 67.6316Z" fill="#724F3D"/>
<path d="M60.2704 67.6316C51.421 67.6118 42.6012 68.6573 34 70.7458V103.964C42.5928 101.805 51.4127 100.69 60.2704 100.642C75.0913 100.587 89.777 103.472 103.484 109.13C117.191 114.787 129.65 123.107 140.144 133.611C150.639 144.115 158.962 156.597 164.637 170.338C170.312 184.08 173.226 198.812 173.212 213.687V180.469C173.199 165.611 170.265 150.902 164.578 137.184C158.891 123.466 150.563 111.01 140.071 100.528C129.579 90.0456 117.13 81.7443 103.436 76.0994C89.7427 70.4545 75.0739 67.577 60.2704 67.6316Z" fill="#A86C4D"/>
<path d="M60.2704 67.6316C51.421 67.6118 42.6012 68.6573 34 70.7458V358.705C78.659 362.918 123.673 356.296 165.249 339.397C167.6 338.445 169.614 336.81 171.033 334.702C172.452 332.593 173.211 330.107 173.212 327.563V180.469C173.199 165.611 170.265 150.902 164.578 137.184C158.891 123.466 150.563 111.01 140.071 100.528C129.579 90.0456 117.13 81.7443 103.436 76.0994C89.7427 70.4545 75.0739 67.577 60.2704 67.6316V67.6316Z" stroke="#45413C" stroke-width="7" stroke-linecap="round" stroke-linejoin="round"/>
<path d="M60.2629 326.116C51.5657 326.16 42.8978 327.135 34.4062 329.023V469.161H183.548V449.438C183.548 433.208 180.356 417.138 174.155 402.149C167.954 387.159 158.867 373.546 147.413 362.089C135.96 350.632 122.366 341.557 107.411 335.384C92.4555 329.211 76.4334 326.061 60.2629 326.116Z" fill="#FF87AF"/>
<path d="M60.2629 326.116C51.5657 326.16 42.8978 327.135 34.4062 329.023V362.863C51.1912 359.13 68.5705 358.98 85.4169 362.423C102.263 365.865 118.201 372.824 132.195 382.847C146.189 392.87 157.928 405.733 166.65 420.603C175.372 435.473 180.882 452.016 182.824 469.161H183.548V449.438C183.548 433.208 180.356 417.138 174.155 402.149C167.954 387.159 158.867 373.546 147.413 362.089C135.96 350.632 122.366 341.557 107.411 335.384C92.4555 329.211 76.4334 326.061 60.2629 326.116Z" fill="#FF6196"/>
<path d="M60.2629 326.116C51.5657 326.16 42.8978 327.135 34.4062 329.023V469.161H183.548V449.438C183.548 433.208 180.356 417.138 174.155 402.149C167.954 387.159 158.867 373.546 147.413 362.089C135.96 350.632 122.366 341.557 107.411 335.384C92.4555 329.211 76.4334 326.061 60.2629 326.116V326.116Z" stroke="#45413C" stroke-width="7" stroke-linecap="round" stroke-linejoin="round"/>
<path d="M34.4062 284.084H87.0505V366.506H34.4062V284.084Z" fill="#FFE500"/>
<path d="M60.2629 284.087C53.3675 284.196 46.7914 287.022 41.9538 291.955C37.1163 296.888 34.4054 303.533 34.4063 310.454V316.682C34.8262 323.403 37.7821 329.71 42.6723 334.32C47.5625 338.93 54.0193 341.496 60.7284 341.496C67.4374 341.496 73.8942 338.93 78.7844 334.32C83.6746 329.71 86.6305 323.403 87.0505 316.682V310.558C87.0509 307.046 86.3552 303.57 85.004 300.331C83.6528 297.092 81.6731 294.155 79.1801 291.692C76.687 289.228 73.7306 287.287 70.4828 285.982C67.2351 284.676 63.761 284.032 60.2629 284.087Z" fill="#EBCB00"/>
<path d="M34.4062 284.084H87.0505V366.506H34.4062V284.084Z" stroke="#45413C" stroke-width="7" stroke-linecap="round" stroke-linejoin="round"/>
<path d="M154.485 204.462C141.459 200.775 129.426 194.196 119.275 185.212C109.125 176.228 101.116 165.068 95.8417 152.559L89.3259 137.092C74.6851 156.519 55.9265 172.439 34.4062 183.701V317.923C42.7998 320.428 51.5061 321.721 60.2629 321.763C82.7839 321.862 104.587 313.817 121.681 299.1C138.775 284.384 150.016 263.98 153.347 241.625H154.485C159.45 241.625 164.211 239.645 167.722 236.122C171.233 232.598 173.205 227.819 173.205 222.836C173.205 217.853 171.233 213.074 167.722 209.55C164.211 206.027 159.45 204.047 154.485 204.047V204.462Z" fill="#FFE500" stroke="#45413C" stroke-width="7" stroke-linecap="round" stroke-linejoin="round"/>
<path d="M116.916 219.089C116.916 220.67 116.449 222.215 115.574 223.53C114.699 224.844 113.455 225.868 112 226.473C110.545 227.078 108.943 227.237 107.398 226.928C105.854 226.62 104.435 225.859 103.321 224.741C102.207 223.623 101.449 222.199 101.141 220.648C100.834 219.098 100.992 217.491 101.594 216.03C102.197 214.569 103.218 213.321 104.528 212.443C105.837 211.564 107.377 211.096 108.952 211.096C111.064 211.096 113.09 211.938 114.583 213.437C116.077 214.936 116.916 216.969 116.916 219.089Z" fill="#45413C" stroke="#45413C" stroke-width="7" stroke-linecap="round" stroke-linejoin="round"/>
<path d="M132.496 469.17V444.152" stroke="#45413C" stroke-width="7" stroke-linecap="round" stroke-linejoin="round"/>
<path d="M111.812 253.148C111.812 254.8 112.902 256.384 114.842 257.552C116.781 258.72 119.412 259.377 122.155 259.377C124.898 259.377 127.529 258.72 129.469 257.552C131.408 256.384 132.498 254.8 132.498 253.148C132.498 251.496 131.408 249.912 129.469 248.744C127.529 247.576 124.898 246.92 122.155 246.92C119.412 246.92 116.781 247.576 114.842 248.744C112.902 249.912 111.812 251.496 111.812 253.148Z" fill="#FFAA54"/>
<path d="M93.5663 269.444C93.1297 268.934 92.5907 268.523 91.9848 268.237C91.3788 267.951 90.7194 267.796 90.0498 267.783H34.4062V289.686C38.6529 294.699 44.2369 298.391 50.502 300.329C56.7671 302.267 63.4531 302.37 69.7745 300.626C76.0958 298.881 81.7898 295.363 86.1875 290.483C90.5852 285.603 93.5039 279.565 94.6006 273.077C94.6898 272.433 94.6439 271.777 94.4658 271.151C94.2877 270.525 93.9814 269.944 93.5663 269.444Z" fill="#FF6242"/>
<path d="M60.2921 282.725C51.43 282.698 42.9028 286.121 36.5039 292.275C42.9408 298.401 51.4733 301.816 60.3438 301.816C69.2142 301.816 77.7468 298.401 84.1836 292.275C77.753 286.106 69.1878 282.682 60.2921 282.725Z" fill="#FFA694"/>
<path d="M93.5663 269.444C93.1297 268.934 92.5907 268.523 91.9848 268.237C91.3788 267.951 90.7194 267.796 90.0498 267.783H34.4062V289.686C38.6529 294.699 44.2369 298.391 50.502 300.329C56.7671 302.267 63.4531 302.37 69.7745 300.626C76.0958 298.881 81.7898 295.363 86.1875 290.483C90.5852 285.603 93.5039 279.565 94.6006 273.077C94.6898 272.433 94.6439 271.777 94.4658 271.151C94.2877 270.525 93.9814 269.944 93.5663 269.444V269.444Z" stroke="#45413C" stroke-width="7" stroke-linecap="round" stroke-linejoin="round"/>
<path d="M341.168 35.0466C330.241 26.6545 316.512 22.8131 302.835 24.3211C289.158 25.8292 276.587 32.5706 267.735 43.1435L246.43 66.9151L225.124 43.1435C216.272 32.5706 203.701 25.8292 190.024 24.3211C176.347 22.8131 162.618 26.6545 151.691 35.0466C143.361 41.5718 136.673 49.9676 132.164 59.559C127.655 69.1505 125.452 79.6699 125.731 90.2716C125.592 102.228 127.908 114.086 132.535 125.105C137.161 136.124 143.999 146.069 152.622 154.32L246.43 240.791L340.238 154.009C348.822 145.794 355.637 135.899 360.263 124.937C364.888 113.974 367.224 102.176 367.129 90.2716C367.407 79.6699 365.204 69.1505 360.695 59.559C356.186 49.9676 349.498 41.5718 341.168 35.0466Z" fill="#FF6196"/>
<path d="M151.691 96.1886C162.618 87.7965 176.347 83.9551 190.024 85.4631C203.701 86.9712 216.272 93.7126 225.124 104.285L237.535 118.092C238.66 119.339 240.032 120.336 241.564 121.018C243.096 121.7 244.754 122.052 246.43 122.052C248.106 122.052 249.763 121.7 251.295 121.018C252.827 120.336 254.2 119.339 255.324 118.092L267.735 104.285C276.587 93.7126 289.158 86.9712 302.835 85.4631C316.512 83.9551 330.241 87.7965 341.168 96.1886C350.278 102.799 357.428 111.769 361.854 122.14C365.459 111.91 367.244 101.123 367.129 90.2716C367.359 79.722 365.131 69.2642 360.625 59.7307C356.118 50.1973 349.456 41.8516 341.168 35.358C330.241 26.9659 316.512 23.1245 302.835 24.6325C289.158 26.1406 276.587 32.882 267.735 43.4549L246.43 66.9152L225.124 43.1435C216.272 32.5706 203.701 25.8292 190.024 24.3211C176.347 22.8131 162.618 26.6545 151.691 35.0466C143.361 41.5718 136.673 49.9676 132.164 59.559C127.655 69.1505 125.452 79.6699 125.731 90.2716C125.744 101.258 127.705 112.155 131.522 122.452C135.757 112.029 142.727 102.953 151.691 96.1886Z" fill="#FF87AF"/>
<path d="M341.168 35.0466C330.241 26.6545 316.512 22.8131 302.835 24.3211C289.158 25.8292 276.587 32.5706 267.735 43.1435L246.43 66.9152L225.124 43.1435C216.272 32.5706 203.701 25.8292 190.024 24.3211C176.347 22.8131 162.618 26.6545 151.691 35.0466C143.361 41.5718 136.673 49.9676 132.164 59.559C127.655 69.1505 125.452 79.6699 125.731 90.2716C125.592 102.228 127.908 114.086 132.535 125.105C137.161 136.124 143.999 146.069 152.622 154.32L246.43 240.791L340.238 154.009C348.822 145.794 355.637 135.899 360.263 124.937C364.888 113.974 367.224 102.176 367.129 90.2716C367.407 79.6699 365.204 69.1505 360.695 59.559C356.186 49.9676 349.498 41.5718 341.168 35.0466V35.0466Z" stroke="#45413C" stroke-width="7" stroke-linecap="round" stroke-linejoin="round"/>
</svg>
