<svg width="495" height="495" viewBox="0 0 495 495" fill="none" xmlns="http://www.w3.org/2000/svg">
<path d="M325.255 318.403L247.498 289.115L169.742 318.712C156.557 323.743 145.21 332.658 137.2 344.276C129.19 355.895 124.895 369.672 124.883 383.784V443.803H370.114V383.475C370.102 369.362 365.807 355.586 357.797 343.967C349.787 332.348 338.44 323.434 325.255 318.403Z" fill="#656769"/>
<path d="M325.255 318.403L247.498 289.115L169.742 318.712C156.557 323.743 145.21 332.658 137.2 344.276C129.19 355.895 124.895 369.672 124.883 383.784V414.721C124.895 400.609 129.19 386.833 137.2 375.214C145.21 363.595 156.557 354.681 169.742 349.65L247.498 320.053L325.255 349.65C338.44 354.681 349.787 363.595 357.797 375.214C365.807 386.833 370.102 400.609 370.114 414.721V383.784C370.165 369.619 365.899 355.775 357.885 344.094C349.871 332.414 338.489 323.453 325.255 318.403Z" fill="#525252"/>
<path d="M325.255 318.403L247.498 289.115L169.742 318.712C156.557 323.743 145.21 332.658 137.2 344.276C129.19 355.895 124.895 369.672 124.883 383.784V443.803H370.114V383.475C370.102 369.362 365.807 355.586 357.797 343.967C349.787 332.348 338.44 323.434 325.255 318.403V318.403Z" stroke="#45413C" stroke-width="6" stroke-linecap="round" stroke-linejoin="round"/>
<path d="M247.5 289.115C247.5 289.115 195.938 289.115 195.938 318.093C196.894 339.813 204.69 360.676 218.212 377.7L247.5 352.537L277.303 377.7C290.826 360.676 298.622 339.813 299.578 318.093C299.578 289.115 247.5 289.115 247.5 289.115Z" fill="white" stroke="#45413C" stroke-width="6" stroke-linecap="round" stroke-linejoin="round"/>
<path d="M247.498 352.538L224.295 329.334C222.39 327.414 221.316 324.821 221.305 322.116V291.178C221.305 284.231 224.064 277.569 228.977 272.656C233.889 267.744 240.551 264.984 247.498 264.984C254.445 264.984 261.108 267.744 266.02 272.656C270.933 277.569 273.692 284.231 273.692 291.178V322.116C273.681 324.821 272.607 327.414 270.702 329.334L247.498 352.538Z" fill="#FFCEBF"/>
<path d="M247.498 264.984C240.551 264.984 233.889 267.744 228.977 272.656C224.064 277.569 221.305 284.231 221.305 291.178V297.263C221.305 304.21 224.064 310.872 228.977 315.784C233.889 320.697 240.551 323.456 247.498 323.456C254.445 323.456 261.108 320.697 266.02 315.784C270.933 310.872 273.692 304.21 273.692 297.263V291.178C273.692 284.231 270.933 277.569 266.02 272.656C261.108 267.744 254.445 264.984 247.498 264.984Z" fill="#FFB59E"/>
<path d="M247.498 352.538L224.295 329.334C222.39 327.414 221.316 324.821 221.305 322.116V291.178C221.305 284.231 224.064 277.569 228.977 272.656C233.889 267.744 240.551 264.984 247.498 264.984V264.984C254.445 264.984 261.108 267.744 266.02 272.656C270.933 277.569 273.692 284.231 273.692 291.178V322.116C273.681 324.821 272.607 327.414 270.702 329.334L247.498 352.538Z" stroke="#45413C" stroke-width="6" stroke-linecap="round" stroke-linejoin="round"/>
<path d="M277.302 377.7L268.639 443.803H226.048L217.695 377.7L247.498 352.537L277.302 377.7Z" fill="white" stroke="#45413C" stroke-width="6" stroke-linecap="round" stroke-linejoin="round"/>
<path d="M242.344 398.943C242.344 400.311 242.887 401.622 243.854 402.589C244.821 403.556 246.132 404.1 247.5 404.1C248.868 404.1 250.179 403.556 251.146 402.589C252.113 401.622 252.656 400.311 252.656 398.943C252.656 397.576 252.113 396.264 251.146 395.297C250.179 394.33 248.868 393.787 247.5 393.787C246.132 393.787 244.821 394.33 243.854 395.297C242.887 396.264 242.344 397.576 242.344 398.943Z" fill="#45413C"/>
<path d="M242.344 422.146C242.344 423.514 242.887 424.826 243.854 425.793C244.821 426.759 246.132 427.303 247.5 427.303C248.868 427.303 250.179 426.759 251.146 425.793C252.113 424.826 252.656 423.514 252.656 422.146C252.656 420.779 252.113 419.467 251.146 418.5C250.179 417.533 248.868 416.99 247.5 416.99C246.132 416.99 244.821 417.533 243.854 418.5C242.887 419.467 242.344 420.779 242.344 422.146Z" fill="#45413C"/>
<path d="M247.499 364.912L216.562 346.246C214.705 345.125 212.586 344.512 210.417 344.467C208.249 344.423 206.107 344.95 204.206 345.994C202.305 347.039 200.712 348.564 199.586 350.419C198.461 352.273 197.842 354.39 197.793 356.559V372.131C197.852 374.284 198.473 376.384 199.593 378.224C200.713 380.064 202.294 381.579 204.179 382.621C206.064 383.663 208.189 384.194 210.342 384.163C212.496 384.132 214.604 383.539 216.459 382.443L247.499 364.912Z" fill="#009FD9" stroke="#45413C" stroke-width="6" stroke-linecap="round" stroke-linejoin="round"/>
<path d="M221.098 364.912H247.498" stroke="#45413C" stroke-width="6" stroke-linecap="round" stroke-linejoin="round"/>
<path d="M247.5 364.912L278.438 346.246C280.294 345.125 282.413 344.512 284.582 344.467C286.75 344.423 288.893 344.95 290.794 345.994C292.695 347.039 294.288 348.564 295.413 350.419C296.539 352.273 297.157 354.39 297.206 356.559V372.131C297.137 374.269 296.515 376.352 295.4 378.178C294.286 380.003 292.717 381.509 290.848 382.548C288.978 383.586 286.871 384.123 284.732 384.105C282.593 384.086 280.495 383.514 278.644 382.443L247.5 364.912Z" fill="#009FD9" stroke="#45413C" stroke-width="6" stroke-linecap="round" stroke-linejoin="round"/>
<path d="M273.9 364.912H247.5" stroke="#45413C" stroke-width="6" stroke-linecap="round" stroke-linejoin="round"/>
<path d="M233.164 364.912C233.164 368.714 234.674 372.36 237.363 375.048C240.051 377.737 243.697 379.247 247.498 379.247C251.3 379.247 254.946 377.737 257.634 375.048C260.323 372.36 261.833 368.714 261.833 364.912C261.833 361.111 260.323 357.465 257.634 354.777C254.946 352.088 251.3 350.578 247.498 350.578C243.697 350.578 240.051 352.088 237.363 354.777C234.674 357.465 233.164 361.111 233.164 364.912Z" fill="#009FD9" stroke="#45413C" stroke-width="6" stroke-linecap="round" stroke-linejoin="round"/>
<path d="M247.499 51.0005C239.015 50.9737 230.562 52.0131 222.337 54.0943C203.155 58.4255 178.199 65.7474 155.615 61.4161C154.747 67.2329 155.067 73.1652 156.556 78.8548C158.045 84.5444 160.672 89.8731 164.277 94.5193C152.511 111.478 146.214 131.629 146.231 152.269V205.276H348.768V152.269C348.768 125.411 338.099 99.653 319.107 80.6614C300.115 61.6699 274.357 51.0005 247.499 51.0005Z" fill="#A86C4D"/>
<path d="M247.498 51.0005C239.014 50.9737 230.561 52.0131 222.336 54.0943C203.155 58.4255 178.198 65.7474 155.614 61.4161C154.19 72.2348 156.677 83.2062 162.627 92.3536C182.833 92.7719 202.98 90.0229 222.336 84.2068C237.296 80.4317 252.919 80.1141 268.02 83.2781C283.121 86.4421 297.303 93.0044 309.489 102.467C321.675 111.93 331.546 124.044 338.352 137.891C345.157 151.738 348.719 166.953 348.767 182.382V152.269C348.767 125.411 338.098 99.653 319.106 80.6614C300.115 61.6699 274.357 51.0005 247.498 51.0005Z" fill="#DE926A"/>
<path d="M247.499 51.0005C239.015 50.9737 230.562 52.0131 222.337 54.0943C203.155 58.4255 178.199 65.7474 155.615 61.4161C154.747 67.2329 155.067 73.1652 156.556 78.8548C158.045 84.5444 160.672 89.8731 164.277 94.5193C152.511 111.478 146.214 131.629 146.231 152.269V205.276H348.768V152.269C348.768 125.411 338.099 99.653 319.107 80.6614C300.115 61.6699 274.357 51.0005 247.499 51.0005V51.0005Z" stroke="#45413C" stroke-width="6" stroke-linecap="round" stroke-linejoin="round"/>
<path d="M359.597 197.541C359.096 193.754 357.457 190.209 354.897 187.373C352.338 184.537 348.978 182.545 345.263 181.66L339.178 179.907C334.64 178.737 330.636 176.058 327.824 172.309C325.012 168.56 323.561 163.965 323.709 159.282V138.244C323.704 133.987 322.283 129.852 319.669 126.491C317.055 123.13 313.397 120.735 309.272 119.682C289.593 127.484 268.562 131.304 247.397 130.922C226.231 131.304 205.201 127.484 185.522 119.682C181.397 120.735 177.739 123.13 175.125 126.491C172.511 129.852 171.089 133.987 171.084 138.244V159.591C171.233 164.275 169.781 168.869 166.97 172.618C164.158 176.367 160.154 179.047 155.616 180.216L149.531 181.969C145.815 182.855 142.456 184.847 139.896 187.682C137.337 190.518 135.698 194.064 135.197 197.85C134.921 200.461 135.199 203.101 136.013 205.596C136.827 208.092 138.158 210.388 139.92 212.335C141.681 214.281 143.834 215.834 146.236 216.892C148.639 217.951 151.237 218.49 153.863 218.475H154.997C157.41 241.272 168.174 262.369 185.216 277.702C202.257 293.035 224.37 301.518 247.294 301.518C270.218 301.518 292.331 293.035 309.372 277.702C326.413 262.369 337.178 241.272 339.591 218.475H340.725C343.397 218.525 346.048 218 348.499 216.937C350.95 215.873 353.145 214.296 354.934 212.311C356.723 210.326 358.065 207.981 358.87 205.432C359.674 202.884 359.922 200.193 359.597 197.541Z" fill="#FFCEBF" stroke="#45413C" stroke-width="6" stroke-linecap="round" stroke-linejoin="round"/>
<path d="M191.5 195.376C191.5 197.482 192.337 199.502 193.826 200.991C195.315 202.48 197.335 203.317 199.441 203.317C201.547 203.317 203.566 202.48 205.055 200.991C206.545 199.502 207.381 197.482 207.381 195.376C207.381 193.27 206.545 191.25 205.055 189.761C203.566 188.272 201.547 187.436 199.441 187.436C197.335 187.436 195.315 188.272 193.826 189.761C192.337 191.25 191.5 193.27 191.5 195.376Z" fill="#45413C" stroke="#45413C" stroke-width="6" stroke-linecap="round" stroke-linejoin="round"/>
<path d="M303.495 195.376C303.495 197.482 302.658 199.502 301.169 200.991C299.68 202.48 297.66 203.317 295.554 203.317C293.448 203.317 291.428 202.48 289.939 200.991C288.45 199.502 287.613 197.482 287.613 195.376C287.613 193.27 288.45 191.25 289.939 189.761C291.428 188.272 293.448 187.436 295.554 187.436C297.66 187.436 299.68 188.272 301.169 189.761C302.658 191.25 303.495 193.27 303.495 195.376Z" fill="#45413C" stroke="#45413C" stroke-width="6" stroke-linecap="round" stroke-linejoin="round"/>
<path d="M218.212 243.74C217.569 243.754 216.936 243.898 216.351 244.164C215.766 244.43 215.242 244.812 214.809 245.287C214.369 245.788 214.047 246.383 213.869 247.025C213.69 247.668 213.659 248.343 213.777 249C215.17 256.932 219.314 264.12 225.482 269.299C231.65 274.478 239.446 277.318 247.499 277.318C255.553 277.318 263.349 274.478 269.517 269.299C275.684 264.12 279.829 256.932 281.221 249C281.34 248.343 281.308 247.668 281.13 247.025C280.951 246.383 280.63 245.788 280.19 245.287C279.761 244.807 279.237 244.422 278.651 244.156C278.065 243.89 277.43 243.748 276.787 243.74H218.212Z" fill="#FF6242"/>
<path d="M247.499 258.179C238.2 257.902 229.068 260.692 221.512 266.12C224.744 269.767 228.713 272.688 233.157 274.688C237.601 276.688 242.419 277.723 247.293 277.723C252.167 277.723 256.985 276.688 261.429 274.688C265.873 272.688 269.842 269.767 273.074 266.12C265.631 260.778 256.658 257.992 247.499 258.179Z" fill="#FFA694"/>
<path d="M218.212 243.74C217.569 243.754 216.936 243.898 216.351 244.164C215.766 244.43 215.242 244.812 214.809 245.287C214.369 245.788 214.047 246.383 213.869 247.025C213.69 247.668 213.659 248.343 213.777 249C215.17 256.932 219.314 264.12 225.482 269.299C231.65 274.478 239.446 277.318 247.499 277.318C255.553 277.318 263.349 274.478 269.517 269.299C275.684 264.12 279.829 256.932 281.221 249C281.34 248.343 281.308 247.668 281.13 247.025C280.951 246.383 280.63 245.788 280.19 245.287C279.761 244.807 279.237 244.422 278.651 244.156C278.065 243.89 277.43 243.748 276.787 243.74H218.212Z" stroke="#45413C" stroke-width="6" stroke-linecap="round" stroke-linejoin="round"/>
<path d="M175.93 229.201C175.93 230.842 177.016 232.416 178.95 233.576C180.884 234.737 183.507 235.389 186.242 235.389C188.977 235.389 191.6 234.737 193.534 233.576C195.468 232.416 196.555 230.842 196.555 229.201C196.555 227.56 195.468 225.986 193.534 224.826C191.6 223.666 188.977 223.014 186.242 223.014C183.507 223.014 180.884 223.666 178.95 224.826C177.016 225.986 175.93 227.56 175.93 229.201Z" fill="#FFB59E"/>
<path d="M298.441 229.201C298.441 230.842 299.528 232.416 301.462 233.576C303.396 234.737 306.019 235.389 308.754 235.389C311.489 235.389 314.112 234.737 316.046 233.576C317.98 232.416 319.066 230.842 319.066 229.201C319.066 227.56 317.98 225.986 316.046 224.826C314.112 223.666 311.489 223.014 308.754 223.014C306.019 223.014 303.396 223.666 301.462 224.826C299.528 225.986 298.441 227.56 298.441 229.201Z" fill="#FFB59E"/>
</svg>
