<svg width="493" height="493" viewBox="0 0 493 493" fill="none" xmlns="http://www.w3.org/2000/svg">
<path d="M15.2695 246.513C15.2695 294.918 34.4985 341.341 68.7263 375.569C102.954 409.796 149.377 429.025 197.782 429.025C246.188 429.025 292.61 409.796 326.838 375.569C361.066 341.341 380.295 294.918 380.295 246.513C380.295 198.107 361.066 151.685 326.838 117.457C292.61 83.229 246.188 64 197.782 64C149.377 64 102.954 83.229 68.7263 117.457C34.4985 151.685 15.2695 198.107 15.2695 246.513Z" fill="#FFE500"/>
<path d="M197.725 64C161.603 64 126.292 74.7128 96.2585 94.7834C66.2253 114.854 42.8191 143.381 29.0004 176.755C15.1817 210.13 11.5713 246.853 18.6259 282.28C25.6805 317.706 43.0831 350.245 68.6326 375.78C94.1821 401.315 126.731 418.7 162.161 425.734C197.592 432.769 234.313 429.138 267.68 415.301C301.047 401.463 329.56 378.041 349.614 347.996C369.668 317.952 380.361 282.635 380.34 246.513C380.313 198.098 361.061 151.675 326.817 117.45C292.573 83.2257 246.14 64 197.725 64ZM197.725 401.705C164.776 401.705 132.567 391.934 105.171 373.629C77.7747 355.324 56.4221 329.305 43.8131 298.864C31.204 268.424 27.9049 234.927 34.333 202.611C40.761 170.296 56.6274 140.612 79.9259 117.313C103.224 94.0147 132.908 78.1482 165.224 71.7202C197.54 65.2922 231.036 68.5913 261.477 81.2003C291.918 93.8093 317.936 115.162 336.242 142.558C354.547 169.954 364.318 202.163 364.318 235.112C364.318 256.989 360.009 278.652 351.637 298.864C343.265 319.076 330.993 337.441 315.524 352.911C300.054 368.381 281.689 380.652 261.477 389.024C241.265 397.396 219.602 401.705 197.725 401.705Z" fill="#EBCB00"/>
<path d="M143.016 100.463C143.016 104.086 148.783 107.56 159.05 110.122C169.316 112.684 183.24 114.123 197.759 114.123C212.278 114.123 226.202 112.684 236.469 110.122C246.735 107.56 252.503 104.086 252.503 100.463C252.503 96.84 246.735 93.3655 236.469 90.8037C226.202 88.2419 212.278 86.8027 197.759 86.8027C183.24 86.8027 169.316 88.2419 159.05 90.8037C148.783 93.3655 143.016 96.84 143.016 100.463Z" fill="#FFF48C"/>
<path d="M111.078 255.655C111.078 258.079 112.041 260.404 113.755 262.118C115.47 263.833 117.795 264.796 120.219 264.796C122.644 264.796 124.969 263.833 126.683 262.118C128.397 260.404 129.36 258.079 129.36 255.655C129.36 253.23 128.397 250.905 126.683 249.191C124.969 247.477 122.644 246.514 120.219 246.514C117.795 246.514 115.47 247.477 113.755 249.191C112.041 250.905 111.078 253.23 111.078 255.655Z" fill="#45413C" stroke="#45413C" stroke-width="7" stroke-linecap="round" stroke-linejoin="round"/>
<path d="M155.16 241.994C155.16 241.994 127.736 200.911 97.4375 214.571" stroke="#45413C" stroke-width="7" stroke-linecap="round" stroke-linejoin="round"/>
<path d="M240.426 241.994C240.426 241.994 267.849 200.911 298.251 214.571" stroke="#45413C" stroke-width="7" stroke-linecap="round" stroke-linejoin="round"/>
<path d="M266.266 255.655C266.266 258.079 267.229 260.404 268.943 262.118C270.657 263.833 272.982 264.796 275.407 264.796C277.831 264.796 280.156 263.833 281.87 262.118C283.585 260.404 284.548 258.079 284.548 255.655C284.548 253.23 283.585 250.905 281.87 249.191C280.156 247.477 277.831 246.514 275.407 246.514C272.982 246.514 270.657 247.477 268.943 249.191C267.229 250.905 266.266 253.23 266.266 255.655Z" fill="#45413C" stroke="#45413C" stroke-width="7" stroke-linecap="round" stroke-linejoin="round"/>
<path d="M152.16 337.821C165.673 328.791 181.561 323.971 197.814 323.971C214.067 323.971 229.955 328.791 243.468 337.821" stroke="#45413C" stroke-width="7" stroke-linecap="round"/>
<path d="M330.161 296.738C330.161 304.339 319.89 310.501 307.36 310.501C294.829 310.501 284.559 304.339 284.559 296.738C284.559 289.138 294.829 283.078 307.36 283.078C319.89 283.078 330.161 289.241 330.161 296.738Z" fill="#FFAA54"/>
<path d="M65.5 296.736C65.5 304.337 75.7708 310.499 88.3013 310.499C100.832 310.499 111.103 304.337 111.103 296.736C111.103 289.136 100.832 283.076 88.3013 283.076C75.7708 283.076 65.5 289.239 65.5 296.736Z" fill="#FFAA54"/>
<path d="M15.2695 246.513C15.2695 294.918 34.4985 341.341 68.7263 375.569C102.954 409.796 149.377 429.025 197.782 429.025C246.188 429.025 292.61 409.796 326.838 375.569C361.066 341.341 380.295 294.918 380.295 246.513C380.295 198.107 361.066 151.684 326.838 117.457C292.61 83.229 246.188 64 197.782 64C149.377 64 102.954 83.229 68.7263 117.457C34.4985 151.684 15.2695 198.107 15.2695 246.513V246.513Z" stroke="#45413C" stroke-width="7" stroke-linecap="round" stroke-linejoin="round"/>
<path d="M343.84 137.025H33.1477C31.7386 137.029 30.349 137.355 29.0851 137.978C27.8212 138.601 26.7165 139.505 25.8554 140.62C17.9074 151.043 11.187 162.347 5.82728 174.309C5.19167 175.699 4.91503 177.227 5.02269 178.752C5.13035 180.277 5.61887 181.751 6.44353 183.039C7.29097 184.312 8.43464 185.36 9.77636 186.093C11.1181 186.827 12.6178 187.224 14.1467 187.25H370.545C364.338 169.209 355.326 152.259 343.84 137.025Z" fill="#F0F0F0"/>
<path d="M343.85 137.023H33.1569C31.7478 137.027 30.3582 137.353 29.0943 137.976C27.8304 138.599 26.7257 139.503 25.8646 140.618C22.1821 145.328 18.7536 150.231 15.5938 155.306H355.969C352.301 148.973 348.254 142.868 343.85 137.023Z" fill="white"/>
<path d="M343.84 137.025H33.1477C31.7386 137.029 30.349 137.355 29.0851 137.978C27.8212 138.601 26.7165 139.505 25.8554 140.62C17.9074 151.043 11.187 162.347 5.82728 174.309C5.19167 175.699 4.91503 177.227 5.02269 178.752C5.13035 180.277 5.61887 181.751 6.44353 183.039C7.29097 184.312 8.43464 185.36 9.77636 186.093C11.1181 186.827 12.6178 187.224 14.1467 187.25H370.545C364.338 169.209 355.326 152.259 343.84 137.025Z" stroke="#45413C" stroke-width="7" stroke-linecap="round" stroke-linejoin="round"/>
<path d="M352.926 164.447C352.926 164.447 403.047 220.423 477.614 213.645C479.116 213.483 480.635 213.701 482.032 214.278C483.428 214.855 484.658 215.773 485.608 216.948C486.558 218.123 487.198 219.517 487.471 221.003C487.743 222.49 487.638 224.021 487.166 225.456C481.923 240.377 475.678 254.926 468.473 269.004C467.47 271.037 465.749 272.624 463.643 273.459C461.536 274.294 459.194 274.317 457.072 273.524C432.011 264.28 354.261 229.462 352.926 164.447Z" fill="white" stroke="#45413C" stroke-width="7" stroke-linecap="round" stroke-linejoin="round"/>
<path d="M352.269 150.174C352.269 150.174 369.319 240.557 425.295 296.739C426.35 297.806 427.123 299.12 427.544 300.562C427.964 302.003 428.019 303.527 427.703 304.995C427.387 306.463 426.71 307.829 425.734 308.969C424.757 310.11 423.512 310.99 422.111 311.529C402.53 318.499 382.057 322.649 361.307 323.854C359.043 323.983 356.812 323.267 355.047 321.843C353.282 320.419 352.109 318.391 351.756 316.15C347.236 286.468 333.474 183.451 352.269 150.174Z" fill="white" stroke="#45413C" stroke-width="7" stroke-linecap="round" stroke-linejoin="round"/>
</svg>
