<svg width="496" height="496" viewBox="0 0 496 496" fill="none" xmlns="http://www.w3.org/2000/svg">
<g clip-path="url(#clip0_1171_66133)">
<path d="M148.554 74.3341L141.527 161.444H173.767L178.314 74.5408C178.819 61.5538 184.308 49.2606 193.641 40.2159C202.975 31.1712 215.434 26.0707 228.431 25.9741C241.44 25.9864 253.945 31.0053 263.353 39.9901C272.761 48.9748 278.35 61.236 278.961 74.2308L283.094 161.134H315.334L308.307 74.0241C306.698 53.94 297.586 35.198 282.785 21.5269C267.984 7.85577 248.579 0.257625 228.431 0.244143C208.226 0.239623 188.766 7.87273 173.952 21.6132C159.138 35.3536 150.066 54.1858 148.554 74.3341Z" fill="#F7E5C6"/>
<path d="M148.553 102.234C149.844 85.9585 156.079 70.4667 166.421 57.8341C176.763 45.2015 190.72 36.0318 206.42 31.5537C213.239 28.087 220.78 26.28 228.43 26.28C236.08 26.28 243.621 28.087 250.44 31.5537C266.14 36.0318 280.096 45.2015 290.439 57.8341C300.781 70.4667 307.016 85.9585 308.307 102.234L312.647 161.444H314.92L307.893 74.3337C306.44 54.1418 297.393 35.2496 282.573 21.4583C267.754 7.66697 248.261 0 228.017 0C207.772 0 188.28 7.66697 173.46 21.4583C158.64 35.2496 149.593 54.1418 148.14 74.3337L141.113 161.444H143.387L148.553 102.234Z" fill="#FFF5E3"/>
<path d="M365.867 161.443H118.797C110.929 161.45 103.251 163.857 96.7878 168.344C90.3251 172.831 85.3857 179.184 82.6299 186.553C79.5299 194.923 76.4299 203.293 74.9833 208.253C64.3984 243.02 58.287 278.995 56.7966 315.307L55.0399 359.223C54.8028 364.436 55.6235 369.642 57.4527 374.529C59.2819 379.415 62.0817 383.881 65.6833 387.656C69.2848 391.432 73.6136 394.438 78.4086 396.496C83.2036 398.553 88.3656 399.618 93.5833 399.627H301.077C311.056 399.609 320.643 395.742 327.843 388.832C335.042 381.922 339.298 372.5 339.723 362.53L341.583 315.307C343.53 265.896 354.018 217.195 372.583 171.363C372.997 170.265 373.141 169.083 373.003 167.918C372.865 166.752 372.45 165.637 371.792 164.665C371.134 163.693 370.253 162.894 369.222 162.333C368.191 161.772 367.04 161.467 365.867 161.443Z" fill="#947746" stroke="#45413C" stroke-width="7" stroke-linecap="round" stroke-linejoin="round"/>
<path d="M71.7799 219.414C63.1918 250.713 58.1655 282.881 56.7966 315.307L55.0399 359.224C54.8028 364.436 55.6235 369.643 57.4527 374.529C59.2819 379.416 62.0817 383.881 65.6833 387.657C69.2848 391.432 73.6136 394.439 78.4086 396.497C83.2036 398.554 88.3656 399.619 93.5833 399.627H289.917L304.487 219.414H71.7799Z" fill="#DEBB7E"/>
<path d="M300.763 261.987L304.173 219.414H71.7766C67.9532 233.467 64.9566 247.727 62.4766 261.987H300.763Z" fill="#B89558"/>
<path d="M71.7799 219.414C63.1918 250.713 58.1655 282.881 56.7966 315.307L55.0399 359.224C54.8028 364.436 55.6235 369.643 57.4527 374.529C59.2819 379.416 62.0817 383.881 65.6833 387.657C69.2848 391.432 73.6136 394.439 78.4086 396.496C83.2036 398.554 88.3656 399.619 93.5833 399.627H289.917L304.487 219.414H71.7799Z" stroke="#45413C" stroke-width="7" stroke-linecap="round" stroke-linejoin="round"/>
<path d="M359.767 161.443C369.781 161.488 379.565 164.442 387.931 169.946C396.296 175.45 402.882 183.266 406.887 192.443C415.266 210.776 422.379 229.661 428.174 248.966C434.572 274.065 438.347 299.761 439.437 325.64L440.781 359.533C440.99 364.737 440.144 369.93 438.296 374.799C436.447 379.668 433.634 384.114 430.024 387.868C426.415 391.623 422.083 394.609 417.29 396.647C412.498 398.685 407.342 399.734 402.134 399.73H194.744C184.757 399.738 175.155 395.88 167.95 388.964C160.746 382.048 156.498 372.612 156.097 362.633L154.237 315.306C153.117 287.871 149.38 260.605 143.077 233.88C140.597 223.546 137.497 206.496 134.914 191.41C134.264 187.705 134.435 183.902 135.414 180.27C136.393 176.638 138.156 173.265 140.58 170.389C143.003 167.512 146.028 165.201 149.441 163.62C152.854 162.039 156.572 161.225 160.334 161.236L359.767 161.443Z" fill="#DEBB7E"/>
<path d="M138.12 209.597C140.384 205.717 143.628 202.5 147.527 200.269C151.427 198.039 155.844 196.872 160.336 196.887H359.77C369.783 196.932 379.567 199.886 387.933 205.39C396.298 210.893 402.884 218.709 406.89 227.887C415.248 246.192 422.36 265.042 428.176 284.307C434.567 309.407 438.342 335.102 439.44 360.98V369.97C440.249 366.588 440.596 363.112 440.473 359.637L439.44 325.64C438.349 299.761 434.574 274.066 428.176 248.967C422.381 229.661 415.269 210.776 406.89 192.443C402.884 183.266 396.298 175.45 387.933 169.946C379.567 164.443 369.783 161.489 359.77 161.443H160.336C156.606 161.44 152.919 162.248 149.531 163.811C146.144 165.374 143.137 167.655 140.719 170.496C138.301 173.336 136.529 176.669 135.527 180.263C134.525 183.856 134.317 187.625 134.916 191.307C135.95 197.403 136.983 203.603 138.12 209.597Z" fill="#F0D5A8"/>
<path d="M359.767 161.443C369.781 161.488 379.565 164.442 387.931 169.946C396.296 175.45 402.882 183.266 406.887 192.443C415.266 210.776 422.379 229.661 428.174 248.966C434.572 274.065 438.347 299.761 439.437 325.64L440.781 359.533C440.99 364.737 440.144 369.93 438.296 374.799C436.447 379.668 433.634 384.114 430.024 387.868C426.415 391.623 422.083 394.609 417.29 396.647C412.498 398.685 407.342 399.734 402.134 399.73H194.744C184.757 399.738 175.155 395.88 167.95 388.964C160.746 382.048 156.498 372.612 156.097 362.633L154.237 315.306C153.117 287.871 149.38 260.605 143.077 233.88C140.597 223.546 137.497 206.496 134.914 191.41C134.264 187.705 134.435 183.902 135.414 180.27C136.393 176.638 138.156 173.265 140.58 170.389C143.003 167.512 146.028 165.201 149.441 163.62C152.854 162.039 156.572 161.225 160.334 161.236L359.767 161.443Z" stroke="#45413C" stroke-width="7" stroke-linecap="round" stroke-linejoin="round"/>
<path d="M225.952 213.007H197.948C192.715 212.971 187.614 211.354 183.317 208.366C179.02 205.378 175.727 201.16 173.872 196.267L160.852 161.443H225.228L238.042 195.543C238.777 197.498 239.027 199.601 238.771 201.674C238.515 203.746 237.76 205.725 236.572 207.442C235.383 209.159 233.796 210.562 231.946 211.531C230.097 212.5 228.04 213.007 225.952 213.007Z" fill="#E8F4FA" stroke="#45413C" stroke-width="7" stroke-linecap="round" stroke-linejoin="round"/>
<path d="M361.112 213.007H333.315C328.082 212.971 322.981 211.354 318.684 208.366C314.387 205.378 311.094 201.16 309.239 196.267L296.219 161.443H360.595L373.305 195.543C374.07 197.505 374.339 199.626 374.089 201.717C373.839 203.808 373.078 205.805 371.872 207.531C370.667 209.258 369.054 210.661 367.178 211.616C365.301 212.571 363.217 213.049 361.112 213.007Z" fill="#E8F4FA" stroke="#45413C" stroke-width="7" stroke-linecap="round" stroke-linejoin="round"/>
<path d="M148.554 74.3341L141.527 161.444H173.767L178.314 74.5408C178.819 61.5538 184.308 49.2606 193.641 40.2159C202.975 31.1712 215.434 26.0707 228.431 25.9741V25.9741C241.44 25.9864 253.945 31.0053 263.353 39.9901C272.761 48.9748 278.35 61.236 278.961 74.2308L283.094 161.134H315.334L308.307 74.0241C306.698 53.94 297.586 35.198 282.785 21.5269C267.984 7.85577 248.579 0.257625 228.431 0.244143V0.244143C208.226 0.239623 188.766 7.87273 173.952 21.6132C159.138 35.3536 150.066 54.1858 148.554 74.3341V74.3341Z" stroke="#45413C" stroke-width="7" stroke-linecap="round" stroke-linejoin="round"/>
<path d="M192.988 161.443L212.312 213.007" stroke="#45413C" stroke-width="7" stroke-linecap="round" stroke-linejoin="round"/>
<path d="M180.693 74.3335L173.77 161.444H205.906L210.04 74.5402C210.575 61.419 216.188 49.0193 225.693 39.9578C235.197 30.8964 247.851 25.8822 260.983 25.9735C274.002 25.9845 286.519 31 295.944 39.9823C305.369 48.9646 310.98 61.2263 311.616 74.2302L315.75 161.134H347.886L340.963 74.0235C339.255 53.986 330.089 35.3191 315.279 21.7145C300.469 8.11 281.093 0.558507 260.983 0.553542C240.763 0.462861 221.255 8.01439 206.367 21.6958C191.478 35.3771 182.308 54.1782 180.693 74.3335Z" fill="#F7E5C6"/>
<path d="M180.693 102.233C181.991 85.9451 188.24 70.4437 198.603 57.8097C208.965 45.1757 222.944 36.0137 238.663 31.5534C245.464 28.0875 252.988 26.2807 260.621 26.2807C268.254 26.2807 275.779 28.0875 282.58 31.5534C298.284 36.0399 312.247 45.2094 322.605 57.8381C332.963 70.4669 339.223 85.9543 340.55 102.233L345.303 161.443H347.473L340.55 74.3334C338.933 54.2448 329.812 35.5015 315 21.8343C300.189 8.16702 280.775 0.578125 260.621 0.578125C240.468 0.578125 221.053 8.16702 206.242 21.8343C191.431 35.5015 182.309 54.2448 180.693 74.3334L173.77 161.443H175.94L180.693 102.233Z" fill="#FFF5E3"/>
<path d="M180.693 74.3336L173.77 161.444H205.906L210.04 74.5402C210.575 61.419 216.188 49.0193 225.693 39.9578C235.197 30.8964 247.851 25.8822 260.983 25.9735V25.9735C274.002 25.9845 286.519 31 295.944 39.9823C305.369 48.9646 310.98 61.2263 311.616 74.2302L315.75 161.134H347.886L340.963 74.0235C339.255 53.986 330.089 35.3191 315.279 21.7145C300.469 8.11 281.093 0.558507 260.983 0.553542C240.763 0.462861 221.255 8.01439 206.367 21.6958C191.478 35.3771 182.308 54.1782 180.693 74.3336V74.3336Z" stroke="#45413C" stroke-width="7" stroke-linecap="round" stroke-linejoin="round"/>
</g>
<defs>
<clipPath id="clip0_1171_66133">
<rect width="496" height="496" fill="white"/>
</clipPath>
</defs>
</svg>
