<svg width="496" height="496" viewBox="0 0 496 496" fill="none" xmlns="http://www.w3.org/2000/svg">
<path d="M89.8771 94.2271C86.4514 90.7877 84.5323 86.1283 84.5419 81.2739C84.5516 76.4195 86.4893 71.7678 89.9287 68.3421C93.3682 64.9164 98.0276 62.9973 102.882 63.0069C107.736 63.0166 112.388 64.9543 115.814 68.3937L122.84 75.4204C125.266 77.8458 128.555 79.2084 131.985 79.2084C135.415 79.2084 138.705 77.8458 141.13 75.4204C143.556 72.995 144.918 69.7054 144.918 66.2754C144.918 62.8454 143.556 59.5558 141.13 57.1304L134.104 50.1037C125.591 43.5893 115.001 40.3885 104.305 41.0967C93.6087 41.8049 83.5337 46.3738 75.9537 53.9537C68.3738 61.5337 63.8049 71.6087 63.0967 82.305C62.3885 93.0012 65.5893 103.591 72.1037 112.104L172.027 213.06L190.317 194.667L89.8771 94.2271Z" fill="#87898C" stroke="#45413C" stroke-width="7" stroke-linecap="round" stroke-linejoin="round"/>
<path d="M402.817 402.057L243.271 116.34C242.859 115.654 242.232 115.124 241.487 114.833C240.743 114.541 239.922 114.505 239.155 114.729C238.387 114.954 237.715 115.426 237.245 116.073C236.774 116.72 236.531 117.504 236.554 118.304C237.05 126.724 235.757 135.155 232.76 143.04C229.762 150.925 225.129 158.085 219.164 164.05C213.199 170.015 206.039 174.649 198.154 177.646C190.269 180.643 181.838 181.936 173.417 181.44L161.844 180.82C161.348 180.79 160.851 180.866 160.386 181.042C159.921 181.218 159.498 181.491 159.147 181.843C158.795 182.194 158.522 182.617 158.346 183.082C158.169 183.547 158.094 184.044 158.124 184.54L158.744 196.114C159.253 204.511 157.979 212.921 155.006 220.791C152.032 228.66 147.428 235.812 141.494 241.775C135.56 247.738 128.431 252.378 120.576 255.39C112.721 258.402 104.317 259.718 95.9174 259.25C95.1054 259.171 94.291 259.377 93.6141 259.832C92.9372 260.288 92.44 260.965 92.2078 261.747C91.9756 262.529 92.0228 263.368 92.3415 264.119C92.6601 264.87 93.2303 265.487 93.9541 265.864L379.361 425.514C382.638 427.328 386.417 428.028 390.126 427.506C393.836 426.984 397.275 425.269 399.924 422.62C402.572 419.971 404.287 416.532 404.809 412.822C405.332 409.113 404.632 405.334 402.817 402.057Z" fill="#9DD4FF"/>
<path d="M215.902 167.077L391.569 427.167C394.086 426.457 396.409 425.184 398.362 423.444C400.316 421.705 401.848 419.544 402.843 417.125C403.839 414.707 404.271 412.093 404.108 409.483C403.945 406.872 403.191 404.333 401.902 402.057L243.182 116.34C242.771 115.654 242.144 115.124 241.399 114.833C240.654 114.541 239.834 114.505 239.066 114.729C238.298 114.954 237.627 115.426 237.156 116.073C236.686 116.72 236.443 117.504 236.466 118.304C237.017 127.467 235.448 136.634 231.882 145.093C228.316 153.551 222.848 161.074 215.902 167.077Z" fill="#53AEF9"/>
<path d="M402.817 402.057L243.271 116.34C242.859 115.654 242.232 115.124 241.487 114.833C240.743 114.541 239.922 114.505 239.155 114.729C238.387 114.954 237.715 115.426 237.245 116.073C236.774 116.72 236.531 117.504 236.554 118.304C237.05 126.724 235.757 135.155 232.76 143.04C229.762 150.925 225.129 158.085 219.164 164.05C213.199 170.015 206.039 174.649 198.154 177.646C190.269 180.643 181.838 181.936 173.417 181.44L161.844 180.82C161.348 180.79 160.851 180.866 160.386 181.042C159.921 181.218 159.498 181.491 159.147 181.843C158.795 182.194 158.522 182.617 158.346 183.082C158.169 183.547 158.094 184.044 158.124 184.54L158.744 196.114C159.253 204.511 157.979 212.921 155.006 220.791C152.032 228.66 147.428 235.812 141.494 241.775C135.56 247.738 128.431 252.378 120.576 255.39C112.721 258.402 104.317 259.718 95.9174 259.25C95.1054 259.171 94.291 259.377 93.6141 259.832C92.9372 260.288 92.44 260.965 92.2078 261.747C91.9756 262.529 92.0228 263.368 92.3415 264.119C92.6601 264.87 93.2303 265.487 93.9541 265.864L379.361 425.514C382.638 427.328 386.417 428.028 390.126 427.506C393.836 426.984 397.275 425.269 399.924 422.62C402.572 419.971 404.287 416.532 404.809 412.822C405.332 409.113 404.632 405.334 402.817 402.057Z" stroke="#45413C" stroke-width="7" stroke-linecap="round" stroke-linejoin="round"/>
</svg>
