<svg width="495" height="495" viewBox="0 0 495 495" fill="none" xmlns="http://www.w3.org/2000/svg">
<path d="M317.828 314.46L284.416 342.82C261.258 359.181 234.956 370.559 207.175 376.232C179.434 381.933 153.172 393.309 130.038 409.645L96.8313 433.054C95.7757 433.813 94.5781 434.353 93.3098 434.64C92.0415 434.927 90.7284 434.956 89.4486 434.725C88.1689 434.494 86.9488 434.008 85.8608 433.295C84.7728 432.583 83.8392 431.659 83.1156 430.579L11.8563 327.454C10.9173 326.043 10.3823 324.403 10.3094 322.71L5.35938 260.835L316.797 246.707L321.541 306.52C321.589 308.042 321.278 309.554 320.633 310.933C319.988 312.313 319.027 313.521 317.828 314.46Z" fill="#6DD627" stroke="#45413C" stroke-width="7" stroke-linecap="round" stroke-linejoin="round"/>
<path d="M285.757 387.989C284.575 387.236 283.624 386.172 283.007 384.914C282.389 383.656 282.131 382.252 282.258 380.857C282.386 379.462 282.896 378.128 283.731 377.003C284.567 375.878 285.696 375.005 286.994 374.479C321.655 359.782 359.484 354.139 396.926 358.082C459.419 367.054 502.835 399.332 486.335 426.764C472.001 450.173 430.854 430.682 430.854 430.682C430.854 430.682 445.085 458.114 421.779 469.767C398.473 481.42 364.957 437.386 364.957 437.386C364.957 437.386 359.801 463.786 339.588 458.011C312.673 450.689 321.541 427.073 312.879 411.604C305.476 402.028 296.26 394.004 285.757 387.989Z" fill="#E5FEFF"/>
<path d="M285.757 387.989C288.644 389.948 291.944 392.114 295.141 394.486C327.06 382.452 361.365 378.107 395.276 381.801C440.754 388.401 476.126 407.479 485.613 427.795C485.878 427.469 486.119 427.124 486.335 426.764C502.835 399.642 459.419 367.054 396.926 358.082C359.484 354.139 321.655 359.782 286.994 374.479C285.696 375.005 284.567 375.878 283.731 377.003C282.896 378.128 282.386 379.462 282.258 380.857C282.131 382.252 282.389 383.656 283.007 384.914C283.624 386.172 284.575 387.236 285.757 387.989Z" fill="white"/>
<path d="M285.757 387.989C284.575 387.236 283.624 386.172 283.007 384.914C282.389 383.656 282.131 382.252 282.258 380.857C282.386 379.462 282.896 378.128 283.731 377.003C284.567 375.878 285.696 375.005 286.994 374.479C321.655 359.782 359.484 354.139 396.926 358.082C459.419 367.054 502.835 399.332 486.335 426.764C472.001 450.173 430.854 430.682 430.854 430.682C430.854 430.682 445.085 458.114 421.779 469.767C398.473 481.42 364.957 437.386 364.957 437.386C364.957 437.386 359.801 463.786 339.588 458.011C312.673 450.689 321.541 427.073 312.879 411.604C305.476 402.028 296.26 394.004 285.757 387.989V387.989Z" stroke="#45413C" stroke-width="7" stroke-linecap="round" stroke-linejoin="round"/>
<path d="M115.398 169.466C116.278 170.322 117.398 170.892 118.609 171.099C119.819 171.307 121.064 171.143 122.18 170.63C123.296 170.117 124.231 169.278 124.861 168.223C125.491 167.169 125.787 165.948 125.71 164.722C127.145 134.751 120.934 104.906 107.663 77.9944C83.0163 33.7538 46.6131 10.2413 30.9381 30.1444C17.4288 47.2631 43.4163 72.6319 43.4163 72.6319C43.4163 72.6319 18.8725 69.6412 16.6038 90.2662C14.335 110.891 56.6163 123.782 56.6163 123.782C56.6163 123.782 38.26 134.919 47.8506 148.532C60.7413 166.785 76.4163 153.379 89.9256 155.751C99.2681 158.525 107.939 163.193 115.398 169.466Z" fill="#E5FEFF"/>
<path d="M105.085 106.972C115.08 126.397 120.977 147.668 122.41 169.466C123.238 168.977 123.928 168.284 124.415 167.454C124.902 166.625 125.17 165.684 125.194 164.722C126.629 134.751 120.418 104.906 107.147 77.9944C83.0159 33.7538 46.6127 10.2413 30.9377 30.1444C28.2954 34.0393 26.8828 38.6377 26.8828 43.3444C26.8828 48.051 28.2954 52.6494 30.9377 56.5444C48.2627 41.6944 82.5002 65.0006 105.085 106.972Z" fill="white"/>
<path d="M115.398 169.466C116.278 170.322 117.398 170.892 118.609 171.099C119.819 171.307 121.064 171.143 122.18 170.63C123.296 170.117 124.231 169.278 124.861 168.223C125.491 167.169 125.787 165.948 125.71 164.722C127.145 134.751 120.934 104.906 107.663 77.9944C83.0163 33.7538 46.6131 10.2413 30.9381 30.1444C17.4288 47.2631 43.4163 72.6319 43.4163 72.6319C43.4163 72.6319 18.8725 69.6412 16.6038 90.2662C14.335 110.891 56.6163 123.782 56.6163 123.782C56.6163 123.782 38.26 134.919 47.8506 148.532C60.7413 166.785 76.4163 153.379 89.9256 155.751C99.2681 158.525 107.939 163.193 115.398 169.466V169.466Z" stroke="#45413C" stroke-width="7" stroke-linecap="round" stroke-linejoin="round"/>
<path d="M119.728 194.733C91.9726 200.388 65.7012 211.767 42.5904 228.145L9.28105 251.554C7.2441 253.131 5.87106 255.413 5.43211 257.952C4.99315 260.49 5.52007 263.101 6.90917 265.27L77.8592 365.817C79.436 367.854 81.7182 369.227 84.2565 369.666C86.7948 370.105 89.4055 369.578 91.5748 368.189L124.884 344.676C148.042 328.382 174.295 317.01 202.022 311.264C229.803 305.59 256.104 294.213 279.262 277.851L312.469 254.442C314.505 252.865 315.879 250.583 316.318 248.045C316.756 245.506 316.23 242.896 314.84 240.726L243.89 140.179C242.314 138.143 240.031 136.769 237.493 136.331C234.955 135.892 232.344 136.419 230.175 137.808L196.969 161.32C173.792 177.648 147.498 189.022 119.728 194.733Z" fill="#6DD627" stroke="#45413C" stroke-width="7" stroke-linecap="round" stroke-linejoin="round"/>
<path d="M41.2479 271.251L83.8385 331.476C85.4154 333.513 87.6975 334.886 90.2358 335.325C92.7741 335.763 95.3848 335.237 97.5541 333.847L114.673 321.782C137.82 305.402 164.126 294.023 191.913 288.369C219.654 282.668 245.917 271.292 269.051 254.957L278.229 248.563C280.249 246.972 281.602 244.683 282.022 242.145C282.442 239.608 281.898 237.005 280.498 234.847L238.01 174.519C236.433 172.482 234.151 171.109 231.613 170.67C229.075 170.231 226.464 170.758 224.295 172.147L207.073 183.904C183.962 200.281 157.691 211.661 129.935 217.316C102.183 223.08 75.8989 234.45 52.6947 250.729L43.6197 257.226C41.4993 258.812 40.0703 261.153 39.6288 263.764C39.1872 266.375 39.767 269.055 41.2479 271.251Z" fill="#E4FFD1" stroke="#45413C" stroke-width="7" stroke-linecap="round" stroke-linejoin="round"/>
<path d="M188.718 242.789C192.327 253.101 182.84 265.786 167.474 271.148C152.108 276.511 136.537 272.695 133.03 262.486C129.524 252.276 138.908 239.489 154.377 234.023C169.846 228.558 185.624 232.579 188.718 242.789Z" fill="#9CEB60" stroke="#45413C" stroke-width="7" stroke-linecap="round" stroke-linejoin="round"/>
<path d="M84.6641 370.148L89.8203 434.705" stroke="#45413C" stroke-width="7" stroke-linecap="round" stroke-linejoin="round"/>
<path d="M319.688 290.123L285.347 319.204C261.17 336.304 233.711 348.208 204.703 354.164V354.164C175.719 360.038 148.285 371.911 124.162 389.02L88.1719 414.698" stroke="#45413C" stroke-width="7" stroke-linecap="round" stroke-linejoin="round"/>
<path d="M318.348 268.467L284.008 297.342C259.862 314.408 232.437 326.277 203.467 332.198V332.198C174.487 338.185 147.041 350.048 122.823 367.054L86.5234 392.939" stroke="#45413C" stroke-width="7" stroke-linecap="round" stroke-linejoin="round"/>
<path d="M87.6562 407.789L7.73438 292.186L87.6562 407.789Z" fill="#FFAA54"/>
<path d="M87.6562 407.789L7.73438 292.186" stroke="#45413C" stroke-width="7" stroke-linecap="round" stroke-linejoin="round"/>
</svg>
