<svg width="496" height="496" viewBox="0 0 496 496" fill="none" xmlns="http://www.w3.org/2000/svg">
<path d="M72.5485 60.9784L121.218 123.702C121.692 124.407 122.32 124.995 123.054 125.42C123.789 125.846 124.612 126.098 125.459 126.158C126.306 126.218 127.155 126.083 127.943 125.765C128.73 125.447 129.434 124.953 130.002 124.322L153.665 94.4584C154.171 93.782 154.517 92.9995 154.677 92.1699C154.836 91.3404 154.806 90.4854 154.587 89.6695C154.368 88.8536 153.967 88.098 153.413 87.4598C152.86 86.8215 152.169 86.3173 151.392 85.985L79.0585 53.125C78.017 52.2618 76.6753 51.8475 75.3285 51.9735C73.9817 52.0995 72.7401 52.7553 71.8768 53.7967C71.0135 54.8381 70.5993 56.1798 70.7252 57.5267C70.8512 58.8735 71.507 60.1151 72.5485 60.9784Z" fill="#FFE500" stroke="#45413C" stroke-width="7" stroke-linecap="round" stroke-linejoin="round"/>
<path d="M45.8016 162.414L122.682 187.628C123.472 187.949 124.324 188.089 125.176 188.036C126.028 187.983 126.856 187.739 127.601 187.322C128.345 186.905 128.986 186.326 129.476 185.628C129.966 184.929 130.293 184.13 130.432 183.288L133.738 145.054C133.728 144.195 133.526 143.349 133.147 142.578C132.769 141.807 132.224 141.129 131.551 140.595C130.878 140.061 130.095 139.683 129.257 139.489C128.42 139.295 127.551 139.29 126.712 139.474L46.525 152.494C45.3551 152.631 44.2694 153.171 43.4548 154.022C42.6403 154.872 42.1478 155.981 42.0621 157.155C41.9765 158.33 42.303 159.498 42.9856 160.458C43.6681 161.418 44.6639 162.109 45.8016 162.414Z" fill="#FFE500" stroke="#45413C" stroke-width="7" stroke-linecap="round" stroke-linejoin="round"/>
<path d="M47.3275 239.846L110.748 273.574C111.448 273.947 112.225 274.153 113.018 274.177C113.811 274.201 114.599 274.042 115.321 273.713C116.043 273.383 116.679 272.891 117.18 272.276C117.681 271.661 118.034 270.939 118.211 270.165L127.111 233.006C127.282 232.223 127.273 231.412 127.083 230.634C126.894 229.855 126.529 229.13 126.017 228.514C125.506 227.898 124.86 227.406 124.13 227.077C123.4 226.747 122.604 226.589 121.803 226.613L49.7035 230.285C48.608 230.354 47.5629 230.771 46.7198 231.474C45.8768 232.177 45.2795 233.13 45.0148 234.196C44.75 235.261 44.8315 236.383 45.2473 237.399C45.6631 238.415 46.3917 239.272 47.3275 239.846Z" fill="#FFE500" stroke="#45413C" stroke-width="7" stroke-linecap="round" stroke-linejoin="round"/>
<path d="M224.028 32.0784C218.494 32.6487 213.353 35.2018 209.555 39.2662C205.756 43.3306 203.557 48.632 203.361 54.1917L197.368 166.308C195.405 200.822 180.835 216.322 173.911 253.315C166.988 290.308 168.745 288.655 161.201 296.198L98.168 359.232L170.501 442.725L212.455 403.872C221.017 396.012 228.272 386.838 233.948 376.695C243.166 360.175 248.004 341.57 248.001 322.652V53.9851C247.984 50.9352 247.335 47.9219 246.097 45.1346C244.858 42.3474 243.057 39.8465 240.805 37.7891C238.554 35.7316 235.901 34.1622 233.014 33.1794C230.126 32.1967 227.067 31.8218 224.028 32.0784Z" fill="#FFE500"/>
<path d="M219.894 111.851C219.809 110.095 220.084 108.34 220.702 106.693C221.32 105.047 222.267 103.544 223.486 102.277C224.705 101.009 226.17 100.004 227.791 99.323C229.412 98.6417 231.155 98.2986 232.914 98.3147C236.915 98.3147 240.752 99.9041 243.582 102.733C246.411 105.563 248 109.4 248 113.401V94.698C248 90.6968 246.411 86.8594 243.582 84.0301C240.752 81.2008 236.915 79.6113 232.914 79.6113C225.06 79.6113 221.444 85.2947 220.927 93.148L219.894 111.851Z" fill="#FFF48C"/>
<path d="M225.369 61.0119C229.999 61.0178 234.542 62.2677 238.523 64.6309C242.504 66.9941 245.777 70.3838 247.999 74.4452V53.7786C247.953 50.7462 247.284 47.7556 246.033 44.9928C244.783 42.23 242.977 39.7541 240.728 37.7189C238.48 35.6836 235.837 34.1327 232.964 33.1623C230.09 32.192 227.048 31.8231 224.026 32.0786C218.492 32.6489 213.352 35.202 209.553 39.2664C205.754 43.3308 203.555 48.6322 203.359 54.1919L202.223 74.8586C204.431 70.6423 207.761 67.118 211.845 64.6746C215.93 62.2312 220.61 60.9637 225.369 61.0119Z" fill="#FFF48C"/>
<path d="M173.911 253.314C167.091 290.308 168.745 288.654 161.201 296.198L98.168 359.231L111.395 374.421L161.201 324.614C168.745 317.071 184.451 294.131 173.911 253.314Z" fill="#FFF48C"/>
<path d="M224.028 32.0784C218.494 32.6487 213.353 35.2018 209.555 39.2662C205.756 43.3306 203.557 48.632 203.361 54.1917L197.368 166.308C195.405 200.822 180.835 216.322 173.911 253.315C166.988 290.308 168.745 288.655 161.201 296.198L98.168 359.232L170.501 442.725L212.455 403.872C221.017 396.012 228.272 386.838 233.948 376.695V376.695C243.166 360.175 248.004 341.57 248.001 322.652V53.9851C247.984 50.9352 247.335 47.9219 246.097 45.1346C244.858 42.3474 243.057 39.8465 240.805 37.7891C238.554 35.7316 235.901 34.1622 233.014 33.1794C230.126 32.1967 227.067 31.8218 224.028 32.0784V32.0784Z" stroke="#45413C" stroke-width="7" stroke-linecap="round" stroke-linejoin="round"/>
<path d="M247.998 94.698C247.998 90.6968 246.409 86.8594 243.58 84.0301C240.75 81.2008 236.913 79.6113 232.912 79.6113V79.6113C225.059 79.6113 221.442 85.2947 220.925 93.148L215.035 202.268" stroke="#45413C" stroke-width="7" stroke-linecap="round" stroke-linejoin="round"/>
<path d="M34.8233 395.502L99.4067 343.836C101.426 342.215 103.98 341.411 106.563 341.583C109.146 341.756 111.571 342.891 113.357 344.766L191.993 427.432C193.686 429.197 194.698 431.505 194.85 433.946C195.001 436.387 194.282 438.802 192.82 440.762L177.94 459.879C176.977 461.163 175.729 462.204 174.295 462.922C172.86 463.639 171.278 464.012 169.673 464.012H41.3333C38.5928 464.012 35.9644 462.924 34.0266 460.986C32.0887 459.048 31 456.42 31 453.679V403.459C31.0101 401.933 31.3582 400.428 32.0193 399.052C32.6803 397.676 33.638 396.464 34.8233 395.502Z" fill="#009FD9"/>
<path d="M132.887 364.708L113.357 344.041C111.571 342.167 109.146 341.031 106.563 340.859C103.98 340.687 101.426 341.49 99.4067 343.111L34.8233 394.778C33.638 395.739 32.6803 396.952 32.0193 398.327C31.3582 399.703 31.0101 401.208 31 402.735V446.238L132.887 364.708Z" fill="#00B8F0"/>
<path d="M34.8233 395.502L99.4067 343.836C101.426 342.215 103.98 341.411 106.563 341.583C109.146 341.756 111.571 342.891 113.357 344.766L191.993 427.432C193.686 429.197 194.698 431.505 194.85 433.946C195.001 436.387 194.282 438.802 192.82 440.762L177.94 459.879C176.977 461.163 175.729 462.204 174.295 462.922C172.86 463.639 171.278 464.012 169.673 464.012H41.3333C38.5928 464.012 35.9644 462.924 34.0266 460.986C32.0887 459.048 31 456.42 31 453.679V403.459C31.0101 401.933 31.3582 400.428 32.0193 399.052C32.6803 397.676 33.638 396.464 34.8233 395.502V395.502Z" stroke="#45413C" stroke-width="7" stroke-linecap="round" stroke-linejoin="round"/>
<path d="M423.45 60.9823L374.78 123.706C374.307 124.411 373.679 124.998 372.944 125.424C372.209 125.85 371.387 126.102 370.54 126.162C369.693 126.222 368.843 126.087 368.056 125.769C367.268 125.451 366.564 124.957 365.996 124.326L342.333 94.4623C341.835 93.7657 341.503 92.9637 341.365 92.1185C341.226 91.2732 341.284 90.4074 341.534 89.5881C341.783 88.7688 342.219 88.018 342.805 87.3939C343.392 86.7697 344.114 86.289 344.916 85.9889L417.25 53.1289C418.302 52.5356 419.531 52.3378 420.716 52.5711C421.901 52.8045 422.963 53.4537 423.712 54.4016C424.46 55.3494 424.845 56.5336 424.797 57.7403C424.749 58.947 424.271 60.0968 423.45 60.9823Z" fill="#FFE500" stroke="#45413C" stroke-width="7" stroke-linecap="round" stroke-linejoin="round"/>
<path d="M450.2 162.414L373.32 187.628C372.53 187.949 371.677 188.089 370.826 188.036C369.974 187.983 369.145 187.739 368.401 187.322C367.657 186.905 367.016 186.326 366.526 185.628C366.035 184.929 365.709 184.13 365.57 183.288L362.264 145.054C362.274 144.195 362.476 143.349 362.854 142.578C363.233 141.807 363.778 141.129 364.451 140.595C365.124 140.061 365.907 139.683 366.744 139.489C367.581 139.295 368.451 139.29 369.29 139.474L449.477 152.494C450.647 152.631 451.732 153.171 452.547 154.022C453.362 154.872 453.854 155.981 453.94 157.155C454.025 158.33 453.699 159.498 453.016 160.458C452.334 161.418 451.338 162.109 450.2 162.414Z" fill="#FFE500" stroke="#45413C" stroke-width="7" stroke-linecap="round" stroke-linejoin="round"/>
<path d="M450.71 234.178L384.614 263.599C383.89 263.921 383.1 264.073 382.307 264.041C381.514 264.01 380.739 263.796 380.043 263.416C379.346 263.037 378.746 262.502 378.289 261.853C377.832 261.205 377.531 260.459 377.408 259.675L371.134 221.983C371.018 221.191 371.085 220.382 371.328 219.619C371.572 218.856 371.986 218.158 372.54 217.579C373.093 217 373.772 216.555 374.523 216.278C375.275 216 376.08 215.898 376.877 215.978L449.197 224.386C450.301 224.536 451.327 225.038 452.122 225.819C452.917 226.599 453.439 227.616 453.609 228.717C453.779 229.818 453.589 230.945 453.066 231.929C452.544 232.913 451.717 233.702 450.71 234.178Z" fill="#FFE500" stroke="#45413C" stroke-width="7" stroke-linecap="round" stroke-linejoin="round"/>
<path d="M271.973 32.0784C277.507 32.6487 282.648 35.2018 286.446 39.2662C290.245 43.3306 292.445 48.632 292.64 54.1917L298.943 166.308C300.907 200.822 315.477 216.322 322.4 253.315C329.323 290.308 327.567 288.655 335.11 296.198L398.143 359.232L325.81 442.725L283.857 403.872C275.294 396.012 268.039 386.838 262.363 376.695C253.037 360.204 248.092 341.597 248 322.652V53.9851C248.018 50.9352 248.666 47.9219 249.904 45.1346C251.143 42.3474 252.944 39.8465 255.196 37.7891C257.447 35.7316 260.1 34.1622 262.988 33.1794C265.875 32.1967 268.934 31.8218 271.973 32.0784Z" fill="#FFE500"/>
<path d="M276.107 111.851C276.191 110.095 275.916 108.34 275.298 106.693C274.681 105.047 273.733 103.544 272.514 102.277C271.295 101.009 269.83 100.004 268.209 99.323C266.588 98.6417 264.845 98.2986 263.087 98.3147C259.085 98.3147 255.248 99.9041 252.419 102.733C249.589 105.563 248 109.4 248 113.401V94.698C248 90.6968 249.589 86.8594 252.419 84.0301C255.248 81.2008 259.085 79.6113 263.087 79.6113C270.94 79.6113 274.557 85.2947 275.177 93.148L276.107 111.851Z" fill="#FFF48C"/>
<path d="M270.63 61.0119C266 61.0178 261.457 62.2677 257.476 64.6309C253.495 66.9941 250.222 70.3838 248 74.4452V53.7786C248.046 50.7462 248.715 47.7556 249.966 44.9928C251.217 42.23 253.023 39.7541 255.271 37.7189C257.519 35.6836 260.162 34.1327 263.036 33.1623C265.909 32.192 268.951 31.8231 271.973 32.0786C277.507 32.6489 282.648 35.202 286.446 39.2664C290.245 43.3308 292.445 48.6322 292.64 54.1919L293.777 74.8586C291.568 70.6423 288.238 67.118 284.154 64.6746C280.069 62.2312 275.389 60.9637 270.63 61.0119Z" fill="#FFF48C"/>
<path d="M322.092 253.314C328.912 290.308 327.258 288.654 334.802 296.198L397.835 359.231L384.608 374.421L334.802 324.614C327.258 317.071 311.552 294.131 322.092 253.314Z" fill="#FFF48C"/>
<path d="M271.973 32.0784C277.507 32.6487 282.648 35.2018 286.446 39.2662C290.245 43.3306 292.445 48.632 292.64 54.1917L298.943 166.308C300.907 200.822 315.477 216.322 322.4 253.315C329.323 290.308 327.567 288.655 335.11 296.198L398.143 359.232L325.81 442.725L283.857 403.872C275.294 396.012 268.039 386.838 262.363 376.695C253.037 360.204 248.092 341.597 248 322.652V53.9851C248.018 50.9352 248.666 47.9219 249.904 45.1346C251.143 42.3474 252.944 39.8465 255.196 37.7891C257.447 35.7316 260.1 34.1622 262.988 33.1794C265.875 32.1967 268.934 31.8218 271.973 32.0784V32.0784Z" stroke="#45413C" stroke-width="7" stroke-linecap="round" stroke-linejoin="round"/>
<path d="M248 94.698C248 90.6968 249.589 86.8594 252.419 84.0301C255.248 81.2008 259.085 79.6113 263.087 79.6113V79.6113C270.94 79.6113 274.557 85.2947 275.177 93.148L280.963 202.268" stroke="#45413C" stroke-width="7" stroke-linecap="round" stroke-linejoin="round"/>
<path d="M461.175 395.502L396.592 343.836C394.573 342.215 392.019 341.411 389.436 341.583C386.852 341.756 384.428 342.891 382.642 344.766L304.005 427.432C302.312 429.197 301.3 431.505 301.149 433.946C300.997 436.387 301.717 438.802 303.178 440.762L318.058 460.602C319.021 461.886 320.269 462.927 321.704 463.645C323.139 464.362 324.721 464.736 326.325 464.736H454.665C457.406 464.736 460.034 463.647 461.972 461.709C463.91 459.771 464.998 457.143 464.998 454.402V403.459C464.988 401.933 464.64 400.428 463.979 399.052C463.318 397.676 462.36 396.464 461.175 395.502Z" fill="#009FD9"/>
<path d="M363.113 364.708L382.643 344.041C384.429 342.167 386.854 341.031 389.437 340.859C392.02 340.687 394.574 341.49 396.593 343.111L461.177 394.778C462.362 395.739 463.32 396.952 463.981 398.327C464.642 399.703 464.99 401.208 465 402.735V446.238L363.113 364.708Z" fill="#00B8F0"/>
<path d="M461.175 395.502L396.592 343.836C394.573 342.215 392.019 341.411 389.436 341.583C386.852 341.756 384.428 342.891 382.642 344.766L304.005 427.432C302.312 429.197 301.3 431.505 301.149 433.946C300.997 436.387 301.717 438.802 303.178 440.762L318.058 460.602C319.021 461.886 320.269 462.928 321.704 463.645C323.139 464.362 324.721 464.736 326.325 464.736H454.665C457.406 464.736 460.034 463.647 461.972 461.709C463.91 459.771 464.998 457.143 464.998 454.402V403.459C464.988 401.933 464.64 400.428 463.979 399.052C463.318 397.676 462.36 396.464 461.175 395.502Z" stroke="#45413C" stroke-width="7" stroke-linecap="round" stroke-linejoin="round"/>
</svg>
