<svg width="495" height="495" viewBox="0 0 495 495" fill="none" xmlns="http://www.w3.org/2000/svg">
<path d="M233.637 266.786L51.3125 202.951V376.098C51.321 378.23 51.9899 380.307 53.2273 382.043C54.4646 383.779 56.2095 385.088 58.2219 385.792L233.534 447.667C242.362 450.661 251.931 450.661 260.759 447.667L436.072 385.792C438.084 385.088 439.829 383.779 441.066 382.043C442.304 380.307 442.973 378.23 442.981 376.098V202.951L260.863 266.786C252.049 269.867 242.451 269.867 233.637 266.786Z" fill="#FF866E"/>
<path d="M260.863 266.786C252.049 269.867 242.451 269.867 233.637 266.786L51.3125 202.951V254.514L233.637 318.348C242.451 321.429 252.049 321.429 260.863 318.348L443.188 254.514V202.951L260.863 266.786Z" fill="#FF6242"/>
<path d="M233.638 266.786L51.3125 202.951V376.098C51.321 378.23 51.9899 380.307 53.2273 382.043C54.4646 383.778 56.2095 385.088 58.2219 385.792L233.534 447.667C242.362 450.661 251.931 450.661 260.759 447.667L436.072 385.792C438.084 385.088 439.829 383.778 441.066 382.043C442.304 380.307 442.973 378.23 442.981 376.098V202.951L260.862 266.786C252.049 269.867 242.451 269.867 233.638 266.786Z" stroke="#45413C" stroke-width="7" stroke-linecap="round" stroke-linejoin="round"/>
<path d="M247.25 431.373V292.154" stroke="#E04122" stroke-width="7" stroke-linecap="round" stroke-linejoin="round"/>
<path d="M233.637 194.598L41 127.154V192.02C41.0085 194.152 41.6774 196.228 42.9148 197.964C44.1521 199.7 45.897 201.01 47.9094 201.714L233.534 266.786C242.348 269.867 251.946 269.867 260.759 266.786L446.384 201.714C448.397 201.01 450.142 199.7 451.379 197.964C452.616 196.228 453.285 194.152 453.294 192.02V127.154L260.863 194.598C252.049 197.679 242.451 197.679 233.637 194.598Z" fill="#FF866E"/>
<path d="M260.862 194.598C252.049 197.679 242.451 197.679 233.637 194.598L41 127.154V158.092L233.637 225.536C242.451 228.617 252.049 228.617 260.862 225.536L453.5 158.092V127.154L260.862 194.598Z" fill="#FFA694"/>
<path d="M233.638 194.598L41 127.154V192.02C41.0085 194.152 41.6774 196.228 42.9148 197.964C44.1521 199.7 45.897 201.01 47.9094 201.714L233.534 266.786C242.348 269.867 251.946 269.867 260.759 266.786L446.384 201.714C448.397 201.01 450.142 199.7 451.379 197.964C452.616 196.228 453.285 194.152 453.294 192.02V127.154L260.862 194.598C252.049 197.679 242.451 197.679 233.638 194.598Z" stroke="#45413C" stroke-width="7" stroke-linecap="round" stroke-linejoin="round"/>
<path d="M41 127.153L233.637 59.7092C242.451 56.6282 252.049 56.6282 260.862 59.7092L453.5 127.153L260.862 194.597C252.049 197.678 242.451 197.678 233.637 194.597L41 127.153Z" fill="#FF866E" stroke="#45413C" stroke-width="7" stroke-linecap="round" stroke-linejoin="round"/>
<path d="M109.781 151.285L156.703 167.682" stroke="#45413C" stroke-width="7" stroke-linecap="round" stroke-linejoin="round"/>
<path d="M92.5625 217.389V397.857L185.375 430.342V249.873L92.5625 217.389Z" fill="#EDDBFF"/>
<path d="M92.5625 217.389V268.951L185.375 301.436V249.873L92.5625 217.389Z" fill="#DABFF5"/>
<path d="M92.5625 217.389V397.857L185.375 430.342V249.873L92.5625 217.389Z" stroke="#45413C" stroke-width="7" stroke-linecap="round" stroke-linejoin="round"/>
<path d="M384.719 151.285L337.797 167.682" stroke="#45413C" stroke-width="7" stroke-linecap="round" stroke-linejoin="round"/>
<path d="M401.938 217.389V397.857L309.125 430.342V249.873L401.938 217.389Z" fill="#EDDBFF"/>
<path d="M401.938 217.389V268.951L309.125 301.436V249.873L401.938 217.389Z" fill="#DABFF5"/>
<path d="M401.938 217.389V397.857L309.125 430.342V249.873L401.938 217.389Z" stroke="#45413C" stroke-width="7" stroke-linecap="round" stroke-linejoin="round"/>
<path d="M216.314 137.982L231.783 112.201C231.783 112.201 167.949 28.8757 97.7204 49.1913C90.9785 51.1442 85.101 55.3317 81.0532 61.0661C77.0054 66.8005 75.0279 73.7409 75.4454 80.7476L77.5079 114.366L216.314 137.982Z" fill="#DABFF5" stroke="#45413C" stroke-width="7" stroke-linecap="round" stroke-linejoin="round"/>
<path d="M216.312 137.981C216.312 137.981 158.769 161.597 83.2812 123.338C81.3707 122.443 79.7807 120.983 78.7257 119.156C77.6707 117.329 77.2014 115.222 77.3813 113.12C77.5612 111.018 78.3814 109.022 79.7315 107.4C81.0815 105.779 82.8964 104.611 84.9312 104.053C107.85 97.2862 132.177 96.868 155.315 102.843C178.453 108.819 199.536 120.963 216.312 137.981Z" fill="#BF8DF2" stroke="#45413C" stroke-width="7" stroke-linecap="round" stroke-linejoin="round"/>
<path d="M278.703 137.982L263.234 112.201C263.234 112.201 327.069 28.8757 397.297 49.1913C403.962 51.221 409.747 55.4412 413.715 61.1683C417.682 66.8954 419.601 73.7942 419.159 80.7476L416.994 114.366L278.703 137.982Z" fill="#DABFF5" stroke="#45413C" stroke-width="7" stroke-linecap="round" stroke-linejoin="round"/>
<path d="M278.703 137.981C278.703 137.981 335.731 161.597 411.219 123.337C413.129 122.442 414.719 120.983 415.774 119.156C416.829 117.329 417.299 115.222 417.119 113.12C416.939 111.018 416.118 109.021 414.768 107.4C413.418 105.779 411.604 104.611 409.569 104.053C386.723 97.3861 362.5 97.0194 339.463 102.992C316.426 108.965 295.432 121.054 278.703 137.981Z" fill="#BF8DF2" stroke="#45413C" stroke-width="7" stroke-linecap="round" stroke-linejoin="round"/>
<path d="M271.794 128.906C271.794 128.906 346.869 152.006 363.163 207.281L326.141 200.887L314.591 238.116C314.591 238.116 279.631 153.966 247.25 141.9L271.794 128.906Z" fill="#BF8DF2" stroke="#45413C" stroke-width="7" stroke-linecap="round" stroke-linejoin="round"/>
<path d="M222.705 128.906C222.705 128.906 147.63 152.006 131.336 207.281L168.358 200.887L179.908 238.116C179.908 238.116 214.867 153.656 247.248 141.591L222.705 128.906Z" fill="#BF8DF2" stroke="#45413C" stroke-width="7" stroke-linecap="round" stroke-linejoin="round"/>
<path d="M200.844 116.119C200.844 125.692 205.733 134.872 214.436 141.641C223.139 148.41 234.942 152.213 247.25 152.213C259.558 152.213 271.361 148.41 280.064 141.641C288.767 134.872 293.656 125.692 293.656 116.119C293.656 106.546 288.767 97.3659 280.064 90.597C271.361 83.8281 259.558 80.0254 247.25 80.0254C234.942 80.0254 223.139 83.8281 214.436 90.597C205.733 97.3659 200.844 106.546 200.844 116.119Z" fill="#BF8DF2"/>
<path d="M247.25 100.65C256.347 100.093 265.405 102.245 273.279 106.833C281.154 111.422 287.491 118.242 291.491 126.432C292.83 123.153 293.564 119.659 293.656 116.119C293.656 96.1129 273.031 80.0254 247.25 80.0254C221.469 80.0254 200.844 96.1129 200.844 116.119C200.936 119.659 201.67 123.153 203.009 126.432C207.009 118.242 213.346 111.422 221.221 106.833C229.095 102.245 238.153 100.093 247.25 100.65Z" fill="#DABFF5"/>
<path d="M200.844 116.119C200.844 125.692 205.733 134.872 214.436 141.641C223.139 148.41 234.942 152.213 247.25 152.213C259.558 152.213 271.361 148.41 280.064 141.641C288.767 134.872 293.656 125.692 293.656 116.119C293.656 106.546 288.767 97.3659 280.064 90.597C271.361 83.8281 259.558 80.0254 247.25 80.0254C234.942 80.0254 223.139 83.8281 214.436 90.597C205.733 97.3659 200.844 106.546 200.844 116.119V116.119Z" stroke="#45413C" stroke-width="7" stroke-linecap="round" stroke-linejoin="round"/>
</svg>
