<svg width="496" height="496" viewBox="0 0 496 496" fill="none" xmlns="http://www.w3.org/2000/svg">
<rect width="496" height="496" transform="matrix(-1 0 0 1 496 0)" fill="white"/>
<path d="M236 328.5C252.833 328.5 268.25 324.5 282.25 316.5C296.083 308.5 307.083 297.667 315.25 284C323.25 270.167 327.25 255 327.25 238.5C327.25 222 323.25 206.917 315.25 193.25C307.083 179.417 296.083 168.5 282.25 160.5C268.25 152.5 252.833 148.5 236 148.5C220.167 148.5 206.083 151.917 193.75 158.75C181.417 165.583 171.75 173.667 164.75 183L180.75 195.75C186.75 188.417 194.333 182.167 203.5 177C212.5 171.833 223.333 169.25 236 169.25C248.667 169.25 260.25 172.333 270.75 178.5C281.25 184.667 289.583 193.083 295.75 203.75C301.75 214.25 304.75 225.833 304.75 238.5C304.75 251.167 301.75 262.833 295.75 273.5C289.583 284 281.25 292.333 270.75 298.5C260.25 304.667 248.667 307.75 236 307.75C223.167 307.75 212.083 305.083 202.75 299.75C193.417 294.417 185.667 287.917 179.5 280.25L163.5 293.25C170.833 302.75 180.75 311 193.25 318C205.75 325 220 328.5 236 328.5Z" fill="black"/>
</svg>
