<svg width="496" height="496" viewBox="0 0 496 496" fill="none" xmlns="http://www.w3.org/2000/svg">
<rect width="496" height="496" transform="matrix(-1 0 0 1 496 0)" fill="white"/>
<path d="M246.25 328.5C233.083 328.5 221.167 325.833 210.5 320.5C200 315 192.333 308.917 187.5 302.25L203 286.75C206.5 292.083 212.167 296.917 220 301.25C227.833 305.583 236.583 307.75 246.25 307.75C258.25 307.75 267.833 304.333 275 297.5C282.167 290.5 285.75 281.5 285.75 270.5C285.75 259.667 282.167 250.833 275 244C268 237 258.667 233.5 247 233.5C239.167 233.5 232.083 235.5 225.75 239.5C219.417 243.333 214.833 247.583 212 252.25L195.5 250.5L201.75 151H297V172.75H221.25L218.25 223C221.25 220.333 225.667 218 231.5 216C237.333 213.833 243.667 212.75 250.5 212.75C261.333 212.75 271.083 215.333 279.75 220.5C288.583 225.5 295.5 232.417 300.5 241.25C305.667 249.917 308.25 259.667 308.25 270.5C308.25 281.5 305.667 291.417 300.5 300.25C295.333 308.917 288 315.833 278.5 321C269.167 326 258.417 328.5 246.25 328.5Z" fill="black"/>
</svg>
