<svg width="496" height="496" viewBox="0 0 496 496" fill="none" xmlns="http://www.w3.org/2000/svg">
<rect width="496" height="496" transform="matrix(-1 0 0 1 496 0)" fill="white"/>
<path d="M272.75 378.5C261.25 378.5 252.083 375.25 245.25 368.75C238.583 362.25 235.25 353.583 235.25 342.75V289.75C235.25 284.417 233.75 280.25 230.75 277.25C227.75 274.25 223.583 272.75 218.25 272.75H214.75V254.25H218.25C223.583 254.25 227.75 252.75 230.75 249.75C233.75 246.75 235.25 242.583 235.25 237.25V184.25C235.25 173.417 238.583 164.75 245.25 158.25C252.083 151.75 261.25 148.5 272.75 148.5H285.75V168H274.5C268.5 168 263.833 169.583 260.5 172.75C257.333 175.917 255.75 180.333 255.75 186V237.25C255.75 244.75 254 250.833 250.5 255.5C247 260 243.083 262.667 238.75 263.5C243.083 264.333 247 267.083 250.5 271.75C254 276.25 255.75 282.25 255.75 289.75V341C255.75 346.667 257.333 351.083 260.5 354.25C263.833 357.417 268.5 359 274.5 359H285.75V378.5H272.75Z" fill="black"/>
</svg>
