<svg width="496" height="496" viewBox="0 0 496 496" fill="none" xmlns="http://www.w3.org/2000/svg">
<rect width="496" height="496" transform="matrix(-1 0 0 1 496 0)" fill="white"/>
<path d="M243.5 328.5C230.167 328.5 218.167 325.833 207.5 320.5C196.833 315 189.083 308.917 184.25 302.25L199.75 286.75C203.417 292.083 209.167 296.917 217 301.25C224.833 305.583 233.667 307.75 243.5 307.75C255.167 307.75 264.417 304.75 271.25 298.75C278.25 292.583 281.75 285 281.75 276C281.75 267.333 278.25 260.083 271.25 254.25C264.417 248.25 255.167 245.25 243.5 245.25H225.5V223.5H243.5C253.333 223.5 261.083 221 266.75 216C272.583 210.833 275.5 204.333 275.5 196.5C275.5 188.5 272.583 182 266.75 177C261.083 171.833 253.333 169.25 243.5 169.25C235.333 169.25 227.667 171.167 220.5 175C213.5 178.667 208.167 182.833 204.5 187.5L189.25 171.75C194.083 165.75 201.417 160.417 211.25 155.75C221.083 150.917 231.833 148.5 243.5 148.5C254.5 148.5 264.083 150.583 272.25 154.75C280.583 158.917 286.917 164.583 291.25 171.75C295.75 178.75 298 186.417 298 194.75C298 204.583 295.167 213 289.5 220C283.833 226.833 277.583 231.333 270.75 233.5C279.25 236 286.917 241.083 293.75 248.75C300.75 256.25 304.25 265.583 304.25 276.75C304.25 286.417 301.75 295.167 296.75 303C291.75 310.833 284.583 317.083 275.25 321.75C266.083 326.25 255.5 328.5 243.5 328.5Z" fill="black"/>
</svg>
