<svg width="502" height="502" viewBox="0 0 502 502" fill="none" xmlns="http://www.w3.org/2000/svg">
<path d="M251.499 486.625C237.093 486.625 222.829 483.782 209.523 478.26C196.218 472.738 184.133 464.644 173.961 454.443C163.789 444.242 155.73 432.133 150.245 418.812C144.761 405.491 141.959 391.218 142 376.812V125.812C141.959 111.407 144.761 97.134 150.245 83.8128C155.73 70.4916 163.789 58.3834 173.961 48.1823C184.133 37.9811 196.218 29.8874 209.523 24.365C222.829 18.8426 237.093 15.9999 251.499 16C265.905 15.9999 280.17 18.8426 293.475 24.365C306.781 29.8874 318.866 37.9811 329.038 48.1823C339.21 58.3834 347.269 70.4916 352.753 83.8128C358.237 97.134 361.039 111.407 360.998 125.812V376.812C361.039 391.218 358.237 405.491 352.753 418.812C347.269 432.133 339.21 444.242 329.038 454.443C318.866 464.644 306.781 472.738 293.475 478.26C280.17 483.782 265.905 486.625 251.499 486.625Z" fill="#DAEDF7"/>
<path d="M251.499 16C237.093 15.9999 222.829 18.8426 209.523 24.365C196.218 29.8874 184.133 37.9811 173.961 48.1823C163.789 58.3834 155.73 70.4916 150.245 83.8128C144.761 97.134 141.959 111.407 142 125.813V153.109C142 124.068 153.537 96.2165 174.072 75.6814C194.607 55.1465 222.458 43.61 251.499 43.61C280.54 43.61 308.392 55.1465 328.926 75.6814C349.462 96.2165 360.998 124.068 360.998 153.109V125.813C361.039 111.407 358.237 97.134 352.753 83.8128C347.269 70.4916 339.21 58.3834 329.038 48.1823C318.866 37.9811 306.781 29.8874 293.475 24.365C280.17 18.8426 265.905 15.9999 251.499 16Z" fill="white"/>
<path d="M251.499 486.625C237.093 486.625 222.829 483.782 209.523 478.26C196.218 472.738 184.133 464.644 173.961 454.443C163.789 444.242 155.73 432.133 150.245 418.812C144.761 405.491 141.959 391.218 142 376.812V125.812C141.959 111.407 144.761 97.134 150.245 83.8128C155.73 70.4915 163.789 58.3834 173.961 48.1823C184.133 37.9811 196.218 29.8874 209.523 24.365C222.829 18.8426 237.093 15.9999 251.499 16V16C265.905 15.9999 280.17 18.8426 293.475 24.365C306.781 29.8874 318.866 37.9811 329.038 48.1823C339.21 58.3834 347.269 70.4915 352.753 83.8128C358.237 97.134 361.039 111.407 360.998 125.812V376.812C361.039 391.218 358.237 405.491 352.753 418.812C347.269 432.133 339.21 444.242 329.038 454.443C318.866 464.644 306.781 472.738 293.475 478.26C280.17 483.782 265.905 486.625 251.499 486.625V486.625Z" stroke="#45413C" stroke-width="7" stroke-linecap="round" stroke-linejoin="round"/>
<path d="M251.497 459.224C240.689 459.224 229.988 457.09 220.007 452.945C210.026 448.799 200.961 442.724 193.334 435.067C185.706 427.41 179.665 418.323 175.558 408.326C171.451 398.329 169.358 387.62 169.399 376.812V125.812C169.358 115.004 171.451 104.295 175.558 94.2982C179.665 84.3014 185.706 75.2139 193.334 67.5571C200.961 59.9004 210.026 53.825 220.007 49.6796C229.988 45.5342 240.689 43.4003 251.497 43.4004C262.305 43.4003 273.006 45.5342 282.987 49.6796C292.968 53.825 302.033 59.9004 309.66 67.5571C317.288 75.2139 323.329 84.3014 327.436 94.2982C331.543 104.295 333.636 115.004 333.595 125.812V376.812C333.636 387.62 331.543 398.329 327.436 408.326C323.329 418.323 317.288 427.41 309.66 435.067C302.033 442.724 292.968 448.799 282.987 452.945C273.006 457.09 262.305 459.224 251.497 459.224Z" fill="#87898C"/>
<path d="M251.497 43.4004C240.689 43.4003 229.988 45.5342 220.007 49.6796C210.026 53.825 200.961 59.9004 193.334 67.5571C185.706 75.2139 179.665 84.3014 175.558 94.2982C171.451 104.295 169.358 115.004 169.399 125.812V154.572C169.399 132.799 178.049 111.917 193.445 96.5205C208.841 81.1241 229.723 72.4746 251.497 72.4746C273.271 72.4746 294.153 81.1241 309.549 96.5205C324.945 111.917 333.595 132.799 333.595 154.572V125.812C333.636 115.004 331.543 104.295 327.436 94.2982C323.329 84.3014 317.288 75.2139 309.66 67.5571C302.033 59.9004 292.968 53.825 282.987 49.6796C273.006 45.5342 262.305 43.4003 251.497 43.4004Z" fill="#656769"/>
<path d="M251.497 459.224C240.689 459.224 229.988 457.09 220.007 452.945C210.026 448.799 200.961 442.724 193.334 435.067C185.706 427.41 179.665 418.323 175.558 408.326C171.451 398.329 169.358 387.62 169.399 376.812V125.812C169.358 115.004 171.451 104.295 175.558 94.2982C179.665 84.3014 185.706 75.2139 193.334 67.5571C200.961 59.9004 210.026 53.825 220.007 49.6796C229.988 45.5342 240.689 43.4003 251.497 43.4004V43.4004C262.305 43.4003 273.006 45.5342 282.987 49.6796C292.968 53.825 302.033 59.9004 309.66 67.5571C317.288 75.2139 323.329 84.3014 327.436 94.2982C331.543 104.295 333.636 115.004 333.595 125.812V376.812C333.636 387.62 331.543 398.329 327.436 408.326C323.329 418.323 317.288 427.41 309.66 435.067C302.033 442.724 292.968 448.799 282.987 452.945C273.006 457.09 262.305 459.224 251.497 459.224V459.224Z" stroke="#45413C" stroke-width="7" stroke-linecap="round" stroke-linejoin="round"/>
<path d="M298.41 256.053C298.281 243.572 293.199 231.654 284.282 222.92C275.365 214.186 263.343 209.352 250.862 209.481C238.381 209.611 226.463 214.693 217.729 223.61C208.995 232.527 204.161 244.548 204.29 257.03C204.42 269.511 209.502 281.429 218.419 290.163C227.336 298.897 239.357 303.731 251.838 303.601C264.32 303.472 276.238 298.39 284.972 289.473C293.706 280.556 298.54 268.534 298.41 256.053Z" fill="#FFE500"/>
<path d="M251.836 303.6C262.547 303.547 272.918 299.832 281.228 293.074C289.538 286.316 295.288 276.92 297.524 266.444C299.76 255.969 298.347 245.044 293.52 235.482C288.693 225.92 280.742 218.296 270.987 213.874L219.491 290.862C228.246 299.09 239.822 303.649 251.836 303.6Z" fill="#FFF48C"/>
<path d="M299.656 376.319C299.527 363.838 294.445 351.919 285.528 343.185C276.611 334.452 264.589 329.618 252.108 329.747C239.627 329.877 227.709 334.959 218.975 343.876C210.241 352.793 205.407 364.814 205.536 377.295C205.666 389.776 210.748 401.695 219.665 410.429C228.582 419.163 240.603 423.996 253.085 423.867C265.566 423.738 277.484 418.655 286.218 409.738C294.952 400.821 299.786 388.8 299.656 376.319Z" fill="#6DD627"/>
<path d="M253.082 423.866C263.793 423.812 274.164 420.098 282.474 413.34C290.785 406.582 296.534 397.185 298.77 386.71C301.006 376.235 299.593 365.31 294.766 355.748C289.939 346.186 281.989 338.561 272.233 334.139L220.737 411.128C229.492 419.355 241.068 423.914 253.082 423.866Z" fill="#9CEB60"/>
<path d="M297.16 135.79C297.031 123.309 291.949 111.39 283.032 102.656C274.115 93.9223 262.093 89.0883 249.612 89.2178C237.131 89.3473 225.213 94.4295 216.479 103.347C207.745 112.264 202.911 124.285 203.04 136.766C203.17 149.247 208.252 161.165 217.169 169.899C226.086 178.633 238.107 183.467 250.588 183.338C263.07 183.208 274.988 178.126 283.722 169.209C292.456 160.292 297.29 148.271 297.16 135.79Z" fill="#FF6242"/>
<path d="M250.586 183.337C261.297 183.283 271.668 179.569 279.978 172.811C288.288 166.052 294.038 156.656 296.274 146.181C298.51 135.705 297.097 124.781 292.27 115.218C287.443 105.656 279.492 98.0319 269.737 93.6098L218.241 170.599C226.996 178.826 238.572 183.385 250.586 183.337Z" fill="#FF866E"/>
<path d="M204.438 256.541C204.438 269.023 209.396 280.993 218.222 289.819C227.048 298.645 239.018 303.604 251.5 303.604C263.982 303.604 275.952 298.645 284.778 289.819C293.604 280.993 298.562 269.023 298.562 256.541C298.562 244.059 293.604 232.089 284.778 223.263C275.952 214.437 263.982 209.479 251.5 209.479C239.018 209.479 227.048 214.437 218.222 223.263C209.396 232.089 204.438 244.059 204.438 256.541V256.541Z" stroke="#45413C" stroke-width="7" stroke-linecap="round" stroke-linejoin="round"/>
<path d="M204.438 136.271C204.438 148.753 209.396 160.724 218.222 169.55C227.048 178.376 239.018 183.334 251.5 183.334C263.982 183.334 275.952 178.376 284.778 169.55C293.604 160.724 298.562 148.753 298.562 136.271C298.562 123.79 293.604 111.819 284.778 102.993C275.952 94.1673 263.982 89.209 251.5 89.209C239.018 89.209 227.048 94.1673 218.222 102.993C209.396 111.819 204.438 123.79 204.438 136.271Z" stroke="#45413C" stroke-width="7" stroke-linecap="round" stroke-linejoin="round"/>
<path d="M204.438 376.812C204.438 389.294 209.396 401.265 218.222 410.091C227.048 418.917 239.018 423.875 251.5 423.875C263.982 423.875 275.952 418.917 284.778 410.091C293.604 401.265 298.562 389.294 298.562 376.812C298.562 364.331 293.604 352.36 284.778 343.534C275.952 334.708 263.982 329.75 251.5 329.75C239.018 329.75 227.048 334.708 218.222 343.534C209.396 352.36 204.438 364.331 204.438 376.812Z" stroke="#45413C" stroke-width="7" stroke-linecap="round" stroke-linejoin="round"/>
<path d="M303.79 373.674C303.79 402.539 295.319 347.529 251.499 347.529C207.678 347.529 199.207 402.539 199.207 373.674C199.207 359.806 204.716 346.505 214.523 336.699C224.329 326.892 237.63 321.383 251.499 321.383C265.367 321.383 278.668 326.892 288.474 336.699C298.281 346.505 303.79 359.806 303.79 373.674Z" fill="#BDBEC0" stroke="#45413C" stroke-width="7" stroke-linecap="round" stroke-linejoin="round"/>
<path d="M303.79 253.405C303.79 282.27 295.319 227.259 251.499 227.259C207.678 227.259 199.207 282.688 199.207 253.405C199.207 239.536 204.716 226.236 214.523 216.429C224.329 206.623 237.63 201.113 251.499 201.113C265.367 201.113 278.668 206.623 288.474 216.429C298.281 226.236 303.79 239.536 303.79 253.405Z" fill="#BDBEC0" stroke="#45413C" stroke-width="7" stroke-linecap="round" stroke-linejoin="round"/>
<path d="M303.79 133.133C303.79 161.998 295.319 106.988 251.499 106.988C207.678 106.988 199.207 161.998 199.207 133.133C199.207 119.265 204.716 105.964 214.523 96.1577C224.329 86.3511 237.63 80.8418 251.499 80.8418C265.367 80.8418 278.668 86.3511 288.474 96.1577C298.281 105.964 303.79 119.265 303.79 133.133Z" fill="#BDBEC0" stroke="#45413C" stroke-width="7" stroke-linecap="round" stroke-linejoin="round"/>
</svg>
