<svg width="495" height="495" viewBox="0 0 495 495" fill="none" xmlns="http://www.w3.org/2000/svg">
<path d="M233.887 276.168L51.5625 212.334V385.481C51.571 387.613 52.2399 389.689 53.4773 391.425C54.7146 393.161 56.4595 394.471 58.4719 395.175L233.784 457.05C242.612 460.044 252.181 460.044 261.009 457.05L436.322 395.175C438.334 394.471 440.079 393.161 441.316 391.425C442.554 389.689 443.223 387.613 443.231 385.481V212.334L261.113 276.168C252.299 279.249 242.701 279.249 233.887 276.168Z" fill="#FF866E"/>
<path d="M261.113 276.168C252.299 279.249 242.701 279.249 233.887 276.168L51.5625 212.334V263.896L233.887 327.731C242.701 330.812 252.299 330.812 261.113 327.731L443.438 263.896V212.334L261.113 276.168Z" fill="#FF6242"/>
<path d="M233.888 276.168L51.5625 212.334V385.481C51.571 387.613 52.2399 389.689 53.4773 391.425C54.7146 393.161 56.4595 394.471 58.4719 395.175L233.784 457.05C242.612 460.044 252.181 460.044 261.009 457.05L436.322 395.175C438.334 394.471 440.079 393.161 441.316 391.425C442.554 389.689 443.223 387.613 443.231 385.481V212.334L261.112 276.168C252.299 279.249 242.701 279.249 233.888 276.168Z" stroke="#45413C" stroke-width="7" stroke-linecap="round" stroke-linejoin="round"/>
<path d="M247.5 440.756V301.537" stroke="#E04122" stroke-width="7" stroke-linecap="round" stroke-linejoin="round"/>
<path d="M233.887 203.981L41.25 136.537V201.403C41.2585 203.535 41.9274 205.611 43.1648 207.347C44.4021 209.083 46.147 210.393 48.1594 211.096L233.784 276.168C242.598 279.249 252.196 279.249 261.009 276.168L446.634 211.096C448.647 210.393 450.392 209.083 451.629 207.347C452.866 205.611 453.535 203.535 453.544 201.403V136.537L261.113 203.981C252.299 207.062 242.701 207.062 233.887 203.981Z" fill="#FF866E"/>
<path d="M261.112 203.981C252.299 207.062 242.701 207.062 233.887 203.981L41.25 136.537V167.475L233.887 234.918C242.701 237.999 252.299 237.999 261.112 234.918L453.75 167.475V136.537L261.112 203.981Z" fill="#FFA694"/>
<path d="M233.888 203.981L41.25 136.537V201.403C41.2585 203.535 41.9274 205.611 43.1648 207.347C44.4021 209.083 46.147 210.393 48.1594 211.096L233.784 276.168C242.598 279.249 252.196 279.249 261.009 276.168L446.634 211.096C448.647 210.393 450.392 209.083 451.629 207.347C452.866 205.611 453.535 203.535 453.544 201.403V136.537L261.112 203.981C252.299 207.062 242.701 207.062 233.888 203.981Z" stroke="#45413C" stroke-width="7" stroke-linecap="round" stroke-linejoin="round"/>
<path d="M41.25 136.536L233.887 69.092C242.701 66.011 252.299 66.011 261.112 69.092L453.75 136.536L261.112 203.98C252.299 207.061 242.701 207.061 233.887 203.98L41.25 136.536Z" fill="#FF866E" stroke="#45413C" stroke-width="7" stroke-linecap="round" stroke-linejoin="round"/>
<path d="M110.031 160.668L156.953 177.065" stroke="#45413C" stroke-width="7" stroke-linecap="round" stroke-linejoin="round"/>
<path d="M92.8125 226.771V407.24L185.625 439.725V259.256L92.8125 226.771Z" fill="#EDDBFF"/>
<path d="M92.8125 226.771V278.334L185.625 310.818V259.256L92.8125 226.771Z" fill="#DABFF5"/>
<path d="M92.8125 226.771V407.24L185.625 439.725V259.256L92.8125 226.771Z" stroke="#45413C" stroke-width="7" stroke-linecap="round" stroke-linejoin="round"/>
<path d="M384.969 160.668L338.047 177.065" stroke="#45413C" stroke-width="7" stroke-linecap="round" stroke-linejoin="round"/>
<path d="M402.188 226.771V407.24L309.375 439.725V259.256L402.188 226.771Z" fill="#EDDBFF"/>
<path d="M402.188 226.771V278.334L309.375 310.818V259.256L402.188 226.771Z" fill="#DABFF5"/>
<path d="M402.188 226.771V407.24L309.375 439.725V259.256L402.188 226.771Z" stroke="#45413C" stroke-width="7" stroke-linecap="round" stroke-linejoin="round"/>
<path d="M216.564 147.365L232.033 121.583C232.033 121.583 168.199 38.2585 97.9704 58.5741C91.2285 60.527 85.351 64.7145 81.3032 70.4489C77.2554 76.1833 75.2779 83.1237 75.6954 90.1304L77.7579 123.749L216.564 147.365Z" fill="#DABFF5" stroke="#45413C" stroke-width="7" stroke-linecap="round" stroke-linejoin="round"/>
<path d="M216.562 147.364C216.562 147.364 159.019 170.98 83.5312 132.72C81.6207 131.825 80.0307 130.366 78.9757 128.539C77.9207 126.712 77.4514 124.605 77.6313 122.503C77.8112 120.401 78.6314 118.404 79.9815 116.783C81.3315 115.162 83.1464 113.994 85.1812 113.436C108.1 106.669 132.427 106.251 155.565 112.226C178.703 118.201 199.786 130.346 216.562 147.364Z" fill="#BF8DF2" stroke="#45413C" stroke-width="7" stroke-linecap="round" stroke-linejoin="round"/>
<path d="M278.953 147.365L263.484 121.583C263.484 121.583 327.319 38.2585 397.547 58.5741C404.212 60.6039 409.997 64.824 413.965 70.5511C417.932 76.2783 419.851 83.177 419.409 90.1304L417.244 123.749L278.953 147.365Z" fill="#DABFF5" stroke="#45413C" stroke-width="7" stroke-linecap="round" stroke-linejoin="round"/>
<path d="M278.953 147.364C278.953 147.364 335.981 170.98 411.469 132.72C413.379 131.825 414.969 130.366 416.024 128.539C417.079 126.712 417.549 124.605 417.369 122.503C417.189 120.401 416.368 118.404 415.018 116.783C413.668 115.162 411.854 113.993 409.819 113.436C386.973 106.769 362.75 106.402 339.713 112.375C316.676 118.347 295.682 130.437 278.953 147.364Z" fill="#BF8DF2" stroke="#45413C" stroke-width="7" stroke-linecap="round" stroke-linejoin="round"/>
<path d="M272.044 138.289C272.044 138.289 347.119 161.389 363.413 216.664L326.391 210.27L314.841 247.498C314.841 247.498 279.881 163.348 247.5 151.283L272.044 138.289Z" fill="#BF8DF2" stroke="#45413C" stroke-width="7" stroke-linecap="round" stroke-linejoin="round"/>
<path d="M222.955 138.289C222.955 138.289 147.88 161.389 131.586 216.664L168.608 210.27L180.158 247.498C180.158 247.498 215.117 163.039 247.498 150.973L222.955 138.289Z" fill="#BF8DF2" stroke="#45413C" stroke-width="7" stroke-linecap="round" stroke-linejoin="round"/>
<path d="M201.094 125.502C201.094 135.075 205.983 144.255 214.686 151.024C223.389 157.793 235.192 161.596 247.5 161.596C259.808 161.596 271.611 157.793 280.314 151.024C289.017 144.255 293.906 135.075 293.906 125.502C293.906 115.929 289.017 106.749 280.314 99.9798C271.611 93.2109 259.808 89.4082 247.5 89.4082C235.192 89.4082 223.389 93.2109 214.686 99.9798C205.983 106.749 201.094 115.929 201.094 125.502Z" fill="#BF8DF2"/>
<path d="M247.5 110.033C256.597 109.476 265.655 111.627 273.529 116.216C281.404 120.805 287.741 127.625 291.741 135.814C293.08 132.536 293.814 129.042 293.906 125.502C293.906 105.496 273.281 89.4082 247.5 89.4082C221.719 89.4082 201.094 105.496 201.094 125.502C201.186 129.042 201.92 132.536 203.259 135.814C207.259 127.625 213.596 120.805 221.471 116.216C229.345 111.627 238.403 109.476 247.5 110.033Z" fill="#DABFF5"/>
<path d="M201.094 125.502C201.094 135.075 205.983 144.255 214.686 151.024C223.389 157.793 235.192 161.596 247.5 161.596C259.808 161.596 271.611 157.793 280.314 151.024C289.017 144.255 293.906 135.075 293.906 125.502C293.906 115.929 289.017 106.749 280.314 99.9798C271.611 93.2109 259.808 89.4082 247.5 89.4082C235.192 89.4082 223.389 93.2109 214.686 99.9798C205.983 106.749 201.094 115.929 201.094 125.502V125.502Z" stroke="#45413C" stroke-width="7" stroke-linecap="round" stroke-linejoin="round"/>
</svg>
