<svg width="496" height="496" viewBox="0 0 496 496" fill="none" xmlns="http://www.w3.org/2000/svg">
<path d="M15.5 273.09C15.5 293.892 19.5974 314.491 27.5582 333.711C35.5191 352.93 47.1875 370.393 61.8972 385.103C76.6069 399.812 94.0699 411.481 113.289 419.441C132.508 427.402 153.107 431.5 173.91 431.5C194.713 431.5 215.312 427.402 234.531 419.441C253.75 411.481 271.213 399.812 285.923 385.103C300.633 370.393 312.301 352.93 320.262 333.711C328.223 314.491 332.32 293.892 332.32 273.09C332.32 252.287 328.223 231.688 320.262 212.469C312.301 193.25 300.633 175.787 285.923 161.077C271.213 146.367 253.75 134.699 234.531 126.738C215.312 118.777 194.713 114.68 173.91 114.68C153.107 114.68 132.508 118.777 113.289 126.738C94.0699 134.699 76.6069 146.367 61.8972 161.077C47.1875 175.787 35.5191 193.25 27.5582 212.469C19.5974 231.688 15.5 252.287 15.5 273.09Z" fill="#FFE500"/>
<path d="M173.91 114.68C142.58 114.68 111.953 123.97 85.9022 141.377C59.8518 158.783 39.548 183.523 27.5583 212.469C15.5686 241.414 12.4316 273.265 18.5439 303.994C24.6562 334.722 39.7432 362.948 61.8973 385.103C84.0513 407.257 112.277 422.344 143.006 428.456C173.734 434.568 205.585 431.431 234.531 419.441C263.477 407.452 288.217 387.148 305.623 361.098C323.03 335.047 332.32 304.42 332.32 273.09C332.32 231.077 315.631 190.785 285.923 161.077C256.215 131.369 215.923 114.68 173.91 114.68ZM173.91 407.733C145.298 407.733 117.328 399.249 93.5376 383.352C69.7473 367.456 51.205 344.862 40.2555 318.428C29.306 291.994 26.4411 262.906 32.0231 234.843C37.6051 206.781 51.3833 181.004 71.6153 160.772C91.8473 140.54 117.624 126.761 145.687 121.179C173.75 115.597 202.837 118.462 229.272 129.412C255.706 140.361 278.3 158.904 294.196 182.694C310.092 206.484 318.577 234.454 318.577 263.066C318.577 301.434 303.335 338.231 276.205 365.361C249.075 392.491 212.278 407.733 173.91 407.733Z" fill="#EBCB00"/>
<path d="M126.375 146.403C126.375 149.555 131.383 152.577 140.297 154.806C149.211 157.034 161.302 158.286 173.908 158.286C186.515 158.286 198.605 157.034 207.519 154.806C216.434 152.577 221.442 149.555 221.442 146.403C221.442 143.251 216.434 140.229 207.519 138C198.605 135.772 186.515 134.52 173.908 134.52C161.302 134.52 149.211 135.772 140.297 138C131.383 140.229 126.375 143.251 126.375 146.403Z" fill="#FFF48C"/>
<path d="M15.5 273.09C15.5 293.892 19.5974 314.491 27.5582 333.711C35.5191 352.93 47.1875 370.393 61.8972 385.103C76.6069 399.812 94.0699 411.481 113.289 419.441C132.508 427.402 153.107 431.5 173.91 431.5C194.713 431.5 215.312 427.402 234.531 419.441C253.75 411.481 271.213 399.812 285.923 385.103C300.633 370.393 312.301 352.93 320.262 333.711C328.223 314.491 332.32 293.892 332.32 273.09C332.32 252.287 328.223 231.688 320.262 212.469C312.301 193.25 300.633 175.787 285.923 161.077C271.213 146.367 253.75 134.699 234.531 126.738C215.312 118.777 194.713 114.68 173.91 114.68C153.107 114.68 132.508 118.777 113.289 126.738C94.0699 134.699 76.6069 146.367 61.8972 161.077C47.1875 175.787 35.5191 193.25 27.5582 212.469C19.5974 231.688 15.5 252.287 15.5 273.09V273.09Z" stroke="#45413C" stroke-width="7" stroke-linecap="round" stroke-linejoin="round"/>
<path d="M173.912 322.689C176.011 321.496 178.356 320.799 180.766 320.652C183.176 320.506 185.588 320.913 187.816 321.843C190.044 322.773 192.03 324.201 193.62 326.018C195.211 327.834 196.365 329.991 196.992 332.323C197.62 334.654 197.705 337.099 197.242 339.469C196.778 341.838 195.778 344.07 194.318 345.993C192.858 347.916 190.977 349.48 188.819 350.563C186.661 351.646 184.283 352.221 181.869 352.242C185.854 352.564 189.573 354.375 192.284 357.314C194.995 360.253 196.501 364.105 196.501 368.104C196.501 372.103 194.995 375.955 192.284 378.894C189.573 381.833 185.854 383.644 181.869 383.966C179.039 383.958 176.26 383.21 173.809 381.796" stroke="#45413C" stroke-width="7" stroke-linecap="round" stroke-linejoin="round"/>
<path d="M59.1055 312.667C59.1055 319.28 67.8888 324.55 78.8421 324.55C89.7955 324.55 98.6821 319.28 98.6821 312.667C98.6821 306.053 89.7955 300.783 78.8421 300.783C67.8888 300.783 59.1055 305.847 59.1055 312.667Z" fill="#FFAA54"/>
<path d="M288.713 312.667C288.713 319.28 279.827 324.55 268.977 324.55C258.127 324.55 249.137 319.28 249.137 312.667C249.137 306.053 258.333 300.783 268.667 300.783C279 300.783 288.713 305.847 288.713 312.667Z" fill="#FFAA54"/>
<path d="M98.6829 269.164C98.6829 270.737 98.2162 272.276 97.3419 273.584C96.4676 274.893 95.225 275.912 93.7711 276.515C92.3172 277.117 90.7174 277.274 89.1739 276.967C87.6305 276.66 86.2127 275.903 85.1 274.79C83.9872 273.677 83.2294 272.259 82.9224 270.716C82.6154 269.173 82.773 267.573 83.3752 266.119C83.9774 264.665 84.9972 263.422 86.3057 262.548C87.6142 261.674 89.1525 261.207 90.7262 261.207C92.8364 261.207 94.8602 262.045 96.3524 263.537C97.8446 265.03 98.6829 267.053 98.6829 269.164Z" fill="#45413C" stroke="#45413C" stroke-width="7" stroke-linecap="round" stroke-linejoin="round"/>
<path d="M249.137 269.162C249.137 270.736 249.604 272.274 250.478 273.583C251.353 274.891 252.595 275.911 254.049 276.513C255.503 277.116 257.103 277.273 258.646 276.966C260.19 276.659 261.608 275.901 262.72 274.789C263.833 273.676 264.591 272.258 264.898 270.715C265.205 269.171 265.047 267.571 264.445 266.118C263.843 264.664 262.823 263.421 261.515 262.547C260.206 261.672 258.668 261.206 257.094 261.206C256.045 261.192 255.004 261.388 254.033 261.783C253.061 262.178 252.179 262.764 251.437 263.505C250.695 264.247 250.11 265.13 249.715 266.101C249.32 267.073 249.124 268.114 249.137 269.162Z" fill="#45413C" stroke="#45413C" stroke-width="7" stroke-linecap="round" stroke-linejoin="round"/>
<path d="M391.428 192.179C391.448 195.56 390.463 198.871 388.597 201.691C386.732 204.51 384.07 206.712 380.95 208.015C377.831 209.318 374.394 209.664 371.077 209.01C367.76 208.355 364.713 206.729 362.322 204.339C359.931 201.948 358.305 198.9 357.651 195.583C356.996 192.266 357.342 188.83 358.646 185.71C359.949 182.59 362.15 179.929 364.97 178.063C367.79 176.197 371.1 175.212 374.481 175.233C378.967 175.26 383.262 177.054 386.434 180.226C389.607 183.399 391.401 187.693 391.428 192.179Z" stroke="#48CF3E" stroke-width="7" stroke-linecap="round" stroke-linejoin="round"/>
<path d="M476.264 174.716C476.264 178.093 475.261 181.393 473.383 184.199C471.505 187.006 468.836 189.191 465.715 190.478C462.593 191.766 459.16 192.097 455.85 191.431C452.539 190.764 449.502 189.13 447.121 186.735C444.741 184.341 443.125 181.293 442.479 177.979C441.833 174.665 442.185 171.233 443.492 168.12C444.798 165.006 447 162.35 449.817 160.489C452.634 158.628 455.941 157.646 459.317 157.666C463.821 157.694 468.132 159.502 471.307 162.697C474.482 165.891 476.264 170.212 476.264 174.716V174.716Z" stroke="#48CF3E" stroke-width="7" stroke-linecap="round" stroke-linejoin="round"/>
<path d="M391.426 191.663V115.299L476.262 81.3027V174.613" stroke="#48CF3E" stroke-width="7" stroke-linecap="round" stroke-linejoin="round"/>
<path d="M373.136 435.53C373.156 438.849 372.189 442.1 370.358 444.868C368.526 447.637 365.913 449.799 362.85 451.079C359.787 452.358 356.413 452.699 353.156 452.056C349.899 451.413 346.907 449.817 344.559 447.47C342.212 445.122 340.616 442.13 339.973 438.873C339.33 435.616 339.671 432.242 340.95 429.179C342.23 426.116 344.392 423.503 347.16 421.671C349.929 419.839 353.18 418.872 356.499 418.893C360.903 418.92 365.119 420.681 368.233 423.796C371.347 426.91 373.109 431.126 373.136 435.53V435.53Z" stroke="#FF4064" stroke-width="7" stroke-linecap="round" stroke-linejoin="round"/>
<path d="M373.137 435.53V360.406L398.143 377.146" stroke="#FF4064" stroke-width="7" stroke-linecap="round" stroke-linejoin="round"/>
<path d="M280.034 92.567C280.031 94.5881 279.436 96.5642 278.322 98.2505C277.208 99.9369 275.623 101.259 273.765 102.054C271.907 102.849 269.856 103.082 267.867 102.723C265.878 102.365 264.038 101.431 262.574 100.037C261.11 98.6429 260.088 96.8503 259.633 94.8811C259.177 92.9118 259.31 90.8523 260.013 88.9575C260.717 87.0627 261.96 85.4158 263.59 84.2206C265.22 83.0255 267.165 82.3347 269.184 82.2336C270.584 82.1635 271.983 82.379 273.297 82.8668C274.611 83.3546 275.812 84.1047 276.827 85.0713C277.842 86.0379 278.65 87.2009 279.201 88.4895C279.752 89.7781 280.036 91.1654 280.034 92.567Z" stroke="#FFB700" stroke-width="7" stroke-linecap="round" stroke-linejoin="round"/>
<path d="M280.035 92.5667V44L296.258 54.7467" stroke="#FFB700" stroke-width="7" stroke-linecap="round" stroke-linejoin="round"/>
<path d="M401.035 262.757V256.764" stroke="#00AED9" stroke-width="7" stroke-linecap="round" stroke-linejoin="round"/>
<path d="M413.645 267.922L417.778 263.789" stroke="#00AED9" stroke-width="7" stroke-linecap="round" stroke-linejoin="round"/>
<path d="M418.809 280.529H424.802" stroke="#00AED9" stroke-width="7" stroke-linecap="round" stroke-linejoin="round"/>
<path d="M413.645 293.137L417.778 297.373" stroke="#00AED9" stroke-width="7" stroke-linecap="round" stroke-linejoin="round"/>
<path d="M401.035 298.406V304.296" stroke="#00AED9" stroke-width="7" stroke-linecap="round" stroke-linejoin="round"/>
<path d="M388.432 293.137L384.195 297.373" stroke="#00AED9" stroke-width="7" stroke-linecap="round" stroke-linejoin="round"/>
<path d="M383.16 280.529H377.27" stroke="#00AED9" stroke-width="7" stroke-linecap="round" stroke-linejoin="round"/>
<path d="M388.432 267.922L384.195 263.789" stroke="#00AED9" stroke-width="7" stroke-linecap="round" stroke-linejoin="round"/>
</svg>
