<svg width="495" height="495" viewBox="0 0 495 495" fill="none" xmlns="http://www.w3.org/2000/svg">
<path d="M191.679 460.557L33.6918 302.672C32.7175 301.899 31.9629 300.884 31.5034 299.728C31.0438 298.572 30.8953 297.316 31.0727 296.084C31.2501 294.853 31.7471 293.69 32.5143 292.711C33.2815 291.731 34.2919 290.97 35.4449 290.504L45.1387 286.379C47.7916 285.553 50.6326 285.553 53.2856 286.379L131.97 302.569L191.989 362.588L208.386 441.066C208.926 443.829 208.676 446.689 207.664 449.316L203.745 458.907C203.283 460.053 202.526 461.058 201.55 461.817C200.575 462.577 199.416 463.066 198.191 463.233C196.966 463.401 195.718 463.241 194.575 462.771C193.431 462.301 192.432 461.537 191.679 460.557Z" fill="#4ACFFF"/>
<path d="M159.195 355.885L171.054 341.963L131.97 302.569L53.2856 286.378C50.5597 285.785 47.7177 286.037 45.1387 287.1L35.4449 290.916C34.2919 291.383 33.2815 292.144 32.5143 293.123C31.7471 294.102 31.2501 295.265 31.0727 296.497C30.8953 297.728 31.0438 298.984 31.5034 300.14C31.9629 301.296 32.7175 302.311 33.6918 303.085L44.0043 313.397H45.2418C47.8208 312.334 50.6628 312.082 53.3887 312.675L131.97 328.35L159.195 355.885Z" fill="#80DDFF"/>
<path d="M191.68 362.587L186.421 357.328L122.277 391.359L155.277 424.256C160.342 424.282 165.381 423.552 170.23 422.091C181.547 418.474 192.054 412.696 201.168 405.075L191.68 362.587Z" fill="#00B8F0"/>
<path d="M191.679 460.557L33.6918 302.672C32.7175 301.899 31.9629 300.884 31.5034 299.728C31.0438 298.572 30.8953 297.316 31.0727 296.084C31.2501 294.853 31.7471 293.69 32.5143 292.711C33.2815 291.731 34.2919 290.97 35.4449 290.504L45.1387 286.379C47.7916 285.553 50.6326 285.553 53.2856 286.379L131.97 302.569L191.989 362.588L208.386 441.066C208.926 443.829 208.676 446.689 207.664 449.316L203.745 458.907C203.283 460.053 202.526 461.058 201.55 461.817C200.575 462.577 199.416 463.066 198.191 463.233C196.966 463.401 195.718 463.241 194.575 462.771C193.431 462.301 192.432 461.537 191.679 460.557Z" stroke="#45413C" stroke-width="6" stroke-linecap="round" stroke-linejoin="round"/>
<path d="M398.548 418.274L301.611 294.524L199.517 192.327L75.7673 95.3897C73.7742 93.8269 72.2273 91.7674 71.2819 89.4177C70.3364 87.068 70.0258 84.511 70.381 82.0033C70.7363 79.4957 71.745 77.1255 73.3058 75.1309C74.8667 73.1363 76.9248 71.5875 79.2735 70.6397L98.9704 62.8023C104.263 60.6352 110.091 60.1317 115.677 61.3585L276.345 95.6991L398.755 218.315L432.683 378.262C433.745 383.873 433.172 389.672 431.033 394.968L423.092 414.665C422.139 416.977 420.601 419.001 418.629 420.54C416.658 422.079 414.32 423.08 411.846 423.444C409.372 423.808 406.845 423.522 404.514 422.616C402.183 421.71 400.127 420.214 398.548 418.274Z" fill="#4ACFFF"/>
<path d="M389.473 209.035L398.754 218.213L410.407 273.179L330.795 331.857L301.713 294.835L294.082 287.307L389.473 209.035Z" fill="#00B8F0"/>
<path d="M282.634 102.094L263.659 124.885L116.19 93.9473C110.57 92.7121 104.707 93.2157 99.3805 95.391L83.3962 101.785L76.1774 96.1129C74.1843 94.5501 72.6374 92.4905 71.692 90.1409C70.7466 87.7912 70.4359 85.2342 70.7912 82.7265C71.1464 80.2188 72.1551 77.8487 73.716 75.8541C75.2768 73.8595 77.3349 72.3106 79.6837 71.3629L99.3805 63.4223C104.732 61.3492 110.564 60.8483 116.19 61.9785L276.343 95.5973L282.634 102.094Z" fill="#80DDFF"/>
<path d="M398.548 418.274L301.611 294.524L199.517 192.327L75.7673 95.3897C73.7742 93.8269 72.2273 91.7674 71.2819 89.4177C70.3364 87.068 70.0258 84.511 70.381 82.0033C70.7363 79.4957 71.745 77.1255 73.3058 75.1309C74.8667 73.1363 76.9248 71.5875 79.2735 70.6397L98.9704 62.8023C104.263 60.6352 110.091 60.1317 115.677 61.3585L276.345 95.6991L398.755 218.315L432.683 378.262C433.745 383.873 433.172 389.672 431.033 394.968L423.092 414.665C422.139 416.977 420.601 419.001 418.629 420.54C416.658 422.079 414.32 423.08 411.846 423.444C409.372 423.808 406.845 423.522 404.514 422.616C402.183 421.71 400.127 420.214 398.548 418.274Z" stroke="#45413C" stroke-width="6" stroke-linecap="round" stroke-linejoin="round"/>
<path d="M101.032 358.565L288.101 133.546C292.694 128.036 297.921 123.086 303.673 118.8C349.46 79.1996 418.554 51.2527 449.801 82.4996C455.173 87.9941 459.043 94.7765 461.041 102.196C465.785 79.0965 463.413 58.059 449.801 44.4465C418.863 13.509 349.46 41.2496 303.673 80.8496C297.898 85.07 292.668 89.9886 288.101 95.4933L101.032 320.821C94.6916 328.22 90.4485 337.182 88.7437 346.776C87.039 356.369 87.9349 366.244 91.3383 375.375C93.6073 369.269 96.884 363.587 101.032 358.565Z" fill="white"/>
<path d="M413.499 190.678C453.099 144.89 481.149 75.7967 449.799 44.4467C418.449 13.0967 349.459 41.2498 303.671 80.8498C297.897 85.0703 292.666 89.9889 288.099 95.4936L101.031 320.822C92.3215 330.672 87.6093 343.422 87.8192 356.568C88.0291 369.715 93.1459 382.308 102.165 391.875C111.73 400.886 124.312 406.007 137.452 406.236C150.592 406.465 163.345 401.785 173.218 393.112L398.856 206.147C404.332 201.588 409.247 196.395 413.499 190.678Z" fill="#E8F4FA"/>
<path d="M413.499 190.678C453.099 144.89 481.149 75.7967 449.799 44.4467C418.449 13.0967 349.459 41.2498 303.671 80.8498C297.897 85.0703 292.666 89.9889 288.099 95.4936L101.031 320.822C92.3215 330.672 87.6093 343.422 87.8192 356.568C88.0291 369.715 93.1459 382.308 102.165 391.875C111.73 400.886 124.312 406.007 137.452 406.236C150.592 406.465 163.345 401.785 173.218 393.112L398.856 206.147C404.332 201.588 409.247 196.395 413.499 190.678Z" stroke="#45413C" stroke-width="6" stroke-linecap="round" stroke-linejoin="round"/>
<path d="M408.655 85.5944C400.023 77.1862 389.527 70.9357 378.022 67.3516C366.517 63.7675 354.329 62.9513 342.448 64.9694L338.942 95.9069C338.798 97.0248 338.917 98.161 339.291 99.2245C339.665 100.288 340.282 101.249 341.094 102.031C341.906 102.813 342.89 103.394 343.967 103.727C345.044 104.061 346.184 104.137 347.295 103.951C357.608 102.197 374.417 102.301 383.08 110.963C391.742 119.626 391.948 136.847 390.092 146.851C389.906 147.962 389.982 149.102 390.316 150.179C390.649 151.256 391.23 152.24 392.012 153.052C392.794 153.864 393.755 154.481 394.818 154.855C395.882 155.229 397.018 155.348 398.136 155.204L429.074 151.697C431.06 139.85 430.248 127.702 426.702 116.225C423.157 104.747 416.977 94.2577 408.655 85.5944Z" fill="#00B8F0"/>
<path d="M342.448 64.7623L338.942 95.6998C338.798 96.8177 338.917 97.954 339.291 99.0174C339.665 100.081 340.282 101.042 341.094 101.824C341.906 102.606 342.89 103.187 343.967 103.52C345.044 103.853 346.184 103.93 347.295 103.744C353.192 102.775 359.193 102.601 365.136 103.228L407.623 84.1498C398.976 76.1334 388.6 70.2151 377.298 66.8531C365.996 63.4911 354.071 62.7757 342.448 64.7623Z" fill="#4ACFFF"/>
<path d="M408.655 85.5944C400.023 77.1862 389.527 70.9357 378.022 67.3516C366.517 63.7675 354.329 62.9513 342.448 64.9694L338.942 95.9069C338.798 97.0248 338.917 98.161 339.291 99.2245C339.665 100.288 340.282 101.249 341.094 102.031C341.906 102.813 342.89 103.394 343.967 103.727C345.044 104.061 346.184 104.137 347.295 103.951C357.608 102.197 374.417 102.301 383.08 110.963C391.742 119.626 391.948 136.847 390.092 146.851C389.906 147.962 389.982 149.102 390.316 150.179C390.649 151.256 391.23 152.24 392.012 153.052C392.794 153.864 393.755 154.481 394.818 154.855C395.882 155.229 397.018 155.348 398.136 155.204L429.074 151.697C431.06 139.85 430.248 127.702 426.702 116.225C423.157 104.747 416.977 94.2577 408.655 85.5944V85.5944Z" stroke="#45413C" stroke-width="6" stroke-linecap="round" stroke-linejoin="round"/>
<path d="M413.5 190.678C425.322 175.448 431.328 156.502 430.439 137.243C429.551 117.984 421.827 99.6713 408.653 85.5939C394.6 72.4047 376.293 64.677 357.04 63.807C337.787 62.937 318.857 68.9821 303.672 80.8501" stroke="#45413C" stroke-width="6" stroke-linecap="round" stroke-linejoin="round"/>
<path d="M102.372 391.875C101.012 390.524 99.9334 388.917 99.1972 387.147C98.461 385.377 98.082 383.479 98.082 381.563C98.082 379.646 98.461 377.748 99.1972 375.978C99.9334 374.208 101.012 372.601 102.372 371.25L158.575 315.047C159.929 313.693 161.537 312.618 163.306 311.886C165.076 311.153 166.972 310.775 168.887 310.775C170.803 310.775 172.699 311.153 174.468 311.886C176.238 312.618 177.846 313.693 179.2 315.047C180.554 316.401 181.628 318.009 182.361 319.778C183.094 321.548 183.471 323.444 183.471 325.359C183.471 327.275 183.094 329.171 182.361 330.941C181.628 332.71 180.554 334.318 179.2 335.672L122.997 391.875C121.645 393.235 120.039 394.313 118.269 395.05C116.499 395.786 114.601 396.165 112.684 396.165C110.767 396.165 108.869 395.786 107.1 395.05C105.33 394.313 103.723 393.235 102.372 391.875Z" fill="#4ACFFF" stroke="#45413C" stroke-width="6" stroke-linecap="round" stroke-linejoin="round"/>
</svg>
