<svg width="496" height="496" viewBox="0 0 496 496" fill="none" xmlns="http://www.w3.org/2000/svg">
<rect width="496" height="496" transform="matrix(-1 0 0 1 496 0)" fill="white"/>
<path d="M266.5 381.75C259.667 374.417 252.917 364.75 246.25 352.75C239.75 340.75 234.25 327 229.75 311.5C225.417 296 223.25 280 223.25 263.5C223.25 247 225.417 231 229.75 215.5C234.25 200 239.75 186.25 246.25 174.25C252.917 162.25 259.667 152.583 266.5 145.25L282 155.5C276 162.333 270.083 171.333 264.25 182.5C258.417 193.667 253.5 206.333 249.5 220.5C245.667 234.5 243.75 248.833 243.75 263.5C243.75 278.167 245.667 292.583 249.5 306.75C253.5 320.75 258.417 333.333 264.25 344.5C270.083 355.667 276 364.667 282 371.5L266.5 381.75Z" fill="black"/>
</svg>
