<svg width="496" height="496" viewBox="0 0 496 496" fill="none" xmlns="http://www.w3.org/2000/svg">
<rect width="496" height="496" transform="matrix(-1 0 0 1 496 0)" fill="white"/>
<path d="M249.25 212.75C260.25 212.75 270.25 215.333 279.25 220.5C288.25 225.667 295.333 232.667 300.5 241.5C305.833 250.333 308.5 260 308.5 270.5C308.5 281.167 305.833 290.917 300.5 299.75C295.333 308.583 288.083 315.583 278.75 320.75C269.583 325.917 259.25 328.5 247.75 328.5C236.25 328.5 225.833 325.917 216.5 320.75C207.333 315.583 200.083 308.583 194.75 299.75C189.417 290.917 186.75 281.167 186.75 270.5C186.75 263.833 188 257 190.5 250C193.167 243 196.083 237.083 199.25 232.25L251 151H275.5L234 215.25C238.667 213.583 243.75 212.75 249.25 212.75ZM247.75 307.75C254.917 307.75 261.417 306.167 267.25 303C273.083 299.667 277.667 295.167 281 289.5C284.333 283.833 286 277.5 286 270.5C286 263.667 284.333 257.417 281 251.75C277.667 246.083 273.083 241.667 267.25 238.5C261.417 235.167 254.917 233.5 247.75 233.5C240.417 233.5 233.833 235.167 228 238.5C222.167 241.667 217.583 246.083 214.25 251.75C210.917 257.417 209.25 263.667 209.25 270.5C209.25 277.5 210.917 283.833 214.25 289.5C217.583 295.167 222.167 299.667 228 303C233.833 306.167 240.417 307.75 247.75 307.75Z" fill="black"/>
</svg>
