<svg width="496" height="496" viewBox="0 0 496 496" fill="none" xmlns="http://www.w3.org/2000/svg">
<path d="M126.417 13.0962C117.987 13.1278 109.592 14.1685 101.41 16.1962C82.5002 20.5362 57.8035 27.7695 35.3802 23.4295C34.4847 29.2021 34.7838 35.0971 36.2591 40.7494C37.7344 46.4017 40.3544 51.6909 43.9568 56.2895C32.2099 73.0642 25.9304 93.0575 25.9768 113.536V166.029H227.167V113.536C227.167 100.32 224.559 87.2339 219.492 75.0277C214.425 62.8215 206.999 51.7353 197.639 42.4045C188.28 33.0738 177.171 25.6819 164.949 20.6526C152.727 15.6232 139.633 13.0554 126.417 13.0962Z" fill="#A86C4D"/>
<path d="M126.417 13.0962C117.988 13.1278 109.593 14.1685 101.411 16.1962C82.5007 20.5362 57.8041 27.7695 35.3807 23.4295C33.8677 34.2599 36.327 45.2719 42.3041 54.4295C62.3109 54.7985 82.2529 52.0443 101.411 46.2662C109.593 44.2385 117.988 43.1978 126.417 43.1662C139.616 43.1254 152.693 45.6864 164.902 50.7029C177.11 55.7193 188.21 63.0927 197.567 72.4016C206.923 81.7104 214.354 92.7723 219.433 104.955C224.512 117.137 227.14 130.201 227.167 143.4V113.536C227.167 100.32 224.559 87.2339 219.492 75.0277C214.425 62.8215 206.999 51.7353 197.64 42.4046C188.28 33.0738 177.171 25.6819 164.949 20.6526C152.728 15.6232 139.633 13.0554 126.417 13.0962Z" fill="#DE926A"/>
<path d="M126.417 13.0962C117.987 13.1278 109.592 14.1685 101.41 16.1962C82.5002 20.5362 57.8035 27.7695 35.3802 23.4295C34.4847 29.2021 34.7838 35.0971 36.2591 40.7494C37.7344 46.4017 40.3544 51.6909 43.9568 56.2895C32.2099 73.0642 25.9304 93.0575 25.9768 113.536V166.029H227.167V113.536C227.167 100.32 224.559 87.2339 219.492 75.0277C214.425 62.8215 206.999 51.7353 197.639 42.4045C188.28 33.0738 177.171 25.6819 164.949 20.6526C152.727 15.6232 139.633 13.0554 126.417 13.0962V13.0962Z" stroke="#45413C" stroke-width="7" stroke-linecap="round" stroke-linejoin="round"/>
<path d="M126.417 261.613C142.361 261.613 158.15 264.754 172.881 270.856C187.612 276.957 200.997 285.901 212.271 297.175C223.546 308.45 232.489 321.835 238.591 336.566C244.693 351.297 247.833 367.085 247.833 383.03V489.05H5V383.03C5 367.085 8.14053 351.297 14.2423 336.566C20.3441 321.835 29.2875 308.45 40.5621 297.175C63.3322 274.405 94.215 261.613 126.417 261.613Z" fill="#00B8F0"/>
<path d="M126.417 261.613C94.215 261.613 63.3322 274.405 40.5621 297.175C17.7921 319.945 5 350.828 5 383.03V420.127C5 387.925 17.7921 357.042 40.5621 334.272C63.3322 311.502 94.215 298.71 126.417 298.71C158.618 298.71 189.501 311.502 212.271 334.272C235.041 357.042 247.833 387.925 247.833 420.127V383.03C247.833 367.085 244.693 351.297 238.591 336.566C232.489 321.835 223.546 308.45 212.271 297.175C200.997 285.901 187.612 276.957 172.881 270.856C158.15 264.754 142.361 261.613 126.417 261.613Z" fill="#009FD9"/>
<path d="M126.417 261.613C142.361 261.613 158.15 264.754 172.881 270.856C187.612 276.957 200.997 285.901 212.271 297.175C223.546 308.45 232.489 321.835 238.591 336.566C244.693 351.297 247.833 367.085 247.833 383.03V489.05H5V383.03C5 367.085 8.14053 351.297 14.2423 336.566C20.3441 321.835 29.2875 308.45 40.5621 297.175C63.3322 274.405 94.215 261.613 126.417 261.613V261.613Z" stroke="#45413C" stroke-width="7" stroke-linecap="round" stroke-linejoin="round"/>
<path d="M100.375 220.176H152.352V301.292H100.375V220.176Z" fill="#FFCEBF"/>
<path d="M100.375 220.176H152.352V280.316H100.375V220.176Z" fill="#FFB59E"/>
<path d="M100.375 220.176H152.352V301.292H100.375V220.176Z" stroke="#45413C" stroke-width="7" stroke-linecap="round" stroke-linejoin="round"/>
<path d="M237.5 156.936C236.627 152.507 234.222 148.526 230.708 145.692C227.194 142.857 222.794 141.351 218.28 141.436C213.95 141.436 209.797 139.716 206.735 136.654C203.673 133.592 201.953 129.44 201.953 125.109V99.6895C202 95.4017 200.612 91.2214 198.009 87.8135C195.406 84.4057 191.739 81.9661 187.59 80.8828C168.146 88.6424 147.347 92.4368 126.416 92.0428C105.485 92.4368 84.6867 88.6424 65.243 80.8828C61.2095 82.081 57.6805 84.5697 55.1979 87.967C52.7152 91.3644 51.416 95.4825 51.4997 99.6895V125.109C51.4997 127.254 51.0774 129.377 50.2569 131.357C49.4364 133.338 48.2338 135.138 46.7177 136.654C45.2017 138.17 43.4018 139.373 41.421 140.193C39.4401 141.014 37.3171 141.436 35.173 141.436C30.6591 141.351 26.2592 142.857 22.7449 145.692C19.2305 148.526 16.8261 152.507 15.953 156.936C15.5012 159.594 15.6358 162.319 16.3475 164.919C17.0592 167.519 18.3307 169.933 20.0731 171.99C21.8155 174.047 23.9865 175.699 26.4342 176.829C28.8819 177.959 31.547 178.541 34.243 178.533H35.3797C39.2154 200.025 50.4896 219.482 67.2279 233.497C83.9663 247.513 105.102 255.193 126.933 255.193C148.764 255.193 169.9 247.513 186.638 233.497C203.377 219.482 214.651 200.025 218.486 178.533H219.623C222.284 178.481 224.903 177.856 227.3 176.7C229.697 175.544 231.817 173.884 233.514 171.834C235.211 169.784 236.446 167.391 237.133 164.82C237.821 162.249 237.946 159.56 237.5 156.936Z" fill="#FFCEBF" stroke="#45413C" stroke-width="7" stroke-linecap="round" stroke-linejoin="round"/>
<path d="M70.8242 156.213C70.8514 158.305 71.7017 160.302 73.1909 161.772C74.6801 163.242 76.6884 164.066 78.7809 164.066C80.8637 164.066 82.8613 163.239 84.334 161.766C85.8068 160.293 86.6342 158.296 86.6342 156.213C86.6342 154.13 85.8068 152.132 84.334 150.66C82.8613 149.187 80.8637 148.359 78.7809 148.359C76.6884 148.359 74.6801 149.183 73.1909 150.653C71.7017 152.123 70.8514 154.12 70.8242 156.213Z" fill="#45413C" stroke="#45413C" stroke-width="7" stroke-linecap="round" stroke-linejoin="round"/>
<path d="M182.009 156.213C181.982 158.305 181.132 160.302 179.643 161.772C178.153 163.242 176.145 164.066 174.053 164.066C171.97 164.066 169.972 163.239 168.499 161.766C167.027 160.293 166.199 158.296 166.199 156.213C166.199 154.13 167.027 152.132 168.499 150.66C169.972 149.187 171.97 148.359 174.053 148.359C176.145 148.359 178.153 149.183 179.643 150.653C181.132 152.123 181.982 154.12 182.009 156.213Z" fill="#45413C" stroke="#45413C" stroke-width="7" stroke-linecap="round" stroke-linejoin="round"/>
<path d="M97.3781 204.16C96.7255 204.181 96.0846 204.339 95.497 204.624C94.9095 204.909 94.3886 205.314 93.9681 205.813C93.5418 206.304 93.2284 206.882 93.0499 207.507C92.8713 208.132 92.832 208.788 92.9348 209.43C94.3229 217.301 98.4398 224.432 104.563 229.569C110.685 234.706 118.422 237.522 126.415 237.522C134.407 237.522 142.144 234.706 148.267 229.569C154.39 224.432 158.507 217.301 159.895 209.43C159.997 208.788 159.958 208.132 159.78 207.507C159.601 206.882 159.288 206.304 158.861 205.813C158.441 205.314 157.92 204.909 157.332 204.624C156.745 204.339 156.104 204.181 155.451 204.16H97.3781Z" fill="#FF6242"/>
<path d="M126.415 237.744C135.286 237.754 143.811 234.306 150.182 228.134C143.804 221.972 135.283 218.527 126.415 218.527C117.547 218.527 109.026 221.972 102.648 228.134C109.019 234.306 117.544 237.754 126.415 237.744Z" fill="#FFA694"/>
<path d="M97.3781 204.16C96.7255 204.181 96.0846 204.339 95.497 204.624C94.9095 204.909 94.3886 205.314 93.9681 205.813C93.5418 206.304 93.2284 206.882 93.0499 207.507C92.8713 208.132 92.832 208.788 92.9348 209.43C94.3229 217.301 98.4398 224.432 104.563 229.569C110.685 234.706 118.422 237.522 126.415 237.522C134.407 237.522 142.144 234.706 148.267 229.569C154.39 224.432 158.507 217.301 159.895 209.43C159.997 208.788 159.958 208.132 159.78 207.507C159.601 206.882 159.288 206.304 158.861 205.813C158.441 205.314 157.92 204.909 157.332 204.624C156.745 204.339 156.104 204.181 155.451 204.16H97.3781Z" stroke="#45413C" stroke-width="7" stroke-linecap="round" stroke-linejoin="round"/>
<path d="M55.4258 489.05V377.76" stroke="#45413C" stroke-width="7" stroke-linecap="round" stroke-linejoin="round"/>
<path d="M55.4258 189.796C55.4258 191.413 56.5036 192.964 58.4221 194.107C60.3406 195.25 62.9426 195.893 65.6558 195.893C68.3689 195.893 70.971 195.25 72.8895 194.107C74.808 192.964 75.8858 191.413 75.8858 189.796C75.8858 188.179 74.808 186.628 72.8895 185.485C70.971 184.342 68.3689 183.699 65.6558 183.699C62.9426 183.699 60.3406 184.342 58.4221 185.485C56.5036 186.628 55.4258 188.179 55.4258 189.796Z" fill="#FFB59E"/>
<path d="M176.945 189.796C176.945 191.413 178.023 192.964 179.942 194.107C181.86 195.25 184.462 195.893 187.175 195.893C189.888 195.893 192.491 195.25 194.409 194.107C196.328 192.964 197.405 191.413 197.405 189.796C197.405 188.179 196.328 186.628 194.409 185.485C192.491 184.342 189.888 183.699 187.175 183.699C184.462 183.699 181.86 184.342 179.942 185.485C178.023 186.628 176.945 188.179 176.945 189.796Z" fill="#FFB59E"/>
<path d="M369.248 7C398.737 7 427.017 18.7143 447.869 39.5658C468.721 60.4174 480.435 88.6981 480.435 118.187V262.853C480.421 265.357 479.669 267.8 478.272 269.878C476.874 271.955 474.895 273.573 472.581 274.53C406.253 301.091 332.243 301.091 265.915 274.53C263.684 273.586 261.769 272.025 260.396 270.029C259.023 268.034 258.249 265.687 258.165 263.267V118.6C258.11 103.973 260.943 89.4784 266.5 75.9476C272.056 62.4169 280.229 50.1155 290.548 39.7484C300.867 29.3813 313.13 21.1522 326.635 15.5327C340.14 9.91309 354.621 7.01349 369.248 7Z" fill="#A86C4D"/>
<path d="M369.251 7C339.781 7.02739 311.527 18.7538 290.697 39.6023C269.868 60.4509 258.168 88.716 258.168 118.187V150.943C258.141 136.333 260.993 121.861 266.562 108.354C272.132 94.8475 280.308 82.5706 290.624 72.2254C300.941 61.8802 313.195 53.6696 326.686 48.063C340.177 42.4563 354.642 39.5635 369.251 39.55C383.87 39.55 398.345 42.4327 411.849 48.0333C425.352 53.6339 437.618 61.8423 447.945 72.1889C458.273 82.5354 466.458 94.8169 472.034 108.331C477.609 121.844 480.465 136.325 480.438 150.943V118.187C480.438 88.6981 468.724 60.4174 447.872 39.5658C427.021 18.7143 398.74 7 369.251 7Z" fill="#DE926A"/>
<path d="M369.248 7C398.737 7 427.017 18.7143 447.869 39.5658C468.721 60.4174 480.435 88.6981 480.435 118.187V262.853C480.421 265.357 479.669 267.8 478.272 269.878C476.874 271.955 474.895 273.573 472.581 274.53V274.53C406.253 301.091 332.243 301.091 265.915 274.53V274.53C263.684 273.586 261.769 272.025 260.396 270.029C259.023 268.034 258.249 265.687 258.165 263.267V118.6C258.11 103.973 260.943 89.4784 266.5 75.9476C272.056 62.4169 280.229 50.1155 290.548 39.7484C300.867 29.3813 313.13 21.1522 326.635 15.5327C340.14 9.91309 354.621 7.01349 369.248 7V7Z" stroke="#45413C" stroke-width="7" stroke-linecap="round" stroke-linejoin="round"/>
<path d="M369.249 261.613C385.193 261.613 400.982 264.754 415.713 270.856C430.444 276.957 443.829 285.901 455.103 297.175C466.378 308.45 475.321 321.835 481.423 336.566C487.525 351.297 490.665 367.085 490.665 383.03V489.05H247.832V383.03C247.832 367.085 250.973 351.297 257.074 336.566C263.176 321.835 272.12 308.45 283.394 297.175C306.164 274.405 337.047 261.613 369.249 261.613Z" fill="#FF87AF"/>
<path d="M369.249 261.613C337.047 261.613 306.164 274.405 283.394 297.175C260.624 319.945 247.832 350.828 247.832 383.03V420.127C247.832 387.925 260.624 357.042 283.394 334.272C306.164 311.502 337.047 298.71 369.249 298.71C401.45 298.71 432.333 311.502 455.103 334.272C477.873 357.042 490.665 387.925 490.665 420.127V383.03C490.665 367.085 487.525 351.297 481.423 336.566C475.321 321.835 466.378 308.45 455.103 297.175C443.829 285.901 430.444 276.957 415.713 270.856C400.982 264.754 385.193 261.613 369.249 261.613Z" fill="#FF6196"/>
<path d="M369.249 261.613C385.193 261.613 400.982 264.754 415.713 270.856C430.444 276.957 443.829 285.901 455.103 297.175C466.378 308.45 475.321 321.835 481.423 336.566C487.525 351.297 490.665 367.085 490.665 383.03V489.05H247.832V383.03C247.832 367.085 250.973 351.297 257.074 336.566C263.176 321.835 272.12 308.45 283.394 297.175C306.164 274.405 337.047 261.613 369.249 261.613V261.613Z" stroke="#45413C" stroke-width="7" stroke-linecap="round" stroke-linejoin="round"/>
<path d="M343.211 220.176H395.188V301.292H343.211V220.176Z" fill="#FFCEBF" stroke="#45413C" stroke-width="7" stroke-linecap="round" stroke-linejoin="round"/>
<path d="M461.938 141.437C449.003 137.732 437.067 131.165 427.014 122.221C416.961 113.277 409.05 102.187 403.865 89.7701L397.562 74.5801C372.918 107.777 336.564 130.35 295.882 137.717L276.558 141.127C271.878 141.476 267.503 143.582 264.311 147.022C261.118 150.462 259.344 154.982 259.344 159.675C259.344 164.368 261.118 168.888 264.311 172.328C267.503 175.768 271.878 177.874 276.558 178.223H277.695C281.531 199.715 292.805 219.172 309.543 233.188C326.282 247.203 347.417 254.884 369.248 254.884C391.08 254.884 412.215 247.203 428.953 233.188C445.692 219.172 456.966 199.715 460.802 178.223H461.938C466.619 177.874 470.994 175.768 474.186 172.328C477.379 168.888 479.153 164.368 479.153 159.675C479.153 154.982 477.379 150.462 474.186 147.022C470.994 143.582 466.619 141.476 461.938 141.127V141.437Z" fill="#FFCEBF" stroke="#45413C" stroke-width="7" stroke-linecap="round" stroke-linejoin="round"/>
<path d="M313.656 156.213C313.683 158.305 314.534 160.302 316.023 161.772C317.512 163.242 319.52 164.066 321.613 164.066C323.696 164.066 325.693 163.239 327.166 161.766C328.639 160.293 329.466 158.296 329.466 156.213C329.466 154.13 328.639 152.132 327.166 150.66C325.693 149.187 323.696 148.359 321.613 148.359C319.52 148.359 317.512 149.183 316.023 150.653C314.534 152.123 313.683 154.12 313.656 156.213Z" fill="#45413C" stroke="#45413C" stroke-width="7" stroke-linecap="round" stroke-linejoin="round"/>
<path d="M424.845 156.213C424.818 158.305 423.968 160.302 422.478 161.772C420.989 163.242 418.981 164.066 416.889 164.066C414.806 164.066 412.808 163.239 411.335 161.766C409.863 160.293 409.035 158.296 409.035 156.213C409.035 154.13 409.863 152.132 411.335 150.66C412.808 149.187 414.806 148.359 416.889 148.359C418.981 148.359 420.989 149.183 422.478 150.653C423.968 152.123 424.818 154.12 424.845 156.213Z" fill="#45413C" stroke="#45413C" stroke-width="7" stroke-linecap="round" stroke-linejoin="round"/>
<path d="M340.214 204.16C339.561 204.181 338.921 204.339 338.333 204.624C337.745 204.909 337.225 205.314 336.804 205.813C336.378 206.304 336.064 206.882 335.886 207.507C335.707 208.132 335.668 208.788 335.771 209.43C337.159 217.301 341.276 224.432 347.399 229.569C353.521 234.706 361.258 237.522 369.251 237.522C377.243 237.522 384.98 234.706 391.103 229.569C397.226 224.432 401.343 217.301 402.731 209.43C402.833 208.788 402.794 208.132 402.616 207.507C402.437 206.882 402.124 206.304 401.697 205.813C401.277 205.314 400.756 204.909 400.168 204.624C399.581 204.339 398.94 204.181 398.287 204.16H340.214Z" fill="#FF6242"/>
<path d="M369.251 237.744C378.122 237.754 386.647 234.306 393.018 228.134C386.64 221.972 378.119 218.527 369.251 218.527C360.383 218.527 351.862 221.972 345.484 228.134C351.855 234.306 360.38 237.754 369.251 237.744Z" fill="#FFA694"/>
<path d="M340.214 204.16C339.561 204.181 338.921 204.339 338.333 204.624C337.745 204.909 337.225 205.314 336.804 205.813C336.378 206.304 336.064 206.882 335.886 207.507C335.707 208.132 335.668 208.788 335.771 209.43C337.159 217.301 341.276 224.432 347.399 229.569C353.521 234.706 361.258 237.522 369.251 237.522C377.243 237.522 384.98 234.706 391.103 229.569C397.226 224.432 401.343 217.301 402.731 209.43C402.833 208.788 402.794 208.132 402.616 207.507C402.437 206.882 402.124 206.304 401.697 205.813C401.277 205.314 400.756 204.909 400.168 204.624C399.581 204.339 398.94 204.181 398.287 204.16H340.214Z" stroke="#45413C" stroke-width="7" stroke-linecap="round" stroke-linejoin="round"/>
<path d="M440.238 489.05V377.76" stroke="#45413C" stroke-width="7" stroke-linecap="round" stroke-linejoin="round"/>
<path d="M298.262 189.796C298.262 191.413 299.34 192.964 301.258 194.107C303.177 195.25 305.779 195.893 308.492 195.893C311.205 195.893 313.807 195.25 315.725 194.107C317.644 192.964 318.722 191.413 318.722 189.796C318.722 188.179 317.644 186.628 315.725 185.485C313.807 184.342 311.205 183.699 308.492 183.699C305.779 183.699 303.177 184.342 301.258 185.485C299.34 186.628 298.262 188.179 298.262 189.796Z" fill="#FFB59E"/>
<path d="M419.781 189.796C419.781 191.413 420.859 192.964 422.778 194.107C424.696 195.25 427.298 195.893 430.011 195.893C432.724 195.893 435.326 195.25 437.245 194.107C439.163 192.964 440.241 191.413 440.241 189.796C440.241 188.179 439.163 186.628 437.245 185.485C435.326 184.342 432.724 183.699 430.011 183.699C427.298 183.699 424.696 184.342 422.778 185.485C420.859 186.628 419.781 188.179 419.781 189.796Z" fill="#FFB59E"/>
<path d="M247.835 489.049C240.839 470.565 228.381 454.649 212.12 443.416C195.858 432.184 176.562 426.168 156.798 426.168C137.035 426.168 117.739 432.184 101.477 443.416C85.2155 454.649 72.7582 470.565 65.7617 489.049H247.835Z" fill="#D91A1E"/>
<path d="M156.798 454.639C170.928 454.607 184.893 457.672 197.711 463.616C210.529 469.561 221.889 478.243 230.992 489.049H247.835C240.839 470.565 228.381 454.649 212.12 443.416C195.858 432.184 176.562 426.168 156.798 426.168C137.035 426.168 117.739 432.184 101.477 443.416C85.2155 454.649 72.7582 470.565 65.7617 489.049H82.5017C91.6341 478.251 103.014 469.577 115.847 463.633C128.68 457.69 142.656 454.62 156.798 454.639Z" fill="#C8161A"/>
<path d="M247.835 489.049C240.839 470.565 228.381 454.649 212.12 443.416C195.858 432.184 176.562 426.168 156.798 426.168C137.035 426.168 117.739 432.184 101.477 443.416C85.2155 454.649 72.7582 470.565 65.7617 489.049H247.835Z" stroke="#45413C" stroke-width="7" stroke-linecap="round" stroke-linejoin="round"/>
<path d="M137.578 393.156H176.018V459.29H137.578V393.156Z" fill="#FFCEBF"/>
<path d="M137.578 393.156H176.018V441.103H137.578V393.156Z" fill="#FFB59E"/>
<path d="M137.578 393.156H176.018V459.29H137.578V393.156Z" stroke="#45413C" stroke-width="7" stroke-linecap="round" stroke-linejoin="round"/>
<path d="M156.797 243.84C150.488 243.84 144.203 244.639 138.094 246.217C122.19 251.291 105.428 253.118 88.804 251.59C88.1499 255.886 88.3711 260.27 89.4543 264.479C90.5375 268.687 92.4604 272.633 95.1073 276.08C86.4815 288.568 81.8347 303.373 81.7773 318.55V357.816H231.817V318.55C231.735 298.707 223.795 279.705 209.735 265.703C195.675 251.701 176.64 243.84 156.797 243.84Z" fill="#A86C4D"/>
<path d="M156.798 243.84C150.489 243.84 144.204 244.639 138.095 246.217C122.191 251.291 105.429 253.118 88.8051 251.59C88.1592 255.846 88.3752 260.189 89.4403 264.361C90.5053 268.532 92.3977 272.447 95.0051 275.873C109.589 275.958 124.107 273.904 138.095 269.777C149.153 266.93 160.714 266.645 171.899 268.943C183.083 271.241 193.595 276.062 202.634 283.038C211.674 290.014 219.001 298.962 224.059 309.199C229.116 319.435 231.77 330.692 231.818 342.11V318.55C231.736 298.707 223.796 279.705 209.736 265.703C195.676 251.701 176.641 243.84 156.798 243.84Z" fill="#DE926A"/>
<path d="M156.797 243.84C150.488 243.84 144.203 244.639 138.094 246.217C122.19 251.291 105.428 253.118 88.804 251.59C88.1499 255.886 88.3711 260.27 89.4543 264.479C90.5375 268.687 92.4604 272.633 95.1073 276.08C86.4815 288.568 81.8347 303.373 81.7773 318.55V357.816H231.817V318.55C231.735 298.707 223.795 279.705 209.735 265.703C195.675 251.701 176.64 243.84 156.797 243.84V243.84Z" stroke="#45413C" stroke-width="7" stroke-linecap="round" stroke-linejoin="round"/>
<path d="M84.3602 340.559C81.6758 341.299 79.2667 342.809 77.4305 344.903C75.5942 346.996 74.411 349.581 74.0269 352.339C73.8702 354.256 74.1114 356.184 74.7354 358.003C75.3594 359.822 76.3528 361.492 77.653 362.909C78.9533 364.325 80.5324 365.458 82.2912 366.235C84.0501 367.013 85.9506 367.418 87.8735 367.426H88.7002C91.0962 383.858 99.3273 398.879 111.888 409.741C124.449 420.604 140.501 426.582 157.107 426.582C173.713 426.582 189.764 420.604 202.325 409.741C214.886 398.879 223.118 383.858 225.514 367.426H226.34C229.815 367.666 233.248 366.558 235.927 364.332C238.605 362.106 240.323 358.933 240.722 355.473C241.121 352.013 240.171 348.533 238.07 345.755C235.969 342.977 232.878 341.116 229.44 340.559C198.44 334.462 181.494 301.706 181.08 300.982C180.254 301.912 154.834 341.489 84.3602 340.559Z" fill="#FFCEBF" stroke="#45413C" stroke-width="7" stroke-linecap="round" stroke-linejoin="round"/>
<path d="M120.422 356.37C120.422 357.74 120.966 359.054 121.935 360.023C122.904 360.992 124.218 361.536 125.589 361.536C126.959 361.536 128.273 360.992 129.242 360.023C130.211 359.054 130.755 357.74 130.755 356.37C130.755 355 130.211 353.685 129.242 352.716C128.273 351.747 126.959 351.203 125.589 351.203C124.218 351.203 122.904 351.747 121.935 352.716C120.966 353.685 120.422 355 120.422 356.37Z" fill="#45413C" stroke="#45413C" stroke-width="7" stroke-linecap="round" stroke-linejoin="round"/>
<path d="M193.169 356.37C193.143 357.732 192.59 359.031 191.627 359.994C190.663 360.957 189.365 361.51 188.003 361.536C186.632 361.536 185.318 360.992 184.349 360.023C183.38 359.054 182.836 357.74 182.836 356.37C182.836 355 183.38 353.685 184.349 352.716C185.318 351.747 186.632 351.203 188.003 351.203C189.373 351.203 190.687 351.747 191.656 352.716C192.625 353.685 193.169 355 193.169 356.37Z" fill="#45413C" stroke="#45413C" stroke-width="7" stroke-linecap="round" stroke-linejoin="round"/>
<path d="M105.129 378.276C105.129 379.345 105.837 380.37 107.096 381.126C108.356 381.882 110.064 382.306 111.846 382.306C113.627 382.306 115.335 381.882 116.595 381.126C117.855 380.37 118.562 379.345 118.562 378.276C118.562 377.207 117.855 376.182 116.595 375.426C115.335 374.671 113.627 374.246 111.846 374.246C110.064 374.246 108.356 374.671 107.096 375.426C105.837 376.182 105.129 377.207 105.129 378.276Z" fill="#FFB59E"/>
<path d="M194.926 378.276C194.926 379.345 195.633 380.37 196.893 381.126C198.153 381.882 199.861 382.306 201.642 382.306C203.424 382.306 205.132 381.882 206.392 381.126C207.651 380.37 208.359 379.345 208.359 378.276C208.359 377.207 207.651 376.182 206.392 375.426C205.132 374.671 203.424 374.246 201.642 374.246C199.861 374.246 198.153 374.671 196.893 375.426C195.633 376.182 194.926 377.207 194.926 378.276Z" fill="#FFB59E"/>
<path d="M139.332 397.393C144.195 401.473 150.467 403.477 156.795 402.973C163.123 403.477 169.396 401.473 174.259 397.393" stroke="#45413C" stroke-width="7" stroke-linecap="round" stroke-linejoin="round"/>
<path d="M440.963 423.641C434.32 417.686 428.669 410.709 424.223 402.974C415.956 388.714 396.426 385.511 388.47 398.221C381.546 409.174 385.576 422.504 403.866 429.221C410.03 431.423 416.643 432.065 423.116 431.092C429.588 430.118 435.719 427.558 440.963 423.641Z" fill="#A86C4D" stroke="#45413C" stroke-width="7" stroke-linecap="round" stroke-linejoin="round"/>
<path d="M429.905 489.049C422.909 470.565 410.452 454.649 394.19 443.416C377.928 432.184 358.633 426.168 338.869 426.168C319.105 426.168 299.809 432.184 283.548 443.416C267.286 454.649 254.828 470.565 247.832 489.049H429.905Z" fill="#401B97"/>
<path d="M338.869 454.639C353.011 454.62 366.987 457.69 379.82 463.633C392.653 469.577 404.033 478.251 413.165 489.049H429.905C422.909 470.565 410.452 454.649 394.19 443.416C377.928 432.184 358.633 426.168 338.869 426.168C319.105 426.168 299.809 432.184 283.548 443.416C267.286 454.649 254.828 470.565 247.832 489.049H264.675C273.778 478.243 285.138 469.561 297.956 463.616C310.774 457.672 324.739 454.607 338.869 454.639Z" fill="#21006E"/>
<path d="M429.905 489.049C422.909 470.565 410.452 454.649 394.19 443.416C377.928 432.184 358.633 426.168 338.869 426.168C319.105 426.168 299.809 432.184 283.548 443.416C267.286 454.649 254.828 470.565 247.832 489.049H429.905Z" stroke="#45413C" stroke-width="7" stroke-linecap="round" stroke-linejoin="round"/>
<path d="M319.648 393.156H358.088V459.29H319.648V393.156Z" fill="#FFCEBF"/>
<path d="M319.648 393.156H358.088V441.103H319.648V393.156Z" fill="#FFB59E"/>
<path d="M319.648 393.156H358.088V459.29H319.648V393.156Z" stroke="#45413C" stroke-width="7" stroke-linecap="round" stroke-linejoin="round"/>
<path d="M338.872 243.84C358.715 243.84 377.749 251.701 391.809 265.703C405.87 279.705 413.81 298.707 413.892 318.55V357.816H263.852V318.55C263.934 298.707 271.874 279.705 285.934 265.703C299.994 251.701 319.029 243.84 338.872 243.84Z" fill="#A86C4D"/>
<path d="M338.872 243.84C319.029 243.84 299.994 251.701 285.934 265.703C271.874 279.705 263.934 298.707 263.852 318.55V342.11C263.852 322.213 271.755 303.132 285.824 289.063C299.893 274.994 318.975 267.09 338.872 267.09C358.768 267.09 377.85 274.994 391.919 289.063C405.988 303.132 413.892 322.213 413.892 342.11V318.55C413.81 298.707 405.87 279.705 391.809 265.703C377.749 251.701 358.715 243.84 338.872 243.84Z" fill="#DE926A"/>
<path d="M338.872 243.84C319.029 243.84 299.994 251.701 285.934 265.703C271.874 279.705 263.934 298.707 263.852 318.55V357.816H413.892V318.55C413.81 298.707 405.87 279.705 391.809 265.703C377.749 251.701 358.715 243.84 338.872 243.84V243.84Z" stroke="#45413C" stroke-width="7" stroke-linecap="round" stroke-linejoin="round"/>
<path d="M421.949 352.339C421.565 349.581 420.382 346.996 418.545 344.903C416.709 342.809 414.3 341.299 411.616 340.559C397.084 341.257 382.643 337.931 369.88 330.948C357.118 323.966 346.53 313.596 339.282 300.982C332.043 313.604 321.457 323.98 308.693 330.964C295.928 337.948 281.482 341.269 266.949 340.559C263.511 341.116 260.42 342.977 258.319 345.755C256.218 348.533 255.268 352.013 255.667 355.473C256.067 358.933 257.784 362.106 260.462 364.332C263.141 366.558 266.574 367.666 270.049 367.426H270.876C273.272 383.858 281.503 398.879 294.064 409.741C306.625 420.604 322.676 426.582 339.282 426.582C355.888 426.582 371.94 420.604 384.501 409.741C397.062 398.879 405.293 383.858 407.689 367.426H408.516C410.403 367.362 412.259 366.916 413.969 366.114C415.679 365.312 417.208 364.171 418.464 362.76C419.721 361.35 420.677 359.699 421.276 357.907C421.875 356.116 422.104 354.222 421.949 352.339Z" fill="#FFCEBF" stroke="#45413C" stroke-width="7" stroke-linecap="round" stroke-linejoin="round"/>
<path d="M302.496 356.37C302.523 357.732 303.075 359.031 304.039 359.994C305.002 360.957 306.301 361.51 307.663 361.536C309.033 361.536 310.347 360.992 311.316 360.023C312.285 359.054 312.829 357.74 312.829 356.37C312.829 355 312.285 353.685 311.316 352.716C310.347 351.747 309.033 351.203 307.663 351.203C306.292 351.203 304.978 351.747 304.009 352.716C303.04 353.685 302.496 355 302.496 356.37Z" fill="#45413C" stroke="#45413C" stroke-width="7" stroke-linecap="round" stroke-linejoin="round"/>
<path d="M375.243 356.37C375.243 357.74 374.699 359.054 373.73 360.023C372.761 360.992 371.447 361.536 370.077 361.536C368.707 361.536 367.392 360.992 366.423 360.023C365.454 359.054 364.91 357.74 364.91 356.37C364.91 355 365.454 353.685 366.423 352.716C367.392 351.747 368.707 351.203 370.077 351.203C371.447 351.203 372.761 351.747 373.73 352.716C374.699 353.685 375.243 355 375.243 356.37Z" fill="#45413C" stroke="#45413C" stroke-width="7" stroke-linecap="round" stroke-linejoin="round"/>
<path d="M287.309 378.276C287.309 379.345 288.016 380.37 289.276 381.126C290.535 381.882 292.244 382.306 294.025 382.306C295.807 382.306 297.515 381.882 298.775 381.126C300.034 380.37 300.742 379.345 300.742 378.276C300.742 377.207 300.034 376.182 298.775 375.426C297.515 374.671 295.807 374.246 294.025 374.246C292.244 374.246 290.535 374.671 289.276 375.426C288.016 376.182 287.309 377.207 287.309 378.276Z" fill="#FFB59E"/>
<path d="M377.102 378.276C377.102 379.345 377.809 380.37 379.069 381.126C380.328 381.882 382.037 382.306 383.818 382.306C385.6 382.306 387.308 381.882 388.568 381.126C389.827 380.37 390.535 379.345 390.535 378.276C390.535 377.207 389.827 376.182 388.568 375.426C387.308 374.671 385.6 374.246 383.818 374.246C382.037 374.246 380.328 374.671 379.069 375.426C377.809 376.182 377.102 377.207 377.102 378.276Z" fill="#FFB59E"/>
<path d="M321.406 398.736C326.269 402.817 332.542 404.821 338.87 404.316C345.197 404.821 351.47 402.817 356.333 398.736" stroke="#45413C" stroke-width="7" stroke-linecap="round" stroke-linejoin="round"/>
</svg>
