<svg width="495" height="495" viewBox="0 0 495 495" fill="none" xmlns="http://www.w3.org/2000/svg">
<path d="M247.972 479.062C233.767 479.063 219.702 476.26 206.582 470.814C193.462 465.369 181.545 457.388 171.515 447.329C161.485 437.27 153.538 425.331 148.13 412.195C142.722 399.06 139.96 384.986 140 370.781V123.281C139.96 109.076 142.722 95.0027 148.13 81.8672C153.538 68.7317 161.485 56.7924 171.515 46.7335C181.545 36.6746 193.462 28.6938 206.582 23.2484C219.702 17.8029 233.767 14.9999 247.972 15V15C262.177 14.9999 276.243 17.8029 289.363 23.2484C302.483 28.6938 314.399 36.6746 324.43 46.7335C334.46 56.7924 342.406 68.7317 347.814 81.8672C353.222 95.0027 355.985 109.076 355.944 123.281V370.781C355.985 384.986 353.222 399.06 347.814 412.195C342.406 425.331 334.46 437.27 324.43 447.329C314.399 457.388 302.483 465.369 289.363 470.814C276.243 476.26 262.177 479.063 247.972 479.062V479.062Z" fill="#DAEDF7"/>
<path d="M247.972 15C233.767 14.9999 219.702 17.8029 206.582 23.2484C193.462 28.6938 181.545 36.6746 171.515 46.7335C161.485 56.7924 153.538 68.7317 148.13 81.8672C142.722 95.0027 139.96 109.076 140 123.281V150.197C140 121.561 151.376 94.0979 171.625 73.8492C191.873 53.6006 219.336 42.225 247.972 42.225C276.608 42.225 304.071 53.6006 324.32 73.8492C344.569 94.0979 355.944 121.561 355.944 150.197V123.281C355.985 109.076 353.222 95.0027 347.814 81.8672C342.406 68.7317 334.46 56.7924 324.43 46.7335C314.399 36.6746 302.483 28.6938 289.363 23.2484C276.243 17.8029 262.177 14.9999 247.972 15V15Z" fill="white"/>
<path d="M247.972 479.062C233.767 479.063 219.702 476.26 206.582 470.814C193.462 465.369 181.545 457.388 171.515 447.329C161.485 437.27 153.538 425.331 148.13 412.195C142.722 399.06 139.96 384.986 140 370.781V123.281C139.96 109.076 142.722 95.0027 148.13 81.8672C153.538 68.7317 161.485 56.7924 171.515 46.7335C181.545 36.6746 193.462 28.6938 206.582 23.2484C219.702 17.8029 233.767 14.9999 247.972 15V15C262.177 14.9999 276.243 17.8029 289.363 23.2484C302.483 28.6938 314.399 36.6746 324.43 46.7335C334.46 56.7924 342.406 68.7317 347.814 81.8672C353.222 95.0027 355.985 109.076 355.944 123.281V370.781C355.985 384.986 353.222 399.06 347.814 412.195C342.406 425.331 334.46 437.27 324.43 447.329C314.399 457.388 302.483 465.369 289.363 470.814C276.243 476.26 262.177 479.063 247.972 479.062V479.062Z" stroke="#45413C" stroke-width="7" stroke-linecap="round" stroke-linejoin="round"/>
<path d="M247.973 452.043C237.316 452.043 226.764 449.939 216.922 445.851C207.08 441.763 198.142 435.773 190.621 428.223C183.1 420.673 177.143 411.712 173.093 401.855C169.043 391.997 166.979 381.437 167.02 370.78V123.28C166.979 112.623 169.043 102.063 173.093 92.2056C177.143 82.3482 183.1 73.3875 190.621 65.8375C198.142 58.2875 207.08 52.2968 216.922 48.2092C226.764 44.1216 237.316 42.0175 247.973 42.0176V42.0176C258.63 42.0175 269.182 44.1216 279.024 48.2092C288.866 52.2968 297.804 58.2875 305.325 65.8375C312.847 73.3875 318.803 82.3482 322.853 92.2056C326.903 102.063 328.967 112.623 328.926 123.28V370.78C328.967 381.437 326.903 391.997 322.853 401.855C318.803 411.712 312.847 420.673 305.325 428.223C297.804 435.773 288.866 441.763 279.024 445.851C269.182 449.939 258.63 452.043 247.973 452.043V452.043Z" fill="#87898C"/>
<path d="M247.973 42.0176C237.316 42.0175 226.764 44.1216 216.922 48.2092C207.08 52.2968 198.142 58.2875 190.621 65.8375C183.1 73.3875 177.143 82.3482 173.093 92.2056C169.043 102.063 166.979 112.623 167.02 123.28V151.639C167.02 130.169 175.549 109.579 190.731 94.397C205.912 79.2153 226.503 70.6863 247.973 70.6863C269.443 70.6863 290.034 79.2153 305.216 94.397C320.397 109.579 328.926 130.169 328.926 151.639V123.28C328.967 112.623 326.903 102.063 322.853 92.2056C318.803 82.3482 312.847 73.3875 305.325 65.8375C297.804 58.2875 288.866 52.2968 279.024 48.2092C269.182 44.1216 258.63 42.0175 247.973 42.0176V42.0176Z" fill="#656769"/>
<path d="M247.973 452.043C237.316 452.043 226.764 449.939 216.922 445.851C207.08 441.763 198.142 435.773 190.621 428.223C183.1 420.673 177.143 411.712 173.093 401.855C169.043 391.997 166.979 381.437 167.02 370.78V123.28C166.979 112.623 169.043 102.063 173.093 92.2056C177.143 82.3482 183.1 73.3875 190.621 65.8375C198.142 58.2875 207.08 52.2968 216.922 48.2092C226.764 44.1216 237.316 42.0175 247.973 42.0176V42.0176C258.63 42.0175 269.182 44.1216 279.024 48.2092C288.866 52.2968 297.804 58.2875 305.325 65.8375C312.847 73.3875 318.803 82.3482 322.853 92.2056C326.903 102.063 328.967 112.623 328.926 123.28V370.78C328.967 381.437 326.903 391.997 322.853 401.855C318.803 411.712 312.847 420.673 305.325 428.223C297.804 435.773 288.866 441.763 279.024 445.851C269.182 449.939 258.63 452.043 247.973 452.043V452.043Z" stroke="#45413C" stroke-width="7" stroke-linecap="round" stroke-linejoin="round"/>
<path d="M294.23 251.706C294.102 239.399 289.091 227.646 280.298 219.034C271.505 210.422 259.652 205.656 247.345 205.783C235.037 205.911 223.285 210.922 214.673 219.715C206.061 228.508 201.294 240.361 201.422 252.668C201.55 264.975 206.561 276.728 215.354 285.34C224.146 293.952 236 298.718 248.307 298.591C260.614 298.463 272.366 293.452 280.979 284.659C289.591 275.866 294.357 264.013 294.23 251.706V251.706Z" fill="#FFE500"/>
<path d="M248.303 298.59C258.865 298.537 269.091 294.874 277.285 288.21C285.48 281.546 291.149 272.281 293.354 261.952C295.558 251.623 294.165 240.85 289.406 231.421C284.646 221.993 276.806 214.474 267.186 210.114L216.409 286.029C225.042 294.142 236.456 298.637 248.303 298.59Z" fill="#FFF48C"/>
<path d="M295.456 370.294C295.329 357.986 290.317 346.234 281.524 337.622C272.732 329.01 260.878 324.243 248.571 324.371C236.264 324.499 224.512 329.51 215.9 338.303C207.288 347.095 202.521 358.949 202.649 371.256C202.776 383.563 207.788 395.315 216.58 403.928C225.373 412.54 237.227 417.306 249.534 417.179C261.841 417.051 273.593 412.04 282.205 403.247C290.817 394.454 295.584 382.601 295.456 370.294Z" fill="#6DD627"/>
<path d="M249.533 417.177C260.095 417.124 270.322 413.462 278.516 406.798C286.71 400.134 292.38 390.869 294.584 380.54C296.789 370.21 295.396 359.438 290.636 350.009C285.877 340.58 278.037 333.062 268.417 328.702L217.639 404.617C226.272 412.73 237.687 417.225 249.533 417.177V417.177Z" fill="#9CEB60"/>
<path d="M292.999 133.118C292.871 120.811 287.86 109.058 279.067 100.446C270.275 91.8342 258.421 87.0676 246.114 87.1953C233.807 87.323 222.055 92.3343 213.443 101.127C204.831 109.92 200.064 121.773 200.192 134.08C200.319 146.387 205.331 158.14 214.123 166.752C222.916 175.364 234.77 180.13 247.077 180.003C259.384 179.875 271.136 174.864 279.748 166.071C288.36 157.278 293.127 145.425 292.999 133.118Z" fill="#FF6242"/>
<path d="M247.073 180.002C257.634 179.949 267.861 176.286 276.055 169.622C284.249 162.958 289.919 153.693 292.123 143.364C294.328 133.035 292.935 122.262 288.175 112.833C283.416 103.405 275.576 95.8864 265.956 91.5261L215.178 167.441C223.811 175.554 235.226 180.049 247.073 180.002V180.002Z" fill="#FF866E"/>
<path d="M201.566 252.188C201.566 264.495 206.456 276.299 215.158 285.002C223.861 293.705 235.665 298.594 247.973 298.594C260.28 298.594 272.084 293.705 280.787 285.002C289.49 276.299 294.379 264.495 294.379 252.188C294.379 239.88 289.49 228.076 280.787 219.373C272.084 210.67 260.28 205.781 247.973 205.781C235.665 205.781 223.861 210.67 215.158 219.373C206.456 228.076 201.566 239.88 201.566 252.188V252.188Z" stroke="#45413C" stroke-width="7" stroke-linecap="round" stroke-linejoin="round"/>
<path d="M201.566 133.594C201.566 145.901 206.456 157.705 215.158 166.408C223.861 175.111 235.665 180 247.973 180C260.28 180 272.084 175.111 280.787 166.408C289.49 157.705 294.379 145.901 294.379 133.594C294.379 121.286 289.49 109.482 280.787 100.78C272.084 92.0767 260.28 87.1875 247.973 87.1875C235.665 87.1875 223.861 92.0767 215.158 100.78C206.456 109.482 201.566 121.286 201.566 133.594Z" stroke="#45413C" stroke-width="7" stroke-linecap="round" stroke-linejoin="round"/>
<path d="M201.566 370.781C201.566 383.089 206.456 394.893 215.158 403.595C223.861 412.298 235.665 417.188 247.973 417.188C260.28 417.188 272.084 412.298 280.787 403.595C289.49 394.893 294.379 383.089 294.379 370.781C294.379 358.474 289.49 346.67 280.787 337.967C272.084 329.264 260.28 324.375 247.973 324.375C235.665 324.375 223.861 329.264 215.158 337.967C206.456 346.67 201.566 358.474 201.566 370.781Z" stroke="#45413C" stroke-width="7" stroke-linecap="round" stroke-linejoin="round"/>
<path d="M299.535 367.688C299.535 396.15 291.182 341.906 247.973 341.906C204.763 341.906 196.41 396.15 196.41 367.688C196.41 354.012 201.843 340.897 211.512 331.227C221.182 321.557 234.297 316.125 247.973 316.125C261.648 316.125 274.763 321.557 284.433 331.227C294.103 340.897 299.535 354.012 299.535 367.688Z" fill="#BDBEC0" stroke="#45413C" stroke-width="7" stroke-linecap="round" stroke-linejoin="round"/>
<path d="M299.535 249.094C299.535 277.556 291.182 223.313 247.973 223.313C204.763 223.313 196.41 277.969 196.41 249.094C196.41 235.419 201.843 222.303 211.512 212.634C221.182 202.964 234.297 197.531 247.973 197.531C261.648 197.531 274.763 202.964 284.433 212.634C294.103 222.303 299.535 235.419 299.535 249.094V249.094Z" fill="#BDBEC0" stroke="#45413C" stroke-width="7" stroke-linecap="round" stroke-linejoin="round"/>
<path d="M299.535 130.5C299.535 158.962 291.182 104.719 247.973 104.719C204.763 104.719 196.41 158.962 196.41 130.5C196.41 116.825 201.843 103.71 211.512 94.0398C221.182 84.37 234.297 78.9375 247.973 78.9375C261.648 78.9375 274.763 84.37 284.433 94.0398C294.103 103.71 299.535 116.825 299.535 130.5V130.5Z" fill="#BDBEC0" stroke="#45413C" stroke-width="7" stroke-linecap="round" stroke-linejoin="round"/>
</svg>
