<svg width="495" height="495" viewBox="0 0 495 495" fill="none" xmlns="http://www.w3.org/2000/svg">
<path d="M111.458 318.403L201.486 289.115L291.617 318.712C306.061 322.663 318.881 331.089 328.237 342.78C337.594 354.471 343.005 368.826 343.695 383.784V443.803H59.3797V383.475C60.0696 368.516 65.4812 354.162 74.8377 342.471C84.1942 330.78 97.0144 322.354 111.458 318.403Z" fill="white"/>
<path d="M111.458 318.403L201.486 289.115L291.617 318.712C306.061 322.663 318.881 331.089 328.237 342.78C337.594 354.471 343.005 368.826 343.695 383.784V414.721C343.005 399.763 337.594 385.408 328.237 373.717C318.881 362.026 306.061 353.601 291.617 349.65L201.486 320.053L111.458 349.65C97.1103 353.693 84.4035 362.158 75.1459 373.841C65.8884 385.524 60.5516 399.83 59.8953 414.721V383.784C60.4878 368.838 65.7953 354.463 75.0577 342.719C84.32 330.974 97.0618 322.462 111.458 318.403Z" fill="#E0E0E0"/>
<path d="M111.458 318.403L201.486 289.115L291.617 318.712C306.061 322.663 318.881 331.089 328.237 342.78C337.594 354.471 343.005 368.826 343.695 383.784V443.803H59.3797V383.475C60.0696 368.516 65.4812 354.162 74.8377 342.471C84.1942 330.78 97.0144 322.354 111.458 318.403V318.403Z" stroke="#45413C" stroke-width="7" stroke-linecap="round" stroke-linejoin="round"/>
<path d="M116.82 443.803V327.271" stroke="#45413C" stroke-width="7" stroke-linecap="round" stroke-linejoin="round"/>
<path d="M286.148 443.803V327.271" stroke="#45413C" stroke-width="7" stroke-linecap="round" stroke-linejoin="round"/>
<path d="M265.32 386.156H218.398V411.938H265.32V386.156Z" fill="#FF6242" stroke="#45413C" stroke-width="7" stroke-linecap="round" stroke-linejoin="round"/>
<path d="M163.637 399.047C163.637 402.466 162.279 405.744 159.861 408.162C157.444 410.579 154.165 411.938 150.746 411.938C147.327 411.938 144.048 410.579 141.631 408.162C139.214 405.744 137.855 402.466 137.855 399.047C137.855 395.628 139.214 392.349 141.631 389.932C144.048 387.514 147.327 386.156 150.746 386.156C154.165 386.156 157.444 387.514 159.861 389.932C162.279 392.349 163.637 395.628 163.637 399.047Z" fill="#009FD9" stroke="#45413C" stroke-width="7" stroke-linecap="round" stroke-linejoin="round"/>
<path d="M295.328 310.153C295.328 320.628 285.441 330.675 267.842 338.082C250.243 345.489 226.373 349.65 201.484 349.65C176.595 349.65 152.726 345.489 135.127 338.082C117.528 330.675 107.641 320.628 107.641 310.153C107.641 299.678 117.528 289.632 135.127 282.225C152.726 274.818 176.595 270.656 201.484 270.656C226.373 270.656 250.243 274.818 267.842 282.225C285.441 289.632 295.328 299.678 295.328 310.153Z" fill="white"/>
<path d="M201.485 270.656C246.86 270.656 284.707 284.166 293.473 302.213C284.707 320.156 246.86 333.769 201.485 333.769C156.11 333.769 118.366 320.053 109.601 302.213C118.366 284.166 156.007 270.656 201.485 270.656Z" fill="#E0E0E0"/>
<path d="M295.328 310.153C295.328 320.628 285.441 330.675 267.842 338.082C250.243 345.489 226.373 349.65 201.484 349.65C176.595 349.65 152.726 345.489 135.127 338.082C117.528 330.675 107.641 320.628 107.641 310.153C107.641 299.678 117.528 289.632 135.127 282.225C152.726 274.818 176.595 270.656 201.484 270.656C226.373 270.656 250.243 274.818 267.842 282.225C285.441 289.632 295.328 299.678 295.328 310.153V310.153Z" stroke="#45413C" stroke-width="7" stroke-linecap="round" stroke-linejoin="round"/>
<path d="M266.352 304.482C266.352 306.472 264.674 308.444 261.414 310.283C258.154 312.122 253.376 313.793 247.353 315.201C241.33 316.609 234.179 317.725 226.309 318.487C218.439 319.249 210.004 319.641 201.486 319.641C192.968 319.641 184.533 319.249 176.663 318.487C168.793 317.725 161.642 316.609 155.619 315.201C149.596 313.793 144.818 312.122 141.558 310.283C138.298 308.444 136.62 306.472 136.62 304.482C136.62 302.491 138.298 300.52 141.558 298.68C144.818 296.841 149.596 295.17 155.619 293.762C161.642 292.355 168.793 291.238 176.663 290.476C184.533 289.714 192.968 289.322 201.486 289.322C210.004 289.322 218.439 289.714 226.309 290.476C234.179 291.238 241.33 292.355 247.353 293.762C253.376 295.17 258.154 296.841 261.414 298.68C264.674 300.52 266.352 302.491 266.352 304.482Z" fill="#656769" stroke="#45413C" stroke-width="7" stroke-linecap="round" stroke-linejoin="round"/>
<path d="M332.633 353.169L357.199 288.259C358.69 284.32 358.555 279.95 356.823 276.11C355.092 272.27 351.907 269.276 347.967 267.785C345.946 267.02 343.705 267.089 341.735 267.977C339.765 268.866 338.229 270.5 337.464 272.521L318.702 322.095C316.443 328.064 316.64 334.685 319.251 340.509C321.862 346.332 326.673 350.885 332.633 353.169Z" fill="#E0E0E0"/>
<path d="M332.633 353.169L357.199 288.259C358.69 284.32 358.555 279.95 356.823 276.11C355.092 272.27 351.907 269.276 347.967 267.785C345.946 267.02 343.705 267.089 341.735 267.977C339.765 268.866 338.229 270.5 337.464 272.521L318.702 322.095C316.443 328.064 316.64 334.685 319.251 340.509C321.862 346.332 326.673 350.885 332.633 353.169Z" stroke="#45413C" stroke-width="7" stroke-linecap="round" stroke-linejoin="round"/>
<path d="M449.5 418.951C449.5 421.057 448.663 423.077 447.174 424.566C445.685 426.055 443.665 426.892 441.559 426.892H434.444C433.212 432.666 431.487 438.325 429.288 443.804H221.8C219.6 438.325 217.875 432.666 216.644 426.892H209.528C208.477 426.905 207.433 426.71 206.458 426.317C205.482 425.924 204.595 425.341 203.846 424.603C203.098 423.864 202.504 422.984 202.099 422.014C201.693 421.043 201.484 420.002 201.484 418.951V387.498C201.484 386.446 201.693 385.405 202.099 384.435C202.504 383.465 203.098 382.585 203.846 381.846C204.595 381.107 205.482 380.525 206.458 380.132C207.433 379.739 208.477 379.544 209.528 379.557H216.644C221.986 354.64 235.712 332.309 255.53 316.29C275.348 300.27 300.061 291.531 325.544 291.531C351.027 291.531 375.739 300.27 395.558 316.29C415.376 332.309 429.101 354.64 434.444 379.557H441.559C443.665 379.557 445.685 380.394 447.174 381.883C448.663 383.372 449.5 385.392 449.5 387.498V418.951Z" fill="#E0E0E0"/>
<path d="M209.528 379.557H216.644C221.986 354.64 235.712 332.309 255.53 316.29C275.348 300.27 300.061 291.531 325.544 291.531C351.027 291.531 375.739 300.27 395.558 316.29C415.376 332.309 429.101 354.64 434.444 379.557H441.559C443.665 379.557 445.685 380.394 447.174 381.883C448.663 383.372 449.5 385.392 449.5 387.498V409.876C449.5 407.76 448.667 405.73 447.181 404.224C445.694 402.719 443.675 401.859 441.559 401.832C439.578 401.84 437.649 401.199 436.066 400.007C434.483 398.815 433.334 397.138 432.794 395.232C426.175 371.889 412.121 351.342 392.764 336.712C373.408 322.081 349.807 314.165 325.544 314.165C301.28 314.165 277.679 322.081 258.323 336.712C238.967 351.342 224.913 371.889 218.294 395.232C217.738 397.13 216.585 398.797 215.006 399.986C213.426 401.175 211.505 401.823 209.528 401.832C207.395 401.832 205.349 402.68 203.84 404.188C202.332 405.697 201.484 407.743 201.484 409.876V387.498C201.484 386.446 201.693 385.405 202.099 384.435C202.504 383.465 203.098 382.585 203.846 381.846C204.595 381.107 205.482 380.525 206.458 380.132C207.433 379.739 208.477 379.543 209.528 379.557Z" fill="white"/>
<path d="M449.5 418.951C449.5 421.057 448.663 423.077 447.174 424.566C445.685 426.055 443.665 426.892 441.559 426.892H434.444C433.212 432.666 431.487 438.325 429.287 443.804H221.8C219.6 438.325 217.875 432.666 216.644 426.892H209.528C208.477 426.905 207.433 426.71 206.458 426.317C205.482 425.924 204.595 425.341 203.846 424.603C203.098 423.864 202.504 422.984 202.099 422.014C201.693 421.043 201.484 420.002 201.484 418.951V387.498C201.484 386.446 201.693 385.405 202.099 384.435C202.504 383.465 203.098 382.585 203.846 381.846C204.595 381.107 205.482 380.525 206.458 380.132C207.433 379.739 208.477 379.544 209.528 379.557H216.644C221.986 354.64 235.712 332.309 255.53 316.29C275.348 300.27 300.061 291.531 325.544 291.531C351.027 291.531 375.739 300.27 395.558 316.29C415.376 332.309 429.101 354.64 434.444 379.557H441.559C443.665 379.557 445.685 380.394 447.174 381.883C448.663 383.372 449.5 385.392 449.5 387.498V418.951Z" stroke="#45413C" stroke-width="7" stroke-linecap="round" stroke-linejoin="round"/>
<path d="M246.137 443.803C239.987 431.788 236.644 418.534 236.36 405.04C236.075 391.546 238.857 378.163 244.495 365.9C250.132 353.636 258.48 342.812 268.907 334.243C279.335 325.673 291.572 319.582 304.695 316.427C317.819 313.273 331.487 313.138 344.67 316.032C357.854 318.926 370.208 324.774 380.804 333.135C391.399 341.497 399.959 352.154 405.838 364.303C411.718 376.452 414.763 389.778 414.746 403.275C414.608 417.416 411.071 431.316 404.434 443.803H246.137Z" fill="#00B8F0"/>
<path d="M325.545 358.416C281.202 358.416 244.489 383.991 237.58 417.3C235.723 405.192 236.382 392.831 239.518 380.99C242.653 369.148 248.196 358.08 255.801 348.477C263.406 338.874 272.909 330.942 283.718 325.177C294.526 319.412 306.407 315.938 318.619 314.971C330.83 314.005 343.11 315.566 354.691 319.559C366.271 323.551 376.904 329.889 385.926 338.176C394.947 346.463 402.163 356.521 407.122 367.722C412.081 378.923 414.677 391.026 414.748 403.275C414.857 407.969 414.546 412.662 413.82 417.3C406.602 383.991 369.889 358.416 325.545 358.416Z" fill="#4ACFFF"/>
<path d="M246.137 443.803C239.987 431.788 236.644 418.534 236.36 405.04C236.075 391.546 238.857 378.163 244.495 365.9C250.132 353.636 258.48 342.812 268.907 334.243C279.335 325.673 291.572 319.582 304.695 316.427C317.819 313.273 331.487 313.138 344.67 316.032C357.854 318.926 370.208 324.774 380.804 333.135C391.399 341.497 399.959 352.154 405.838 364.303C411.718 376.452 414.763 389.778 414.746 403.275C414.608 417.416 411.071 431.316 404.434 443.803H246.137Z" stroke="#45413C" stroke-width="7" stroke-linecap="round" stroke-linejoin="round"/>
<path d="M362.008 330.678L386.517 293.352L366.604 280.277L342.095 317.602L362.008 330.678Z" fill="#BDBEC0"/>
<path d="M376.592 286.848C379.214 288.574 381.044 291.269 381.682 294.343C382.32 297.416 381.713 300.617 379.995 303.244L371.436 316.238C372.352 314.923 372.992 313.435 373.318 311.866C373.643 310.296 373.647 308.677 373.329 307.106C373.01 305.535 372.377 304.044 371.467 302.725C370.557 301.405 369.388 300.284 368.033 299.429C365.389 297.705 362.172 297.096 359.082 297.733C355.991 298.371 353.278 300.203 351.533 302.832L360.195 289.838C361.073 288.562 362.194 287.472 363.494 286.631C364.795 285.789 366.248 285.213 367.772 284.935C369.296 284.657 370.859 284.683 372.373 285.011C373.886 285.339 375.32 285.963 376.592 286.848Z" fill="#E0E0E0"/>
<path d="M362.008 330.678L386.517 293.352L366.604 280.277L342.095 317.602L362.008 330.678Z" stroke="#45413C" stroke-width="7" stroke-linecap="round" stroke-linejoin="round"/>
<path d="M382.102 343.475L406.611 306.149L386.698 293.074L362.189 330.399L382.102 343.475Z" fill="#BDBEC0"/>
<path d="M396.701 299.429C399.33 301.174 401.163 303.888 401.8 306.978C402.438 310.069 401.828 313.286 400.105 315.929L391.545 328.923C393.268 326.283 393.872 323.068 393.224 319.983C392.577 316.898 390.73 314.197 388.09 312.474C385.451 310.751 382.235 310.147 379.151 310.795C376.066 311.443 373.365 313.29 371.642 315.929L380.201 302.935C381.931 300.29 384.637 298.436 387.728 297.779C390.82 297.122 394.046 297.715 396.701 299.429Z" fill="#E0E0E0"/>
<path d="M382.102 343.475L406.611 306.149L386.698 293.074L362.189 330.399L382.102 343.475Z" stroke="#45413C" stroke-width="7" stroke-linecap="round" stroke-linejoin="round"/>
<path d="M400.348 358.992L424.857 321.667L404.944 308.591L380.435 345.917L400.348 358.992Z" fill="#BDBEC0"/>
<path d="M414.951 315.103C417.573 316.829 419.404 319.525 420.042 322.598C420.679 325.672 420.073 328.873 418.354 331.5L409.795 344.597C410.832 343.297 411.586 341.795 412.01 340.187C412.433 338.579 412.517 336.901 412.256 335.259C411.995 333.617 411.394 332.047 410.492 330.65C409.59 329.253 408.407 328.06 407.018 327.146C405.629 326.232 404.065 325.617 402.425 325.342C400.785 325.066 399.106 325.135 397.494 325.545C395.883 325.955 394.375 326.696 393.066 327.721C391.757 328.747 390.676 330.034 389.892 331.5L398.451 318.506C399.306 317.194 400.413 316.064 401.707 315.182C403.002 314.299 404.458 313.682 405.992 313.366C407.526 313.049 409.108 313.04 410.646 313.338C412.183 313.636 413.647 314.236 414.951 315.103Z" fill="#E0E0E0"/>
<path d="M400.348 358.992L424.857 321.667L404.944 308.591L380.435 345.917L400.348 358.992Z" stroke="#45413C" stroke-width="7" stroke-linecap="round" stroke-linejoin="round"/>
<path d="M201.484 51C210.006 51.008 218.494 52.082 226.749 54.1969C245.827 58.5281 270.784 65.7469 293.368 61.4156C294.279 67.2325 293.979 73.1747 292.489 78.8706C290.998 84.5665 288.349 89.8936 284.705 94.5188C296.544 111.447 302.881 131.611 302.855 152.269V205.275H100.215V152.269C100.215 125.411 110.884 99.6525 129.876 80.6609C148.867 61.6694 174.625 51 201.484 51Z" fill="#A86C4D"/>
<path d="M201.485 51C210.007 51.008 218.495 52.082 226.751 54.1969C245.829 58.5281 270.785 65.7469 293.37 61.4156C294.821 72.2355 292.332 83.2165 286.357 92.3531C266.19 92.6766 246.091 89.9295 226.751 84.2063C211.788 80.3513 196.142 79.9713 181.009 83.0955C165.877 86.2197 151.66 92.7651 139.448 102.231C127.235 111.696 117.35 123.831 110.55 137.705C103.75 151.58 100.216 166.827 100.216 182.278V152.269C100.216 125.411 110.886 99.6525 129.877 80.6609C148.869 61.6694 174.627 51 201.485 51Z" fill="#DE926A"/>
<path d="M201.484 51C210.006 51.008 218.494 52.082 226.749 54.1969C245.827 58.5281 270.784 65.7469 293.368 61.4156C294.279 67.2325 293.979 73.1747 292.489 78.8706C290.998 84.5665 288.349 89.8936 284.705 94.5188C296.544 111.447 302.881 131.611 302.855 152.269V205.275H100.215V152.269C100.215 125.411 110.884 99.6525 129.876 80.6609C148.867 61.6694 174.625 51 201.484 51Z" stroke="#45413C" stroke-width="7" stroke-linecap="round" stroke-linejoin="round"/>
<path d="M89.3856 197.541C89.8939 193.741 91.5477 190.185 94.1269 187.348C96.7061 184.511 100.088 182.527 103.823 181.66L109.804 180.01C114.287 178.744 118.23 176.039 121.025 172.312C123.82 168.585 125.313 164.043 125.273 159.385V138.347C125.291 134.081 126.715 129.94 129.325 126.565C131.935 123.19 135.586 120.771 139.711 119.682C159.381 127.513 180.418 131.335 201.586 130.922C222.755 131.354 243.796 127.532 263.461 119.682C267.594 120.755 271.255 123.17 273.868 126.548C276.481 129.927 277.898 134.077 277.898 138.347V159.591C277.876 164.245 279.375 168.779 282.167 172.502C284.96 176.226 288.893 178.934 293.367 180.216L299.451 181.866C303.809 182.921 307.63 185.535 310.193 189.214C312.757 192.893 313.884 197.383 313.364 201.837C312.844 206.29 310.712 210.399 307.37 213.389C304.028 216.378 299.707 218.041 295.223 218.063H294.089C290.849 240.243 279.735 260.516 262.779 275.176C245.822 289.836 224.156 297.904 201.74 297.904C179.325 297.904 157.658 289.836 140.702 275.176C123.745 260.516 112.631 240.243 109.392 218.063H108.257C105.629 218.089 103.025 217.563 100.613 216.518C98.2015 215.474 96.036 213.934 94.257 212C92.4779 210.065 91.125 207.778 90.2859 205.288C89.4467 202.797 89.14 200.158 89.3856 197.541Z" fill="#FFCEBF" stroke="#45413C" stroke-width="7" stroke-linecap="round" stroke-linejoin="round"/>
<path d="M257.585 195.375C257.606 196.974 257.149 198.544 256.273 199.882C255.397 201.221 254.142 202.267 252.668 202.889C251.194 203.511 249.568 203.679 247.998 203.372C246.428 203.064 244.986 202.296 243.854 201.165C242.723 200.034 241.955 198.591 241.648 197.021C241.341 195.452 241.509 193.826 242.13 192.352C242.752 190.878 243.799 189.623 245.137 188.747C246.476 187.871 248.045 187.414 249.645 187.434C251.751 187.434 253.77 188.271 255.26 189.76C256.749 191.249 257.585 193.269 257.585 195.375Z" fill="#45413C" stroke="#45413C" stroke-width="7" stroke-linecap="round" stroke-linejoin="round"/>
<path d="M145.693 195.375C145.693 196.945 146.159 198.481 147.031 199.786C147.904 201.092 149.144 202.11 150.595 202.711C152.046 203.312 153.642 203.469 155.183 203.163C156.723 202.857 158.138 202.1 159.248 200.99C160.359 199.879 161.115 198.464 161.422 196.924C161.728 195.384 161.571 193.787 160.97 192.336C160.369 190.885 159.351 189.645 158.045 188.773C156.739 187.9 155.204 187.434 153.634 187.434C152.587 187.42 151.548 187.616 150.579 188.01C149.609 188.405 148.728 188.989 147.988 189.729C147.248 190.469 146.663 191.35 146.269 192.32C145.875 193.29 145.679 194.328 145.693 195.375Z" fill="#45413C" stroke="#45413C" stroke-width="7" stroke-linecap="round" stroke-linejoin="round"/>
<path d="M230.77 243.74C231.421 243.765 232.061 243.923 232.648 244.205C233.235 244.488 233.758 244.888 234.184 245.382C234.61 245.875 234.929 246.451 235.122 247.074C235.316 247.696 235.379 248.352 235.307 249C233.977 256.996 229.853 264.261 223.668 269.502C217.484 274.743 209.64 277.619 201.534 277.619C193.428 277.619 185.584 274.743 179.4 269.502C173.215 264.261 169.091 256.996 167.761 249C167.673 248.349 167.724 247.687 167.912 247.058C168.099 246.429 168.417 245.846 168.846 245.349C169.275 244.852 169.804 244.452 170.399 244.174C170.994 243.897 171.642 243.749 172.298 243.74H230.77Z" fill="#FF6242"/>
<path d="M201.484 258.178C210.821 257.855 220 260.648 227.574 266.119C224.313 269.808 220.305 272.762 215.816 274.786C211.327 276.809 206.459 277.856 201.535 277.856C196.611 277.856 191.743 276.809 187.254 274.786C182.765 272.762 178.757 269.808 175.496 266.119C183.013 260.613 192.173 257.814 201.484 258.178Z" fill="#FFA694"/>
<path d="M230.77 243.74C231.421 243.765 232.061 243.923 232.648 244.205C233.235 244.488 233.758 244.888 234.184 245.382C234.61 245.875 234.929 246.451 235.122 247.074C235.316 247.696 235.379 248.352 235.307 249C233.977 256.996 229.853 264.261 223.668 269.502C217.484 274.743 209.64 277.619 201.534 277.619C193.428 277.619 185.584 274.743 179.4 269.502C173.215 264.261 169.091 256.996 167.761 249C167.673 248.349 167.724 247.687 167.912 247.058C168.099 246.429 168.417 245.846 168.846 245.349C169.275 244.852 169.804 244.452 170.399 244.174C170.994 243.897 171.642 243.749 172.298 243.74H230.77Z" stroke="#45413C" stroke-width="7" stroke-linecap="round" stroke-linejoin="round"/>
<path d="M273.055 229.199C273.055 230.84 271.968 232.414 270.034 233.574C268.1 234.735 265.477 235.387 262.742 235.387C260.007 235.387 257.384 234.735 255.45 233.574C253.516 232.414 252.43 230.84 252.43 229.199C252.43 227.558 253.516 225.984 255.45 224.824C257.384 223.664 260.007 223.012 262.742 223.012C265.477 223.012 268.1 223.664 270.034 224.824C271.968 225.984 273.055 227.558 273.055 229.199Z" fill="#FFB59E"/>
<path d="M150.539 229.199C150.539 230.84 149.453 232.414 147.519 233.574C145.585 234.735 142.962 235.387 140.227 235.387C137.492 235.387 134.868 234.735 132.935 233.574C131.001 232.414 129.914 230.84 129.914 229.199C129.914 227.558 131.001 225.984 132.935 224.824C134.868 223.664 137.492 223.012 140.227 223.012C142.962 223.012 145.585 223.664 147.519 224.824C149.453 225.984 150.539 227.558 150.539 229.199Z" fill="#FFB59E"/>
</svg>
