<svg width="495" height="495" viewBox="0 0 495 495" fill="none" xmlns="http://www.w3.org/2000/svg">
<path d="M317.547 314.46L284.134 342.82C260.977 359.181 234.675 370.559 206.894 376.232C179.153 381.933 152.891 393.309 129.756 409.645L96.55 433.054C95.4944 433.813 94.2968 434.353 93.0285 434.64C91.7602 434.927 90.4471 434.956 89.1674 434.725C87.8877 434.494 86.6675 434.008 85.5795 433.295C84.4915 432.583 83.558 431.659 82.8344 430.579L11.575 327.454C10.636 326.043 10.1011 324.403 10.0281 322.71L5.07812 260.835L316.516 246.707L321.259 306.52C321.308 308.042 320.997 309.554 320.352 310.933C319.707 312.313 318.746 313.521 317.547 314.46Z" fill="#6DD627" stroke="#45413C" stroke-width="7" stroke-linecap="round" stroke-linejoin="round"/>
<path d="M285.476 387.989C284.294 387.236 283.342 386.172 282.725 384.914C282.108 383.656 281.849 382.252 281.977 380.857C282.105 379.462 282.615 378.128 283.45 377.003C284.285 375.878 285.414 375.005 286.713 374.479C321.374 359.782 359.203 354.139 396.644 358.082C459.138 367.054 502.554 399.332 486.054 426.764C471.719 450.173 430.572 430.682 430.572 430.682C430.572 430.682 444.804 458.114 421.498 469.767C398.191 481.42 364.676 437.386 364.676 437.386C364.676 437.386 359.519 463.786 339.307 458.011C312.391 450.689 321.26 427.073 312.598 411.604C305.195 402.028 295.979 394.004 285.476 387.989Z" fill="#E5FEFF"/>
<path d="M285.476 387.989C288.363 389.948 291.663 392.114 294.86 394.486C326.779 382.452 361.083 378.107 394.994 381.801C440.473 388.401 475.844 407.479 485.332 427.795C485.597 427.469 485.838 427.124 486.054 426.764C502.554 399.642 459.138 367.054 396.644 358.082C359.203 354.139 321.374 359.782 286.713 374.479C285.414 375.005 284.285 375.878 283.45 377.003C282.615 378.128 282.105 379.462 281.977 380.857C281.849 382.252 282.108 383.656 282.725 384.914C283.342 386.172 284.294 387.236 285.476 387.989Z" fill="white"/>
<path d="M285.476 387.989C284.294 387.236 283.342 386.172 282.725 384.914C282.108 383.656 281.849 382.252 281.977 380.857C282.105 379.462 282.615 378.128 283.45 377.003C284.285 375.878 285.414 375.005 286.713 374.479C321.374 359.782 359.203 354.139 396.644 358.082C459.138 367.054 502.554 399.332 486.054 426.764C471.719 450.173 430.573 430.682 430.573 430.682C430.573 430.682 444.804 458.114 421.498 469.767C398.191 481.42 364.676 437.386 364.676 437.386C364.676 437.386 359.519 463.786 339.307 458.011C312.391 450.689 321.26 427.073 312.598 411.604C305.195 402.028 295.979 394.004 285.476 387.989V387.989Z" stroke="#45413C" stroke-width="7" stroke-linecap="round" stroke-linejoin="round"/>
<path d="M115.116 169.466C115.997 170.322 117.117 170.892 118.327 171.099C119.538 171.307 120.783 171.143 121.899 170.63C123.015 170.117 123.949 169.278 124.579 168.223C125.209 167.169 125.505 165.948 125.429 164.722C126.863 134.751 120.653 104.906 107.382 77.9944C82.735 33.7538 46.3319 10.2413 30.6569 30.1444C17.1475 47.2631 43.135 72.6319 43.135 72.6319C43.135 72.6319 18.5913 69.6412 16.3225 90.2662C14.0538 110.891 56.335 123.782 56.335 123.782C56.335 123.782 37.9788 134.919 47.5694 148.532C60.46 166.785 76.135 153.379 89.6444 155.751C98.9869 158.525 107.658 163.193 115.116 169.466Z" fill="#E5FEFF"/>
<path d="M104.803 106.972C114.799 126.397 120.696 147.668 122.128 169.466C122.957 168.977 123.647 168.284 124.134 167.454C124.621 166.625 124.889 165.684 124.913 164.722C126.347 134.751 120.137 104.906 106.866 77.9944C82.7346 33.7538 46.3315 10.2413 30.6565 30.1444C28.0141 34.0393 26.6016 38.6377 26.6016 43.3444C26.6016 48.051 28.0141 52.6494 30.6565 56.5444C47.9815 41.6944 82.219 65.0006 104.803 106.972Z" fill="white"/>
<path d="M115.116 169.466C115.997 170.322 117.117 170.892 118.327 171.099C119.538 171.307 120.783 171.143 121.899 170.63C123.015 170.117 123.949 169.278 124.579 168.223C125.209 167.169 125.505 165.948 125.429 164.722C126.863 134.751 120.653 104.906 107.382 77.9944C82.735 33.7538 46.3319 10.2413 30.6569 30.1444C17.1475 47.2631 43.135 72.6319 43.135 72.6319C43.135 72.6319 18.5913 69.6412 16.3225 90.2662C14.0538 110.891 56.335 123.782 56.335 123.782C56.335 123.782 37.9788 134.919 47.5694 148.532C60.46 166.785 76.135 153.379 89.6444 155.751C98.9869 158.525 107.658 163.193 115.116 169.466V169.466Z" stroke="#45413C" stroke-width="7" stroke-linecap="round" stroke-linejoin="round"/>
<path d="M119.447 194.733C91.6914 200.388 65.42 211.767 42.3092 228.145L8.9998 251.554C6.96285 253.131 5.58981 255.413 5.15086 257.952C4.7119 260.49 5.23882 263.101 6.62792 265.27L77.5779 365.817C79.1548 367.854 81.4369 369.227 83.9752 369.666C86.5135 370.105 89.1242 369.578 91.2936 368.189L124.603 344.676C147.761 328.382 174.014 317.01 201.74 311.264C229.522 305.59 255.823 294.213 278.981 277.851L312.187 254.442C314.224 252.865 315.597 250.583 316.036 248.045C316.475 245.506 315.948 242.896 314.559 240.726L243.609 140.179C242.032 138.143 239.75 136.769 237.212 136.331C234.674 135.892 232.063 136.419 229.894 137.808L196.687 161.32C173.51 177.648 147.216 189.022 119.447 194.733Z" fill="#6DD627" stroke="#45413C" stroke-width="7" stroke-linecap="round" stroke-linejoin="round"/>
<path d="M40.9666 271.251L83.5572 331.476C85.1341 333.513 87.4162 334.886 89.9545 335.325C92.4928 335.763 95.1035 335.237 97.2729 333.847L114.392 321.782C137.539 305.402 163.845 294.023 191.632 288.369C219.373 282.668 245.635 271.292 268.77 254.957L277.948 248.563C279.968 246.972 281.321 244.683 281.741 242.145C282.161 239.608 281.617 237.005 280.217 234.847L237.729 174.519C236.152 172.482 233.87 171.109 231.332 170.67C228.793 170.231 226.183 170.758 224.013 172.147L206.792 183.904C183.681 200.281 157.409 211.661 129.654 217.316C101.901 223.08 75.6176 234.45 52.4135 250.729L43.3385 257.226C41.2181 258.812 39.7891 261.153 39.3475 263.764C38.906 266.375 39.4857 269.055 40.9666 271.251Z" fill="#E4FFD1" stroke="#45413C" stroke-width="7" stroke-linecap="round" stroke-linejoin="round"/>
<path d="M188.437 242.789C192.046 253.101 182.558 265.786 167.193 271.148C151.827 276.511 136.255 272.695 132.749 262.486C129.243 252.276 138.627 239.489 154.096 234.023C169.565 228.558 185.343 232.579 188.437 242.789Z" fill="#9CEB60" stroke="#45413C" stroke-width="7" stroke-linecap="round" stroke-linejoin="round"/>
<path d="M84.3828 370.148L89.5391 434.705" stroke="#45413C" stroke-width="7" stroke-linecap="round" stroke-linejoin="round"/>
<path d="M319.406 290.123L285.066 319.204C260.889 336.304 233.43 348.208 204.422 354.164V354.164C175.438 360.038 148.003 371.911 123.881 389.02L87.8906 414.698" stroke="#45413C" stroke-width="7" stroke-linecap="round" stroke-linejoin="round"/>
<path d="M318.067 268.467L283.727 297.342C259.581 314.408 232.155 326.277 203.186 332.198V332.198C174.206 338.185 146.76 350.048 122.542 367.054L86.2422 392.939" stroke="#45413C" stroke-width="7" stroke-linecap="round" stroke-linejoin="round"/>
<path d="M87.375 407.789L7.45312 292.186L87.375 407.789Z" fill="#FFAA54"/>
<path d="M87.375 407.789L7.45312 292.186" stroke="#45413C" stroke-width="7" stroke-linecap="round" stroke-linejoin="round"/>
</svg>
