<svg width="495" height="495" viewBox="0 0 495 495" fill="none" xmlns="http://www.w3.org/2000/svg">
<path opacity="0.15" d="M80.0703 460.664C80.0703 463.021 84.4075 465.354 92.8343 467.531C101.261 469.708 113.612 471.686 129.183 473.353C144.754 475.019 163.239 476.341 183.583 477.242C203.927 478.144 225.731 478.608 247.752 478.608C269.772 478.608 291.576 478.144 311.92 477.242C332.264 476.341 350.749 475.019 366.32 473.353C381.891 471.686 394.242 469.708 402.669 467.531C411.096 465.354 415.433 463.021 415.433 460.664C415.433 458.308 411.096 455.975 402.669 453.798C394.242 451.621 381.891 449.643 366.32 447.976C350.749 446.31 332.264 444.988 311.92 444.087C291.576 443.185 269.772 442.721 247.752 442.721C225.731 442.721 203.927 443.185 183.583 444.087C163.239 444.988 144.754 446.31 129.183 447.976C113.612 449.643 101.261 451.621 92.8343 453.798C84.4075 455.975 80.0703 458.308 80.0703 460.664Z" fill="#45413C"/>
<path d="M247.755 32.7979C138.443 32.7979 50.4771 89.5166 53.0553 158.92L86.4678 437.357C87.267 443.097 90.1225 448.352 94.5039 452.145C98.8852 455.939 104.494 458.013 110.29 457.982H385.221C391.016 458.013 396.625 455.939 401.007 452.145C405.388 448.352 408.243 443.097 409.043 437.357L442.455 158.92C445.033 89.5166 357.068 32.7979 247.755 32.7979Z" fill="#E04122" stroke="#45413C" stroke-width="7" stroke-linecap="round" stroke-linejoin="round"/>
<path d="M155.971 309.07L120.496 315.155C118.937 315.424 117.335 315.066 116.04 314.158C114.746 313.249 113.863 311.865 113.586 310.308L67.6957 43.3171C67.4935 42.0139 67.7277 40.6804 68.3618 39.5241C68.9959 38.3678 69.9944 37.4535 71.202 36.9233L105.13 21.9702C105.955 21.5932 106.856 21.4123 107.763 21.4415C108.67 21.4708 109.557 21.7095 110.356 22.139C111.155 22.5685 111.844 23.177 112.369 23.9171C112.893 24.6571 113.239 25.5085 113.38 26.4046L160.818 302.161C161.087 303.719 160.729 305.321 159.821 306.616C158.912 307.911 157.528 308.793 155.971 309.07Z" fill="#FFE500"/>
<path d="M72.4432 71.5734L118.231 54.764L113.693 26.4046C113.552 25.5085 113.206 24.6571 112.682 23.9171C112.157 23.177 111.468 22.5685 110.669 22.139C109.87 21.7095 108.983 21.4708 108.076 21.4415C107.169 21.4123 106.268 21.5932 105.443 21.9702L71.2057 36.9233C69.9869 37.4388 68.9776 38.3505 68.3413 39.5108C67.705 40.6712 67.4788 42.0123 67.6994 43.3171L72.4432 71.5734Z" fill="#FFF48C"/>
<path d="M155.971 309.07L120.496 315.155C118.937 315.424 117.335 315.066 116.04 314.158C114.746 313.249 113.863 311.865 113.586 310.308L67.6957 43.3171C67.4935 42.0139 67.7277 40.6804 68.3618 39.5241C68.9959 38.3678 69.9944 37.4535 71.202 36.9233L105.13 21.9702C105.955 21.5932 106.856 21.4123 107.763 21.4415C108.67 21.4708 109.557 21.7095 110.356 22.139C111.155 22.5685 111.844 23.177 112.369 23.9171C112.893 24.6571 113.239 25.5085 113.38 26.4046L160.818 302.161C161.087 303.719 160.729 305.321 159.821 306.616C158.912 307.911 157.528 308.793 155.971 309.07V309.07Z" stroke="#45413C" stroke-width="7" stroke-linecap="round" stroke-linejoin="round"/>
<path d="M166.908 20.8357H202.898C204.485 20.8357 206.006 21.4658 207.128 22.5875C208.25 23.7092 208.88 25.2306 208.88 26.8169L206.508 297.933C206.52 299.267 206.077 300.566 205.252 301.616C204.427 302.665 203.27 303.403 201.97 303.708L165.98 312.473C165.094 312.673 164.174 312.673 163.289 312.471C162.403 312.27 161.574 311.872 160.862 311.309C160.15 310.745 159.573 310.029 159.174 309.214C158.775 308.398 158.563 307.503 158.555 306.595L160.823 26.7138C160.823 25.9242 160.982 25.1426 161.29 24.4156C161.598 23.6887 162.049 23.0313 162.617 22.4827C163.185 21.934 163.858 21.5055 164.595 21.2225C165.332 20.9395 166.119 20.8079 166.908 20.8357Z" fill="#FFE500"/>
<path d="M208.57 61.5704V27.1267C208.57 26.3412 208.416 25.5634 208.115 24.8378C207.814 24.1121 207.374 23.4527 206.818 22.8973C206.263 22.3419 205.604 21.9013 204.878 21.6007C204.152 21.3001 203.375 21.1454 202.589 21.1454H166.598C165.818 21.1317 165.042 21.2737 164.317 21.5629C163.592 21.8522 162.932 22.283 162.375 22.8302C161.818 23.3774 161.376 24.03 161.074 24.75C160.772 25.47 160.617 26.2429 160.617 27.0236V61.4673L208.57 61.5704Z" fill="#FFF48C"/>
<path d="M166.908 20.8357H202.898C204.485 20.8357 206.006 21.4658 207.128 22.5875C208.25 23.7092 208.88 25.2306 208.88 26.8169L206.508 297.933C206.52 299.267 206.077 300.566 205.252 301.616C204.427 302.665 203.27 303.403 201.97 303.708L165.98 312.473C165.094 312.673 164.174 312.673 163.289 312.471C162.403 312.27 161.574 311.872 160.862 311.309C160.15 310.745 159.573 310.029 159.174 309.214C158.775 308.398 158.563 307.503 158.555 306.595L160.823 26.7138C160.823 25.9242 160.982 25.1426 161.29 24.4156C161.598 23.6887 162.049 23.0313 162.617 22.4827C163.185 21.934 163.858 21.5055 164.595 21.2225C165.332 20.9395 166.119 20.8079 166.908 20.8357V20.8357Z" stroke="#45413C" stroke-width="7" stroke-linecap="round" stroke-linejoin="round"/>
<path d="M233.418 63.2201L269.203 66.1076C269.989 66.1725 270.755 66.3923 271.456 66.7546C272.158 67.1168 272.78 67.6142 273.288 68.2181C273.796 68.822 274.18 69.5205 274.417 70.2734C274.654 71.0262 274.739 71.8184 274.668 72.6045L252.497 342.483C252.396 343.831 251.841 345.105 250.924 346.097C250.006 347.09 248.779 347.742 247.443 347.948L210.937 353.929C210.042 354.073 209.125 354.012 208.257 353.749C207.389 353.486 206.592 353.03 205.927 352.414C205.261 351.798 204.744 351.039 204.415 350.194C204.086 349.348 203.954 348.44 204.028 347.536L227.128 68.6857C227.26 67.1355 227.99 65.6976 229.165 64.6771C230.339 63.6567 231.865 63.134 233.418 63.2201Z" fill="#FFE500"/>
<path d="M274.669 72.6037C274.739 71.8177 274.654 71.0255 274.417 70.2726C274.18 69.5198 273.797 68.8213 273.289 68.2174C272.781 67.6135 272.158 67.1161 271.457 66.7538C270.756 66.3916 269.99 66.1717 269.203 66.1069L233.419 63.2194C232.633 63.1487 231.84 63.2342 231.088 63.4711C230.335 63.708 229.636 64.0915 229.032 64.5996C228.428 65.1076 227.931 65.7302 227.569 66.4314C227.207 67.1325 226.987 67.8985 226.922 68.685L224.344 100.344L272.091 104.263L274.669 72.6037Z" fill="#FFF48C"/>
<path d="M233.418 63.2201L269.203 66.1076C269.989 66.1725 270.755 66.3923 271.456 66.7546C272.158 67.1168 272.78 67.6142 273.288 68.2181C273.796 68.822 274.18 69.5205 274.417 70.2734C274.654 71.0262 274.739 71.8184 274.668 72.6045L252.497 342.483C252.396 343.831 251.841 345.105 250.924 346.097C250.006 347.09 248.779 347.742 247.443 347.948L210.937 353.929C210.042 354.073 209.125 354.011 208.257 353.749C207.389 353.486 206.592 353.03 205.927 352.414C205.261 351.798 204.744 351.039 204.415 350.194C204.086 349.348 203.954 348.44 204.028 347.536L227.128 68.6857C227.26 67.1355 227.99 65.6976 229.165 64.6771C230.339 63.6567 231.865 63.134 233.418 63.2201V63.2201Z" stroke="#45413C" stroke-width="7" stroke-linecap="round" stroke-linejoin="round"/>
<path d="M381.196 358.054L345.721 352.691C344.941 352.578 344.192 352.311 343.516 351.908C342.84 351.504 342.25 350.97 341.78 350.338C341.311 349.706 340.971 348.987 340.78 348.222C340.589 347.458 340.551 346.664 340.668 345.885L380.783 77.7601C380.967 76.4327 381.599 75.208 382.575 74.289C383.55 73.37 384.81 72.8118 386.146 72.7069L423.065 69.4069C423.972 69.3365 424.884 69.4704 425.732 69.7989C426.581 70.1274 427.345 70.6421 427.968 71.3051C428.592 71.9681 429.059 72.7625 429.334 73.6297C429.61 74.497 429.688 75.4151 429.562 76.3163L388.312 353.001C388.201 353.811 387.925 354.59 387.502 355.29C387.078 355.99 386.515 356.595 385.848 357.069C385.181 357.542 384.424 357.874 383.624 358.043C382.824 358.213 381.998 358.216 381.196 358.054Z" fill="#FFE500"/>
<path d="M417.083 101.068C418.714 100.912 420.354 101.252 421.789 102.043C423.224 102.834 424.387 104.04 425.127 105.502L429.561 76.4207C429.704 75.5116 429.639 74.5819 429.372 73.7016C429.104 72.8212 428.639 72.013 428.014 71.338C427.389 70.6629 426.618 70.1385 425.761 69.8042C424.903 69.47 423.981 69.3346 423.064 69.4082L386.145 73.0175C384.809 73.1224 383.549 73.6806 382.574 74.5996C381.599 75.5186 380.967 76.7433 380.783 78.0707L377.07 102.924L417.083 101.068Z" fill="#FFF48C"/>
<path d="M381.196 358.054L345.721 352.691C344.941 352.578 344.192 352.311 343.516 351.908C342.84 351.504 342.25 350.97 341.78 350.338C341.311 349.706 340.971 348.987 340.78 348.222C340.589 347.458 340.551 346.664 340.668 345.885L380.783 77.7601C380.967 76.4327 381.599 75.208 382.575 74.289C383.55 73.37 384.81 72.8118 386.146 72.7069L423.065 69.4069C423.972 69.3365 424.884 69.4704 425.732 69.7989C426.581 70.1274 427.345 70.6421 427.968 71.3051C428.592 71.9681 429.059 72.7625 429.334 73.6297C429.61 74.497 429.688 75.4151 429.562 76.3163L388.312 353.001C388.201 353.811 387.925 354.59 387.502 355.29C387.078 355.99 386.515 356.595 385.848 357.069C385.181 357.542 384.424 357.874 383.624 358.043C382.824 358.213 381.998 358.216 381.196 358.054Z" stroke="#45413C" stroke-width="7" stroke-linecap="round" stroke-linejoin="round"/>
<path d="M326.028 307.008L361.915 304.326C362.702 304.261 363.468 304.042 364.169 303.679C364.87 303.317 365.492 302.82 366 302.216C366.509 301.612 366.892 300.913 367.129 300.161C367.366 299.408 367.451 298.615 367.381 297.829L346.756 27.8482C346.66 26.5151 346.12 25.2525 345.223 24.2618C344.326 23.2712 343.123 22.6096 341.806 22.3826L305.299 16.0919C304.406 15.9334 303.487 15.9804 302.614 16.2293C301.741 16.4783 300.936 16.9227 300.261 17.5289C299.585 18.1351 299.056 18.8872 298.714 19.7281C298.372 20.5691 298.226 21.4768 298.287 22.3826L318.912 301.439C318.955 302.294 319.182 303.131 319.577 303.891C319.971 304.652 320.525 305.319 321.199 305.847C321.874 306.375 322.654 306.752 323.487 306.952C324.32 307.152 325.187 307.171 326.028 307.008Z" fill="#FFE500"/>
<path d="M306.435 57.8576L349.748 63.3232L347.17 27.8482C347.074 26.5151 346.534 25.2525 345.637 24.2618C344.74 23.2712 343.537 22.6096 342.22 22.3826L305.713 16.0919C304.82 15.9334 303.901 15.9804 303.028 16.2293C302.155 16.4783 301.35 16.9227 300.675 17.5289C299.999 18.1351 299.47 18.8872 299.128 19.7281C298.786 20.5691 298.64 21.4768 298.701 22.3826L301.382 58.8888C302.918 58.0273 304.685 57.6668 306.435 57.8576Z" fill="#FFF48C"/>
<path d="M326.028 307.008L361.915 304.326C362.702 304.261 363.468 304.042 364.169 303.679C364.87 303.317 365.492 302.82 366 302.216C366.509 301.612 366.892 300.913 367.129 300.161C367.366 299.408 367.451 298.615 367.381 297.829L346.756 27.8482C346.66 26.5151 346.12 25.2525 345.223 24.2618C344.326 23.2712 343.123 22.6096 341.806 22.3826L305.299 16.0919C304.406 15.9334 303.487 15.9804 302.614 16.2293C301.741 16.4783 300.936 16.9227 300.261 17.5289C299.585 18.1351 299.056 18.8872 298.714 19.7281C298.372 20.5691 298.226 21.4768 298.287 22.3826L318.912 301.439C318.955 302.294 319.182 303.131 319.577 303.891C319.971 304.652 320.525 305.319 321.199 305.847C321.874 306.375 322.654 306.752 323.487 306.952C324.32 307.152 325.187 307.171 326.028 307.008Z" stroke="#45413C" stroke-width="7" stroke-linecap="round" stroke-linejoin="round"/>
<path d="M263.02 141.286L298.701 145.514C300.273 145.696 301.708 146.492 302.694 147.729C303.679 148.966 304.135 150.542 303.961 152.114L272.095 421.064C271.959 422.413 271.362 423.673 270.403 424.632C269.445 425.59 268.184 426.188 266.836 426.324L230.123 430.964C229.225 431.079 228.312 430.989 227.453 430.699C226.595 430.41 225.813 429.929 225.168 429.294C224.522 428.658 224.029 427.884 223.727 427.03C223.424 426.176 223.319 425.265 223.42 424.364L256.42 146.546C256.497 145.762 256.73 145.002 257.105 144.311C257.481 143.619 257.992 143.01 258.607 142.519C259.223 142.029 259.931 141.667 260.689 141.455C261.447 141.243 262.239 141.186 263.02 141.286Z" fill="#FFE500"/>
<path d="M296.736 182.226C297.978 182.32 299.18 182.709 300.242 183.361L303.955 152.423C304.129 150.851 303.673 149.274 302.687 148.037C301.702 146.8 300.266 146.004 298.695 145.823L263.014 141.595C262.233 141.494 261.441 141.552 260.683 141.764C259.924 141.976 259.217 142.337 258.601 142.828C257.986 143.318 257.475 143.928 257.099 144.619C256.723 145.311 256.49 146.071 256.414 146.854L252.805 177.276L296.736 182.226Z" fill="#FFF48C"/>
<path d="M263.02 141.286L298.701 145.514C300.273 145.696 301.708 146.492 302.694 147.729C303.679 148.966 304.135 150.542 303.961 152.114L272.095 421.064C271.959 422.413 271.362 423.673 270.403 424.632C269.445 425.59 268.184 426.188 266.836 426.324L230.123 430.964C229.225 431.079 228.312 430.989 227.453 430.699C226.595 430.41 225.813 429.929 225.168 429.294C224.522 428.658 224.029 427.884 223.727 427.03C223.424 426.176 223.319 425.265 223.42 424.364L256.42 146.546C256.497 145.762 256.73 145.002 257.105 144.311C257.481 143.619 257.992 143.01 258.607 142.519C259.223 142.029 259.931 141.667 260.689 141.455C261.447 141.243 262.239 141.186 263.02 141.286V141.286Z" stroke="#45413C" stroke-width="7" stroke-linecap="round" stroke-linejoin="round"/>
<path d="M404.814 158.92C402.303 158.889 399.847 159.65 397.792 161.094C395.738 162.537 394.19 164.591 393.367 166.963C377.898 217.288 318.602 254.723 247.755 254.723C176.908 254.723 117.611 216.876 102.142 166.551C101.251 164.256 99.6742 162.291 97.6255 160.925C95.5769 159.559 93.1567 158.859 90.6953 158.92H53.0547L86.4672 437.357C87.2665 443.097 90.122 448.352 94.5033 452.145C98.8846 455.938 104.494 458.013 110.289 457.982H385.22C391.016 458.013 396.625 455.938 401.006 452.145C405.387 448.352 408.243 443.097 409.042 437.357L442.455 158.92H404.814Z" fill="#FF6242"/>
<path d="M77.5984 212.442C79.989 212.331 82.3576 212.941 84.3982 214.191C86.4388 215.441 88.0576 217.274 89.0453 219.454C104.514 263.798 176.908 296.798 247.755 296.798C318.602 296.798 390.995 263.798 406.464 219.454C407.452 217.274 409.071 215.441 411.111 214.191C413.152 212.941 415.52 212.331 417.911 212.442H435.958L442.455 158.92H404.814C402.303 158.889 399.847 159.65 397.792 161.094C395.738 162.537 394.19 164.591 393.367 166.963C377.898 217.288 318.602 254.723 247.755 254.723C176.908 254.723 117.611 216.876 102.142 166.551C101.251 164.256 99.6742 162.291 97.6255 160.925C95.5769 159.559 93.1567 158.859 90.6953 158.92H53.0547L59.5516 212.854L77.5984 212.442Z" fill="#FF866E"/>
<path d="M404.814 158.92C402.303 158.889 399.847 159.65 397.792 161.094C395.738 162.537 394.19 164.591 393.367 166.963C377.898 217.288 318.602 254.723 247.755 254.723C176.908 254.723 117.611 216.876 102.142 166.551C101.251 164.256 99.6742 162.291 97.6255 160.925C95.5769 159.559 93.1567 158.859 90.6953 158.92H53.0547L86.4672 437.357C87.2665 443.097 90.122 448.352 94.5033 452.145C98.8846 455.938 104.494 458.013 110.289 457.982H385.22C391.016 458.013 396.625 455.938 401.006 452.145C405.387 448.352 408.243 443.097 409.042 437.357L442.455 158.92H404.814Z" stroke="#45413C" stroke-width="7" stroke-linecap="round" stroke-linejoin="round"/>
<path d="M181.859 356.198C181.859 367.33 188.802 378.006 201.16 385.877C213.518 393.748 230.279 398.17 247.756 398.17C265.233 398.17 281.994 393.748 294.352 385.877C306.71 378.006 313.653 367.33 313.653 356.198C313.653 345.067 306.71 334.391 294.352 326.52C281.994 318.649 265.233 314.227 247.756 314.227C230.279 314.227 213.518 318.649 201.16 326.52C188.802 334.391 181.859 345.067 181.859 356.198Z" fill="#FFE500" stroke="#45413C" stroke-width="7" stroke-linecap="round" stroke-linejoin="round"/>
</svg>
