<svg width="496" height="496" viewBox="0 0 496 496" fill="none" xmlns="http://www.w3.org/2000/svg">
<path d="M31.8067 345.45H121.81C129.429 345.124 137.036 346.343 144.171 349.034C151.307 351.725 157.824 355.832 163.331 361.108C168.837 366.384 173.219 372.72 176.213 379.734C179.206 386.748 180.75 394.296 180.75 401.922C180.75 409.548 179.206 417.095 176.213 424.109C173.219 431.123 168.837 437.459 163.331 442.735C157.824 448.011 151.307 452.118 144.171 454.809C137.036 457.5 129.429 458.719 121.81 458.393H84.0933C79.3329 458.041 74.882 455.901 71.6338 452.403C68.3855 448.905 66.5802 444.309 66.5802 439.535C66.5802 434.762 68.3855 430.165 71.6338 426.667C74.882 423.169 79.3329 421.029 84.0933 420.677H55.78C50.7922 420.677 46.0086 418.695 42.4817 415.168C38.9547 411.642 36.9733 406.858 36.9733 401.87C36.9733 396.882 38.9547 392.099 42.4817 388.572C46.0086 385.045 50.7922 383.063 55.78 383.063H31.8067C26.8188 383.063 22.0353 381.082 18.5083 377.555C14.9814 374.028 13 369.245 13 364.257C13 359.269 14.9814 354.485 18.5083 350.958C22.0353 347.432 26.8188 345.45 31.8067 345.45Z" fill="white"/>
<path d="M84.1193 438.037H121.836C135.041 438.034 147.826 433.4 157.965 424.941C168.105 416.482 174.956 404.734 177.326 391.744C178 395.148 178.346 398.608 178.359 402.077C178.359 417.068 172.404 431.445 161.804 442.046C151.204 452.646 136.827 458.601 121.836 458.601H84.1193C79.1398 458.574 74.372 456.584 70.8509 453.062C67.3298 449.541 65.3397 444.774 65.3126 439.794C65.3016 436.134 66.3417 432.547 68.3093 429.461C70.0043 432.111 72.3437 434.287 75.1086 435.787C77.8736 437.287 80.9738 438.061 84.1193 438.037Z" fill="#E5FEFF"/>
<path d="M31.8067 345.45H121.81C129.429 345.124 137.036 346.343 144.171 349.034C151.307 351.725 157.824 355.832 163.331 361.108C168.837 366.384 173.219 372.72 176.213 379.734C179.206 386.748 180.75 394.296 180.75 401.922C180.75 409.548 179.206 417.095 176.213 424.109C173.219 431.123 168.837 437.459 163.331 442.735C157.824 448.011 151.307 452.118 144.171 454.809C137.036 457.5 129.429 458.719 121.81 458.393H84.0933C79.333 458.041 74.882 455.901 71.6338 452.403C68.3855 448.905 66.5802 444.309 66.5802 439.535C66.5802 434.762 68.3855 430.165 71.6338 426.667C74.882 423.169 79.333 421.029 84.0933 420.677H55.78C50.7922 420.677 46.0086 418.695 42.4817 415.168C38.9547 411.642 36.9733 406.858 36.9733 401.87C36.9733 396.882 38.9547 392.099 42.4817 388.572C46.0086 385.045 50.7922 383.063 55.78 383.063H31.8067C26.8188 383.063 22.0353 381.082 18.5083 377.555C14.9814 374.028 13 369.245 13 364.257C13 359.269 14.9814 354.485 18.5083 350.958C22.0353 347.432 26.8188 345.45 31.8067 345.45V345.45Z" stroke="#45413C" stroke-width="7" stroke-linecap="round" stroke-linejoin="round"/>
<path d="M464.353 345.452H374.35C366.731 345.126 359.124 346.345 351.989 349.036C344.853 351.727 338.336 355.834 332.829 361.11C327.323 366.386 322.941 372.722 319.947 379.736C316.953 386.75 315.41 394.298 315.41 401.924C315.41 409.55 316.953 417.097 319.947 424.111C322.941 431.125 327.323 437.461 332.829 442.737C338.336 448.013 344.853 452.12 351.989 454.811C359.124 457.502 366.731 458.721 374.35 458.395H412.066C416.827 458.043 421.278 455.903 424.526 452.405C427.774 448.907 429.579 444.311 429.579 439.537C429.579 434.764 427.774 430.167 424.526 426.669C421.278 423.171 416.827 421.031 412.066 420.679H440.38C445.368 420.679 450.151 418.697 453.678 415.17C457.205 411.643 459.186 406.86 459.186 401.872C459.186 396.884 457.205 392.101 453.678 388.574C450.151 385.047 445.368 383.065 440.38 383.065H464.353C469.341 383.065 474.124 381.084 477.651 377.557C481.178 374.03 483.16 369.247 483.16 364.259C483.16 359.271 481.178 354.487 477.651 350.96C474.124 347.433 469.341 345.452 464.353 345.452Z" fill="white"/>
<path d="M412.072 438.036H374.355C361.151 438.032 348.366 433.398 338.226 424.939C328.087 416.48 321.235 404.732 318.865 391.742C318.191 395.146 317.845 398.606 317.832 402.076C317.832 409.498 319.294 416.848 322.135 423.706C324.975 430.564 329.139 436.795 334.387 442.044C339.636 447.292 345.867 451.456 352.725 454.296C359.583 457.137 366.933 458.599 374.355 458.599H412.072C417.051 458.572 421.819 456.582 425.34 453.061C428.861 449.539 430.852 444.772 430.879 439.792C430.89 436.132 429.85 432.545 427.882 429.459C426.187 432.109 423.848 434.285 421.083 435.785C418.318 437.285 415.218 438.059 412.072 438.036Z" fill="#E5FEFF"/>
<path d="M464.353 345.452H374.35C366.731 345.126 359.124 346.345 351.989 349.036C344.853 351.727 338.336 355.834 332.829 361.11C327.323 366.386 322.941 372.722 319.947 379.736C316.953 386.75 315.41 394.298 315.41 401.924C315.41 409.55 316.953 417.097 319.947 424.111C322.941 431.125 327.323 437.461 332.829 442.737C338.336 448.013 344.853 452.12 351.989 454.811C359.124 457.502 366.731 458.721 374.35 458.395H412.066C416.827 458.043 421.278 455.903 424.526 452.405C427.774 448.907 429.579 444.311 429.579 439.537C429.579 434.764 427.774 430.167 424.526 426.669C421.278 423.171 416.827 421.031 412.066 420.679H440.38C445.368 420.679 450.151 418.697 453.678 415.17C457.205 411.643 459.186 406.86 459.186 401.872C459.186 396.884 457.205 392.101 453.678 388.574C450.151 385.047 445.368 383.065 440.38 383.065H464.353C469.341 383.065 474.124 381.084 477.651 377.557C481.178 374.03 483.16 369.247 483.16 364.259C483.16 359.271 481.178 354.487 477.651 350.96C474.124 347.433 469.341 345.452 464.353 345.452V345.452Z" stroke="#45413C" stroke-width="7" stroke-linecap="round" stroke-linejoin="round"/>
<path d="M61.9219 279.111C61.9219 283.521 62.7077 287.888 64.2344 291.962C65.7612 296.037 67.9989 299.739 70.82 302.858C73.641 305.976 76.9901 308.45 80.676 310.138C84.3618 311.825 88.3123 312.694 92.3019 312.694C96.2914 312.694 100.242 311.825 103.928 310.138C107.614 308.45 110.963 305.976 113.784 302.858C116.605 299.739 118.843 296.037 120.369 291.962C121.896 287.888 122.682 283.521 122.682 279.111C122.682 274.7 121.896 270.333 120.369 266.259C118.843 262.184 116.605 258.482 113.784 255.364C110.963 252.245 107.614 249.771 103.928 248.084C100.242 246.396 96.2914 245.527 92.3019 245.527C88.3123 245.527 84.3618 246.396 80.676 248.084C76.9901 249.771 73.641 252.245 70.82 255.364C67.9989 258.482 65.7612 262.184 64.2344 266.259C62.7077 270.333 61.9219 274.7 61.9219 279.111Z" fill="#FFE500" stroke="#45413C" stroke-width="7" stroke-linecap="round" stroke-linejoin="round"/>
<path d="M373.375 279.111C373.375 283.521 374.161 287.888 375.688 291.962C377.214 296.037 379.452 299.739 382.273 302.858C385.094 305.976 388.443 308.45 392.129 310.138C395.815 311.825 399.765 312.694 403.755 312.694C407.745 312.694 411.695 311.825 415.381 310.138C419.067 308.45 422.416 305.976 425.237 302.858C428.058 299.739 430.296 296.037 431.822 291.962C433.349 287.888 434.135 283.521 434.135 279.111C434.135 274.7 433.349 270.333 431.822 266.259C430.296 262.184 428.058 258.482 425.237 255.364C422.416 252.245 419.067 249.771 415.381 248.084C411.695 246.396 407.745 245.527 403.755 245.527C399.765 245.527 395.815 246.396 392.129 248.084C388.443 249.771 385.094 252.245 382.273 255.364C379.452 258.482 377.214 262.184 375.688 266.259C374.161 270.333 373.375 274.7 373.375 279.111Z" fill="#FFE500" stroke="#45413C" stroke-width="7" stroke-linecap="round" stroke-linejoin="round"/>
<path d="M92.4375 279.108C92.4375 299.558 96.4654 319.808 104.291 338.701C112.117 357.594 123.588 374.761 138.048 389.221C152.508 403.681 169.675 415.152 188.568 422.978C207.461 430.803 227.711 434.831 248.161 434.831C268.611 434.831 288.86 430.803 307.754 422.978C326.647 415.152 343.814 403.681 358.274 389.221C372.734 374.761 384.205 357.594 392.03 338.701C399.856 319.808 403.884 299.558 403.884 279.108C403.884 258.658 399.856 238.409 392.03 219.515C384.205 200.622 372.734 183.455 358.274 168.995C343.814 154.535 326.647 143.064 307.754 135.239C288.86 127.413 268.611 123.385 248.161 123.385C227.711 123.385 207.461 127.413 188.568 135.239C169.675 143.064 152.508 154.535 138.048 168.995C123.588 183.455 112.117 200.622 104.291 219.515C96.4654 238.409 92.4375 258.658 92.4375 279.108Z" fill="#FFE500"/>
<path d="M248.161 123.49C217.357 123.49 187.246 132.626 161.635 149.742C136.024 166.857 116.065 191.184 104.281 219.645C92.4981 248.105 89.4203 279.422 95.4373 309.632C101.454 339.842 116.296 367.589 138.084 389.363C159.873 411.137 187.63 425.96 217.844 431.957C248.058 437.954 279.372 434.856 307.825 423.054C336.278 411.251 360.592 391.276 377.69 365.654C394.789 340.032 403.905 309.914 403.884 279.11C403.857 237.828 387.438 198.245 358.237 169.064C329.037 139.883 289.443 123.49 248.161 123.49ZM248.161 411.48C220.055 411.48 192.581 403.145 169.213 387.528C145.845 371.911 127.634 349.714 116.883 323.746C106.132 297.778 103.325 269.204 108.815 241.64C114.306 214.076 127.848 188.759 147.729 168.892C167.61 149.026 192.937 135.502 220.505 130.031C248.073 124.56 276.645 127.389 302.605 138.159C328.566 148.928 350.749 167.156 366.349 190.535C381.949 213.914 390.265 241.394 390.244 269.5C390.217 307.165 375.235 343.278 348.592 369.902C321.95 396.525 285.826 411.48 248.161 411.48Z" fill="#EBCB00"/>
<path d="M92.4375 279.108C92.4375 299.558 96.4654 319.808 104.291 338.701C112.117 357.594 123.588 374.761 138.048 389.221C152.508 403.681 169.675 415.152 188.568 422.978C207.461 430.804 227.711 434.831 248.161 434.831C268.611 434.831 288.86 430.804 307.754 422.978C326.647 415.152 343.814 403.681 358.274 389.221C372.734 374.761 384.205 357.594 392.03 338.701C399.856 319.808 403.884 299.558 403.884 279.108C403.884 258.658 399.856 238.409 392.03 219.515C384.205 200.622 372.734 183.455 358.274 168.995C343.814 154.535 326.647 143.064 307.754 135.239C288.86 127.413 268.611 123.385 248.161 123.385C227.711 123.385 207.461 127.413 188.568 135.239C169.675 143.064 152.508 154.535 138.048 168.995C123.588 183.455 112.117 200.622 104.291 219.515C96.4654 238.409 92.4375 258.658 92.4375 279.108V279.108Z" stroke="#45413C" stroke-width="7" stroke-linecap="round" stroke-linejoin="round"/>
<path d="M174.136 278.387C174.116 279.915 173.644 281.403 172.78 282.664C171.916 283.925 170.699 284.902 169.281 285.472C167.863 286.043 166.308 286.182 164.812 285.871C163.315 285.561 161.944 284.815 160.87 283.727C159.797 282.639 159.069 281.258 158.778 279.758C158.487 278.257 158.647 276.704 159.236 275.294C159.826 273.884 160.819 272.68 162.091 271.832C163.363 270.985 164.858 270.533 166.386 270.533C167.413 270.533 168.429 270.737 169.376 271.133C170.323 271.529 171.182 272.109 171.903 272.84C172.624 273.57 173.193 274.437 173.576 275.389C173.959 276.341 174.15 277.36 174.136 278.387Z" fill="#45413C" stroke="#45413C" stroke-width="7" stroke-linecap="round" stroke-linejoin="round"/>
<path d="M322.032 278.387C322.052 279.915 322.524 281.403 323.388 282.664C324.252 283.925 325.469 284.902 326.887 285.472C328.305 286.043 329.86 286.182 331.356 285.871C332.853 285.561 334.224 284.815 335.297 283.727C336.371 282.639 337.099 281.258 337.39 279.758C337.68 278.257 337.521 276.704 336.932 275.294C336.342 273.884 335.349 272.68 334.077 271.832C332.805 270.985 331.31 270.533 329.782 270.533C328.755 270.533 327.739 270.737 326.792 271.133C325.845 271.529 324.986 272.109 324.265 272.84C323.544 273.57 322.975 274.437 322.592 275.389C322.209 276.341 322.018 277.36 322.032 278.387Z" fill="#45413C" stroke="#45413C" stroke-width="7" stroke-linecap="round" stroke-linejoin="round"/>
<path d="M360.885 325.093C360.885 331.499 352.205 336.769 341.458 336.769C330.711 336.769 322.031 331.499 322.031 325.093C322.031 318.686 330.711 313.416 341.045 313.416C351.378 313.416 360.885 318.583 360.885 325.093Z" fill="#FFAA54"/>
<path d="M135.223 325.093C135.223 331.499 143.903 336.769 154.649 336.769C165.396 336.769 174.076 331.499 174.076 325.093C174.076 318.686 165.396 313.416 155.063 313.416C144.729 313.416 135.223 318.583 135.223 325.093Z" fill="#FFAA54"/>
<path d="M410.783 242.945C410.783 242.945 405.616 89.9082 248.033 89.9082C96.9596 89.9082 84.663 223.622 84.043 241.085C86.0378 240.931 88.0415 240.931 90.0363 241.085C99.525 242.593 109.234 241.875 118.398 238.988C127.562 236.1 135.929 231.123 142.84 224.448L145.423 241.912L199.673 214.115C217.195 230.871 239.529 241.713 263.533 245.115C282.874 248.591 302.679 248.591 322.02 245.115L326.876 217.835L346.303 231.165C355.634 237.518 366.192 241.848 377.297 243.877C388.402 245.906 399.808 245.588 410.783 242.945Z" fill="#724F3D"/>
<path d="M248.033 120.392C361.7 120.392 395.8 199.338 406.236 244.392C407.786 244.392 409.336 243.875 410.783 243.462C412.23 243.048 405.616 89.9082 248.033 89.9082C96.9596 89.9082 84.663 223.622 84.043 241.085C85.5223 240.982 87.007 240.982 88.4863 241.085C99.0263 196.548 134.366 120.392 248.033 120.392Z" fill="#A86C4D"/>
<path d="M410.783 242.945C410.783 242.945 405.616 89.9082 248.033 89.9082C96.9596 89.9082 84.663 223.622 84.043 241.085C86.0378 240.931 88.0415 240.931 90.0363 241.085C99.525 242.593 109.234 241.875 118.398 238.988C127.562 236.1 135.929 231.123 142.84 224.448V224.448L145.423 241.912L199.673 214.115C217.195 230.871 239.529 241.713 263.533 245.115C282.874 248.591 302.679 248.591 322.02 245.115L326.876 217.835L346.303 231.165C355.634 237.518 366.192 241.848 377.297 243.877C388.402 245.906 399.808 245.588 410.783 242.945Z" stroke="#45413C" stroke-width="7" stroke-linecap="round" stroke-linejoin="round"/>
<path d="M248.109 37C159.966 37 88.5625 65.0033 88.5625 99.62C88.5625 134.237 159.966 162.343 248.109 162.343C336.252 162.343 407.656 134.237 407.656 99.62C407.656 65.0033 336.252 37 248.109 37ZM248.109 130.723C186.109 130.723 135.269 116.773 135.269 99.7233C135.269 82.6733 185.799 68.7233 248.109 68.7233C310.419 68.7233 360.949 82.6733 360.949 99.7233C360.949 116.773 310.109 130.723 248.109 130.723Z" fill="#00DFEB"/>
<path d="M248.109 56.4267C327.779 56.4267 393.706 79.3667 405.589 109.333C406.885 106.255 407.586 102.959 407.656 99.62C407.656 65.0033 336.252 37 248.109 37C159.966 37 88.5625 65.0033 88.5625 99.62C88.632 102.959 89.3333 106.255 90.6292 109.333C102.512 79.3667 168.439 56.4267 248.109 56.4267Z" fill="#A6FBFF"/>
<path d="M248.109 37C159.966 37 88.5625 65.0033 88.5625 99.62C88.5625 134.237 159.966 162.343 248.109 162.343C336.252 162.343 407.656 134.237 407.656 99.62C407.656 65.0033 336.252 37 248.109 37ZM248.109 130.723C186.109 130.723 135.269 116.773 135.269 99.7233C135.269 82.6733 185.799 68.7233 248.109 68.7233C310.419 68.7233 360.949 82.6733 360.949 99.7233C360.949 116.773 310.109 130.723 248.109 130.723Z" stroke="#45413C" stroke-width="7" stroke-linecap="round" stroke-linejoin="round"/>
<path d="M205.137 357.332C210.433 363.416 217.051 368.208 224.483 371.342C231.916 374.476 239.967 375.87 248.02 375.415C256.074 375.87 264.124 374.476 271.557 371.342C278.989 368.208 285.607 363.416 290.903 357.332" stroke="#45413C" stroke-width="7" stroke-linecap="round" stroke-linejoin="round"/>
</svg>
