<svg width="496" height="496" viewBox="0 0 496 496" fill="none" xmlns="http://www.w3.org/2000/svg">
<rect width="496" height="496" fill="white"/>
<path d="M308 326C308 312.833 305.417 301.417 300.25 291.75C295.083 282.083 288.917 274.083 281.75 267.75C274.417 261.417 264.917 254.333 253.25 246.5C244.583 240.667 237.75 235.75 232.75 231.75C227.75 227.75 223.667 223.25 220.5 218.25C217.167 213.083 215.5 207.333 215.5 201C215.5 191.833 218.667 184.417 225 178.75C231.167 173.083 239.667 170.25 250.5 170.25C260.167 170.25 268 172.833 274 178C280 183.167 284.333 189.25 287 196.25L305.75 188C303.917 181.833 300.667 175.75 296 169.75C291.333 163.583 285.167 158.5 277.5 154.5C269.667 150.5 260.667 148.5 250.5 148.5C239.333 148.5 229.417 150.833 220.75 155.5C211.917 160.167 205.083 166.5 200.25 174.5C195.417 182.5 193 191.333 193 201C193 210.333 195.083 218.583 199.25 225.75C203.417 232.917 208.583 239.083 214.75 244.25C220.75 249.25 228.833 255.167 239 262C251 270.167 260.333 277.25 267 283.25C273.667 289.083 278.583 296.083 281.75 304.25H193V326H308Z" fill="black"/>
</svg>
