<svg width="496" height="496" viewBox="0 0 496 496" fill="none" xmlns="http://www.w3.org/2000/svg">
<g clip-path="url(#clip0_1171_66396)">
<path d="M126.417 6.09618C117.987 6.1278 109.592 7.16854 101.41 9.19618C82.5002 13.5362 57.8035 20.7695 35.3802 16.4295C34.4847 22.2021 34.7838 28.0971 36.2591 33.7494C37.7344 39.4017 40.3544 44.6909 43.9568 49.2895C32.2099 66.0642 25.9304 86.0575 25.9768 106.536V159.029H227.167V106.536C227.167 93.3201 224.559 80.2339 219.492 68.0277C214.425 55.8215 206.999 44.7353 197.639 35.4045C188.28 26.0738 177.171 18.6819 164.949 13.6526C152.727 8.62325 139.633 6.05539 126.417 6.09618Z" fill="#A86C4D"/>
<path d="M126.417 6.09618C117.988 6.1278 109.593 7.16854 101.411 9.19618C82.5007 13.5362 57.8041 20.7695 35.3807 16.4295C33.8677 27.2599 36.327 38.2719 42.3041 47.4295C62.3109 47.7985 82.2529 45.0443 101.411 39.2662C109.593 37.2385 117.988 36.1978 126.417 36.1662C139.616 36.1254 152.693 38.6864 164.902 43.7029C177.11 48.7193 188.21 56.0927 197.567 65.4016C206.923 74.7104 214.354 85.7723 219.433 97.9546C224.512 110.137 227.14 123.201 227.167 136.4V106.536C227.167 93.3201 224.559 80.2339 219.492 68.0277C214.425 55.8215 206.999 44.7353 197.64 35.4046C188.28 26.0738 177.171 18.6819 164.949 13.6526C152.728 8.62325 139.633 6.05539 126.417 6.09618Z" fill="#DE926A"/>
<path d="M126.417 6.09618C117.987 6.1278 109.592 7.16854 101.41 9.19618C82.5002 13.5362 57.8035 20.7695 35.3802 16.4295C34.4847 22.2021 34.7838 28.0971 36.2591 33.7494C37.7344 39.4017 40.3544 44.6909 43.9568 49.2895C32.2099 66.0642 25.9304 86.0575 25.9768 106.536V159.029H227.167V106.536C227.167 93.3201 224.559 80.2339 219.492 68.0277C214.425 55.8215 206.999 44.7353 197.639 35.4045C188.28 26.0738 177.171 18.6819 164.949 13.6526C152.727 8.62325 139.633 6.05539 126.417 6.09618V6.09618Z" stroke="#45413C" stroke-width="7" stroke-linecap="round" stroke-linejoin="round"/>
<path d="M126.417 254.613C142.361 254.613 158.15 257.754 172.881 263.856C187.612 269.957 200.997 278.901 212.271 290.175C223.546 301.45 232.489 314.835 238.591 329.566C244.693 344.297 247.833 360.085 247.833 376.03V482.05H5V376.03C5 360.085 8.14053 344.297 14.2423 329.566C20.3441 314.835 29.2875 301.45 40.5621 290.175C63.3322 267.405 94.215 254.613 126.417 254.613Z" fill="#00B8F0"/>
<path d="M126.417 254.613C94.215 254.613 63.3322 267.405 40.5621 290.175C17.7921 312.945 5 343.828 5 376.03V413.127C5 380.925 17.7921 350.042 40.5621 327.272C63.3322 304.502 94.215 291.71 126.417 291.71C158.618 291.71 189.501 304.502 212.271 327.272C235.041 350.042 247.833 380.925 247.833 413.127V376.03C247.833 360.085 244.693 344.297 238.591 329.566C232.489 314.835 223.546 301.45 212.271 290.175C200.997 278.901 187.612 269.957 172.881 263.856C158.15 257.754 142.361 254.613 126.417 254.613Z" fill="#009FD9"/>
<path d="M126.417 254.613C142.361 254.613 158.15 257.754 172.881 263.856C187.612 269.957 200.997 278.901 212.271 290.175C223.546 301.45 232.489 314.835 238.591 329.566C244.693 344.297 247.833 360.085 247.833 376.03V482.05H5V376.03C5 360.085 8.14053 344.297 14.2423 329.566C20.3441 314.835 29.2875 301.45 40.5621 290.175C63.3322 267.405 94.215 254.613 126.417 254.613V254.613Z" stroke="#45413C" stroke-width="7" stroke-linecap="round" stroke-linejoin="round"/>
<path d="M100.375 213.176H152.352V294.292H100.375V213.176Z" fill="#FFCEBF"/>
<path d="M100.375 213.176H152.352V273.316H100.375V213.176Z" fill="#FFB59E"/>
<path d="M100.375 213.176H152.352V294.292H100.375V213.176Z" stroke="#45413C" stroke-width="7" stroke-linecap="round" stroke-linejoin="round"/>
<path d="M237.5 149.936C236.627 145.507 234.222 141.526 230.708 138.692C227.194 135.857 222.794 134.351 218.28 134.436C213.95 134.436 209.797 132.716 206.735 129.654C203.673 126.592 201.953 122.44 201.953 118.109V92.6895C202 88.4017 200.612 84.2214 198.009 80.8135C195.406 77.4057 191.739 74.9661 187.59 73.8828C168.146 81.6424 147.347 85.4368 126.416 85.0428C105.485 85.4368 84.6867 81.6424 65.243 73.8828C61.2095 75.081 57.6805 77.5697 55.1979 80.967C52.7152 84.3644 51.416 88.4825 51.4997 92.6895V118.109C51.4997 120.254 51.0774 122.377 50.2569 124.357C49.4364 126.338 48.2338 128.138 46.7177 129.654C45.2017 131.17 43.4018 132.373 41.421 133.193C39.4401 134.014 37.3171 134.436 35.173 134.436C30.6591 134.351 26.2592 135.857 22.7449 138.692C19.2305 141.526 16.8261 145.507 15.953 149.936C15.5012 152.594 15.6358 155.319 16.3475 157.919C17.0592 160.519 18.3307 162.933 20.0731 164.99C21.8155 167.047 23.9865 168.699 26.4342 169.829C28.8819 170.959 31.547 171.541 34.243 171.533H35.3797C39.2154 193.025 50.4896 212.482 67.2279 226.497C83.9663 240.513 105.102 248.193 126.933 248.193C148.764 248.193 169.9 240.513 186.638 226.497C203.377 212.482 214.651 193.025 218.486 171.533H219.623C222.284 171.481 224.903 170.856 227.3 169.7C229.697 168.544 231.817 166.884 233.514 164.834C235.211 162.784 236.446 160.391 237.133 157.82C237.821 155.249 237.946 152.56 237.5 149.936Z" fill="#FFCEBF" stroke="#45413C" stroke-width="7" stroke-linecap="round" stroke-linejoin="round"/>
<path d="M70.8242 149.213C70.8514 151.305 71.7017 153.302 73.1909 154.772C74.6801 156.242 76.6884 157.066 78.7809 157.066C80.8637 157.066 82.8613 156.239 84.334 154.766C85.8068 153.293 86.6342 151.296 86.6342 149.213C86.6342 147.13 85.8068 145.132 84.334 143.66C82.8613 142.187 80.8637 141.359 78.7809 141.359C76.6884 141.359 74.6801 142.183 73.1909 143.653C71.7017 145.123 70.8514 147.12 70.8242 149.213Z" fill="#45413C" stroke="#45413C" stroke-width="7" stroke-linecap="round" stroke-linejoin="round"/>
<path d="M182.009 149.213C181.982 151.305 181.132 153.302 179.643 154.772C178.153 156.242 176.145 157.066 174.053 157.066C171.97 157.066 169.972 156.239 168.499 154.766C167.027 153.293 166.199 151.296 166.199 149.213C166.199 147.13 167.027 145.132 168.499 143.66C169.972 142.187 171.97 141.359 174.053 141.359C176.145 141.359 178.153 142.183 179.643 143.653C181.132 145.123 181.982 147.12 182.009 149.213Z" fill="#45413C" stroke="#45413C" stroke-width="7" stroke-linecap="round" stroke-linejoin="round"/>
<path d="M97.3781 197.16C96.7255 197.181 96.0846 197.339 95.497 197.624C94.9095 197.909 94.3886 198.314 93.9681 198.813C93.5418 199.304 93.2284 199.882 93.0499 200.507C92.8713 201.132 92.832 201.788 92.9348 202.43C94.3229 210.301 98.4398 217.432 104.563 222.569C110.685 227.706 118.422 230.522 126.415 230.522C134.407 230.522 142.144 227.706 148.267 222.569C154.39 217.432 158.507 210.301 159.895 202.43C159.997 201.788 159.958 201.132 159.78 200.507C159.601 199.882 159.288 199.304 158.861 198.813C158.441 198.314 157.92 197.909 157.332 197.624C156.745 197.339 156.104 197.181 155.451 197.16H97.3781Z" fill="#FF6242"/>
<path d="M126.415 230.744C135.286 230.754 143.811 227.306 150.182 221.134C143.804 214.972 135.283 211.527 126.415 211.527C117.547 211.527 109.026 214.972 102.648 221.134C109.019 227.306 117.544 230.754 126.415 230.744Z" fill="#FFA694"/>
<path d="M97.3781 197.16C96.7255 197.181 96.0846 197.339 95.497 197.624C94.9095 197.909 94.3886 198.314 93.9681 198.813C93.5418 199.304 93.2284 199.882 93.0499 200.507C92.8713 201.132 92.832 201.788 92.9348 202.43C94.3229 210.301 98.4398 217.432 104.563 222.569C110.685 227.706 118.422 230.522 126.415 230.522C134.407 230.522 142.144 227.706 148.267 222.569C154.39 217.432 158.507 210.301 159.895 202.43C159.997 201.788 159.958 201.132 159.78 200.507C159.601 199.882 159.288 199.304 158.861 198.813C158.441 198.314 157.92 197.909 157.332 197.624C156.745 197.339 156.104 197.181 155.451 197.16H97.3781Z" stroke="#45413C" stroke-width="7" stroke-linecap="round" stroke-linejoin="round"/>
<path d="M55.4258 482.05V370.76" stroke="#45413C" stroke-width="7" stroke-linecap="round" stroke-linejoin="round"/>
<path d="M55.4258 182.796C55.4258 184.413 56.5036 185.964 58.4221 187.107C60.3406 188.25 62.9426 188.893 65.6558 188.893C68.3689 188.893 70.971 188.25 72.8895 187.107C74.808 185.964 75.8858 184.413 75.8858 182.796C75.8858 181.179 74.808 179.628 72.8895 178.485C70.971 177.342 68.3689 176.699 65.6558 176.699C62.9426 176.699 60.3406 177.342 58.4221 178.485C56.5036 179.628 55.4258 181.179 55.4258 182.796Z" fill="#FFB59E"/>
<path d="M176.945 182.796C176.945 184.413 178.023 185.964 179.942 187.107C181.86 188.25 184.462 188.893 187.175 188.893C189.888 188.893 192.491 188.25 194.409 187.107C196.328 185.964 197.405 184.413 197.405 182.796C197.405 181.179 196.328 179.628 194.409 178.485C192.491 177.342 189.888 176.699 187.175 176.699C184.462 176.699 181.86 177.342 179.942 178.485C178.023 179.628 176.945 181.179 176.945 182.796Z" fill="#FFB59E"/>
<path d="M369.248 0C398.737 0 427.017 11.7143 447.869 32.5658C468.721 53.4174 480.435 81.6981 480.435 111.187V255.853C480.421 258.357 479.669 260.8 478.272 262.878C476.874 264.955 474.895 266.573 472.581 267.53C406.253 294.091 332.243 294.091 265.915 267.53C263.684 266.586 261.769 265.025 260.396 263.029C259.023 261.034 258.249 258.687 258.165 256.267V111.6C258.11 96.9727 260.943 82.4784 266.5 68.9476C272.056 55.4169 280.229 43.1155 290.548 32.7484C300.867 22.3813 313.13 14.1522 326.635 8.53265C340.14 2.91309 354.621 0.0134931 369.248 0Z" fill="#A86C4D"/>
<path d="M369.251 0C339.781 0.0273891 311.527 11.7538 290.697 32.6023C269.868 53.4509 258.168 81.716 258.168 111.187V143.943C258.141 129.333 260.993 114.861 266.562 101.354C272.132 87.8475 280.308 75.5706 290.624 65.2254C300.941 54.8802 313.195 46.6696 326.686 41.063C340.177 35.4563 354.642 32.5635 369.251 32.55C383.87 32.55 398.345 35.4327 411.849 41.0333C425.352 46.6339 437.618 54.8423 447.945 65.1889C458.273 75.5354 466.458 87.8169 472.034 101.331C477.609 114.844 480.465 129.325 480.438 143.943V111.187C480.438 81.6981 468.724 53.4174 447.872 32.5658C427.021 11.7143 398.74 0 369.251 0Z" fill="#DE926A"/>
<path d="M369.248 0C398.737 0 427.017 11.7143 447.869 32.5658C468.721 53.4174 480.435 81.6981 480.435 111.187V255.853C480.421 258.357 479.669 260.8 478.272 262.878C476.874 264.955 474.895 266.573 472.581 267.53V267.53C406.253 294.091 332.243 294.091 265.915 267.53V267.53C263.684 266.586 261.769 265.025 260.396 263.029C259.023 261.034 258.249 258.687 258.165 256.267V111.6C258.11 96.9727 260.943 82.4784 266.5 68.9476C272.056 55.4169 280.229 43.1155 290.548 32.7484C300.867 22.3813 313.13 14.1522 326.635 8.53265C340.14 2.91309 354.621 0.0134931 369.248 0V0Z" stroke="#45413C" stroke-width="7" stroke-linecap="round" stroke-linejoin="round"/>
<path d="M369.249 254.613C385.193 254.613 400.982 257.754 415.713 263.856C430.444 269.957 443.829 278.901 455.103 290.175C466.378 301.45 475.321 314.835 481.423 329.566C487.525 344.297 490.665 360.085 490.665 376.03V482.05H247.832V376.03C247.832 360.085 250.973 344.297 257.074 329.566C263.176 314.835 272.12 301.45 283.394 290.175C306.164 267.405 337.047 254.613 369.249 254.613Z" fill="#FF87AF"/>
<path d="M369.249 254.613C337.047 254.613 306.164 267.405 283.394 290.175C260.624 312.945 247.832 343.828 247.832 376.03V413.127C247.832 380.925 260.624 350.042 283.394 327.272C306.164 304.502 337.047 291.71 369.249 291.71C401.45 291.71 432.333 304.502 455.103 327.272C477.873 350.042 490.665 380.925 490.665 413.127V376.03C490.665 360.085 487.525 344.297 481.423 329.566C475.321 314.835 466.378 301.45 455.103 290.175C443.829 278.901 430.444 269.957 415.713 263.856C400.982 257.754 385.193 254.613 369.249 254.613Z" fill="#FF6196"/>
<path d="M369.249 254.613C385.193 254.613 400.982 257.754 415.713 263.856C430.444 269.957 443.829 278.901 455.103 290.175C466.378 301.45 475.321 314.835 481.423 329.566C487.525 344.297 490.665 360.085 490.665 376.03V482.05H247.832V376.03C247.832 360.085 250.973 344.297 257.074 329.566C263.176 314.835 272.12 301.45 283.394 290.175C306.164 267.405 337.047 254.613 369.249 254.613V254.613Z" stroke="#45413C" stroke-width="7" stroke-linecap="round" stroke-linejoin="round"/>
<path d="M343.211 213.176H395.188V294.292H343.211V213.176Z" fill="#FFCEBF" stroke="#45413C" stroke-width="7" stroke-linecap="round" stroke-linejoin="round"/>
<path d="M461.938 134.437C449.003 130.732 437.067 124.165 427.014 115.221C416.961 106.277 409.05 95.1865 403.865 82.7701L397.562 67.5801C372.918 100.777 336.564 123.35 295.882 130.717L276.558 134.127C271.878 134.476 267.503 136.582 264.311 140.022C261.118 143.462 259.344 147.982 259.344 152.675C259.344 157.368 261.118 161.888 264.311 165.328C267.503 168.768 271.878 170.874 276.558 171.223H277.695C281.531 192.715 292.805 212.172 309.543 226.188C326.282 240.203 347.417 247.884 369.248 247.884C391.08 247.884 412.215 240.203 428.953 226.188C445.692 212.172 456.966 192.715 460.802 171.223H461.938C466.619 170.874 470.994 168.768 474.186 165.328C477.379 161.888 479.153 157.368 479.153 152.675C479.153 147.982 477.379 143.462 474.186 140.022C470.994 136.582 466.619 134.476 461.938 134.127V134.437Z" fill="#FFCEBF" stroke="#45413C" stroke-width="7" stroke-linecap="round" stroke-linejoin="round"/>
<path d="M313.656 149.213C313.683 151.305 314.534 153.302 316.023 154.772C317.512 156.242 319.52 157.066 321.613 157.066C323.696 157.066 325.693 156.239 327.166 154.766C328.639 153.293 329.466 151.296 329.466 149.213C329.466 147.13 328.639 145.132 327.166 143.66C325.693 142.187 323.696 141.359 321.613 141.359C319.52 141.359 317.512 142.183 316.023 143.653C314.534 145.123 313.683 147.12 313.656 149.213Z" fill="#45413C" stroke="#45413C" stroke-width="7" stroke-linecap="round" stroke-linejoin="round"/>
<path d="M424.845 149.213C424.818 151.305 423.968 153.302 422.478 154.772C420.989 156.242 418.981 157.066 416.889 157.066C414.806 157.066 412.808 156.239 411.335 154.766C409.863 153.293 409.035 151.296 409.035 149.213C409.035 147.13 409.863 145.132 411.335 143.66C412.808 142.187 414.806 141.359 416.889 141.359C418.981 141.359 420.989 142.183 422.478 143.653C423.968 145.123 424.818 147.12 424.845 149.213Z" fill="#45413C" stroke="#45413C" stroke-width="7" stroke-linecap="round" stroke-linejoin="round"/>
<path d="M340.214 197.16C339.561 197.181 338.921 197.339 338.333 197.624C337.745 197.909 337.225 198.314 336.804 198.813C336.378 199.304 336.064 199.882 335.886 200.507C335.707 201.132 335.668 201.788 335.771 202.43C337.159 210.301 341.276 217.432 347.399 222.569C353.521 227.706 361.258 230.522 369.251 230.522C377.243 230.522 384.98 227.706 391.103 222.569C397.226 217.432 401.343 210.301 402.731 202.43C402.833 201.788 402.794 201.132 402.616 200.507C402.437 199.882 402.124 199.304 401.697 198.813C401.277 198.314 400.756 197.909 400.168 197.624C399.581 197.339 398.94 197.181 398.287 197.16H340.214Z" fill="#FF6242"/>
<path d="M369.251 230.744C378.122 230.754 386.647 227.306 393.018 221.134C386.64 214.972 378.119 211.527 369.251 211.527C360.383 211.527 351.862 214.972 345.484 221.134C351.855 227.306 360.38 230.754 369.251 230.744Z" fill="#FFA694"/>
<path d="M340.214 197.16C339.561 197.181 338.921 197.339 338.333 197.624C337.745 197.909 337.225 198.314 336.804 198.813C336.378 199.304 336.064 199.882 335.886 200.507C335.707 201.132 335.668 201.788 335.771 202.43C337.159 210.301 341.276 217.432 347.399 222.569C353.521 227.706 361.258 230.522 369.251 230.522C377.243 230.522 384.98 227.706 391.103 222.569C397.226 217.432 401.343 210.301 402.731 202.43C402.833 201.788 402.794 201.132 402.616 200.507C402.437 199.882 402.124 199.304 401.697 198.813C401.277 198.314 400.756 197.909 400.168 197.624C399.581 197.339 398.94 197.181 398.287 197.16H340.214Z" stroke="#45413C" stroke-width="7" stroke-linecap="round" stroke-linejoin="round"/>
<path d="M440.238 482.05V370.76" stroke="#45413C" stroke-width="7" stroke-linecap="round" stroke-linejoin="round"/>
<path d="M298.262 182.796C298.262 184.413 299.34 185.964 301.258 187.107C303.177 188.25 305.779 188.893 308.492 188.893C311.205 188.893 313.807 188.25 315.725 187.107C317.644 185.964 318.722 184.413 318.722 182.796C318.722 181.179 317.644 179.628 315.725 178.485C313.807 177.342 311.205 176.699 308.492 176.699C305.779 176.699 303.177 177.342 301.258 178.485C299.34 179.628 298.262 181.179 298.262 182.796Z" fill="#FFB59E"/>
<path d="M419.781 182.796C419.781 184.413 420.859 185.964 422.778 187.107C424.696 188.25 427.298 188.893 430.011 188.893C432.724 188.893 435.326 188.25 437.245 187.107C439.163 185.964 440.241 184.413 440.241 182.796C440.241 181.179 439.163 179.628 437.245 178.485C435.326 177.342 432.724 176.699 430.011 176.699C427.298 176.699 424.696 177.342 422.778 178.485C420.859 179.628 419.781 181.179 419.781 182.796Z" fill="#FFB59E"/>
<path d="M247.835 482.049C240.839 463.565 228.381 447.649 212.12 436.416C195.858 425.184 176.562 419.168 156.798 419.168C137.035 419.168 117.739 425.184 101.477 436.416C85.2155 447.649 72.7582 463.565 65.7617 482.049H247.835Z" fill="#D91A1E"/>
<path d="M156.798 447.639C170.928 447.607 184.893 450.672 197.711 456.616C210.529 462.561 221.889 471.243 230.992 482.049H247.835C240.839 463.565 228.381 447.649 212.12 436.416C195.858 425.184 176.562 419.168 156.798 419.168C137.035 419.168 117.739 425.184 101.477 436.416C85.2155 447.649 72.7582 463.565 65.7617 482.049H82.5017C91.6341 471.251 103.014 462.577 115.847 456.633C128.68 450.69 142.656 447.62 156.798 447.639Z" fill="#C8161A"/>
<path d="M247.835 482.049C240.839 463.565 228.381 447.649 212.12 436.416C195.858 425.184 176.562 419.168 156.798 419.168C137.035 419.168 117.739 425.184 101.477 436.416C85.2155 447.649 72.7582 463.565 65.7617 482.049H247.835Z" stroke="#45413C" stroke-width="7" stroke-linecap="round" stroke-linejoin="round"/>
<path d="M137.578 386.156H176.018V452.29H137.578V386.156Z" fill="#FFCEBF"/>
<path d="M137.578 386.156H176.018V434.103H137.578V386.156Z" fill="#FFB59E"/>
<path d="M137.578 386.156H176.018V452.29H137.578V386.156Z" stroke="#45413C" stroke-width="7" stroke-linecap="round" stroke-linejoin="round"/>
<path d="M156.797 236.84C150.488 236.84 144.203 237.639 138.094 239.217C122.19 244.291 105.428 246.118 88.804 244.59C88.1499 248.886 88.3711 253.27 89.4543 257.479C90.5375 261.687 92.4604 265.633 95.1073 269.08C86.4815 281.568 81.8347 296.373 81.7773 311.55V350.816H231.817V311.55C231.735 291.707 223.795 272.705 209.735 258.703C195.675 244.701 176.64 236.84 156.797 236.84Z" fill="#A86C4D"/>
<path d="M156.798 236.84C150.489 236.84 144.204 237.639 138.095 239.217C122.191 244.291 105.429 246.118 88.8051 244.59C88.1592 248.846 88.3752 253.189 89.4403 257.361C90.5053 261.532 92.3977 265.447 95.0051 268.873C109.589 268.958 124.107 266.904 138.095 262.777C149.153 259.93 160.714 259.645 171.899 261.943C183.083 264.241 193.595 269.062 202.634 276.038C211.674 283.014 219.001 291.962 224.059 302.199C229.116 312.435 231.77 323.692 231.818 335.11V311.55C231.736 291.707 223.796 272.705 209.736 258.703C195.676 244.701 176.641 236.84 156.798 236.84Z" fill="#DE926A"/>
<path d="M156.797 236.84C150.488 236.84 144.203 237.639 138.094 239.217C122.19 244.291 105.428 246.118 88.804 244.59C88.1499 248.886 88.3711 253.27 89.4543 257.479C90.5375 261.687 92.4604 265.633 95.1073 269.08C86.4815 281.568 81.8347 296.373 81.7773 311.55V350.816H231.817V311.55C231.735 291.707 223.795 272.705 209.735 258.703C195.675 244.701 176.64 236.84 156.797 236.84V236.84Z" stroke="#45413C" stroke-width="7" stroke-linecap="round" stroke-linejoin="round"/>
<path d="M84.3602 333.559C81.6758 334.299 79.2667 335.809 77.4305 337.903C75.5942 339.996 74.411 342.581 74.0269 345.339C73.8702 347.256 74.1114 349.184 74.7354 351.003C75.3594 352.822 76.3528 354.492 77.653 355.909C78.9533 357.325 80.5324 358.458 82.2912 359.235C84.0501 360.013 85.9506 360.418 87.8735 360.426H88.7002C91.0962 376.858 99.3273 391.879 111.888 402.741C124.449 413.604 140.501 419.582 157.107 419.582C173.713 419.582 189.764 413.604 202.325 402.741C214.886 391.879 223.118 376.858 225.514 360.426H226.34C229.815 360.666 233.248 359.558 235.927 357.332C238.605 355.106 240.323 351.933 240.722 348.473C241.121 345.013 240.171 341.533 238.07 338.755C235.969 335.977 232.878 334.116 229.44 333.559C198.44 327.462 181.494 294.706 181.08 293.982C180.254 294.912 154.834 334.489 84.3602 333.559Z" fill="#FFCEBF" stroke="#45413C" stroke-width="7" stroke-linecap="round" stroke-linejoin="round"/>
<path d="M120.422 349.37C120.422 350.74 120.966 352.054 121.935 353.023C122.904 353.992 124.218 354.536 125.589 354.536C126.959 354.536 128.273 353.992 129.242 353.023C130.211 352.054 130.755 350.74 130.755 349.37C130.755 348 130.211 346.685 129.242 345.716C128.273 344.747 126.959 344.203 125.589 344.203C124.218 344.203 122.904 344.747 121.935 345.716C120.966 346.685 120.422 348 120.422 349.37Z" fill="#45413C" stroke="#45413C" stroke-width="7" stroke-linecap="round" stroke-linejoin="round"/>
<path d="M193.169 349.37C193.143 350.732 192.59 352.031 191.627 352.994C190.663 353.957 189.365 354.51 188.003 354.536C186.632 354.536 185.318 353.992 184.349 353.023C183.38 352.054 182.836 350.74 182.836 349.37C182.836 348 183.38 346.685 184.349 345.716C185.318 344.747 186.632 344.203 188.003 344.203C189.373 344.203 190.687 344.747 191.656 345.716C192.625 346.685 193.169 348 193.169 349.37Z" fill="#45413C" stroke="#45413C" stroke-width="7" stroke-linecap="round" stroke-linejoin="round"/>
<path d="M105.129 371.276C105.129 372.345 105.837 373.37 107.096 374.126C108.356 374.882 110.064 375.306 111.846 375.306C113.627 375.306 115.335 374.882 116.595 374.126C117.855 373.37 118.562 372.345 118.562 371.276C118.562 370.207 117.855 369.182 116.595 368.426C115.335 367.671 113.627 367.246 111.846 367.246C110.064 367.246 108.356 367.671 107.096 368.426C105.837 369.182 105.129 370.207 105.129 371.276Z" fill="#FFB59E"/>
<path d="M194.926 371.276C194.926 372.345 195.633 373.37 196.893 374.126C198.153 374.882 199.861 375.306 201.642 375.306C203.424 375.306 205.132 374.882 206.392 374.126C207.651 373.37 208.359 372.345 208.359 371.276C208.359 370.207 207.651 369.182 206.392 368.426C205.132 367.671 203.424 367.246 201.642 367.246C199.861 367.246 198.153 367.671 196.893 368.426C195.633 369.182 194.926 370.207 194.926 371.276Z" fill="#FFB59E"/>
<path d="M139.332 390.393C144.195 394.473 150.467 396.477 156.795 395.973C163.123 396.477 169.396 394.473 174.259 390.393" stroke="#45413C" stroke-width="7" stroke-linecap="round" stroke-linejoin="round"/>
<path d="M440.963 416.641C434.32 410.686 428.669 403.709 424.223 395.974C415.956 381.714 396.426 378.511 388.47 391.221C381.546 402.174 385.576 415.504 403.866 422.221C410.03 424.423 416.643 425.065 423.116 424.092C429.588 423.118 435.719 420.558 440.963 416.641Z" fill="#A86C4D" stroke="#45413C" stroke-width="7" stroke-linecap="round" stroke-linejoin="round"/>
<path d="M429.905 482.049C422.909 463.565 410.452 447.649 394.19 436.416C377.928 425.184 358.633 419.168 338.869 419.168C319.105 419.168 299.809 425.184 283.548 436.416C267.286 447.649 254.828 463.565 247.832 482.049H429.905Z" fill="#401B97"/>
<path d="M338.869 447.639C353.011 447.62 366.987 450.69 379.82 456.633C392.653 462.577 404.033 471.251 413.165 482.049H429.905C422.909 463.565 410.452 447.649 394.19 436.416C377.928 425.184 358.633 419.168 338.869 419.168C319.105 419.168 299.809 425.184 283.548 436.416C267.286 447.649 254.828 463.565 247.832 482.049H264.675C273.778 471.243 285.138 462.561 297.956 456.616C310.774 450.672 324.739 447.607 338.869 447.639Z" fill="#21006E"/>
<path d="M429.905 482.049C422.909 463.565 410.452 447.649 394.19 436.416C377.928 425.184 358.633 419.168 338.869 419.168C319.105 419.168 299.809 425.184 283.548 436.416C267.286 447.649 254.828 463.565 247.832 482.049H429.905Z" stroke="#45413C" stroke-width="7" stroke-linecap="round" stroke-linejoin="round"/>
<path d="M319.648 386.156H358.088V452.29H319.648V386.156Z" fill="#FFCEBF"/>
<path d="M319.648 386.156H358.088V434.103H319.648V386.156Z" fill="#FFB59E"/>
<path d="M319.648 386.156H358.088V452.29H319.648V386.156Z" stroke="#45413C" stroke-width="7" stroke-linecap="round" stroke-linejoin="round"/>
<path d="M338.872 236.84C358.715 236.84 377.749 244.701 391.809 258.703C405.87 272.705 413.81 291.707 413.892 311.55V350.816H263.852V311.55C263.934 291.707 271.874 272.705 285.934 258.703C299.994 244.701 319.029 236.84 338.872 236.84Z" fill="#A86C4D"/>
<path d="M338.872 236.84C319.029 236.84 299.994 244.701 285.934 258.703C271.874 272.705 263.934 291.707 263.852 311.55V335.11C263.852 315.213 271.755 296.132 285.824 282.063C299.893 267.994 318.975 260.09 338.872 260.09C358.768 260.09 377.85 267.994 391.919 282.063C405.988 296.132 413.892 315.213 413.892 335.11V311.55C413.81 291.707 405.87 272.705 391.809 258.703C377.749 244.701 358.715 236.84 338.872 236.84Z" fill="#DE926A"/>
<path d="M338.872 236.84C319.029 236.84 299.994 244.701 285.934 258.703C271.874 272.705 263.934 291.707 263.852 311.55V350.816H413.892V311.55C413.81 291.707 405.87 272.705 391.809 258.703C377.749 244.701 358.715 236.84 338.872 236.84V236.84Z" stroke="#45413C" stroke-width="7" stroke-linecap="round" stroke-linejoin="round"/>
<path d="M421.949 345.339C421.565 342.581 420.382 339.996 418.545 337.903C416.709 335.809 414.3 334.299 411.616 333.559C397.084 334.257 382.643 330.931 369.88 323.948C357.118 316.966 346.53 306.596 339.282 293.982C332.043 306.604 321.457 316.98 308.693 323.964C295.928 330.948 281.482 334.269 266.949 333.559C263.511 334.116 260.42 335.977 258.319 338.755C256.218 341.533 255.268 345.013 255.667 348.473C256.067 351.933 257.784 355.106 260.462 357.332C263.141 359.558 266.574 360.666 270.049 360.426H270.876C273.272 376.858 281.503 391.879 294.064 402.741C306.625 413.604 322.676 419.582 339.282 419.582C355.888 419.582 371.94 413.604 384.501 402.741C397.062 391.879 405.293 376.858 407.689 360.426H408.516C410.403 360.362 412.259 359.916 413.969 359.114C415.679 358.312 417.208 357.171 418.464 355.76C419.721 354.35 420.677 352.699 421.276 350.907C421.875 349.116 422.104 347.222 421.949 345.339Z" fill="#FFCEBF" stroke="#45413C" stroke-width="7" stroke-linecap="round" stroke-linejoin="round"/>
<path d="M302.496 349.37C302.523 350.732 303.075 352.031 304.039 352.994C305.002 353.957 306.301 354.51 307.663 354.536C309.033 354.536 310.347 353.992 311.316 353.023C312.285 352.054 312.829 350.74 312.829 349.37C312.829 348 312.285 346.685 311.316 345.716C310.347 344.747 309.033 344.203 307.663 344.203C306.292 344.203 304.978 344.747 304.009 345.716C303.04 346.685 302.496 348 302.496 349.37Z" fill="#45413C" stroke="#45413C" stroke-width="7" stroke-linecap="round" stroke-linejoin="round"/>
<path d="M375.243 349.37C375.243 350.74 374.699 352.054 373.73 353.023C372.761 353.992 371.447 354.536 370.077 354.536C368.707 354.536 367.392 353.992 366.423 353.023C365.454 352.054 364.91 350.74 364.91 349.37C364.91 348 365.454 346.685 366.423 345.716C367.392 344.747 368.707 344.203 370.077 344.203C371.447 344.203 372.761 344.747 373.73 345.716C374.699 346.685 375.243 348 375.243 349.37Z" fill="#45413C" stroke="#45413C" stroke-width="7" stroke-linecap="round" stroke-linejoin="round"/>
<path d="M287.309 371.276C287.309 372.345 288.016 373.37 289.276 374.126C290.535 374.882 292.244 375.306 294.025 375.306C295.807 375.306 297.515 374.882 298.775 374.126C300.034 373.37 300.742 372.345 300.742 371.276C300.742 370.207 300.034 369.182 298.775 368.426C297.515 367.671 295.807 367.246 294.025 367.246C292.244 367.246 290.535 367.671 289.276 368.426C288.016 369.182 287.309 370.207 287.309 371.276Z" fill="#FFB59E"/>
<path d="M377.102 371.276C377.102 372.345 377.809 373.37 379.069 374.126C380.328 374.882 382.037 375.306 383.818 375.306C385.6 375.306 387.308 374.882 388.568 374.126C389.827 373.37 390.535 372.345 390.535 371.276C390.535 370.207 389.827 369.182 388.568 368.426C387.308 367.671 385.6 367.246 383.818 367.246C382.037 367.246 380.328 367.671 379.069 368.426C377.809 369.182 377.102 370.207 377.102 371.276Z" fill="#FFB59E"/>
<path d="M321.406 391.736C326.269 395.817 332.542 397.821 338.87 397.316C345.197 397.821 351.47 395.817 356.333 391.736" stroke="#45413C" stroke-width="7" stroke-linecap="round" stroke-linejoin="round"/>
</g>
<defs>
<clipPath id="clip0_1171_66396">
<rect width="496" height="496" fill="white"/>
</clipPath>
</defs>
</svg>
