<svg width="496" height="496" viewBox="0 0 496 496" fill="none" xmlns="http://www.w3.org/2000/svg">
<rect width="496" height="496" transform="matrix(-1 0 0 1 496 0)" fill="white"/>
<path d="M258 326H237.5V206H258V326ZM247.75 181.5C244.25 181.5 241.167 180.25 238.5 177.75C236 175.25 234.75 172.167 234.75 168.5C234.75 164.833 236 161.75 238.5 159.25C241.167 156.75 244.25 155.5 247.75 155.5C251.083 155.5 254 156.75 256.5 159.25C259.167 161.75 260.5 164.833 260.5 168.5C260.5 172.167 259.167 175.25 256.5 177.75C254 180.25 251.083 181.5 247.75 181.5Z" fill="black"/>
</svg>
