<svg width="495" height="495" viewBox="0 0 495 495" fill="none" xmlns="http://www.w3.org/2000/svg">
<path d="M444.38 332.598V383.335C444.38 423.863 356.002 456.657 246.998 456.657C137.995 456.657 49.6172 423.863 49.6172 383.335V332.598H444.38Z" fill="#DEBB7E"/>
<path d="M49.6172 355.182C49.6172 395.607 137.995 428.504 246.998 428.504C356.002 428.504 444.38 395.607 444.38 355.182V332.598H49.6172V355.182Z" fill="#B89558"/>
<path d="M444.38 332.598V383.335C444.38 423.863 356.002 456.657 246.998 456.657C137.995 456.657 49.6172 423.863 49.6172 383.335V332.598H444.38Z" stroke="#45413C" stroke-width="7" stroke-linecap="round" stroke-linejoin="round"/>
<path d="M247.002 399.938C490.171 399.938 484.19 321.047 455.624 276.188C427.471 236.794 362.193 202.969 247.002 202.969C131.812 202.969 66.5334 236.794 38.3803 276.188C9.81465 321.356 3.8334 399.938 247.002 399.938Z" fill="#BF8256" stroke="#45413C" stroke-width="7" stroke-linecap="round" stroke-linejoin="round"/>
<path d="M444.381 253.707C444.381 253.707 478.206 264.948 478.206 298.773C478.206 332.598 433.038 304.445 416.331 315.685C399.625 326.926 412.103 352.81 388.178 360.854C354.353 372.095 336.616 339.507 314.856 343.941C286.703 349.51 297.944 377.766 247.206 377.766C196.469 377.766 207.709 349.51 179.556 343.941C157.384 339.507 140.059 372.095 106.234 360.854C82 352.81 94.7875 327.029 77.875 315.685C60.9625 304.341 16 332.598 16 298.773C16 264.948 49.825 253.707 49.825 253.707H444.381Z" fill="#6DD627" stroke="#45413C" stroke-width="7" stroke-linecap="round" stroke-linejoin="round"/>
<path d="M438.711 287.943H342.805V321.356C342.805 327.346 345.184 333.09 349.419 337.325C353.655 341.561 359.399 343.94 365.389 343.94H376.63V369C376.991 373.991 379.228 378.66 382.892 382.068C386.556 385.477 391.374 387.372 396.378 387.372C401.382 387.372 406.201 385.477 409.864 382.068C413.528 378.66 415.766 373.991 416.127 369V326.718C422.116 326.718 427.861 324.339 432.096 320.104C436.331 315.868 438.711 310.124 438.711 304.134V287.943Z" fill="#FFE500" stroke="#45413C" stroke-width="7" stroke-linecap="round" stroke-linejoin="round"/>
<path d="M247.002 321.356C490.171 321.356 484.19 242.362 455.624 197.606C427.471 157.8 362.193 123.975 247.002 123.975C131.812 123.975 66.5334 157.8 38.3803 197.296C9.81465 242.362 3.8334 321.356 247.002 321.356Z" fill="#BF8256" stroke="#45413C" stroke-width="7" stroke-linecap="round" stroke-linejoin="round"/>
<path d="M444.381 174.713C444.381 174.713 478.206 186.057 478.206 219.882C478.206 253.707 433.038 225.45 416.331 236.794C399.625 248.138 412.103 273.919 388.178 281.86C354.353 293.1 336.616 260.513 314.856 264.947C286.703 270.619 297.944 298.772 247.206 298.772C196.469 298.772 207.709 270.619 179.556 264.947C157.384 260.513 140.059 293.1 106.234 281.86C82 273.919 94.7875 248.035 77.875 236.794C60.9625 225.554 16 253.707 16 219.882C16 186.057 49.825 174.713 49.825 174.713H444.381Z" fill="#6DD627" stroke="#45413C" stroke-width="7" stroke-linecap="round" stroke-linejoin="round"/>
<path d="M72.2024 197.297C72.2024 197.297 53.4337 236.279 94.7868 248.035C134.284 259.275 173.677 225.45 207.502 225.45C241.327 225.45 272.987 275.363 314.649 264.947C359.715 253.707 337.234 231.122 365.387 219.882C393.54 208.641 489.137 248.035 433.037 180.385L72.2024 197.297Z" fill="#FF6242" stroke="#45413C" stroke-width="7" stroke-linecap="round" stroke-linejoin="round"/>
<path d="M275.155 231.121H179.352V259.274C179.352 265.264 181.731 271.008 185.966 275.244C190.202 279.479 195.946 281.859 201.936 281.859H213.177V307.124C212.98 309.838 213.345 312.562 214.249 315.128C215.153 317.694 216.575 320.047 218.428 322.039C220.281 324.03 222.525 325.619 225.019 326.705C227.513 327.792 230.205 328.352 232.925 328.352C235.645 328.352 238.337 327.792 240.831 326.705C243.325 325.619 245.569 324.03 247.422 322.039C249.275 320.047 250.697 317.694 251.601 315.128C252.505 312.562 252.87 309.838 252.673 307.124V264.843C258.645 264.816 264.363 262.424 268.576 258.192C272.79 253.959 275.155 248.231 275.155 242.259V231.121Z" fill="#FFE500" stroke="#45413C" stroke-width="7" stroke-linecap="round" stroke-linejoin="round"/>
<path d="M444.38 169.144C444.38 209.569 356.002 242.362 246.998 242.362C137.995 242.362 49.6172 209.569 49.6172 169.144C49.6172 169.144 61.3734 39 246.998 39C432.623 39 444.38 169.144 444.38 169.144Z" fill="#F0D5A8"/>
<path d="M246.998 202.968C154.186 202.968 75.7078 178.94 55.0828 146.662C52.4422 153.933 50.6094 161.472 49.6172 169.143C49.6172 209.568 137.995 242.362 246.998 242.362C356.002 242.362 444.38 209.568 444.38 169.143C443.388 161.472 441.555 153.933 438.914 146.662C418.289 178.94 339.811 202.968 246.998 202.968Z" fill="#DEBB7E"/>
<path d="M444.38 169.144C444.38 209.569 356.002 242.362 246.998 242.362C137.995 242.362 49.6172 209.569 49.6172 169.144C49.6172 169.144 61.3734 39 246.998 39C432.623 39 444.38 169.144 444.38 169.144Z" stroke="#45413C" stroke-width="7" stroke-linecap="round" stroke-linejoin="round"/>
<path d="M131.292 99.1212C128.406 99.9007 125.948 101.795 124.459 104.386C122.97 106.978 122.571 110.055 123.351 112.94C124.13 115.825 126.024 118.283 128.616 119.772C131.207 121.261 134.284 121.66 137.17 120.881L148.101 117.993C149.53 117.607 150.868 116.944 152.041 116.04C153.213 115.137 154.196 114.011 154.933 112.728C155.671 111.445 156.148 110.029 156.338 108.562C156.528 107.094 156.428 105.603 156.042 104.174C155.656 102.746 154.992 101.407 154.089 100.235C153.185 99.0623 152.06 98.0795 150.777 97.3421C149.494 96.6047 148.078 96.1274 146.61 95.9372C145.142 95.747 143.652 95.8478 142.223 96.2337L131.292 99.1212Z" fill="#DEBB7E" stroke="#45413C" stroke-width="7" stroke-linecap="round" stroke-linejoin="round"/>
<path d="M197.293 129.647C196.062 132.382 195.968 135.494 197.032 138.298C198.096 141.102 200.23 143.369 202.965 144.6C205.7 145.831 208.812 145.925 211.616 144.861C214.42 143.797 216.687 141.663 217.918 138.928L222.559 128.616C223.175 127.261 223.518 125.799 223.569 124.312C223.62 122.825 223.378 121.343 222.856 119.949C222.334 118.556 221.543 117.279 220.527 116.192C219.512 115.104 218.292 114.227 216.938 113.611C215.584 112.995 214.122 112.651 212.635 112.6C211.148 112.549 209.665 112.792 208.272 113.314C206.879 113.836 205.602 114.627 204.514 115.642C203.427 116.657 202.55 117.877 201.934 119.231L197.293 129.647Z" fill="#DEBB7E" stroke="#45413C" stroke-width="7" stroke-linecap="round" stroke-linejoin="round"/>
<path d="M362.703 99.1212C364.131 99.5072 365.47 100.171 366.642 101.074C367.815 101.977 368.797 103.103 369.535 104.386C370.272 105.669 370.75 107.085 370.94 108.553C371.13 110.02 371.029 111.511 370.643 112.94C370.257 114.369 369.594 115.707 368.69 116.88C367.787 118.052 366.662 119.035 365.378 119.772C364.095 120.51 362.679 120.987 361.212 121.177C359.744 121.367 358.253 121.267 356.824 120.881L345.893 117.993C344.464 117.607 343.126 116.944 341.953 116.04C340.781 115.137 339.798 114.011 339.061 112.728C338.324 111.445 337.846 110.029 337.656 108.562C337.466 107.094 337.567 105.603 337.953 104.174C338.338 102.746 339.002 101.407 339.905 100.235C340.809 99.0623 341.934 98.0795 343.217 97.3421C344.501 96.6047 345.916 96.1274 347.384 95.9372C348.852 95.747 350.343 95.8478 351.771 96.2337L362.703 99.1212Z" fill="#DEBB7E" stroke="#45413C" stroke-width="7" stroke-linecap="round" stroke-linejoin="round"/>
</svg>
