<svg width="537" height="495" viewBox="0 0 537 495" fill="none" xmlns="http://www.w3.org/2000/svg">
<path d="M205.594 317.121C205.594 333.948 200.181 350.397 190.039 364.388C179.897 378.379 165.482 389.284 148.617 395.723C131.752 402.162 113.195 403.847 95.2907 400.564C77.3869 397.282 60.9411 389.179 48.0332 377.28C35.1252 365.382 26.3348 350.223 22.7735 333.719C19.2122 317.215 21.04 300.109 28.0257 284.563C35.0115 269.017 46.8414 255.73 62.0195 246.381C77.1977 237.033 95.0423 232.043 113.297 232.043C125.418 232.043 137.419 234.244 148.617 238.519C159.815 242.795 169.99 249.062 178.561 256.962C187.131 264.862 193.93 274.241 198.568 284.563C203.206 294.885 205.594 305.948 205.594 317.121Z" fill="#656769"/>
<path d="M113.297 256.38C135.472 256.415 156.894 263.798 173.654 277.183C190.413 290.568 201.392 309.062 204.587 329.29C205.205 325.258 205.541 321.193 205.594 317.121C205.594 294.557 195.87 272.917 178.561 256.962C161.252 241.007 137.776 232.043 113.297 232.043C88.8182 232.043 65.3422 241.007 48.0331 256.962C30.7241 272.917 21 294.557 21 317.121C21.0529 321.193 21.3892 325.258 22.0069 329.29C25.2016 309.062 36.1806 290.568 52.9401 277.183C69.6996 263.798 91.1218 256.415 113.297 256.38Z" fill="#87898C"/>
<path d="M205.594 317.121C205.594 333.948 200.181 350.397 190.039 364.388C179.897 378.379 165.482 389.284 148.617 395.723C131.752 402.162 113.195 403.847 95.2907 400.564C77.3869 397.282 60.9411 389.179 48.0332 377.28C35.1252 365.382 26.3348 350.223 22.7735 333.719C19.2122 317.215 21.04 300.109 28.0257 284.563C35.0115 269.017 46.8414 255.73 62.0195 246.381C77.1977 237.033 95.0423 232.043 113.297 232.043C125.418 232.043 137.419 234.244 148.617 238.519C159.815 242.795 169.99 249.062 178.561 256.962C187.131 264.862 193.93 274.241 198.568 284.563C203.206 294.885 205.594 305.948 205.594 317.121V317.121Z" stroke="#45413C" stroke-width="7" stroke-linecap="round" stroke-linejoin="round"/>
<path d="M516.047 317.121C516.047 333.948 510.634 350.397 500.492 364.388C490.35 378.379 475.936 389.284 459.071 395.723C442.205 402.162 423.648 403.847 405.744 400.564C387.84 397.282 371.394 389.179 358.486 377.28C345.578 365.382 336.788 350.223 333.227 333.719C329.665 317.215 331.493 300.109 338.479 284.563C345.465 269.017 357.295 255.73 372.473 246.381C387.651 237.033 405.495 232.043 423.75 232.043C448.229 232.043 471.705 241.007 489.014 256.962C506.323 272.917 516.047 294.557 516.047 317.121Z" fill="#656769"/>
<path d="M423.75 256.38C445.925 256.415 467.347 263.798 484.107 277.183C500.866 290.568 511.845 309.062 515.04 329.29C515.658 325.258 515.994 321.193 516.047 317.121C516.047 294.557 506.323 272.917 489.014 256.962C471.705 241.007 448.229 232.043 423.75 232.043C399.271 232.043 375.795 241.007 358.486 256.962C341.177 272.917 331.453 294.557 331.453 317.121C331.506 321.193 331.842 325.258 332.46 329.29C335.655 309.062 346.634 290.568 363.393 277.183C380.153 263.798 401.575 256.415 423.75 256.38Z" fill="#87898C"/>
<path d="M516.047 317.121C516.047 333.948 510.634 350.397 500.492 364.388C490.35 378.379 475.936 389.284 459.071 395.723C442.205 402.162 423.648 403.847 405.744 400.564C387.84 397.282 371.394 389.179 358.486 377.28C345.578 365.382 336.788 350.223 333.227 333.719C329.665 317.215 331.493 300.109 338.479 284.563C345.465 269.017 357.295 255.73 372.473 246.381C387.651 237.033 405.495 232.043 423.75 232.043C448.229 232.043 471.705 241.007 489.014 256.962C506.323 272.917 516.047 294.557 516.047 317.121V317.121Z" stroke="#45413C" stroke-width="7" stroke-linecap="round" stroke-linejoin="round"/>
<path d="M483.045 316.605C483.045 327.415 479.567 337.983 473.052 346.971C466.536 355.959 457.276 362.964 446.442 367.101C435.607 371.238 423.685 372.32 412.183 370.212C400.681 368.103 390.116 362.897 381.824 355.253C373.531 347.609 367.884 337.871 365.596 327.268C363.309 316.666 364.483 305.677 368.971 295.689C373.458 285.702 381.058 277.166 390.809 271.16C400.56 265.155 412.024 261.949 423.751 261.949C439.476 261.949 454.558 267.708 465.678 277.958C476.798 288.208 483.045 302.11 483.045 316.605Z" fill="#E8F4FA"/>
<path d="M423.751 286.184C437.179 286.224 450.196 290.456 460.679 298.191C471.163 305.926 478.494 316.706 481.478 328.774C482.515 324.788 483.041 320.704 483.045 316.605C483.045 302.11 476.798 288.208 465.678 277.958C454.558 267.708 439.476 261.949 423.751 261.949C408.025 261.949 392.944 267.708 381.824 277.958C370.704 288.208 364.457 302.11 364.457 316.605C364.461 320.704 364.987 324.788 366.023 328.774C369.007 316.706 376.339 305.926 386.822 298.191C397.306 290.456 410.323 286.224 423.751 286.184Z" fill="#C0DCEB"/>
<path d="M483.045 316.605C483.045 327.415 479.567 337.983 473.052 346.971C466.536 355.959 457.276 362.964 446.442 367.101C435.607 371.238 423.685 372.32 412.183 370.212C400.681 368.103 390.116 362.897 381.824 355.253C373.531 347.609 367.884 337.871 365.596 327.268C363.309 316.666 364.483 305.677 368.971 295.689C373.458 285.702 381.058 277.166 390.809 271.16C400.56 265.155 412.024 261.949 423.751 261.949C439.476 261.949 454.558 267.708 465.678 277.958C476.798 288.208 483.045 302.11 483.045 316.605V316.605Z" stroke="#45413C" stroke-width="7" stroke-linecap="round" stroke-linejoin="round"/>
<path d="M394.328 364.044L453.622 269.375" stroke="#45413C" stroke-width="7" stroke-linecap="round" stroke-linejoin="round"/>
<path d="M453.173 364.044L393.879 269.375" stroke="#45413C" stroke-width="7" stroke-linecap="round" stroke-linejoin="round"/>
<path d="M172.814 317.121C172.814 327.931 169.337 338.498 162.821 347.486C156.306 356.475 147.046 363.48 136.211 367.617C125.377 371.754 113.455 372.836 101.953 370.727C90.4508 368.618 79.8857 363.413 71.5933 355.769C63.3009 348.125 57.6538 338.386 55.3659 327.784C53.078 317.182 54.2523 306.192 58.7401 296.205C63.2279 286.218 70.8277 277.682 80.5785 271.676C90.3293 265.67 101.793 262.465 113.52 262.465C121.307 262.465 129.017 263.879 136.211 266.625C143.405 269.372 149.941 273.398 155.447 278.473C160.953 283.549 165.321 289.574 168.301 296.205C171.28 302.836 172.814 309.944 172.814 317.121Z" fill="#E8F4FA"/>
<path d="M113.52 286.184C126.998 286.211 140.065 290.462 150.576 298.239C161.086 306.016 168.415 316.857 171.36 328.98C172.304 325.087 172.792 321.111 172.814 317.121C172.814 302.625 166.567 288.723 155.447 278.473C144.328 268.223 129.246 262.465 113.52 262.465C97.7946 262.465 82.713 268.223 71.5933 278.473C60.4736 288.723 54.2266 302.625 54.2266 317.121C54.2491 321.111 54.7367 325.087 55.6809 328.98C58.6252 316.857 65.9544 306.016 76.4649 298.239C86.9754 290.462 100.043 286.211 113.52 286.184Z" fill="#C0DCEB"/>
<path d="M172.814 317.121C172.814 327.931 169.337 338.498 162.821 347.486C156.306 356.475 147.046 363.48 136.211 367.617C125.377 371.754 113.455 372.836 101.953 370.727C90.4508 368.618 79.8857 363.413 71.5933 355.769C63.3009 348.125 57.6538 338.386 55.3659 327.784C53.078 317.182 54.2523 306.192 58.7401 296.205C63.2279 286.218 70.8277 277.682 80.5785 271.676C90.3293 265.67 101.793 262.465 113.52 262.465C121.307 262.465 129.017 263.879 136.211 266.625C143.405 269.372 149.941 273.398 155.447 278.473C160.953 283.549 165.321 289.574 168.301 296.205C171.28 302.836 172.814 309.944 172.814 317.121V317.121Z" stroke="#45413C" stroke-width="7" stroke-linecap="round" stroke-linejoin="round"/>
<path d="M83.875 364.456L143.169 269.787" stroke="#45413C" stroke-width="7" stroke-linecap="round" stroke-linejoin="round"/>
<path d="M143.169 364.456L83.875 269.787" stroke="#45413C" stroke-width="7" stroke-linecap="round" stroke-linejoin="round"/>
<path d="M343.422 143.666V165.734H181.315C181.315 162.744 181.986 159.856 182.098 156.866L185.231 109.016C185.338 107.358 185.075 105.698 184.46 104.137C183.844 102.576 182.889 101.148 181.652 99.9405C180.416 98.7329 178.924 97.7714 177.269 97.1153C175.614 96.4591 173.831 96.1221 172.029 96.125H96.5137C93.0126 96.125 89.6548 97.4071 87.1791 99.6892C84.7033 101.971 83.3125 105.066 83.3125 108.294C83.3125 111.521 84.7033 114.616 87.1791 116.898C89.6548 119.18 93.0126 120.463 96.5137 120.463H150.885C151.795 120.461 152.697 120.631 153.534 120.961C154.371 121.291 155.126 121.775 155.754 122.383C156.382 122.991 156.869 123.71 157.186 124.496C157.503 125.283 157.643 126.121 157.598 126.959L155.808 155.525C152.244 210.628 133.742 264.026 101.996 310.831C100.837 312.182 100.003 313.745 99.5487 315.415C99.094 317.085 99.0292 318.825 99.3584 320.521C99.6876 322.216 100.403 323.827 101.458 325.248C102.513 326.669 103.884 327.868 105.478 328.765C107.073 329.662 108.856 330.236 110.71 330.45C112.564 330.665 114.446 330.514 116.231 330.008C118.017 329.502 119.666 328.653 121.069 327.516C122.472 326.379 123.597 324.98 124.371 323.413C146.853 290.013 163.219 253.43 172.812 215.131C173.101 214.071 173.699 213.103 174.541 212.334C175.384 211.565 176.439 211.024 177.593 210.768C178.746 210.513 179.953 210.554 181.082 210.887C182.212 211.22 183.221 211.832 184 212.656L278.534 324.547C279.784 325.994 281.364 327.169 283.162 327.989C284.961 328.809 286.933 329.253 288.939 329.291H423.748C425.95 329.294 428.118 328.79 430.055 327.823C431.992 326.857 433.635 325.46 434.836 323.758C436.037 322.057 436.757 320.105 436.931 318.081C437.105 316.058 436.727 314.026 435.831 312.172L369.824 175.325V143.666H343.422ZM332.234 198.631L286.366 293.609L207.27 199.869C206.516 198.967 206.052 197.887 205.931 196.754C205.809 195.621 206.035 194.479 206.583 193.458C207.131 192.437 207.979 191.579 209.03 190.98C210.081 190.382 211.293 190.067 212.528 190.072H326.193C327.294 190.07 328.378 190.322 329.347 190.805C330.315 191.289 331.137 191.987 331.737 192.838C332.338 193.689 332.698 194.665 332.785 195.676C332.871 196.688 332.682 197.704 332.234 198.631ZM309.859 304.953L356.623 207.913L403.387 304.953H309.859Z" fill="#6DD627" stroke="#45413C" stroke-width="7" stroke-linecap="round" stroke-linejoin="round"/>
<path d="M323.063 316.605C323.063 322.724 321.094 328.706 317.406 333.793C313.718 338.881 308.477 342.846 302.344 345.188C296.211 347.53 289.463 348.142 282.952 346.949C276.442 345.755 270.462 342.808 265.768 338.482C261.074 334.155 257.877 328.642 256.582 322.641C255.287 316.64 255.952 310.419 258.492 304.766C261.033 299.113 265.334 294.281 270.854 290.882C276.373 287.482 282.862 285.668 289.5 285.668C298.401 285.668 306.938 288.927 313.232 294.729C319.526 300.531 323.063 308.4 323.063 316.605Z" fill="#DAEDF7"/>
<path d="M289.5 304.952C296.558 304.979 303.428 307.056 309.132 310.888C314.836 314.721 319.084 320.113 321.272 326.299C322.383 323.167 322.986 319.9 323.062 316.605C323.062 308.4 319.526 300.531 313.232 294.729C306.938 288.927 298.401 285.668 289.5 285.668C280.599 285.668 272.062 288.927 265.768 294.729C259.474 300.531 255.938 308.4 255.938 316.605C256.014 319.9 256.617 323.167 257.727 326.299C259.916 320.113 264.164 314.721 269.868 310.888C275.572 307.056 282.442 304.979 289.5 304.952Z" fill="#E8F4FA"/>
<path d="M255.938 316.605C255.938 324.811 259.474 332.68 265.768 338.482C272.062 344.283 280.599 347.543 289.5 347.543C298.401 347.543 306.938 344.283 313.232 338.482C319.526 332.68 323.062 324.811 323.062 316.605C323.062 308.4 319.526 300.531 313.232 294.729C306.938 288.927 298.401 285.668 289.5 285.668C280.599 285.668 272.062 288.927 265.768 294.729C259.474 300.531 255.938 308.4 255.938 316.605V316.605Z" stroke="#45413C" stroke-width="7" stroke-linecap="round" stroke-linejoin="round"/>
<path d="M297.218 143.665H402.828C426.77 143.665 428.112 101.074 402.828 101.074C377.545 101.074 342.304 114.79 317.02 113.449C270.592 110.459 281.556 143.665 297.218 143.665Z" fill="#DEBB7E"/>
<path d="M317.023 127.68C342.307 128.402 377.547 121.184 402.831 121.184C406.235 120.74 409.705 121.215 412.822 122.551C415.94 123.887 418.57 126.027 420.396 128.712C423.528 116.44 418.046 101.074 402.831 101.074C377.547 101.074 342.307 114.79 317.023 113.243C287.488 111.49 281.223 124.174 284.467 133.868C287.152 130.052 296.326 126.959 317.023 127.68Z" fill="#F0D5A8"/>
<path d="M402.828 143.666C404.3 143.66 405.765 143.487 407.191 143.15C405.756 143.437 404.296 143.609 402.828 143.666Z" fill="#F0D5A8"/>
<path d="M297.218 143.665H402.828C426.77 143.665 428.112 101.074 402.828 101.074C377.545 101.074 342.304 114.79 317.02 113.449C270.592 110.459 281.556 143.665 297.218 143.665Z" stroke="#45413C" stroke-width="7"/>
<path d="M106.922 92H82.9807C71.0987 92.0911 59.5663 95.717 50.1004 102.338C40.6345 108.959 33.7413 118.22 30.4471 128.744C27.1529 139.268 27.6337 150.491 31.8181 160.742C36.0025 170.994 43.6666 179.725 53.6695 185.638L62.9551 191C64.9017 192.097 67.0637 192.83 69.3176 193.157C71.5714 193.483 73.8731 193.398 76.091 192.904C78.309 192.411 80.3998 191.52 82.2442 190.282C84.0886 189.044 85.6504 187.483 86.8404 185.689C88.0304 183.895 88.8254 181.902 89.1799 179.824C89.5344 177.747 89.4414 175.625 88.9064 173.581C88.3714 171.536 87.4048 169.609 86.0617 167.909C84.7187 166.208 83.0255 164.769 81.0788 163.672L70.8982 158.103C66.9675 155.875 63.9353 152.524 62.264 148.559C60.5928 144.595 60.3743 140.235 61.642 136.145C62.9096 132.056 65.5937 128.46 69.2849 125.908C72.976 123.356 77.4716 121.987 82.0857 122.009H106.922C110.423 122.009 113.781 120.727 116.257 118.445C118.732 116.163 120.123 113.068 120.123 109.841V104.169C120.123 100.941 118.732 97.8462 116.257 95.5641C113.781 93.2821 110.423 92 106.922 92Z" fill="#DEBB7E"/>
<path d="M106.918 92H82.9772C68.3197 92 54.2625 97.3673 43.8981 106.921C33.5336 116.475 27.7109 129.433 27.7109 142.944C27.7315 145.987 28.0309 149.022 28.6059 152.019C31.0515 140.388 37.8181 129.907 47.7416 122.378C57.6651 114.849 70.1249 110.744 82.9772 110.769H106.918C109.196 110.798 111.427 111.374 113.389 112.441C115.351 113.509 116.977 115.029 118.106 116.853C119.282 115.009 119.9 112.908 119.896 110.769V104.169C119.896 100.977 118.536 97.9125 116.109 95.6362C113.681 93.36 110.381 92.0541 106.918 92Z" fill="#F0D5A8"/>
<path d="M106.922 92H82.9807C71.0987 92.0911 59.5663 95.717 50.1004 102.338C40.6345 108.959 33.7413 118.22 30.4471 128.744C27.1529 139.268 27.6337 150.491 31.8181 160.742C36.0025 170.994 43.6666 179.725 53.6695 185.638L62.9551 191C64.9017 192.097 67.0637 192.83 69.3176 193.157C71.5714 193.483 73.8731 193.398 76.091 192.904C78.309 192.411 80.3998 191.52 82.2442 190.282C84.0886 189.044 85.6504 187.483 86.8404 185.689C88.0304 183.895 88.8254 181.902 89.1799 179.824C89.5344 177.747 89.4414 175.625 88.9064 173.581C88.3714 171.536 87.4048 169.609 86.0617 167.909C84.7187 166.208 83.0255 164.769 81.0788 163.672L70.8982 158.103C66.9675 155.875 63.9353 152.524 62.264 148.559C60.5928 144.595 60.3743 140.235 61.642 136.145C62.9096 132.056 65.5937 128.46 69.2849 125.908C72.976 123.356 77.4716 121.987 82.0857 122.009H106.922C110.423 122.009 113.781 120.727 116.257 118.445C118.732 116.163 120.123 113.068 120.123 109.841V104.169C120.123 100.941 118.732 97.8462 116.257 95.5641C113.781 93.2821 110.423 92 106.922 92V92Z" stroke="#45413C" stroke-width="7" stroke-linecap="round" stroke-linejoin="round"/>
</svg>
