<svg width="495" height="495" viewBox="0 0 495 495" fill="none" xmlns="http://www.w3.org/2000/svg">
<path d="M51.75 173.977H320.75V382.977H51.75V173.977Z" fill="#FFE500"/>
<path d="M296.45 174.688H74.9375C66.7324 174.688 58.8633 177.948 53.0614 183.75C47.2595 189.551 44 197.421 44 205.626V246.876C44 238.671 47.2595 230.801 53.0614 225C58.8633 219.198 66.7324 215.938 74.9375 215.938H296.656C304.861 215.938 312.73 219.198 318.532 225C324.334 230.801 327.594 238.671 327.594 246.876V205.626C327.594 201.546 326.787 197.506 325.219 193.739C323.652 189.972 321.354 186.552 318.46 183.676C315.565 180.801 312.13 178.526 308.353 176.984C304.575 175.441 300.53 174.661 296.45 174.688Z" fill="#FFF48C"/>
<path d="M46.75 173.977H322.75V383.977H46.75V173.977Z" stroke="#45413C" stroke-width="7" stroke-linecap="round" stroke-linejoin="round"/>
<path d="M180.591 18.0002C151.233 18.082 123.104 29.7947 102.365 50.573C81.6249 71.3514 69.9647 99.5019 69.9375 128.86V172.688H116.344V128.86C116.344 111.766 123.134 95.3716 135.222 83.2843C147.309 71.197 163.703 64.4064 180.797 64.4064C197.891 64.4064 214.285 71.197 226.372 83.2843C238.459 95.3716 245.25 111.766 245.25 128.86V172.688H291.656V128.86C291.656 114.284 288.782 99.8514 283.198 86.3878C277.614 72.9243 269.43 60.6941 259.113 50.3971C248.797 40.1002 236.552 31.9387 223.078 26.3796C209.604 20.8205 195.166 17.9731 180.591 18.0002Z" fill="#DAEDF7"/>
<path d="M180.591 18.0002C151.233 18.082 123.104 29.7947 102.365 50.573C81.6249 71.3514 69.9647 99.5019 69.9375 128.86V154.641C69.9375 125.239 81.6173 97.0416 102.407 76.2514C123.198 55.4612 151.395 43.7814 180.797 43.7814C210.199 43.7814 238.396 55.4612 259.186 76.2514C279.976 97.0416 291.656 125.239 291.656 154.641V128.86C291.656 114.284 288.782 99.8514 283.198 86.3878C277.614 72.9243 269.43 60.6941 259.113 50.3971C248.797 40.1002 236.552 31.9387 223.078 26.3796C209.604 20.8205 195.166 17.9731 180.591 18.0002Z" fill="white"/>
<path d="M180.591 18.0002C151.233 18.082 123.104 29.7947 102.365 50.573C81.6249 71.3514 69.9647 99.5019 69.9375 128.86V172.688H116.344V128.86C116.344 111.766 123.134 95.3716 135.222 83.2843C147.309 71.197 163.703 64.4064 180.797 64.4064C197.891 64.4064 214.285 71.197 226.372 83.2843C238.459 95.3716 245.25 111.766 245.25 128.86V172.688H291.656V128.86C291.656 114.284 288.782 99.8514 283.198 86.3878C277.614 72.9243 269.43 60.6941 259.113 50.3971C248.797 40.1002 236.552 31.9387 223.078 26.3796C209.604 20.8205 195.166 17.9731 180.591 18.0002V18.0002Z" stroke="#45413C" stroke-width="7" stroke-linecap="round" stroke-linejoin="round"/>
<path d="M429.024 251.475C416.121 238.606 399.088 230.707 380.929 229.17C362.77 227.633 344.652 232.558 329.769 243.076C314.887 253.593 304.196 269.028 299.583 286.658C294.969 304.289 296.729 322.982 304.552 339.441L206.481 437.1C205.392 438.182 204.558 439.494 204.041 440.939C203.524 442.384 203.335 443.926 203.49 445.454L205.759 465.15C206.001 467.484 207.033 469.666 208.683 471.335C210.333 473.003 212.502 474.059 214.834 474.328L234.531 476.494C236.074 476.665 237.637 476.484 239.101 475.966C240.565 475.448 241.893 474.607 242.987 473.503L254.64 461.85C255.596 460.887 256.352 459.744 256.865 458.488C257.378 457.231 257.638 455.886 257.631 454.528L263.75 450.976L267.943 444.216C269.3 444.224 270.646 443.964 271.902 443.451C273.159 442.937 274.301 442.181 275.265 441.225L284.443 432.047C285.399 431.084 286.155 429.941 286.668 428.684C287.181 427.428 287.442 426.083 287.434 424.725L293.25 422.976C293.289 420.255 293.807 420.88 295.75 418.976L302.696 412.476L310.75 405.476C311.705 404.501 312.993 402.007 314.25 401.476C315.507 400.945 314.635 399.481 315.999 399.476L315.999 396.16C317.356 396.168 318.702 395.907 319.958 395.394C321.215 394.881 322.358 394.125 323.321 393.169L341.059 375.432C357.436 382.95 375.925 384.514 393.333 379.853C410.741 375.193 425.975 364.599 436.404 349.903C446.833 335.206 451.803 317.329 450.456 299.359C449.109 281.388 441.528 264.452 429.024 251.475ZM392.621 287.982C391.101 286.565 389.882 284.858 389.037 282.96C388.191 281.063 387.737 279.014 387.7 276.937C387.664 274.86 388.046 272.797 388.824 270.871C389.602 268.945 390.76 267.195 392.229 265.726C393.697 264.258 395.447 263.1 397.373 262.322C399.299 261.544 401.362 261.161 403.439 261.198C405.516 261.235 407.565 261.689 409.462 262.535C411.36 263.38 413.068 264.599 414.484 266.119C417.216 269.051 418.704 272.93 418.633 276.937C418.562 280.945 416.939 284.768 414.105 287.603C411.271 290.437 407.447 292.06 403.439 292.131C399.432 292.202 395.554 290.714 392.621 287.982Z" fill="#FFAA54"/>
<path d="M319.605 283.96C329.32 274.291 341.422 267.366 354.68 263.888C367.939 260.41 381.882 260.504 395.092 264.16C398.029 262.168 401.565 261.255 405.099 261.575C408.633 261.894 411.948 263.427 414.48 265.913C416.962 268.479 418.46 271.839 418.708 275.4C422.376 277.964 425.825 280.827 429.02 283.96C439.457 294.486 446.62 307.811 449.645 322.322C452.128 311.039 452.048 299.343 449.411 288.095C446.775 276.847 441.648 266.333 434.41 257.329C427.172 248.325 418.006 241.059 407.587 236.066C397.168 231.074 385.762 228.482 374.209 228.482C362.656 228.482 351.25 231.074 340.832 236.066C330.413 241.059 321.247 248.325 314.009 257.329C306.77 266.333 301.644 276.847 299.007 288.095C296.371 299.343 296.291 311.039 298.773 322.322C301.906 307.806 309.136 294.492 319.605 283.96Z" fill="#FFCC99"/>
<path d="M207.099 469.48L304.552 371.924C300.782 363.829 298.444 355.141 297.643 346.246L206.481 437.099C205.392 438.181 204.558 439.493 204.041 440.938C203.524 442.383 203.335 443.925 203.49 445.452L205.759 465.149C205.841 466.682 206.301 468.17 207.099 469.48Z" fill="#FFCC99"/>
<path d="M392.379 288.462C390.859 287.046 389.64 285.338 388.795 283.441C387.949 281.543 387.495 279.495 387.458 277.418C387.421 275.341 387.803 273.278 388.581 271.352C389.359 269.425 390.517 267.676 391.986 266.207C393.455 264.738 395.205 263.58 397.131 262.802C399.057 262.024 401.12 261.642 403.197 261.679C405.274 261.715 407.323 262.17 409.22 263.015C411.118 263.861 412.825 265.08 414.241 266.6C416.974 269.532 418.461 273.41 418.391 277.418C418.32 281.425 416.697 285.249 413.862 288.083C411.028 290.917 407.205 292.541 403.197 292.611C399.19 292.682 395.311 291.194 392.379 288.462Z" stroke="#45413C" stroke-width="7" stroke-linecap="round" stroke-linejoin="round"/>
<path d="M206.578 466.387L301.453 371.615" stroke="#45413C" stroke-width="7" stroke-linecap="round" stroke-linejoin="round"/>
</svg>
