<svg width="493" height="493" viewBox="0 0 493 493" fill="none" xmlns="http://www.w3.org/2000/svg">
<path d="M455.457 329.022C446.656 327.099 437.676 326.125 428.67 326.116C412.508 326.075 396.497 329.234 381.554 335.413C366.61 341.593 353.028 350.67 341.586 362.126C330.143 373.581 321.065 387.19 314.871 402.172C308.677 417.155 305.488 433.217 305.488 449.438V469.161H455.457V329.022Z" fill="#87BBFF"/>
<path d="M428.67 326.116C412.508 326.075 396.497 329.234 381.554 335.413C366.61 341.593 353.028 350.67 341.586 362.126C330.143 373.581 321.065 387.19 314.871 402.172C308.677 417.155 305.488 433.217 305.488 449.438V469.161H306.729C311.031 439.806 325.724 412.989 348.118 393.62C370.512 374.251 399.108 363.627 428.67 363.694C437.683 363.686 446.669 364.695 455.457 366.704V329.022C446.656 327.099 437.676 326.125 428.67 326.116Z" fill="#6DACFF"/>
<path d="M455.457 329.022C446.656 327.099 437.676 326.125 428.67 326.116C412.508 326.075 396.497 329.234 381.554 335.413C366.61 341.593 353.028 350.67 341.586 362.126C330.143 373.581 321.065 387.19 314.871 402.172C308.677 417.155 305.488 433.217 305.488 449.438V469.161H455.457V329.022Z" stroke="#45413C" stroke-width="7" stroke-linecap="round" stroke-linejoin="round"/>
<path d="M402.852 284.084H455.496V366.506H402.852V284.084Z" fill="#FFE500"/>
<path d="M429.628 284.084C422.651 284.084 415.958 286.859 411.015 291.8C406.072 296.742 403.281 303.448 403.254 310.451V316.679C403.674 323.4 406.63 329.707 411.52 334.317C416.41 338.927 422.867 341.493 429.576 341.493C436.285 341.493 442.742 338.927 447.632 334.317C452.522 329.707 455.478 323.4 455.898 316.679V310.555C455.898 303.552 453.134 296.835 448.21 291.874C443.286 286.912 436.605 284.111 429.628 284.084Z" fill="#EBCB00"/>
<path d="M402.852 284.084H455.496V366.506H402.852V284.084Z" stroke="#45413C" stroke-width="7" stroke-linecap="round" stroke-linejoin="round"/>
<path d="M455.437 77.4087C446.712 74.989 437.701 73.7668 428.649 73.7754C420.102 73.7835 411.589 74.8645 403.309 76.9934C384.176 81.3533 359.146 88.6198 336.496 84.2599C335.582 90.1152 335.882 96.0966 337.377 101.83C338.872 107.564 341.53 112.926 345.184 117.582C333.31 134.622 326.954 154.919 326.981 175.713V229.07H455.437V77.4087Z" fill="#724F3D"/>
<path d="M428.649 73.7754C420.102 73.7835 411.589 74.8645 403.309 76.9934C384.175 81.3533 359.146 88.6198 336.495 84.2599C335.283 93.7011 336.941 103.29 341.253 111.769C362.241 112.675 383.229 109.972 403.309 103.776C411.593 101.682 420.106 100.635 428.649 100.661C437.7 100.653 446.711 101.875 455.436 104.295V77.4087C446.711 74.989 437.7 73.7668 428.649 73.7754Z" fill="#A86C4D"/>
<path d="M455.437 77.4087C446.712 74.989 437.701 73.7668 428.649 73.7754C420.102 73.7835 411.589 74.8645 403.309 76.9934C384.176 81.3533 359.146 88.6198 336.496 84.2599C335.582 90.1152 335.882 96.0966 337.377 101.83C338.872 107.564 341.53 112.926 345.184 117.582C333.31 134.622 326.954 154.919 326.981 175.713V229.07H455.437V77.4087Z" stroke="#45413C" stroke-width="7" stroke-linecap="round" stroke-linejoin="round"/>
<path d="M455.46 152.56C446.587 153.829 437.634 154.453 428.672 154.428C407.441 154.863 386.338 151.015 366.616 143.113C362.49 144.213 358.842 146.653 356.241 150.051C353.641 153.45 352.234 157.617 352.24 161.902V187.75C352.213 192.147 350.46 196.355 347.363 199.464C344.265 202.573 340.072 204.332 335.691 204.359C331.134 204.27 326.69 205.79 323.136 208.656C319.582 211.521 317.144 215.548 316.247 220.034C315.796 222.731 315.936 225.495 316.659 228.133C317.382 230.77 318.67 233.217 320.433 235.303C322.196 237.389 324.392 239.063 326.866 240.209C329.341 241.355 332.035 241.945 334.761 241.937H336.519C339.87 264.283 351.117 284.674 368.207 299.387C385.296 314.1 407.088 322.153 429.603 322.076C438.674 322.046 447.694 320.718 456.39 318.131L455.46 152.56Z" fill="#FFE500" stroke="#45413C" stroke-width="7" stroke-linecap="round" stroke-linejoin="round"/>
<path d="M372.387 219.089C372.367 220.7 372.825 222.279 373.704 223.626C374.582 224.974 375.841 226.028 377.319 226.653C378.798 227.279 380.428 227.448 382.003 227.139C383.577 226.83 385.024 226.057 386.158 224.918C387.293 223.779 388.063 222.327 388.371 220.747C388.679 219.167 388.511 217.53 387.887 216.046C387.264 214.563 386.214 213.299 384.872 212.418C383.529 211.536 381.955 211.076 380.351 211.096C379.305 211.096 378.27 211.303 377.304 211.705C376.337 212.106 375.459 212.695 374.72 213.437C373.98 214.18 373.394 215.061 372.994 216.031C372.593 217 372.387 218.04 372.387 219.089Z" fill="#45413C" stroke="#45413C" stroke-width="7" stroke-linecap="round" stroke-linejoin="round"/>
<path d="M356.875 469.17V444.152" stroke="#45413C" stroke-width="7" stroke-linecap="round" stroke-linejoin="round"/>
<path d="M356.875 253.148C356.875 254.8 357.965 256.384 359.904 257.552C361.844 258.72 364.475 259.377 367.218 259.377C369.961 259.377 372.591 258.72 374.531 257.552C376.471 256.384 377.56 254.8 377.56 253.148C377.56 251.496 376.471 249.912 374.531 248.744C372.591 247.576 369.961 246.92 367.218 246.92C364.475 246.92 361.844 247.576 359.904 248.744C357.965 249.912 356.875 251.496 356.875 253.148Z" fill="#FFAA54"/>
<path d="M455.428 267.783H399.267C398.614 267.808 397.972 267.967 397.383 268.252C396.794 268.536 396.27 268.939 395.843 269.436C395.416 269.932 395.095 270.512 394.902 271.139C394.708 271.765 394.645 272.425 394.716 273.077C395.824 279.633 398.792 285.729 403.265 290.634C407.737 295.539 413.524 299.045 419.932 300.733C426.34 302.42 433.097 302.217 439.393 300.147C445.689 298.077 451.256 294.229 455.428 289.064V267.783Z" fill="#FF6242"/>
<path d="M428.685 282.725C419.789 282.682 411.224 286.106 404.793 292.275C411.247 298.408 419.797 301.826 428.685 301.826C437.572 301.826 446.122 298.408 452.576 292.275C446.134 286.124 437.576 282.704 428.685 282.725Z" fill="#FFA694"/>
<path d="M455.428 267.783H399.267C398.614 267.808 397.972 267.967 397.383 268.252C396.794 268.536 396.27 268.939 395.843 269.436C395.416 269.932 395.095 270.512 394.902 271.139C394.708 271.765 394.645 272.425 394.716 273.077C395.824 279.633 398.792 285.729 403.265 290.634C407.737 295.539 413.524 299.045 419.932 300.733C426.34 302.42 433.097 302.217 439.393 300.147C445.689 298.077 451.256 294.229 455.428 289.064V267.783Z" stroke="#45413C" stroke-width="7" stroke-linecap="round" stroke-linejoin="round"/>
<path d="M57.2704 67.6316C48.421 67.6118 39.6012 68.6573 31 70.7458V358.705C75.659 362.918 120.673 356.296 162.249 339.397C164.6 338.445 166.614 336.81 168.033 334.702C169.452 332.593 170.211 330.107 170.212 327.563V180.469C170.199 165.611 167.265 150.902 161.578 137.184C155.891 123.466 147.563 111.01 137.071 100.528C126.579 90.0456 114.13 81.7443 100.436 76.0994C86.7427 70.4545 72.0739 67.577 57.2704 67.6316Z" fill="#724F3D"/>
<path d="M57.2704 67.6316C48.421 67.6118 39.6012 68.6573 31 70.7458V103.964C39.5928 101.805 48.4127 100.69 57.2704 100.642C72.0913 100.587 86.777 103.472 100.484 109.13C114.191 114.787 126.65 123.107 137.144 133.611C147.639 144.115 155.962 156.597 161.637 170.338C167.312 184.08 170.226 198.812 170.212 213.687V180.469C170.199 165.611 167.265 150.902 161.578 137.184C155.891 123.466 147.563 111.01 137.071 100.528C126.579 90.0456 114.13 81.7443 100.436 76.0994C86.7427 70.4545 72.0739 67.577 57.2704 67.6316Z" fill="#A86C4D"/>
<path d="M57.2704 67.6316C48.421 67.6118 39.6012 68.6573 31 70.7458V358.705C75.659 362.918 120.673 356.296 162.249 339.397C164.6 338.445 166.614 336.81 168.033 334.702C169.452 332.593 170.211 330.107 170.212 327.563V180.469C170.199 165.611 167.265 150.902 161.578 137.184C155.891 123.466 147.563 111.01 137.071 100.528C126.579 90.0456 114.13 81.7443 100.436 76.0994C86.7427 70.4545 72.0739 67.577 57.2704 67.6316V67.6316Z" stroke="#45413C" stroke-width="7" stroke-linecap="round" stroke-linejoin="round"/>
<path d="M57.2629 326.116C48.5657 326.16 39.8978 327.135 31.4062 329.023V469.161H180.548V449.438C180.548 433.208 177.356 417.138 171.155 402.149C164.954 387.159 155.867 373.546 144.413 362.089C132.96 350.632 119.366 341.557 104.411 335.384C89.4555 329.211 73.4334 326.061 57.2629 326.116Z" fill="#FF87AF"/>
<path d="M57.2629 326.116C48.5657 326.16 39.8978 327.135 31.4062 329.023V362.863C48.1912 359.13 65.5705 358.98 82.4169 362.423C99.2633 365.865 115.201 372.824 129.195 382.847C143.189 392.87 154.928 405.733 163.65 420.603C172.372 435.473 177.882 452.016 179.824 469.161H180.548V449.438C180.548 433.208 177.356 417.138 171.155 402.149C164.954 387.159 155.867 373.546 144.413 362.089C132.96 350.632 119.366 341.557 104.411 335.384C89.4555 329.211 73.4334 326.061 57.2629 326.116Z" fill="#FF6196"/>
<path d="M57.2629 326.116C48.5657 326.16 39.8978 327.135 31.4062 329.023V469.161H180.548V449.438C180.548 433.208 177.356 417.138 171.155 402.149C164.954 387.159 155.867 373.546 144.413 362.089C132.96 350.632 119.366 341.557 104.411 335.384C89.4555 329.211 73.4334 326.061 57.2629 326.116V326.116Z" stroke="#45413C" stroke-width="7" stroke-linecap="round" stroke-linejoin="round"/>
<path d="M31.4062 284.084H84.0505V366.506H31.4062V284.084Z" fill="#FFE500"/>
<path d="M57.2629 284.087C50.3675 284.196 43.7914 287.022 38.9538 291.955C34.1163 296.888 31.4054 303.533 31.4063 310.454V316.682C31.8262 323.403 34.7821 329.71 39.6723 334.32C44.5625 338.93 51.0193 341.496 57.7284 341.496C64.4374 341.496 70.8942 338.93 75.7844 334.32C80.6746 329.71 83.6305 323.403 84.0505 316.682V310.558C84.0509 307.046 83.3552 303.57 82.004 300.331C80.6528 297.092 78.6731 294.155 76.1801 291.692C73.687 289.228 70.7306 287.287 67.4828 285.982C64.2351 284.676 60.761 284.032 57.2629 284.087Z" fill="#EBCB00"/>
<path d="M31.4062 284.084H84.0505V366.506H31.4062V284.084Z" stroke="#45413C" stroke-width="7" stroke-linecap="round" stroke-linejoin="round"/>
<path d="M151.485 204.462C138.459 200.775 126.426 194.196 116.275 185.212C106.125 176.228 98.116 165.068 92.8417 152.559L86.3259 137.092C71.6851 156.519 52.9265 172.439 31.4062 183.701V317.923C39.7998 320.428 48.5061 321.721 57.2629 321.763C79.7839 321.862 101.587 313.817 118.681 299.1C135.775 284.384 147.016 263.98 150.347 241.625H151.485C156.45 241.625 161.211 239.645 164.722 236.122C168.233 232.598 170.205 227.819 170.205 222.836C170.205 217.853 168.233 213.074 164.722 209.55C161.211 206.027 156.45 204.047 151.485 204.047V204.462Z" fill="#FFE500" stroke="#45413C" stroke-width="7" stroke-linecap="round" stroke-linejoin="round"/>
<path d="M113.916 219.089C113.916 220.67 113.449 222.215 112.574 223.53C111.699 224.844 110.455 225.868 109 226.473C107.545 227.078 105.943 227.237 104.398 226.928C102.854 226.62 101.435 225.859 100.321 224.741C99.2071 223.623 98.4486 222.199 98.1413 220.648C97.834 219.098 97.9917 217.491 98.5945 216.03C99.1973 214.569 100.218 213.321 101.528 212.443C102.837 211.564 104.377 211.096 105.952 211.096C108.064 211.096 110.09 211.938 111.583 213.437C113.077 214.936 113.916 216.969 113.916 219.089Z" fill="#45413C" stroke="#45413C" stroke-width="7" stroke-linecap="round" stroke-linejoin="round"/>
<path d="M129.496 469.17V444.152" stroke="#45413C" stroke-width="7" stroke-linecap="round" stroke-linejoin="round"/>
<path d="M108.812 253.148C108.812 254.8 109.902 256.384 111.842 257.552C113.781 258.72 116.412 259.377 119.155 259.377C121.898 259.377 124.529 258.72 126.469 257.552C128.408 256.384 129.498 254.8 129.498 253.148C129.498 251.496 128.408 249.912 126.469 248.744C124.529 247.576 121.898 246.92 119.155 246.92C116.412 246.92 113.781 247.576 111.842 248.744C109.902 249.912 108.812 251.496 108.812 253.148Z" fill="#FFAA54"/>
<path d="M90.5663 269.444C90.1297 268.934 89.5907 268.523 88.9848 268.237C88.3788 267.951 87.7194 267.796 87.0498 267.783H31.4062V289.686C35.6529 294.699 41.2369 298.391 47.502 300.329C53.7671 302.267 60.4531 302.37 66.7745 300.626C73.0958 298.881 78.7898 295.363 83.1875 290.483C87.5852 285.603 90.5039 279.565 91.6006 273.077C91.6898 272.433 91.6439 271.777 91.4658 271.151C91.2877 270.525 90.9814 269.944 90.5663 269.444Z" fill="#FF6242"/>
<path d="M57.2921 282.725C48.43 282.698 39.9028 286.121 33.5039 292.275C39.9408 298.401 48.4733 301.816 57.3438 301.816C66.2142 301.816 74.7468 298.401 81.1836 292.275C74.753 286.106 66.1878 282.682 57.2921 282.725Z" fill="#FFA694"/>
<path d="M90.5663 269.444C90.1297 268.934 89.5907 268.523 88.9848 268.237C88.3788 267.951 87.7194 267.796 87.0498 267.783H31.4062V289.686C35.6529 294.699 41.2369 298.391 47.502 300.329C53.7671 302.267 60.4531 302.37 66.7745 300.626C73.0958 298.881 78.7898 295.363 83.1875 290.483C87.5852 285.603 90.5039 279.565 91.6006 273.077C91.6898 272.433 91.6439 271.777 91.4658 271.151C91.2877 270.525 90.9814 269.944 90.5663 269.444V269.444Z" stroke="#45413C" stroke-width="7" stroke-linecap="round" stroke-linejoin="round"/>
<path d="M338.168 35.0466C327.241 26.6545 313.512 22.8131 299.835 24.3211C286.158 25.8292 273.587 32.5706 264.735 43.1435L243.43 66.9151L222.124 43.1435C213.272 32.5706 200.701 25.8292 187.024 24.3211C173.347 22.8131 159.618 26.6545 148.691 35.0466C140.361 41.5718 133.673 49.9676 129.164 59.559C124.655 69.1505 122.452 79.6699 122.731 90.2716C122.592 102.228 124.908 114.086 129.535 125.105C134.161 136.124 140.999 146.069 149.622 154.32L243.43 240.791L337.238 154.009C345.822 145.794 352.637 135.899 357.263 124.937C361.888 113.974 364.224 102.176 364.129 90.2716C364.407 79.6699 362.204 69.1505 357.695 59.559C353.186 49.9676 346.498 41.5718 338.168 35.0466Z" fill="#FF6196"/>
<path d="M148.691 96.1886C159.618 87.7965 173.347 83.9551 187.024 85.4631C200.701 86.9712 213.272 93.7126 222.124 104.285L234.535 118.092C235.66 119.339 237.032 120.336 238.564 121.018C240.096 121.7 241.754 122.052 243.43 122.052C245.106 122.052 246.763 121.7 248.295 121.018C249.827 120.336 251.2 119.339 252.324 118.092L264.735 104.285C273.587 93.7126 286.158 86.9712 299.835 85.4631C313.512 83.9551 327.241 87.7965 338.168 96.1886C347.278 102.799 354.428 111.769 358.854 122.14C362.459 111.91 364.244 101.123 364.129 90.2716C364.359 79.722 362.131 69.2642 357.625 59.7307C353.118 50.1973 346.456 41.8516 338.168 35.358C327.241 26.9659 313.512 23.1245 299.835 24.6325C286.158 26.1406 273.587 32.882 264.735 43.4549L243.43 66.9152L222.124 43.1435C213.272 32.5706 200.701 25.8292 187.024 24.3211C173.347 22.8131 159.618 26.6545 148.691 35.0466C140.361 41.5718 133.673 49.9676 129.164 59.559C124.655 69.1505 122.452 79.6699 122.731 90.2716C122.744 101.258 124.705 112.155 128.522 122.452C132.757 112.029 139.727 102.953 148.691 96.1886Z" fill="#FF87AF"/>
<path d="M338.168 35.0466C327.241 26.6545 313.512 22.8131 299.835 24.3211C286.158 25.8292 273.587 32.5706 264.735 43.1435L243.43 66.9152L222.124 43.1435C213.272 32.5706 200.701 25.8292 187.024 24.3211C173.347 22.8131 159.618 26.6545 148.691 35.0466C140.361 41.5718 133.673 49.9676 129.164 59.559C124.655 69.1505 122.452 79.6699 122.731 90.2716C122.592 102.228 124.908 114.086 129.535 125.105C134.161 136.124 140.999 146.069 149.622 154.32L243.43 240.791L337.238 154.009C345.822 145.794 352.637 135.899 357.263 124.937C361.888 113.974 364.224 102.176 364.129 90.2716C364.407 79.6699 362.204 69.1505 357.695 59.559C353.186 49.9676 346.498 41.5718 338.168 35.0466V35.0466Z" stroke="#45413C" stroke-width="7" stroke-linecap="round" stroke-linejoin="round"/>
</svg>
