<svg width="495" height="495" viewBox="0 0 495 495" fill="none" xmlns="http://www.w3.org/2000/svg">
<path d="M30 30H464.053V464.053H30V30Z" fill="white"/>
<path d="M426.928 432.702H67.2281C57.5152 432.568 48.2394 428.643 41.3803 421.765C34.5213 414.887 30.6223 405.6 30.5156 395.887V426.824C30.5156 436.698 34.4379 446.167 41.4195 453.148C48.4011 460.13 57.8702 464.052 67.7438 464.052H426.928C436.802 464.052 446.271 460.13 453.252 453.148C460.234 446.167 464.156 436.698 464.156 426.824V395.887C464.048 405.689 460.078 415.052 453.108 421.945C446.138 428.837 436.731 432.703 426.928 432.702Z" fill="#F0F0F0"/>
<path d="M30 30H464.053V464.053H30V30Z" stroke="#45413C" stroke-width="6" stroke-linecap="round" stroke-linejoin="round"/>
<path d="M61.0391 61.041H433.114V433.116H61.0391V61.041Z" fill="#00B8F0"/>
<path d="M420.741 401.766H73.4156C70.2584 401.661 67.2606 400.353 65.0365 398.11C62.8124 395.867 61.5304 392.858 61.4531 389.7V420.638C61.5304 423.796 62.8124 426.804 65.0365 429.048C67.2606 431.291 70.2584 432.599 73.4156 432.703H420.741C424.023 432.703 427.17 431.399 429.491 429.079C431.812 426.758 433.116 423.61 433.116 420.328V389.391C433.116 392.673 431.812 395.82 429.491 398.141C427.17 400.462 424.023 401.766 420.741 401.766Z" fill="#009FD9"/>
<path d="M61.0391 61.041H433.114V433.116H61.0391V61.041Z" stroke="#45413C" stroke-width="6" stroke-linecap="round" stroke-linejoin="round"/>
<path d="M222.228 247.078L141.688 433.116H191.291L247.081 271.931L302.872 433.116H352.475L271.934 247.078H222.228Z" fill="#FF6242"/>
<path d="M155.094 402.074L141.688 433.115H191.291L202.016 402.074H155.094Z" fill="#E04122"/>
<path d="M292.141 402.074L302.866 433.115H352.469L339.062 402.074H292.141Z" fill="#E04122"/>
<path d="M222.228 245.531L141.688 431.569H191.291L247.081 270.384L302.872 431.569H352.475L271.934 245.531H222.228Z" stroke="#45413C" stroke-width="6" stroke-linecap="round" stroke-linejoin="round"/>
<path d="M247.075 116.832C221.315 116.832 196.133 124.471 174.714 138.783C153.295 153.094 136.601 173.436 126.743 197.236C116.885 221.035 114.305 247.223 119.331 272.489C124.356 297.754 136.761 320.962 154.977 339.177C173.192 357.393 196.4 369.798 221.665 374.823C246.931 379.849 273.119 377.269 296.918 367.411C320.718 357.553 341.06 340.859 355.371 319.44C369.683 298.021 377.322 272.839 377.322 247.079C377.295 212.544 363.563 179.431 339.143 155.011C314.723 130.591 281.61 116.859 247.075 116.832ZM247.075 346.285C227.454 346.285 208.273 340.467 191.959 329.566C175.645 318.665 162.929 303.171 155.42 285.044C147.912 266.916 145.947 246.969 149.775 227.725C153.603 208.481 163.051 190.804 176.926 176.929C190.8 163.055 208.477 153.607 227.721 149.779C246.965 145.951 266.912 147.916 285.04 155.424C303.167 162.933 318.661 175.648 329.562 191.963C340.463 208.277 346.281 227.458 346.281 247.079C346.281 273.39 335.829 298.624 317.224 317.228C298.62 335.833 273.386 346.285 247.075 346.285Z" fill="white" stroke="#45413C" stroke-width="6" stroke-linecap="round" stroke-linejoin="round"/>
<path d="M216.039 135.498C216.039 143.73 219.309 151.625 225.131 157.447C230.952 163.268 238.847 166.538 247.08 166.538C255.312 166.538 263.207 163.268 269.029 157.447C274.85 151.625 278.12 143.73 278.12 135.498C278.12 127.265 274.85 119.37 269.029 113.549C263.207 107.727 255.312 104.457 247.08 104.457C238.847 104.457 230.952 107.727 225.131 113.549C219.309 119.37 216.039 127.265 216.039 135.498Z" fill="#FF6242"/>
<path d="M216.039 364.951C216.039 373.183 219.309 381.079 225.131 386.9C230.952 392.721 238.847 395.991 247.08 395.991C255.312 395.991 263.207 392.721 269.029 386.9C274.85 381.079 278.12 373.183 278.12 364.951C278.12 356.718 274.85 348.823 269.029 343.002C263.207 337.181 255.312 333.91 247.08 333.91C238.847 333.91 230.952 337.181 225.131 343.002C219.309 348.823 216.039 356.718 216.039 364.951Z" fill="#FF6242"/>
<path d="M163.24 165.918C168.523 168.99 172.778 173.558 175.467 179.046C178.157 184.534 179.161 190.695 178.353 196.753C177.545 202.81 174.961 208.493 170.927 213.084C166.893 217.675 161.59 220.968 155.686 222.548C149.783 224.128 143.543 223.924 137.755 221.962C131.967 220 126.89 216.368 123.164 211.523C119.439 206.679 117.231 200.84 116.82 194.742C116.409 188.645 117.813 182.562 120.856 177.262C122.885 173.725 125.594 170.625 128.826 168.139C132.058 165.653 135.75 163.831 139.689 162.776C143.628 161.722 147.736 161.457 151.778 161.996C155.82 162.535 159.715 163.868 163.24 165.918Z" fill="#FF6242"/>
<path d="M361.956 280.697C367.197 283.805 371.402 288.392 374.046 293.882C376.69 299.372 377.653 305.521 376.816 311.556C375.979 317.592 373.378 323.245 369.339 327.808C365.301 332.371 360.005 335.64 354.116 337.205C348.227 338.769 342.008 338.56 336.237 336.604C330.466 334.647 325.402 331.03 321.68 326.206C317.957 321.382 315.742 315.566 315.312 309.488C314.881 303.41 316.256 297.34 319.262 292.04C321.292 288.463 324.014 285.325 327.271 282.812C330.527 280.299 334.252 278.461 338.227 277.405C342.203 276.348 346.349 276.095 350.423 276.661C354.498 277.226 358.418 278.598 361.956 280.697Z" fill="#FF6242"/>
<path d="M132.193 280.697C137.494 277.655 143.576 276.251 149.674 276.662C155.771 277.073 161.611 279.28 166.455 283.006C171.299 286.732 174.932 291.809 176.894 297.597C178.856 303.385 179.059 309.624 177.479 315.528C175.899 321.431 172.606 326.735 168.015 330.769C163.425 334.803 157.742 337.387 151.684 338.195C145.627 339.003 139.465 337.999 133.978 335.309C128.49 332.62 123.922 328.365 120.85 323.082C118.8 319.557 117.467 315.662 116.928 311.62C116.389 307.578 116.654 303.47 117.708 299.531C118.762 295.592 120.585 291.9 123.071 288.668C125.557 285.436 128.657 282.727 132.193 280.697Z" fill="#FF6242"/>
<path d="M330.918 165.919C336.241 162.925 342.33 161.573 348.419 162.033C354.508 162.494 360.325 164.746 365.136 168.506C369.948 172.266 373.539 177.366 375.457 183.164C377.376 188.961 377.535 195.196 375.917 201.084C374.298 206.972 370.973 212.25 366.36 216.251C361.748 220.253 356.054 222.8 349.996 223.572C343.939 224.344 337.788 223.306 332.32 220.589C326.851 217.872 322.309 213.597 319.265 208.303C317.228 204.76 315.913 200.848 315.397 196.793C314.88 192.739 315.172 188.622 316.255 184.681C317.339 180.74 319.193 177.053 321.709 173.833C324.226 170.612 327.356 167.922 330.918 165.919Z" fill="#FF6242"/>
<path d="M247.078 126.112C253.461 126.13 259.682 128.121 264.888 131.814C270.095 135.506 274.032 140.719 276.159 146.737C277.457 143.134 278.086 139.325 278.016 135.496C278.016 127.291 274.756 119.422 268.954 113.62C263.152 107.818 255.283 104.559 247.078 104.559C238.873 104.559 231.004 107.818 225.202 113.62C219.4 119.422 216.141 127.291 216.141 135.496C216.152 139.193 216.816 142.858 218.1 146.324C220.29 140.4 224.24 135.288 229.42 131.675C234.6 128.061 240.762 126.12 247.078 126.112Z" fill="#FF866E"/>
<path d="M247.077 355.566C253.459 355.584 259.68 357.576 264.887 361.269C270.093 364.961 274.03 370.174 276.158 376.191C277.384 372.888 278.046 369.402 278.117 365.879C278.117 357.674 274.858 349.805 269.056 344.003C263.254 338.201 255.385 334.941 247.18 334.941C238.975 334.941 231.105 338.201 225.304 344.003C219.502 349.805 216.242 357.674 216.242 365.879C216.313 369.402 216.975 372.888 218.202 376.191C220.317 370.206 224.223 365.017 229.388 361.328C234.554 357.638 240.729 355.627 247.077 355.566Z" fill="#FF866E"/>
<path d="M120.855 199.022C122.884 195.486 125.593 192.386 128.825 189.9C132.058 187.414 135.749 185.591 139.688 184.537C143.627 183.483 147.735 183.218 151.777 183.757C155.819 184.296 159.714 185.629 163.239 187.679C169.462 191.275 174.239 196.927 176.748 203.663C178.472 198.986 179.039 193.963 178.403 189.02C177.768 184.076 175.947 179.36 173.096 175.272C170.246 171.184 166.45 167.845 162.031 165.539C157.613 163.233 152.703 162.029 147.719 162.029C142.735 162.029 137.825 163.233 133.406 165.539C128.988 167.845 125.192 171.184 122.341 175.272C119.491 179.36 117.67 184.076 117.034 189.02C116.398 193.963 116.966 198.986 118.689 203.663C119.326 202.078 120.049 200.528 120.855 199.022Z" fill="#FF866E"/>
<path d="M319.269 313.696C322.19 308.581 326.511 304.405 331.723 301.661C336.936 298.917 342.824 297.719 348.694 298.206C354.565 298.693 360.174 300.847 364.863 304.413C369.552 307.979 373.125 312.81 375.162 318.337C376.886 313.66 377.453 308.637 376.817 303.693C376.182 298.75 374.361 294.034 371.51 289.946C368.66 285.858 364.864 282.519 360.445 280.213C356.027 277.907 351.117 276.703 346.133 276.703C341.149 276.703 336.239 277.907 331.82 280.213C327.402 282.519 323.606 285.858 320.755 289.946C317.905 294.034 316.084 298.75 315.448 303.693C314.812 308.637 315.38 313.66 317.103 318.337C317.724 316.744 318.447 315.194 319.269 313.696Z" fill="#FF6242"/>
<path d="M132.194 302.353C135.731 300.254 139.652 298.882 143.726 298.317C147.801 297.752 151.947 298.004 155.922 299.061C159.898 300.117 163.623 301.955 166.879 304.468C170.135 306.981 172.858 310.119 174.888 313.696C175.713 315.228 176.437 316.813 177.053 318.44C178.776 313.764 179.344 308.74 178.708 303.797C178.072 298.854 176.252 294.137 173.401 290.049C170.55 285.961 166.754 282.622 162.336 280.316C157.917 278.011 153.007 276.807 148.023 276.807C143.04 276.807 138.129 278.011 133.711 280.316C129.293 282.622 125.496 285.961 122.646 290.049C119.795 294.137 117.975 298.854 117.339 303.797C116.703 308.74 117.271 313.764 118.994 318.44C121.404 311.714 126.068 306.03 132.194 302.353Z" fill="#FF866E"/>
<path d="M330.917 187.679C334.442 185.629 338.337 184.296 342.379 183.757C346.421 183.218 350.529 183.483 354.468 184.537C358.407 185.591 362.099 187.414 365.331 189.9C368.563 192.386 371.272 195.486 373.302 199.022C374.108 200.528 374.831 202.078 375.467 203.663C377.19 198.986 377.758 193.963 377.122 189.02C376.486 184.076 374.666 179.36 371.815 175.272C368.964 171.184 365.168 167.845 360.75 165.539C356.331 163.233 351.421 162.029 346.437 162.029C341.454 162.029 336.544 163.233 332.125 165.539C327.707 167.845 323.911 171.184 321.06 175.272C318.209 179.36 316.389 184.076 315.753 189.02C315.117 193.963 315.685 198.986 317.408 203.663C319.917 196.927 324.694 191.275 330.917 187.679Z" fill="#FF866E"/>
<path d="M222.227 247.078C222.227 250.341 222.869 253.573 224.118 256.589C225.367 259.604 227.198 262.344 229.506 264.652C231.814 266.959 234.553 268.79 237.569 270.039C240.584 271.288 243.816 271.931 247.08 271.931C250.343 271.931 253.575 271.288 256.591 270.039C259.606 268.79 262.346 266.959 264.654 264.652C266.961 262.344 268.792 259.604 270.041 256.589C271.29 253.573 271.933 250.341 271.933 247.078C271.933 243.814 271.29 240.582 270.041 237.567C268.792 234.552 266.961 231.812 264.654 229.504C262.346 227.196 259.606 225.365 256.591 224.116C253.575 222.867 250.343 222.225 247.08 222.225C243.816 222.225 240.584 222.867 237.569 224.116C234.553 225.365 231.814 227.196 229.506 229.504C227.198 231.812 225.367 234.552 224.118 237.567C222.869 240.582 222.227 243.814 222.227 247.078Z" fill="#FF6242"/>
<path d="M247.08 240.891C252.189 240.912 257.169 242.507 261.339 245.46C265.51 248.412 268.669 252.578 270.386 257.391C271.375 254.644 271.898 251.751 271.933 248.832C271.933 242.24 269.314 235.919 264.653 231.258C259.993 226.597 253.671 223.979 247.08 223.979C240.488 223.979 234.167 226.597 229.506 231.258C224.845 235.919 222.227 242.24 222.227 248.832C222.262 251.751 222.784 254.644 223.773 257.391C225.491 252.578 228.65 248.412 232.82 245.46C236.991 242.507 241.97 240.912 247.08 240.891Z" fill="#FF866E"/>
<path d="M216.039 135.498C216.039 143.73 219.309 151.625 225.131 157.447C230.952 163.268 238.847 166.538 247.08 166.538C255.312 166.538 263.207 163.268 269.029 157.447C274.85 151.625 278.12 143.73 278.12 135.498C278.12 127.265 274.85 119.37 269.029 113.549C263.207 107.727 255.312 104.457 247.08 104.457C238.847 104.457 230.952 107.727 225.131 113.549C219.309 119.37 216.039 127.265 216.039 135.498Z" stroke="#45413C" stroke-width="6" stroke-linecap="round" stroke-linejoin="round"/>
<path d="M163.24 165.918C168.523 168.99 172.778 173.558 175.467 179.046C178.157 184.534 179.161 190.695 178.353 196.753C177.545 202.81 174.961 208.493 170.927 213.084C166.893 217.675 161.59 220.968 155.686 222.548C149.783 224.128 143.543 223.924 137.755 221.962C131.967 220 126.89 216.368 123.164 211.523C119.439 206.679 117.231 200.84 116.82 194.742C116.409 188.645 117.813 182.562 120.856 177.262C122.885 173.725 125.594 170.625 128.826 168.139C132.058 165.653 135.75 163.831 139.689 162.776C143.628 161.722 147.736 161.457 151.778 161.996C155.82 162.535 159.715 163.868 163.24 165.918V165.918Z" stroke="#45413C" stroke-width="6" stroke-linecap="round" stroke-linejoin="round"/>
<path d="M361.956 280.697C367.197 283.805 371.402 288.392 374.046 293.882C376.69 299.372 377.653 305.521 376.816 311.556C375.979 317.592 373.378 323.245 369.339 327.808C365.301 332.371 360.005 335.64 354.116 337.205C348.227 338.769 342.008 338.56 336.237 336.604C330.466 334.647 325.402 331.03 321.68 326.206C317.957 321.382 315.742 315.566 315.312 309.488C314.881 303.41 316.256 297.34 319.262 292.04C321.292 288.463 324.014 285.325 327.271 282.812C330.527 280.299 334.252 278.461 338.227 277.405C342.203 276.348 346.349 276.095 350.423 276.661C354.498 277.226 358.418 278.598 361.956 280.697V280.697Z" stroke="#45413C" stroke-width="6" stroke-linecap="round" stroke-linejoin="round"/>
<path d="M132.193 280.697C137.494 277.655 143.576 276.251 149.674 276.662C155.771 277.073 161.611 279.28 166.455 283.006C171.299 286.732 174.932 291.809 176.894 297.597C178.856 303.385 179.059 309.624 177.479 315.528C175.899 321.432 172.606 326.735 168.015 330.769C163.425 334.803 157.742 337.387 151.684 338.195C145.627 339.003 139.465 337.999 133.978 335.309C128.49 332.62 123.922 328.365 120.85 323.082C118.8 319.557 117.467 315.662 116.928 311.62C116.389 307.578 116.654 303.47 117.708 299.531C118.762 295.592 120.585 291.9 123.071 288.668C125.557 285.436 128.657 282.727 132.193 280.697V280.697Z" stroke="#45413C" stroke-width="6" stroke-linecap="round" stroke-linejoin="round"/>
<path d="M330.918 165.919C336.241 162.925 342.33 161.573 348.419 162.033C354.508 162.494 360.325 164.746 365.136 168.506C369.948 172.266 373.539 177.366 375.457 183.164C377.376 188.961 377.535 195.196 375.917 201.084C374.298 206.972 370.973 212.25 366.36 216.251C361.748 220.253 356.054 222.8 349.996 223.572C343.939 224.344 337.788 223.306 332.32 220.589C326.851 217.872 322.309 213.597 319.265 208.303C317.228 204.76 315.913 200.848 315.397 196.793C314.88 192.739 315.172 188.622 316.255 184.681C317.339 180.74 319.193 177.053 321.709 173.833C324.226 170.612 327.356 167.922 330.918 165.919Z" stroke="#45413C" stroke-width="6" stroke-linecap="round" stroke-linejoin="round"/>
<path d="M222.227 248.625C222.227 251.888 222.869 255.12 224.118 258.135C225.367 261.151 227.198 263.891 229.506 266.198C231.814 268.506 234.553 270.337 237.569 271.586C240.584 272.835 243.816 273.478 247.08 273.478C250.343 273.478 253.575 272.835 256.591 271.586C259.606 270.337 262.346 268.506 264.654 266.198C266.961 263.891 268.792 261.151 270.041 258.135C271.29 255.12 271.933 251.888 271.933 248.625C271.933 245.361 271.29 242.129 270.041 239.114C268.792 236.098 266.961 233.359 264.654 231.051C262.346 228.743 259.606 226.912 256.591 225.663C253.575 224.414 250.343 223.771 247.08 223.771C243.816 223.771 240.584 224.414 237.569 225.663C234.553 226.912 231.814 228.743 229.506 231.051C227.198 233.359 225.367 236.098 224.118 239.114C222.869 242.129 222.227 245.361 222.227 248.625V248.625Z" stroke="#45413C" stroke-width="6" stroke-linecap="round" stroke-linejoin="round"/>
<path d="M247.078 166.434V222.224" stroke="#45413C" stroke-width="6" stroke-linecap="round" stroke-linejoin="round"/>
<path d="M271.93 234.703L315.242 209.85" stroke="#45413C" stroke-width="6" stroke-linecap="round" stroke-linejoin="round"/>
<path d="M216.039 364.951C216.039 373.183 219.309 381.079 225.131 386.9C230.952 392.721 238.847 395.991 247.08 395.991C255.312 395.991 263.207 392.721 269.029 386.9C274.85 381.079 278.12 373.183 278.12 364.951C278.12 356.718 274.85 348.823 269.029 343.002C263.207 337.181 255.312 333.91 247.08 333.91C238.847 333.91 230.952 337.181 225.131 343.002C219.309 348.823 216.039 356.718 216.039 364.951V364.951Z" stroke="#45413C" stroke-width="6" stroke-linecap="round" stroke-linejoin="round"/>
</svg>
