<svg width="496" height="496" viewBox="0 0 496 496" fill="none" xmlns="http://www.w3.org/2000/svg">
<path d="M256.139 310.441C288.697 310.441 319.921 323.375 342.943 346.397C365.965 369.419 378.899 400.643 378.899 433.201V452.835H133.379V433.201C133.379 400.643 146.313 369.419 169.334 346.397C192.356 323.375 223.581 310.441 256.139 310.441Z" fill="white"/>
<path d="M256.139 310.441C223.581 310.441 192.356 323.375 169.334 346.397C146.313 369.419 133.379 400.643 133.379 433.201V452.835H134.516C138.544 423.439 153.083 396.496 175.442 376.992C197.801 357.488 226.468 346.742 256.139 346.742C285.81 346.742 314.477 357.488 336.836 376.992C359.195 396.496 373.734 423.439 377.762 452.835H378.899V433.201C378.899 400.643 365.965 369.419 342.943 346.397C319.921 323.375 288.697 310.441 256.139 310.441Z" fill="#F0F0F0"/>
<path d="M256.139 310.441C288.697 310.441 319.921 323.375 342.943 346.397C365.965 369.419 378.899 400.643 378.899 433.201V452.835H133.379V433.201C133.379 400.643 146.313 369.419 169.334 346.397C192.356 323.375 223.581 310.441 256.139 310.441V310.441Z" stroke="#45413C" stroke-width="7" stroke-linecap="round" stroke-linejoin="round"/>
<path d="M207.469 335.551C207.469 345.252 212.596 354.557 221.724 361.417C230.851 368.277 243.231 372.131 256.139 372.131C269.047 372.131 281.426 368.277 290.554 361.417C299.681 354.557 304.809 345.252 304.809 335.551C304.809 325.849 299.681 316.545 290.554 309.685C281.426 302.825 269.047 298.971 256.139 298.971C243.231 298.971 230.851 302.825 221.724 309.685C212.596 316.545 207.469 325.849 207.469 335.551Z" fill="#00DBA8"/>
<path d="M256.141 298.97C246.738 298.343 237.353 300.435 229.107 304.998C220.861 309.56 214.103 316.4 209.641 324.7C214.079 333.028 220.829 339.897 229.078 344.48C237.327 349.063 246.725 351.165 256.141 350.534C265.556 351.165 274.954 349.063 283.203 344.48C291.452 339.897 298.202 333.028 302.641 324.7C298.178 316.4 291.42 309.56 283.174 304.998C274.928 300.435 265.544 298.343 256.141 298.97Z" fill="#00AD85"/>
<path d="M207.469 335.551C207.469 345.252 212.596 354.557 221.724 361.417C230.851 368.277 243.231 372.131 256.139 372.131C269.047 372.131 281.426 368.277 290.554 361.417C299.681 354.557 304.809 345.252 304.809 335.551C304.809 325.849 299.681 316.545 290.554 309.685C281.426 302.825 269.047 298.971 256.139 298.971C243.231 298.971 230.851 302.825 221.724 309.685C212.596 316.545 207.469 325.849 207.469 335.551V335.551Z" stroke="#45413C" stroke-width="7" stroke-linecap="round" stroke-linejoin="round"/>
<path d="M256.141 268.488C252.686 268.488 249.264 269.171 246.073 270.496C242.882 271.822 239.984 273.764 237.546 276.212C235.107 278.66 233.176 281.566 231.863 284.762C230.55 287.959 229.881 291.383 229.895 294.838V324.185C229.895 331.146 232.66 337.822 237.582 342.744C242.504 347.666 249.18 350.432 256.141 350.432C263.102 350.432 269.778 347.666 274.701 342.744C279.623 337.822 282.388 331.146 282.388 324.185V294.838C282.402 291.383 281.733 287.959 280.42 284.762C279.107 281.566 277.176 278.66 274.737 276.212C272.299 273.764 269.401 271.822 266.209 270.496C263.018 269.171 259.597 268.488 256.141 268.488Z" fill="#FFCEBF"/>
<path d="M256.141 268.488C249.18 268.488 242.504 271.254 237.582 276.176C232.66 281.098 229.895 287.774 229.895 294.735V300.935C229.895 307.896 232.66 314.572 237.582 319.494C242.504 324.416 249.18 327.182 256.141 327.182C263.102 327.182 269.778 324.416 274.7 319.494C279.623 314.572 282.388 307.896 282.388 300.935V294.838C282.401 291.383 281.733 287.959 280.42 284.762C279.107 281.566 277.176 278.66 274.737 276.212C272.298 273.764 269.4 271.822 266.209 270.496C263.018 269.171 259.597 268.488 256.141 268.488Z" fill="#FFB59E"/>
<path d="M256.141 268.488C252.686 268.488 249.264 269.171 246.073 270.496C242.882 271.822 239.984 273.764 237.546 276.212C235.107 278.66 233.176 281.566 231.863 284.762C230.55 287.959 229.881 291.383 229.895 294.838V324.185C229.895 331.146 232.66 337.822 237.582 342.744C242.504 347.666 249.18 350.432 256.141 350.432C263.102 350.432 269.778 347.666 274.701 342.744C279.623 337.822 282.388 331.146 282.388 324.185V294.838C282.402 291.383 281.733 287.959 280.42 284.762C279.107 281.566 277.176 278.66 274.737 276.212C272.299 273.764 269.401 271.822 266.21 270.496C263.018 269.171 259.597 268.488 256.141 268.488V268.488Z" stroke="#45413C" stroke-width="7" stroke-linecap="round" stroke-linejoin="round"/>
<path d="M184.426 452.835V427.932" stroke="#45413C" stroke-width="7" stroke-linecap="round" stroke-linejoin="round"/>
<path d="M327.855 452.835V427.828" stroke="#45413C" stroke-width="7" stroke-linecap="round" stroke-linejoin="round"/>
<path d="M277.842 370.994C282.993 378.006 290.225 383.213 298.509 385.874C311.942 389.594 320.622 384.014 326.409 387.631C317.935 364.278 297.889 352.188 285.075 358.078C272.262 363.968 277.842 370.994 277.842 370.994Z" fill="#00DBA8" stroke="#45413C" stroke-width="7" stroke-linecap="round" stroke-linejoin="round"/>
<path d="M266.472 371.408C262.025 380.655 260.615 391.071 262.442 401.168C266.162 416.978 276.599 422.765 276.185 430.721C295.405 409.021 296.852 381.741 283.419 371.821C269.985 361.901 266.472 371.408 266.472 371.408Z" fill="#00DBA8" stroke="#45413C" stroke-width="7" stroke-linecap="round" stroke-linejoin="round"/>
<path d="M256.141 350.534C259.81 352.379 262.756 355.398 264.511 359.111C265.782 363.087 266.444 367.233 266.474 371.408C269.485 372.737 272.741 373.424 276.032 373.424C279.324 373.424 282.579 372.737 285.591 371.408C287.715 370.048 289.538 368.266 290.944 366.172C292.351 364.078 293.312 361.718 293.767 359.237C294.223 356.756 294.163 354.207 293.592 351.75C293.021 349.293 291.95 346.98 290.447 344.955C283.421 335.861 268.231 333.794 256.141 350.534Z" fill="#00DBA8" stroke="#45413C" stroke-width="7" stroke-linecap="round" stroke-linejoin="round"/>
<path d="M256.141 59.2383C247.636 59.2462 239.165 60.3224 230.928 62.4416C211.708 66.7816 186.701 74.0149 164.071 69.6749C163.19 75.5035 163.505 81.4506 164.997 87.1535C166.489 92.8563 169.128 98.1954 172.751 102.845C160.962 119.837 154.652 140.03 154.668 160.712V213.825H357.615V160.712C357.615 133.799 346.924 107.989 327.894 88.9591C308.864 69.9292 283.054 59.2383 256.141 59.2383Z" fill="#A86C4D" stroke="#45413C" stroke-width="7" stroke-linecap="round" stroke-linejoin="round"/>
<path d="M368.463 206.075C367.96 202.281 366.318 198.728 363.754 195.887C361.189 193.045 357.823 191.049 354.099 190.162L348.003 188.509C343.511 187.24 339.56 184.53 336.759 180.795C333.959 177.061 332.463 172.51 332.503 167.842V146.762C332.491 142.501 331.079 138.361 328.484 134.982C325.888 131.602 322.253 129.169 318.139 128.059C298.435 135.924 277.352 139.755 256.139 139.322C234.927 139.755 213.844 135.924 194.139 128.059C190.006 129.15 186.348 131.574 183.733 134.956C181.117 138.337 179.69 142.487 179.673 146.762V168.049C179.713 172.716 178.217 177.268 175.416 181.002C172.615 184.736 168.665 187.447 164.173 188.715L158.076 190.369C154.353 191.256 150.986 193.252 148.422 196.093C145.857 198.935 144.215 202.487 143.713 206.282C143.437 208.898 143.715 211.543 144.531 214.044C145.346 216.545 146.68 218.845 148.445 220.796C150.21 222.746 152.367 224.302 154.774 225.362C157.182 226.423 159.786 226.963 162.416 226.949H163.553C165.971 249.791 176.757 270.931 193.832 286.295C210.908 301.658 233.066 310.159 256.036 310.159C279.006 310.159 301.164 301.658 318.24 286.295C335.316 270.931 346.101 249.791 348.519 226.949H349.656C352.315 226.981 354.95 226.447 357.385 225.381C359.821 224.315 362.001 222.741 363.781 220.766C365.561 218.791 366.899 216.459 367.706 213.926C368.513 211.392 368.771 208.716 368.463 206.075Z" fill="#FFCEBF" stroke="#45413C" stroke-width="7" stroke-linecap="round" stroke-linejoin="round"/>
<path d="M200.032 203.905C200.032 205.478 200.499 207.017 201.373 208.325C202.247 209.634 203.49 210.653 204.944 211.256C206.398 211.858 207.997 212.015 209.541 211.708C211.084 211.401 212.502 210.644 213.615 209.531C214.728 208.418 215.485 207 215.792 205.457C216.099 203.913 215.942 202.314 215.34 200.86C214.737 199.406 213.718 198.163 212.409 197.289C211.101 196.415 209.562 195.948 207.989 195.948C206.94 195.934 205.899 196.13 204.927 196.525C203.956 196.92 203.073 197.506 202.331 198.247C201.59 198.989 201.004 199.872 200.609 200.843C200.214 201.815 200.018 202.856 200.032 203.905Z" fill="#45413C" stroke="#45413C" stroke-width="7" stroke-linecap="round" stroke-linejoin="round"/>
<path d="M312.249 203.905C312.249 205.478 311.783 207.017 310.908 208.325C310.034 209.634 308.791 210.653 307.337 211.256C305.884 211.858 304.284 212.015 302.74 211.708C301.197 211.401 299.779 210.644 298.666 209.531C297.554 208.418 296.796 207 296.489 205.457C296.182 203.913 296.339 202.314 296.942 200.86C297.544 199.406 298.564 198.163 299.872 197.289C301.181 196.415 302.719 195.948 304.293 195.948C305.341 195.934 306.382 196.13 307.354 196.525C308.325 196.92 309.208 197.506 309.95 198.247C310.691 198.989 311.277 199.872 311.672 200.843C312.067 201.815 312.263 202.856 312.249 203.905Z" fill="#45413C" stroke="#45413C" stroke-width="7" stroke-linecap="round" stroke-linejoin="round"/>
<path d="M226.795 252.367C226.141 252.381 225.498 252.536 224.909 252.822C224.321 253.107 223.801 253.516 223.385 254.021C222.952 254.507 222.635 255.085 222.456 255.711C222.277 256.337 222.241 256.995 222.352 257.637C223.747 265.586 227.9 272.788 234.08 277.978C240.26 283.167 248.071 286.012 256.142 286.012C264.212 286.012 272.023 283.167 278.203 277.978C284.384 272.788 288.536 265.586 289.932 257.637C290.042 256.995 290.006 256.337 289.827 255.711C289.648 255.085 289.331 254.507 288.898 254.021C288.482 253.516 287.962 253.107 287.374 252.822C286.785 252.536 286.142 252.381 285.488 252.367H226.795Z" fill="#FF6242"/>
<path d="M256.142 266.834C246.812 266.469 237.634 269.274 230.102 274.791C233.358 278.417 237.341 281.317 241.792 283.302C246.242 285.288 251.061 286.314 255.935 286.314C260.808 286.314 265.627 285.288 270.078 283.302C274.529 281.317 278.512 278.417 281.768 274.791C274.349 269.363 265.331 266.563 256.142 266.834Z" fill="#FFA694"/>
<path d="M226.795 252.367C226.141 252.381 225.498 252.536 224.909 252.822C224.321 253.107 223.801 253.516 223.385 254.021C222.952 254.507 222.635 255.085 222.456 255.711C222.277 256.337 222.241 256.995 222.352 257.637C223.747 265.586 227.9 272.788 234.08 277.978C240.26 283.167 248.071 286.012 256.142 286.012C264.212 286.012 272.023 283.167 278.203 277.978C284.384 272.788 288.536 265.586 289.932 257.637C290.042 256.995 290.006 256.337 289.827 255.711C289.648 255.085 289.331 254.507 288.898 254.021C288.482 253.516 287.962 253.107 287.374 252.822C286.785 252.536 286.142 252.381 285.488 252.367H226.795Z" stroke="#45413C" stroke-width="7" stroke-linecap="round" stroke-linejoin="round"/>
<path d="M184.426 237.798C184.426 239.442 185.514 241.019 187.452 242.182C189.39 243.344 192.019 243.998 194.759 243.998C197.5 243.998 200.128 243.344 202.066 242.182C204.004 241.019 205.092 239.442 205.092 237.798C205.092 236.153 204.004 234.576 202.066 233.414C200.128 232.251 197.5 231.598 194.759 231.598C192.019 231.598 189.39 232.251 187.452 233.414C185.514 234.576 184.426 236.153 184.426 237.798Z" fill="#FFB59E"/>
<path d="M307.188 237.798C307.188 239.442 308.276 241.019 310.214 242.182C312.152 243.344 314.78 243.998 317.521 243.998C320.261 243.998 322.89 243.344 324.828 242.182C326.765 241.019 327.854 239.442 327.854 237.798C327.854 236.153 326.765 234.576 324.828 233.414C322.89 232.251 320.261 231.598 317.521 231.598C314.78 231.598 312.152 232.251 310.214 233.414C308.276 234.576 307.188 236.153 307.188 237.798Z" fill="#FFB59E"/>
<path d="M149.398 170.321C149.398 159.368 197.138 150.481 256.142 150.481C315.145 150.481 362.885 159.368 362.885 170.321L359.475 130.641C359.475 119.688 313.182 110.904 256.142 110.904C199.102 110.904 152.808 119.688 152.808 130.641L149.398 170.321Z" fill="#8CA4B8"/>
<path d="M256.142 110.905C199.102 110.905 152.808 119.688 152.808 130.642L149.398 169.702C151.155 159.368 198.275 150.482 256.142 150.482H272.778C293.073 142.307 311.889 130.857 328.475 116.588C304.579 112.566 280.373 110.664 256.142 110.905Z" fill="#627B8C"/>
<path d="M149.398 170.321C149.398 159.368 197.138 150.481 256.142 150.481C315.145 150.481 362.885 159.368 362.885 170.321L359.475 130.641C359.475 119.688 313.182 110.904 256.142 110.904C199.102 110.904 152.808 119.688 152.808 130.641L149.398 170.321Z" stroke="#45413C" stroke-width="7" stroke-linecap="round" stroke-linejoin="round"/>
<path d="M372.804 80.8347C350.897 45.7014 295.51 36.6081 256.14 39.5014C209.96 44.9321 165.856 61.764 127.8 88.4814C109.82 101.501 103.517 115.348 108.787 123.511C119.844 144.178 178.537 149.035 268.437 111.008C320.104 112.145 359.474 120.515 359.474 130.641C359.474 130.641 392.23 110.905 372.804 80.8347Z" fill="#8CA4B8"/>
<path d="M112.714 128.471C117.015 122.944 122.097 118.071 127.8 114.005C165.886 87.3975 209.988 70.6729 256.14 65.3347C295.51 62.1314 350.897 71.2247 372.804 105.841C374.104 107.796 375.212 109.872 376.11 112.041C378.385 107.016 379.279 101.474 378.697 95.9887C378.116 90.503 376.081 85.2717 372.804 80.8347C350.897 45.7014 295.51 36.6081 256.14 39.5014C209.96 44.9321 165.856 61.764 127.8 88.4814C109.82 101.501 103.517 115.348 108.787 123.511C109.848 125.347 111.17 127.018 112.714 128.471Z" fill="#ADC4D9"/>
<path d="M372.804 80.8347C350.897 45.7014 295.51 36.6081 256.14 39.5014C209.96 44.9321 165.856 61.764 127.8 88.4814C109.82 101.501 103.517 115.348 108.787 123.511C119.844 144.178 178.537 149.035 268.437 111.008C320.104 112.145 359.474 120.515 359.474 130.641C359.474 130.641 392.23 110.905 372.804 80.8347Z" stroke="#45413C" stroke-width="7" stroke-linecap="round" stroke-linejoin="round"/>
<path d="M268.438 111.008C282.284 105.118 296.957 98.1951 312.251 90.3418" stroke="#45413C" stroke-width="7" stroke-linecap="round" stroke-linejoin="round"/>
<path d="M83.0573 452.834C83.0573 452.834 14.3406 374.508 73.5506 365.518C137.721 355.908 207.884 452.834 207.884 452.834H83.0573Z" fill="#DEBB7E"/>
<path d="M73.5503 394.968C114.057 388.871 156.734 425.141 182.774 452.834H207.47C207.47 452.834 137.72 355.908 73.137 365.518C46.8903 369.548 45.7537 387.011 52.4703 405.404C55.0262 402.251 58.2326 399.685 61.8706 397.884C65.5087 396.083 69.4926 395.088 73.5503 394.968Z" fill="#F0D5A8"/>
<path d="M83.0573 452.834C83.0573 452.834 14.3406 374.508 73.5506 365.518C137.721 355.908 207.884 452.834 207.884 452.834H83.0573Z" stroke="#45413C" stroke-width="7" stroke-linecap="round" stroke-linejoin="round"/>
<path d="M95.843 401.85C97.7445 403.18 99.7638 404.302 101.785 405.152C103.807 406.002 105.792 406.563 107.626 406.804C109.46 407.045 111.107 406.96 112.474 406.555C113.842 406.149 114.902 405.431 115.594 404.441C116.286 403.452 116.597 402.21 116.509 400.787C116.421 399.363 115.935 397.787 115.08 396.146C114.225 394.506 113.017 392.834 111.525 391.227C110.033 389.62 108.287 388.108 106.385 386.778C104.484 385.448 102.464 384.326 100.443 383.476C98.4211 382.626 96.4366 382.064 94.6025 381.824C92.7685 381.583 91.1209 381.668 89.7537 382.073C88.3865 382.479 87.3265 383.197 86.6343 384.186C85.9421 385.176 85.6312 386.418 85.7194 387.841C85.8075 389.265 86.293 390.841 87.1481 392.482C88.0033 394.122 89.2112 395.793 90.7031 397.401C92.1949 399.008 93.9415 400.52 95.843 401.85Z" fill="#FF6242" stroke="#45413C" stroke-width="7" stroke-linecap="round" stroke-linejoin="round"/>
<path d="M143.581 427.131C147.422 429.817 151.66 431.599 155.364 432.085C159.068 432.571 161.934 431.721 163.332 429.723C164.73 427.724 164.545 424.74 162.818 421.428C161.091 418.115 157.964 414.745 154.123 412.059C150.283 409.373 146.045 407.591 142.341 407.105C138.637 406.619 135.771 407.469 134.373 409.468C132.975 411.466 133.159 414.45 134.886 417.763C136.613 421.075 139.741 424.445 143.581 427.131Z" fill="#FFE500" stroke="#45413C" stroke-width="7" stroke-linecap="round" stroke-linejoin="round"/>
<path d="M411.555 363.348L389.855 357.975L404.839 286.262L431.602 292.875L411.555 363.348Z" fill="#DAEDF7" stroke="#45413C" stroke-width="7" stroke-linecap="round" stroke-linejoin="round"/>
<path d="M389.832 357.92L411.607 363.272L391.258 446.058L369.483 440.706L389.832 357.92Z" fill="#BF8256" stroke="#45413C" stroke-width="7" stroke-linecap="round" stroke-linejoin="round"/>
<path d="M404.835 286.261C398.118 273.448 406.695 257.741 416.512 249.681C422.765 244.891 427.327 238.23 429.532 230.668C435.657 234.929 440.405 240.884 443.195 247.804C445.985 254.724 446.695 262.307 445.238 269.625C444.644 274.195 443.151 278.602 440.845 282.592C438.54 286.582 435.467 290.077 431.805 292.875L404.835 286.261Z" fill="#FFF5E3" stroke="#45413C" stroke-width="7" stroke-linecap="round" stroke-linejoin="round"/>
<path d="M408.352 258.671C413.65 261.71 419.357 263.972 425.298 265.388C432.047 267.083 439.026 267.676 445.965 267.145C446.825 260.165 445.77 253.082 442.912 246.656C440.054 240.23 435.501 234.704 429.742 230.668C427.537 238.23 422.975 244.891 416.722 249.681C413.49 252.234 410.667 255.266 408.352 258.671Z" fill="#FF6242" stroke="#45413C" stroke-width="7" stroke-linecap="round" stroke-linejoin="round"/>
<path d="M372.083 362.634C376.181 363.641 379.712 366.235 381.897 369.846C384.083 373.456 384.745 377.787 383.737 381.886L367.137 449.419C360.91 447.888 355.545 443.946 352.224 438.46C348.903 432.974 347.897 426.393 349.428 420.166L362.18 368.287C362.697 366.184 364.028 364.373 365.88 363.252C367.732 362.131 369.954 361.791 372.056 362.308L372.083 362.634Z" fill="#FFCEBF"/>
<path d="M372.079 362.624C371.007 362.282 369.875 362.168 368.756 362.289C367.638 362.411 366.557 362.765 365.584 363.33C364.61 363.895 363.766 364.657 363.105 365.567C362.444 366.478 361.981 367.517 361.746 368.617L356.992 387.837C357.242 386.745 357.713 385.715 358.378 384.813C359.042 383.911 359.886 383.155 360.855 382.593C361.824 382.03 362.899 381.674 364.012 381.545C365.126 381.416 366.253 381.518 367.326 381.844C369.372 382.327 371.301 383.214 373 384.452C374.699 385.69 376.134 387.254 377.222 389.054C378.309 390.853 379.026 392.851 379.332 394.931C379.638 397.011 379.526 399.131 379.002 401.167L383.756 381.947C384.265 379.912 384.366 377.795 384.054 375.72C383.742 373.645 383.023 371.652 381.937 369.856C380.852 368.06 379.422 366.497 377.731 365.256C376.039 364.014 374.118 363.12 372.079 362.624Z" fill="#FFDCD1"/>
<path d="M372.083 362.634C376.181 363.641 379.712 366.235 381.897 369.846C384.083 373.456 384.745 377.787 383.737 381.886L367.137 449.419C360.91 447.888 355.545 443.946 352.224 438.46C348.903 432.974 347.897 426.393 349.428 420.166L362.18 368.287C362.697 366.184 364.028 364.373 365.88 363.252C367.732 362.131 369.954 361.791 372.056 362.308L372.083 362.634Z" stroke="#45413C" stroke-width="7" stroke-linecap="round" stroke-linejoin="round"/>
<path d="M410.109 386.599L390.475 381.639C387.454 380.878 384.254 381.335 381.566 382.91C378.878 384.486 376.916 387.054 376.103 390.062C375.29 393.07 375.691 396.277 377.22 398.992C378.748 401.707 381.282 403.714 384.275 404.579C381.312 404.17 378.304 404.893 375.851 406.605C373.398 408.316 371.681 410.889 371.042 413.811C370.403 416.733 370.889 419.788 372.403 422.367C373.918 424.947 376.349 426.86 379.212 427.725C377.692 427.352 376.114 427.282 374.567 427.519C373.02 427.756 371.535 428.295 370.196 429.106C368.857 429.917 367.692 430.983 366.765 432.244C365.839 433.506 365.17 434.937 364.797 436.457C364.424 437.977 364.354 439.555 364.59 441.102C364.827 442.649 365.366 444.134 366.177 445.473C366.988 446.812 368.055 447.977 369.316 448.904C370.577 449.83 372.009 450.499 373.529 450.872L393.472 455.729C399.295 457.164 405.451 456.229 410.585 453.129C415.72 450.029 419.414 445.017 420.855 439.195L427.055 413.982C428.491 408.159 427.556 402.003 424.456 396.869C421.356 391.734 416.344 388.04 410.522 386.599H410.109Z" fill="#FFCEBF"/>
<path d="M410.109 386.599L390.475 381.639C388.955 381.269 387.378 381.204 385.832 381.446C384.287 381.687 382.804 382.232 381.47 383.048C380.136 383.864 378.975 384.936 378.056 386.201C377.136 387.466 376.476 388.901 376.112 390.422C375.541 392.414 375.541 394.527 376.112 396.519C377.532 395.021 379.317 393.92 381.292 393.322C383.267 392.724 385.364 392.65 387.375 393.109L407.422 398.069C410.301 398.771 413.013 400.034 415.403 401.786C417.793 403.538 419.813 405.744 421.349 408.278C422.885 410.812 423.906 413.625 424.353 416.554C424.8 419.483 424.665 422.472 423.955 425.349L426.745 413.982C427.455 411.092 427.587 408.09 427.134 405.148C426.682 402.206 425.653 399.383 424.108 396.839C422.562 394.296 420.53 392.082 418.128 390.325C415.726 388.567 413.001 387.301 410.109 386.599Z" fill="#FFDCD1"/>
<path d="M410.109 386.599L390.475 381.639C387.454 380.878 384.254 381.335 381.566 382.91C378.878 384.486 376.916 387.054 376.103 390.062C375.29 393.07 375.691 396.277 377.22 398.992C378.748 401.707 381.282 403.714 384.275 404.579C381.312 404.17 378.304 404.893 375.851 406.605C373.398 408.316 371.681 410.889 371.042 413.811C370.403 416.733 370.889 419.788 372.403 422.367C373.918 424.947 376.349 426.86 379.212 427.725C377.692 427.352 376.114 427.282 374.567 427.519C373.02 427.756 371.535 428.295 370.196 429.106C368.857 429.917 367.692 430.983 366.765 432.244C365.839 433.506 365.17 434.937 364.797 436.457C364.424 437.977 364.354 439.555 364.59 441.102C364.827 442.649 365.366 444.134 366.177 445.473C366.988 446.812 368.055 447.977 369.316 448.904C370.577 449.83 372.009 450.499 373.529 450.872L393.472 455.729C399.295 457.164 405.451 456.229 410.585 453.129C415.72 450.029 419.414 445.017 420.855 439.195L427.055 413.982C428.491 408.159 427.556 402.003 424.456 396.869C421.356 391.734 416.344 388.04 410.522 386.599H410.109Z" stroke="#45413C" stroke-width="7" stroke-linecap="round" stroke-linejoin="round"/>
</svg>
