<svg width="495" height="495" viewBox="0 0 495 495" fill="none" xmlns="http://www.w3.org/2000/svg">
<path d="M15 247.25C15 301.951 36.7298 354.411 75.4092 393.091C114.089 431.77 166.549 453.5 221.25 453.5C275.951 453.5 328.411 431.77 367.091 393.091C405.77 354.411 427.5 301.951 427.5 247.25C427.5 192.549 405.77 140.089 367.091 101.409C328.411 62.7298 275.951 41 221.25 41C166.549 41 114.089 62.7298 75.4092 101.409C36.7298 140.089 15 192.549 15 247.25Z" fill="#FFE500"/>
<path d="M221.25 41C180.458 41 140.581 53.0964 106.664 75.7594C72.7461 98.4224 46.3105 130.634 30.6999 168.322C15.0894 206.009 11.0049 247.479 18.9631 287.487C26.9213 327.496 46.5647 364.246 75.4093 393.091C104.254 421.935 141.004 441.579 181.013 449.537C221.021 457.495 262.491 453.411 300.179 437.8C337.866 422.19 370.078 395.754 392.741 361.836C415.404 327.919 427.5 288.042 427.5 247.25C427.5 220.165 422.165 193.345 411.8 168.322C401.435 143.298 386.243 120.561 367.091 101.409C347.939 82.2571 325.202 67.0649 300.179 56.6998C275.155 46.3348 248.335 41 221.25 41ZM221.25 422.562C184.027 422.562 147.64 411.525 116.69 390.845C85.7402 370.165 61.6177 340.771 47.3731 306.382C33.1284 271.992 29.4014 234.151 36.6632 197.643C43.9251 161.135 61.8497 127.6 88.1704 101.28C114.491 74.959 148.026 57.0344 184.534 49.7725C221.041 42.5107 258.883 46.2377 293.272 60.4824C327.662 74.727 357.055 98.8495 377.735 129.799C398.415 160.749 409.453 197.136 409.453 234.359C409.453 284.274 389.625 332.144 354.33 367.439C319.035 402.734 271.165 422.562 221.25 422.562Z" fill="#EBCB00"/>
<path d="M159.375 82.25C159.375 86.3526 165.894 90.2871 177.498 93.1881C189.102 96.089 204.84 97.7188 221.25 97.7188C237.66 97.7188 253.398 96.089 265.002 93.1881C276.606 90.2871 283.125 86.3526 283.125 82.25C283.125 78.1474 276.606 74.2129 265.002 71.3119C253.398 68.411 237.66 66.7812 221.25 66.7812C204.84 66.7812 189.102 68.411 177.498 71.3119C165.894 74.2129 159.375 78.1474 159.375 82.25Z" fill="#FFF48C"/>
<path d="M405.742 339.443C387.099 376.608 357.658 407.27 321.282 427.409L309.732 400.39L304.06 387.087C300.271 377.507 298.464 367.258 298.748 356.96C299.031 346.662 301.4 336.528 305.71 327.171C309.285 318.727 314.783 311.234 321.766 305.29C328.748 299.346 337.022 295.115 345.929 292.934C354.704 290.847 363.9 291.386 372.371 294.485C380.842 297.584 388.215 303.105 393.573 310.362C397.116 314.848 399.871 319.905 401.72 325.315L405.742 339.443Z" fill="#EBCB00"/>
<path d="M15 247.25C15 301.951 36.7298 354.411 75.4092 393.091C114.089 431.77 166.549 453.5 221.25 453.5C275.951 453.5 328.411 431.77 367.091 393.091C405.77 354.411 427.5 301.951 427.5 247.25C427.5 192.549 405.77 140.089 367.091 101.409C328.411 62.7298 275.951 41 221.25 41C166.549 41 114.089 62.7298 75.4092 101.409C36.7298 140.089 15 192.549 15 247.25V247.25Z" stroke="#45413C" stroke-width="7" stroke-linecap="round" stroke-linejoin="round"/>
<path d="M473.907 333.668C477.341 340.214 479.211 347.465 479.372 354.855C479.533 362.244 477.981 369.57 474.835 376.259C471.446 383.98 466.514 390.926 460.343 396.672C454.171 402.418 446.891 406.841 438.948 409.672L353.87 438.237L318.704 355.737C315.535 347.889 314.01 339.475 314.223 331.014C314.436 322.553 316.382 314.225 319.942 306.547C322.857 299.746 327.306 293.712 332.942 288.918C338.578 284.123 345.246 280.697 352.426 278.909C361.863 276.718 371.782 278.25 380.118 283.186C388.455 288.123 394.567 296.084 397.182 305.412L403.782 327.172L424.407 317.993C433.093 313.751 443.077 313.012 452.293 315.93C461.508 318.848 469.247 325.2 473.907 333.668Z" fill="#FF6242"/>
<path d="M334.791 318.51C344.216 316.288 354.135 317.794 362.475 322.714C370.816 327.634 376.932 335.586 379.547 344.91L386.147 366.154L406.772 356.975C415.49 352.731 425.512 352.024 434.739 355.004C443.967 357.983 451.683 364.418 456.272 372.96C459.962 379.756 461.811 387.4 461.634 395.132C467.128 389.682 471.599 383.29 474.834 376.26C477.98 369.571 479.533 362.245 479.372 354.856C479.211 347.466 477.34 340.214 473.906 333.669C469.298 325.146 461.582 318.728 452.362 315.751C443.142 312.774 433.129 313.466 424.406 317.685L403.781 326.863L397.181 305.619C394.566 296.291 388.454 288.33 380.117 283.393C371.781 278.457 361.862 276.925 352.425 279.116C345.266 280.883 338.61 284.277 332.976 289.035C327.342 293.792 322.882 299.785 319.941 306.547C316.744 313.67 314.925 321.333 314.578 329.132C320.25 323.855 327.228 320.188 334.791 318.51Z" fill="#FF866E"/>
<path d="M473.907 333.668C477.341 340.214 479.211 347.465 479.372 354.855C479.533 362.244 477.981 369.57 474.835 376.259C471.446 383.98 466.514 390.926 460.343 396.672C454.171 402.418 446.891 406.841 438.948 409.672L353.87 438.237L318.704 355.737C315.535 347.889 314.01 339.475 314.223 331.014C314.436 322.553 316.382 314.225 319.942 306.547C322.857 299.746 327.306 293.712 332.942 288.918C338.578 284.123 345.246 280.697 352.426 278.909C361.863 276.718 371.782 278.25 380.118 283.186C388.455 288.123 394.567 296.084 397.182 305.412L403.782 327.172L424.407 317.993C433.093 313.751 443.077 313.012 452.293 315.93C461.508 318.848 469.247 325.2 473.907 333.668V333.668Z" stroke="#45413C" stroke-width="7" stroke-linecap="round" stroke-linejoin="round"/>
<path d="M71.7188 298.812C71.7188 307.372 83.2688 314.281 97.5 314.281C111.731 314.281 123.281 307.372 123.281 298.812C123.281 290.253 111.731 283.344 97.5 283.344C83.2688 283.344 71.7188 290.253 71.7188 298.812Z" fill="#FFAA54"/>
<path d="M316.641 240.805C316.641 242.844 317.245 244.838 318.379 246.534C319.512 248.23 321.122 249.552 323.007 250.332C324.891 251.113 326.965 251.317 328.965 250.919C330.965 250.521 332.803 249.539 334.245 248.097C335.687 246.655 336.67 244.817 337.067 242.817C337.465 240.816 337.261 238.743 336.481 236.858C335.7 234.974 334.378 233.363 332.682 232.23C330.987 231.097 328.993 230.492 326.953 230.492C324.218 230.492 321.595 231.579 319.661 233.513C317.727 235.447 316.641 238.07 316.641 240.805Z" fill="#45413C" stroke="#45413C" stroke-width="7" stroke-linecap="round" stroke-linejoin="round"/>
<path d="M97.5 236.938C97.5 238.977 98.1048 240.971 99.238 242.667C100.371 244.363 101.982 245.684 103.866 246.465C105.75 247.246 107.824 247.45 109.824 247.052C111.825 246.654 113.662 245.672 115.105 244.23C116.547 242.787 117.529 240.95 117.927 238.949C118.325 236.949 118.121 234.875 117.34 232.991C116.559 231.107 115.238 229.496 113.542 228.363C111.846 227.23 109.852 226.625 107.812 226.625C105.077 226.625 102.454 227.711 100.52 229.645C98.5865 231.579 97.5 234.202 97.5 236.938Z" fill="#45413C" stroke="#45413C" stroke-width="7" stroke-linecap="round" stroke-linejoin="round"/>
<path d="M221.352 316.859C224.485 315.041 228.042 314.081 231.664 314.074C237.134 314.074 242.38 316.247 246.248 320.115C250.116 323.983 252.289 329.229 252.289 334.699C252.289 340.169 250.116 345.415 246.248 349.283C242.38 353.151 237.134 355.324 231.664 355.324C237.134 355.324 242.38 357.497 246.248 361.365C250.116 365.233 252.289 370.479 252.289 375.949C252.289 381.419 250.116 386.665 246.248 390.533C242.38 394.401 237.134 396.574 231.664 396.574C228.042 396.568 224.485 395.607 221.352 393.79" stroke="#45413C" stroke-width="7" stroke-linecap="round" stroke-linejoin="round"/>
</svg>
