<svg width="496" height="496" viewBox="0 0 496 496" fill="none" xmlns="http://www.w3.org/2000/svg">
<path d="M126.417 10.0005C117.987 10.0321 109.592 11.0728 101.41 13.1005C82.5001 17.4405 57.8035 24.6738 35.3802 20.3338C34.4847 26.1064 34.7838 32.0014 36.2591 37.6537C37.7344 43.306 40.3544 48.5952 43.9568 53.1938C32.2099 69.9685 25.9304 89.9618 25.9768 110.44V162.934H227.167V110.44C227.167 97.2244 224.559 84.1382 219.492 71.932C214.425 59.7258 206.999 48.6396 197.639 39.3088C188.28 29.9781 177.17 22.5862 164.949 17.5569C152.727 12.5275 139.633 9.95969 126.417 10.0005Z" fill="#A86C4D"/>
<path d="M126.417 10.0005C117.988 10.0321 109.593 11.0728 101.411 13.1005C82.5007 17.4405 57.8041 24.6738 35.3807 20.3338C33.8677 31.1642 36.327 42.1762 42.3041 51.3338C62.3109 51.7028 82.2529 48.9486 101.411 43.1705C109.593 41.1428 117.988 40.1021 126.417 40.0705C139.616 40.0297 152.693 42.5907 164.902 47.6071C177.11 52.6236 188.21 59.997 197.567 69.3058C206.923 78.6147 214.354 89.6765 219.433 101.859C224.512 114.041 227.14 127.105 227.167 140.304V110.44C227.167 97.2244 224.559 84.1382 219.492 71.932C214.425 59.7258 206.999 48.6396 197.64 39.3088C188.28 29.9781 177.171 22.5862 164.949 17.5569C152.728 12.5275 139.633 9.95969 126.417 10.0005Z" fill="#DE926A"/>
<path d="M126.417 10.0005C117.987 10.0321 109.592 11.0728 101.41 13.1005C82.5001 17.4405 57.8035 24.6738 35.3802 20.3338C34.4847 26.1064 34.7838 32.0014 36.2591 37.6537C37.7344 43.306 40.3544 48.5952 43.9568 53.1938C32.2099 69.9685 25.9304 89.9618 25.9768 110.44V162.934H227.167V110.44C227.167 97.2244 224.559 84.1382 219.492 71.932C214.425 59.7258 206.999 48.6396 197.639 39.3088C188.28 29.9781 177.17 22.5862 164.949 17.5569C152.727 12.5275 139.633 9.95969 126.417 10.0005V10.0005Z" stroke="#45413C" stroke-width="7" stroke-linecap="round" stroke-linejoin="round"/>
<path d="M126.417 258.518C142.361 258.518 158.15 261.658 172.881 267.76C187.612 273.862 200.997 282.805 212.271 294.08C223.546 305.354 232.489 318.739 238.591 333.47C244.693 348.201 247.833 363.99 247.833 379.934V485.954H5V379.934C5 363.99 8.14053 348.201 14.2423 333.47C20.3441 318.739 29.2875 305.354 40.5621 294.08C63.3322 271.31 94.215 258.518 126.417 258.518Z" fill="#00B8F0"/>
<path d="M126.417 258.518C94.215 258.518 63.3322 271.31 40.5621 294.08C17.7921 316.85 5 347.733 5 379.934V417.031C5 384.829 17.7921 353.946 40.5621 331.176C63.3322 308.406 94.215 295.614 126.417 295.614C158.618 295.614 189.501 308.406 212.271 331.176C235.041 353.946 247.833 384.829 247.833 417.031V379.934C247.833 363.99 244.693 348.201 238.591 333.47C232.489 318.739 223.546 305.354 212.271 294.08C200.997 282.805 187.612 273.862 172.881 267.76C158.15 261.658 142.361 258.518 126.417 258.518Z" fill="#009FD9"/>
<path d="M126.417 258.518C142.361 258.518 158.15 261.658 172.881 267.76C187.612 273.862 200.997 282.805 212.271 294.08C223.546 305.354 232.489 318.739 238.591 333.47C244.693 348.201 247.833 363.99 247.833 379.934V485.954H5V379.934C5 363.99 8.14053 348.201 14.2423 333.47C20.3441 318.739 29.2875 305.354 40.5621 294.08C63.3322 271.31 94.215 258.518 126.417 258.518V258.518Z" stroke="#45413C" stroke-width="7" stroke-linecap="round" stroke-linejoin="round"/>
<path d="M100.375 217.08H152.352V298.197H100.375V217.08Z" fill="#FFCEBF"/>
<path d="M100.375 217.08H152.352V277.22H100.375V217.08Z" fill="#FFB59E"/>
<path d="M100.375 217.08H152.352V298.197H100.375V217.08Z" stroke="#45413C" stroke-width="7" stroke-linecap="round" stroke-linejoin="round"/>
<path d="M237.5 153.84C236.627 149.411 234.222 145.43 230.708 142.596C227.194 139.762 222.794 138.255 218.28 138.34C213.95 138.34 209.797 136.62 206.735 133.558C203.673 130.497 201.953 126.344 201.953 122.014V96.5938C202 92.306 200.612 88.1257 198.009 84.7178C195.406 81.31 191.739 78.8704 187.59 77.7871C168.146 85.5467 147.347 89.3411 126.416 88.9471C105.485 89.3411 84.6867 85.5467 65.243 77.7871C61.2095 78.9853 57.6805 81.474 55.1979 84.8713C52.7152 88.2687 51.416 92.3868 51.4997 96.5938V122.014C51.4997 124.158 51.0774 126.281 50.2569 128.262C49.4364 130.243 48.2338 132.042 46.7177 133.558C45.2017 135.075 43.4018 136.277 41.421 137.098C39.4401 137.918 37.3171 138.34 35.173 138.34C30.6591 138.255 26.2592 139.762 22.7449 142.596C19.2305 145.43 16.8261 149.411 15.953 153.84C15.5012 156.498 15.6358 159.223 16.3475 161.823C17.0592 164.424 18.3307 166.837 20.0731 168.894C21.8155 170.952 23.9865 172.603 26.4342 173.733C28.8819 174.864 31.547 175.445 34.243 175.437H35.3797C39.2154 196.929 50.4896 216.386 67.2279 230.402C83.9663 244.417 105.102 252.097 126.933 252.097C148.764 252.097 169.9 244.417 186.638 230.402C203.377 216.386 214.651 196.929 218.486 175.437H219.623C222.284 175.386 224.903 174.76 227.3 173.604C229.697 172.448 231.817 170.788 233.514 168.738C235.211 166.688 236.446 164.296 237.133 161.725C237.821 159.153 237.946 156.464 237.5 153.84Z" fill="#FFCEBF" stroke="#45413C" stroke-width="7" stroke-linecap="round" stroke-linejoin="round"/>
<path d="M70.8242 153.117C70.8514 155.209 71.7017 157.207 73.1909 158.677C74.6801 160.146 76.6884 160.971 78.7809 160.97C80.8637 160.97 82.8613 160.143 84.334 158.67C85.8068 157.197 86.6342 155.2 86.6342 153.117C86.6342 151.034 85.8068 149.037 84.334 147.564C82.8613 146.091 80.8637 145.264 78.7809 145.264C76.6884 145.263 74.6801 146.088 73.1909 147.557C71.7017 149.027 70.8514 151.025 70.8242 153.117Z" fill="#45413C" stroke="#45413C" stroke-width="7" stroke-linecap="round" stroke-linejoin="round"/>
<path d="M182.009 153.117C181.982 155.209 181.132 157.207 179.643 158.677C178.153 160.146 176.145 160.971 174.053 160.97C171.97 160.97 169.972 160.143 168.499 158.67C167.027 157.197 166.199 155.2 166.199 153.117C166.199 151.034 167.027 149.037 168.499 147.564C169.972 146.091 171.97 145.264 174.053 145.264C176.145 145.263 178.153 146.088 179.643 147.557C181.132 149.027 181.982 151.025 182.009 153.117Z" fill="#45413C" stroke="#45413C" stroke-width="7" stroke-linecap="round" stroke-linejoin="round"/>
<path d="M97.3781 201.063C96.7255 201.084 96.0846 201.242 95.497 201.527C94.9095 201.812 94.3886 202.217 93.9681 202.717C93.5418 203.207 93.2284 203.786 93.0499 204.41C92.8713 205.035 92.832 205.692 92.9348 206.333C94.3229 214.205 98.4398 221.335 104.563 226.472C110.685 231.61 118.422 234.426 126.415 234.426C134.407 234.426 142.144 231.61 148.267 226.472C154.39 221.335 158.507 214.205 159.895 206.333C159.997 205.692 159.958 205.035 159.78 204.41C159.601 203.786 159.288 203.207 158.861 202.717C158.441 202.217 157.92 201.812 157.333 201.527C156.745 201.242 156.104 201.084 155.451 201.063H97.3781Z" fill="#FF6242"/>
<path d="M126.415 234.647C135.286 234.657 143.811 231.21 150.182 225.037C143.804 218.875 135.283 215.431 126.415 215.431C117.547 215.431 109.026 218.875 102.648 225.037C109.019 231.21 117.544 234.657 126.415 234.647Z" fill="#FFA694"/>
<path d="M97.3781 201.063C96.7255 201.084 96.0846 201.242 95.497 201.527C94.9095 201.812 94.3886 202.217 93.9681 202.717C93.5418 203.207 93.2284 203.786 93.0499 204.41C92.8713 205.035 92.832 205.692 92.9348 206.333C94.3229 214.205 98.4398 221.335 104.563 226.472C110.685 231.61 118.422 234.426 126.415 234.426C134.407 234.426 142.144 231.61 148.267 226.472C154.39 221.335 158.507 214.205 159.895 206.333C159.997 205.692 159.958 205.035 159.78 204.41C159.601 203.786 159.288 203.207 158.861 202.717C158.441 202.217 157.92 201.812 157.333 201.527C156.745 201.242 156.104 201.084 155.451 201.063H97.3781Z" stroke="#45413C" stroke-width="7" stroke-linecap="round" stroke-linejoin="round"/>
<path d="M55.4258 485.954V374.664" stroke="#45413C" stroke-width="7" stroke-linecap="round" stroke-linejoin="round"/>
<path d="M55.4258 186.7C55.4258 188.317 56.5036 189.868 58.4221 191.011C60.3406 192.155 62.9426 192.797 65.6558 192.797C68.3689 192.797 70.971 192.155 72.8895 191.011C74.808 189.868 75.8858 188.317 75.8858 186.7C75.8858 185.083 74.808 183.533 72.8895 182.389C70.971 181.246 68.3689 180.604 65.6558 180.604C62.9426 180.604 60.3406 181.246 58.4221 182.389C56.5036 183.533 55.4258 185.083 55.4258 186.7Z" fill="#FFB59E"/>
<path d="M176.945 186.7C176.945 188.317 178.023 189.868 179.942 191.011C181.86 192.155 184.462 192.797 187.175 192.797C189.888 192.797 192.491 192.155 194.409 191.011C196.328 189.868 197.405 188.317 197.405 186.7C197.405 185.083 196.328 183.533 194.409 182.389C192.491 181.246 189.888 180.604 187.175 180.604C184.462 180.604 181.86 181.246 179.942 182.389C178.023 183.533 176.945 185.083 176.945 186.7Z" fill="#FFB59E"/>
<path d="M469.69 110.44V162.933H268.5V110.44C268.5 83.8016 279.082 58.2543 297.918 39.4182C316.754 20.582 342.302 10 368.94 10C395.578 10 421.126 20.582 439.962 39.4182C458.798 58.2543 469.38 83.8016 469.38 110.44H469.69Z" fill="#A86C4D"/>
<path d="M369.25 10.0005C356.034 9.95969 342.94 12.5275 330.718 17.5569C318.496 22.5862 307.387 29.9781 298.028 39.3088C288.668 48.6396 281.242 59.7258 276.175 71.932C271.108 84.1382 268.5 97.2244 268.5 110.44V140.304C268.5 113.665 279.082 88.1181 297.918 69.282C316.754 50.4459 342.302 39.8638 368.94 39.8638C395.578 39.8638 421.126 50.4459 439.962 69.282C458.798 88.1181 469.38 113.665 469.38 140.304V110.44C469.38 83.8557 458.841 58.3553 440.071 39.528C421.302 20.7008 395.835 10.0825 369.25 10.0005Z" fill="#DE926A"/>
<path d="M469.69 110.44V162.933H268.5V110.44C268.5 83.8016 279.082 58.2544 297.918 39.4182C316.754 20.582 342.302 10 368.94 10C395.578 10 421.126 20.582 439.962 39.4182C458.798 58.2544 469.38 83.8016 469.38 110.44H469.69Z" stroke="#45413C" stroke-width="7" stroke-linecap="round" stroke-linejoin="round"/>
<path d="M490.668 485.954L247.835 485.954V379.934C247.835 363.989 250.975 348.201 257.077 333.47C263.179 318.739 272.122 305.354 283.397 294.08C294.671 282.805 308.056 273.862 322.787 267.76C337.518 261.658 353.307 258.517 369.251 258.517C401.453 258.517 432.336 271.309 455.106 294.08C477.876 316.85 490.668 347.732 490.668 379.934V485.954Z" fill="#00DFEB"/>
<path d="M369.249 258.518C385.193 258.518 400.982 261.658 415.713 267.76C430.444 273.862 443.829 282.805 455.103 294.08C466.378 305.354 475.321 318.739 481.423 333.47C487.525 348.201 490.665 363.99 490.665 379.934V417.031C490.665 384.829 477.873 353.946 455.103 331.176C432.333 308.406 401.45 295.614 369.249 295.614C337.047 295.614 306.164 308.406 283.394 331.176C260.624 353.946 247.832 384.829 247.832 417.031V379.934C247.832 363.99 250.973 348.201 257.074 333.47C263.176 318.739 272.12 305.354 283.394 294.08C306.164 271.31 337.047 258.518 369.249 258.518Z" fill="#00C9D4"/>
<path d="M490.668 485.954L247.835 485.954V379.934C247.835 363.989 250.975 348.201 257.077 333.47C263.179 318.739 272.122 305.354 283.397 294.08C294.671 282.805 308.056 273.862 322.787 267.76C337.518 261.658 353.307 258.517 369.251 258.517V258.517C401.453 258.517 432.336 271.31 455.106 294.08C477.876 316.85 490.668 347.732 490.668 379.934V485.954Z" stroke="#45413C" stroke-width="7" stroke-linecap="round" stroke-linejoin="round"/>
<path d="M395.289 298.301H343.312V217.184H395.289V298.301Z" fill="#FFCEBF"/>
<path d="M395.289 277.221H343.312V217.081H395.289V277.221Z" fill="#FFB59E"/>
<path d="M395.289 298.301H343.312V217.184H395.289V298.301Z" stroke="#45413C" stroke-width="7" stroke-linecap="round" stroke-linejoin="round"/>
<path d="M258.165 153.84C259.038 149.411 261.442 145.43 264.957 142.596C268.471 139.762 272.871 138.255 277.385 138.34C281.715 138.34 285.868 136.62 288.929 133.558C291.991 130.497 293.711 126.344 293.711 122.014V96.5938C293.665 92.306 295.053 88.1257 297.656 84.7178C300.258 81.31 303.926 78.8704 308.075 77.7871C327.518 85.5467 348.317 89.3411 369.248 88.9471C390.179 89.3411 410.978 85.5467 430.421 77.7871C434.5 78.8764 438.106 81.278 440.683 84.6211C443.261 87.9641 444.666 92.0626 444.681 96.2838V121.704C444.681 126.034 446.402 130.187 449.463 133.248C452.525 136.31 456.678 138.03 461.008 138.03C465.522 137.945 469.922 139.452 473.436 142.286C476.951 145.12 479.355 149.101 480.228 153.53C480.68 156.188 480.545 158.913 479.834 161.513C479.122 164.114 477.85 166.527 476.108 168.584C474.366 170.642 472.195 172.293 469.747 173.424C467.299 174.554 464.634 175.135 461.938 175.127H460.801C456.966 196.619 445.692 216.076 428.953 230.092C412.215 244.107 391.079 251.787 369.248 251.787C347.417 251.787 326.281 244.107 309.543 230.092C292.805 216.076 281.53 196.619 277.695 175.127H276.558C273.884 175.143 271.239 174.578 268.804 173.473C266.369 172.368 264.202 170.747 262.454 168.724C260.706 166.701 259.417 164.322 258.676 161.753C257.936 159.183 257.761 156.484 258.165 153.84Z" fill="#FFCEBF" stroke="#45413C" stroke-width="7" stroke-linecap="round" stroke-linejoin="round"/>
<path d="M424.845 153.117C424.818 155.209 423.968 157.207 422.478 158.677C420.989 160.146 418.981 160.971 416.889 160.97C414.806 160.97 412.808 160.143 411.335 158.67C409.863 157.197 409.035 155.2 409.035 153.117C409.035 151.034 409.863 149.037 411.335 147.564C412.808 146.091 414.806 145.264 416.889 145.264C418.981 145.263 420.989 146.088 422.478 147.557C423.968 149.027 424.818 151.025 424.845 153.117Z" fill="#45413C" stroke="#45413C" stroke-width="7" stroke-linecap="round" stroke-linejoin="round"/>
<path d="M313.656 153.117C313.683 155.209 314.534 157.207 316.023 158.677C317.512 160.146 319.52 160.971 321.613 160.97C323.696 160.97 325.693 160.143 327.166 158.67C328.639 157.197 329.466 155.2 329.466 153.117C329.466 151.034 328.639 149.037 327.166 147.564C325.693 146.091 323.696 145.264 321.613 145.264C319.52 145.263 317.512 146.088 316.023 147.557C314.534 149.027 313.683 151.025 313.656 153.117Z" fill="#45413C" stroke="#45413C" stroke-width="7" stroke-linecap="round" stroke-linejoin="round"/>
<path d="M398.287 201.063C398.94 201.084 399.581 201.242 400.168 201.527C400.756 201.812 401.277 202.217 401.697 202.717C402.124 203.207 402.437 203.786 402.616 204.41C402.794 205.035 402.833 205.692 402.731 206.333C401.343 214.205 397.226 221.335 391.103 226.472C384.98 231.61 377.243 234.426 369.251 234.426C361.258 234.426 353.521 231.61 347.399 226.472C341.276 221.335 337.159 214.205 335.771 206.333C335.668 205.692 335.707 205.035 335.886 204.41C336.064 203.786 336.378 203.207 336.804 202.717C337.225 202.217 337.745 201.812 338.333 201.527C338.921 201.242 339.561 201.084 340.214 201.063H398.287Z" fill="#FF6242"/>
<path d="M369.251 234.647C360.38 234.657 351.855 231.21 345.484 225.037C351.862 218.875 360.383 215.431 369.251 215.431C378.119 215.431 386.64 218.875 393.018 225.037C386.647 231.21 378.122 234.657 369.251 234.647Z" fill="#FFA694"/>
<path d="M398.287 201.063C398.94 201.084 399.581 201.242 400.168 201.527C400.756 201.812 401.277 202.217 401.697 202.717C402.124 203.207 402.437 203.786 402.616 204.41C402.794 205.035 402.833 205.692 402.731 206.333C401.343 214.205 397.226 221.335 391.103 226.472C384.98 231.61 377.243 234.426 369.251 234.426C361.258 234.426 353.521 231.61 347.399 226.472C341.276 221.335 337.159 214.205 335.771 206.333C335.668 205.692 335.707 205.035 335.886 204.41C336.064 203.786 336.378 203.207 336.804 202.717C337.225 202.217 337.745 201.812 338.333 201.527C338.921 201.242 339.561 201.084 340.214 201.063H398.287Z" stroke="#45413C" stroke-width="7" stroke-linecap="round" stroke-linejoin="round"/>
<path d="M440.238 485.954V374.664" stroke="#45413C" stroke-width="7" stroke-linecap="round" stroke-linejoin="round"/>
<path d="M419.781 186.7C419.781 188.317 420.859 189.868 422.778 191.011C424.696 192.155 427.298 192.797 430.011 192.797C432.724 192.797 435.326 192.155 437.245 191.011C439.163 189.868 440.241 188.317 440.241 186.7C440.241 185.083 439.163 183.533 437.245 182.389C435.326 181.246 432.724 180.604 430.011 180.604C427.298 180.604 424.696 181.246 422.778 182.389C420.859 183.533 419.781 185.083 419.781 186.7Z" fill="#FFB59E"/>
<path d="M298.262 186.7C298.262 188.317 299.34 189.868 301.258 191.011C303.177 192.155 305.779 192.797 308.492 192.797C311.205 192.797 313.807 192.155 315.725 191.011C317.644 189.868 318.722 188.317 318.722 186.7C318.722 185.083 317.644 183.533 315.725 182.389C313.807 181.246 311.205 180.604 308.492 180.604C305.779 180.604 303.177 181.246 301.258 182.389C299.34 183.533 298.262 185.083 298.262 186.7Z" fill="#FFB59E"/>
<path d="M247.835 485.954C240.839 467.47 228.381 451.553 212.12 440.321C195.858 429.088 176.562 423.072 156.798 423.072C137.035 423.072 117.739 429.088 101.477 440.321C85.2155 451.553 72.7582 467.47 65.7617 485.954H247.835Z" fill="#00F5BC"/>
<path d="M156.798 451.544C170.928 451.512 184.893 454.576 197.711 460.521C210.529 466.466 221.889 475.147 230.992 485.954H247.835C240.839 467.47 228.381 451.553 212.12 440.321C195.858 429.088 176.562 423.072 156.798 423.072C137.035 423.072 117.739 429.088 101.477 440.321C85.2155 451.553 72.7582 467.47 65.7617 485.954H82.5017C91.6341 475.155 103.014 466.481 115.847 460.538C128.68 454.594 142.656 451.525 156.798 451.544Z" fill="#00DBA8"/>
<path d="M247.835 485.954C240.839 467.47 228.381 451.553 212.12 440.321C195.858 429.088 176.562 423.072 156.798 423.072C137.035 423.072 117.739 429.088 101.477 440.321C85.2155 451.553 72.7582 467.47 65.7617 485.954H247.835Z" stroke="#45413C" stroke-width="7" stroke-linecap="round" stroke-linejoin="round"/>
<path d="M137.578 390.061H176.018V456.194H137.578V390.061Z" fill="#FFCEBF"/>
<path d="M137.578 390.061H176.018V438.007H137.578V390.061Z" fill="#FFB59E"/>
<path d="M137.578 390.061H176.018V456.194H137.578V390.061Z" stroke="#45413C" stroke-width="7" stroke-linecap="round" stroke-linejoin="round"/>
<path d="M156.797 240.744C150.488 240.744 144.203 241.543 138.094 243.121C122.19 248.195 105.428 250.023 88.804 248.494C88.1499 252.79 88.3711 257.174 89.4543 261.383C90.5375 265.591 92.4604 269.538 95.1073 272.984C86.4815 285.472 81.8347 300.277 81.7773 315.454V354.721H231.817V315.454C231.735 295.611 223.795 276.609 209.735 262.607C195.675 248.605 176.64 240.744 156.797 240.744Z" fill="#A86C4D"/>
<path d="M156.798 240.744C150.489 240.744 144.204 241.543 138.095 243.121C122.191 248.195 105.429 250.023 88.8051 248.494C88.1592 252.751 88.3752 257.094 89.4403 261.265C90.5053 265.437 92.3977 269.352 95.0051 272.777C109.589 272.862 124.107 270.808 138.095 266.681C149.153 263.834 160.714 263.549 171.899 265.847C183.083 268.145 193.595 272.966 202.634 279.942C211.674 286.918 219.001 295.866 224.059 306.103C229.116 316.34 231.77 327.596 231.818 339.014V315.454C231.736 295.611 223.796 276.609 209.736 262.607C195.676 248.605 176.641 240.744 156.798 240.744Z" fill="#DE926A"/>
<path d="M156.797 240.744C150.488 240.744 144.203 241.543 138.094 243.121C122.19 248.195 105.428 250.023 88.804 248.494C88.1499 252.79 88.3711 257.174 89.4543 261.383C90.5375 265.591 92.4604 269.538 95.1073 272.984C86.4815 285.472 81.8347 300.277 81.7773 315.454V354.721H231.817V315.454C231.735 295.611 223.795 276.609 209.735 262.607C195.675 248.605 176.64 240.744 156.797 240.744V240.744Z" stroke="#45413C" stroke-width="7" stroke-linecap="round" stroke-linejoin="round"/>
<path d="M84.3602 337.463C81.6758 338.204 79.2667 339.713 77.4305 341.807C75.5942 343.9 74.411 346.485 74.0269 349.243C73.8702 351.16 74.1114 353.088 74.7354 354.907C75.3594 356.726 76.3528 358.396 77.653 359.813C78.9533 361.23 80.5324 362.362 82.2912 363.14C84.0501 363.917 85.9506 364.322 87.8735 364.33H88.7002C91.0962 380.763 99.3273 395.783 111.888 406.646C124.449 417.508 140.501 423.486 157.107 423.486C173.713 423.486 189.764 417.508 202.325 406.646C214.886 395.783 223.118 380.763 225.514 364.33H226.34C229.815 364.57 233.248 363.462 235.927 361.236C238.605 359.01 240.323 355.837 240.722 352.377C241.121 348.917 240.171 345.437 238.07 342.659C235.969 339.882 232.878 338.021 229.44 337.463C198.44 331.367 181.494 298.61 181.08 297.887C180.254 298.817 154.834 338.393 84.3602 337.463Z" fill="#FFCEBF" stroke="#45413C" stroke-width="7" stroke-linecap="round" stroke-linejoin="round"/>
<path d="M120.422 353.274C120.422 354.644 120.966 355.959 121.935 356.927C122.904 357.896 124.218 358.441 125.589 358.441C126.959 358.441 128.273 357.896 129.242 356.927C130.211 355.959 130.755 354.644 130.755 353.274C130.755 351.904 130.211 350.59 129.242 349.621C128.273 348.652 126.959 348.107 125.589 348.107C124.218 348.107 122.904 348.652 121.935 349.621C120.966 350.59 120.422 351.904 120.422 353.274Z" fill="#45413C" stroke="#45413C" stroke-width="7" stroke-linecap="round" stroke-linejoin="round"/>
<path d="M193.169 353.274C193.143 354.636 192.59 355.935 191.627 356.898C190.663 357.861 189.365 358.414 188.003 358.441C186.632 358.441 185.318 357.896 184.349 356.927C183.38 355.959 182.836 354.644 182.836 353.274C182.836 351.904 183.38 350.59 184.349 349.621C185.318 348.652 186.632 348.107 188.003 348.107C189.373 348.107 190.687 348.652 191.656 349.621C192.625 350.59 193.169 351.904 193.169 353.274Z" fill="#45413C" stroke="#45413C" stroke-width="7" stroke-linecap="round" stroke-linejoin="round"/>
<path d="M105.129 375.18C105.129 376.249 105.837 377.274 107.096 378.03C108.356 378.786 110.064 379.21 111.846 379.21C113.627 379.21 115.335 378.786 116.595 378.03C117.855 377.274 118.562 376.249 118.562 375.18C118.562 374.112 117.855 373.087 116.595 372.331C115.335 371.575 113.627 371.15 111.846 371.15C110.064 371.15 108.356 371.575 107.096 372.331C105.837 373.087 105.129 374.112 105.129 375.18Z" fill="#FFB59E"/>
<path d="M194.926 375.18C194.926 376.249 195.633 377.274 196.893 378.03C198.153 378.786 199.861 379.21 201.642 379.21C203.424 379.21 205.132 378.786 206.392 378.03C207.651 377.274 208.359 376.249 208.359 375.18C208.359 374.112 207.651 373.087 206.392 372.331C205.132 371.575 203.424 371.15 201.642 371.15C199.861 371.15 198.153 371.575 196.893 372.331C195.633 373.087 194.926 374.112 194.926 375.18Z" fill="#FFB59E"/>
<path d="M139.332 394.297C144.195 398.377 150.467 400.381 156.795 399.877C163.123 400.381 169.396 398.377 174.259 394.297" stroke="#45413C" stroke-width="7" stroke-linecap="round" stroke-linejoin="round"/>
<path d="M338.872 240.744C319.029 240.744 299.994 248.605 285.934 262.607C271.874 276.609 263.934 295.611 263.852 315.454V354.617H413.892V315.454C413.81 295.611 405.87 276.609 391.809 262.607C377.749 248.605 358.715 240.744 338.872 240.744Z" fill="#A86C4D"/>
<path d="M338.872 240.744C319.029 240.744 299.994 248.605 285.934 262.607C271.874 276.609 263.934 295.611 263.852 315.454V339.221C263.852 319.324 271.755 300.243 285.824 286.174C299.893 272.105 318.975 264.201 338.872 264.201C358.768 264.201 377.85 272.105 391.919 286.174C405.988 300.243 413.892 319.324 413.892 339.221V315.454C413.81 295.611 405.87 276.609 391.809 262.607C377.749 248.605 358.715 240.744 338.872 240.744Z" fill="#DE926A"/>
<path d="M429.905 485.954C422.909 467.47 410.452 451.553 394.19 440.321C377.928 429.088 358.633 423.072 338.869 423.072C319.105 423.072 299.809 429.088 283.548 440.321C267.286 451.553 254.828 467.47 247.832 485.954H429.905Z" fill="#FFAA54"/>
<path d="M338.869 451.544C353.011 451.525 366.987 454.594 379.82 460.538C392.653 466.481 404.033 475.155 413.165 485.954H429.905C422.909 467.47 410.452 451.553 394.19 440.321C377.928 429.088 358.633 423.072 338.869 423.072C319.105 423.072 299.809 429.088 283.548 440.321C267.286 451.553 254.828 467.47 247.832 485.954H264.675C273.778 475.147 285.138 466.466 297.956 460.521C310.774 454.576 324.739 451.512 338.869 451.544Z" fill="#FF8A14"/>
<path d="M429.905 485.954C422.909 467.47 410.452 451.553 394.19 440.321C377.928 429.088 358.633 423.072 338.869 423.072C319.105 423.072 299.809 429.088 283.548 440.321C267.286 451.553 254.828 467.47 247.832 485.954H429.905Z" stroke="#45413C" stroke-width="7" stroke-linecap="round" stroke-linejoin="round"/>
<path d="M319.648 390.061H358.088V456.194H319.648V390.061Z" fill="#FFCEBF"/>
<path d="M319.648 390.061H358.088V438.007H319.648V390.061Z" fill="#FFB59E"/>
<path d="M319.648 390.061H358.088V456.194H319.648V390.061Z" stroke="#45413C" stroke-width="7" stroke-linecap="round" stroke-linejoin="round"/>
<path d="M338.872 240.744C319.029 240.744 299.994 248.605 285.934 262.607C271.874 276.609 263.934 295.611 263.852 315.454V354.617H413.892V315.454C413.81 295.611 405.87 276.609 391.809 262.607C377.749 248.605 358.715 240.744 338.872 240.744V240.744Z" stroke="#45413C" stroke-width="7" stroke-linecap="round" stroke-linejoin="round"/>
<path d="M266.535 337.463C263.097 338.021 260.006 339.882 257.905 342.659C255.804 345.437 254.854 348.917 255.253 352.377C255.653 355.837 257.37 359.01 260.048 361.236C262.727 363.462 266.16 364.57 269.635 364.33H270.462C272.858 380.763 281.089 395.783 293.65 406.646C306.211 417.508 322.262 423.486 338.868 423.486C355.474 423.486 371.526 417.508 384.087 406.646C396.648 395.783 404.879 380.763 407.275 364.33H408.102C410.024 364.322 411.925 363.917 413.684 363.14C415.443 362.362 417.022 361.23 418.322 359.813C419.622 358.396 420.616 356.726 421.24 354.907C421.864 353.088 422.105 351.16 421.948 349.243C421.564 346.485 420.381 343.9 418.545 341.807C416.708 339.713 414.299 338.204 411.615 337.463C380.615 331.367 363.565 298.61 363.152 297.887C362.428 298.817 337.215 338.393 266.535 337.463Z" fill="#FFCEBF" stroke="#45413C" stroke-width="7" stroke-linecap="round" stroke-linejoin="round"/>
<path d="M302.496 353.274C302.523 354.636 303.075 355.935 304.039 356.898C305.002 357.861 306.301 358.414 307.663 358.441C309.033 358.441 310.347 357.896 311.316 356.927C312.285 355.959 312.829 354.644 312.829 353.274C312.829 351.904 312.285 350.59 311.316 349.621C310.347 348.652 309.033 348.107 307.663 348.107C306.292 348.107 304.978 348.652 304.009 349.621C303.04 350.59 302.496 351.904 302.496 353.274Z" fill="#45413C" stroke="#45413C" stroke-width="7" stroke-linecap="round" stroke-linejoin="round"/>
<path d="M375.243 353.274C375.243 354.644 374.699 355.959 373.73 356.927C372.761 357.896 371.447 358.441 370.077 358.441C368.707 358.441 367.392 357.896 366.423 356.927C365.454 355.959 364.91 354.644 364.91 353.274C364.91 351.904 365.454 350.59 366.423 349.621C367.392 348.652 368.707 348.107 370.077 348.107C371.447 348.107 372.761 348.652 373.73 349.621C374.699 350.59 375.243 351.904 375.243 353.274Z" fill="#45413C" stroke="#45413C" stroke-width="7" stroke-linecap="round" stroke-linejoin="round"/>
<path d="M287.309 375.18C287.309 376.249 288.016 377.274 289.276 378.03C290.535 378.786 292.244 379.21 294.025 379.21C295.807 379.21 297.515 378.786 298.775 378.03C300.034 377.274 300.742 376.249 300.742 375.18C300.742 374.112 300.034 373.087 298.775 372.331C297.515 371.575 295.807 371.15 294.025 371.15C292.244 371.15 290.535 371.575 289.276 372.331C288.016 373.087 287.309 374.112 287.309 375.18Z" fill="#FFB59E"/>
<path d="M377.102 375.18C377.102 376.249 377.809 377.274 379.069 378.03C380.328 378.786 382.037 379.21 383.818 379.21C385.6 379.21 387.308 378.786 388.568 378.03C389.827 377.274 390.535 376.249 390.535 375.18C390.535 374.112 389.827 373.087 388.568 372.331C387.308 371.575 385.6 371.15 383.818 371.15C382.037 371.15 380.328 371.575 379.069 372.331C377.809 373.087 377.102 374.112 377.102 375.18Z" fill="#FFB59E"/>
<path d="M321.406 394.297C326.269 398.377 332.542 400.381 338.87 399.877C345.197 400.381 351.47 398.377 356.333 394.297" stroke="#45413C" stroke-width="7" stroke-linecap="round" stroke-linejoin="round"/>
</svg>
