<svg width="496" height="496" viewBox="0 0 496 496" fill="none" xmlns="http://www.w3.org/2000/svg">
<path d="M423.609 252.91C423.597 244.734 420.648 236.835 415.299 230.652C409.951 224.468 402.558 220.413 394.469 219.223C380.313 144.513 320.276 89.0234 247.943 89.0234C175.609 89.0234 115.573 144.513 101.416 219.223C93.268 220.331 85.7977 224.355 80.3891 230.549C74.9804 236.743 72 244.687 72 252.91C72 261.133 74.9804 269.077 80.3891 275.271C85.7977 281.465 93.268 285.489 101.416 286.597C115.573 361.513 175.609 416.9 247.943 416.9C320.276 416.9 380.313 361.513 394.469 286.597C402.558 285.408 409.951 281.352 415.299 275.168C420.648 268.985 423.597 261.086 423.609 252.91Z" fill="#FFDA8F"/>
<path d="M101.481 253.43C108.247 219.549 126.546 189.06 153.261 167.152C179.977 145.245 213.459 133.272 248.008 133.272C282.558 133.272 316.04 145.245 342.755 167.152C369.471 189.06 387.769 219.549 394.535 253.43C399.607 254.066 404.474 255.824 408.782 258.577C413.09 261.329 416.73 265.007 419.438 269.343C422.104 264.527 423.561 259.136 423.683 253.632C423.806 248.129 422.59 242.678 420.14 237.748C417.691 232.819 414.081 228.558 409.621 225.331C405.16 222.105 399.983 220.01 394.535 219.226C380.378 144.516 320.341 89.0264 248.008 89.0264C175.675 89.0264 115.638 144.516 101.481 219.226C96.0327 220.01 90.8558 222.105 86.3956 225.331C81.9354 228.558 78.3254 232.819 75.8758 237.748C73.4262 242.678 72.2103 248.129 72.3326 253.632C72.4549 259.136 73.9118 264.527 76.578 269.343C79.2863 265.007 82.9266 261.329 87.2343 258.577C91.542 255.824 96.409 254.066 101.481 253.43Z" fill="#FFE9BD"/>
<path d="M423.609 252.91C423.597 244.734 420.648 236.835 415.299 230.652C409.951 224.468 402.558 220.413 394.469 219.223C380.313 144.513 320.276 89.0234 247.943 89.0234C175.609 89.0234 115.573 144.513 101.416 219.223C93.268 220.331 85.7977 224.355 80.3891 230.549C74.9804 236.743 72 244.687 72 252.91C72 261.133 74.9804 269.077 80.3891 275.271C85.7977 281.465 93.268 285.489 101.416 286.597C115.573 361.513 175.609 416.9 247.943 416.9C320.276 416.9 380.313 361.513 394.469 286.597C402.558 285.408 409.951 281.352 415.299 275.168C420.648 268.985 423.597 261.086 423.609 252.91Z" stroke="#45413C" stroke-width="7" stroke-linecap="round" stroke-linejoin="round"/>
<path d="M202.092 320.179C201.052 320.166 200.022 320.38 199.073 320.808C198.125 321.235 197.281 321.864 196.602 322.652C195.923 323.44 195.424 324.366 195.14 325.367C194.857 326.368 194.796 327.419 194.962 328.446C197.044 341.002 203.515 352.412 213.222 360.643C222.93 368.874 235.245 373.392 247.972 373.392C260.7 373.392 273.014 368.874 282.722 360.643C292.43 352.412 298.901 341.002 300.982 328.446C301.148 327.419 301.087 326.368 300.804 325.367C300.521 324.366 300.022 323.44 299.343 322.652C298.663 321.864 297.82 321.235 296.871 320.808C295.923 320.38 294.893 320.166 293.852 320.179H202.092Z" fill="#FF6242"/>
<path d="M247.957 342.085C233.343 341.619 218.986 346.017 207.141 354.589C212.232 360.404 218.508 365.065 225.548 368.258C232.587 371.451 240.228 373.103 247.957 373.103C255.687 373.103 263.328 371.451 270.367 368.258C277.406 365.065 283.682 360.404 288.774 354.589C276.928 346.017 262.572 341.619 247.957 342.085Z" fill="#FFA694"/>
<path d="M202.092 320.179C201.052 320.166 200.022 320.38 199.073 320.808C198.125 321.235 197.281 321.864 196.602 322.652C195.923 323.44 195.424 324.366 195.14 325.367C194.857 326.368 194.796 327.419 194.962 328.446C197.044 341.002 203.515 352.412 213.222 360.643C222.93 368.874 235.245 373.392 247.972 373.392C260.7 373.392 273.014 368.874 282.722 360.643C292.43 352.412 298.901 341.002 300.982 328.446C301.148 327.419 301.087 326.368 300.804 325.367C300.521 324.366 300.022 323.44 299.343 322.652C298.663 321.864 297.82 321.235 296.871 320.808C295.923 320.38 294.893 320.166 293.852 320.179H202.092Z" stroke="#45413C" stroke-width="7" stroke-linecap="round" stroke-linejoin="round"/>
<path d="M135.621 297.241C135.621 299.817 137.33 302.287 140.373 304.109C143.415 305.931 147.542 306.954 151.844 306.954C156.147 306.954 160.274 305.931 163.316 304.109C166.359 302.287 168.068 299.817 168.068 297.241C168.068 294.665 166.359 292.194 163.316 290.372C160.274 288.551 156.147 287.527 151.844 287.527C147.542 287.527 143.415 288.551 140.373 290.372C137.33 292.194 135.621 294.665 135.621 297.241Z" fill="#FFBE3D"/>
<path d="M327.75 297.243C327.75 298.518 328.17 299.781 328.985 300.96C329.8 302.138 330.995 303.209 332.502 304.111C334.008 305.013 335.797 305.728 337.765 306.217C339.733 306.705 341.843 306.956 343.973 306.956C346.104 306.956 348.213 306.705 350.182 306.217C352.15 305.728 353.938 305.013 355.445 304.111C356.951 303.209 358.146 302.138 358.962 300.96C359.777 299.781 360.197 298.518 360.197 297.243C360.197 295.967 359.777 294.704 358.962 293.525C358.146 292.347 356.951 291.276 355.445 290.374C353.938 289.472 352.15 288.757 350.182 288.269C348.213 287.781 346.104 287.529 343.973 287.529C341.843 287.529 339.733 287.781 337.765 288.269C335.797 288.757 334.008 289.472 332.502 290.374C330.995 291.276 329.8 292.347 328.985 293.525C328.17 294.704 327.75 295.967 327.75 297.243Z" fill="#FFBE3D"/>
<path d="M247.913 79C235.598 79.1266 223.829 84.1016 215.157 92.8467C218.056 91.8826 221.092 91.394 224.147 91.4C228.863 91.4096 233.499 92.6189 237.618 94.914C241.738 97.2092 245.206 100.515 247.696 104.52C250.186 108.525 251.616 113.097 251.852 117.807C252.088 122.517 251.121 127.21 249.044 131.443C246.966 135.677 243.845 139.312 239.975 142.007C236.105 144.702 231.613 146.368 226.922 146.849C222.23 147.329 217.494 146.608 213.158 144.753C208.822 142.899 205.029 139.971 202.137 136.247C204.083 144.864 208.423 152.757 214.657 159.017C220.891 165.277 228.766 169.65 237.376 171.631C245.985 173.613 254.979 173.123 263.323 170.218C271.666 167.313 279.02 162.112 284.537 155.212C290.055 148.312 293.512 139.994 294.511 131.216C295.509 122.438 294.009 113.556 290.182 105.593C286.355 97.6304 280.358 90.9098 272.88 86.2051C265.402 81.5005 256.748 79.0029 247.913 79Z" fill="#614B44"/>
<path d="M249.108 106.384C259.11 109.033 267.952 114.922 274.253 123.129C280.553 131.337 283.957 141.4 283.932 151.747C284.034 153.33 284.034 154.917 283.932 156.5C291.393 147.91 295.439 136.878 295.298 125.5C295.148 116.288 292.295 107.323 287.094 99.7192C281.892 92.115 274.571 86.2066 266.039 82.728C257.508 79.2495 248.143 78.3541 239.107 80.1531C230.071 81.9521 221.763 86.3661 215.215 92.8469C218.114 91.8828 221.15 91.3943 224.205 91.4002C229.334 91.3568 234.375 92.7335 238.771 95.3779C243.166 98.0224 246.744 101.831 249.108 106.384Z" fill="#947063"/>
<path d="M247.913 79C235.598 79.1266 223.829 84.1016 215.157 92.8467C218.056 91.8826 221.092 91.394 224.147 91.4C228.863 91.4096 233.499 92.6189 237.618 94.914C241.738 97.2092 245.206 100.515 247.696 104.52C250.186 108.525 251.616 113.097 251.852 117.807C252.088 122.517 251.121 127.21 249.044 131.443C246.966 135.677 243.845 139.312 239.975 142.007C236.105 144.702 231.613 146.368 226.922 146.849C222.23 147.329 217.494 146.608 213.158 144.753C208.822 142.899 205.029 139.971 202.137 136.247C204.083 144.864 208.423 152.757 214.657 159.017C220.891 165.277 228.766 169.65 237.376 171.631C245.985 173.613 254.979 173.123 263.323 170.218C271.666 167.313 279.02 162.112 284.537 155.212C290.055 148.312 293.512 139.994 294.511 131.216C295.509 122.438 294.009 113.556 290.182 105.593C286.355 97.6304 280.358 90.9098 272.88 86.2051C265.402 81.5005 256.748 79.0029 247.913 79Z" stroke="#45413C" stroke-width="7" stroke-linecap="round" stroke-linejoin="round"/>
<path d="M193.254 242.577C191.926 239.573 189.755 237.02 187.003 235.228C184.251 233.436 181.038 232.481 177.754 232.481C174.47 232.481 171.257 233.436 168.505 235.228C165.753 237.02 163.582 239.573 162.254 242.577" stroke="#45413C" stroke-width="7" stroke-linecap="round" stroke-linejoin="round"/>
<path d="M333.887 242.577C332.559 239.573 330.387 237.02 327.636 235.228C324.884 233.436 321.671 232.481 318.387 232.481C315.103 232.481 311.89 233.436 309.138 235.228C306.386 237.02 304.214 239.573 302.887 242.577" stroke="#45413C" stroke-width="7" stroke-linecap="round" stroke-linejoin="round"/>
</svg>
