<svg width="496" height="496" viewBox="0 0 496 496" fill="none" xmlns="http://www.w3.org/2000/svg">
<path d="M256.139 316.852C288.697 316.852 319.921 329.785 342.943 352.807C365.965 375.829 378.899 407.054 378.899 439.612V459.245H133.379V439.612C133.379 407.054 146.313 375.829 169.334 352.807C192.356 329.785 223.581 316.852 256.139 316.852Z" fill="white"/>
<path d="M256.139 316.852C223.581 316.852 192.356 329.785 169.334 352.807C146.313 375.829 133.379 407.054 133.379 439.612V459.245H134.516C138.544 429.849 153.083 402.906 175.442 383.402C197.801 363.898 226.468 353.152 256.139 353.152C285.81 353.152 314.477 363.898 336.836 383.402C359.195 402.906 373.734 429.849 377.762 459.245H378.899V439.612C378.899 407.054 365.965 375.829 342.943 352.807C319.921 329.785 288.697 316.852 256.139 316.852Z" fill="#F0F0F0"/>
<path d="M256.139 316.852C288.697 316.852 319.921 329.785 342.943 352.807C365.965 375.829 378.899 407.054 378.899 439.612V459.245H133.379V439.612C133.379 407.054 146.313 375.829 169.334 352.807C192.356 329.785 223.581 316.852 256.139 316.852V316.852Z" stroke="#45413C" stroke-width="7" stroke-linecap="round" stroke-linejoin="round"/>
<path d="M207.469 341.962C207.469 351.663 212.596 360.968 221.724 367.828C230.851 374.688 243.231 378.542 256.139 378.542C269.047 378.542 281.426 374.688 290.554 367.828C299.681 360.968 304.809 351.663 304.809 341.962C304.809 332.26 299.681 322.956 290.554 316.096C281.426 309.236 269.047 305.382 256.139 305.382C243.231 305.382 230.851 309.236 221.724 316.096C212.596 322.956 207.469 332.26 207.469 341.962Z" fill="#00DBA8"/>
<path d="M256.141 305.381C246.738 304.754 237.353 306.846 229.107 311.409C220.861 315.971 214.103 322.811 209.641 331.111C214.079 339.439 220.829 346.308 229.078 350.891C237.327 355.474 246.725 357.576 256.141 356.945C265.556 357.576 274.954 355.474 283.203 350.891C291.452 346.308 298.202 339.439 302.641 331.111C298.178 322.811 291.42 315.971 283.174 311.409C274.928 306.846 265.544 304.754 256.141 305.381Z" fill="#00AD85"/>
<path d="M207.469 341.962C207.469 351.663 212.596 360.968 221.724 367.828C230.851 374.688 243.231 378.542 256.139 378.542C269.047 378.542 281.426 374.688 290.554 367.828C299.681 360.968 304.809 351.663 304.809 341.962C304.809 332.26 299.681 322.956 290.554 316.096C281.426 309.236 269.047 305.382 256.139 305.382C243.231 305.382 230.851 309.236 221.724 316.096C212.596 322.956 207.469 332.26 207.469 341.962V341.962Z" stroke="#45413C" stroke-width="7" stroke-linecap="round" stroke-linejoin="round"/>
<path d="M256.141 274.898C252.686 274.898 249.264 275.581 246.073 276.906C242.882 278.232 239.984 280.174 237.546 282.622C235.107 285.071 233.176 287.976 231.863 291.173C230.55 294.369 229.881 297.793 229.895 301.248V330.595C229.895 337.556 232.66 344.232 237.582 349.154C242.504 354.076 249.18 356.842 256.141 356.842C263.102 356.842 269.778 354.076 274.701 349.154C279.623 344.232 282.388 337.556 282.388 330.595V301.248C282.402 297.793 281.733 294.369 280.42 291.173C279.107 287.976 277.176 285.071 274.737 282.622C272.299 280.174 269.401 278.232 266.209 276.906C263.018 275.581 259.597 274.898 256.141 274.898Z" fill="#FFCEBF"/>
<path d="M256.141 274.898C249.18 274.898 242.504 277.664 237.582 282.586C232.66 287.508 229.895 294.184 229.895 301.145V307.345C229.895 314.306 232.66 320.982 237.582 325.904C242.504 330.826 249.18 333.592 256.141 333.592C263.102 333.592 269.778 330.826 274.7 325.904C279.623 320.982 282.388 314.306 282.388 307.345V301.248C282.401 297.793 281.733 294.369 280.42 291.173C279.107 287.976 277.176 285.071 274.737 282.622C272.298 280.174 269.4 278.232 266.209 276.906C263.018 275.581 259.597 274.898 256.141 274.898Z" fill="#FFB59E"/>
<path d="M256.141 274.898C252.686 274.898 249.264 275.581 246.073 276.906C242.882 278.232 239.984 280.174 237.546 282.622C235.107 285.071 233.176 287.976 231.863 291.173C230.55 294.369 229.881 297.793 229.895 301.248V330.595C229.895 337.556 232.66 344.232 237.582 349.154C242.504 354.076 249.18 356.842 256.141 356.842C263.102 356.842 269.778 354.076 274.701 349.154C279.623 344.232 282.388 337.556 282.388 330.595V301.248C282.402 297.793 281.733 294.369 280.42 291.173C279.107 287.976 277.176 285.071 274.737 282.622C272.299 280.174 269.401 278.232 266.21 276.906C263.018 275.581 259.597 274.898 256.141 274.898V274.898Z" stroke="#45413C" stroke-width="7" stroke-linecap="round" stroke-linejoin="round"/>
<path d="M184.426 459.245V434.342" stroke="#45413C" stroke-width="7" stroke-linecap="round" stroke-linejoin="round"/>
<path d="M327.855 459.245V434.238" stroke="#45413C" stroke-width="7" stroke-linecap="round" stroke-linejoin="round"/>
<path d="M277.842 377.405C282.993 384.417 290.225 389.624 298.509 392.285C311.942 396.005 320.622 390.425 326.409 394.042C317.935 370.689 297.889 358.599 285.075 364.489C272.262 370.379 277.842 377.405 277.842 377.405Z" fill="#00DBA8" stroke="#45413C" stroke-width="7" stroke-linecap="round" stroke-linejoin="round"/>
<path d="M266.472 377.818C262.025 387.065 260.615 397.481 262.442 407.578C266.162 423.388 276.599 429.175 276.185 437.132C295.405 415.432 296.852 388.152 283.419 378.232C269.985 368.312 266.472 377.818 266.472 377.818Z" fill="#00DBA8" stroke="#45413C" stroke-width="7" stroke-linecap="round" stroke-linejoin="round"/>
<path d="M256.141 356.945C259.81 358.789 262.756 361.808 264.511 365.521C265.782 369.498 266.444 373.643 266.474 377.818C269.485 379.148 272.741 379.834 276.032 379.834C279.324 379.834 282.579 379.148 285.591 377.818C287.715 376.458 289.538 374.676 290.944 372.582C292.351 370.489 293.312 368.128 293.767 365.647C294.223 363.166 294.163 360.617 293.592 358.161C293.021 355.704 291.95 353.39 290.447 351.365C283.421 342.271 268.231 340.205 256.141 356.945Z" fill="#00DBA8" stroke="#45413C" stroke-width="7" stroke-linecap="round" stroke-linejoin="round"/>
<path d="M256.141 65.6484C247.636 65.6564 239.165 66.7326 230.928 68.8518C211.708 73.1918 186.701 80.4251 164.071 76.0851C163.19 81.9137 163.505 87.8608 164.997 93.5636C166.489 99.2665 169.128 104.606 172.751 109.255C160.962 126.248 154.652 146.44 154.668 167.122V220.235H357.615V167.122C357.615 140.209 346.924 114.399 327.894 95.3693C308.864 76.3393 283.054 65.6484 256.141 65.6484Z" fill="#A86C4D" stroke="#45413C" stroke-width="7" stroke-linecap="round" stroke-linejoin="round"/>
<path d="M368.463 212.485C367.96 208.691 366.318 205.138 363.754 202.297C361.189 199.455 357.823 197.459 354.099 196.572L348.003 194.919C343.511 193.65 339.56 190.94 336.759 187.206C333.959 183.471 332.463 178.92 332.503 174.252V153.172C332.491 148.911 331.079 144.771 328.484 141.392C325.888 138.012 322.253 135.579 318.139 134.469C298.435 142.335 277.352 146.165 256.139 145.732C234.927 146.165 213.844 142.335 194.139 134.469C190.006 135.56 186.348 137.985 183.733 141.366C181.117 144.747 179.69 148.897 179.673 153.172V174.459C179.713 179.126 178.217 183.678 175.416 187.412C172.615 191.146 168.665 193.857 164.173 195.125L158.076 196.779C154.353 197.666 150.986 199.662 148.422 202.504C145.857 205.345 144.215 208.898 143.713 212.692C143.437 215.308 143.715 217.953 144.531 220.454C145.346 222.955 146.68 225.255 148.445 227.206C150.21 229.156 152.367 230.712 154.774 231.773C157.182 232.833 159.786 233.373 162.416 233.359H163.553C165.971 256.201 176.757 277.341 193.832 292.705C210.908 308.069 233.066 316.569 256.036 316.569C279.006 316.569 301.164 308.069 318.24 292.705C335.316 277.341 346.101 256.201 348.519 233.359H349.656C352.315 233.391 354.95 232.857 357.385 231.791C359.821 230.725 362.001 229.152 363.781 227.176C365.561 225.201 366.899 222.869 367.706 220.336C368.513 217.802 368.771 215.126 368.463 212.485Z" fill="#FFCEBF" stroke="#45413C" stroke-width="7" stroke-linecap="round" stroke-linejoin="round"/>
<path d="M200.032 210.315C200.032 211.888 200.499 213.427 201.373 214.735C202.247 216.044 203.49 217.064 204.944 217.666C206.398 218.268 207.997 218.426 209.541 218.119C211.084 217.812 212.502 217.054 213.615 215.941C214.728 214.828 215.485 213.41 215.792 211.867C216.099 210.324 215.942 208.724 215.34 207.27C214.737 205.816 213.718 204.573 212.409 203.699C211.101 202.825 209.562 202.358 207.989 202.358C206.94 202.344 205.899 202.541 204.927 202.935C203.956 203.33 203.073 203.916 202.331 204.658C201.59 205.399 201.004 206.282 200.609 207.254C200.214 208.225 200.018 209.266 200.032 210.315Z" fill="#45413C" stroke="#45413C" stroke-width="7" stroke-linecap="round" stroke-linejoin="round"/>
<path d="M312.249 210.315C312.249 211.888 311.783 213.427 310.908 214.735C310.034 216.044 308.791 217.064 307.337 217.666C305.884 218.268 304.284 218.426 302.74 218.119C301.197 217.812 299.779 217.054 298.666 215.941C297.554 214.828 296.796 213.41 296.489 211.867C296.182 210.324 296.339 208.724 296.942 207.27C297.544 205.816 298.564 204.573 299.872 203.699C301.181 202.825 302.719 202.358 304.293 202.358C305.341 202.344 306.382 202.541 307.354 202.935C308.325 203.33 309.208 203.916 309.95 204.658C310.691 205.399 311.277 206.282 311.672 207.254C312.067 208.225 312.263 209.266 312.249 210.315Z" fill="#45413C" stroke="#45413C" stroke-width="7" stroke-linecap="round" stroke-linejoin="round"/>
<path d="M226.795 258.778C226.141 258.792 225.498 258.947 224.909 259.233C224.321 259.518 223.801 259.927 223.385 260.432C222.952 260.918 222.635 261.496 222.456 262.122C222.277 262.748 222.241 263.407 222.352 264.048C223.747 271.997 227.9 279.199 234.08 284.389C240.26 289.579 248.071 292.423 256.142 292.423C264.212 292.423 272.023 289.579 278.203 284.389C284.384 279.199 288.536 271.997 289.932 264.048C290.042 263.407 290.006 262.748 289.827 262.122C289.648 261.496 289.331 260.918 288.898 260.432C288.482 259.927 287.962 259.518 287.374 259.233C286.785 258.947 286.142 258.792 285.488 258.778H226.795Z" fill="#FF6242"/>
<path d="M256.142 273.245C246.812 272.881 237.634 275.685 230.102 281.202C233.358 284.828 237.341 287.728 241.792 289.714C246.242 291.699 251.061 292.725 255.935 292.725C260.808 292.725 265.627 291.699 270.078 289.714C274.529 287.728 278.512 284.828 281.768 281.202C274.349 275.774 265.331 272.974 256.142 273.245Z" fill="#FFA694"/>
<path d="M226.795 258.778C226.141 258.792 225.498 258.947 224.909 259.233C224.321 259.518 223.801 259.927 223.385 260.432C222.952 260.918 222.635 261.496 222.456 262.122C222.277 262.748 222.241 263.407 222.352 264.048C223.747 271.997 227.9 279.199 234.08 284.389C240.26 289.579 248.071 292.423 256.142 292.423C264.212 292.423 272.023 289.579 278.203 284.389C284.384 279.199 288.536 271.997 289.932 264.048C290.042 263.407 290.006 262.748 289.827 262.122C289.648 261.496 289.331 260.918 288.898 260.432C288.482 259.927 287.962 259.518 287.374 259.233C286.785 258.947 286.142 258.792 285.488 258.778H226.795Z" stroke="#45413C" stroke-width="7" stroke-linecap="round" stroke-linejoin="round"/>
<path d="M184.426 244.209C184.426 245.853 185.514 247.43 187.452 248.593C189.39 249.756 192.019 250.409 194.759 250.409C197.5 250.409 200.128 249.756 202.066 248.593C204.004 247.43 205.092 245.853 205.092 244.209C205.092 242.564 204.004 240.987 202.066 239.825C200.128 238.662 197.5 238.009 194.759 238.009C192.019 238.009 189.39 238.662 187.452 239.825C185.514 240.987 184.426 242.564 184.426 244.209Z" fill="#FFB59E"/>
<path d="M307.188 244.209C307.188 245.853 308.276 247.43 310.214 248.593C312.152 249.756 314.78 250.409 317.521 250.409C320.261 250.409 322.89 249.756 324.828 248.593C326.765 247.43 327.854 245.853 327.854 244.209C327.854 242.564 326.765 240.987 324.828 239.825C322.89 238.662 320.261 238.009 317.521 238.009C314.78 238.009 312.152 238.662 310.214 239.825C308.276 240.987 307.188 242.564 307.188 244.209Z" fill="#FFB59E"/>
<path d="M149.398 176.732C149.398 165.779 197.138 156.892 256.142 156.892C315.145 156.892 362.885 165.779 362.885 176.732L359.475 137.052C359.475 126.099 313.182 117.315 256.142 117.315C199.102 117.315 152.808 126.099 152.808 137.052L149.398 176.732Z" fill="#8CA4B8"/>
<path d="M256.142 117.315C199.102 117.315 152.808 126.099 152.808 137.052L149.398 176.112C151.155 165.779 198.275 156.892 256.142 156.892H272.778C293.073 148.718 311.889 137.268 328.475 122.999C304.579 118.976 280.373 117.074 256.142 117.315Z" fill="#627B8C"/>
<path d="M149.398 176.732C149.398 165.779 197.138 156.892 256.142 156.892C315.145 156.892 362.885 165.779 362.885 176.732L359.475 137.052C359.475 126.099 313.182 117.315 256.142 117.315C199.102 117.315 152.808 126.099 152.808 137.052L149.398 176.732Z" stroke="#45413C" stroke-width="7" stroke-linecap="round" stroke-linejoin="round"/>
<path d="M372.804 87.2449C350.897 52.1115 295.51 43.0182 256.14 45.9115C209.96 51.3422 165.856 68.1742 127.8 94.8915C109.82 107.912 103.517 121.758 108.787 129.922C119.844 150.588 178.537 155.445 268.437 117.418C320.104 118.555 359.474 126.925 359.474 137.052C359.474 137.052 392.23 117.315 372.804 87.2449Z" fill="#8CA4B8"/>
<path d="M112.714 134.882C117.015 129.354 122.097 124.481 127.8 120.415C165.886 93.8076 209.988 77.0831 256.14 71.7449C295.51 68.5415 350.897 77.6349 372.804 112.252C374.104 114.206 375.212 116.282 376.11 118.452C378.385 113.426 379.279 107.885 378.697 102.399C378.116 96.9131 376.081 91.6818 372.804 87.2449C350.897 52.1115 295.51 43.0182 256.14 45.9115C209.96 51.3422 165.856 68.1742 127.8 94.8915C109.82 107.912 103.517 121.758 108.787 129.922C109.848 131.757 111.17 133.428 112.714 134.882Z" fill="#ADC4D9"/>
<path d="M372.804 87.2449C350.897 52.1115 295.51 43.0182 256.14 45.9115C209.96 51.3422 165.856 68.1742 127.8 94.8915C109.82 107.912 103.517 121.758 108.787 129.922C119.844 150.588 178.537 155.445 268.437 117.418C320.104 118.555 359.474 126.925 359.474 137.052C359.474 137.052 392.23 117.315 372.804 87.2449Z" stroke="#45413C" stroke-width="7" stroke-linecap="round" stroke-linejoin="round"/>
<path d="M268.438 117.419C282.284 111.529 296.957 104.605 312.251 96.752" stroke="#45413C" stroke-width="7" stroke-linecap="round" stroke-linejoin="round"/>
<path d="M239.086 48.2635C239.261 49.7321 239.876 51.1336 240.895 52.3879C241.913 53.6422 243.315 54.7248 245.021 55.5739C246.727 56.4229 248.703 57.0218 250.837 57.3363C252.971 57.6508 255.22 57.6748 257.457 57.4069C259.693 57.139 261.873 56.5845 263.872 55.775C265.871 54.9655 267.65 53.9168 269.107 52.6889C270.565 51.461 271.672 50.0779 272.365 48.6186C273.058 47.1592 273.325 45.6522 273.149 44.1836C272.973 42.715 272.358 41.3135 271.34 40.0592C270.321 38.8049 268.919 37.7223 267.213 36.8732C265.507 36.0242 263.531 35.4253 261.397 35.1108C259.264 34.7962 257.014 34.7722 254.778 35.0401C252.541 35.308 250.361 35.8626 248.362 36.6721C246.363 37.4816 244.584 38.5302 243.127 39.7581C241.67 40.986 240.563 42.3691 239.869 43.8285C239.176 45.2878 238.91 46.7949 239.086 48.2635Z" fill="#627B8C" stroke="#45413C" stroke-width="7" stroke-linecap="round" stroke-linejoin="round"/>
<path d="M83.0573 459.246C83.0573 459.246 14.3406 380.919 73.5506 371.929C137.721 362.319 207.884 459.246 207.884 459.246H83.0573Z" fill="#DEBB7E"/>
<path d="M73.5503 401.379C114.057 395.282 156.734 431.552 182.774 459.246H207.47C207.47 459.246 137.72 362.319 73.137 371.929C46.8903 375.959 45.7537 393.422 52.4703 411.816C55.0262 408.662 58.2326 406.097 61.8706 404.295C65.5087 402.494 69.4926 401.499 73.5503 401.379Z" fill="#F0D5A8"/>
<path d="M83.0573 459.246C83.0573 459.246 14.3406 380.919 73.5506 371.929C137.721 362.319 207.884 459.246 207.884 459.246H83.0573Z" stroke="#45413C" stroke-width="7" stroke-linecap="round" stroke-linejoin="round"/>
<path d="M95.843 408.262C97.7445 409.592 99.7638 410.714 101.785 411.564C103.807 412.414 105.792 412.976 107.626 413.216C109.46 413.457 111.107 413.372 112.474 412.967C113.842 412.561 114.902 411.843 115.594 410.854C116.286 409.864 116.597 408.622 116.509 407.199C116.421 405.775 115.935 404.199 115.08 402.558C114.225 400.918 113.017 399.247 111.525 397.639C110.033 396.032 108.287 394.52 106.385 393.19C104.484 391.86 102.464 390.738 100.443 389.888C98.4211 389.038 96.4366 388.477 94.6025 388.236C92.7685 387.995 91.1209 388.08 89.7537 388.485C88.3865 388.891 87.3265 389.609 86.6343 390.599C85.9421 391.588 85.6312 392.83 85.7194 394.253C85.8075 395.677 86.293 397.253 87.1481 398.894C88.0033 400.534 89.2112 402.206 90.7031 403.813C92.1949 405.42 93.9415 406.932 95.843 408.262Z" fill="#FF6242" stroke="#45413C" stroke-width="7" stroke-linecap="round" stroke-linejoin="round"/>
<path d="M143.581 433.543C147.422 436.229 151.66 438.011 155.364 438.496C159.068 438.982 161.934 438.133 163.332 436.134C164.73 434.135 164.545 431.151 162.818 427.839C161.091 424.526 157.964 421.156 154.123 418.47C150.283 415.784 146.045 414.002 142.341 413.516C138.637 413.03 135.771 413.88 134.373 415.879C132.975 417.878 133.159 420.861 134.886 424.174C136.613 427.487 139.741 430.857 143.581 433.543Z" fill="#FFE500" stroke="#45413C" stroke-width="7" stroke-linecap="round" stroke-linejoin="round"/>
<path d="M411.555 369.759L389.855 364.385L404.839 292.672L431.602 299.285L411.555 369.759Z" fill="#DAEDF7" stroke="#45413C" stroke-width="7" stroke-linecap="round" stroke-linejoin="round"/>
<path d="M389.832 364.33L411.607 369.683L391.258 452.468L369.483 447.116L389.832 364.33Z" fill="#BF8256" stroke="#45413C" stroke-width="7" stroke-linecap="round" stroke-linejoin="round"/>
<path d="M404.835 292.671C398.118 279.858 406.695 264.151 416.512 256.091C422.765 251.302 427.327 244.64 429.532 237.078C435.657 241.339 440.405 247.294 443.195 254.214C445.985 261.134 446.695 268.717 445.238 276.035C444.644 280.605 443.151 285.012 440.845 289.002C438.54 292.993 435.467 296.487 431.805 299.285L404.835 292.671Z" fill="#FFF5E3" stroke="#45413C" stroke-width="7" stroke-linecap="round" stroke-linejoin="round"/>
<path d="M408.352 265.081C413.65 268.121 419.357 270.383 425.298 271.798C432.047 273.493 439.026 274.086 445.965 273.555C446.825 266.575 445.77 259.492 442.912 253.066C440.054 246.641 435.501 241.114 429.742 237.078C427.537 244.64 422.975 251.302 416.722 256.091C413.49 258.644 410.667 261.676 408.352 265.081Z" fill="#FF6242" stroke="#45413C" stroke-width="7" stroke-linecap="round" stroke-linejoin="round"/>
<path d="M372.083 369.044C376.181 370.051 379.712 372.646 381.897 376.256C384.083 379.866 384.745 384.197 383.737 388.296L367.137 455.829C360.91 454.298 355.545 450.356 352.224 444.87C348.903 439.384 347.897 432.803 349.428 426.576L362.18 374.697C362.697 372.594 364.028 370.783 365.88 369.662C367.732 368.541 369.954 368.201 372.056 368.718L372.083 369.044Z" fill="#FFCEBF"/>
<path d="M372.079 369.035C371.007 368.693 369.875 368.579 368.756 368.701C367.638 368.822 366.557 369.177 365.584 369.741C364.61 370.306 363.766 371.068 363.105 371.978C362.444 372.889 361.981 373.928 361.746 375.028L356.992 394.248C357.242 393.156 357.713 392.126 358.378 391.224C359.042 390.322 359.886 389.566 360.855 389.004C361.824 388.442 362.899 388.085 364.012 387.956C365.126 387.827 366.253 387.929 367.326 388.255C369.372 388.739 371.301 389.625 373 390.863C374.699 392.101 376.134 393.665 377.222 395.465C378.309 397.264 379.026 399.262 379.332 401.342C379.638 403.422 379.526 405.542 379.002 407.578L383.756 388.358C384.265 386.323 384.366 384.206 384.054 382.131C383.742 380.056 383.023 378.063 381.937 376.267C380.852 374.471 379.422 372.908 377.731 371.667C376.039 370.425 374.118 369.531 372.079 369.035Z" fill="#FFDCD1"/>
<path d="M372.083 369.044C376.181 370.051 379.712 372.646 381.897 376.256C384.083 379.866 384.745 384.197 383.737 388.296L367.137 455.829C360.91 454.298 355.545 450.356 352.224 444.87C348.903 439.384 347.897 432.803 349.428 426.576L362.18 374.697C362.697 372.594 364.028 370.783 365.88 369.662C367.732 368.541 369.954 368.201 372.056 368.718L372.083 369.044Z" stroke="#45413C" stroke-width="7" stroke-linecap="round" stroke-linejoin="round"/>
<path d="M410.109 393.009L390.475 388.049C387.454 387.288 384.254 387.745 381.566 389.321C378.878 390.896 376.916 393.464 376.103 396.472C375.29 399.48 375.691 402.687 377.22 405.402C378.748 408.118 381.282 410.124 384.275 410.989C381.312 410.58 378.304 411.303 375.851 413.015C373.398 414.726 371.681 417.299 371.042 420.221C370.403 423.143 370.889 426.198 372.403 428.778C373.918 431.357 376.349 433.27 379.212 434.136C377.692 433.762 376.114 433.692 374.567 433.929C373.02 434.166 371.535 434.705 370.196 435.516C368.857 436.327 367.692 437.393 366.765 438.655C365.839 439.916 365.17 441.347 364.797 442.867C364.424 444.387 364.354 445.966 364.59 447.512C364.827 449.059 365.366 450.545 366.177 451.883C366.988 453.222 368.055 454.387 369.316 455.314C370.577 456.24 372.009 456.909 373.529 457.282L393.472 462.139C399.295 463.575 405.451 462.64 410.585 459.539C415.72 456.439 419.414 451.428 420.855 445.606L427.055 420.392C428.491 414.569 427.556 408.413 424.456 403.279C421.356 398.144 416.344 394.45 410.522 393.009H410.109Z" fill="#FFCEBF"/>
<path d="M410.109 393.009L390.475 388.049C388.955 387.68 387.378 387.614 385.832 387.856C384.287 388.098 382.804 388.642 381.47 389.458C380.136 390.274 378.975 391.346 378.056 392.611C377.136 393.876 376.476 395.311 376.112 396.832C375.541 398.824 375.541 400.937 376.112 402.929C377.532 401.432 379.317 400.33 381.292 399.732C383.267 399.134 385.364 399.061 387.375 399.519L407.422 404.479C410.301 405.181 413.013 406.444 415.403 408.196C417.793 409.948 419.813 412.154 421.349 414.688C422.885 417.223 423.906 420.035 424.353 422.964C424.8 425.893 424.665 428.882 423.955 431.759L426.745 420.392C427.455 417.502 427.587 414.5 427.134 411.558C426.682 408.616 425.653 405.793 424.108 403.249C422.562 400.706 420.53 398.492 418.128 396.735C415.726 394.978 413.001 393.711 410.109 393.009Z" fill="#FFDCD1"/>
<path d="M410.109 393.009L390.475 388.049C387.454 387.288 384.254 387.745 381.566 389.321C378.878 390.896 376.916 393.464 376.103 396.472C375.29 399.48 375.691 402.687 377.22 405.402C378.748 408.118 381.282 410.124 384.275 410.989C381.312 410.58 378.304 411.303 375.851 413.015C373.398 414.726 371.681 417.299 371.042 420.221C370.403 423.143 370.889 426.198 372.403 428.778C373.918 431.357 376.349 433.27 379.212 434.136C377.692 433.762 376.114 433.692 374.567 433.929C373.02 434.166 371.535 434.705 370.196 435.516C368.857 436.327 367.692 437.393 366.765 438.655C365.839 439.916 365.17 441.347 364.797 442.867C364.424 444.387 364.354 445.966 364.59 447.512C364.827 449.059 365.366 450.545 366.177 451.883C366.988 453.222 368.055 454.387 369.316 455.314C370.577 456.24 372.009 456.909 373.529 457.282L393.472 462.139C399.295 463.575 405.451 462.64 410.585 459.539C415.72 456.439 419.414 451.428 420.855 445.606L427.055 420.392C428.491 414.569 427.556 408.413 424.456 403.279C421.356 398.144 416.344 394.45 410.522 393.009H410.109Z" stroke="#45413C" stroke-width="7" stroke-linecap="round" stroke-linejoin="round"/>
</svg>
