<svg width="495" height="495" viewBox="0 0 495 495" fill="none" xmlns="http://www.w3.org/2000/svg">
<path d="M103.125 211.469C103.125 230.428 106.859 249.202 114.115 266.719C121.37 284.235 132.005 300.151 145.411 313.557C158.818 326.964 174.734 337.598 192.25 344.854C209.766 352.109 228.54 355.844 247.5 355.844C266.46 355.844 285.234 352.109 302.75 344.854C320.266 337.598 336.182 326.964 349.589 313.557C362.995 300.151 373.63 284.235 380.885 266.719C388.141 249.202 391.875 230.428 391.875 211.469C391.875 192.509 388.141 173.735 380.885 156.219C373.63 138.702 362.995 122.787 349.589 109.38C336.182 95.9737 320.266 85.3392 302.75 78.0836C285.234 70.8281 266.46 67.0938 247.5 67.0938C228.54 67.0938 209.766 70.8281 192.25 78.0836C174.734 85.3392 158.818 95.9737 145.411 109.38C132.005 122.787 121.37 138.702 114.115 156.219C106.859 173.735 103.125 192.509 103.125 211.469Z" fill="#FFFEF2"/>
<path d="M247.5 94.6281C283.388 94.6428 317.984 108.023 344.543 132.16C371.101 156.298 387.718 189.461 391.153 225.184C391.153 220.647 391.875 216.109 391.875 211.469C391.875 173.178 376.664 136.456 349.589 109.38C322.513 82.3046 285.791 67.0937 247.5 67.0938C209.209 67.0938 172.487 82.3046 145.411 109.38C118.336 136.456 103.125 173.178 103.125 211.469C103.125 216.109 103.125 220.647 103.847 225.184C107.282 189.461 123.899 156.298 150.457 132.16C177.016 108.023 211.612 94.6428 247.5 94.6281Z" fill="white"/>
<path d="M103.125 211.469C103.125 230.428 106.859 249.202 114.115 266.719C121.37 284.235 132.005 300.151 145.411 313.557C158.818 326.964 174.734 337.598 192.25 344.854C209.766 352.109 228.54 355.844 247.5 355.844C266.46 355.844 285.234 352.109 302.75 344.854C320.266 337.598 336.182 326.964 349.589 313.557C362.995 300.151 373.63 284.235 380.885 266.719C388.141 249.202 391.875 230.428 391.875 211.469C391.875 192.509 388.141 173.735 380.885 156.219C373.63 138.702 362.995 122.787 349.589 109.38C336.182 95.9737 320.266 85.3392 302.75 78.0836C285.234 70.8281 266.46 67.0938 247.5 67.0938C228.54 67.0938 209.766 70.8281 192.25 78.0836C174.734 85.3392 158.818 95.9737 145.411 109.38C132.005 122.787 121.37 138.702 114.115 156.219C106.859 173.735 103.125 192.509 103.125 211.469V211.469Z" stroke="#45413C" stroke-width="7" stroke-linecap="round" stroke-linejoin="round"/>
<path d="M247.503 67.0938C218.025 67.1135 189.26 76.1559 165.073 93.0058C140.886 109.856 122.436 133.705 112.203 161.35C116.262 167.477 121.826 172.459 128.363 175.818C134.9 179.176 142.19 180.799 149.534 180.531C194.188 180.531 185.628 142.272 221.722 134.125C256.062 126.391 258.641 149.594 299.066 149.594C310.742 150.309 322.391 147.801 332.739 142.345C343.087 136.889 351.737 128.695 357.744 118.656C344.23 102.554 327.363 89.5975 308.322 80.6913C289.281 71.7852 268.524 67.1446 247.503 67.0938Z" fill="#FF87AF"/>
<path d="M120.556 170.218C131.015 150.85 145.764 134.131 163.675 121.337C181.587 108.543 202.186 100.014 223.899 96.4015C245.612 92.7893 267.864 94.1896 288.952 100.495C310.041 106.801 329.409 117.845 345.575 132.784C350.273 128.667 354.369 123.912 357.744 118.656C341.457 99.413 320.414 84.7704 296.711 76.1848C273.008 67.5993 247.469 65.3702 222.637 69.7192C197.805 74.0683 174.544 84.8439 155.169 100.974C135.795 117.104 120.981 138.026 112.203 161.659C114.635 164.836 117.44 167.71 120.556 170.218Z" fill="#FFB0CA"/>
<path d="M247.503 67.0938C218.025 67.1135 189.26 76.1559 165.073 93.0058C140.886 109.856 122.436 133.705 112.203 161.35C116.262 167.477 121.826 172.459 128.363 175.818C134.9 179.176 142.19 180.799 149.534 180.531C194.187 180.531 185.628 142.272 221.722 134.125C256.062 126.391 258.641 149.594 299.066 149.594C310.742 150.309 322.391 147.801 332.739 142.345C343.087 136.889 351.737 128.695 357.744 118.656C344.23 102.554 327.363 89.5975 308.322 80.6913C289.281 71.7852 268.524 67.1446 247.503 67.0938V67.0938Z" stroke="#45413C" stroke-width="7" stroke-linecap="round" stroke-linejoin="round"/>
<path d="M411.775 58.6377C401.364 58.6844 391.211 61.8816 382.652 67.8087C374.093 73.7357 367.528 82.1149 363.822 91.8439L302.875 247.563H333.812L384.756 118.656C386.814 113.15 390.503 108.402 395.331 105.048C400.159 101.694 405.896 99.8938 411.775 99.8877C417.245 99.8877 422.491 97.7147 426.359 93.8468C430.227 89.9788 432.4 84.7328 432.4 79.2627C432.4 73.7926 430.227 68.5466 426.359 64.6786C422.491 60.8107 417.245 58.6377 411.775 58.6377Z" fill="#DAEDF7"/>
<path d="M411.775 58.6379C401.364 58.6846 391.211 61.8818 382.652 67.8089C374.093 73.7359 367.528 82.1151 363.822 91.8441L302.875 247.563H313.188L366.4 112.469C370.106 102.74 376.671 94.3609 385.23 88.4339C393.789 82.5068 403.942 79.3096 414.353 79.2629C417.538 79.3187 420.666 80.1112 423.493 81.5783C426.32 83.0454 428.768 85.1473 430.647 87.7191C430.647 86.6879 431.472 85.6566 431.781 84.6254C432.606 81.5611 432.713 78.3478 432.094 75.2354C431.474 72.1231 430.145 69.1957 428.209 66.6811C426.273 64.1666 423.783 62.1326 420.933 60.7375C418.082 59.3425 414.948 58.624 411.775 58.6379Z" fill="white"/>
<path d="M411.775 58.6377C401.364 58.6844 391.211 61.8816 382.652 67.8087C374.093 73.7357 367.528 82.1149 363.822 91.8439L302.875 247.563H333.812L384.756 118.656C386.814 113.15 390.503 108.402 395.331 105.048C400.159 101.694 405.896 99.8938 411.775 99.8877C417.245 99.8877 422.491 97.7147 426.359 93.8468C430.227 89.9788 432.4 84.7328 432.4 79.2627C432.4 73.7926 430.227 68.5466 426.359 64.6786C422.491 60.8107 417.245 58.6377 411.775 58.6377V58.6377Z" stroke="#45413C" stroke-width="7" stroke-linecap="round" stroke-linejoin="round"/>
<path d="M398.99 211.469C398.99 211.469 379.5 242.406 251.315 242.406C123.131 242.406 96.0089 211.469 96.0089 211.469C94.9214 211.468 93.8449 211.686 92.8428 212.108C91.8407 212.53 90.9332 213.149 90.174 213.927C89.4147 214.706 88.819 215.628 88.4219 216.641C88.0248 217.653 87.8345 218.735 87.862 219.822C89.7955 255.952 103.922 290.359 127.934 317.424C151.946 344.49 184.426 362.614 220.068 368.837C221.92 369.104 223.618 370.016 224.863 371.412C226.108 372.808 226.821 374.599 226.874 376.469V409.469C226.875 411.334 226.258 413.147 225.121 414.625C215.2 426.816 201.596 435.464 186.346 439.272C183.513 440.194 181.099 442.092 179.534 444.627C177.968 447.163 177.354 450.171 177.8 453.117C178.245 456.063 179.722 458.756 181.967 460.715C184.212 462.674 187.08 463.773 190.059 463.816H305.25C308.117 463.682 310.852 462.573 313.002 460.671C315.152 458.769 316.587 456.189 317.068 453.359C317.55 450.529 317.049 447.62 315.65 445.114C314.251 442.608 312.036 440.656 309.375 439.581C294.125 435.773 280.52 427.125 270.6 414.934C269.463 413.456 268.846 411.643 268.846 409.778V376.469C268.852 374.563 269.542 372.723 270.792 371.284C272.041 369.845 273.766 368.904 275.653 368.631C311.13 362.27 343.419 344.112 367.284 317.102C391.15 290.092 405.193 255.813 407.137 219.822C407.165 218.735 406.974 217.653 406.577 216.641C406.18 215.628 405.584 214.706 404.825 213.927C404.066 213.149 403.158 212.53 402.156 212.108C401.154 211.686 400.078 211.468 398.99 211.469Z" fill="#B8ECFF"/>
<path d="M398.99 211.469C398.99 211.469 379.5 242.406 251.315 242.406C123.131 242.406 96.0089 211.469 96.0089 211.469C94.9214 211.468 93.8449 211.686 92.8428 212.108C91.8407 212.53 90.9332 213.149 90.174 213.927C89.4147 214.706 88.819 215.628 88.4219 216.641C88.0248 217.653 87.8345 218.735 87.862 219.822C87.862 219.822 87.862 220.647 87.862 221.163C108.487 266.125 173.765 299.125 251.212 299.125C319.687 299.125 378.056 273.344 405.281 236.734C406.106 231.166 406.828 225.494 407.137 219.822C407.165 218.735 406.974 217.653 406.577 216.641C406.18 215.628 405.584 214.706 404.825 213.927C404.066 213.149 403.158 212.53 402.156 212.108C401.154 211.686 400.078 211.468 398.99 211.469Z" fill="#E5F8FF"/>
<path d="M398.99 211.469C398.99 211.469 379.5 242.406 251.315 242.406C123.131 242.406 96.0089 211.469 96.0089 211.469C94.9214 211.468 93.8449 211.686 92.8428 212.108C91.8407 212.53 90.9332 213.149 90.174 213.927C89.4147 214.706 88.819 215.628 88.4219 216.641C88.0248 217.653 87.8345 218.735 87.862 219.822C89.7955 255.952 103.922 290.359 127.934 317.424C151.946 344.49 184.426 362.614 220.068 368.837C221.92 369.104 223.618 370.016 224.863 371.412C226.108 372.808 226.821 374.599 226.874 376.469V409.469C226.875 411.334 226.258 413.147 225.121 414.625C215.2 426.816 201.596 435.464 186.346 439.272C183.458 440.124 180.972 441.985 179.338 444.514C177.705 447.044 177.033 450.076 177.445 453.059C177.857 456.042 179.325 458.779 181.583 460.771C183.841 462.764 186.738 463.881 189.749 463.919H305.25C308.261 463.881 311.158 462.764 313.416 460.771C315.674 458.779 317.142 456.042 317.554 453.059C317.966 450.076 317.294 447.044 315.661 444.514C314.027 441.985 311.541 440.124 308.653 439.272C293.403 435.464 279.799 426.816 269.878 414.625C268.741 413.147 268.124 411.334 268.125 409.469V376.469C268.13 374.563 268.82 372.723 270.07 371.284C271.319 369.845 273.045 368.904 274.931 368.631C310.54 362.416 342.995 344.322 367.003 317.298C391.012 290.275 405.158 255.916 407.137 219.822C407.165 218.735 406.974 217.653 406.577 216.641C406.18 215.628 405.584 214.706 404.825 213.927C404.066 213.149 403.158 212.53 402.156 212.108C401.154 211.686 400.078 211.468 398.99 211.469V211.469Z" stroke="#45413C" stroke-width="7" stroke-linecap="round" stroke-linejoin="round"/>
<path d="M235.844 56.7812C235.844 63.6189 238.56 70.1764 243.395 75.0113C248.23 79.8463 254.787 82.5625 261.625 82.5625C268.463 82.5625 275.02 79.8463 279.855 75.0113C284.69 70.1764 287.406 63.6189 287.406 56.7812C287.406 49.9436 284.69 43.3861 279.855 38.5512C275.02 33.7162 268.463 31 261.625 31C254.787 31 248.23 33.7162 243.395 38.5512C238.56 43.3861 235.844 49.9436 235.844 56.7812Z" fill="#FF6242"/>
<path d="M261.625 46.4688C267.085 46.5012 272.394 48.2663 276.786 51.5096C281.178 54.7529 284.428 59.307 286.066 64.5156C286.878 62.0144 287.33 59.41 287.406 56.7812C287.406 49.9436 284.69 43.3861 279.855 38.5512C275.02 33.7162 268.463 31 261.625 31C254.787 31 248.23 33.7162 243.395 38.5512C238.56 43.3861 235.844 49.9436 235.844 56.7812C235.886 59.4052 236.302 62.0096 237.081 64.5156C238.725 59.2903 241.989 54.7242 246.402 51.4793C250.815 48.2344 256.147 46.4794 261.625 46.4688Z" fill="#FF866E"/>
<path d="M235.844 56.7812C235.844 63.6189 238.56 70.1764 243.395 75.0113C248.23 79.8463 254.787 82.5625 261.625 82.5625C268.463 82.5625 275.02 79.8463 279.855 75.0113C284.69 70.1764 287.406 63.6189 287.406 56.7812C287.406 49.9436 284.69 43.3861 279.855 38.5512C275.02 33.7162 268.463 31 261.625 31C254.787 31 248.23 33.7162 243.395 38.5512C238.56 43.3861 235.844 49.9436 235.844 56.7812V56.7812Z" stroke="#45413C" stroke-width="7" stroke-linecap="round" stroke-linejoin="round"/>
</svg>
