<svg width="495" height="495" viewBox="0 0 495 495" fill="none" xmlns="http://www.w3.org/2000/svg">
<path d="M196.156 242.624C177.594 224.784 161.609 177.965 149.441 143.005C149.079 142.01 148.42 141.15 147.553 140.542C146.686 139.934 145.653 139.608 144.594 139.608C143.535 139.608 142.502 139.934 141.634 140.542C140.767 141.15 140.108 142.01 139.747 143.005C127.578 177.965 111.594 224.784 93.0312 242.624H196.156Z" fill="#EBCB00" stroke="#45413C" stroke-width="7" stroke-linecap="round" stroke-linejoin="round"/>
<path d="M299.281 242.624C317.844 224.784 333.828 177.965 345.997 143.005C346.358 142.01 347.017 141.15 347.884 140.542C348.752 139.934 349.785 139.608 350.844 139.608C351.903 139.608 352.936 139.934 353.803 140.542C354.67 141.15 355.329 142.01 355.691 143.005C367.859 177.965 383.844 224.784 402.406 242.624H299.281Z" fill="#EBCB00" stroke="#45413C" stroke-width="7" stroke-linecap="round" stroke-linejoin="round"/>
<path d="M242.925 110.832C243.281 109.86 243.927 109.022 244.776 108.43C245.624 107.837 246.634 107.52 247.668 107.52C248.703 107.52 249.713 107.837 250.561 108.43C251.41 109.022 252.056 109.86 252.412 110.832C266.231 145.997 307.687 242.625 345.225 242.625C377.915 242.625 410.709 196.425 427.106 169.2C427.748 168.268 428.673 167.568 429.744 167.203C430.815 166.839 431.976 166.829 433.053 167.177C434.13 167.524 435.066 168.21 435.723 169.132C436.379 170.054 436.721 171.163 436.697 172.294L428.137 319.969C428.137 356.991 347.287 387 247.668 387C148.05 387 67.1996 356.991 67.1996 319.969L58.2278 172.294C58.2037 171.163 58.5452 170.054 59.2016 169.132C59.858 168.21 60.7942 167.524 61.8713 167.177C62.9484 166.829 64.1088 166.839 65.1802 167.203C66.2515 167.568 67.1768 168.268 67.8184 169.2C84.2153 196.219 117.009 242.625 149.7 242.625C187.65 242.625 229.106 145.997 242.925 110.832Z" fill="#FFE500"/>
<path d="M128.012 370.088L297.034 201.066C279.418 172.435 264.504 142.226 252.484 110.832C252.128 109.86 251.481 109.022 250.633 108.43C249.785 107.837 248.775 107.52 247.74 107.52C246.706 107.52 245.696 107.837 244.847 108.43C243.999 109.022 243.353 109.86 242.997 110.832C229.178 145.997 187.721 242.625 150.184 242.625C117.493 242.625 84.6996 196.425 68.3028 169.2C67.6611 168.268 66.7359 167.568 65.6645 167.203C64.5931 166.839 63.4327 166.829 62.3557 167.177C61.2786 167.524 60.3423 168.21 59.6859 169.132C59.0295 170.054 58.688 171.163 58.7121 172.294L67.2715 319.969C67.2715 339.872 90.8871 357.713 128.012 370.088Z" fill="#FFF48C"/>
<path d="M242.925 110.832C243.281 109.86 243.927 109.022 244.776 108.43C245.624 107.837 246.634 107.52 247.668 107.52C248.703 107.52 249.713 107.837 250.561 108.43C251.41 109.022 252.056 109.86 252.412 110.832C266.231 145.997 307.687 242.625 345.225 242.625C377.915 242.625 410.709 196.425 427.106 169.2C427.748 168.268 428.673 167.568 429.744 167.203C430.815 166.839 431.976 166.829 433.053 167.177C434.13 167.524 435.066 168.21 435.723 169.132C436.379 170.054 436.721 171.163 436.697 172.294L428.137 319.969C428.137 356.991 347.287 387 247.668 387C148.05 387 67.1996 356.991 67.1996 319.969L58.2278 172.294C58.2037 171.163 58.5452 170.054 59.2016 169.132C59.858 168.21 60.7942 167.524 61.8713 167.177C62.9484 166.829 64.1088 166.839 65.1802 167.203C66.2515 167.568 67.1768 168.268 67.8184 169.2C84.2153 196.219 117.009 242.625 149.7 242.625C187.65 242.625 229.106 145.997 242.925 110.832Z" stroke="#45413C" stroke-width="7" stroke-linecap="round" stroke-linejoin="round"/>
<path d="M283.812 278.719C283.812 269.146 280.01 259.965 273.241 253.197C266.472 246.428 257.291 242.625 247.719 242.625C238.146 242.625 228.965 246.428 222.197 253.197C215.428 259.965 211.625 269.146 211.625 278.719V299.344C211.625 308.916 215.428 318.097 222.197 324.866C228.965 331.635 238.146 335.437 247.719 335.437C257.291 335.437 266.472 331.635 273.241 324.866C280.01 318.097 283.812 308.916 283.812 299.344V278.719Z" fill="#53AEF9"/>
<path d="M247.719 319.969C238.146 319.969 228.965 316.166 222.197 309.397C215.428 302.628 211.625 293.448 211.625 283.875V299.344C211.625 308.916 215.428 318.097 222.197 324.866C228.965 331.635 238.146 335.437 247.719 335.437C257.291 335.437 266.472 331.635 273.241 324.866C280.01 318.097 283.812 308.916 283.812 299.344V283.875C283.812 293.448 280.01 302.628 273.241 309.397C266.472 316.166 257.291 319.969 247.719 319.969Z" fill="#2A5FD5"/>
<path d="M247.761 242.625C238.189 242.625 229.008 246.428 222.239 253.197C215.47 259.965 211.667 269.146 211.667 278.719V299.344C211.611 300.202 211.611 301.063 211.667 301.922C212.353 292.901 216.42 284.471 223.056 278.321C229.691 272.17 238.404 268.753 247.452 268.753C256.499 268.753 265.213 272.17 271.848 278.321C278.483 284.471 282.551 292.901 283.236 301.922C283.293 301.063 283.293 300.202 283.236 299.344V278.719C283.238 269.252 279.52 260.164 272.884 253.413C266.249 246.662 257.226 242.787 247.761 242.625Z" fill="#80F6FD"/>
<path d="M283.812 278.719C283.812 269.146 280.01 259.965 273.241 253.197C266.472 246.428 257.291 242.625 247.719 242.625C238.146 242.625 228.965 246.428 222.197 253.197C215.428 259.965 211.625 269.146 211.625 278.719V299.344C211.625 308.916 215.428 318.097 222.197 324.866C228.965 331.635 238.146 335.437 247.719 335.437C257.291 335.437 266.472 331.635 273.241 324.866C280.01 318.097 283.812 308.916 283.812 299.344V278.719Z" stroke="#45413C" stroke-width="7" stroke-linecap="round" stroke-linejoin="round"/>
<path d="M345.688 294.187C345.688 299.658 347.86 304.904 351.728 308.772C355.596 312.64 360.842 314.812 366.312 314.812C371.783 314.812 377.029 312.64 380.897 308.772C384.765 304.904 386.938 299.658 386.938 294.187C386.938 288.717 384.765 283.471 380.897 279.603C377.029 275.735 371.783 273.562 366.312 273.562C360.842 273.562 355.596 275.735 351.728 279.603C347.86 283.471 345.688 288.717 345.688 294.187Z" fill="#53AEF9" stroke="#45413C" stroke-width="7" stroke-linecap="round" stroke-linejoin="round"/>
<path d="M108.5 294.187C108.5 299.658 110.673 304.904 114.541 308.772C118.409 312.64 123.655 314.812 129.125 314.812C134.595 314.812 139.841 312.64 143.709 308.772C147.577 304.904 149.75 299.658 149.75 294.187C149.75 288.717 147.577 283.471 143.709 279.603C139.841 275.735 134.595 273.562 129.125 273.562C123.655 273.562 118.409 275.735 114.541 279.603C110.673 283.471 108.5 288.717 108.5 294.187Z" fill="#53AEF9" stroke="#45413C" stroke-width="7" stroke-linecap="round" stroke-linejoin="round"/>
<path d="M67.25 371.531C67.25 408.553 148.1 438.562 247.719 438.562C347.337 438.562 428.188 408.553 428.188 371.531V319.969C428.188 356.991 347.337 387 247.719 387C148.1 387 67.25 356.991 67.25 319.969V371.531Z" fill="#C0DCEB"/>
<path d="M247.719 387C148.1 387 67.25 356.991 67.25 319.969V345.75C67.25 382.772 148.1 412.781 247.719 412.781C347.337 412.781 428.188 382.772 428.188 345.75V319.969C428.188 356.991 347.337 387 247.719 387Z" fill="#E8F4FA"/>
<path d="M67.25 371.531C67.25 408.553 148.1 438.562 247.719 438.562C347.337 438.562 428.188 408.553 428.188 371.531V319.969C428.188 356.991 347.337 387 247.719 387C148.1 387 67.25 356.991 67.25 319.969V371.531Z" stroke="#45413C" stroke-width="7" stroke-linecap="round" stroke-linejoin="round"/>
<path d="M118.812 118.875C118.813 125.713 121.529 132.27 126.364 137.105C131.199 141.94 137.756 144.656 144.594 144.656C151.431 144.656 157.989 141.94 162.824 137.105C167.659 132.27 170.375 125.713 170.375 118.875C170.375 112.037 167.659 105.48 162.824 100.645C157.989 95.81 151.431 93.0938 144.594 93.0938C137.756 93.0938 131.199 95.81 126.364 100.645C121.529 105.48 118.812 112.037 118.812 118.875Z" fill="#53AEF9"/>
<path d="M126.373 137.13C121.532 132.289 118.812 125.724 118.812 118.877C118.813 112.031 121.532 105.465 126.373 100.624C131.214 95.7831 137.78 93.0635 144.626 93.0635C151.473 93.0635 158.038 95.7831 162.879 100.624L126.373 137.13Z" fill="#80F6FD"/>
<path d="M118.812 118.875C118.813 125.713 121.529 132.27 126.364 137.105C131.199 141.94 137.756 144.656 144.594 144.656C151.431 144.656 157.989 141.94 162.824 137.105C167.659 132.27 170.375 125.713 170.375 118.875C170.375 112.037 167.659 105.48 162.824 100.645C157.989 95.81 151.431 93.0938 144.594 93.0938C137.756 93.0938 131.199 95.81 126.364 100.645C121.529 105.48 118.812 112.037 118.812 118.875V118.875Z" stroke="#45413C" stroke-width="7" stroke-linecap="round" stroke-linejoin="round"/>
<path d="M325.062 118.875C325.062 125.713 327.779 132.27 332.614 137.105C337.449 141.94 344.006 144.656 350.844 144.656C357.681 144.656 364.239 141.94 369.074 137.105C373.909 132.27 376.625 125.713 376.625 118.875C376.625 112.037 373.909 105.48 369.074 100.645C364.239 95.81 357.681 93.0938 350.844 93.0938C344.006 93.0938 337.449 95.81 332.614 100.645C327.779 105.48 325.062 112.037 325.062 118.875Z" fill="#53AEF9"/>
<path d="M332.623 137.13C327.782 132.289 325.062 125.724 325.062 118.877C325.062 115.487 325.73 112.131 327.027 108.999C328.325 105.867 330.226 103.021 332.623 100.624C335.02 98.2271 337.866 96.3257 340.998 95.0284C344.13 93.7312 347.486 93.0635 350.876 93.0635C357.723 93.0635 364.288 95.7831 369.129 100.624L332.623 137.13Z" fill="#80F6FD"/>
<path d="M325.062 118.875C325.062 125.713 327.779 132.27 332.614 137.105C337.449 141.94 344.006 144.656 350.844 144.656C357.681 144.656 364.239 141.94 369.074 137.105C373.909 132.27 376.625 125.713 376.625 118.875C376.625 112.037 373.909 105.48 369.074 100.645C364.239 95.81 357.681 93.0938 350.844 93.0938C344.006 93.0938 337.449 95.81 332.614 100.645C327.779 105.48 325.062 112.037 325.062 118.875Z" stroke="#45413C" stroke-width="7" stroke-linecap="round" stroke-linejoin="round"/>
<path d="M26 139.5C26 143.563 26.8002 147.586 28.355 151.339C29.9097 155.093 32.1886 158.503 35.0614 161.376C37.9342 164.249 41.3447 166.528 45.0982 168.083C48.8517 169.637 52.8747 170.438 56.9375 170.438C61.0003 170.438 65.0233 169.637 68.7768 168.083C72.5303 166.528 75.9408 164.249 78.8136 161.376C81.6864 158.503 83.9653 155.093 85.52 151.339C87.0748 147.586 87.875 143.563 87.875 139.5C87.875 135.437 87.0748 131.414 85.52 127.661C83.9653 123.907 81.6864 120.497 78.8136 117.624C75.9408 114.751 72.5303 112.472 68.7768 110.917C65.0233 109.363 61.0003 108.563 56.9375 108.562C52.8747 108.563 48.8517 109.363 45.0982 110.917C41.3447 112.472 37.9342 114.751 35.0614 117.624C32.1886 120.497 29.9097 123.907 28.355 127.661C26.8002 131.414 26 135.437 26 139.5Z" fill="#53AEF9"/>
<path d="M35.108 161.361C29.6432 155.497 26.6681 147.74 26.8095 139.725C26.9509 131.71 30.1978 124.063 35.8661 118.394C41.5344 112.726 49.1815 109.479 57.1964 109.338C65.2113 109.196 72.9683 112.171 78.833 117.636L35.108 161.361Z" fill="#80F6FD"/>
<path d="M26 139.5C26 143.563 26.8002 147.586 28.355 151.339C29.9097 155.093 32.1886 158.503 35.0614 161.376C37.9342 164.249 41.3447 166.528 45.0982 168.083C48.8517 169.637 52.8747 170.438 56.9375 170.438C61.0003 170.438 65.0233 169.637 68.7768 168.083C72.5303 166.528 75.9408 164.249 78.8136 161.376C81.6864 158.503 83.9653 155.093 85.52 151.339C87.0748 147.586 87.875 143.563 87.875 139.5C87.875 135.437 87.0748 131.414 85.52 127.661C83.9653 123.907 81.6864 120.497 78.8136 117.624C75.9408 114.751 72.5303 112.472 68.7768 110.917C65.0233 109.363 61.0003 108.563 56.9375 108.562C52.8747 108.563 48.8517 109.363 45.0982 110.917C41.3447 112.472 37.9342 114.751 35.0614 117.624C32.1886 120.497 29.9097 123.907 28.355 127.661C26.8002 131.414 26 135.437 26 139.5V139.5Z" stroke="#45413C" stroke-width="7" stroke-linecap="round" stroke-linejoin="round"/>
<path d="M216.781 87.9375C216.781 96.1426 220.041 104.012 225.843 109.814C231.645 115.616 239.514 118.875 247.719 118.875C255.924 118.875 263.793 115.616 269.595 109.814C275.397 104.012 278.656 96.1426 278.656 87.9375C278.656 79.7324 275.397 71.8633 269.595 66.0614C263.793 60.2595 255.924 57 247.719 57C239.514 57 231.645 60.2595 225.843 66.0614C220.041 71.8633 216.781 79.7324 216.781 87.9375Z" fill="#53AEF9"/>
<path d="M225.889 109.799C220.424 103.934 217.449 96.1772 217.591 88.1622C217.732 80.1473 220.979 72.5002 226.647 66.8319C232.316 61.1636 239.963 57.9167 247.978 57.7753C255.993 57.6339 263.75 60.609 269.614 66.0738L225.889 109.799Z" fill="#80F6FD"/>
<path d="M216.781 87.9375C216.781 96.1426 220.041 104.012 225.843 109.814C231.645 115.616 239.514 118.875 247.719 118.875C255.924 118.875 263.793 115.616 269.595 109.814C275.397 104.012 278.656 96.1426 278.656 87.9375C278.656 79.7324 275.397 71.8633 269.595 66.0614C263.793 60.2595 255.924 57 247.719 57C239.514 57 231.645 60.2595 225.843 66.0614C220.041 71.8633 216.781 79.7324 216.781 87.9375V87.9375Z" stroke="#45413C" stroke-width="7" stroke-linecap="round" stroke-linejoin="round"/>
<path d="M407.562 139.5C407.562 147.705 410.822 155.574 416.624 161.376C422.426 167.178 430.295 170.438 438.5 170.438C446.705 170.438 454.574 167.178 460.376 161.376C466.178 155.574 469.438 147.705 469.438 139.5C469.438 131.295 466.178 123.426 460.376 117.624C454.574 111.822 446.705 108.562 438.5 108.562C430.295 108.562 422.426 111.822 416.624 117.624C410.822 123.426 407.562 131.295 407.562 139.5Z" fill="#53AEF9"/>
<path d="M416.605 161.364C413.565 158.531 411.127 155.116 409.436 151.321C407.745 147.526 406.836 143.429 406.763 139.275C406.689 135.121 407.453 130.995 409.009 127.143C410.565 123.291 412.881 119.791 415.819 116.853C418.757 113.916 422.256 111.6 426.109 110.044C429.961 108.488 434.087 107.724 438.241 107.797C442.395 107.87 446.492 108.779 450.287 110.47C454.082 112.161 457.497 114.599 460.33 117.639L416.605 161.364Z" fill="#80F6FD"/>
<path d="M407.562 139.5C407.562 147.705 410.822 155.574 416.624 161.376C422.426 167.178 430.295 170.437 438.5 170.438C446.705 170.437 454.574 167.178 460.376 161.376C466.178 155.574 469.438 147.705 469.438 139.5C469.438 131.295 466.178 123.426 460.376 117.624C454.574 111.822 446.705 108.562 438.5 108.562C430.295 108.562 422.426 111.822 416.624 117.624C410.822 123.426 407.562 131.295 407.562 139.5Z" stroke="#45413C" stroke-width="7" stroke-linecap="round" stroke-linejoin="round"/>
</svg>
