<svg width="506" height="506" viewBox="0 0 506 506" fill="none" xmlns="http://www.w3.org/2000/svg">
<path d="M345.426 334.449L253.292 304.511L161.158 334.765C146.483 338.884 133.485 347.533 124.019 359.479C114.554 371.425 109.104 386.056 108.449 401.283V462.636H398.556V400.967C397.873 385.685 392.363 371.014 382.816 359.062C373.27 347.109 360.179 338.492 345.426 334.449Z" fill="white"/>
<path d="M345.426 334.449L253.292 304.511L161.158 334.765C146.483 338.884 133.485 347.533 124.019 359.479C114.554 371.425 109.104 386.056 108.449 401.283V432.908C109.104 417.681 114.554 403.05 124.019 391.104C133.485 379.158 146.483 370.509 161.158 366.39L253.292 336.136L345.426 366.39C360.1 370.509 373.098 379.158 382.564 391.104C392.03 403.05 397.479 417.681 398.134 432.908V401.283C397.545 386.001 392.125 371.299 382.655 359.29C373.184 347.281 360.15 338.584 345.426 334.449Z" fill="#E0E0E0"/>
<path d="M345.426 334.449L253.292 304.511L161.158 334.765C146.483 338.884 133.485 347.533 124.019 359.479C114.554 371.425 109.104 386.056 108.449 401.283V462.636H398.556V400.967C397.873 385.685 392.363 371.014 382.816 359.062C373.27 347.109 360.179 338.492 345.426 334.449V334.449Z" stroke="#45413C" stroke-width="7" stroke-linecap="round" stroke-linejoin="round"/>
<path d="M157.367 326.014C157.367 331.772 159.848 337.475 164.669 342.795C169.49 348.116 176.556 352.95 185.464 357.022C194.372 361.095 204.947 364.325 216.586 366.529C228.225 368.733 240.699 369.867 253.296 369.867C265.894 369.867 278.368 368.733 290.007 366.529C301.646 364.325 312.221 361.095 321.129 357.022C330.036 352.95 337.102 348.116 341.923 342.795C346.744 337.475 349.226 331.772 349.226 326.014C349.226 320.255 346.744 314.552 341.923 309.232C337.102 303.911 330.036 299.077 321.129 295.005C312.221 290.932 301.646 287.702 290.007 285.498C278.368 283.294 265.894 282.16 253.296 282.16C240.699 282.16 228.225 283.294 216.586 285.498C204.947 287.702 194.372 290.932 185.464 295.005C176.556 299.077 169.49 303.911 164.669 309.232C159.848 314.552 157.367 320.255 157.367 326.014Z" fill="white"/>
<path d="M253.364 282.16C206.137 282.16 166.922 297.762 159.016 318.318C166.922 338.874 206.137 354.476 253.891 354.476C301.644 354.476 340.332 338.874 348.766 318.318C339.805 297.762 300.59 282.16 253.364 282.16Z" fill="#E0E0E0"/>
<path d="M157.367 326.014C157.367 331.772 159.848 337.475 164.669 342.795C169.49 348.116 176.556 352.95 185.464 357.022C194.372 361.095 204.947 364.325 216.586 366.529C228.225 368.733 240.699 369.867 253.296 369.867C265.894 369.867 278.368 368.733 290.007 366.529C301.646 364.325 312.221 361.095 321.129 357.022C330.036 352.95 337.102 348.116 341.923 342.795C346.744 337.475 349.226 331.772 349.226 326.014C349.226 320.255 346.744 314.552 341.923 309.232C337.102 303.911 330.036 299.077 321.129 295.005C312.221 290.932 301.646 287.702 290.007 285.498C278.368 283.294 265.894 282.16 253.296 282.16C240.699 282.16 228.225 283.294 216.586 285.498C204.947 287.702 194.372 290.932 185.464 295.005C176.556 299.077 169.49 303.911 164.669 309.232C159.848 314.552 157.367 320.255 157.367 326.014V326.014Z" stroke="#45413C" stroke-width="7" stroke-linecap="round" stroke-linejoin="round"/>
<path d="M339.871 462.633V344.988" stroke="#45413C" stroke-width="7" stroke-linecap="round" stroke-linejoin="round"/>
<path d="M166.758 462.633V344.988" stroke="#45413C" stroke-width="7" stroke-linecap="round" stroke-linejoin="round"/>
<path d="M406.039 159.457H396.657C389.519 126.743 371.407 97.4545 345.329 76.4529C319.251 55.4513 286.774 44 253.29 44C219.807 44 187.33 55.4513 161.252 76.4529C135.174 97.4545 117.062 126.743 109.924 159.457H100.542C97.7458 159.457 95.0645 160.568 93.0876 162.545C91.1106 164.522 90 167.203 90 169.999V211.322C90 214.118 91.1106 216.799 93.0876 218.776C95.0645 220.753 97.7458 221.864 100.542 221.864H109.924C117.062 254.577 135.174 283.866 161.252 304.868C187.33 325.869 219.807 337.321 253.29 337.321C286.774 337.321 319.251 325.869 345.329 304.868C371.407 283.866 389.519 254.577 396.657 221.864H406.039C408.835 221.864 411.516 220.753 413.493 218.776C415.47 216.799 416.581 214.118 416.581 211.322V169.999C416.581 167.203 415.47 164.522 413.493 162.545C411.516 160.568 408.835 159.457 406.039 159.457Z" fill="#E0E0E0"/>
<path d="M406.039 159.457H396.657C389.519 126.743 371.407 97.4545 345.329 76.4529C319.251 55.4513 286.774 44 253.29 44C219.807 44 187.33 55.4513 161.252 76.4529C135.174 97.4545 117.062 126.743 109.924 159.457H100.542C97.7458 159.457 95.0645 160.568 93.0876 162.545C91.1106 164.522 90 167.203 90 169.999V194.455C90 191.659 91.1106 188.978 93.0876 187.001C95.0645 185.024 97.7458 183.914 100.542 183.914C103.123 183.916 105.635 183.072 107.691 181.51C109.747 179.949 111.235 177.757 111.927 175.269C120.589 144.473 139.078 117.352 164.579 98.0344C190.079 78.7171 221.194 68.2625 253.185 68.2625C285.176 68.2625 316.291 78.7171 341.791 98.0344C367.292 117.352 385.781 144.473 394.443 175.269C395.135 177.757 396.623 179.949 398.679 181.51C400.735 183.072 403.247 183.916 405.828 183.914C408.624 183.914 411.305 185.024 413.282 187.001C415.259 188.978 416.37 191.659 416.37 194.455V169.999C416.371 167.239 415.289 164.589 413.357 162.618C411.426 160.647 408.798 159.512 406.039 159.457Z" fill="white"/>
<path d="M406.039 159.457H396.657C389.519 126.743 371.407 97.4545 345.329 76.4529C319.251 55.4513 286.774 44 253.29 44C219.807 44 187.33 55.4513 161.252 76.4529C135.174 97.4545 117.062 126.743 109.924 159.457H100.542C97.7458 159.457 95.0645 160.568 93.0876 162.545C91.1106 164.522 90 167.203 90 169.999V211.322C90 214.118 91.1106 216.799 93.0876 218.776C95.0645 220.753 97.7458 221.864 100.542 221.864H109.924C117.062 254.577 135.174 283.866 161.252 304.868C187.33 325.869 219.807 337.321 253.29 337.321C286.774 337.321 319.251 325.869 345.329 304.868C371.407 283.866 389.519 254.577 396.657 221.864H406.039C408.835 221.864 411.516 220.753 413.493 218.776C415.47 216.799 416.581 214.118 416.581 211.322V169.999C416.581 167.203 415.47 164.522 413.493 162.545C411.516 160.568 408.835 159.457 406.039 159.457Z" stroke="#45413C" stroke-width="7" stroke-linecap="round" stroke-linejoin="round"/>
<path d="M131.012 190.661C131.012 206.72 134.175 222.621 140.32 237.457C146.465 252.293 155.473 265.774 166.828 277.129C178.183 288.484 191.663 297.491 206.499 303.636C221.335 309.782 237.237 312.945 253.295 312.945C269.354 312.945 285.255 309.782 300.091 303.636C314.927 297.491 328.407 288.484 339.762 277.129C351.117 265.774 360.125 252.293 366.27 237.457C372.415 222.621 375.578 206.72 375.578 190.661C375.578 174.603 372.415 158.702 366.27 143.865C360.125 129.029 351.117 115.549 339.762 104.194C328.407 92.8388 314.927 83.8315 300.091 77.6862C285.255 71.5409 269.354 68.3779 253.295 68.3779C237.237 68.3779 221.335 71.5409 206.499 77.6862C191.663 83.8315 178.183 92.8388 166.828 104.194C155.473 115.549 146.465 129.029 140.32 143.865C134.175 158.702 131.012 174.603 131.012 190.661Z" fill="#656769" stroke="#45413C" stroke-width="7" stroke-linecap="round" stroke-linejoin="round"/>
<path d="M275.738 143.646H230.831C211.26 143.646 192.491 151.421 178.652 165.26C164.814 179.098 157.039 197.867 157.039 217.438C157.132 222.175 157.59 226.898 158.409 231.564C161.65 254.419 173.032 275.336 190.462 290.47C207.893 305.604 230.201 313.937 253.284 313.937C276.368 313.937 298.676 305.604 316.107 290.47C333.537 275.336 344.919 254.419 348.159 231.564C348.925 226.788 349.312 221.959 349.319 217.122C349.236 197.642 341.453 178.986 327.669 165.222C313.885 151.458 295.218 143.702 275.738 143.646Z" fill="#FFE500" stroke="#45413C" stroke-width="7" stroke-linecap="round" stroke-linejoin="round"/>
<path d="M196.075 208.688C196.075 210.294 196.551 211.863 197.443 213.198C198.335 214.533 199.603 215.573 201.086 216.187C202.569 216.802 204.201 216.962 205.776 216.649C207.35 216.336 208.796 215.563 209.932 214.428C211.067 213.293 211.84 211.846 212.153 210.272C212.466 208.697 212.306 207.065 211.691 205.582C211.077 204.099 210.036 202.831 208.702 201.939C207.367 201.047 205.797 200.571 204.192 200.571C203.122 200.557 202.06 200.757 201.069 201.16C200.078 201.563 199.177 202.16 198.421 202.917C197.664 203.673 197.067 204.574 196.664 205.565C196.261 206.556 196.061 207.618 196.075 208.688Z" fill="#45413C" stroke="#45413C" stroke-width="7" stroke-linecap="round" stroke-linejoin="round"/>
<path d="M310.48 208.688C310.48 210.294 310.004 211.863 309.112 213.198C308.22 214.533 306.953 215.573 305.469 216.187C303.986 216.802 302.354 216.962 300.78 216.649C299.205 216.336 297.759 215.563 296.624 214.428C295.488 213.293 294.715 211.846 294.402 210.272C294.089 208.697 294.25 207.065 294.864 205.582C295.478 204.099 296.519 202.831 297.854 201.939C299.188 201.047 300.758 200.571 302.363 200.571C303.433 200.557 304.495 200.757 305.486 201.16C306.477 201.563 307.378 202.16 308.134 202.917C308.891 203.673 309.488 204.574 309.891 205.565C310.294 206.556 310.494 207.618 310.48 208.688Z" fill="#45413C" stroke="#45413C" stroke-width="7" stroke-linecap="round" stroke-linejoin="round"/>
<path d="M223.409 258.128C222.742 258.142 222.086 258.3 221.485 258.592C220.885 258.883 220.354 259.3 219.93 259.815C219.482 260.307 219.154 260.896 218.971 261.536C218.788 262.176 218.756 262.85 218.876 263.504C220.299 271.613 224.536 278.96 230.84 284.255C237.145 289.549 245.114 292.451 253.347 292.451C261.58 292.451 269.549 289.549 275.854 284.255C282.158 278.96 286.395 271.613 287.818 263.504C287.939 262.85 287.906 262.176 287.723 261.536C287.54 260.896 287.212 260.307 286.764 259.815C286.34 259.3 285.809 258.883 285.209 258.592C284.609 258.3 283.952 258.142 283.285 258.128H223.409Z" fill="#FF6242"/>
<path d="M253.276 272.887C243.758 272.514 234.395 275.375 226.711 281.004C230.033 284.703 234.096 287.662 238.637 289.687C243.177 291.712 248.093 292.759 253.065 292.759C258.037 292.759 262.953 291.712 267.494 289.687C272.034 287.662 276.097 284.703 279.419 281.004C271.85 275.466 262.651 272.61 253.276 272.887Z" fill="#FFA694"/>
<path d="M223.409 258.128C222.742 258.142 222.086 258.3 221.485 258.592C220.885 258.883 220.354 259.3 219.93 259.815C219.482 260.307 219.154 260.896 218.971 261.536C218.788 262.176 218.756 262.85 218.876 263.504C220.299 271.613 224.536 278.96 230.84 284.255C237.145 289.549 245.114 292.451 253.347 292.451C261.58 292.451 269.549 289.549 275.854 284.255C282.158 278.96 286.395 271.613 287.818 263.504C287.939 262.85 287.906 262.176 287.723 261.536C287.54 260.896 287.212 260.307 286.764 259.815C286.34 259.3 285.809 258.883 285.209 258.592C284.609 258.3 283.952 258.142 283.285 258.128H223.409Z" stroke="#45413C" stroke-width="7" stroke-linecap="round" stroke-linejoin="round"/>
<path d="M180.098 243.262C180.098 244.939 181.208 246.548 183.185 247.734C185.162 248.92 187.843 249.587 190.639 249.587C193.435 249.587 196.116 248.92 198.093 247.734C200.07 246.548 201.181 244.939 201.181 243.262C201.181 241.584 200.07 239.975 198.093 238.789C196.116 237.603 193.435 236.937 190.639 236.937C187.843 236.937 185.162 237.603 183.185 238.789C181.208 239.975 180.098 241.584 180.098 243.262Z" fill="#FFAA54"/>
<path d="M305.445 243.262C305.445 244.939 306.556 246.548 308.533 247.734C310.51 248.92 313.191 249.587 315.987 249.587C318.783 249.587 321.464 248.92 323.441 247.734C325.418 246.548 326.529 244.939 326.529 243.262C326.529 241.584 325.418 239.975 323.441 238.789C321.464 237.603 318.783 236.937 315.987 236.937C313.191 236.937 310.51 237.603 308.533 238.789C306.556 239.975 305.445 241.584 305.445 243.262Z" fill="#FFAA54"/>
<path d="M253.238 68.3779C225.141 68.3862 197.903 78.0615 176.096 95.7791C154.29 113.497 139.244 138.178 133.484 165.678C171.557 150.503 212.257 143.015 253.238 143.645C294.218 143.015 334.918 150.503 372.991 165.678C367.231 138.178 352.185 113.497 330.379 95.7791C308.573 78.0615 281.334 68.3862 253.238 68.3779Z" fill="#399EE2"/>
<path d="M253.355 98.9458C313.337 98.9458 363.199 127.408 372.897 164.726C367.011 137.393 351.935 112.902 330.183 95.3357C308.43 77.7691 281.315 68.1875 253.355 68.1875C225.395 68.1875 198.28 77.7691 176.527 95.3357C154.775 112.902 139.699 137.393 133.812 164.726C143.511 127.408 193.373 98.9458 253.355 98.9458Z" fill="#2A5FD5"/>
<path d="M253.238 68.3779C225.141 68.3862 197.903 78.0615 176.096 95.7791C154.29 113.497 139.244 138.178 133.484 165.678C171.557 150.503 212.257 143.015 253.238 143.645C294.218 143.015 334.918 150.503 372.991 165.678C367.231 138.178 352.185 113.497 330.379 95.7791C308.573 78.0615 281.334 68.3862 253.238 68.3779V68.3779Z" stroke="#45413C" stroke-width="7" stroke-linecap="round" stroke-linejoin="round"/>
<path d="M188.168 403.709H236.133V430.063H188.168V403.709Z" fill="#2A5FD5" stroke="#45413C" stroke-width="7" stroke-linecap="round" stroke-linejoin="round"/>
<path d="M291.938 416.886C291.938 420.381 293.326 423.733 295.797 426.204C298.268 428.675 301.62 430.063 305.115 430.063C308.609 430.063 311.961 428.675 314.432 426.204C316.903 423.733 318.292 420.381 318.292 416.886C318.292 413.391 316.903 410.04 314.432 407.568C311.961 405.097 308.609 403.709 305.115 403.709C301.62 403.709 298.268 405.097 295.797 407.568C293.326 410.04 291.938 413.391 291.938 416.886Z" fill="#009FD9" stroke="#45413C" stroke-width="7" stroke-linecap="round" stroke-linejoin="round"/>
</svg>
