<svg width="495" height="495" viewBox="0 0 495 495" fill="none" xmlns="http://www.w3.org/2000/svg">
<path d="M444.38 332.597V383.334C444.38 423.862 356.002 456.656 246.998 456.656C137.995 456.656 49.6172 423.862 49.6172 383.334V332.597H444.38Z" fill="#DEBB7E"/>
<path d="M49.6172 355.181C49.6172 395.606 137.995 428.503 246.998 428.503C356.002 428.503 444.38 395.606 444.38 355.181V332.597H49.6172V355.181Z" fill="#B89558"/>
<path d="M444.38 332.597V383.334C444.38 423.862 356.002 456.656 246.998 456.656C137.995 456.656 49.6172 423.862 49.6172 383.334V332.597H444.38Z" stroke="#45413C" stroke-width="7" stroke-linecap="round" stroke-linejoin="round"/>
<path d="M247.002 399.938C490.171 399.938 484.19 321.047 455.624 276.188C427.471 236.794 362.193 202.969 247.002 202.969C131.812 202.969 66.5334 236.794 38.3803 276.188C9.81465 321.356 3.8334 399.938 247.002 399.938Z" fill="#BF8256" stroke="#45413C" stroke-width="7" stroke-linecap="round" stroke-linejoin="round"/>
<path d="M444.381 253.706C444.381 253.706 478.206 264.947 478.206 298.772C478.206 332.597 433.038 304.444 416.331 315.684C399.625 326.925 412.103 352.809 388.178 360.853C354.353 372.094 336.616 339.506 314.856 343.94C286.703 349.509 297.944 377.765 247.206 377.765C196.469 377.765 207.709 349.509 179.556 343.94C157.384 339.506 140.059 372.094 106.234 360.853C82 352.809 94.7875 327.028 77.875 315.684C60.9625 304.34 16 332.597 16 298.772C16 264.947 49.825 253.706 49.825 253.706H444.381Z" fill="#6DD627" stroke="#45413C" stroke-width="7" stroke-linecap="round" stroke-linejoin="round"/>
<path d="M438.711 287.943H342.805V321.356C342.805 327.346 345.184 333.09 349.419 337.325C353.655 341.561 359.399 343.94 365.389 343.94H376.63V369C376.991 373.991 379.228 378.66 382.892 382.068C386.556 385.477 391.374 387.372 396.378 387.372C401.382 387.372 406.201 385.477 409.864 382.068C413.528 378.66 415.766 373.991 416.127 369V326.718C422.116 326.718 427.861 324.339 432.096 320.104C436.331 315.868 438.711 310.124 438.711 304.134V287.943Z" fill="#FFE500" stroke="#45413C" stroke-width="7" stroke-linecap="round" stroke-linejoin="round"/>
<path d="M247.002 321.356C490.171 321.356 484.19 242.362 455.624 197.606C427.471 157.8 362.193 123.975 247.002 123.975C131.812 123.975 66.5334 157.8 38.3803 197.296C9.81465 242.362 3.8334 321.356 247.002 321.356Z" fill="#BF8256" stroke="#45413C" stroke-width="7" stroke-linecap="round" stroke-linejoin="round"/>
<path d="M444.381 174.713C444.381 174.713 478.206 186.057 478.206 219.882C478.206 253.707 433.038 225.45 416.331 236.794C399.625 248.138 412.103 273.919 388.178 281.86C354.353 293.1 336.616 260.513 314.856 264.947C286.703 270.619 297.944 298.772 247.206 298.772C196.469 298.772 207.709 270.619 179.556 264.947C157.384 260.513 140.059 293.1 106.234 281.86C82 273.919 94.7875 248.035 77.875 236.794C60.9625 225.554 16 253.707 16 219.882C16 186.057 49.825 174.713 49.825 174.713H444.381Z" fill="#6DD627" stroke="#45413C" stroke-width="7" stroke-linecap="round" stroke-linejoin="round"/>
<path d="M72.2024 197.297C72.2024 197.297 53.4337 236.279 94.7868 248.035C134.284 259.275 173.677 225.45 207.502 225.45C241.327 225.45 272.987 275.363 314.649 264.947C359.715 253.707 337.234 231.122 365.387 219.882C393.54 208.641 489.137 248.035 433.037 180.385L72.2024 197.297Z" fill="#FF6242" stroke="#45413C" stroke-width="7" stroke-linecap="round" stroke-linejoin="round"/>
<path d="M275.155 231.122H179.352V259.275C179.352 265.265 181.731 271.009 185.966 275.245C190.202 279.48 195.946 281.86 201.936 281.86H213.177V307.125C212.98 309.839 213.345 312.563 214.249 315.129C215.153 317.695 216.575 320.048 218.428 322.04C220.281 324.031 222.525 325.62 225.019 326.706C227.513 327.793 230.205 328.353 232.925 328.353C235.645 328.353 238.337 327.793 240.831 326.706C243.325 325.62 245.569 324.031 247.422 322.04C249.275 320.048 250.697 317.695 251.601 315.129C252.505 312.563 252.87 309.839 252.673 307.125V264.844C258.645 264.817 264.363 262.425 268.576 258.193C272.79 253.96 275.155 248.231 275.155 242.26V231.122Z" fill="#FFE500" stroke="#45413C" stroke-width="7" stroke-linecap="round" stroke-linejoin="round"/>
<path d="M444.38 169.144C444.38 209.569 356.002 242.362 246.998 242.362C137.995 242.362 49.6172 209.569 49.6172 169.144C49.6172 169.144 61.3734 39 246.998 39C432.623 39 444.38 169.144 444.38 169.144Z" fill="#F0D5A8"/>
<path d="M246.998 202.968C154.186 202.968 75.7078 178.94 55.0828 146.662C52.4422 153.933 50.6094 161.472 49.6172 169.143C49.6172 209.568 137.995 242.362 246.998 242.362C356.002 242.362 444.38 209.568 444.38 169.143C443.388 161.472 441.555 153.933 438.914 146.662C418.289 178.94 339.811 202.968 246.998 202.968Z" fill="#DEBB7E"/>
<path d="M444.38 169.144C444.38 209.569 356.002 242.362 246.998 242.362C137.995 242.362 49.6172 209.569 49.6172 169.144C49.6172 169.144 61.3734 39 246.998 39C432.623 39 444.38 169.144 444.38 169.144Z" stroke="#45413C" stroke-width="7" stroke-linecap="round" stroke-linejoin="round"/>
<path d="M131.292 99.1222C128.406 99.9017 125.948 101.796 124.459 104.387C122.97 106.979 122.571 110.055 123.351 112.941C124.13 115.826 126.024 118.284 128.616 119.773C131.207 121.262 134.284 121.661 137.17 120.882L148.101 117.994C149.53 117.608 150.868 116.945 152.041 116.041C153.213 115.138 154.196 114.012 154.933 112.729C155.671 111.446 156.148 110.03 156.338 108.563C156.528 107.095 156.428 105.604 156.042 104.175C155.656 102.747 154.992 101.408 154.089 100.236C153.185 99.0633 152.06 98.0804 150.777 97.3431C149.494 96.6057 148.078 96.1283 146.61 95.9382C145.142 95.748 143.652 95.8488 142.223 96.2347L131.292 99.1222Z" fill="#DEBB7E" stroke="#45413C" stroke-width="7" stroke-linecap="round" stroke-linejoin="round"/>
<path d="M197.293 129.647C196.062 132.382 195.968 135.494 197.032 138.298C198.096 141.102 200.23 143.369 202.965 144.6C205.7 145.831 208.812 145.925 211.616 144.861C214.42 143.797 216.687 141.663 217.918 138.928L222.559 128.616C223.175 127.261 223.518 125.799 223.569 124.312C223.62 122.825 223.378 121.343 222.856 119.949C222.334 118.556 221.543 117.279 220.527 116.192C219.512 115.104 218.292 114.227 216.938 113.611C215.584 112.995 214.122 112.651 212.635 112.6C211.148 112.549 209.665 112.792 208.272 113.314C206.879 113.836 205.602 114.627 204.514 115.642C203.427 116.657 202.55 117.877 201.934 119.231L197.293 129.647Z" fill="#DEBB7E" stroke="#45413C" stroke-width="7" stroke-linecap="round" stroke-linejoin="round"/>
<path d="M362.703 99.1222C364.131 99.5082 365.47 100.172 366.642 101.075C367.815 101.978 368.797 103.104 369.535 104.387C370.272 105.67 370.75 107.086 370.94 108.554C371.13 110.021 371.029 111.512 370.643 112.941C370.257 114.37 369.594 115.708 368.69 116.881C367.787 118.053 366.662 119.036 365.378 119.773C364.095 120.511 362.679 120.988 361.212 121.178C359.744 121.368 358.253 121.268 356.824 120.882L345.893 117.994C344.464 117.608 343.126 116.945 341.953 116.041C340.781 115.138 339.798 114.012 339.061 112.729C338.324 111.446 337.846 110.03 337.656 108.563C337.466 107.095 337.567 105.604 337.953 104.175C338.338 102.747 339.002 101.408 339.905 100.236C340.809 99.0633 341.934 98.0804 343.217 97.3431C344.501 96.6057 345.916 96.1283 347.384 95.9382C348.852 95.748 350.343 95.8488 351.771 96.2347L362.703 99.1222Z" fill="#DEBB7E" stroke="#45413C" stroke-width="7" stroke-linecap="round" stroke-linejoin="round"/>
<path d="M296.705 129.647C297.314 131.001 297.651 132.462 297.696 133.947C297.74 135.431 297.492 136.91 296.966 138.298C296.439 139.687 295.644 140.958 294.626 142.039C293.608 143.121 292.387 143.991 291.033 144.6C289.679 145.21 288.218 145.546 286.733 145.591C285.249 145.636 283.77 145.388 282.382 144.861C280.993 144.334 279.722 143.539 278.641 142.521C277.559 141.503 276.689 140.282 276.08 138.928L271.439 128.616C270.823 127.261 270.48 125.799 270.429 124.312C270.378 122.825 270.62 121.343 271.142 119.949C272.196 117.135 274.324 114.855 277.059 113.611C278.414 112.995 279.876 112.651 281.363 112.6C282.85 112.549 284.333 112.792 285.726 113.314C288.54 114.368 290.82 116.496 292.064 119.231L296.705 129.647Z" fill="#DEBB7E" stroke="#45413C" stroke-width="7" stroke-linecap="round" stroke-linejoin="round"/>
</svg>
