<svg width="495" height="495" viewBox="0 0 495 495" fill="none" xmlns="http://www.w3.org/2000/svg">
<path d="M22.375 247.575C22.375 280.614 46.0931 312.3 88.3117 335.663C130.53 359.025 187.791 372.15 247.497 372.15C307.203 372.15 364.464 359.025 406.682 335.663C448.901 312.3 472.619 280.614 472.619 247.575C472.619 214.536 448.901 182.85 406.682 159.487C364.464 136.125 307.203 123 247.497 123C187.791 123 130.53 136.125 88.3117 159.487C46.0931 182.85 22.375 214.536 22.375 247.575Z" fill="white"/>
<path d="M247.497 183.741C359.387 183.741 434.153 236.541 461.275 277.894C467.819 269.048 471.75 258.544 472.619 247.575C472.619 209.316 390.119 123 247.497 123C104.875 123 22.375 209.316 22.375 247.575C23.2441 258.544 27.1744 269.048 33.7187 277.894C60.8406 236.541 135.606 183.741 247.497 183.741Z" fill="#E0E0E0"/>
<path d="M22.375 247.575C22.375 280.614 46.0931 312.3 88.3117 335.663C130.53 359.025 187.791 372.15 247.497 372.15C307.203 372.15 364.464 359.025 406.682 335.663C448.901 312.3 472.619 280.614 472.619 247.575C472.619 214.536 448.901 182.85 406.682 159.487C364.464 136.125 307.203 123 247.497 123C187.791 123 130.53 136.125 88.3117 159.487C46.0931 182.85 22.375 214.536 22.375 247.575V247.575Z" stroke="#45413C" stroke-width="7" stroke-linecap="round" stroke-linejoin="round"/>
<path d="M247.497 152.597C382.9 152.597 461.172 237.675 462.306 276.347C468.274 267.861 471.838 257.92 472.619 247.575C472.619 209.316 390.119 123 247.497 123C104.875 123 22.375 209.316 22.375 247.575C23.1561 257.92 26.7193 267.861 32.6875 276.347C33.8219 237.263 112.094 152.597 247.497 152.597Z" fill="#656769" stroke="#45413C" stroke-width="7" stroke-linecap="round" stroke-linejoin="round"/>
<path d="M154.891 247.575C154.891 259.736 157.286 271.778 161.94 283.014C166.594 294.249 173.415 304.458 182.014 313.058C190.614 321.657 200.822 328.478 212.058 333.132C223.294 337.786 235.336 340.181 247.497 340.181C259.658 340.181 271.7 337.786 282.936 333.132C294.171 328.478 304.38 321.657 312.979 313.058C321.579 304.458 328.4 294.249 333.054 283.014C337.708 271.778 340.103 259.736 340.103 247.575C340.103 235.414 337.708 223.372 333.054 212.136C328.4 200.901 321.579 190.692 312.979 182.092C304.38 173.493 294.171 166.672 282.936 162.018C271.7 157.364 259.658 154.969 247.497 154.969C235.336 154.969 223.294 157.364 212.058 162.018C200.822 166.672 190.614 173.493 182.014 182.092C173.415 190.692 166.594 200.901 161.94 212.136C157.286 223.372 154.891 235.414 154.891 247.575Z" fill="#B89558"/>
<path d="M311.747 180.854C321.699 193.016 327.995 207.753 329.902 223.353C331.809 238.952 329.249 254.772 322.52 268.974C315.791 283.176 305.168 295.176 291.888 303.578C278.608 311.981 263.215 316.442 247.5 316.442C231.785 316.442 216.392 311.981 203.112 303.578C189.832 295.176 179.209 283.176 172.48 268.974C165.751 254.772 163.191 238.952 165.098 223.353C167.005 207.753 173.301 193.016 183.253 180.854C169.887 193.674 160.662 210.201 156.765 228.308C152.868 246.415 154.478 265.273 161.387 282.457C168.296 299.642 180.189 314.366 195.535 324.736C210.881 335.106 228.979 340.647 247.5 340.647C266.021 340.647 284.119 335.106 299.465 324.736C314.811 314.366 326.704 299.642 333.613 282.457C340.522 265.273 342.132 246.415 338.235 228.308C334.338 210.201 325.113 193.674 311.747 180.854Z" fill="#947746"/>
<path d="M154.891 247.575C154.891 259.736 157.286 271.778 161.94 283.014C166.594 294.249 173.415 304.458 182.014 313.058C190.614 321.657 200.822 328.478 212.058 333.132C223.294 337.786 235.336 340.181 247.497 340.181C259.658 340.181 271.7 337.786 282.936 333.132C294.171 328.478 304.38 321.657 312.979 313.058C321.579 304.458 328.4 294.249 333.054 283.014C337.708 271.778 340.103 259.736 340.103 247.575C340.103 235.414 337.708 223.372 333.054 212.136C328.4 200.901 321.579 190.692 312.979 182.092C304.38 173.493 294.171 166.672 282.936 162.018C271.7 157.364 259.658 154.969 247.497 154.969C235.336 154.969 223.294 157.364 212.058 162.018C200.822 166.672 190.614 173.493 182.014 182.092C173.415 190.692 166.594 200.901 161.94 212.136C157.286 223.372 154.891 235.414 154.891 247.575V247.575Z" stroke="#45413C" stroke-width="7" stroke-linecap="round" stroke-linejoin="round"/>
<path d="M205.938 247.575C205.938 258.597 210.316 269.168 218.11 276.962C225.904 284.756 236.475 289.134 247.497 289.134C258.519 289.134 269.09 284.756 276.884 276.962C284.678 269.168 289.056 258.597 289.056 247.575C289.056 236.553 284.678 225.982 276.884 218.188C269.09 210.394 258.519 206.016 247.497 206.016C236.475 206.016 225.904 210.394 218.11 218.188C210.316 225.982 205.938 236.553 205.938 247.575Z" fill="#525252" stroke="#45413C" stroke-width="7" stroke-linecap="round" stroke-linejoin="round"/>
<path d="M180.984 204.263C180.984 212.659 184.32 220.712 190.257 226.649C196.194 232.587 204.247 235.922 212.644 235.922C221.04 235.922 229.093 232.587 235.03 226.649C240.968 220.712 244.303 212.659 244.303 204.263C244.303 195.866 240.968 187.814 235.03 181.876C229.093 175.939 221.04 172.604 212.644 172.604C204.247 172.604 196.194 175.939 190.257 181.876C184.32 187.814 180.984 195.866 180.984 204.263Z" fill="white" stroke="#45413C" stroke-width="7" stroke-linecap="round" stroke-linejoin="round"/>
</svg>
