<svg width="495" height="495" viewBox="0 0 495 495" fill="none" xmlns="http://www.w3.org/2000/svg">
<path d="M464.438 129.985H399.263C347.807 130.122 296.673 121.867 247.875 105.544C199.254 89.213 148.294 80.9229 97.0031 81.0005H31.3125C25.3313 81.0005 21 84.6099 21 89.1474V357.272C21.3815 359.677 22.6542 361.851 24.5649 363.36C26.4756 364.87 28.8845 365.605 31.3125 365.419H97.0031C148.29 365.391 199.242 373.68 247.875 389.963C296.557 406.336 347.592 414.627 398.953 414.507H464.438C466.871 414.717 469.292 413.991 471.209 412.477C473.125 410.964 474.391 408.776 474.75 406.36V137.719C474.278 135.39 472.967 133.316 471.066 131.89C469.164 130.464 466.806 129.786 464.438 129.985Z" fill="#FF6242" stroke="#45413C" stroke-width="7" stroke-linecap="round" stroke-linejoin="round"/>
<path d="M247.874 105.545C221.983 96.6709 195.334 90.1814 168.262 86.1572V370.885C195.315 374.857 221.959 381.242 247.874 389.963C273.834 398.797 300.554 405.218 327.693 409.145V124.623C300.566 120.681 273.851 114.296 247.874 105.545Z" fill="#F4C704" stroke="#45413C" stroke-width="7"/>
<path d="M97.0031 81.001H31.3125C25.3312 81.001 21 84.6104 21 89.1479V357.273C21.3815 359.678 22.6542 361.851 24.5649 363.361C26.4756 364.87 28.8845 365.605 31.3125 365.42H97.0031C120.856 365.439 144.675 367.231 168.262 370.782V86.1573C144.67 82.675 120.851 80.9515 97.0031 81.001Z" fill="black" stroke="#45413C" stroke-width="7"/>
</svg>
