<svg width="495" height="495" viewBox="0 0 495 495" fill="none" xmlns="http://www.w3.org/2000/svg">
<path d="M30 30H464.053V464.053H30V30Z" fill="white"/>
<path d="M426.928 432.703H67.2281C57.5152 432.569 48.2394 428.644 41.3803 421.766C34.5213 414.888 30.6223 405.601 30.5156 395.888V426.825C30.5156 436.699 34.4379 446.168 41.4195 453.149C48.4011 460.131 57.8702 464.053 67.7438 464.053H426.928C436.802 464.053 446.271 460.131 453.252 453.149C460.234 446.168 464.156 436.699 464.156 426.825V395.888C464.048 405.69 460.078 415.053 453.108 421.946C446.138 428.838 436.731 432.704 426.928 432.703Z" fill="#F0F0F0"/>
<path d="M30 30H464.053V464.053H30V30Z" stroke="#45413C" stroke-width="6" stroke-linecap="round" stroke-linejoin="round"/>
<path d="M61.0391 61.041H433.114V433.116H61.0391V61.041Z" fill="#00B8F0"/>
<path d="M420.741 401.766H73.4156C70.2584 401.661 67.2606 400.353 65.0365 398.11C62.8124 395.867 61.5304 392.858 61.4531 389.7V420.638C61.5304 423.796 62.8124 426.804 65.0365 429.048C67.2606 431.291 70.2584 432.599 73.4156 432.703H420.741C424.023 432.703 427.17 431.399 429.491 429.079C431.812 426.758 433.116 423.61 433.116 420.328V389.391C433.116 392.673 431.812 395.82 429.491 398.141C427.17 400.462 424.023 401.766 420.741 401.766Z" fill="#009FD9"/>
<path d="M61.0391 61.041H433.114V433.116H61.0391V61.041Z" stroke="#45413C" stroke-width="6" stroke-linecap="round" stroke-linejoin="round"/>
<path d="M222.228 247.078L141.688 433.116H191.291L247.081 271.931L302.872 433.116H352.475L271.934 247.078H222.228Z" fill="#FF6242"/>
<path d="M155.094 402.075L141.688 433.116H191.291L202.016 402.075H155.094Z" fill="#E04122"/>
<path d="M292.141 402.075L302.866 433.116H352.469L339.062 402.075H292.141Z" fill="#E04122"/>
<path d="M222.228 245.531L141.688 431.569H191.291L247.081 270.384L302.872 431.569H352.475L271.934 245.531H222.228Z" stroke="#45413C" stroke-width="6" stroke-linecap="round" stroke-linejoin="round"/>
<path d="M247.075 116.831C221.315 116.831 196.133 124.47 174.714 138.782C153.295 153.093 136.601 173.435 126.743 197.235C116.885 221.034 114.305 247.222 119.331 272.488C124.356 297.753 136.761 320.961 154.977 339.176C173.192 357.392 196.4 369.797 221.665 374.822C246.931 379.848 273.119 377.268 296.918 367.41C320.718 357.552 341.06 340.858 355.371 319.439C369.683 298.02 377.322 272.838 377.322 247.078C377.295 212.543 363.563 179.43 339.143 155.01C314.723 130.59 281.61 116.858 247.075 116.831ZM247.075 346.284C227.454 346.284 208.273 340.466 191.959 329.565C175.645 318.664 162.929 303.17 155.42 285.043C147.912 266.915 145.947 246.968 149.775 227.724C153.603 208.48 163.051 190.803 176.926 176.929C190.8 163.054 208.477 153.606 227.721 149.778C246.965 145.95 266.912 147.915 285.04 155.423C303.167 162.932 318.661 175.648 329.562 191.962C340.463 208.276 346.281 227.457 346.281 247.078C346.281 273.389 335.829 298.623 317.224 317.227C298.62 335.832 273.386 346.284 247.075 346.284Z" fill="white" stroke="#45413C" stroke-width="6" stroke-linecap="round" stroke-linejoin="round"/>
<path d="M216.039 135.497C216.039 143.729 219.309 151.624 225.131 157.446C230.952 163.267 238.847 166.537 247.08 166.537C255.312 166.537 263.207 163.267 269.029 157.446C274.85 151.624 278.12 143.729 278.12 135.497C278.12 127.264 274.85 119.369 269.029 113.548C263.207 107.726 255.312 104.456 247.08 104.456C238.847 104.456 230.952 107.726 225.131 113.548C219.309 119.369 216.039 127.264 216.039 135.497Z" fill="#FF6242"/>
<path d="M216.039 364.95C216.039 373.182 219.309 381.078 225.131 386.899C230.952 392.72 238.847 395.99 247.08 395.99C255.312 395.99 263.207 392.72 269.029 386.899C274.85 381.078 278.12 373.182 278.12 364.95C278.12 356.717 274.85 348.822 269.029 343.001C263.207 337.18 255.312 333.909 247.08 333.909C238.847 333.909 230.952 337.18 225.131 343.001C219.309 348.822 216.039 356.717 216.039 364.95Z" fill="#FF6242"/>
<path d="M163.24 165.919C168.523 168.991 172.778 173.559 175.467 179.047C178.157 184.534 179.161 190.696 178.353 196.754C177.545 202.811 174.961 208.494 170.927 213.085C166.893 217.676 161.59 220.969 155.686 222.549C149.783 224.129 143.543 223.925 137.755 221.963C131.967 220.001 126.89 216.369 123.164 211.524C119.439 206.68 117.231 200.841 116.82 194.743C116.409 188.646 117.813 182.563 120.856 177.263C122.885 173.726 125.594 170.626 128.826 168.14C132.058 165.654 135.75 163.832 139.689 162.777C143.628 161.723 147.736 161.458 151.778 161.997C155.82 162.536 159.715 163.869 163.24 165.919Z" fill="#FF6242"/>
<path d="M361.956 280.697C367.197 283.805 371.402 288.392 374.046 293.882C376.69 299.372 377.653 305.521 376.816 311.556C375.979 317.592 373.378 323.245 369.339 327.808C365.301 332.371 360.005 335.64 354.116 337.205C348.227 338.769 342.008 338.56 336.237 336.604C330.466 334.647 325.402 331.03 321.68 326.206C317.957 321.382 315.742 315.566 315.312 309.488C314.881 303.41 316.256 297.34 319.262 292.04C321.292 288.463 324.014 285.325 327.271 282.812C330.527 280.299 334.252 278.461 338.227 277.405C342.203 276.348 346.349 276.095 350.423 276.661C354.498 277.226 358.418 278.598 361.956 280.697Z" fill="#FF6242"/>
<path d="M132.193 280.697C137.494 277.655 143.576 276.251 149.674 276.662C155.771 277.073 161.611 279.28 166.455 283.006C171.299 286.732 174.932 291.809 176.894 297.597C178.856 303.385 179.059 309.624 177.479 315.528C175.899 321.431 172.606 326.735 168.015 330.769C163.425 334.803 157.742 337.387 151.684 338.195C145.627 339.003 139.465 337.999 133.978 335.309C128.49 332.62 123.922 328.365 120.85 323.082C118.8 319.557 117.467 315.662 116.928 311.62C116.389 307.578 116.654 303.47 117.708 299.531C118.762 295.592 120.585 291.9 123.071 288.668C125.557 285.436 128.657 282.727 132.193 280.697Z" fill="#FF6242"/>
<path d="M330.918 165.919C336.241 162.925 342.33 161.573 348.419 162.033C354.508 162.494 360.325 164.746 365.136 168.506C369.948 172.266 373.539 177.366 375.457 183.164C377.376 188.961 377.535 195.196 375.917 201.084C374.298 206.972 370.973 212.25 366.36 216.251C361.748 220.253 356.054 222.8 349.996 223.572C343.939 224.344 337.788 223.306 332.32 220.589C326.851 217.872 322.309 213.597 319.265 208.303C317.228 204.76 315.913 200.848 315.397 196.793C314.88 192.739 315.172 188.622 316.255 184.681C317.339 180.74 319.193 177.053 321.709 173.833C324.226 170.612 327.356 167.922 330.918 165.919Z" fill="#FF6242"/>
<path d="M247.078 126.113C253.461 126.131 259.682 128.122 264.888 131.815C270.095 135.507 274.032 140.72 276.159 146.738C277.457 143.135 278.086 139.326 278.016 135.497C278.016 127.292 274.756 119.423 268.954 113.621C263.152 107.819 255.283 104.56 247.078 104.56C238.873 104.56 231.004 107.819 225.202 113.621C219.4 119.423 216.141 127.292 216.141 135.497C216.152 139.194 216.816 142.859 218.1 146.325C220.29 140.401 224.24 135.289 229.42 131.676C234.6 128.062 240.762 126.121 247.078 126.113Z" fill="#FF866E"/>
<path d="M247.077 355.565C253.459 355.583 259.68 357.575 264.887 361.268C270.093 364.96 274.03 370.173 276.158 376.19C277.384 372.887 278.046 369.401 278.117 365.878C278.117 357.673 274.858 349.804 269.056 344.002C263.254 338.2 255.385 334.94 247.18 334.94C238.975 334.94 231.105 338.2 225.304 344.002C219.502 349.804 216.242 357.673 216.242 365.878C216.313 369.401 216.975 372.887 218.202 376.19C220.317 370.206 224.223 365.016 229.388 361.327C234.554 357.637 240.729 355.626 247.077 355.565Z" fill="#FF866E"/>
<path d="M120.855 199.022C122.884 195.486 125.593 192.386 128.825 189.9C132.058 187.414 135.749 185.591 139.688 184.537C143.627 183.483 147.735 183.218 151.777 183.757C155.819 184.296 159.714 185.629 163.239 187.679C169.462 191.275 174.239 196.927 176.748 203.663C178.472 198.986 179.039 193.963 178.403 189.02C177.768 184.076 175.947 179.36 173.096 175.272C170.246 171.184 166.45 167.845 162.031 165.539C157.613 163.233 152.703 162.029 147.719 162.029C142.735 162.029 137.825 163.233 133.406 165.539C128.988 167.845 125.192 171.184 122.341 175.272C119.491 179.36 117.67 184.076 117.034 189.02C116.398 193.963 116.966 198.986 118.689 203.663C119.326 202.078 120.049 200.528 120.855 199.022Z" fill="#FF866E"/>
<path d="M319.269 313.697C322.19 308.582 326.511 304.406 331.723 301.662C336.936 298.918 342.824 297.72 348.694 298.207C354.565 298.694 360.174 300.848 364.863 304.414C369.552 307.98 373.125 312.81 375.162 318.338C376.886 313.661 377.453 308.638 376.817 303.694C376.182 298.751 374.361 294.035 371.51 289.947C368.66 285.858 364.864 282.52 360.445 280.214C356.027 277.908 351.117 276.704 346.133 276.704C341.149 276.704 336.239 277.908 331.82 280.214C327.402 282.52 323.606 285.858 320.755 289.947C317.905 294.035 316.084 298.751 315.448 303.694C314.812 308.638 315.38 313.661 317.103 318.338C317.724 316.745 318.447 315.195 319.269 313.697Z" fill="#FF6242"/>
<path d="M132.194 302.353C135.731 300.254 139.652 298.882 143.726 298.317C147.801 297.752 151.947 298.004 155.922 299.061C159.898 300.117 163.623 301.955 166.879 304.468C170.135 306.981 172.858 310.119 174.888 313.696C175.713 315.228 176.437 316.813 177.053 318.44C178.776 313.764 179.344 308.74 178.708 303.797C178.072 298.854 176.252 294.137 173.401 290.049C170.55 285.961 166.754 282.622 162.336 280.316C157.917 278.011 153.007 276.807 148.023 276.807C143.04 276.807 138.129 278.011 133.711 280.316C129.293 282.622 125.496 285.961 122.646 290.049C119.795 294.137 117.975 298.854 117.339 303.797C116.703 308.74 117.271 313.764 118.994 318.44C121.404 311.714 126.068 306.03 132.194 302.353Z" fill="#FF866E"/>
<path d="M330.917 187.679C334.442 185.629 338.337 184.296 342.379 183.757C346.421 183.218 350.529 183.483 354.468 184.537C358.407 185.591 362.099 187.414 365.331 189.9C368.563 192.386 371.272 195.486 373.302 199.022C374.108 200.528 374.831 202.078 375.467 203.663C377.19 198.986 377.758 193.963 377.122 189.02C376.486 184.076 374.666 179.36 371.815 175.272C368.964 171.184 365.168 167.845 360.75 165.539C356.331 163.233 351.421 162.029 346.437 162.029C341.454 162.029 336.544 163.233 332.125 165.539C327.707 167.845 323.911 171.184 321.06 175.272C318.209 179.36 316.389 184.076 315.753 189.02C315.117 193.963 315.685 198.986 317.408 203.663C319.917 196.927 324.694 191.275 330.917 187.679Z" fill="#FF866E"/>
<path d="M222.227 247.078C222.227 250.341 222.869 253.573 224.118 256.589C225.367 259.604 227.198 262.344 229.506 264.652C231.814 266.959 234.553 268.79 237.569 270.039C240.584 271.288 243.816 271.931 247.08 271.931C250.343 271.931 253.575 271.288 256.591 270.039C259.606 268.79 262.346 266.959 264.654 264.652C266.961 262.344 268.792 259.604 270.041 256.589C271.29 253.573 271.933 250.341 271.933 247.078C271.933 243.814 271.29 240.582 270.041 237.567C268.792 234.552 266.961 231.812 264.654 229.504C262.346 227.196 259.606 225.365 256.591 224.116C253.575 222.867 250.343 222.225 247.08 222.225C243.816 222.225 240.584 222.867 237.569 224.116C234.553 225.365 231.814 227.196 229.506 229.504C227.198 231.812 225.367 234.552 224.118 237.567C222.869 240.582 222.227 243.814 222.227 247.078Z" fill="#FF6242"/>
<path d="M247.08 240.891C252.189 240.912 257.169 242.507 261.339 245.46C265.51 248.412 268.669 252.578 270.386 257.391C271.375 254.644 271.898 251.751 271.933 248.832C271.933 242.24 269.314 235.919 264.653 231.258C259.993 226.597 253.671 223.979 247.08 223.979C240.488 223.979 234.167 226.597 229.506 231.258C224.845 235.919 222.227 242.24 222.227 248.832C222.262 251.751 222.784 254.644 223.773 257.391C225.491 252.578 228.65 248.412 232.82 245.46C236.991 242.507 241.97 240.912 247.08 240.891Z" fill="#FF866E"/>
<path d="M216.039 135.497C216.039 143.729 219.309 151.624 225.131 157.446C230.952 163.267 238.847 166.537 247.08 166.537C255.312 166.537 263.207 163.267 269.029 157.446C274.85 151.624 278.12 143.729 278.12 135.497C278.12 127.264 274.85 119.369 269.029 113.548C263.207 107.726 255.312 104.456 247.08 104.456C238.847 104.456 230.952 107.726 225.131 113.548C219.309 119.369 216.039 127.264 216.039 135.497Z" stroke="#45413C" stroke-width="6" stroke-linecap="round" stroke-linejoin="round"/>
<path d="M163.24 165.919C168.523 168.991 172.778 173.559 175.467 179.047C178.157 184.534 179.161 190.696 178.353 196.754C177.545 202.811 174.961 208.494 170.927 213.085C166.893 217.676 161.59 220.969 155.686 222.549C149.783 224.129 143.543 223.925 137.755 221.963C131.967 220.001 126.89 216.369 123.164 211.524C119.439 206.68 117.231 200.841 116.82 194.743C116.409 188.646 117.813 182.563 120.856 177.263C122.885 173.726 125.594 170.626 128.826 168.14C132.058 165.654 135.75 163.832 139.689 162.777C143.628 161.723 147.736 161.458 151.778 161.997C155.82 162.536 159.715 163.869 163.24 165.919V165.919Z" stroke="#45413C" stroke-width="6" stroke-linecap="round" stroke-linejoin="round"/>
<path d="M361.956 280.697C367.197 283.805 371.402 288.392 374.046 293.882C376.69 299.372 377.653 305.521 376.816 311.556C375.979 317.592 373.378 323.245 369.339 327.808C365.301 332.371 360.005 335.64 354.116 337.205C348.227 338.769 342.008 338.56 336.237 336.604C330.466 334.647 325.402 331.03 321.68 326.206C317.957 321.382 315.742 315.566 315.312 309.488C314.881 303.41 316.256 297.34 319.262 292.04C321.292 288.463 324.014 285.325 327.271 282.812C330.527 280.299 334.252 278.461 338.227 277.405C342.203 276.348 346.349 276.095 350.423 276.661C354.498 277.226 358.418 278.598 361.956 280.697V280.697Z" stroke="#45413C" stroke-width="6" stroke-linecap="round" stroke-linejoin="round"/>
<path d="M132.193 280.697C137.494 277.655 143.576 276.251 149.674 276.662C155.771 277.073 161.611 279.28 166.455 283.006C171.299 286.732 174.932 291.809 176.894 297.597C178.856 303.385 179.059 309.624 177.479 315.528C175.899 321.432 172.606 326.735 168.015 330.769C163.425 334.803 157.742 337.387 151.684 338.195C145.627 339.003 139.465 337.999 133.978 335.309C128.49 332.62 123.922 328.365 120.85 323.082C118.8 319.557 117.467 315.662 116.928 311.62C116.389 307.578 116.654 303.47 117.708 299.531C118.762 295.592 120.585 291.9 123.071 288.668C125.557 285.436 128.657 282.727 132.193 280.697V280.697Z" stroke="#45413C" stroke-width="6" stroke-linecap="round" stroke-linejoin="round"/>
<path d="M330.918 165.919C336.241 162.925 342.33 161.573 348.419 162.033C354.508 162.494 360.325 164.746 365.136 168.506C369.948 172.266 373.539 177.366 375.457 183.164C377.376 188.961 377.535 195.196 375.917 201.084C374.298 206.972 370.973 212.25 366.36 216.251C361.748 220.253 356.054 222.8 349.996 223.572C343.939 224.344 337.788 223.306 332.32 220.589C326.851 217.872 322.309 213.597 319.265 208.303C317.228 204.76 315.913 200.848 315.397 196.793C314.88 192.739 315.172 188.622 316.255 184.681C317.339 180.74 319.193 177.053 321.709 173.833C324.226 170.612 327.356 167.922 330.918 165.919Z" stroke="#45413C" stroke-width="6" stroke-linecap="round" stroke-linejoin="round"/>
<path d="M222.227 248.625C222.227 251.888 222.869 255.12 224.118 258.135C225.367 261.151 227.198 263.891 229.506 266.198C231.814 268.506 234.553 270.337 237.569 271.586C240.584 272.835 243.816 273.478 247.08 273.478C250.343 273.478 253.575 272.835 256.591 271.586C259.606 270.337 262.346 268.506 264.654 266.198C266.961 263.891 268.792 261.151 270.041 258.135C271.29 255.12 271.933 251.888 271.933 248.625C271.933 245.361 271.29 242.129 270.041 239.114C268.792 236.098 266.961 233.359 264.654 231.051C262.346 228.743 259.606 226.912 256.591 225.663C253.575 224.414 250.343 223.771 247.08 223.771C243.816 223.771 240.584 224.414 237.569 225.663C234.553 226.912 231.814 228.743 229.506 231.051C227.198 233.359 225.367 236.098 224.118 239.114C222.869 242.129 222.227 245.361 222.227 248.625V248.625Z" stroke="#45413C" stroke-width="6" stroke-linecap="round" stroke-linejoin="round"/>
<path d="M247.078 166.435V222.225" stroke="#45413C" stroke-width="6" stroke-linecap="round" stroke-linejoin="round"/>
<path d="M178.914 209.85L222.227 234.703" stroke="#45413C" stroke-width="6" stroke-linecap="round" stroke-linejoin="round"/>
<path d="M271.93 234.703L315.242 209.85" stroke="#45413C" stroke-width="6" stroke-linecap="round" stroke-linejoin="round"/>
<path d="M222.227 265.641L178.914 290.494" stroke="#45413C" stroke-width="6" stroke-linecap="round" stroke-linejoin="round"/>
<path d="M271.93 265.641L315.242 290.494" stroke="#45413C" stroke-width="6" stroke-linecap="round" stroke-linejoin="round"/>
<path d="M216.039 364.95C216.039 373.182 219.309 381.078 225.131 386.899C230.952 392.72 238.847 395.99 247.08 395.99C255.312 395.99 263.207 392.72 269.029 386.899C274.85 381.078 278.12 373.182 278.12 364.95C278.12 356.717 274.85 348.822 269.029 343.001C263.207 337.18 255.312 333.909 247.08 333.909C238.847 333.909 230.952 337.18 225.131 343.001C219.309 348.822 216.039 356.717 216.039 364.95V364.95Z" stroke="#45413C" stroke-width="6" stroke-linecap="round" stroke-linejoin="round"/>
<path d="M247.078 276.435V332.225" stroke="#45413C" stroke-width="6" stroke-linecap="round" stroke-linejoin="round"/>
</svg>
