<svg width="495" height="495" viewBox="0 0 495 495" fill="none" xmlns="http://www.w3.org/2000/svg">
<path d="M377.539 133.197C375.131 131.926 372.495 131.145 369.783 130.898C367.071 130.651 364.337 130.943 361.739 131.758C359.141 132.573 356.73 133.894 354.645 135.646C352.56 137.397 350.843 139.544 349.592 141.963C344.471 152.173 337.108 161.094 328.054 168.058C319.001 175.022 308.49 179.851 297.308 182.181C287.124 184.242 276.76 185.278 266.37 185.275H199.339C184.656 185.267 170.152 188.508 156.87 194.766C143.587 201.025 131.853 210.144 122.511 221.472L111.27 234.775C107.839 238.985 106.207 244.379 106.728 249.785C107.249 255.191 109.882 260.173 114.055 263.65C118.271 267.114 123.687 268.765 129.119 268.243C134.55 267.721 139.553 265.069 143.033 260.866L154.686 247.356C160.17 240.683 167.066 235.307 174.875 231.616C182.685 227.925 191.216 226.01 199.854 226.01V301.6H291.636V225.081L305.558 222.194C322.842 218.614 339.1 211.195 353.13 200.484C367.16 189.774 378.604 176.048 386.614 160.319C388.901 155.502 389.233 149.986 387.541 144.93C385.849 139.873 382.264 135.668 377.539 133.197Z" fill="#FFCEBF" stroke="#45413C" stroke-width="6" stroke-linecap="round" stroke-linejoin="round"/>
<path d="M340.312 155.987C329.381 169.364 314.209 178.605 297.309 182.181C287.125 184.241 276.761 185.278 266.371 185.275H199.34C185.327 185.294 171.475 188.261 158.683 193.982C145.892 199.702 134.446 208.05 125.09 218.481L154.687 246.428C160.176 239.995 166.988 234.823 174.659 231.263C182.329 227.704 190.677 225.841 199.134 225.803V301.394H290.915V225.081L304.837 222.194C331.261 216.727 355.022 202.391 372.177 181.562L340.312 155.987Z" fill="#00B8F0" stroke="#45413C" stroke-width="6" stroke-linecap="round" stroke-linejoin="round"/>
<path d="M291.534 182.903C283.216 184.264 274.801 184.954 266.372 184.966H202.847L197.484 204.25L227.803 217.966L217.491 246.325L247.5 276.025L277.716 246.325L268.125 217.966L297.516 204.25L291.534 182.903Z" fill="white" stroke="#45413C" stroke-width="6" stroke-linecap="round" stroke-linejoin="round"/>
<path d="M195.523 108.962C195.523 116.059 196.921 123.085 199.637 129.642C202.352 136.198 206.333 142.155 211.351 147.173C216.369 152.19 222.326 156.171 228.882 158.886C235.438 161.602 242.465 163 249.561 163C256.657 163 263.684 161.602 270.24 158.886C276.796 156.171 282.753 152.19 287.771 147.173C292.789 142.155 296.769 136.198 299.485 129.642C302.201 123.085 303.598 116.059 303.598 108.962C303.598 101.866 302.201 94.8392 299.485 88.2831C296.769 81.7269 292.789 75.7699 287.771 70.752C282.753 65.7342 276.796 61.7538 270.24 59.0382C263.684 56.3225 256.657 54.9248 249.561 54.9248C242.465 54.9248 235.438 56.3225 228.882 59.0382C222.326 61.7538 216.369 65.7342 211.351 70.752C206.333 75.7699 202.352 81.7269 199.637 88.2831C196.921 94.8392 195.523 101.866 195.523 108.962Z" fill="#FFCEBF" stroke="#45413C" stroke-width="6" stroke-linecap="round" stroke-linejoin="round"/>
<path d="M333.813 418.75C336.669 418.758 339.512 419.139 342.27 419.884C340.911 375.297 322.448 332.942 290.707 301.6H198.926C198.96 318.545 195.286 335.293 188.16 350.668C181.034 366.042 170.629 379.671 157.676 390.596L181.601 419.368C183.441 421.702 184.967 424.268 186.138 427C215.874 403.734 236.731 370.974 245.229 334.187C279.879 334.187 296.791 380.284 296.791 418.853L333.813 418.75Z" fill="#00B8F0" stroke="#45413C" stroke-width="6" stroke-linecap="round" stroke-linejoin="round"/>
<path d="M296.793 418.75H333.712C337.864 418.737 341.979 419.543 345.819 421.123C349.66 422.702 353.151 425.025 356.092 427.956C359.033 430.888 361.367 434.371 362.959 438.207C364.551 442.042 365.371 446.154 365.371 450.306H307.105C304.37 450.306 301.747 449.22 299.813 447.286C297.879 445.352 296.793 442.729 296.793 439.994V418.75Z" fill="#656769" stroke="#45413C" stroke-width="6" stroke-linecap="round" stroke-linejoin="round"/>
<path d="M158.137 390.617L181.53 419.178C186.833 425.653 189.347 433.969 188.519 442.297C187.691 450.625 183.588 458.283 177.113 463.586L140.259 418.591C138.526 416.475 137.704 413.757 137.975 411.036C138.246 408.314 139.586 405.811 141.702 404.078L158.137 390.617Z" fill="#656769" stroke="#45413C" stroke-width="6" stroke-linecap="round" stroke-linejoin="round"/>
<path d="M247.5 276.025L271.631 184.862H224.297L247.5 276.025Z" fill="#FFCEBF" stroke="#45413C" stroke-width="6" stroke-linecap="round" stroke-linejoin="round"/>
<path d="M247.5 276.025V301.6" stroke="#45413C" stroke-width="6" stroke-linecap="round" stroke-linejoin="round"/>
<path d="M215.737 151.244L217.181 150.522C222.416 148.03 227.003 144.358 230.582 139.796C234.16 135.233 236.633 129.904 237.806 124.225C234.604 124.239 231.44 123.533 228.548 122.158C225.656 120.784 223.111 118.776 221.1 116.285C216.15 108.344 219.759 91.6377 229.762 89.7814C239.765 87.9252 245.54 100.713 245.54 100.713C245.54 100.713 264.825 87.3064 303.497 89.3689C332.578 91.3283 333.094 46.4689 317.109 31.3096C311.128 40.3846 297.412 45.7471 260.184 40.1783C219.656 34.1971 198.309 52.3471 188.719 76.9939C176.962 109.375 191.606 143.097 215.737 151.244Z" fill="#FFC44D"/>
<path d="M188.719 101.434C197.897 76.7875 219.656 58.6375 260.184 64.6187C284.728 68.3312 299.062 67.3 307.622 63.4844C309.401 62.6687 311.336 62.2464 313.294 62.2464C315.251 62.2464 317.186 62.6687 318.965 63.4844C320.702 64.3622 322.233 65.5968 323.459 67.1073C324.685 68.6179 325.579 70.3703 326.081 72.25C328.122 65.1694 328.371 57.6924 326.805 50.4919C325.239 43.2913 321.907 36.5931 317.109 31C311.128 40.075 297.412 45.4375 260.184 39.8687C219.656 33.8875 198.309 52.0375 188.719 76.6844C184.382 88.165 183.311 100.623 185.625 112.675C186.378 108.857 187.412 105.1 188.719 101.434Z" fill="#FFDB94"/>
<path d="M215.737 151.244L217.181 150.522C222.416 148.03 227.003 144.358 230.582 139.796C234.16 135.233 236.633 129.904 237.806 124.225V124.225C234.604 124.239 231.44 123.533 228.548 122.158C225.656 120.784 223.111 118.776 221.1 116.285C216.15 108.344 219.759 91.6377 229.762 89.7814C239.765 87.9252 245.54 100.713 245.54 100.713C245.54 100.713 264.825 87.3064 303.497 89.3689C332.578 91.3283 333.094 46.4689 317.109 31.3096C311.128 40.3846 297.412 45.7471 260.184 40.1783C219.656 34.1971 198.309 52.3471 188.719 76.9939C176.962 109.375 191.606 143.097 215.737 151.244Z" stroke="#45413C" stroke-width="6" stroke-linecap="round" stroke-linejoin="round"/>
</svg>
