<svg width="496" height="496" viewBox="0 0 496 496" fill="none" xmlns="http://www.w3.org/2000/svg">
<path d="M429.006 361.554C378.786 298.83 319.989 265.557 305.006 198.184H191.339C176.356 265.557 117.559 298.83 67.3392 361.554C62.6166 368.198 60.0549 376.135 60.0025 384.287C59.9262 390.912 61.5918 397.441 64.8323 403.22C68.0729 408.999 72.7748 413.825 78.4673 417.216C84.1597 420.606 90.643 422.442 97.2679 422.538C103.893 422.635 110.427 420.99 116.216 417.767C118.188 429.311 124.173 439.787 133.115 447.349C142.057 454.911 153.382 459.073 165.093 459.1C171.762 459.107 178.363 457.754 184.492 455.125C190.622 452.495 196.151 448.644 200.743 443.807C204.742 453.066 211.365 460.952 219.793 466.492C228.221 472.032 238.087 474.984 248.173 474.984C258.258 474.984 268.124 472.032 276.552 466.492C284.98 460.952 291.603 453.066 295.603 443.807C300.137 448.613 305.595 452.454 311.65 455.1C317.705 457.745 324.232 459.141 330.839 459.204C342.55 459.176 353.875 455.014 362.817 447.452C371.759 439.89 377.744 429.414 379.716 417.87C385.505 421.093 392.039 422.738 398.664 422.642C405.289 422.545 411.772 420.71 417.464 417.319C423.157 413.929 427.859 409.102 431.099 403.323C434.34 397.544 436.005 391.015 435.929 384.39C436.039 376.245 433.621 368.266 429.006 361.554Z" fill="#00F5BC"/>
<path d="M191.34 162.017H305.007V198.183H191.34V162.017Z" fill="#FFB0CA" stroke="#45413C" stroke-width="7" stroke-linecap="round" stroke-linejoin="round"/>
<path d="M318.751 105.907C326.822 87.195 328.985 66.4647 324.951 46.49L321.644 28.51C321.327 26.6853 320.376 25.0312 318.958 23.84C317.54 22.6488 315.746 21.9971 313.894 22H290.851V36.0533C290.851 47.3719 286.355 58.2269 278.351 66.2303C270.348 74.2337 259.493 78.73 248.174 78.73C236.856 78.73 226.001 74.2337 217.997 66.2303C209.994 58.2269 205.497 47.3719 205.497 36.0533V22H182.454C180.602 21.9971 178.809 22.6488 177.391 23.84C175.972 25.0312 175.021 26.6853 174.704 28.51L171.397 46.49C167.364 66.4647 169.527 87.195 177.597 105.907C185.022 123.797 189.657 142.72 191.341 162.017H305.007C306.691 142.72 311.326 123.797 318.751 105.907Z" fill="#00F5BC"/>
<path d="M170.568 82.14C171.188 78.0067 173.875 63.1267 174.701 58.9933C175.018 57.1686 175.97 55.5145 177.388 54.3233C178.806 53.1321 180.599 52.4804 182.451 52.4833H191.441C193.296 52.4833 195.132 52.8502 196.843 53.5629C198.555 54.2756 200.109 55.32 201.415 56.6359C202.722 57.9519 203.755 59.5133 204.455 61.2303C205.155 62.9473 205.508 64.7858 205.495 66.64C205.495 77.9586 209.991 88.8135 217.994 96.817C225.998 104.82 236.853 109.317 248.171 109.317C259.49 109.317 270.345 104.82 278.348 96.817C286.352 88.8135 290.848 77.9586 290.848 66.64C290.834 64.7858 291.188 62.9473 291.888 61.2303C292.588 59.5133 293.621 57.9519 294.928 56.6359C296.234 55.32 297.788 54.2756 299.499 53.5629C301.211 52.8502 303.047 52.4833 304.901 52.4833H313.891C315.743 52.4804 317.537 53.1321 318.955 54.3233C320.373 55.5145 321.325 57.1686 321.641 58.9933C322.468 63.1267 325.155 78.0067 325.775 82.14C327.463 70.2922 327.184 58.2468 324.948 46.49L321.641 28.51C321.325 26.6853 320.373 25.0312 318.955 23.84C317.537 22.6488 315.743 21.9971 313.891 22H290.848V36.0533C290.848 47.3719 286.352 58.2269 278.348 66.2303C270.345 74.2337 259.49 78.73 248.171 78.73C236.853 78.73 225.998 74.2337 217.994 66.2303C209.991 58.2269 205.495 47.3719 205.495 36.0533V22H182.451C180.599 21.9971 178.806 22.6488 177.388 23.84C175.97 25.0312 175.018 26.6853 174.701 28.51L171.395 46.49C169.159 58.2468 168.879 70.2922 170.568 82.14Z" fill="#8CFFE4"/>
<path d="M318.751 105.907C326.822 87.195 328.985 66.4647 324.951 46.49L321.644 28.51C321.327 26.6853 320.376 25.0312 318.958 23.84C317.54 22.6488 315.746 21.9971 313.894 22H290.851V36.0533C290.851 47.3719 286.355 58.2269 278.351 66.2303C270.348 74.2337 259.493 78.73 248.174 78.73C236.856 78.73 226.001 74.2337 217.997 66.2303C209.994 58.2269 205.497 47.3719 205.497 36.0533V22H182.454C180.602 21.9971 178.809 22.6488 177.391 23.84C175.972 25.0312 175.021 26.6853 174.704 28.51L171.397 46.49C167.364 66.4647 169.527 87.195 177.597 105.907C185.022 123.797 189.657 142.72 191.341 162.017H305.007C306.691 142.72 311.326 123.797 318.751 105.907V105.907Z" stroke="#45413C" stroke-width="7" stroke-linecap="round" stroke-linejoin="round"/>
<path d="M333.835 258.014C319.955 240.425 310.113 219.999 305.005 198.184H191.338C186.23 219.999 176.387 240.425 162.508 258.014C218.266 275.579 278.076 275.579 333.835 258.014Z" fill="#00DBA8"/>
<path d="M429.006 361.554C378.786 298.83 319.989 265.557 305.006 198.184H191.339C176.356 265.557 117.559 298.83 67.3392 361.554C62.6166 368.198 60.0549 376.135 60.0025 384.287C59.9262 390.912 61.5918 397.441 64.8323 403.22C68.0729 408.999 72.7748 413.825 78.4673 417.216C84.1597 420.606 90.643 422.442 97.2679 422.538C103.893 422.635 110.427 420.99 116.216 417.767C118.188 429.311 124.173 439.787 133.115 447.349C142.057 454.911 153.382 459.073 165.093 459.1C171.762 459.107 178.363 457.754 184.492 455.125C190.622 452.495 196.151 448.644 200.743 443.807C204.742 453.066 211.365 460.952 219.793 466.492C228.221 472.032 238.087 474.984 248.173 474.984C258.258 474.984 268.124 472.032 276.552 466.492C284.98 460.952 291.603 453.066 295.603 443.807C300.137 448.613 305.595 452.454 311.65 455.1C317.705 457.745 324.232 459.141 330.839 459.204C342.55 459.176 353.875 455.014 362.817 447.452C371.759 439.89 377.744 429.414 379.716 417.87C385.505 421.093 392.039 422.738 398.664 422.642C405.289 422.545 411.772 420.71 417.464 417.319C423.157 413.929 427.859 409.102 431.099 403.323C434.34 397.544 436.005 391.015 435.929 384.39C436.04 376.245 433.621 368.266 429.006 361.554V361.554Z" stroke="#45413C" stroke-width="7" stroke-linecap="round" stroke-linejoin="round"/>
<path d="M125.723 396.583C133.355 373.305 147.094 352.5 165.506 336.34" stroke="#45413C" stroke-width="7" stroke-linecap="round" stroke-linejoin="round"/>
<path d="M370.624 396.79C364.131 373.248 350.83 352.146 332.391 336.134" stroke="#45413C" stroke-width="7" stroke-linecap="round" stroke-linejoin="round"/>
<path d="M202.086 423.967C202.469 403.243 205.952 382.693 212.419 363" stroke="#45413C" stroke-width="7" stroke-linecap="round" stroke-linejoin="round"/>
<path d="M297.254 423.967C298.297 403.346 295.673 382.704 289.504 363" stroke="#45413C" stroke-width="7" stroke-linecap="round" stroke-linejoin="round"/>
</svg>
