<svg width="495" height="495" viewBox="0 0 495 495" fill="none" xmlns="http://www.w3.org/2000/svg">
<path d="M317.547 314.46L284.134 342.82C260.977 359.181 234.675 370.559 206.894 376.232C179.153 381.933 152.891 393.309 129.756 409.645L96.55 433.054C95.4944 433.813 94.2968 434.353 93.0285 434.64C91.7602 434.927 90.4471 434.956 89.1674 434.725C87.8877 434.494 86.6675 434.008 85.5795 433.295C84.4915 432.583 83.558 431.659 82.8344 430.579L11.575 327.454C10.636 326.043 10.1011 324.403 10.0281 322.71L5.07812 260.835L316.516 246.707L321.259 306.52C321.308 308.042 320.997 309.554 320.352 310.933C319.707 312.313 318.746 313.521 317.547 314.46Z" fill="#6DD627" stroke="#45413C" stroke-width="7" stroke-linecap="round" stroke-linejoin="round"/>
<path d="M285.476 387.988C284.294 387.235 283.342 386.171 282.725 384.913C282.108 383.655 281.849 382.251 281.977 380.856C282.105 379.461 282.615 378.127 283.45 377.002C284.285 375.877 285.414 375.004 286.713 374.478C321.374 359.781 359.203 354.138 396.644 358.082C459.138 367.053 502.554 399.332 486.054 426.763C471.719 450.172 430.572 430.682 430.572 430.682C430.572 430.682 444.804 458.113 421.498 469.766C398.191 481.419 364.676 437.385 364.676 437.385C364.676 437.385 359.519 463.785 339.307 458.01C312.391 450.688 321.26 427.072 312.598 411.603C305.195 402.027 295.979 394.003 285.476 387.988Z" fill="#E5FEFF"/>
<path d="M285.476 387.988C288.363 389.947 291.663 392.113 294.86 394.485C326.779 382.451 361.083 378.106 394.994 381.8C440.473 388.4 475.844 407.478 485.332 427.794C485.597 427.468 485.838 427.123 486.054 426.763C502.554 399.641 459.138 367.053 396.644 358.082C359.203 354.138 321.374 359.781 286.713 374.478C285.414 375.004 284.285 375.877 283.45 377.002C282.615 378.127 282.105 379.461 281.977 380.856C281.849 382.251 282.108 383.655 282.725 384.913C283.342 386.171 284.294 387.235 285.476 387.988Z" fill="white"/>
<path d="M285.476 387.988C284.294 387.235 283.342 386.171 282.725 384.913C282.108 383.655 281.849 382.251 281.977 380.856C282.105 379.461 282.615 378.127 283.45 377.002C284.285 375.877 285.414 375.004 286.713 374.478C321.374 359.781 359.203 354.138 396.644 358.082C459.138 367.053 502.554 399.332 486.054 426.763C471.719 450.172 430.573 430.682 430.573 430.682C430.573 430.682 444.804 458.113 421.498 469.766C398.191 481.419 364.676 437.385 364.676 437.385C364.676 437.385 359.519 463.785 339.307 458.01C312.391 450.688 321.26 427.072 312.598 411.603C305.195 402.027 295.979 394.003 285.476 387.988V387.988Z" stroke="#45413C" stroke-width="7" stroke-linecap="round" stroke-linejoin="round"/>
<path d="M430.575 430.681C423.555 417.19 413.79 405.317 401.906 395.825L430.575 430.681Z" fill="#FFAA54"/>
<path d="M430.575 430.681C423.555 417.19 413.79 405.317 401.906 395.825" stroke="#45413C" stroke-width="7" stroke-linecap="round" stroke-linejoin="round"/>
<path d="M364.68 437.385C366.196 424.109 362.499 410.761 354.367 400.157L364.68 437.385Z" fill="#FFAA54"/>
<path d="M364.68 437.385C366.196 424.109 362.499 410.761 354.367 400.157" stroke="#45413C" stroke-width="7" stroke-linecap="round" stroke-linejoin="round"/>
<path d="M115.116 169.466C115.997 170.322 117.117 170.892 118.327 171.099C119.538 171.307 120.783 171.143 121.899 170.63C123.015 170.117 123.949 169.278 124.579 168.223C125.209 167.169 125.505 165.948 125.429 164.722C126.863 134.751 120.653 104.906 107.382 77.9944C82.735 33.7538 46.3319 10.2413 30.6569 30.1444C17.1475 47.2631 43.135 72.6319 43.135 72.6319C43.135 72.6319 18.5913 69.6412 16.3225 90.2662C14.0538 110.891 56.335 123.782 56.335 123.782C56.335 123.782 37.9788 134.919 47.5694 148.532C60.46 166.785 76.135 153.379 89.6444 155.751C98.9869 158.525 107.658 163.193 115.116 169.466Z" fill="#E5FEFF"/>
<path d="M104.803 106.972C114.799 126.397 120.696 147.668 122.128 169.466C122.957 168.977 123.647 168.284 124.134 167.454C124.621 166.625 124.889 165.684 124.913 164.722C126.347 134.751 120.137 104.906 106.866 77.9944C82.7346 33.7538 46.3315 10.2413 30.6565 30.1444C28.0141 34.0393 26.6016 38.6377 26.6016 43.3444C26.6016 48.051 28.0141 52.6494 30.6565 56.5444C47.9815 41.6944 82.219 65.0006 104.803 106.972Z" fill="white"/>
<path d="M115.116 169.466C115.997 170.322 117.117 170.892 118.327 171.099C119.538 171.307 120.783 171.143 121.899 170.63C123.015 170.117 123.949 169.278 124.579 168.223C125.209 167.169 125.505 165.948 125.429 164.722C126.863 134.751 120.653 104.906 107.382 77.9944C82.735 33.7538 46.3319 10.2413 30.6569 30.1444C17.1475 47.2631 43.135 72.6319 43.135 72.6319C43.135 72.6319 18.5913 69.6412 16.3225 90.2662C14.0538 110.891 56.335 123.782 56.335 123.782C56.335 123.782 37.9788 134.919 47.5694 148.532C60.46 166.785 76.135 153.379 89.6444 155.751C98.9869 158.525 107.658 163.193 115.116 169.466V169.466Z" stroke="#45413C" stroke-width="7" stroke-linecap="round" stroke-linejoin="round"/>
<path d="M43.1328 72.6318C55.1282 74.2375 66.6329 78.4243 76.8547 84.9037L43.1328 72.6318Z" fill="#FFAA54"/>
<path d="M43.1328 72.6318C55.1282 74.2375 66.6329 78.4243 76.8547 84.9037" stroke="#45413C" stroke-width="7" stroke-linecap="round" stroke-linejoin="round"/>
<path d="M56.3359 123.781C65.7444 119.09 76.5892 118.168 86.6547 121.203L56.3359 123.781Z" fill="#FFAA54"/>
<path d="M56.3359 123.781C65.7444 119.09 76.5892 118.168 86.6547 121.203" stroke="#45413C" stroke-width="7" stroke-linecap="round" stroke-linejoin="round"/>
<path d="M119.447 194.732C91.6914 200.387 65.42 211.766 42.3092 228.144L8.9998 251.554C6.96285 253.13 5.58981 255.412 5.15086 257.951C4.7119 260.489 5.23882 263.1 6.62792 265.269L77.5779 365.816C79.1548 367.853 81.4369 369.226 83.9752 369.665C86.5135 370.104 89.1242 369.577 91.2936 368.188L124.603 344.675C147.761 328.381 174.014 317.009 201.74 311.263C229.522 305.59 255.823 294.212 278.981 277.85L312.187 254.441C314.224 252.864 315.597 250.582 316.036 248.044C316.475 245.505 315.948 242.895 314.559 240.725L243.609 140.179C242.032 138.142 239.75 136.769 237.212 136.33C234.674 135.891 232.063 136.418 229.894 137.807L196.687 161.319C173.51 177.647 147.216 189.021 119.447 194.732Z" fill="#6DD627" stroke="#45413C" stroke-width="7" stroke-linecap="round" stroke-linejoin="round"/>
<path d="M40.9666 271.251L83.5572 331.476C85.1341 333.513 87.4162 334.886 89.9545 335.325C92.4928 335.763 95.1035 335.237 97.2729 333.847L114.392 321.782C137.539 305.402 163.845 294.023 191.632 288.369C219.373 282.668 245.635 271.292 268.77 254.957L277.948 248.563C279.968 246.972 281.321 244.683 281.741 242.145C282.161 239.608 281.617 237.005 280.217 234.847L237.729 174.519C236.152 172.482 233.87 171.109 231.332 170.67C228.793 170.231 226.183 170.758 224.013 172.147L206.792 183.904C183.681 200.281 157.409 211.661 129.654 217.316C101.901 223.08 75.6176 234.45 52.4135 250.729L43.3385 257.226C41.2181 258.812 39.7891 261.153 39.3475 263.764C38.906 266.375 39.4857 269.055 40.9666 271.251Z" fill="#E4FFD1" stroke="#45413C" stroke-width="7" stroke-linecap="round" stroke-linejoin="round"/>
<path d="M188.437 242.788C192.046 253.1 182.558 265.785 167.193 271.147C151.827 276.51 136.255 272.694 132.749 262.485C129.243 252.275 138.627 239.488 154.096 234.022C169.565 228.557 185.343 232.578 188.437 242.788Z" fill="#9CEB60" stroke="#45413C" stroke-width="7" stroke-linecap="round" stroke-linejoin="round"/>
<path d="M84.3828 370.147L89.5391 434.704" stroke="#45413C" stroke-width="7" stroke-linecap="round" stroke-linejoin="round"/>
<path d="M319.406 290.122L285.066 319.203C260.889 336.303 233.43 348.207 204.422 354.163V354.163C175.438 360.037 148.003 371.91 123.881 389.019L87.8906 414.697" stroke="#45413C" stroke-width="7" stroke-linecap="round" stroke-linejoin="round"/>
<path d="M318.067 268.466L283.727 297.341C259.581 314.407 232.155 326.276 203.186 332.197V332.197C174.206 338.184 146.76 350.047 122.542 367.053L86.2422 392.938" stroke="#45413C" stroke-width="7" stroke-linecap="round" stroke-linejoin="round"/>
<path d="M87.375 407.788L7.45312 292.185L87.375 407.788Z" fill="#FFAA54"/>
<path d="M87.375 407.788L7.45312 292.185" stroke="#45413C" stroke-width="7" stroke-linecap="round" stroke-linejoin="round"/>
</svg>
