<svg width="496" height="496" viewBox="0 0 496 496" fill="none" xmlns="http://www.w3.org/2000/svg">
<path d="M126.585 10.0005C118.155 10.0321 109.76 11.0728 101.578 13.1005C82.6681 17.4405 57.9715 24.6738 35.5481 20.3338C34.6526 26.1064 34.9518 32.0014 36.4271 37.6537C37.9024 43.306 40.5223 48.5952 44.1248 53.1938C32.3778 69.9685 26.0984 89.9618 26.1448 110.44V162.934H227.335V110.44C227.335 97.2244 224.727 84.1382 219.66 71.932C214.593 59.7258 207.167 48.6396 197.807 39.3088C188.447 29.9781 177.338 22.5862 165.117 17.5569C152.895 12.5275 139.801 9.95969 126.585 10.0005Z" fill="#A86C4D"/>
<path d="M126.585 10.0005C118.156 10.0321 109.761 11.0728 101.579 13.1005C82.6687 17.4405 57.972 24.6738 35.5487 20.3338C34.0356 31.1642 36.495 42.1762 42.472 51.3338C62.4789 51.7028 82.4208 48.9486 101.579 43.1705C109.761 41.1428 118.156 40.1021 126.585 40.0705C139.784 40.0297 152.861 42.5907 165.07 47.6071C177.278 52.6236 188.378 59.997 197.735 69.3058C207.091 78.6147 214.522 89.6765 219.601 101.859C224.68 114.041 227.308 127.105 227.335 140.304V110.44C227.335 97.2244 224.727 84.1382 219.66 71.932C214.593 59.7258 207.167 48.6396 197.808 39.3088C188.448 29.9781 177.339 22.5862 165.117 17.5569C152.896 12.5275 139.801 9.95969 126.585 10.0005Z" fill="#DE926A"/>
<path d="M126.585 10.0005C118.155 10.0321 109.76 11.0728 101.578 13.1005C82.6681 17.4405 57.9715 24.6738 35.5481 20.3338C34.6526 26.1064 34.9518 32.0014 36.4271 37.6537C37.9024 43.306 40.5223 48.5952 44.1248 53.1938C32.3778 69.9685 26.0984 89.9618 26.1448 110.44V162.934H227.335V110.44C227.335 97.2244 224.727 84.1382 219.66 71.932C214.593 59.7258 207.167 48.6396 197.807 39.3088C188.447 29.9781 177.338 22.5862 165.117 17.5569C152.895 12.5275 139.801 9.95969 126.585 10.0005V10.0005Z" stroke="#45413C" stroke-width="7" stroke-linecap="round" stroke-linejoin="round"/>
<path d="M126.585 258.518C142.529 258.518 158.318 261.658 173.049 267.76C187.78 273.862 201.165 282.805 212.439 294.08C223.714 305.354 232.657 318.739 238.759 333.47C244.861 348.201 248.001 363.99 248.001 379.934V485.954H5.16797V379.934C5.16797 363.99 8.3085 348.201 14.4103 333.47C20.512 318.739 29.4555 305.354 40.7301 294.08C63.5001 271.31 94.3829 258.518 126.585 258.518Z" fill="#00B8F0"/>
<path d="M126.585 258.518C94.3829 258.518 63.5001 271.31 40.7301 294.08C17.96 316.85 5.16797 347.733 5.16797 379.934V417.031C5.16797 384.829 17.96 353.946 40.7301 331.176C63.5001 308.406 94.3829 295.614 126.585 295.614C158.786 295.614 189.669 308.406 212.439 331.176C235.209 353.946 248.001 384.829 248.001 417.031V379.934C248.001 363.99 244.861 348.201 238.759 333.47C232.657 318.739 223.714 305.354 212.439 294.08C201.165 282.805 187.78 273.862 173.049 267.76C158.318 261.658 142.529 258.518 126.585 258.518Z" fill="#009FD9"/>
<path d="M126.585 258.518C142.529 258.518 158.318 261.658 173.049 267.76C187.78 273.862 201.165 282.805 212.439 294.08C223.714 305.354 232.657 318.739 238.759 333.47C244.861 348.201 248.001 363.99 248.001 379.934V485.954H5.16797V379.934C5.16797 363.99 8.3085 348.201 14.4103 333.47C20.512 318.739 29.4555 305.354 40.7301 294.08C63.5001 271.31 94.3829 258.518 126.585 258.518V258.518Z" stroke="#45413C" stroke-width="7" stroke-linecap="round" stroke-linejoin="round"/>
<path d="M100.543 217.08H152.52V298.197H100.543V217.08Z" fill="#FFCEBF"/>
<path d="M100.543 217.08H152.52V277.22H100.543V217.08Z" fill="#FFB59E"/>
<path d="M100.543 217.08H152.52V298.197H100.543V217.08Z" stroke="#45413C" stroke-width="7" stroke-linecap="round" stroke-linejoin="round"/>
<path d="M237.668 153.84C236.795 149.411 234.39 145.43 230.876 142.596C227.362 139.762 222.962 138.255 218.448 138.34C214.118 138.34 209.965 136.62 206.903 133.558C203.841 130.497 202.121 126.344 202.121 122.014V96.5938C202.168 92.306 200.78 88.1257 198.177 84.7178C195.574 81.31 191.907 78.8704 187.758 77.7871C168.314 85.5467 147.515 89.3411 126.584 88.9471C105.653 89.3411 84.8546 85.5467 65.411 77.7871C61.3774 78.9853 57.8485 81.474 55.3658 84.8713C52.8832 88.2687 51.584 92.3868 51.6677 96.5938V122.014C51.6677 124.158 51.2454 126.281 50.4249 128.262C49.6044 130.243 48.4018 132.042 46.8857 133.558C45.3696 135.075 43.5698 136.277 41.589 137.098C39.6081 137.918 37.4851 138.34 35.341 138.34C30.8271 138.255 26.4272 139.762 22.9129 142.596C19.3985 145.43 16.994 149.411 16.121 153.84C15.6692 156.498 15.8038 159.223 16.5155 161.823C17.2272 164.424 18.4987 166.837 20.2411 168.894C21.9834 170.952 24.1545 172.603 26.6022 173.733C29.0498 174.864 31.715 175.445 34.411 175.437H35.5477C39.3834 196.929 50.6576 216.386 67.3959 230.402C84.1342 244.417 105.27 252.097 127.101 252.097C148.932 252.097 170.068 244.417 186.806 230.402C203.544 216.386 214.819 196.929 218.654 175.437H219.791C222.452 175.386 225.071 174.76 227.468 173.604C229.865 172.448 231.985 170.788 233.682 168.738C235.379 166.688 236.614 164.296 237.301 161.725C237.989 159.153 238.114 156.464 237.668 153.84Z" fill="#FFCEBF" stroke="#45413C" stroke-width="7" stroke-linecap="round" stroke-linejoin="round"/>
<path d="M70.9922 153.117C71.0194 155.209 71.8696 157.207 73.3589 158.677C74.8481 160.146 76.8564 160.971 78.9489 160.97C81.0317 160.97 83.0292 160.143 84.502 158.67C85.9748 157.197 86.8022 155.2 86.8022 153.117C86.8022 151.034 85.9748 149.037 84.502 147.564C83.0292 146.091 81.0317 145.264 78.9489 145.264C76.8564 145.263 74.8481 146.088 73.3589 147.557C71.8696 149.027 71.0194 151.025 70.9922 153.117Z" fill="#45413C" stroke="#45413C" stroke-width="7" stroke-linecap="round" stroke-linejoin="round"/>
<path d="M182.177 153.117C182.15 155.209 181.3 157.207 179.811 158.677C178.321 160.146 176.313 160.971 174.221 160.97C172.138 160.97 170.14 160.143 168.667 158.67C167.195 157.197 166.367 155.2 166.367 153.117C166.367 151.034 167.195 149.037 168.667 147.564C170.14 146.091 172.138 145.264 174.221 145.264C176.313 145.263 178.321 146.088 179.811 147.557C181.3 149.027 182.15 151.025 182.177 153.117Z" fill="#45413C" stroke="#45413C" stroke-width="7" stroke-linecap="round" stroke-linejoin="round"/>
<path d="M97.5461 201.063C96.8935 201.084 96.2525 201.242 95.665 201.527C95.0775 201.812 94.5565 202.217 94.1361 202.717C93.7098 203.207 93.3964 203.786 93.2178 204.41C93.0393 205.035 93 205.692 93.1027 206.333C94.4909 214.205 98.6078 221.335 104.731 226.472C110.853 231.61 118.59 234.426 126.583 234.426C134.575 234.426 142.312 231.61 148.435 226.472C154.558 221.335 158.675 214.205 160.063 206.333C160.165 205.692 160.126 205.035 159.948 204.41C159.769 203.786 159.456 203.207 159.029 202.717C158.609 202.217 158.088 201.812 157.5 201.527C156.913 201.242 156.272 201.084 155.619 201.063H97.5461Z" fill="#FF6242"/>
<path d="M126.583 234.647C135.454 234.657 143.979 231.21 150.35 225.037C143.972 218.875 135.451 215.431 126.583 215.431C117.715 215.431 109.194 218.875 102.816 225.037C109.187 231.21 117.712 234.657 126.583 234.647Z" fill="#FFA694"/>
<path d="M97.5461 201.063C96.8935 201.084 96.2525 201.242 95.665 201.527C95.0775 201.812 94.5565 202.217 94.1361 202.717C93.7098 203.207 93.3964 203.786 93.2178 204.41C93.0393 205.035 93 205.692 93.1027 206.333C94.4909 214.205 98.6078 221.335 104.731 226.472C110.853 231.61 118.59 234.426 126.583 234.426C134.575 234.426 142.312 231.61 148.435 226.472C154.558 221.335 158.675 214.205 160.063 206.333C160.165 205.692 160.126 205.035 159.948 204.41C159.769 203.786 159.456 203.207 159.029 202.717C158.609 202.217 158.088 201.812 157.5 201.527C156.913 201.242 156.272 201.084 155.619 201.063H97.5461Z" stroke="#45413C" stroke-width="7" stroke-linecap="round" stroke-linejoin="round"/>
<path d="M55.5938 485.954V374.664" stroke="#45413C" stroke-width="7" stroke-linecap="round" stroke-linejoin="round"/>
<path d="M55.5938 186.7C55.5938 188.317 56.6715 189.868 58.59 191.011C60.5085 192.155 63.1106 192.797 65.8237 192.797C68.5369 192.797 71.139 192.155 73.0575 191.011C74.976 189.868 76.0538 188.317 76.0538 186.7C76.0538 185.083 74.976 183.533 73.0575 182.389C71.139 181.246 68.5369 180.604 65.8237 180.604C63.1106 180.604 60.5085 181.246 58.59 182.389C56.6715 183.533 55.5938 185.083 55.5938 186.7Z" fill="#FFB59E"/>
<path d="M177.113 186.7C177.113 188.317 178.191 189.868 180.11 191.011C182.028 192.155 184.63 192.797 187.343 192.797C190.056 192.797 192.658 192.155 194.577 191.011C196.495 189.868 197.573 188.317 197.573 186.7C197.573 185.083 196.495 183.533 194.577 182.389C192.658 181.246 190.056 180.604 187.343 180.604C184.63 180.604 182.028 181.246 180.11 182.389C178.191 183.533 177.113 185.083 177.113 186.7Z" fill="#FFB59E"/>
<path d="M469.858 110.44V162.933H268.668V110.44C268.668 83.8016 279.25 58.2543 298.086 39.4182C316.922 20.582 342.47 10 369.108 10C395.746 10 421.294 20.582 440.13 39.4182C458.966 58.2543 469.548 83.8016 469.548 110.44H469.858Z" fill="#A86C4D"/>
<path d="M369.418 10.0005C356.202 9.95969 343.108 12.5275 330.886 17.5569C318.664 22.5862 307.555 29.9781 298.196 39.3088C288.836 48.6396 281.41 59.7258 276.343 71.932C271.276 84.1382 268.668 97.2244 268.668 110.44V140.304C268.668 113.665 279.25 88.1181 298.086 69.282C316.922 50.4459 342.47 39.8638 369.108 39.8638C395.746 39.8638 421.294 50.4459 440.13 69.282C458.966 88.1181 469.548 113.665 469.548 140.304V110.44C469.548 83.8557 459.009 58.3553 440.239 39.528C421.47 20.7008 396.003 10.0825 369.418 10.0005Z" fill="#DE926A"/>
<path d="M469.858 110.44V162.933H268.668V110.44C268.668 83.8016 279.25 58.2544 298.086 39.4182C316.922 20.582 342.47 10 369.108 10C395.746 10 421.294 20.582 440.13 39.4182C458.966 58.2544 469.548 83.8016 469.548 110.44H469.858Z" stroke="#45413C" stroke-width="7" stroke-linecap="round" stroke-linejoin="round"/>
<path d="M490.836 485.954L248.003 485.954V379.934C248.003 363.989 251.143 348.201 257.245 333.47C263.347 318.739 272.29 305.354 283.565 294.08C294.839 282.805 308.224 273.862 322.955 267.76C337.686 261.658 353.475 258.517 369.419 258.517C401.621 258.517 432.504 271.309 455.274 294.08C478.044 316.85 490.836 347.732 490.836 379.934V485.954Z" fill="#00DFEB"/>
<path d="M369.417 258.518C385.361 258.518 401.15 261.658 415.881 267.76C430.612 273.862 443.997 282.805 455.271 294.08C466.546 305.354 475.489 318.739 481.591 333.47C487.693 348.201 490.833 363.99 490.833 379.934V417.031C490.833 384.829 478.041 353.946 455.271 331.176C432.501 308.406 401.618 295.614 369.417 295.614C337.215 295.614 306.332 308.406 283.562 331.176C260.792 353.946 248 384.829 248 417.031V379.934C248 363.99 251.141 348.201 257.242 333.47C263.344 318.739 272.288 305.354 283.562 294.08C306.332 271.31 337.215 258.518 369.417 258.518Z" fill="#00C9D4"/>
<path d="M490.836 485.954L248.003 485.954V379.934C248.003 363.989 251.143 348.201 257.245 333.47C263.347 318.739 272.29 305.354 283.565 294.08C294.839 282.805 308.224 273.862 322.955 267.76C337.686 261.658 353.475 258.517 369.419 258.517V258.517C401.621 258.517 432.504 271.31 455.274 294.08C478.044 316.85 490.836 347.732 490.836 379.934V485.954Z" stroke="#45413C" stroke-width="7" stroke-linecap="round" stroke-linejoin="round"/>
<path d="M395.457 298.301H343.48V217.184H395.457V298.301Z" fill="#FFCEBF"/>
<path d="M395.457 277.221H343.48V217.081H395.457V277.221Z" fill="#FFB59E"/>
<path d="M395.457 298.301H343.48V217.184H395.457V298.301Z" stroke="#45413C" stroke-width="7" stroke-linecap="round" stroke-linejoin="round"/>
<path d="M258.333 153.84C259.206 149.411 261.61 145.43 265.125 142.596C268.639 139.762 273.039 138.255 277.553 138.34C281.883 138.34 286.036 136.62 289.097 133.558C292.159 130.497 293.879 126.344 293.879 122.014V96.5938C293.833 92.306 295.221 88.1257 297.824 84.7178C300.426 81.31 304.094 78.8704 308.243 77.7871C327.686 85.5467 348.485 89.3411 369.416 88.9471C390.347 89.3411 411.146 85.5467 430.589 77.7871C434.668 78.8764 438.274 81.278 440.851 84.6211C443.428 87.9641 444.834 92.0626 444.849 96.2838V121.704C444.849 126.034 446.57 130.187 449.631 133.248C452.693 136.31 456.846 138.03 461.176 138.03C465.69 137.945 470.09 139.452 473.604 142.286C477.119 145.12 479.523 149.101 480.396 153.53C480.848 156.188 480.713 158.913 480.002 161.513C479.29 164.114 478.018 166.527 476.276 168.584C474.534 170.642 472.363 172.293 469.915 173.424C467.467 174.554 464.802 175.135 462.106 175.127H460.969C457.134 196.619 445.86 216.076 429.121 230.092C412.383 244.107 391.247 251.787 369.416 251.787C347.585 251.787 326.449 244.107 309.711 230.092C292.973 216.076 281.698 196.619 277.863 175.127H276.726C274.052 175.143 271.406 174.578 268.972 173.473C266.537 172.368 264.37 170.747 262.622 168.724C260.874 166.701 259.585 164.322 258.844 161.753C258.104 159.183 257.929 156.484 258.333 153.84Z" fill="#FFCEBF" stroke="#45413C" stroke-width="7" stroke-linecap="round" stroke-linejoin="round"/>
<path d="M425.013 153.117C424.986 155.209 424.136 157.207 422.646 158.677C421.157 160.146 419.149 160.971 417.056 160.97C414.974 160.97 412.976 160.143 411.503 158.67C410.031 157.197 409.203 155.2 409.203 153.117C409.203 151.034 410.031 149.037 411.503 147.564C412.976 146.091 414.974 145.264 417.056 145.264C419.149 145.263 421.157 146.088 422.646 147.557C424.136 149.027 424.986 151.025 425.013 153.117Z" fill="#45413C" stroke="#45413C" stroke-width="7" stroke-linecap="round" stroke-linejoin="round"/>
<path d="M313.824 153.117C313.851 155.209 314.702 157.207 316.191 158.677C317.68 160.146 319.688 160.971 321.781 160.97C323.864 160.97 325.861 160.143 327.334 158.67C328.807 157.197 329.634 155.2 329.634 153.117C329.634 151.034 328.807 149.037 327.334 147.564C325.861 146.091 323.864 145.264 321.781 145.264C319.688 145.263 317.68 146.088 316.191 147.557C314.702 149.027 313.851 151.025 313.824 153.117Z" fill="#45413C" stroke="#45413C" stroke-width="7" stroke-linecap="round" stroke-linejoin="round"/>
<path d="M398.455 201.063C399.108 201.084 399.749 201.242 400.336 201.527C400.924 201.812 401.445 202.217 401.865 202.717C402.292 203.207 402.605 203.786 402.784 204.41C402.962 205.035 403.001 205.692 402.899 206.333C401.511 214.205 397.394 221.335 391.271 226.472C385.148 231.61 377.411 234.426 369.419 234.426C361.426 234.426 353.689 231.61 347.566 226.472C341.444 221.335 337.327 214.205 335.939 206.333C335.836 205.692 335.875 205.035 336.054 204.41C336.232 203.786 336.546 203.207 336.972 202.717C337.392 202.217 337.913 201.812 338.501 201.527C339.088 201.242 339.729 201.084 340.382 201.063H398.455Z" fill="#FF6242"/>
<path d="M369.419 234.647C360.548 234.657 352.023 231.21 345.652 225.037C352.03 218.875 360.551 215.431 369.419 215.431C378.287 215.431 386.808 218.875 393.186 225.037C386.815 231.21 378.29 234.657 369.419 234.647Z" fill="#FFA694"/>
<path d="M398.455 201.063C399.108 201.084 399.749 201.242 400.336 201.527C400.924 201.812 401.445 202.217 401.865 202.717C402.292 203.207 402.605 203.786 402.784 204.41C402.962 205.035 403.001 205.692 402.899 206.333C401.511 214.205 397.394 221.335 391.271 226.472C385.148 231.61 377.411 234.426 369.419 234.426C361.426 234.426 353.689 231.61 347.566 226.472C341.444 221.335 337.327 214.205 335.939 206.333C335.836 205.692 335.875 205.035 336.054 204.41C336.232 203.786 336.546 203.207 336.972 202.717C337.392 202.217 337.913 201.812 338.501 201.527C339.088 201.242 339.729 201.084 340.382 201.063H398.455Z" stroke="#45413C" stroke-width="7" stroke-linecap="round" stroke-linejoin="round"/>
<path d="M440.406 485.954V374.664" stroke="#45413C" stroke-width="7" stroke-linecap="round" stroke-linejoin="round"/>
<path d="M419.949 186.7C419.949 188.317 421.027 189.868 422.946 191.011C424.864 192.155 427.466 192.797 430.179 192.797C432.892 192.797 435.494 192.155 437.413 191.011C439.331 189.868 440.409 188.317 440.409 186.7C440.409 185.083 439.331 183.533 437.413 182.389C435.494 181.246 432.892 180.604 430.179 180.604C427.466 180.604 424.864 181.246 422.946 182.389C421.027 183.533 419.949 185.083 419.949 186.7Z" fill="#FFB59E"/>
<path d="M298.43 186.7C298.43 188.317 299.507 189.868 301.426 191.011C303.344 192.155 305.947 192.797 308.66 192.797C311.373 192.797 313.975 192.155 315.893 191.011C317.812 189.868 318.89 188.317 318.89 186.7C318.89 185.083 317.812 183.533 315.893 182.389C313.975 181.246 311.373 180.604 308.66 180.604C305.947 180.604 303.344 181.246 301.426 182.389C299.507 183.533 298.43 185.083 298.43 186.7Z" fill="#FFB59E"/>
<path d="M248.003 485.954C241.007 467.47 228.549 451.553 212.288 440.321C196.026 429.088 176.73 423.072 156.966 423.072C137.202 423.072 117.907 429.088 101.645 440.321C85.3835 451.553 72.9262 467.47 65.9297 485.954H248.003Z" fill="#00F5BC"/>
<path d="M156.966 451.544C171.096 451.512 185.061 454.576 197.879 460.521C210.697 466.466 222.057 475.147 231.16 485.954H248.003C241.007 467.47 228.549 451.553 212.288 440.321C196.026 429.088 176.73 423.072 156.966 423.072C137.202 423.072 117.907 429.088 101.645 440.321C85.3835 451.553 72.9262 467.47 65.9297 485.954H82.6697C91.802 475.155 103.182 466.481 116.015 460.538C128.848 454.594 142.824 451.525 156.966 451.544Z" fill="#00DBA8"/>
<path d="M248.003 485.954C241.007 467.47 228.549 451.553 212.288 440.321C196.026 429.088 176.73 423.072 156.966 423.072C137.202 423.072 117.907 429.088 101.645 440.321C85.3835 451.553 72.9262 467.47 65.9297 485.954H248.003Z" stroke="#45413C" stroke-width="7" stroke-linecap="round" stroke-linejoin="round"/>
<path d="M137.746 390.061H176.186V456.194H137.746V390.061Z" fill="#FFCEBF"/>
<path d="M137.746 390.061H176.186V438.007H137.746V390.061Z" fill="#FFB59E"/>
<path d="M137.746 390.061H176.186V456.194H137.746V390.061Z" stroke="#45413C" stroke-width="7" stroke-linecap="round" stroke-linejoin="round"/>
<path d="M156.965 240.744C150.656 240.744 144.371 241.543 138.262 243.121C122.358 248.195 105.596 250.023 88.972 248.494C88.3179 252.79 88.5391 257.174 89.6223 261.383C90.7055 265.591 92.6284 269.538 95.2753 272.984C86.6495 285.472 82.0026 300.277 81.9453 315.454V354.721H231.985V315.454C231.903 295.611 223.963 276.609 209.903 262.607C195.843 248.605 176.808 240.744 156.965 240.744Z" fill="#A86C4D"/>
<path d="M156.966 240.744C150.657 240.744 144.372 241.543 138.263 243.121C122.359 248.195 105.597 250.023 88.973 248.494C88.3272 252.751 88.5432 257.094 89.6083 261.265C90.6733 265.437 92.5657 269.352 95.173 272.777C109.757 272.862 124.275 270.808 138.263 266.681C149.321 263.834 160.882 263.549 172.067 265.847C183.251 268.145 193.763 272.966 202.802 279.942C211.842 286.918 219.169 295.866 224.227 306.103C229.284 316.34 231.938 327.596 231.986 339.014V315.454C231.904 295.611 223.964 276.609 209.904 262.607C195.844 248.605 176.809 240.744 156.966 240.744Z" fill="#DE926A"/>
<path d="M156.965 240.744C150.656 240.744 144.371 241.543 138.262 243.121C122.358 248.195 105.596 250.023 88.972 248.494C88.3179 252.79 88.5391 257.174 89.6223 261.383C90.7055 265.591 92.6284 269.538 95.2753 272.984C86.6495 285.472 82.0026 300.277 81.9453 315.454V354.721H231.985V315.454C231.903 295.611 223.963 276.609 209.903 262.607C195.843 248.605 176.808 240.744 156.965 240.744V240.744Z" stroke="#45413C" stroke-width="7" stroke-linecap="round" stroke-linejoin="round"/>
<path d="M84.5282 337.463C81.8437 338.204 79.4347 339.713 77.5984 341.807C75.7621 343.9 74.5789 346.485 74.1948 349.243C74.0381 351.16 74.2794 353.088 74.9034 354.907C75.5274 356.726 76.5207 358.396 77.821 359.813C79.1212 361.23 80.7004 362.362 82.4592 363.14C84.218 363.917 86.1186 364.322 88.0415 364.33H88.8682C91.2642 380.763 99.4953 395.783 112.056 406.646C124.617 417.508 140.669 423.486 157.275 423.486C173.881 423.486 189.932 417.508 202.493 406.646C215.054 395.783 223.286 380.763 225.682 364.33H226.508C229.983 364.57 233.416 363.462 236.095 361.236C238.773 359.01 240.49 355.837 240.89 352.377C241.289 348.917 240.339 345.437 238.238 342.659C236.137 339.882 233.046 338.021 229.608 337.463C198.608 331.367 181.662 298.61 181.248 297.887C180.422 298.817 155.002 338.393 84.5282 337.463Z" fill="#FFCEBF" stroke="#45413C" stroke-width="7" stroke-linecap="round" stroke-linejoin="round"/>
<path d="M120.59 353.274C120.59 354.644 121.134 355.959 122.103 356.927C123.072 357.896 124.386 358.441 125.757 358.441C127.127 358.441 128.441 357.896 129.41 356.927C130.379 355.959 130.923 354.644 130.923 353.274C130.923 351.904 130.379 350.59 129.41 349.621C128.441 348.652 127.127 348.107 125.757 348.107C124.386 348.107 123.072 348.652 122.103 349.621C121.134 350.59 120.59 351.904 120.59 353.274Z" fill="#45413C" stroke="#45413C" stroke-width="7" stroke-linecap="round" stroke-linejoin="round"/>
<path d="M193.337 353.274C193.311 354.636 192.758 355.935 191.795 356.898C190.831 357.861 189.533 358.414 188.171 358.441C186.8 358.441 185.486 357.896 184.517 356.927C183.548 355.959 183.004 354.644 183.004 353.274C183.004 351.904 183.548 350.59 184.517 349.621C185.486 348.652 186.8 348.107 188.171 348.107C189.541 348.107 190.855 348.652 191.824 349.621C192.793 350.59 193.337 351.904 193.337 353.274Z" fill="#45413C" stroke="#45413C" stroke-width="7" stroke-linecap="round" stroke-linejoin="round"/>
<path d="M105.297 375.18C105.297 376.249 106.005 377.274 107.264 378.03C108.524 378.786 110.232 379.21 112.014 379.21C113.795 379.21 115.503 378.786 116.763 378.03C118.023 377.274 118.73 376.249 118.73 375.18C118.73 374.112 118.023 373.087 116.763 372.331C115.503 371.575 113.795 371.15 112.014 371.15C110.232 371.15 108.524 371.575 107.264 372.331C106.005 373.087 105.297 374.112 105.297 375.18Z" fill="#FFB59E"/>
<path d="M195.094 375.18C195.094 376.249 195.801 377.274 197.061 378.03C198.321 378.786 200.029 379.21 201.81 379.21C203.592 379.21 205.3 378.786 206.56 378.03C207.819 377.274 208.527 376.249 208.527 375.18C208.527 374.112 207.819 373.087 206.56 372.331C205.3 371.575 203.592 371.15 201.81 371.15C200.029 371.15 198.321 371.575 197.061 372.331C195.801 373.087 195.094 374.112 195.094 375.18Z" fill="#FFB59E"/>
<path d="M139.5 394.297C144.363 398.377 150.635 400.381 156.963 399.877C163.291 400.381 169.564 398.377 174.427 394.297" stroke="#45413C" stroke-width="7" stroke-linecap="round" stroke-linejoin="round"/>
<path d="M339.04 240.744C319.197 240.744 300.162 248.605 286.102 262.607C272.042 276.609 264.102 295.611 264.02 315.454V354.617H414.06V315.454C413.978 295.611 406.038 276.609 391.977 262.607C377.917 248.605 358.883 240.744 339.04 240.744Z" fill="#A86C4D"/>
<path d="M339.04 240.744C319.197 240.744 300.162 248.605 286.102 262.607C272.042 276.609 264.102 295.611 264.02 315.454V339.221C264.02 319.324 271.923 300.243 285.992 286.174C300.061 272.105 319.143 264.201 339.04 264.201C358.936 264.201 378.018 272.105 392.087 286.174C406.156 300.243 414.06 319.324 414.06 339.221V315.454C413.978 295.611 406.038 276.609 391.977 262.607C377.917 248.605 358.883 240.744 339.04 240.744Z" fill="#DE926A"/>
<path d="M430.073 485.954C423.077 467.47 410.62 451.553 394.358 440.321C378.096 429.088 358.801 423.072 339.037 423.072C319.273 423.072 299.977 429.088 283.715 440.321C267.454 451.553 254.996 467.47 248 485.954H430.073Z" fill="#FFAA54"/>
<path d="M339.037 451.544C353.179 451.525 367.155 454.594 379.988 460.538C392.821 466.481 404.201 475.155 413.333 485.954H430.073C423.077 467.47 410.62 451.553 394.358 440.321C378.096 429.088 358.801 423.072 339.037 423.072C319.273 423.072 299.977 429.088 283.715 440.321C267.454 451.553 254.996 467.47 248 485.954H264.843C273.946 475.147 285.306 466.466 298.124 460.521C310.942 454.576 324.907 451.512 339.037 451.544Z" fill="#FF8A14"/>
<path d="M430.073 485.954C423.077 467.47 410.62 451.553 394.358 440.321C378.096 429.088 358.801 423.072 339.037 423.072C319.273 423.072 299.977 429.088 283.715 440.321C267.454 451.553 254.996 467.47 248 485.954H430.073Z" stroke="#45413C" stroke-width="7" stroke-linecap="round" stroke-linejoin="round"/>
<path d="M319.816 390.061H358.256V456.194H319.816V390.061Z" fill="#FFCEBF"/>
<path d="M319.816 390.061H358.256V438.007H319.816V390.061Z" fill="#FFB59E"/>
<path d="M319.816 390.061H358.256V456.194H319.816V390.061Z" stroke="#45413C" stroke-width="7" stroke-linecap="round" stroke-linejoin="round"/>
<path d="M339.04 240.744C319.197 240.744 300.162 248.605 286.102 262.607C272.042 276.609 264.102 295.611 264.02 315.454V354.617H414.06V315.454C413.978 295.611 406.037 276.609 391.977 262.607C377.917 248.605 358.883 240.744 339.04 240.744V240.744Z" stroke="#45413C" stroke-width="7" stroke-linecap="round" stroke-linejoin="round"/>
<path d="M266.703 337.463C263.265 338.021 260.174 339.882 258.073 342.659C255.972 345.437 255.022 348.917 255.421 352.377C255.821 355.837 257.538 359.01 260.216 361.236C262.895 363.462 266.328 364.57 269.803 364.33H270.629C273.025 380.763 281.257 395.783 293.818 406.646C306.379 417.508 322.43 423.486 339.036 423.486C355.642 423.486 371.694 417.508 384.255 406.646C396.816 395.783 405.047 380.763 407.443 364.33H408.269C410.192 364.322 412.093 363.917 413.852 363.14C415.611 362.362 417.19 361.23 418.49 359.813C419.79 358.396 420.784 356.726 421.408 354.907C422.032 353.088 422.273 351.16 422.116 349.243C421.732 346.485 420.549 343.9 418.713 341.807C416.876 339.713 414.467 338.204 411.783 337.463C380.783 331.367 363.733 298.61 363.319 297.887C362.596 298.817 337.383 338.393 266.703 337.463Z" fill="#FFCEBF" stroke="#45413C" stroke-width="7" stroke-linecap="round" stroke-linejoin="round"/>
<path d="M302.664 353.274C302.691 354.636 303.243 355.935 304.207 356.898C305.17 357.861 306.469 358.414 307.831 358.441C309.201 358.441 310.515 357.896 311.484 356.927C312.453 355.959 312.997 354.644 312.997 353.274C312.997 351.904 312.453 350.59 311.484 349.621C310.515 348.652 309.201 348.107 307.831 348.107C306.46 348.107 305.146 348.652 304.177 349.621C303.208 350.59 302.664 351.904 302.664 353.274Z" fill="#45413C" stroke="#45413C" stroke-width="7" stroke-linecap="round" stroke-linejoin="round"/>
<path d="M375.411 353.274C375.411 354.644 374.867 355.959 373.898 356.927C372.929 357.896 371.615 358.441 370.245 358.441C368.875 358.441 367.56 357.896 366.591 356.927C365.622 355.959 365.078 354.644 365.078 353.274C365.078 351.904 365.622 350.59 366.591 349.621C367.56 348.652 368.875 348.107 370.245 348.107C371.615 348.107 372.929 348.652 373.898 349.621C374.867 350.59 375.411 351.904 375.411 353.274Z" fill="#45413C" stroke="#45413C" stroke-width="7" stroke-linecap="round" stroke-linejoin="round"/>
<path d="M287.477 375.18C287.477 376.249 288.184 377.274 289.444 378.03C290.703 378.786 292.412 379.21 294.193 379.21C295.975 379.21 297.683 378.786 298.943 378.03C300.202 377.274 300.91 376.249 300.91 375.18C300.91 374.112 300.202 373.087 298.943 372.331C297.683 371.575 295.975 371.15 294.193 371.15C292.412 371.15 290.703 371.575 289.444 372.331C288.184 373.087 287.477 374.112 287.477 375.18Z" fill="#FFB59E"/>
<path d="M377.27 375.18C377.27 376.249 377.977 377.274 379.237 378.03C380.496 378.786 382.205 379.21 383.986 379.21C385.768 379.21 387.476 378.786 388.736 378.03C389.995 377.274 390.703 376.249 390.703 375.18C390.703 374.112 389.995 373.087 388.736 372.331C387.476 371.575 385.768 371.15 383.986 371.15C382.205 371.15 380.496 371.575 379.237 372.331C377.977 373.087 377.27 374.112 377.27 375.18Z" fill="#FFB59E"/>
<path d="M321.574 394.297C326.437 398.377 332.71 400.381 339.038 399.877C345.365 400.381 351.638 398.377 356.501 394.297" stroke="#45413C" stroke-width="7" stroke-linecap="round" stroke-linejoin="round"/>
</svg>
