<svg width="506" height="506" viewBox="0 0 506 506" fill="none" xmlns="http://www.w3.org/2000/svg">
<path d="M345.195 334.449L253.061 304.511L160.927 334.765C146.253 338.884 133.255 347.533 123.789 359.479C114.323 371.425 108.874 386.056 108.219 401.283V462.636H398.325V400.967C397.643 385.685 392.132 371.014 382.586 359.062C373.039 347.109 359.948 338.492 345.195 334.449Z" fill="white"/>
<path d="M345.195 334.449L253.061 304.511L160.927 334.765C146.253 338.884 133.255 347.533 123.789 359.479C114.323 371.425 108.874 386.056 108.219 401.283V432.908C108.874 417.681 114.323 403.05 123.789 391.104C133.255 379.158 146.253 370.509 160.927 366.39L253.061 336.136L345.195 366.39C359.87 370.509 372.868 379.158 382.334 391.104C391.799 403.05 397.249 417.681 397.904 432.908V401.283C397.314 386.001 391.895 371.299 382.424 359.29C372.953 347.281 359.92 338.584 345.195 334.449Z" fill="#E0E0E0"/>
<path d="M345.195 334.449L253.061 304.511L160.927 334.765C146.253 338.884 133.255 347.533 123.789 359.479C114.323 371.425 108.874 386.056 108.219 401.283V462.636H398.325V400.967C397.643 385.685 392.132 371.014 382.586 359.062C373.039 347.109 359.948 338.492 345.195 334.449V334.449Z" stroke="#45413C" stroke-width="7" stroke-linecap="round" stroke-linejoin="round"/>
<path d="M157.137 326.014C157.137 331.772 159.618 337.475 164.439 342.795C169.26 348.116 176.326 352.95 185.234 357.022C194.142 361.095 204.717 364.325 216.355 366.529C227.994 368.733 240.468 369.867 253.066 369.867C265.663 369.867 278.138 368.733 289.776 366.529C301.415 364.325 311.99 361.095 320.898 357.022C329.806 352.95 336.872 348.116 341.693 342.795C346.514 337.475 348.995 331.772 348.995 326.014C348.995 320.255 346.514 314.552 341.693 309.232C336.872 303.911 329.806 299.077 320.898 295.005C311.99 290.932 301.415 287.702 289.776 285.498C278.138 283.294 265.663 282.16 253.066 282.16C240.468 282.16 227.994 283.294 216.355 285.498C204.717 287.702 194.142 290.932 185.234 295.005C176.326 299.077 169.26 303.911 164.439 309.232C159.618 314.552 157.137 320.255 157.137 326.014Z" fill="white"/>
<path d="M253.133 282.16C205.906 282.16 166.691 297.762 158.785 318.318C166.691 338.874 205.906 354.476 253.66 354.476C301.414 354.476 340.102 338.874 348.535 318.318C339.575 297.762 300.36 282.16 253.133 282.16Z" fill="#E0E0E0"/>
<path d="M157.137 326.014C157.137 331.772 159.618 337.475 164.439 342.795C169.26 348.116 176.326 352.95 185.234 357.022C194.142 361.095 204.717 364.325 216.355 366.529C227.994 368.733 240.468 369.867 253.066 369.867C265.664 369.867 278.138 368.733 289.776 366.529C301.415 364.325 311.99 361.095 320.898 357.022C329.806 352.95 336.872 348.116 341.693 342.795C346.514 337.475 348.995 331.772 348.995 326.014C348.995 320.255 346.514 314.552 341.693 309.232C336.872 303.911 329.806 299.077 320.898 295.005C311.99 290.932 301.415 287.702 289.776 285.498C278.138 283.294 265.664 282.16 253.066 282.16C240.468 282.16 227.994 283.294 216.355 285.498C204.717 287.702 194.142 290.932 185.234 295.005C176.326 299.077 169.26 303.911 164.439 309.232C159.618 314.552 157.137 320.255 157.137 326.014V326.014Z" stroke="#45413C" stroke-width="7" stroke-linecap="round" stroke-linejoin="round"/>
<path d="M339.641 462.633V344.988" stroke="#45413C" stroke-width="7" stroke-linecap="round" stroke-linejoin="round"/>
<path d="M166.527 462.633V344.988" stroke="#45413C" stroke-width="7" stroke-linecap="round" stroke-linejoin="round"/>
<path d="M405.809 159.457H396.427C389.288 126.743 371.177 97.4545 345.098 76.4529C319.02 55.4513 286.543 44 253.06 44C219.576 44 187.1 55.4513 161.021 76.4529C134.943 97.4545 116.832 126.743 109.693 159.457H100.311C97.5154 159.457 94.8341 160.568 92.8571 162.545C90.8802 164.522 89.7695 167.203 89.7695 169.999V211.322C89.7695 214.118 90.8802 216.799 92.8571 218.776C94.8341 220.753 97.5154 221.864 100.311 221.864H109.693C116.832 254.577 134.943 283.866 161.021 304.868C187.1 325.869 219.576 337.321 253.06 337.321C286.543 337.321 319.02 325.869 345.098 304.868C371.177 283.866 389.288 254.577 396.427 221.864H405.809C408.605 221.864 411.286 220.753 413.263 218.776C415.24 216.799 416.35 214.118 416.35 211.322V169.999C416.35 167.203 415.24 164.522 413.263 162.545C411.286 160.568 408.605 159.457 405.809 159.457Z" fill="#E0E0E0"/>
<path d="M405.809 159.457H396.427C389.288 126.743 371.177 97.4545 345.098 76.4529C319.02 55.4513 286.543 44 253.06 44C219.576 44 187.1 55.4513 161.021 76.4529C134.943 97.4545 116.832 126.743 109.693 159.457H100.311C97.5154 159.457 94.8341 160.568 92.8571 162.545C90.8802 164.522 89.7695 167.203 89.7695 169.999V194.455C89.7695 191.659 90.8802 188.978 92.8571 187.001C94.8341 185.024 97.5154 183.914 100.311 183.914C102.893 183.916 105.404 183.072 107.461 181.51C109.517 179.949 111.005 177.757 111.696 175.269C120.358 144.473 138.848 117.352 164.348 98.0344C189.849 78.7171 220.963 68.2625 252.955 68.2625C284.946 68.2625 316.06 78.7171 341.561 98.0344C367.061 117.352 385.551 144.473 394.213 175.269C394.904 177.757 396.392 179.949 398.448 181.51C400.505 183.072 403.016 183.916 405.598 183.914C408.394 183.914 411.075 185.024 413.052 187.001C415.029 188.978 416.14 191.659 416.14 194.455V169.999C416.14 167.239 415.058 164.589 413.127 162.618C411.195 160.647 408.568 159.512 405.809 159.457Z" fill="white"/>
<path d="M405.809 159.457H396.427C389.288 126.743 371.177 97.4545 345.098 76.4529C319.02 55.4513 286.543 44 253.06 44C219.576 44 187.1 55.4513 161.021 76.4529C134.943 97.4545 116.832 126.743 109.693 159.457H100.311C97.5154 159.457 94.8341 160.568 92.8571 162.545C90.8802 164.522 89.7695 167.203 89.7695 169.999V211.322C89.7695 214.118 90.8802 216.799 92.8571 218.776C94.8341 220.753 97.5154 221.864 100.311 221.864H109.693C116.832 254.577 134.943 283.866 161.021 304.868C187.1 325.869 219.576 337.321 253.06 337.321C286.543 337.321 319.02 325.869 345.098 304.868C371.177 283.866 389.288 254.577 396.427 221.864H405.809C408.605 221.864 411.286 220.753 413.263 218.776C415.24 216.799 416.35 214.118 416.35 211.322V169.999C416.35 167.203 415.24 164.522 413.263 162.545C411.286 160.568 408.605 159.457 405.809 159.457Z" stroke="#45413C" stroke-width="7" stroke-linecap="round" stroke-linejoin="round"/>
<path d="M130.781 190.661C130.781 206.72 133.944 222.621 140.09 237.457C146.235 252.293 155.242 265.774 166.597 277.129C177.952 288.484 191.433 297.491 206.269 303.636C221.105 309.782 237.006 312.945 253.065 312.945C269.123 312.945 285.024 309.782 299.86 303.636C314.696 297.491 328.177 288.484 339.532 277.129C350.887 265.774 359.894 252.293 366.04 237.457C372.185 222.621 375.348 206.72 375.348 190.661C375.348 174.603 372.185 158.702 366.04 143.865C359.894 129.029 350.887 115.549 339.532 104.194C328.177 92.8388 314.696 83.8315 299.86 77.6862C285.024 71.5409 269.123 68.3779 253.065 68.3779C237.006 68.3779 221.105 71.5409 206.269 77.6862C191.433 83.8315 177.952 92.8388 166.597 104.194C155.242 115.549 146.235 129.029 140.09 143.865C133.944 158.702 130.781 174.603 130.781 190.661Z" fill="#656769" stroke="#45413C" stroke-width="7" stroke-linecap="round" stroke-linejoin="round"/>
<path d="M275.508 143.646H230.6C211.029 143.646 192.26 151.421 178.422 165.26C164.583 179.098 156.809 197.867 156.809 217.438C156.902 222.175 157.36 226.898 158.179 231.564C161.419 254.419 172.801 275.336 190.232 290.47C207.662 305.604 229.97 313.937 253.054 313.937C276.138 313.937 298.446 305.604 315.876 290.47C333.307 275.336 344.689 254.419 347.929 231.564C348.694 226.788 349.082 221.959 349.089 217.122C349.005 197.642 341.223 178.986 327.439 165.222C313.655 151.458 294.987 143.702 275.508 143.646Z" fill="#FFE500" stroke="#45413C" stroke-width="7" stroke-linecap="round" stroke-linejoin="round"/>
<path d="M195.844 208.688C195.844 210.294 196.321 211.863 197.212 213.198C198.104 214.533 199.372 215.573 200.855 216.187C202.338 216.802 203.971 216.962 205.545 216.649C207.12 216.336 208.566 215.563 209.701 214.428C210.836 213.293 211.609 211.846 211.923 210.272C212.236 208.697 212.075 207.065 211.461 205.582C210.846 204.099 209.806 202.831 208.471 201.939C207.136 201.047 205.567 200.571 203.962 200.571C202.892 200.557 201.83 200.757 200.839 201.16C199.847 201.563 198.947 202.16 198.19 202.917C197.434 203.673 196.836 204.574 196.433 205.565C196.031 206.556 195.83 207.618 195.844 208.688Z" fill="#45413C" stroke="#45413C" stroke-width="7" stroke-linecap="round" stroke-linejoin="round"/>
<path d="M310.25 208.688C310.25 210.294 309.774 211.863 308.882 213.198C307.99 214.533 306.722 215.573 305.239 216.187C303.756 216.802 302.124 216.962 300.549 216.649C298.975 216.336 297.528 215.563 296.393 214.428C295.258 213.293 294.485 211.846 294.172 210.272C293.858 208.697 294.019 207.065 294.634 205.582C295.248 204.099 296.288 202.831 297.623 201.939C298.958 201.047 300.527 200.571 302.133 200.571C303.203 200.557 304.264 200.757 305.256 201.16C306.247 201.563 307.147 202.16 307.904 202.917C308.661 203.673 309.258 204.574 309.661 205.565C310.064 206.556 310.264 207.618 310.25 208.688Z" fill="#45413C" stroke="#45413C" stroke-width="7" stroke-linecap="round" stroke-linejoin="round"/>
<path d="M223.178 258.128C222.511 258.142 221.855 258.3 221.255 258.592C220.654 258.883 220.124 259.3 219.7 259.815C219.252 260.307 218.923 260.896 218.741 261.536C218.558 262.176 218.525 262.85 218.645 263.504C220.069 271.613 224.305 278.96 230.61 284.255C236.915 289.549 244.884 292.451 253.117 292.451C261.349 292.451 269.319 289.549 275.623 284.255C281.928 278.96 286.164 271.613 287.588 263.504C287.708 262.85 287.676 262.176 287.493 261.536C287.31 260.896 286.982 260.307 286.534 259.815C286.109 259.3 285.579 258.883 284.978 258.592C284.378 258.3 283.722 258.142 283.055 258.128H223.178Z" fill="#FF6242"/>
<path d="M253.045 272.887C243.528 272.514 234.165 275.375 226.48 281.004C229.802 284.703 233.866 287.662 238.406 289.687C242.947 291.712 247.863 292.759 252.835 292.759C257.806 292.759 262.723 291.712 267.263 289.687C271.804 287.662 275.867 284.703 279.189 281.004C271.62 275.466 262.42 272.61 253.045 272.887Z" fill="#FFA694"/>
<path d="M223.178 258.128C222.511 258.142 221.855 258.3 221.255 258.592C220.654 258.883 220.124 259.3 219.7 259.815C219.252 260.307 218.923 260.896 218.741 261.536C218.558 262.176 218.525 262.85 218.645 263.504C220.069 271.613 224.305 278.96 230.61 284.255C236.915 289.549 244.884 292.451 253.117 292.451C261.349 292.451 269.319 289.549 275.623 284.255C281.928 278.96 286.164 271.613 287.588 263.504C287.708 262.85 287.676 262.176 287.493 261.536C287.31 260.896 286.982 260.307 286.534 259.815C286.109 259.3 285.579 258.883 284.978 258.592C284.378 258.3 283.722 258.142 283.055 258.128H223.178Z" stroke="#45413C" stroke-width="7" stroke-linecap="round" stroke-linejoin="round"/>
<path d="M179.867 243.262C179.867 244.939 180.978 246.548 182.955 247.734C184.932 248.92 187.613 249.587 190.409 249.587C193.205 249.587 195.886 248.92 197.863 247.734C199.84 246.548 200.951 244.939 200.951 243.262C200.951 241.584 199.84 239.975 197.863 238.789C195.886 237.603 193.205 236.937 190.409 236.937C187.613 236.937 184.932 237.603 182.955 238.789C180.978 239.975 179.867 241.584 179.867 243.262Z" fill="#FFAA54"/>
<path d="M305.215 243.262C305.215 244.939 306.325 246.548 308.302 247.734C310.279 248.92 312.961 249.587 315.757 249.587C318.552 249.587 321.234 248.92 323.211 247.734C325.188 246.548 326.298 244.939 326.298 243.262C326.298 241.584 325.188 239.975 323.211 238.789C321.234 237.603 318.552 236.937 315.757 236.937C312.961 236.937 310.279 237.603 308.302 238.789C306.325 239.975 305.215 241.584 305.215 243.262Z" fill="#FFAA54"/>
<path d="M253.007 68.3779C224.911 68.3862 197.672 78.0615 175.866 95.7791C154.06 113.497 139.014 138.178 133.254 165.678C171.327 150.503 212.027 143.015 253.007 143.645C293.988 143.015 334.688 150.503 372.761 165.678C367.001 138.178 351.955 113.497 330.148 95.7791C308.342 78.0615 281.104 68.3862 253.007 68.3779Z" fill="#399EE2"/>
<path d="M253.125 98.9458C313.107 98.9458 362.969 127.408 372.667 164.726C366.78 137.393 351.705 112.902 329.952 95.3357C308.2 77.7691 281.084 68.1875 253.125 68.1875C225.165 68.1875 198.049 77.7691 176.297 95.3357C154.544 112.902 139.469 137.393 133.582 164.726C143.28 127.408 193.142 98.9458 253.125 98.9458Z" fill="#2A5FD5"/>
<path d="M253.007 68.3779C224.911 68.3862 197.672 78.0615 175.866 95.7791C154.06 113.497 139.014 138.178 133.254 165.678C171.327 150.503 212.027 143.015 253.007 143.645C293.988 143.015 334.688 150.503 372.761 165.678C367.001 138.178 351.955 113.497 330.148 95.7791C308.342 78.0615 281.104 68.3862 253.007 68.3779V68.3779Z" stroke="#45413C" stroke-width="7" stroke-linecap="round" stroke-linejoin="round"/>
<path d="M187.938 403.709H235.902V430.063H187.938V403.709Z" fill="#2A5FD5" stroke="#45413C" stroke-width="7" stroke-linecap="round" stroke-linejoin="round"/>
<path d="M291.707 416.886C291.707 420.381 293.095 423.733 295.566 426.204C298.038 428.675 301.389 430.063 304.884 430.063C308.379 430.063 311.731 428.675 314.202 426.204C316.673 423.733 318.061 420.381 318.061 416.886C318.061 413.391 316.673 410.04 314.202 407.568C311.731 405.097 308.379 403.709 304.884 403.709C301.389 403.709 298.038 405.097 295.566 407.568C293.095 410.04 291.707 413.391 291.707 416.886Z" fill="#009FD9" stroke="#45413C" stroke-width="7" stroke-linecap="round" stroke-linejoin="round"/>
</svg>
