<svg width="495" height="495" viewBox="0 0 495 495" fill="none" xmlns="http://www.w3.org/2000/svg">
<path d="M41 172.688H324.594V399.562H41V172.688Z" fill="#FFE500"/>
<path d="M293.653 172.688H72.1406C63.9355 172.688 56.0664 175.948 50.2645 181.75C44.4626 187.551 41.2031 195.421 41.2031 203.626V244.876C41.2031 236.671 44.4626 228.801 50.2645 223C56.0664 217.198 63.9355 213.938 72.1406 213.938H293.859C302.065 213.938 309.934 217.198 315.736 223C321.537 228.801 324.797 236.671 324.797 244.876V203.626C324.797 199.546 323.99 195.506 322.422 191.739C320.855 187.972 318.557 184.552 315.663 181.676C312.768 178.801 309.333 176.526 305.556 174.984C301.778 173.441 297.733 172.661 293.653 172.688Z" fill="#FFF48C"/>
<path d="M41 172.688H324.594V399.562H41V172.688Z" stroke="#45413C" stroke-width="7" stroke-linecap="round" stroke-linejoin="round"/>
<path d="M182.794 18.0002C153.436 18.082 125.307 29.7947 104.568 50.573C83.828 71.3514 72.1678 99.5019 72.1406 128.86V172.688H118.547V128.86C118.547 111.766 125.337 95.3716 137.425 83.2843C149.512 71.197 165.906 64.4064 183 64.4064C200.094 64.4064 216.488 71.197 228.575 83.2843C240.663 95.3716 247.453 111.766 247.453 128.86V172.688H293.859V128.86C293.859 114.284 290.985 99.8514 285.401 86.3878C279.817 72.9243 271.633 60.6941 261.317 50.3971C251 40.1002 238.755 31.9387 225.281 26.3796C211.807 20.8205 197.369 17.9731 182.794 18.0002Z" fill="#DAEDF7"/>
<path d="M182.794 18.0002C153.436 18.082 125.307 29.7947 104.568 50.573C83.828 71.3514 72.1678 99.5019 72.1406 128.86V154.641C72.1406 125.239 83.8204 97.0416 104.611 76.2514C125.401 55.4612 153.598 43.7814 183 43.7814C212.402 43.7814 240.599 55.4612 261.389 76.2514C282.18 97.0416 293.859 125.239 293.859 154.641V128.86C293.859 114.284 290.985 99.8514 285.401 86.3878C279.817 72.9243 271.633 60.6941 261.317 50.3971C251 40.1002 238.755 31.9387 225.281 26.3796C211.807 20.8205 197.369 17.9731 182.794 18.0002Z" fill="white"/>
<path d="M182.794 18.0002C153.436 18.082 125.307 29.7947 104.568 50.573C83.828 71.3514 72.1678 99.5019 72.1406 128.86V172.688H118.547V128.86C118.547 111.766 125.337 95.3716 137.425 83.2843C149.512 71.197 165.906 64.4064 183 64.4064C200.094 64.4064 216.488 71.197 228.575 83.2843C240.663 95.3716 247.453 111.766 247.453 128.86V172.688H293.859V128.86C293.859 114.284 290.985 99.8514 285.401 86.3878C279.817 72.9243 271.633 60.6941 261.317 50.3971C251 40.1002 238.755 31.9387 225.281 26.3796C211.807 20.8205 197.369 17.9731 182.794 18.0002V18.0002Z" stroke="#45413C" stroke-width="7" stroke-linecap="round" stroke-linejoin="round"/>
<path d="M431.227 251.475C418.324 238.606 401.291 230.707 383.132 229.17C364.973 227.633 346.855 232.558 331.972 243.076C317.09 253.593 306.399 269.028 301.786 286.658C297.172 304.289 298.932 322.982 306.756 339.441L208.684 437.1C207.595 438.182 206.762 439.494 206.244 440.939C205.727 442.384 205.538 443.926 205.693 445.453L207.962 465.15C208.204 467.484 209.236 469.666 210.886 471.335C212.536 473.003 214.706 474.059 217.037 474.328L236.734 476.494C238.277 476.665 239.84 476.484 241.304 475.966C242.768 475.448 244.097 474.607 245.19 473.503L256.843 461.85C257.799 460.887 258.555 459.744 259.068 458.487C259.581 457.231 259.842 455.886 259.834 454.528V444.216H270.146C271.503 444.224 272.849 443.964 274.105 443.45C275.362 442.937 276.504 442.181 277.468 441.225L286.646 432.047C287.602 431.084 288.358 429.941 288.871 428.684C289.385 427.428 289.645 426.083 289.637 424.725V418.641C289.676 415.921 290.788 413.326 292.731 411.422L304.899 399.253C305.854 398.279 306.993 397.504 308.25 396.973C309.507 396.442 310.857 396.165 312.221 396.16H318.202C319.56 396.168 320.905 395.907 322.161 395.394C323.418 394.881 324.561 394.125 325.524 393.169L343.262 375.432C359.639 382.95 378.128 384.514 395.536 379.853C412.944 375.192 428.178 364.599 438.607 349.903C449.036 335.206 454.006 317.329 452.659 299.359C451.312 281.388 443.732 264.452 431.227 251.475ZM394.824 287.982C393.305 286.565 392.085 284.858 391.24 282.96C390.395 281.063 389.94 279.014 389.903 276.937C389.867 274.86 390.249 272.797 391.027 270.871C391.805 268.945 392.963 267.195 394.432 265.726C395.9 264.258 397.65 263.1 399.576 262.322C401.502 261.544 403.566 261.161 405.643 261.198C407.72 261.235 409.768 261.689 411.665 262.535C413.563 263.38 415.271 264.599 416.687 266.119C419.419 269.051 420.907 272.93 420.836 276.937C420.765 280.945 419.142 284.768 416.308 287.603C413.474 290.437 409.65 292.06 405.643 292.131C401.635 292.202 397.757 290.714 394.824 287.982Z" fill="#FFAA54"/>
<path d="M321.808 283.96C331.523 274.291 343.625 267.366 356.884 263.888C370.142 260.41 384.085 260.504 397.295 264.16C400.232 262.168 403.768 261.255 407.302 261.575C410.836 261.894 414.151 263.427 416.683 265.913C419.165 268.479 420.663 271.839 420.911 275.4C424.579 277.964 428.028 280.827 431.223 283.96C441.66 294.486 448.824 307.811 451.848 322.322C454.331 311.039 454.251 299.343 451.615 288.095C448.978 276.847 443.852 266.333 436.613 257.329C429.375 248.325 420.209 241.059 409.79 236.066C399.371 231.074 387.966 228.482 376.413 228.482C364.859 228.482 353.454 231.074 343.035 236.066C332.616 241.059 323.45 248.325 316.212 257.329C308.973 266.333 303.847 276.847 301.21 288.095C298.574 299.343 298.494 311.039 300.977 322.322C304.109 307.806 311.339 294.492 321.808 283.96Z" fill="#FFCC99"/>
<path d="M209.302 469.481L306.756 371.925C302.985 363.83 300.648 355.142 299.846 346.247L208.684 437.1C207.595 438.182 206.762 439.494 206.244 440.939C205.727 442.384 205.538 443.926 205.693 445.453L207.962 465.15C208.044 466.683 208.504 468.171 209.302 469.481Z" fill="#FFCC99"/>
<path d="M431.227 251.475C418.324 238.606 401.291 230.707 383.132 229.17C364.973 227.633 346.855 232.558 331.972 243.076C317.09 253.593 306.399 269.028 301.786 286.658C297.172 304.289 298.932 322.982 306.756 339.441L208.684 437.1C207.595 438.182 206.762 439.494 206.244 440.939C205.727 442.384 205.538 443.926 205.693 445.453L207.962 465.15C208.204 467.484 209.236 469.666 210.886 471.335C212.536 473.003 214.706 474.059 217.037 474.328L236.734 476.494C238.277 476.665 239.84 476.484 241.304 475.966C242.768 475.448 244.097 474.607 245.19 473.503L256.843 461.85C257.799 460.887 258.555 459.744 259.068 458.487C259.581 457.231 259.842 455.886 259.834 454.528V444.216H270.146C271.503 444.224 272.849 443.964 274.105 443.45C275.362 442.937 276.504 442.181 277.468 441.225L286.646 432.047C287.602 431.084 288.358 429.941 288.871 428.684C289.385 427.428 289.645 426.083 289.637 424.725V418.641C289.676 415.921 290.788 413.326 292.731 411.422L304.899 399.253C305.854 398.279 306.993 397.504 308.25 396.973C309.507 396.442 310.857 396.165 312.221 396.16H318.202C319.56 396.168 320.905 395.907 322.161 395.394C323.418 394.881 324.561 394.125 325.524 393.169L343.262 375.432C359.639 382.95 378.128 384.514 395.536 379.853C412.944 375.192 428.178 364.599 438.607 349.903C449.036 335.206 454.006 317.329 452.659 299.359C451.312 281.388 443.732 264.452 431.227 251.475V251.475ZM394.824 287.982C393.305 286.565 392.085 284.858 391.24 282.96C390.395 281.063 389.94 279.014 389.903 276.937C389.867 274.86 390.249 272.797 391.027 270.871C391.805 268.945 392.963 267.195 394.432 265.726C395.901 264.258 397.65 263.1 399.576 262.322C401.502 261.544 403.566 261.161 405.643 261.198C407.72 261.235 409.768 261.689 411.665 262.535C413.563 263.38 415.271 264.599 416.687 266.119C419.419 269.051 420.907 272.93 420.836 276.937C420.765 280.945 419.142 284.768 416.308 287.603C413.474 290.437 409.65 292.06 405.643 292.131C401.635 292.202 397.757 290.714 394.824 287.982V287.982Z" stroke="#45413C" stroke-width="7" stroke-linecap="round" stroke-linejoin="round"/>
<path d="M208.781 466.388L303.656 371.616" stroke="#45413C" stroke-width="7" stroke-linecap="round" stroke-linejoin="round"/>
</svg>
