<svg width="497" height="497" viewBox="0 0 497 497" fill="none" xmlns="http://www.w3.org/2000/svg">
<path d="M161.111 262.828L297.255 222.629C299.178 222.062 301.247 222.281 303.008 223.239C304.769 224.197 306.077 225.815 306.645 227.738L359.071 405.293C359.602 407.092 359.774 408.979 359.576 410.845C359.378 412.711 358.815 414.519 357.918 416.168C357.021 417.816 355.809 419.271 354.349 420.451C352.89 421.631 351.213 422.511 349.413 423.043L226.177 459.43C224.378 459.961 222.491 460.133 220.625 459.935C218.759 459.737 216.95 459.174 215.302 458.277C213.654 457.38 212.199 456.168 211.019 454.708C209.839 453.249 208.959 451.572 208.427 449.772L155.972 272.118C155.405 270.196 155.624 268.126 156.582 266.365C157.54 264.605 159.159 263.296 161.081 262.729L161.111 262.828Z" fill="#87898C"/>
<path d="M358.979 405.336L306.587 227.762C306.033 225.843 304.741 224.221 302.995 223.251C301.249 222.281 299.19 222.041 297.268 222.585L273.246 229.729L331.851 428.219L349.349 423.042C351.149 422.519 352.827 421.645 354.287 420.47C355.747 419.295 356.96 417.843 357.855 416.196C358.751 414.55 359.311 412.743 359.504 410.879C359.696 409.015 359.518 407.131 358.979 405.336Z" fill="#BDBEC0"/>
<path d="M161.111 262.828L297.255 222.629C299.178 222.062 301.247 222.281 303.008 223.239C304.769 224.197 306.077 225.815 306.645 227.738L359.071 405.293C359.602 407.092 359.774 408.979 359.576 410.845C359.378 412.711 358.815 414.519 357.918 416.168C357.021 417.816 355.809 419.271 354.349 420.451C352.89 421.631 351.213 422.511 349.413 423.043L226.177 459.43C224.378 459.961 222.491 460.133 220.625 459.935C218.759 459.737 216.95 459.174 215.302 458.277C213.654 457.38 212.199 456.168 211.019 454.708C209.839 453.249 208.959 451.572 208.427 449.772L155.972 272.118C155.405 270.196 155.624 268.126 156.582 266.365C157.54 264.605 159.159 263.296 161.081 262.729L161.111 262.828Z" stroke="#45413C" stroke-width="7" stroke-linecap="round" stroke-linejoin="round"/>
<path d="M297.58 222.482L160.698 262.967L158.006 232.526C157.846 230.886 158.266 229.242 159.193 227.88C160.12 226.517 161.495 225.523 163.08 225.071L275.112 191.937C276.687 191.485 278.369 191.588 279.877 192.229C281.385 192.87 282.627 194.01 283.395 195.458L297.58 222.482Z" fill="#DAEDF7"/>
<path d="M244.566 201.049L258.855 234.079L297.787 222.482L283.395 195.975C282.627 194.528 281.385 193.388 279.877 192.747C278.369 192.106 276.686 192.003 275.111 192.455L244.566 201.463V201.049Z" fill="#E8F4FA"/>
<path d="M297.58 222.482L160.698 262.967L158.006 232.526C157.846 230.886 158.266 229.242 159.193 227.88C160.12 226.517 161.495 225.523 163.08 225.071L275.112 191.937C276.687 191.485 278.369 191.588 279.877 192.229C281.386 192.87 282.627 194.01 283.395 195.458L297.58 222.482Z" stroke="#45413C" stroke-width="7" stroke-linecap="round" stroke-linejoin="round"/>
<path d="M267.035 194.318L171.155 222.689L120.834 52.2593C120.117 49.6879 120.129 46.9676 120.869 44.4027C121.609 41.8377 123.048 39.5291 125.024 37.735C127.001 35.9409 129.438 34.7319 132.062 34.2432C134.687 33.7545 137.396 34.0054 139.886 34.9678L211.329 63.4418C217.339 65.8507 222.724 69.5895 227.082 74.3775C231.439 79.1656 234.656 84.8785 236.49 91.0874L267.035 194.318Z" fill="#FF6242"/>
<path d="M126.632 71.7251L188.757 96.4716C194.767 98.8805 200.152 102.619 204.51 107.407C208.867 112.195 212.084 117.908 213.918 124.117L237.215 202.912L266.931 194.111L236.386 90.5697C234.496 84.4663 231.264 78.8628 226.929 74.1691C222.594 69.4754 217.264 65.8102 211.329 63.4418L139.886 34.9678C137.396 34.0054 134.687 33.7545 132.062 34.2432C129.438 34.7319 127.001 35.9409 125.024 37.735C123.048 39.5291 121.609 41.8377 120.869 44.4027C120.129 46.9676 120.117 49.6879 120.834 52.2593L126.632 71.7251Z" fill="#FF866E"/>
<path d="M267.035 194.318L171.155 222.689L120.834 52.2593C120.117 49.6879 120.129 46.9676 120.869 44.4027C121.609 41.8377 123.048 39.5291 125.024 37.735C127.001 35.9409 129.438 34.7319 132.062 34.2432C134.687 33.7545 137.396 34.0054 139.886 34.9678L211.329 63.4418C217.339 65.8507 222.724 69.5895 227.082 74.3775C231.439 79.1656 234.656 84.8785 236.49 91.0874L267.035 194.318Z" stroke="#45413C" stroke-width="7" stroke-linecap="round" stroke-linejoin="round"/>
<path d="M186.242 374.438L336.786 329.988L346.902 364.248L196.358 408.698L186.242 374.438Z" fill="#FF6242"/>
<path d="M346.866 364.334L315.7 373.445L305.656 339.277L336.822 330.062L346.866 364.334Z" fill="#FF866E"/>
<path d="M186.242 374.438L336.786 329.988L346.902 364.248L196.358 408.698L186.242 374.438Z" stroke="#45413C" stroke-width="7" stroke-linecap="round" stroke-linejoin="round"/>
</svg>
