<svg width="507" height="507" viewBox="0 0 507 507" fill="none" xmlns="http://www.w3.org/2000/svg">
<path d="M253.596 331.553C286.876 331.553 318.793 344.773 342.325 368.306C365.858 391.838 379.078 423.755 379.078 457.035V477.104H128.113V457.035C128.113 423.755 141.334 391.838 164.866 368.306C188.399 344.773 220.316 331.553 253.596 331.553Z" fill="white"/>
<path d="M253.596 331.553C220.316 331.553 188.399 344.773 164.866 368.306C141.334 391.838 128.113 423.755 128.113 457.035V477.104H129.17C133.024 446.821 147.785 418.982 170.689 398.8C193.593 378.618 223.069 367.478 253.596 367.465C284.123 367.478 313.598 378.618 336.502 398.8C359.406 418.982 374.168 446.821 378.022 477.104H379.078V457.035C379.078 423.755 365.858 391.838 342.325 368.306C318.793 344.773 286.876 331.553 253.596 331.553Z" fill="#F0F0F0"/>
<path d="M253.596 331.553C286.876 331.553 318.793 344.773 342.325 368.306C365.858 391.838 379.078 423.755 379.078 457.035V477.104H128.113V457.035C128.113 423.755 141.334 391.838 164.866 368.306C188.399 344.773 220.316 331.553 253.596 331.553V331.553Z" stroke="#45413C" stroke-width="6" stroke-linecap="round" stroke-linejoin="round"/>
<path d="M253.594 288.881C246.479 288.881 239.655 291.707 234.624 296.739C229.592 301.77 226.766 308.594 226.766 315.71V345.813C226.766 352.928 229.592 359.752 234.624 364.784C239.655 369.815 246.479 372.641 253.594 372.641C260.71 372.641 267.534 369.815 272.565 364.784C277.597 359.752 280.423 352.928 280.423 345.813V315.71C280.423 308.594 277.597 301.77 272.565 296.739C267.534 291.707 260.71 288.881 253.594 288.881Z" fill="#FFB59E" stroke="#45413C" stroke-width="6" stroke-linecap="round" stroke-linejoin="round"/>
<path d="M180.293 477.104V451.648" stroke="#45413C" stroke-width="6" stroke-linecap="round" stroke-linejoin="round"/>
<path d="M326.898 477.104V451.648" stroke="#45413C" stroke-width="6" stroke-linecap="round" stroke-linejoin="round"/>
<path d="M226.766 331.553C226.766 343.171 234.477 352.678 253.595 352.678C272.713 352.678 280.424 343.277 280.424 331.553C285.511 337.032 288.308 344.251 288.24 351.727C288.24 365.142 272.713 372.852 253.595 372.852C234.477 372.852 218.95 364.719 218.95 351.727C218.816 344.239 221.622 336.996 226.766 331.553Z" fill="#00DFEB" stroke="#45413C" stroke-width="6" stroke-linecap="round" stroke-linejoin="round"/>
<path d="M253.594 372.746H282.958C285.047 372.733 287.119 373.132 289.053 373.922C290.988 374.712 292.747 375.877 294.229 377.349C295.711 378.822 296.888 380.573 297.691 382.503C298.494 384.432 298.907 386.501 298.907 388.59V477.104" fill="white"/>
<path d="M253.594 372.746H282.958C285.047 372.733 287.119 373.132 289.053 373.922C290.988 374.712 292.747 375.877 294.229 377.349C295.711 378.822 296.888 380.573 297.691 382.503C298.494 384.432 298.907 386.501 298.907 388.59V477.104" stroke="#45413C" stroke-width="6" stroke-linecap="round" stroke-linejoin="round"/>
<path d="M253.594 372.747V352.572" stroke="#45413C" stroke-width="6" stroke-linecap="round" stroke-linejoin="round"/>
<path d="M230.781 396.829C228.68 396.829 226.665 397.664 225.18 399.149C223.694 400.635 222.859 402.65 222.859 404.751C222.859 406.852 223.694 408.867 225.18 410.353C226.665 411.838 228.68 412.673 230.781 412.673C232.882 412.673 234.897 411.838 236.383 410.353C237.869 408.867 238.703 406.852 238.703 404.751C238.703 402.65 237.869 400.635 236.383 399.149C234.897 397.664 232.882 396.829 230.781 396.829Z" fill="#45413C"/>
<path d="M276.305 396.829C274.738 396.829 273.206 397.294 271.904 398.164C270.601 399.035 269.585 400.272 268.986 401.719C268.386 403.167 268.229 404.76 268.535 406.296C268.841 407.833 269.595 409.245 270.703 410.353C271.811 411.46 273.223 412.215 274.759 412.521C276.296 412.826 277.889 412.669 279.336 412.07C280.784 411.47 282.021 410.455 282.891 409.152C283.762 407.849 284.227 406.318 284.227 404.751C284.227 402.65 283.392 400.635 281.906 399.149C280.421 397.664 278.406 396.829 276.305 396.829Z" fill="#45413C"/>
<path d="M230.781 432.848C229.214 432.848 227.683 433.312 226.38 434.183C225.077 435.053 224.062 436.29 223.462 437.738C222.863 439.185 222.706 440.778 223.012 442.315C223.317 443.852 224.072 445.263 225.18 446.371C226.288 447.479 227.699 448.234 229.236 448.539C230.772 448.845 232.365 448.688 233.813 448.088C235.26 447.489 236.498 446.473 237.368 445.171C238.239 443.868 238.703 442.336 238.703 440.77C238.703 438.669 237.869 436.654 236.383 435.168C234.897 433.682 232.882 432.848 230.781 432.848Z" fill="#45413C"/>
<path d="M276.305 432.848C274.204 432.848 272.189 433.682 270.703 435.168C269.217 436.654 268.383 438.669 268.383 440.77C268.383 442.871 269.217 444.885 270.703 446.371C272.189 447.857 274.204 448.691 276.305 448.691C278.406 448.691 280.421 447.857 281.906 446.371C283.392 444.885 284.227 442.871 284.227 440.77C284.227 438.669 283.392 436.654 281.906 435.168C280.421 433.682 278.406 432.848 276.305 432.848Z" fill="#45413C"/>
<path d="M253.595 74.7783C244.901 74.7865 236.242 75.8865 227.822 78.0527C208.176 82.4889 182.615 89.8827 159.483 85.4464C158.582 91.4043 158.904 97.4833 160.429 103.313C161.954 109.142 164.651 114.599 168.356 119.352C156.304 136.721 149.854 157.361 149.871 178.502V232.793H357.319V178.502C357.319 150.993 346.391 124.61 326.939 105.158C307.487 85.7063 281.104 74.7783 253.595 74.7783Z" fill="#A86C4D"/>
<path d="M253.594 74.7783C244.9 74.7865 236.242 75.8865 227.822 78.0527C208.175 82.4889 182.614 89.8827 159.482 85.4464C158.052 96.5261 160.597 107.754 166.665 117.134C187.355 117.456 207.974 114.643 227.822 108.79C243.142 104.838 259.163 104.448 274.657 107.648C290.152 110.848 304.708 117.553 317.209 127.25C329.71 136.947 339.825 149.379 346.777 163.59C353.73 177.802 357.335 193.418 357.318 209.239V178.502C357.318 150.993 346.39 124.61 326.938 105.158C307.486 85.7063 281.103 74.7783 253.594 74.7783Z" fill="#DE926A"/>
<path d="M253.595 74.7783C244.901 74.7865 236.242 75.8865 227.822 78.0527C208.176 82.4889 182.615 89.8827 159.483 85.4464C158.582 91.4043 158.904 97.4833 160.429 103.313C161.954 109.142 164.651 114.599 168.356 119.352C156.304 136.721 149.854 157.361 149.871 178.502V232.793H357.319V178.502C357.319 150.993 346.391 124.61 326.939 105.158C307.487 85.7063 281.104 74.7783 253.595 74.7783V74.7783Z" stroke="#45413C" stroke-width="6" stroke-linecap="round" stroke-linejoin="round"/>
<path d="M368.41 224.872C367.897 220.993 366.219 217.362 363.597 214.457C360.976 211.553 357.534 209.512 353.728 208.606L347.497 206.916C342.905 205.619 338.867 202.848 336.004 199.031C333.141 195.214 331.612 190.562 331.653 185.791V164.243C331.641 159.887 330.198 155.656 327.545 152.201C324.892 148.747 321.176 146.26 316.971 145.125C296.829 153.165 275.279 157.08 253.596 156.638C231.913 157.08 210.363 153.165 190.221 145.125C185.996 146.241 182.257 148.719 179.584 152.175C176.91 155.632 175.451 159.873 175.433 164.243V186.002C175.474 190.773 173.945 195.425 171.083 199.243C168.22 203.06 164.181 205.83 159.59 207.127L153.358 208.817C149.552 209.724 146.111 211.764 143.489 214.669C140.868 217.573 139.189 221.204 138.676 225.083C138.394 227.757 138.679 230.461 139.512 233.017C140.346 235.573 141.709 237.925 143.513 239.919C145.318 241.912 147.522 243.503 149.983 244.587C152.444 245.67 155.105 246.223 157.794 246.208H158.956C161.428 269.557 172.453 291.166 189.907 306.87C207.362 322.575 230.011 331.264 253.49 331.264C276.97 331.264 299.619 322.575 317.074 306.87C334.528 291.166 345.553 269.557 348.025 246.208H349.187C351.904 246.242 354.598 245.695 357.087 244.605C359.577 243.516 361.806 241.908 363.625 239.889C365.444 237.869 366.812 235.486 367.637 232.896C368.462 230.307 368.726 227.571 368.41 224.872Z" fill="#FFCEBF" stroke="#45413C" stroke-width="6" stroke-linecap="round" stroke-linejoin="round"/>
<path d="M196.243 222.653C196.243 224.262 196.72 225.834 197.614 227.172C198.507 228.509 199.777 229.552 201.264 230.167C202.75 230.783 204.385 230.944 205.963 230.63C207.54 230.316 208.99 229.542 210.127 228.404C211.264 227.267 212.039 225.818 212.353 224.24C212.667 222.662 212.506 221.027 211.89 219.541C211.274 218.055 210.232 216.785 208.895 215.891C207.557 214.997 205.985 214.52 204.376 214.52C203.304 214.506 202.24 214.707 201.247 215.11C200.254 215.514 199.351 216.113 198.593 216.871C197.835 217.629 197.237 218.531 196.833 219.524C196.429 220.517 196.229 221.581 196.243 222.653Z" fill="#45413C" stroke="#45413C" stroke-width="6" stroke-linecap="round" stroke-linejoin="round"/>
<path d="M310.95 222.653C310.95 224.262 310.473 225.834 309.579 227.172C308.685 228.509 307.415 229.552 305.929 230.167C304.443 230.783 302.808 230.944 301.23 230.63C299.652 230.316 298.203 229.542 297.066 228.404C295.928 227.267 295.154 225.818 294.84 224.24C294.526 222.662 294.687 221.027 295.303 219.541C295.918 218.055 296.961 216.785 298.298 215.891C299.636 214.997 301.208 214.52 302.817 214.52C303.889 214.506 304.953 214.707 305.946 215.11C306.939 215.514 307.841 216.113 308.599 216.871C309.357 217.629 309.956 218.531 310.36 219.524C310.763 220.517 310.964 221.581 310.95 222.653Z" fill="#45413C" stroke="#45413C" stroke-width="6" stroke-linecap="round" stroke-linejoin="round"/>
<path d="M223.598 272.191C222.927 272.191 222.265 272.343 221.661 272.636C221.057 272.929 220.528 273.354 220.112 273.881C219.67 274.379 219.346 274.97 219.163 275.609C218.98 276.249 218.944 276.922 219.056 277.578C220.482 285.703 224.727 293.065 231.044 298.37C237.361 303.675 245.346 306.583 253.595 306.583C261.844 306.583 269.829 303.675 276.147 298.37C282.464 293.065 286.709 285.703 288.135 277.578C288.247 276.922 288.211 276.249 288.028 275.609C287.845 274.97 287.521 274.379 287.079 273.881C286.653 273.366 286.122 272.948 285.52 272.656C284.919 272.364 284.261 272.206 283.593 272.191H223.598Z" fill="#FF6242"/>
<path d="M253.594 286.98C244.058 286.607 234.676 289.473 226.977 295.113C230.305 298.819 234.376 301.784 238.926 303.813C243.475 305.842 248.401 306.891 253.383 306.891C258.364 306.891 263.29 305.842 267.84 303.813C272.389 301.784 276.461 298.819 279.789 295.113C272.205 289.564 262.987 286.702 253.594 286.98Z" fill="#FFA694"/>
<path d="M223.598 272.191C222.927 272.191 222.265 272.343 221.661 272.636C221.057 272.929 220.528 273.354 220.112 273.881C219.67 274.379 219.346 274.97 219.163 275.609C218.98 276.249 218.944 276.922 219.056 277.578C220.482 285.703 224.727 293.065 231.044 298.37C237.361 303.675 245.346 306.583 253.595 306.583C261.844 306.583 269.829 303.675 276.147 298.37C282.464 293.065 286.709 285.703 288.135 277.578C288.247 276.922 288.211 276.249 288.028 275.609C287.845 274.97 287.521 274.379 287.079 273.881C286.653 273.366 286.122 272.948 285.52 272.656C284.919 272.364 284.261 272.206 283.593 272.191H223.598Z" stroke="#45413C" stroke-width="6" stroke-linecap="round" stroke-linejoin="round"/>
<path d="M180.293 257.298C180.293 258.979 181.406 260.591 183.387 261.78C185.368 262.968 188.054 263.636 190.855 263.636C193.657 263.636 196.343 262.968 198.324 261.78C200.305 260.591 201.418 258.979 201.418 257.298C201.418 255.618 200.305 254.006 198.324 252.817C196.343 251.629 193.657 250.961 190.855 250.961C188.054 250.961 185.368 251.629 183.387 252.817C181.406 254.006 180.293 255.618 180.293 257.298Z" fill="#FFB59E"/>
<path d="M305.773 257.298C305.773 258.979 306.886 260.591 308.867 261.78C310.848 262.968 313.535 263.636 316.336 263.636C319.137 263.636 321.824 262.968 323.805 261.78C325.786 260.591 326.898 258.979 326.898 257.298C326.898 255.618 325.786 254.006 323.805 252.817C321.824 251.629 319.137 250.961 316.336 250.961C313.535 250.961 310.848 251.629 308.867 252.817C306.886 254.006 305.773 255.618 305.773 257.298Z" fill="#FFB59E"/>
<path d="M316.337 56.8224C308.645 47.767 299.008 40.5655 288.144 35.7554C277.28 30.9453 265.47 28.6508 253.596 29.043C241.721 28.6508 229.911 30.9453 219.047 35.7554C208.183 40.5655 198.546 47.767 190.854 56.8224C163.181 43.408 115.016 59.9911 115.016 104.776C115.016 146.498 144.485 155.793 144.485 155.793H362.706C362.706 155.793 392.176 146.498 392.176 104.776C392.176 59.9911 344.011 43.408 316.337 56.8224Z" fill="#F0F0F0"/>
<path d="M190.852 106.572C198.543 97.5164 208.181 90.3149 219.045 85.5048C229.909 80.6947 241.718 78.4002 253.593 78.7924C265.468 78.4002 277.278 80.6947 288.142 85.5048C299.005 90.3149 308.643 97.5164 316.334 106.572C329.121 101.166 343.461 100.713 356.563 105.301C369.665 109.89 380.589 119.191 387.209 131.394C390.664 122.953 392.354 113.895 392.173 104.776C392.173 59.9911 344.008 43.408 316.334 56.8224C308.643 47.767 299.005 40.5655 288.142 35.7554C277.278 30.9453 265.468 28.6508 253.593 29.043C241.718 28.6508 229.909 30.9453 219.045 35.7554C208.181 40.5655 198.543 47.767 190.852 56.8224C163.178 43.408 115.013 59.9911 115.013 104.776C114.832 113.895 116.522 122.953 119.978 131.394C126.597 119.191 137.521 109.89 150.623 105.301C163.725 100.713 178.066 101.166 190.852 106.572Z" fill="white"/>
<path d="M316.337 56.8224C308.645 47.767 299.008 40.5655 288.144 35.7554C277.28 30.9453 265.47 28.6508 253.596 29.043C241.721 28.6508 229.911 30.9453 219.047 35.7554C208.183 40.5655 198.546 47.767 190.854 56.8224C163.181 43.408 115.016 59.9911 115.016 104.776C115.016 146.498 144.485 155.793 144.485 155.793H362.706C362.706 155.793 392.176 146.498 392.176 104.776C392.176 59.9911 344.011 43.408 316.337 56.8224Z" stroke="#45413C" stroke-width="6" stroke-linecap="round" stroke-linejoin="round"/>
<path d="M316.969 97.6992C316.969 125.901 288.556 148.716 253.594 148.716C218.632 148.716 190.219 125.901 190.219 97.6992" stroke="#45413C" stroke-width="6" stroke-linecap="round" stroke-linejoin="round"/>
<path d="M144.484 155.793C144.484 145.23 193.283 137.309 253.595 137.309C313.907 137.309 362.706 145.547 362.706 155.793V185.262C362.706 174.7 313.907 166.778 253.595 166.778C193.283 166.778 144.484 175.122 144.484 185.262V155.793Z" fill="#F0F0F0" stroke="#45413C" stroke-width="6" stroke-linecap="round" stroke-linejoin="round"/>
</svg>
