<svg width="496" height="496" viewBox="0 0 496 496" fill="none" xmlns="http://www.w3.org/2000/svg">
<path d="M153.452 117.019L104.782 54.2954C104.308 53.5903 103.68 53.0025 102.946 52.5768C102.211 52.1512 101.388 51.8988 100.541 51.839C99.6943 51.7793 98.8447 51.9136 98.0574 52.2318C97.2701 52.55 96.5658 53.0438 95.9982 53.6754L72.3349 83.5387C71.8288 84.2151 71.4829 84.9976 71.3232 85.8271C71.1636 86.6567 71.1943 87.5117 71.4133 88.3276C71.6322 89.1435 72.0335 89.8991 72.5869 90.5373C73.1404 91.1756 73.8315 91.6798 74.6082 92.012L146.942 124.872C147.983 125.735 149.325 126.15 150.671 126.024C152.018 125.898 153.26 125.242 154.123 124.2C154.986 123.159 155.401 121.817 155.275 120.47C155.149 119.124 154.493 117.882 153.452 117.019Z" fill="#FFE500" stroke="#45413C" stroke-width="7" stroke-linecap="round" stroke-linejoin="round"/>
<path d="M130.198 165.586L53.3184 140.372C52.5281 140.051 51.6755 139.911 50.824 139.964C49.9724 140.017 49.1436 140.261 48.3992 140.678C47.6547 141.095 47.0137 141.674 46.5237 142.372C46.0336 143.071 45.7071 143.87 45.5684 144.712L42.2617 182.946C42.2724 183.805 42.4743 184.651 42.8527 185.422C43.2311 186.193 43.7765 186.871 44.4493 187.405C45.1221 187.939 45.9055 188.317 46.7425 188.511C47.5795 188.705 48.4492 188.71 49.2884 188.526L129.475 175.506C130.645 175.369 131.731 174.829 132.545 173.978C133.36 173.128 133.852 172.019 133.938 170.845C134.024 169.67 133.697 168.502 133.014 167.542C132.332 166.582 131.336 165.891 130.198 165.586Z" fill="#FFE500" stroke="#45413C" stroke-width="7" stroke-linecap="round" stroke-linejoin="round"/>
<path d="M124.001 229.238L52.1847 230.685C51.3914 230.701 50.6124 230.899 49.9081 231.265C49.2037 231.63 48.5931 232.153 48.1234 232.792C47.6537 233.432 47.3377 234.171 47.1997 234.952C47.0618 235.734 47.1057 236.537 47.3281 237.298L57.6614 274.085C57.8933 274.852 58.297 275.556 58.8417 276.143C59.3865 276.73 60.0579 277.186 60.8051 277.475C61.5523 277.763 62.3555 277.878 63.1536 277.81C63.9518 277.742 64.724 277.493 65.4114 277.082L126.585 238.745C127.508 238.151 128.218 237.278 128.611 236.253C129.005 235.229 129.062 234.105 128.774 233.046C128.486 231.986 127.868 231.046 127.01 230.362C126.152 229.677 125.098 229.284 124.001 229.238Z" fill="#FFE500" stroke="#45413C" stroke-width="7" stroke-linecap="round" stroke-linejoin="round"/>
<path d="M224.028 32.0784C218.494 32.6487 213.353 35.2018 209.555 39.2662C205.756 43.3306 203.557 48.632 203.361 54.1917L197.368 166.308C195.405 200.822 180.835 216.322 173.911 253.315C166.988 290.308 168.745 288.655 161.201 296.198L98.168 359.232L170.501 442.725L212.455 403.872C221.017 396.012 228.272 386.838 233.948 376.695C243.166 360.175 248.004 341.57 248.001 322.652V53.9851C247.984 50.9352 247.335 47.9219 246.097 45.1346C244.858 42.3474 243.057 39.8465 240.805 37.7891C238.554 35.7316 235.901 34.1622 233.014 33.1794C230.126 32.1967 227.067 31.8218 224.028 32.0784Z" fill="#FFE500"/>
<path d="M219.894 111.852C219.809 110.096 220.084 108.341 220.702 106.694C221.32 105.048 222.267 103.545 223.486 102.278C224.705 101.01 226.17 100.005 227.791 99.3239C229.412 98.6426 231.155 98.2995 232.914 98.3156C236.915 98.3156 240.752 99.9051 243.582 102.734C246.411 105.564 248 109.401 248 113.402V94.699C248 90.6977 246.411 86.8604 243.582 84.0311C240.752 81.2018 236.915 79.6123 232.914 79.6123C225.06 79.6123 221.444 85.2956 220.927 93.149L219.894 111.852Z" fill="#FFF48C"/>
<path d="M225.369 61.0119C229.999 61.0178 234.542 62.2677 238.523 64.6309C242.504 66.9941 245.777 70.3838 247.999 74.4452V53.7786C247.953 50.7462 247.284 47.7556 246.033 44.9928C244.783 42.23 242.977 39.7541 240.728 37.7189C238.48 35.6836 235.837 34.1327 232.964 33.1623C230.09 32.192 227.048 31.8231 224.026 32.0786C218.492 32.6489 213.352 35.202 209.553 39.2664C205.754 43.3308 203.555 48.6322 203.359 54.1919L202.223 74.8586C204.431 70.6423 207.761 67.118 211.845 64.6746C215.93 62.2312 220.61 60.9637 225.369 61.0119Z" fill="#FFF48C"/>
<path d="M173.911 253.315C167.091 290.309 168.745 288.655 161.201 296.199L98.168 359.232L111.395 374.422L161.201 324.615C168.745 317.072 184.451 294.132 173.911 253.315Z" fill="#FFF48C"/>
<path d="M224.028 32.0784C218.494 32.6487 213.353 35.2018 209.555 39.2662C205.756 43.3306 203.557 48.632 203.361 54.1917L197.368 166.308C195.405 200.822 180.835 216.322 173.911 253.315C166.988 290.308 168.745 288.655 161.201 296.198L98.168 359.232L170.501 442.725L212.455 403.872C221.017 396.012 228.272 386.838 233.948 376.695V376.695C243.166 360.175 248.004 341.57 248.001 322.652V53.9851C247.984 50.9352 247.335 47.9219 246.097 45.1346C244.858 42.3474 243.057 39.8465 240.805 37.7891C238.554 35.7316 235.901 34.1622 233.014 33.1794C230.126 32.1967 227.067 31.8218 224.028 32.0784V32.0784Z" stroke="#45413C" stroke-width="7" stroke-linecap="round" stroke-linejoin="round"/>
<path d="M247.998 94.699C247.998 90.6977 246.409 86.8604 243.58 84.0311C240.75 81.2018 236.913 79.6123 232.912 79.6123V79.6123C225.059 79.6123 221.442 85.2956 220.925 93.149L215.035 202.269" stroke="#45413C" stroke-width="7" stroke-linecap="round" stroke-linejoin="round"/>
<path d="M34.8233 395.502L99.4067 343.835C101.426 342.214 103.98 341.41 106.563 341.582C109.146 341.755 111.571 342.89 113.357 344.765L191.993 427.432C193.686 429.196 194.698 431.504 194.85 433.945C195.001 436.386 194.282 438.801 192.82 440.762L177.94 459.878C176.977 461.162 175.729 462.203 174.295 462.921C172.86 463.638 171.278 464.012 169.673 464.012H41.3333C38.5928 464.012 35.9644 462.923 34.0266 460.985C32.0887 459.047 31 456.419 31 453.678V403.458C31.0101 401.932 31.3582 400.427 32.0193 399.051C32.6803 397.675 33.638 396.463 34.8233 395.502Z" fill="#009FD9"/>
<path d="M132.887 364.709L113.357 344.042C111.571 342.168 109.146 341.032 106.563 340.86C103.98 340.688 101.426 341.491 99.4067 343.112L34.8233 394.779C33.638 395.74 32.6803 396.953 32.0193 398.328C31.3582 399.704 31.0101 401.209 31 402.736V446.239L132.887 364.709Z" fill="#00B8F0"/>
<path d="M34.8233 395.502L99.4067 343.835C101.426 342.214 103.98 341.41 106.563 341.582C109.146 341.755 111.571 342.89 113.357 344.765L191.993 427.432C193.686 429.196 194.698 431.504 194.85 433.945C195.001 436.386 194.282 438.801 192.82 440.762L177.94 459.878C176.977 461.162 175.729 462.203 174.295 462.921C172.86 463.638 171.278 464.012 169.673 464.012H41.3333C38.5928 464.012 35.9644 462.923 34.0266 460.985C32.0887 459.047 31 456.419 31 453.678V403.458C31.0101 401.932 31.3582 400.427 32.0193 399.051C32.6803 397.675 33.638 396.463 34.8233 395.502V395.502Z" stroke="#45413C" stroke-width="7" stroke-linecap="round" stroke-linejoin="round"/>
<path d="M342.55 117.019L391.22 54.2954C391.693 53.5903 392.321 53.0025 393.056 52.5768C393.791 52.1512 394.613 51.8988 395.46 51.839C396.307 51.7793 397.157 51.9136 397.944 52.2318C398.732 52.55 399.436 53.0438 400.004 53.6754L423.667 83.5387C424.165 84.2353 424.497 85.0373 424.635 85.8825C424.774 86.7278 424.716 87.5936 424.466 88.4129C424.217 89.2322 423.781 89.983 423.195 90.6071C422.608 91.2313 421.886 91.712 421.084 92.012L348.75 124.872C347.698 125.465 346.469 125.663 345.284 125.43C344.099 125.196 343.037 124.547 342.288 123.599C341.54 122.652 341.155 121.467 341.203 120.261C341.251 119.054 341.729 117.904 342.55 117.019Z" fill="#FFE500" stroke="#45413C" stroke-width="7" stroke-linecap="round" stroke-linejoin="round"/>
<path d="M365.8 165.586L442.68 140.372C443.47 140.051 444.323 139.911 445.174 139.964C446.026 140.017 446.855 140.261 447.599 140.678C448.343 141.095 448.984 141.674 449.474 142.372C449.965 143.071 450.291 143.87 450.43 144.712L453.736 182.946C453.726 183.805 453.524 184.651 453.146 185.422C452.767 186.193 452.222 186.871 451.549 187.405C450.876 187.939 450.093 188.317 449.256 188.511C448.419 188.705 447.549 188.71 446.71 188.526L366.523 175.506C365.353 175.369 364.268 174.829 363.453 173.978C362.638 173.128 362.146 172.019 362.06 170.845C361.975 169.67 362.301 168.502 362.984 167.542C363.666 166.582 364.662 165.891 365.8 165.586Z" fill="#FFE500" stroke="#45413C" stroke-width="7" stroke-linecap="round" stroke-linejoin="round"/>
<path d="M372.001 229.238L444.334 230.685C445.128 230.701 445.907 230.899 446.611 231.265C447.315 231.63 447.926 232.153 448.396 232.792C448.865 233.432 449.181 234.171 449.319 234.952C449.457 235.734 449.413 236.537 449.191 237.298L438.858 274.085C438.626 274.852 438.222 275.556 437.677 276.143C437.133 276.73 436.461 277.186 435.714 277.475C434.967 277.763 434.164 277.878 433.365 277.81C432.567 277.742 431.795 277.493 431.108 277.082L369.211 238.745C368.275 238.14 367.56 237.25 367.171 236.205C366.783 235.161 366.743 234.019 367.057 232.95C367.37 231.881 368.021 230.942 368.912 230.273C369.803 229.604 370.887 229.241 372.001 229.238Z" fill="#FFE500" stroke="#45413C" stroke-width="7" stroke-linecap="round" stroke-linejoin="round"/>
<path d="M271.973 32.0784C277.507 32.6487 282.648 35.2018 286.446 39.2662C290.245 43.3306 292.445 48.632 292.64 54.1917L298.943 166.308C300.907 200.822 315.477 216.322 322.4 253.315C329.323 290.308 327.567 288.655 335.11 296.198L398.143 359.232L325.81 442.725L283.857 403.872C275.294 396.012 268.039 386.838 262.363 376.695C253.037 360.204 248.092 341.597 248 322.652V53.9851C248.018 50.9352 248.666 47.9219 249.904 45.1346C251.143 42.3474 252.944 39.8465 255.196 37.7891C257.447 35.7316 260.1 34.1622 262.988 33.1794C265.875 32.1967 268.934 31.8218 271.973 32.0784Z" fill="#FFE500"/>
<path d="M276.107 111.852C276.191 110.096 275.916 108.341 275.298 106.694C274.681 105.048 273.733 103.545 272.514 102.278C271.295 101.01 269.83 100.005 268.209 99.3239C266.588 98.6426 264.845 98.2995 263.087 98.3156C259.085 98.3156 255.248 99.9051 252.419 102.734C249.589 105.564 248 109.401 248 113.402V94.699C248 90.6977 249.589 86.8604 252.419 84.0311C255.248 81.2018 259.085 79.6123 263.087 79.6123C270.94 79.6123 274.557 85.2956 275.177 93.149L276.107 111.852Z" fill="#FFF48C"/>
<path d="M270.63 61.0119C266 61.0178 261.457 62.2677 257.476 64.6309C253.495 66.9941 250.222 70.3838 248 74.4452V53.7786C248.046 50.7462 248.715 47.7556 249.966 44.9928C251.217 42.23 253.023 39.7541 255.271 37.7189C257.519 35.6836 260.162 34.1327 263.036 33.1623C265.909 32.192 268.951 31.8231 271.973 32.0786C277.507 32.6489 282.648 35.202 286.446 39.2664C290.245 43.3308 292.445 48.6322 292.64 54.1919L293.777 74.8586C291.568 70.6423 288.238 67.118 284.154 64.6746C280.069 62.2312 275.389 60.9637 270.63 61.0119Z" fill="#FFF48C"/>
<path d="M322.092 253.315C328.912 290.309 327.258 288.655 334.802 296.199L397.835 359.232L384.608 374.422L334.802 324.615C327.258 317.072 311.552 294.132 322.092 253.315Z" fill="#FFF48C"/>
<path d="M271.973 32.0784C277.507 32.6487 282.648 35.2018 286.446 39.2662C290.245 43.3306 292.445 48.632 292.64 54.1917L298.943 166.308C300.907 200.822 315.477 216.322 322.4 253.315C329.323 290.308 327.567 288.655 335.11 296.198L398.143 359.232L325.81 442.725L283.857 403.872C275.294 396.012 268.039 386.838 262.363 376.695C253.037 360.204 248.092 341.597 248 322.652V53.9851C248.018 50.9352 248.666 47.9219 249.904 45.1346C251.143 42.3474 252.944 39.8465 255.196 37.7891C257.447 35.7316 260.1 34.1622 262.988 33.1794C265.875 32.1967 268.934 31.8218 271.973 32.0784V32.0784Z" stroke="#45413C" stroke-width="7" stroke-linecap="round" stroke-linejoin="round"/>
<path d="M248 94.699C248 90.6977 249.589 86.8604 252.419 84.0311C255.248 81.2018 259.085 79.6123 263.087 79.6123V79.6123C270.94 79.6123 274.557 85.2956 275.177 93.149L280.963 202.269" stroke="#45413C" stroke-width="7" stroke-linecap="round" stroke-linejoin="round"/>
<path d="M461.175 395.502L396.592 343.835C394.573 342.214 392.019 341.41 389.436 341.582C386.852 341.755 384.428 342.89 382.642 344.765L304.005 427.432C302.312 429.196 301.3 431.504 301.149 433.945C300.997 436.386 301.717 438.801 303.178 440.762L318.058 460.602C319.021 461.885 320.269 462.927 321.704 463.644C323.139 464.361 324.721 464.735 326.325 464.735H454.665C457.406 464.735 460.034 463.646 461.972 461.708C463.91 459.77 464.998 457.142 464.998 454.402V403.458C464.988 401.932 464.64 400.427 463.979 399.051C463.318 397.675 462.36 396.463 461.175 395.502Z" fill="#009FD9"/>
<path d="M363.113 364.709L382.643 344.042C384.429 342.168 386.854 341.032 389.437 340.86C392.02 340.688 394.574 341.491 396.593 343.112L461.177 394.779C462.362 395.74 463.32 396.953 463.981 398.328C464.642 399.704 464.99 401.209 465 402.736V446.239L363.113 364.709Z" fill="#00B8F0"/>
<path d="M461.175 395.502L396.592 343.835C394.573 342.214 392.019 341.41 389.436 341.582C386.852 341.755 384.428 342.89 382.642 344.765L304.005 427.432C302.312 429.196 301.3 431.504 301.149 433.945C300.997 436.386 301.717 438.801 303.178 440.762L318.058 460.602C319.021 461.885 320.269 462.927 321.704 463.644C323.139 464.361 324.721 464.735 326.325 464.735H454.665C457.406 464.735 460.034 463.646 461.972 461.708C463.91 459.77 464.998 457.142 464.998 454.402V403.458C464.988 401.932 464.64 400.427 463.979 399.051C463.318 397.675 462.36 396.463 461.175 395.502Z" stroke="#45413C" stroke-width="7" stroke-linecap="round" stroke-linejoin="round"/>
</svg>
