<svg width="495" height="495" viewBox="0 0 495 495" fill="none" xmlns="http://www.w3.org/2000/svg">
<path d="M348.734 84.9533C348.725 106.885 366.06 138.373 366.06 138.373C366.06 138.373 403.031 160.454 428.142 157.142C454.037 153.727 495.271 144.82 484.45 121.048C477.449 105.67 454.462 116.582 445.468 102.279C436.463 87.9599 457.036 71.3053 445.468 58.9653C433.128 45.8025 414.726 68.2679 399.267 58.9653C383.921 49.731 394.152 25.4037 377.61 18.5394C351.488 7.70008 348.746 56.6717 348.734 84.9533Z" fill="#FF0099" stroke="black" stroke-width="10"/>
<path d="M145.492 410.047C145.501 388.115 128.167 356.627 128.167 356.627C128.167 356.627 91.1953 334.546 66.0843 337.858C40.1891 341.273 -1.04492 350.18 9.7769 373.952C16.7773 389.33 39.7641 378.418 48.7589 392.721C57.7638 407.04 37.1901 423.695 48.7589 436.035C61.099 449.197 79.5004 426.732 94.9599 436.035C110.306 445.269 100.074 469.596 116.617 476.461C142.739 487.3 145.48 438.328 145.492 410.047Z" fill="#FF0099" stroke="black" stroke-width="10"/>
<ellipse cx="246.697" cy="246.011" rx="160.961" ry="113.037" transform="rotate(-41.6958 246.697 246.011)" fill="#FFD366" stroke="black" stroke-width="10"/>
<path d="M363.445 270C332.381 217.994 285.283 169.02 230.712 131C191.886 146.105 164.42 162.385 139.945 206C202.558 239.528 257.033 292.362 280.945 353.5C320.735 330.973 340.218 311.491 363.445 270Z" fill="#FF0099"/>
</svg>
