<svg width="495" height="495" viewBox="0 0 495 495" fill="none" xmlns="http://www.w3.org/2000/svg">
<path d="M317.828 314.46L284.416 342.82C261.258 359.181 234.956 370.559 207.175 376.232C179.434 381.933 153.172 393.309 130.038 409.645L96.8313 433.054C95.7757 433.813 94.5781 434.353 93.3098 434.64C92.0415 434.927 90.7284 434.956 89.4486 434.725C88.1689 434.494 86.9488 434.008 85.8608 433.295C84.7728 432.583 83.8392 431.659 83.1156 430.579L11.8563 327.454C10.9173 326.043 10.3823 324.403 10.3094 322.71L5.35938 260.835L316.797 246.707L321.541 306.52C321.589 308.042 321.278 309.554 320.633 310.933C319.988 312.313 319.027 313.521 317.828 314.46Z" fill="#6DD627" stroke="#45413C" stroke-width="7" stroke-linecap="round" stroke-linejoin="round"/>
<path d="M285.757 387.988C284.575 387.235 283.624 386.171 283.007 384.913C282.389 383.655 282.131 382.251 282.258 380.856C282.386 379.461 282.896 378.127 283.731 377.002C284.567 375.877 285.696 375.004 286.994 374.478C321.655 359.781 359.484 354.138 396.926 358.082C459.419 367.053 502.835 399.332 486.335 426.763C472.001 450.172 430.854 430.682 430.854 430.682C430.854 430.682 445.085 458.113 421.779 469.766C398.473 481.419 364.957 437.385 364.957 437.385C364.957 437.385 359.801 463.785 339.588 458.01C312.673 450.688 321.541 427.072 312.879 411.603C305.476 402.027 296.26 394.003 285.757 387.988Z" fill="#E5FEFF"/>
<path d="M285.757 387.988C288.644 389.947 291.944 392.113 295.141 394.485C327.06 382.451 361.365 378.106 395.276 381.8C440.754 388.4 476.126 407.478 485.613 427.794C485.878 427.468 486.119 427.123 486.335 426.763C502.835 399.641 459.419 367.053 396.926 358.082C359.484 354.138 321.655 359.781 286.994 374.478C285.696 375.004 284.567 375.877 283.731 377.002C282.896 378.127 282.386 379.461 282.258 380.856C282.131 382.251 282.389 383.655 283.007 384.913C283.624 386.171 284.575 387.235 285.757 387.988Z" fill="white"/>
<path d="M285.757 387.988C284.575 387.235 283.624 386.171 283.007 384.913C282.389 383.655 282.131 382.251 282.258 380.856C282.386 379.461 282.896 378.127 283.731 377.002C284.567 375.877 285.696 375.004 286.994 374.478C321.655 359.781 359.484 354.138 396.926 358.082C459.419 367.053 502.835 399.332 486.335 426.763C472.001 450.172 430.854 430.682 430.854 430.682C430.854 430.682 445.085 458.113 421.779 469.766C398.473 481.419 364.957 437.385 364.957 437.385C364.957 437.385 359.801 463.785 339.588 458.01C312.673 450.688 321.541 427.072 312.879 411.603C305.476 402.027 296.26 394.003 285.757 387.988V387.988Z" stroke="#45413C" stroke-width="7" stroke-linecap="round" stroke-linejoin="round"/>
<path d="M430.856 430.681C423.836 417.19 414.071 405.317 402.188 395.825L430.856 430.681Z" fill="#FFAA54"/>
<path d="M430.856 430.681C423.836 417.19 414.071 405.317 402.188 395.825" stroke="#45413C" stroke-width="7" stroke-linecap="round" stroke-linejoin="round"/>
<path d="M364.961 437.385C366.477 424.109 362.78 410.761 354.648 400.157L364.961 437.385Z" fill="#FFAA54"/>
<path d="M364.961 437.385C366.477 424.109 362.78 410.761 354.648 400.157" stroke="#45413C" stroke-width="7" stroke-linecap="round" stroke-linejoin="round"/>
<path d="M115.398 169.466C116.278 170.322 117.398 170.892 118.609 171.099C119.819 171.307 121.064 171.143 122.18 170.63C123.296 170.117 124.231 169.278 124.861 168.223C125.491 167.169 125.787 165.948 125.71 164.722C127.145 134.751 120.934 104.906 107.663 77.9944C83.0163 33.7538 46.6131 10.2413 30.9381 30.1444C17.4288 47.2631 43.4163 72.6319 43.4163 72.6319C43.4163 72.6319 18.8725 69.6412 16.6038 90.2662C14.335 110.891 56.6163 123.782 56.6163 123.782C56.6163 123.782 38.26 134.919 47.8506 148.532C60.7413 166.785 76.4163 153.379 89.9256 155.751C99.2681 158.525 107.939 163.193 115.398 169.466Z" fill="#E5FEFF"/>
<path d="M105.085 106.972C115.08 126.397 120.977 147.668 122.41 169.466C123.238 168.977 123.928 168.284 124.415 167.454C124.902 166.625 125.17 165.684 125.194 164.722C126.629 134.751 120.418 104.906 107.147 77.9944C83.0159 33.7538 46.6127 10.2413 30.9377 30.1444C28.2954 34.0393 26.8828 38.6377 26.8828 43.3444C26.8828 48.051 28.2954 52.6494 30.9377 56.5444C48.2627 41.6944 82.5002 65.0006 105.085 106.972Z" fill="white"/>
<path d="M115.398 169.466C116.278 170.322 117.398 170.892 118.609 171.099C119.819 171.307 121.064 171.143 122.18 170.63C123.296 170.117 124.231 169.278 124.861 168.223C125.491 167.169 125.787 165.948 125.71 164.722C127.145 134.751 120.934 104.906 107.663 77.9944C83.0163 33.7538 46.6131 10.2413 30.9381 30.1444C17.4288 47.2631 43.4163 72.6319 43.4163 72.6319C43.4163 72.6319 18.8725 69.6412 16.6038 90.2662C14.335 110.891 56.6163 123.782 56.6163 123.782C56.6163 123.782 38.26 134.919 47.8506 148.532C60.7413 166.785 76.4163 153.379 89.9256 155.751C99.2681 158.525 107.939 163.193 115.398 169.466V169.466Z" stroke="#45413C" stroke-width="7" stroke-linecap="round" stroke-linejoin="round"/>
<path d="M43.4141 72.6318C55.4094 74.2375 66.9142 78.4243 77.1359 84.9037L43.4141 72.6318Z" fill="#FFAA54"/>
<path d="M43.4141 72.6318C55.4094 74.2375 66.9142 78.4243 77.1359 84.9037" stroke="#45413C" stroke-width="7" stroke-linecap="round" stroke-linejoin="round"/>
<path d="M56.6172 123.781C66.0256 119.09 76.8704 118.168 86.9359 121.203L56.6172 123.781Z" fill="#FFAA54"/>
<path d="M56.6172 123.781C66.0256 119.09 76.8704 118.168 86.9359 121.203" stroke="#45413C" stroke-width="7" stroke-linecap="round" stroke-linejoin="round"/>
<path d="M119.728 194.732C91.9726 200.387 65.7012 211.766 42.5904 228.144L9.28105 251.554C7.2441 253.13 5.87106 255.412 5.43211 257.951C4.99315 260.489 5.52007 263.1 6.90917 265.269L77.8592 365.816C79.436 367.853 81.7182 369.226 84.2565 369.665C86.7948 370.104 89.4055 369.577 91.5748 368.188L124.884 344.675C148.042 328.381 174.295 317.009 202.022 311.263C229.803 305.59 256.104 294.212 279.262 277.85L312.469 254.441C314.505 252.864 315.879 250.582 316.318 248.044C316.756 245.505 316.23 242.895 314.84 240.725L243.89 140.179C242.314 138.142 240.031 136.769 237.493 136.33C234.955 135.891 232.344 136.418 230.175 137.807L196.969 161.319C173.792 177.647 147.498 189.021 119.728 194.732Z" fill="#6DD627" stroke="#45413C" stroke-width="7" stroke-linecap="round" stroke-linejoin="round"/>
<path d="M41.2479 271.251L83.8385 331.476C85.4154 333.513 87.6975 334.886 90.2358 335.325C92.7741 335.763 95.3848 335.237 97.5541 333.847L114.673 321.782C137.82 305.402 164.126 294.023 191.913 288.369C219.654 282.668 245.917 271.292 269.051 254.957L278.229 248.563C280.249 246.972 281.602 244.683 282.022 242.145C282.442 239.608 281.898 237.005 280.498 234.847L238.01 174.519C236.433 172.482 234.151 171.109 231.613 170.67C229.075 170.231 226.464 170.758 224.295 172.147L207.073 183.904C183.962 200.281 157.691 211.661 129.935 217.316C102.183 223.08 75.8989 234.45 52.6947 250.729L43.6197 257.226C41.4993 258.812 40.0703 261.153 39.6288 263.764C39.1872 266.375 39.767 269.055 41.2479 271.251Z" fill="#E4FFD1" stroke="#45413C" stroke-width="7" stroke-linecap="round" stroke-linejoin="round"/>
<path d="M188.718 242.788C192.327 253.1 182.84 265.785 167.474 271.147C152.108 276.51 136.537 272.694 133.03 262.485C129.524 252.275 138.908 239.488 154.377 234.022C169.846 228.557 185.624 232.578 188.718 242.788Z" fill="#9CEB60" stroke="#45413C" stroke-width="7" stroke-linecap="round" stroke-linejoin="round"/>
<path d="M84.6641 370.147L89.8203 434.704" stroke="#45413C" stroke-width="7" stroke-linecap="round" stroke-linejoin="round"/>
<path d="M319.688 290.122L285.347 319.203C261.17 336.303 233.711 348.207 204.703 354.163V354.163C175.719 360.037 148.285 371.91 124.162 389.019L88.1719 414.697" stroke="#45413C" stroke-width="7" stroke-linecap="round" stroke-linejoin="round"/>
<path d="M318.348 268.466L284.008 297.341C259.862 314.407 232.437 326.276 203.467 332.197V332.197C174.487 338.184 147.041 350.047 122.823 367.053L86.5234 392.938" stroke="#45413C" stroke-width="7" stroke-linecap="round" stroke-linejoin="round"/>
<path d="M87.6562 407.788L7.73438 292.185L87.6562 407.788Z" fill="#FFAA54"/>
<path d="M87.6562 407.788L7.73438 292.185" stroke="#45413C" stroke-width="7" stroke-linecap="round" stroke-linejoin="round"/>
</svg>
