<svg width="497" height="497" viewBox="0 0 497 497" fill="none" xmlns="http://www.w3.org/2000/svg">
<path d="M280.805 48.8746C280.805 48.8746 368.09 -10.5583 400.602 16.259C433.114 43.0763 388.074 153.038 388.074 153.038L280.805 48.8746Z" fill="#FFE500"/>
<path d="M294.992 71.5504C294.992 71.5504 357.117 26.5098 379.275 44.6296C401.433 62.7494 367.678 142.062 367.678 142.062L294.992 71.5504Z" fill="#FFA694"/>
<path d="M216.193 48.8746C216.193 48.8746 128.908 -10.5583 96.3956 16.259C63.8835 43.0763 108.924 153.038 108.924 153.038L216.193 48.8746Z" fill="#FFE500"/>
<path d="M400.602 38.9346C407.401 45.3863 411.445 54.2152 411.888 63.5776C413.752 42.8692 411.888 25.1636 400.602 16.259C368.09 -10.5583 280.805 48.8746 280.805 48.8746L294.99 62.5421C320.979 47.218 376.27 18.8475 400.602 38.9346Z" fill="#FFF48C"/>
<path d="M96.3975 38.9346C120.73 18.8475 175.917 47.218 202.01 62.6457L216.195 48.8746C216.195 48.8746 128.91 -10.5583 96.3975 16.259C85.5256 25.1636 82.8335 43.2834 85.1114 63.5776C85.555 54.2152 89.5985 45.3863 96.3975 38.9346Z" fill="#FFF48C"/>
<path d="M280.805 48.8746C280.805 48.8746 368.09 -10.5583 400.602 16.259C433.114 43.0763 388.074 153.038 388.074 153.038L280.805 48.8746Z" stroke="#45413C" stroke-width="7" stroke-linecap="round" stroke-linejoin="round"/>
<path d="M216.193 48.8746C216.193 48.8746 128.908 -10.5583 96.3956 16.259C63.8835 43.0763 108.924 153.038 108.924 153.038L216.193 48.8746Z" stroke="#45413C" stroke-width="7" stroke-linecap="round" stroke-linejoin="round"/>
<path d="M202.011 71.5504C202.011 71.5504 139.886 26.5098 117.728 44.6296C95.5702 62.7494 129.325 142.062 129.325 142.062L202.011 71.5504Z" fill="#FFA694"/>
<path d="M379.275 67.9264C382.767 71.1031 385.068 75.3773 385.798 80.0408C387.869 64.7166 386.937 50.9456 379.275 44.6296C357.221 26.5098 294.992 71.5504 294.992 71.5504L309.281 85.425C328.954 72.8964 363.847 55.1908 379.275 67.9264Z" fill="#FF866E"/>
<path d="M117.726 67.9264C133.154 55.1908 168.048 73.3106 187.72 85.425L202.009 71.5504C202.009 71.5504 139.884 26.5098 117.726 44.6296C110.064 50.9456 109.132 64.7166 111.203 80.0408C111.933 75.3773 114.235 71.1031 117.726 67.9264Z" fill="#FF866E"/>
<path d="M294.992 71.5504C294.992 71.5504 357.117 26.5098 379.275 44.6296C401.433 62.7494 367.678 142.062 367.678 142.062L294.992 71.5504Z" stroke="#45413C" stroke-width="7" stroke-linecap="round" stroke-linejoin="round"/>
<path d="M202.011 71.5504C202.011 71.5504 139.886 26.5098 117.728 44.6296C95.5702 62.7494 129.325 142.062 129.325 142.062L202.011 71.5504Z" stroke="#45413C" stroke-width="7" stroke-linecap="round" stroke-linejoin="round"/>
<path d="M407.23 258.34L397.497 168.155C392.888 132.094 375.137 99.0007 347.644 75.2144C320.151 51.428 284.849 38.6207 248.5 39.2455C212.151 38.6207 176.85 51.428 149.357 75.2144C121.864 99.0007 104.113 132.094 99.5039 168.155L89.771 258.34C88.7793 270.058 90.2663 281.854 94.135 292.96C98.0038 304.065 104.168 314.232 112.226 322.798C120.284 331.364 130.055 338.137 140.904 342.676C151.753 347.216 163.436 349.42 175.193 349.146H179.956C192.899 365.195 218.68 376.17 248.5 376.17C278.32 376.17 304.102 365.195 317.045 349.146H321.808C333.565 349.42 345.248 347.216 356.097 342.676C366.946 338.137 376.717 331.364 384.775 322.798C392.833 314.232 398.997 304.065 402.866 292.96C406.735 281.854 408.221 270.058 407.23 258.34Z" fill="#FFE500"/>
<path d="M99.5039 206.258C104.136 170.215 121.897 137.147 149.388 113.382C176.878 89.6169 212.167 76.824 248.5 77.4518C284.834 76.824 320.122 89.6169 347.613 113.382C375.103 137.147 392.864 170.215 397.497 206.258L405.884 283.81C407.689 275.446 408.144 266.847 407.23 258.339L397.497 168.154C392.866 132.103 375.109 99.0227 347.621 75.2406C320.133 51.4585 284.843 38.643 248.5 39.2449C212.157 38.643 176.868 51.4585 149.38 75.2406C121.892 99.0227 104.135 132.103 99.5039 168.154L89.771 258.339C88.857 266.847 89.3114 275.446 91.117 283.81L99.5039 206.258Z" fill="#FFF48C"/>
<path d="M407.23 258.34L397.497 168.155C392.888 132.094 375.137 99.0007 347.644 75.2144C320.151 51.428 284.849 38.6207 248.5 39.2455C212.151 38.6207 176.85 51.428 149.357 75.2144C121.864 99.0007 104.113 132.094 99.5039 168.155L89.771 258.34C88.7793 270.058 90.2663 281.854 94.135 292.96C98.0038 304.065 104.168 314.232 112.226 322.798C120.284 331.364 130.055 338.137 140.904 342.676C151.753 347.216 163.436 349.42 175.193 349.146H179.956C192.899 365.195 218.68 376.17 248.5 376.17C278.32 376.17 304.102 365.195 317.045 349.146H321.808C333.565 349.42 345.248 347.216 356.097 342.676C366.946 338.137 376.717 331.364 384.775 322.798C392.833 314.232 398.997 304.065 402.866 292.96C406.735 281.854 408.221 270.058 407.23 258.34V258.34Z" stroke="#45413C" stroke-width="7" stroke-linecap="round" stroke-linejoin="round"/>
<path d="M331.332 270.558L366.847 262.067" stroke="#45413C" stroke-width="7" stroke-linecap="round" stroke-linejoin="round"/>
<path d="M331.332 296.028L366.847 303.794" stroke="#45413C" stroke-width="7" stroke-linecap="round" stroke-linejoin="round"/>
<path d="M250.777 301.93C253.027 300.572 255.605 299.856 258.232 299.859C262.187 299.859 265.979 301.43 268.775 304.226C271.571 307.023 273.142 310.815 273.142 314.769C273.142 318.724 271.571 322.516 268.775 325.312C265.979 328.109 262.187 329.679 258.232 329.679" stroke="#45413C" stroke-width="7" stroke-linecap="round"/>
<path d="M258.232 329.68C260.288 329.508 262.357 329.765 264.308 330.433C266.259 331.102 268.05 332.168 269.568 333.565C271.086 334.961 272.298 336.658 273.127 338.546C273.956 340.435 274.384 342.475 274.384 344.538C274.384 346.601 273.956 348.641 273.127 350.53C272.298 352.418 271.086 354.115 269.568 355.511C268.05 356.908 266.259 357.974 264.308 358.643C262.357 359.311 260.288 359.568 258.232 359.396C255.619 359.396 253.051 358.718 250.777 357.429" stroke="#45413C" stroke-width="7" stroke-linecap="round"/>
<path d="M451.131 294.268C447.353 287.06 440.897 281.623 433.152 279.125C425.407 276.627 416.991 277.269 409.714 280.911L392.733 288.677L387.246 270.764C384.97 263.002 379.804 256.409 372.81 252.344C365.817 248.279 357.531 247.052 349.66 248.917C343.651 250.383 338.068 253.235 333.357 257.244C328.647 261.254 324.94 266.309 322.532 272.007C319.557 278.368 317.929 285.276 317.751 292.296C317.573 299.317 318.848 306.298 321.497 312.802L350.902 381.968L422.139 358.05C428.737 355.67 434.783 351.973 439.909 347.185C445.035 342.398 449.135 336.618 451.959 330.197C454.628 324.557 455.943 318.372 455.799 312.135C455.655 305.897 454.056 299.779 451.131 294.268Z" fill="#FF6242"/>
<path d="M334.957 281.636C342.892 279.583 351.317 280.748 358.396 284.879C365.475 289.011 370.635 295.772 372.75 303.691L377.927 321.396L395.012 313.734C402.289 310.091 410.705 309.45 418.45 311.948C426.195 314.446 432.65 319.883 436.428 327.091C439.52 332.806 441.056 339.233 440.881 345.728C445.477 341.141 449.227 335.778 451.96 329.887C454.595 324.274 455.891 318.127 455.747 311.928C455.604 305.73 454.023 299.649 451.131 294.165C447.353 286.957 440.898 281.519 433.153 279.022C425.408 276.524 416.992 277.165 409.714 280.808L392.734 288.574L387.246 270.661C384.95 262.918 379.774 256.349 372.783 252.304C365.792 248.26 357.517 247.048 349.66 248.917C343.651 250.383 338.068 253.235 333.358 257.244C328.647 261.254 324.94 266.309 322.532 272.007C319.938 277.797 318.395 284.003 317.977 290.334C322.77 285.986 328.629 282.986 334.957 281.636Z" fill="#FF866E"/>
<path d="M451.131 294.268C447.353 287.06 440.897 281.623 433.152 279.125C425.407 276.627 416.991 277.269 409.714 280.911L392.733 288.677L387.246 270.764C384.97 263.002 379.804 256.409 372.81 252.344C365.817 248.279 357.531 247.052 349.66 248.917C343.651 250.383 338.068 253.235 333.357 257.244C328.647 261.254 324.94 266.309 322.532 272.007C319.557 278.368 317.929 285.276 317.751 292.296C317.573 299.317 318.848 306.298 321.497 312.802L350.902 381.968L422.139 358.05C428.737 355.67 434.783 351.973 439.909 347.185C445.035 342.398 449.135 336.618 451.959 330.197C454.628 324.557 455.943 318.372 455.799 312.135C455.655 305.897 454.056 299.779 451.131 294.268V294.268Z" stroke="#45413C" stroke-width="7" stroke-linecap="round" stroke-linejoin="round"/>
<path d="M335.165 212.471C335.165 217.276 333.256 221.885 329.858 225.283C326.46 228.681 321.851 230.59 317.046 230.59C312.24 230.59 307.631 228.681 304.233 225.283C300.835 221.885 298.926 217.276 298.926 212.471" stroke="#45413C" stroke-width="7" stroke-linecap="round" stroke-linejoin="round"/>
<path d="M198.076 212.471C198.076 217.276 196.166 221.885 192.768 225.283C189.37 228.681 184.761 230.59 179.956 230.59C175.15 230.59 170.541 228.681 167.143 225.283C163.745 221.885 161.836 217.276 161.836 212.471" stroke="#45413C" stroke-width="7" stroke-linecap="round" stroke-linejoin="round"/>
<path d="M174.881 271.489L118.762 262.896" stroke="#45413C" stroke-width="7" stroke-linecap="round" stroke-linejoin="round"/>
<path d="M174.881 296.961L118.762 304.727" stroke="#45413C" stroke-width="7" stroke-linecap="round" stroke-linejoin="round"/>
<path d="M276.248 278.738C274.586 284.978 271.021 290.546 266.047 294.666C261.074 298.785 254.94 301.252 248.499 301.724C242.058 301.252 235.924 298.785 230.951 294.666C225.978 290.546 222.412 284.978 220.75 278.738C220.75 271.593 233.175 265.898 248.499 265.898C263.823 265.898 276.248 271.593 276.248 278.738Z" fill="#FF866E"/>
<path d="M248.499 281.43C256.964 281.028 265.348 283.232 272.521 287.746C274.592 285.157 275.884 282.033 276.248 278.738C276.248 271.593 263.823 265.898 248.499 265.898C233.175 265.898 220.75 271.593 220.75 278.738C221.114 282.033 222.407 285.157 224.478 287.746C231.65 283.232 240.034 281.028 248.499 281.43Z" fill="#FFA694"/>
<path d="M276.248 278.738C274.586 284.978 271.021 290.546 266.047 294.666C261.074 298.785 254.94 301.252 248.499 301.724C242.058 301.252 235.924 298.785 230.951 294.666C225.978 290.546 222.412 284.978 220.75 278.738C220.75 271.593 233.175 265.898 248.499 265.898C263.823 265.898 276.248 271.593 276.248 278.738Z" stroke="#45413C" stroke-width="7" stroke-linecap="round" stroke-linejoin="round"/>
</svg>
