<svg width="496" height="496" viewBox="0 0 496 496" fill="none" xmlns="http://www.w3.org/2000/svg">
<path d="M145.906 79.6935L138.879 166.804H171.119L175.666 79.9002C176.17 66.9132 181.66 54.62 190.993 45.5753C200.326 36.5306 212.786 31.43 225.782 31.3335C238.791 31.3457 251.297 36.3647 260.705 45.3494C270.113 54.3342 275.702 66.5954 276.312 79.5902L280.446 166.494H312.686L305.659 79.3835C304.049 59.2994 294.937 40.5574 280.137 26.8863C265.336 13.2151 245.931 5.617 225.782 5.60352C205.577 5.599 186.117 13.2321 171.304 26.9726C156.49 40.713 147.418 59.5451 145.906 79.6935Z" fill="#F7E5C6"/>
<path d="M145.905 107.593C147.196 91.3179 153.43 75.826 163.773 63.1935C174.115 50.5609 188.071 41.3912 203.772 36.9131C210.59 33.4463 218.132 31.6394 225.782 31.6394C233.431 31.6394 240.973 33.4463 247.792 36.9131C263.492 41.3912 277.448 50.5609 287.79 63.1935C298.133 75.826 304.367 91.3179 305.658 107.593L309.998 166.803H312.272L305.245 79.6931C303.791 59.5012 294.745 40.609 279.925 26.8177C265.105 13.0263 245.612 5.35938 225.368 5.35938C205.124 5.35937 185.631 13.0263 170.811 26.8177C155.992 40.609 146.945 59.5012 145.492 79.6931L138.465 166.803H140.738L145.905 107.593Z" fill="#FFF5E3"/>
<path d="M363.218 166.803H116.148C108.28 166.809 100.602 169.217 94.1394 173.704C87.6766 178.191 82.7373 184.543 79.9815 191.913C76.8815 200.283 73.7815 208.653 72.3348 213.613C61.75 248.38 55.6386 284.354 54.1482 320.666L52.3915 364.583C52.1543 369.795 52.9751 375.001 54.8043 379.888C56.6335 384.775 59.4333 389.24 63.0348 393.016C66.6364 396.791 70.9652 399.798 75.7602 401.855C80.5552 403.912 85.7171 404.977 90.9348 404.986H298.428C308.407 404.969 317.995 401.102 325.194 394.191C332.393 387.281 336.649 377.859 337.075 367.889L338.935 320.666C340.882 271.255 351.37 222.555 369.935 176.723C370.348 175.624 370.492 174.443 370.355 173.277C370.217 172.112 369.802 170.996 369.144 170.025C368.486 169.053 367.604 168.253 366.573 167.692C365.542 167.132 364.392 166.827 363.218 166.803Z" fill="#947746" stroke="#45413C" stroke-width="7" stroke-linecap="round" stroke-linejoin="round"/>
<path d="M69.1315 224.773C60.5434 256.072 55.5171 288.24 54.1482 320.667L52.3915 364.583C52.1543 369.796 52.9751 375.002 54.8043 379.889C56.6335 384.775 59.4333 389.241 63.0348 393.016C66.6364 396.792 70.9652 399.799 75.7602 401.856C80.5552 403.913 85.7171 404.978 90.9348 404.987H287.268L301.838 224.773H69.1315Z" fill="#DEBB7E"/>
<path d="M298.115 267.347L301.525 224.773H69.1281C65.3048 238.827 62.3081 253.087 59.8281 267.347H298.115Z" fill="#B89558"/>
<path d="M69.1315 224.773C60.5434 256.072 55.5171 288.24 54.1482 320.667L52.3915 364.583C52.1543 369.796 52.9751 375.002 54.8043 379.889C56.6335 384.775 59.4333 389.241 63.0348 393.016C66.6364 396.792 70.9652 399.799 75.7602 401.856C80.5552 403.913 85.7171 404.978 90.9348 404.987H287.268L301.838 224.773H69.1315Z" stroke="#45413C" stroke-width="7" stroke-linecap="round" stroke-linejoin="round"/>
<path d="M357.119 166.803C367.132 166.849 376.917 169.803 385.282 175.306C393.648 180.81 400.234 188.626 404.239 197.803C412.618 216.136 419.73 235.021 425.526 254.327C431.924 279.426 435.698 305.121 436.789 331L438.132 364.893C438.341 370.098 437.496 375.29 435.647 380.159C433.799 385.029 430.985 389.474 427.376 393.228C423.766 396.983 419.435 399.969 414.642 402.007C409.849 404.046 404.694 405.094 399.486 405.09H192.095C182.109 405.098 172.507 401.24 165.302 394.324C158.097 387.408 153.849 377.972 153.449 367.993L151.589 320.667C150.469 293.231 146.732 265.965 140.429 239.24C137.949 228.907 134.849 211.857 132.265 196.77C131.616 193.065 131.787 189.263 132.765 185.631C133.744 181.999 135.508 178.626 137.931 175.749C140.355 172.872 143.38 170.562 146.793 168.981C150.206 167.399 153.924 166.586 157.685 166.597L357.119 166.803Z" fill="#DEBB7E"/>
<path d="M135.471 214.956C137.735 211.076 140.98 207.86 144.879 205.629C148.778 203.398 153.195 202.231 157.688 202.246H357.121C367.135 202.291 376.919 205.245 385.284 210.749C393.65 216.253 400.236 224.069 404.241 233.246C412.599 251.552 419.711 270.401 425.528 289.666C431.919 314.767 435.693 340.461 436.791 366.339V375.329C437.6 371.947 437.948 368.471 437.824 364.996L436.791 330.999C435.701 305.121 431.926 279.425 425.528 254.326C419.733 235.021 412.62 216.135 404.241 197.803C400.236 188.625 393.65 180.809 385.284 175.306C376.919 169.802 367.135 166.848 357.121 166.803H157.688C153.957 166.799 150.27 167.607 146.883 169.17C143.496 170.733 140.489 173.014 138.071 175.855C135.652 178.696 133.881 182.028 132.879 185.622C131.877 189.215 131.668 192.984 132.268 196.666C133.301 202.763 134.334 208.963 135.471 214.956Z" fill="#F0D5A8"/>
<path d="M357.119 166.803C367.132 166.849 376.917 169.803 385.282 175.306C393.648 180.81 400.234 188.626 404.239 197.803C412.618 216.136 419.73 235.021 425.526 254.327C431.924 279.426 435.698 305.121 436.789 331L438.132 364.893C438.341 370.098 437.496 375.29 435.647 380.159C433.799 385.029 430.985 389.474 427.376 393.228C423.766 396.983 419.435 399.969 414.642 402.007C409.849 404.046 404.694 405.094 399.486 405.09H192.095C182.109 405.098 172.507 401.24 165.302 394.324C158.097 387.408 153.849 377.972 153.449 367.993L151.589 320.667C150.469 293.231 146.732 265.965 140.429 239.24C137.949 228.907 134.849 211.857 132.265 196.77C131.616 193.065 131.787 189.263 132.765 185.631C133.744 181.999 135.508 178.626 137.931 175.749C140.355 172.872 143.38 170.562 146.793 168.981C150.206 167.399 153.924 166.586 157.685 166.597L357.119 166.803Z" stroke="#45413C" stroke-width="7" stroke-linecap="round" stroke-linejoin="round"/>
<path d="M223.303 218.366H195.3C190.066 218.331 184.966 216.713 180.669 213.725C176.372 210.738 173.079 206.52 171.223 201.626L158.203 166.803H222.58L235.393 200.903C236.128 202.857 236.378 204.961 236.122 207.033C235.866 209.105 235.112 211.085 233.923 212.802C232.735 214.519 231.147 215.922 229.298 216.891C227.448 217.86 225.391 218.366 223.303 218.366Z" fill="#E8F4FA" stroke="#45413C" stroke-width="7" stroke-linecap="round" stroke-linejoin="round"/>
<path d="M358.464 218.366H330.667C325.433 218.331 320.333 216.713 316.036 213.725C311.739 210.738 308.446 206.52 306.59 201.626L293.57 166.803H357.947L370.657 200.903C371.422 202.865 371.691 204.985 371.441 207.076C371.191 209.167 370.43 211.164 369.224 212.891C368.018 214.617 366.406 216.02 364.529 216.975C362.652 217.93 360.569 218.408 358.464 218.366Z" fill="#E8F4FA" stroke="#45413C" stroke-width="7" stroke-linecap="round" stroke-linejoin="round"/>
<path d="M145.906 79.6935L138.879 166.804H171.119L175.666 79.9002C176.17 66.9132 181.66 54.62 190.993 45.5753C200.326 36.5306 212.786 31.43 225.782 31.3335V31.3335C238.791 31.3457 251.297 36.3647 260.705 45.3494C270.113 54.3342 275.702 66.5954 276.312 79.5902L280.446 166.494H312.686L305.659 79.3835C304.049 59.2994 294.937 40.5574 280.137 26.8863C265.336 13.2151 245.931 5.617 225.782 5.60352V5.60352C205.577 5.599 186.117 13.2321 171.304 26.9726C156.49 40.713 147.418 59.5451 145.906 79.6935V79.6935Z" stroke="#45413C" stroke-width="7" stroke-linecap="round" stroke-linejoin="round"/>
<path d="M190.34 166.803L209.663 218.366" stroke="#45413C" stroke-width="7" stroke-linecap="round" stroke-linejoin="round"/>
<path d="M325.5 166.803L344.823 218.366" stroke="#45413C" stroke-width="7" stroke-linecap="round" stroke-linejoin="round"/>
<path d="M178.044 79.6929L171.121 166.803H203.258L207.391 79.8996C207.927 66.7784 213.539 54.3786 223.044 45.3172C232.549 36.2558 245.203 31.2416 258.334 31.3329C271.354 31.3439 283.871 36.3594 293.296 45.3417C302.72 54.324 308.331 66.5857 308.968 79.5896L313.101 166.493H345.238L338.314 79.3829C336.606 59.3454 327.441 40.6785 312.631 27.0739C297.821 13.4694 278.445 5.91788 258.334 5.91292C238.115 5.82224 218.607 13.3738 203.718 27.0551C188.83 40.7365 179.66 59.5376 178.044 79.6929Z" fill="#F7E5C6"/>
<path d="M178.044 107.593C179.343 91.3045 185.592 75.8031 195.954 63.1691C206.316 50.535 220.295 41.373 236.014 36.9128C242.815 33.4469 250.34 31.6401 257.973 31.6401C265.606 31.6401 273.13 33.4469 279.931 36.9128C295.636 41.3993 309.599 50.5687 319.957 63.1975C330.315 75.8263 336.574 91.3136 337.901 107.593L342.654 166.803H344.824L337.901 79.6928C336.285 59.6042 327.163 40.8609 312.352 27.1936C297.541 13.5264 278.126 5.9375 257.973 5.9375C237.819 5.9375 218.405 13.5264 203.594 27.1936C188.782 40.8609 179.661 59.6042 178.044 79.6928L171.121 166.803H173.291L178.044 107.593Z" fill="#FFF5E3"/>
<path d="M178.044 79.6929L171.121 166.803H203.258L207.391 79.8996C207.927 66.7784 213.539 54.3786 223.044 45.3172C232.549 36.2558 245.203 31.2416 258.334 31.3329V31.3329C271.354 31.3439 283.871 36.3594 293.296 45.3417C302.72 54.324 308.331 66.5857 308.968 79.5896L313.101 166.493H345.238L338.314 79.3829C336.606 59.3454 327.441 40.6785 312.631 27.0739C297.821 13.4694 278.445 5.91788 258.334 5.91292C238.115 5.82224 218.607 13.3738 203.718 27.0551C188.83 40.7365 179.66 59.5376 178.044 79.6929V79.6929Z" stroke="#45413C" stroke-width="7" stroke-linecap="round" stroke-linejoin="round"/>
</svg>
