<svg width="495" height="495" viewBox="0 0 495 495" fill="none" xmlns="http://www.w3.org/2000/svg">
<path d="M348.727 84.9533C348.717 106.885 366.052 138.373 366.052 138.373C366.052 138.373 403.023 160.454 428.134 157.142C454.03 153.727 495.264 144.82 484.442 121.048C477.441 105.67 454.455 116.582 445.46 102.279C436.455 87.9599 457.029 71.3053 445.46 58.9653C433.12 45.8025 414.718 68.2679 399.259 58.9653C383.913 49.731 394.144 25.4037 377.602 18.5394C351.48 7.70008 348.738 56.6717 348.727 84.9533Z" fill="#FF0099" stroke="black" stroke-width="10"/>
<path d="M145.484 410.047C145.494 388.115 128.159 356.627 128.159 356.627C128.159 356.627 91.1875 334.546 66.0765 337.858C40.1813 341.273 -1.05273 350.18 9.76909 373.952C16.7695 389.33 39.7563 378.418 48.7511 392.721C57.756 407.04 37.1823 423.695 48.7511 436.035C61.0912 449.197 79.4926 426.732 94.9521 436.035C110.298 445.269 100.066 469.596 116.609 476.461C142.731 487.3 145.473 438.328 145.484 410.047Z" fill="#FF0099" stroke="black" stroke-width="10"/>
<ellipse cx="246.69" cy="246.011" rx="160.961" ry="113.037" transform="rotate(-41.6958 246.69 246.011)" fill="#FFD366" stroke="black" stroke-width="10"/>
<path d="M363.445 270C332.381 217.994 285.283 169.02 230.712 131C191.886 146.105 164.42 162.385 139.945 206C202.558 239.528 257.033 292.362 280.945 353.5C320.735 330.973 340.218 311.491 363.445 270Z" fill="#FF0099"/>
</svg>
