<svg width="587" height="495" viewBox="0 0 587 495" fill="none" xmlns="http://www.w3.org/2000/svg">
<path d="M30.0859 16H557.284V478.668H30.0859V16Z" fill="white"/>
<path d="M512.034 445.903H75.3418C69.3462 445.947 63.4004 444.945 57.85 442.955C52.2995 440.965 47.2549 438.027 43.0094 434.311C38.7639 430.596 35.4021 426.177 33.1192 421.311C30.8364 416.446 29.6781 411.231 29.7116 405.969V439.064C29.6781 444.326 30.8364 449.541 33.1192 454.406C35.4021 459.272 38.7639 463.691 43.0094 467.406C47.2549 471.122 52.2995 474.06 57.85 476.05C63.4004 478.04 69.3462 479.042 75.3418 478.998H512.034C524.035 478.998 535.546 474.814 544.032 467.366C552.519 459.919 557.287 449.817 557.287 439.284V406.189C557.287 411.405 556.116 416.569 553.842 421.387C551.568 426.206 548.234 430.584 544.032 434.271C539.83 437.959 534.842 440.884 529.351 442.88C523.861 444.876 517.976 445.903 512.034 445.903Z" fill="#F0F0F0"/>
<path d="M30.0859 16H557.284V478.668H30.0859V16Z" stroke="#45413C" stroke-width="7" stroke-linecap="round" stroke-linejoin="round"/>
<path d="M67.793 49.0957H519.695V445.684H67.793V49.0957Z" fill="#BF8DF2"/>
<path d="M67.793 49.0957H519.695V445.684H67.793V49.0957Z" stroke="#45413C" stroke-width="7" stroke-linecap="round" stroke-linejoin="round"/>
<path d="M67.4141 273.92H519.944V432.335C519.944 434.073 519.554 435.794 518.796 437.4C518.038 439.007 516.927 440.466 515.526 441.695C514.126 442.924 512.463 443.9 510.633 444.565C508.802 445.23 506.841 445.572 504.86 445.572H82.8755C80.8631 445.617 78.861 445.307 76.9871 444.661C75.1132 444.016 73.4055 443.048 71.9647 441.814C70.5238 440.58 69.3788 439.106 68.5973 437.478C67.8157 435.85 67.4134 434.101 67.4141 432.335V273.92Z" fill="#6DD627"/>
<path d="M504.48 412.81H82.8727C80.8389 412.855 78.8158 412.538 76.9251 411.879C75.0344 411.22 73.3152 410.232 71.8708 408.975C70.4264 407.718 69.2867 406.217 68.5203 404.563C67.7539 402.909 67.3767 401.137 67.4112 399.352V432.447C67.3586 434.236 67.7236 436.016 68.4836 437.677C69.2436 439.338 70.3827 440.845 71.8308 442.106C73.2789 443.366 75.0054 444.353 76.9043 445.007C78.8032 445.66 80.8342 445.966 82.8727 445.905H504.48C506.466 445.92 508.435 445.587 510.272 444.927C512.11 444.267 513.78 443.293 515.184 442.061C516.588 440.828 517.698 439.363 518.45 437.75C519.203 436.138 519.581 434.41 519.565 432.667V399.572C519.565 401.311 519.174 403.032 518.416 404.638C517.658 406.244 516.547 407.704 515.146 408.933C513.746 410.162 512.083 411.137 510.253 411.803C508.423 412.468 506.461 412.81 504.48 412.81Z" fill="#46B000"/>
<path d="M443.386 177.063C432.651 177.063 422.355 173.32 414.765 166.659C407.174 159.997 402.909 150.962 402.909 141.541C402.909 132.12 407.174 123.085 414.765 116.423C422.355 109.761 432.651 106.019 443.386 106.019C445.185 105.909 446.991 105.909 448.791 106.019C437.962 98.2813 424.416 94.0715 410.452 94.1047C399.533 94.1451 388.825 96.7477 379.438 101.643C370.051 106.538 362.327 113.547 357.066 121.944C351.805 130.341 349.199 139.82 349.518 149.398C349.837 158.977 353.07 168.306 358.881 176.419C364.691 184.532 372.869 191.133 382.566 195.538C392.262 199.944 403.125 201.993 414.028 201.474C424.931 200.954 435.477 197.885 444.574 192.584C453.67 187.283 460.985 179.944 465.761 171.326C459.105 175.123 451.324 177.117 443.386 177.063Z" fill="#FFE500" stroke="#45413C" stroke-width="7" stroke-linecap="round" stroke-linejoin="round"/>
<path d="M67.4141 273.92H519.944V432.334C519.944 434.073 519.554 435.794 518.796 437.4C518.038 439.007 516.927 440.466 515.526 441.695C514.126 442.924 512.463 443.9 510.633 444.565C508.802 445.23 506.841 445.572 504.86 445.572H82.8755C80.8631 445.617 78.861 445.307 76.9871 444.661C75.1132 444.016 73.4055 443.048 71.9647 441.814C70.5238 440.58 69.3788 439.106 68.5973 437.478C67.8157 435.85 67.4134 434.101 67.4141 432.334V273.92Z" stroke="#45413C" stroke-width="7" stroke-linecap="round" stroke-linejoin="round"/>
<path d="M293.68 228.47L260.746 386.333L366.714 344.743C367.698 344.366 368.577 343.806 369.29 343.101C370.003 342.397 370.534 341.564 370.845 340.662C371.155 339.76 371.239 338.809 371.09 337.876C370.941 336.943 370.563 336.049 369.982 335.256L293.68 228.47Z" fill="#FFAA54" stroke="#45413C" stroke-width="7" stroke-linecap="round" stroke-linejoin="round"/>
<path d="M293.677 228.469L164.831 201.993C163.857 201.799 162.848 201.776 161.864 201.926C160.879 202.077 159.939 202.397 159.097 202.869C158.254 203.341 157.528 203.956 156.958 204.676C156.389 205.397 155.989 206.21 155.781 207.068C153.895 215.452 149.37 232.992 139.313 266.528C131.786 292.613 121.081 317.911 107.385 341.985C106.879 342.855 106.602 343.814 106.576 344.791C106.55 345.767 106.775 346.736 107.233 347.627C107.692 348.517 108.374 349.305 109.227 349.932C110.08 350.56 111.083 351.011 112.162 351.251L260.742 386.332L293.677 228.469Z" fill="#FF8A14"/>
<path d="M284.505 272.487L293.681 228.36L164.962 201.884C163.979 201.673 162.957 201.638 161.958 201.78C160.959 201.922 160.003 202.24 159.147 202.713C158.291 203.187 157.552 203.807 156.974 204.536C156.397 205.266 155.992 206.089 155.785 206.959C154.277 213.688 151.009 226.375 144.598 248.548L284.505 272.487Z" fill="#FFAA54"/>
<path d="M293.677 228.469L164.831 201.993C163.857 201.799 162.848 201.776 161.864 201.926C160.879 202.077 159.939 202.397 159.097 202.869C158.254 203.341 157.528 203.956 156.958 204.676C156.389 205.397 155.989 206.21 155.781 207.068C153.895 215.452 149.37 232.992 139.313 266.528C131.786 292.613 121.081 317.911 107.385 341.985C106.879 342.855 106.602 343.814 106.576 344.791C106.55 345.767 106.775 346.737 107.233 347.627C107.692 348.517 108.374 349.305 109.227 349.932C110.08 350.56 111.083 351.011 112.162 351.251L260.742 386.332L293.677 228.469Z" stroke="#45413C" stroke-width="7" stroke-linecap="round" stroke-linejoin="round"/>
<path d="M293.688 228.47L319.708 363.166" stroke="#45413C" stroke-width="7" stroke-linecap="round" stroke-linejoin="round"/>
</svg>
