<svg width="495" height="495" viewBox="0 0 495 495" fill="none" xmlns="http://www.w3.org/2000/svg">
<path d="M109.958 318.403L199.986 289.115L290.117 318.712C304.561 322.663 317.381 331.089 326.737 342.78C336.094 354.471 341.505 368.826 342.195 383.784V443.803H57.8797V383.475C58.5696 368.516 63.9812 354.162 73.3377 342.471C82.6942 330.78 95.5144 322.354 109.958 318.403Z" fill="white"/>
<path d="M109.958 318.403L199.986 289.115L290.117 318.712C304.561 322.663 317.381 331.089 326.737 342.78C336.094 354.471 341.505 368.826 342.195 383.784V414.721C341.505 399.763 336.094 385.408 326.737 373.717C317.381 362.026 304.561 353.601 290.117 349.65L199.986 320.053L109.958 349.65C95.6103 353.693 82.9035 362.158 73.6459 373.841C64.3884 385.524 59.0516 399.83 58.3953 414.721V383.784C58.9878 368.838 64.2953 354.463 73.5577 342.719C82.82 330.974 95.5618 322.462 109.958 318.403Z" fill="#E0E0E0"/>
<path d="M109.958 318.403L199.986 289.115L290.117 318.712C304.561 322.663 317.381 331.089 326.737 342.78C336.094 354.471 341.505 368.826 342.195 383.784V443.803H57.8797V383.475C58.5696 368.516 63.9812 354.162 73.3377 342.471C82.6942 330.78 95.5144 322.354 109.958 318.403V318.403Z" stroke="#45413C" stroke-width="7" stroke-linecap="round" stroke-linejoin="round"/>
<path d="M115.32 443.803V327.271" stroke="#45413C" stroke-width="7" stroke-linecap="round" stroke-linejoin="round"/>
<path d="M284.648 443.803V327.271" stroke="#45413C" stroke-width="7" stroke-linecap="round" stroke-linejoin="round"/>
<path d="M263.82 386.156H216.898V411.938H263.82V386.156Z" fill="#FF6242" stroke="#45413C" stroke-width="7" stroke-linecap="round" stroke-linejoin="round"/>
<path d="M162.137 399.047C162.137 402.466 160.779 405.744 158.361 408.162C155.944 410.579 152.665 411.938 149.246 411.938C145.827 411.938 142.548 410.579 140.131 408.162C137.714 405.744 136.355 402.466 136.355 399.047C136.355 395.628 137.714 392.349 140.131 389.932C142.548 387.514 145.827 386.156 149.246 386.156C152.665 386.156 155.944 387.514 158.361 389.932C160.779 392.349 162.137 395.628 162.137 399.047Z" fill="#009FD9" stroke="#45413C" stroke-width="7" stroke-linecap="round" stroke-linejoin="round"/>
<path d="M293.828 310.153C293.828 320.628 283.941 330.675 266.342 338.082C248.743 345.489 224.873 349.65 199.984 349.65C175.095 349.65 151.226 345.489 133.627 338.082C116.028 330.675 106.141 320.628 106.141 310.153C106.141 299.678 116.028 289.632 133.627 282.225C151.226 274.818 175.095 270.656 199.984 270.656C224.873 270.656 248.743 274.818 266.342 282.225C283.941 289.632 293.828 299.678 293.828 310.153Z" fill="white"/>
<path d="M199.985 270.656C245.36 270.656 283.207 284.166 291.973 302.213C283.207 320.156 245.36 333.769 199.985 333.769C154.61 333.769 116.866 320.053 108.101 302.213C116.866 284.166 154.507 270.656 199.985 270.656Z" fill="#E0E0E0"/>
<path d="M293.828 310.153C293.828 320.628 283.941 330.675 266.342 338.082C248.743 345.489 224.873 349.65 199.984 349.65C175.095 349.65 151.226 345.489 133.627 338.082C116.028 330.675 106.141 320.628 106.141 310.153C106.141 299.678 116.028 289.632 133.627 282.225C151.226 274.818 175.095 270.656 199.984 270.656C224.873 270.656 248.743 274.818 266.342 282.225C283.941 289.632 293.828 299.678 293.828 310.153V310.153Z" stroke="#45413C" stroke-width="7" stroke-linecap="round" stroke-linejoin="round"/>
<path d="M264.852 304.482C264.852 306.472 263.174 308.444 259.914 310.283C256.654 312.122 251.876 313.793 245.853 315.201C239.83 316.609 232.679 317.725 224.809 318.487C216.939 319.249 208.504 319.641 199.986 319.641C191.468 319.641 183.033 319.249 175.163 318.487C167.293 317.725 160.142 316.609 154.119 315.201C148.096 313.793 143.318 312.122 140.058 310.283C136.798 308.444 135.12 306.472 135.12 304.482C135.12 302.491 136.798 300.52 140.058 298.68C143.318 296.841 148.096 295.17 154.119 293.762C160.142 292.355 167.293 291.238 175.163 290.476C183.033 289.714 191.468 289.322 199.986 289.322C208.504 289.322 216.939 289.714 224.809 290.476C232.679 291.238 239.83 292.355 245.853 293.762C251.876 295.17 256.654 296.841 259.914 298.68C263.174 300.52 264.852 302.491 264.852 304.482Z" fill="#656769" stroke="#45413C" stroke-width="7" stroke-linecap="round" stroke-linejoin="round"/>
<path d="M226.695 318.3C209.244 320.086 191.656 320.086 174.205 318.3V284.784H226.695V318.3Z" fill="#FFCEBF" stroke="#45413C" stroke-width="7" stroke-linecap="round" stroke-linejoin="round"/>
<path d="M331.133 353.169L355.699 288.259C357.19 284.32 357.055 279.95 355.323 276.11C353.592 272.27 350.407 269.276 346.467 267.785C344.446 267.02 342.205 267.089 340.235 267.977C338.265 268.866 336.729 270.5 335.964 272.521L317.202 322.095C314.943 328.064 315.14 334.685 317.751 340.509C320.362 346.332 325.173 350.885 331.133 353.169Z" fill="#E0E0E0"/>
<path d="M331.133 353.169L355.699 288.259C357.19 284.32 357.055 279.95 355.323 276.11C353.592 272.27 350.407 269.276 346.467 267.785C344.446 267.02 342.205 267.089 340.235 267.977C338.265 268.866 336.729 270.5 335.964 272.521L317.202 322.095C314.943 328.064 315.14 334.685 317.751 340.509C320.362 346.332 325.173 350.885 331.133 353.169Z" stroke="#45413C" stroke-width="7" stroke-linecap="round" stroke-linejoin="round"/>
<path d="M448 418.95C448 421.056 447.163 423.076 445.674 424.565C444.185 426.054 442.165 426.891 440.059 426.891H432.944C431.712 432.665 429.987 438.324 427.788 443.803H220.3C218.1 438.324 216.375 432.665 215.144 426.891H208.028C206.977 426.904 205.933 426.709 204.958 426.316C203.982 425.923 203.095 425.34 202.346 424.602C201.598 423.863 201.004 422.983 200.599 422.013C200.193 421.042 199.984 420.001 199.984 418.95V387.497C199.984 386.445 200.193 385.404 200.599 384.434C201.004 383.464 201.598 382.584 202.346 381.845C203.095 381.106 203.982 380.524 204.958 380.131C205.933 379.738 206.977 379.543 208.028 379.556H215.144C220.486 354.639 234.212 332.308 254.03 316.289C273.848 300.269 298.561 291.53 324.044 291.53C349.527 291.53 374.239 300.269 394.058 316.289C413.876 332.308 427.601 354.639 432.944 379.556H440.059C442.165 379.556 444.185 380.393 445.674 381.882C447.163 383.371 448 385.391 448 387.497V418.95Z" fill="#E0E0E0"/>
<path d="M208.028 379.556H215.144C220.486 354.639 234.212 332.308 254.03 316.289C273.848 300.269 298.561 291.53 324.044 291.53C349.527 291.53 374.239 300.269 394.058 316.289C413.876 332.308 427.601 354.639 432.944 379.556H440.059C442.165 379.556 444.185 380.393 445.674 381.882C447.163 383.371 448 385.391 448 387.497V409.875C448 407.759 447.167 405.729 445.681 404.223C444.194 402.718 442.175 401.858 440.059 401.831C438.078 401.839 436.149 401.198 434.566 400.006C432.983 398.814 431.834 397.137 431.294 395.231C424.675 371.888 410.621 351.341 391.264 336.711C371.908 322.08 348.307 314.164 324.044 314.164C299.78 314.164 276.179 322.08 256.823 336.711C237.467 351.341 223.413 371.888 216.794 395.231C216.238 397.129 215.085 398.796 213.506 399.985C211.926 401.174 210.005 401.822 208.028 401.831C205.895 401.831 203.849 402.679 202.34 404.187C200.832 405.696 199.984 407.742 199.984 409.875V387.497C199.984 386.445 200.193 385.404 200.599 384.434C201.004 383.464 201.598 382.584 202.346 381.845C203.095 381.106 203.982 380.524 204.958 380.131C205.933 379.738 206.977 379.543 208.028 379.556Z" fill="white"/>
<path d="M448 418.95C448 421.056 447.163 423.076 445.674 424.565C444.185 426.054 442.165 426.891 440.059 426.891H432.944C431.712 432.665 429.987 438.324 427.787 443.803H220.3C218.1 438.324 216.375 432.665 215.144 426.891H208.028C206.977 426.904 205.933 426.709 204.958 426.316C203.982 425.923 203.095 425.34 202.346 424.602C201.598 423.863 201.004 422.983 200.599 422.013C200.193 421.042 199.984 420.001 199.984 418.95V387.497C199.984 386.445 200.193 385.404 200.599 384.434C201.004 383.464 201.598 382.584 202.346 381.845C203.095 381.106 203.982 380.524 204.958 380.131C205.933 379.738 206.977 379.543 208.028 379.556H215.144C220.486 354.639 234.212 332.308 254.03 316.289C273.848 300.269 298.561 291.53 324.044 291.53C349.527 291.53 374.239 300.269 394.058 316.289C413.876 332.308 427.601 354.639 432.944 379.556H440.059C442.165 379.556 444.185 380.393 445.674 381.882C447.163 383.371 448 385.391 448 387.497V418.95Z" stroke="#45413C" stroke-width="7" stroke-linecap="round" stroke-linejoin="round"/>
<path d="M244.637 443.803C238.487 431.788 235.144 418.534 234.86 405.04C234.575 391.546 237.357 378.163 242.995 365.9C248.632 353.636 256.98 342.812 267.407 334.243C277.835 325.673 290.072 319.582 303.195 316.427C316.319 313.273 329.987 313.138 343.17 316.032C356.354 318.926 368.708 324.774 379.304 333.135C389.899 341.497 398.459 352.154 404.338 364.303C410.218 376.452 413.263 389.778 413.246 403.275C413.108 417.416 409.571 431.316 402.934 443.803H244.637Z" fill="#00B8F0"/>
<path d="M324.045 358.416C279.702 358.416 242.989 383.991 236.08 417.3C234.223 405.192 234.882 392.831 238.018 380.99C241.153 369.148 246.696 358.08 254.301 348.477C261.906 338.874 271.409 330.942 282.218 325.177C293.026 319.412 304.907 315.938 317.119 314.971C329.33 314.005 341.61 315.566 353.191 319.559C364.771 323.551 375.404 329.889 384.426 338.176C393.447 346.463 400.663 356.521 405.622 367.722C410.581 378.923 413.177 391.026 413.248 403.275C413.357 407.969 413.046 412.662 412.32 417.3C405.102 383.991 368.389 358.416 324.045 358.416Z" fill="#4ACFFF"/>
<path d="M244.637 443.803C238.487 431.788 235.144 418.534 234.86 405.04C234.575 391.546 237.357 378.163 242.995 365.9C248.632 353.636 256.98 342.812 267.407 334.243C277.835 325.673 290.072 319.582 303.195 316.427C316.319 313.273 329.987 313.138 343.17 316.032C356.354 318.926 368.708 324.774 379.304 333.135C389.899 341.497 398.459 352.154 404.338 364.303C410.218 376.452 413.263 389.778 413.246 403.275C413.108 417.416 409.571 431.316 402.934 443.803H244.637Z" stroke="#45413C" stroke-width="7" stroke-linecap="round" stroke-linejoin="round"/>
<path d="M360.508 330.677L385.017 293.351L365.104 280.276L340.595 317.601L360.508 330.677Z" fill="#BDBEC0"/>
<path d="M375.092 286.847C377.714 288.573 379.544 291.268 380.182 294.342C380.82 297.415 380.213 300.616 378.495 303.243L369.936 316.237C370.852 314.922 371.492 313.434 371.818 311.865C372.143 310.295 372.147 308.676 371.829 307.105C371.51 305.534 370.877 304.043 369.967 302.724C369.057 301.404 367.888 300.283 366.533 299.428C363.889 297.704 360.672 297.095 357.582 297.732C354.491 298.37 351.778 300.202 350.033 302.831L358.695 289.837C359.573 288.561 360.694 287.471 361.994 286.63C363.295 285.788 364.748 285.212 366.272 284.934C367.796 284.656 369.359 284.682 370.873 285.01C372.386 285.338 373.82 285.963 375.092 286.847Z" fill="#E0E0E0"/>
<path d="M360.508 330.677L385.017 293.351L365.104 280.276L340.595 317.601L360.508 330.677Z" stroke="#45413C" stroke-width="7" stroke-linecap="round" stroke-linejoin="round"/>
<path d="M380.602 343.476L405.111 306.15L385.198 293.075L360.689 330.4L380.602 343.476Z" fill="#BDBEC0"/>
<path d="M395.201 299.428C397.83 301.174 399.663 303.887 400.3 306.977C400.938 310.068 400.328 313.285 398.605 315.928L390.045 328.922C391.768 326.282 392.372 323.067 391.724 319.982C391.077 316.897 389.23 314.196 386.59 312.473C383.951 310.75 380.735 310.146 377.651 310.794C374.566 311.442 371.865 313.289 370.142 315.928L378.701 302.934C380.431 300.289 383.137 298.435 386.228 297.778C389.32 297.121 392.546 297.714 395.201 299.428Z" fill="#E0E0E0"/>
<path d="M380.602 343.476L405.111 306.15L385.198 293.075L360.689 330.4L380.602 343.476Z" stroke="#45413C" stroke-width="7" stroke-linecap="round" stroke-linejoin="round"/>
<path d="M398.848 358.991L423.357 321.666L403.444 308.59L378.935 345.916L398.848 358.991Z" fill="#BDBEC0"/>
<path d="M413.451 315.103C416.073 316.829 417.904 319.525 418.542 322.598C419.179 325.672 418.573 328.873 416.854 331.5L408.295 344.597C409.332 343.297 410.086 341.795 410.51 340.187C410.933 338.579 411.017 336.901 410.756 335.259C410.495 333.617 409.894 332.047 408.992 330.65C408.09 329.253 406.907 328.06 405.518 327.146C404.129 326.232 402.565 325.617 400.925 325.342C399.285 325.066 397.606 325.135 395.994 325.545C394.383 325.955 392.875 326.696 391.566 327.721C390.257 328.747 389.176 330.034 388.392 331.5L396.951 318.506C397.806 317.194 398.913 316.064 400.207 315.182C401.502 314.299 402.958 313.682 404.492 313.366C406.026 313.049 407.608 313.04 409.146 313.338C410.683 313.636 412.147 314.236 413.451 315.103Z" fill="#E0E0E0"/>
<path d="M398.848 358.991L423.357 321.666L403.444 308.59L378.935 345.916L398.848 358.991Z" stroke="#45413C" stroke-width="7" stroke-linecap="round" stroke-linejoin="round"/>
<path d="M199.984 51C208.506 51.008 216.994 52.082 225.249 54.1969C244.327 58.5281 269.284 65.7469 291.868 61.4156C292.779 67.2325 292.479 73.1747 290.989 78.8706C289.498 84.5665 286.849 89.8936 283.205 94.5188C295.044 111.447 301.381 131.611 301.355 152.269V205.275H98.7148V152.269C98.7148 125.411 109.384 99.6525 128.376 80.6609C147.367 61.6694 173.125 51 199.984 51Z" fill="#A86C4D"/>
<path d="M199.985 51C208.507 51.008 216.995 52.082 225.251 54.1969C244.329 58.5281 269.285 65.7469 291.87 61.4156C293.321 72.2355 290.832 83.2165 284.857 92.3531C264.69 92.6766 244.591 89.9295 225.251 84.2063C210.288 80.3513 194.642 79.9713 179.509 83.0955C164.377 86.2197 150.16 92.7651 137.948 102.231C125.735 111.696 115.85 123.831 109.05 137.705C102.25 151.58 98.7156 166.827 98.7164 182.278V152.269C98.7164 125.411 109.386 99.6525 128.377 80.6609C147.369 61.6694 173.127 51 199.985 51Z" fill="#DE926A"/>
<path d="M199.984 51C208.506 51.008 216.994 52.082 225.249 54.1969C244.327 58.5281 269.284 65.7469 291.868 61.4156C292.779 67.2325 292.479 73.1747 290.989 78.8706C289.498 84.5665 286.849 89.8936 283.205 94.5188C295.044 111.447 301.381 131.611 301.355 152.269V205.275H98.7148V152.269C98.7148 125.411 109.384 99.6525 128.376 80.6609C147.367 61.6694 173.125 51 199.984 51Z" stroke="#45413C" stroke-width="7" stroke-linecap="round" stroke-linejoin="round"/>
<path d="M87.8856 197.541C88.3939 193.741 90.0477 190.185 92.6269 187.348C95.2061 184.511 98.5882 182.527 102.323 181.66L108.304 180.01C112.787 178.744 116.73 176.039 119.525 172.312C122.32 168.585 123.813 164.043 123.773 159.385V138.347C123.791 134.081 125.215 129.94 127.825 126.565C130.435 123.19 134.086 120.771 138.211 119.682C157.881 127.513 178.918 131.335 200.086 130.922C221.255 131.354 242.296 127.532 261.961 119.682C266.094 120.755 269.755 123.17 272.368 126.548C274.981 129.927 276.398 134.077 276.398 138.347V159.591C276.376 164.245 277.875 168.779 280.667 172.502C283.46 176.226 287.393 178.934 291.867 180.216L297.951 181.866C302.309 182.921 306.13 185.535 308.693 189.214C311.257 192.893 312.384 197.383 311.864 201.837C311.344 206.29 309.212 210.399 305.87 213.389C302.528 216.378 298.207 218.041 293.723 218.063H292.589C289.349 240.243 278.235 260.516 261.279 275.176C244.322 289.836 222.656 297.904 200.24 297.904C177.825 297.904 156.158 289.836 139.202 275.176C122.245 260.516 111.131 240.243 107.892 218.063H106.757C104.129 218.089 101.525 217.563 99.1133 216.518C96.7015 215.474 94.536 213.934 92.757 212C90.9779 210.065 89.625 207.778 88.7859 205.288C87.9467 202.797 87.64 200.158 87.8856 197.541Z" fill="#FFCEBF" stroke="#45413C" stroke-width="7" stroke-linecap="round" stroke-linejoin="round"/>
<path d="M256.085 195.375C256.106 196.974 255.649 198.544 254.773 199.882C253.897 201.221 252.642 202.267 251.168 202.889C249.694 203.511 248.068 203.679 246.498 203.372C244.928 203.064 243.486 202.296 242.354 201.165C241.223 200.034 240.455 198.591 240.148 197.021C239.841 195.452 240.009 193.826 240.63 192.352C241.252 190.878 242.299 189.623 243.637 188.747C244.976 187.871 246.545 187.414 248.145 187.434C250.251 187.434 252.27 188.271 253.76 189.76C255.249 191.249 256.085 193.269 256.085 195.375Z" fill="#45413C" stroke="#45413C" stroke-width="7" stroke-linecap="round" stroke-linejoin="round"/>
<path d="M144.193 195.375C144.193 196.945 144.659 198.481 145.531 199.786C146.404 201.092 147.644 202.11 149.095 202.711C150.546 203.312 152.142 203.469 153.683 203.163C155.223 202.857 156.638 202.1 157.748 200.99C158.859 199.879 159.615 198.464 159.922 196.924C160.228 195.384 160.071 193.787 159.47 192.336C158.869 190.885 157.851 189.645 156.545 188.773C155.239 187.9 153.704 187.434 152.134 187.434C151.087 187.42 150.048 187.616 149.079 188.01C148.109 188.405 147.228 188.989 146.488 189.729C145.748 190.469 145.163 191.35 144.769 192.32C144.375 193.29 144.179 194.328 144.193 195.375Z" fill="#45413C" stroke="#45413C" stroke-width="7" stroke-linecap="round" stroke-linejoin="round"/>
<path d="M229.27 243.74C229.921 243.765 230.561 243.923 231.148 244.205C231.735 244.488 232.258 244.888 232.684 245.382C233.11 245.875 233.429 246.451 233.622 247.074C233.816 247.696 233.879 248.352 233.807 249C232.477 256.996 228.353 264.261 222.168 269.502C215.984 274.743 208.14 277.619 200.034 277.619C191.928 277.619 184.084 274.743 177.9 269.502C171.715 264.261 167.591 256.996 166.261 249C166.173 248.349 166.224 247.687 166.412 247.058C166.599 246.429 166.917 245.846 167.346 245.349C167.775 244.852 168.304 244.452 168.899 244.174C169.494 243.897 170.142 243.749 170.798 243.74H229.27Z" fill="#FF6242"/>
<path d="M199.984 258.178C209.321 257.855 218.5 260.648 226.074 266.119C222.813 269.808 218.805 272.762 214.316 274.786C209.827 276.809 204.959 277.856 200.035 277.856C195.111 277.856 190.243 276.809 185.754 274.786C181.265 272.762 177.257 269.808 173.996 266.119C181.513 260.613 190.673 257.814 199.984 258.178Z" fill="#FFA694"/>
<path d="M229.27 243.74C229.921 243.765 230.561 243.923 231.148 244.205C231.735 244.488 232.258 244.888 232.684 245.382C233.11 245.875 233.429 246.451 233.622 247.074C233.816 247.696 233.879 248.352 233.807 249C232.477 256.996 228.353 264.261 222.168 269.502C215.984 274.743 208.14 277.619 200.034 277.619C191.928 277.619 184.084 274.743 177.9 269.502C171.715 264.261 167.591 256.996 166.261 249C166.173 248.349 166.224 247.687 166.412 247.058C166.599 246.429 166.917 245.846 167.346 245.349C167.775 244.852 168.304 244.452 168.899 244.174C169.494 243.897 170.142 243.749 170.798 243.74H229.27Z" stroke="#45413C" stroke-width="7" stroke-linecap="round" stroke-linejoin="round"/>
<path d="M271.555 229.2C271.555 230.841 270.468 232.415 268.534 233.575C266.6 234.736 263.977 235.388 261.242 235.388C258.507 235.388 255.884 234.736 253.95 233.575C252.016 232.415 250.93 230.841 250.93 229.2C250.93 227.559 252.016 225.985 253.95 224.825C255.884 223.665 258.507 223.013 261.242 223.013C263.977 223.013 266.6 223.665 268.534 224.825C270.468 225.985 271.555 227.559 271.555 229.2Z" fill="#FFB59E"/>
<path d="M149.039 229.2C149.039 230.841 147.953 232.415 146.019 233.575C144.085 234.736 141.462 235.388 138.727 235.388C135.992 235.388 133.368 234.736 131.435 233.575C129.501 232.415 128.414 230.841 128.414 229.2C128.414 227.559 129.501 225.985 131.435 224.825C133.368 223.665 135.992 223.013 138.727 223.013C141.462 223.013 144.085 223.665 146.019 224.825C147.953 225.985 149.039 227.559 149.039 229.2Z" fill="#FFB59E"/>
</svg>
