<svg width="495" height="495" viewBox="0 0 495 495" fill="none" xmlns="http://www.w3.org/2000/svg">
<path d="M355.75 150.576L428.99 79.1539L452.822 103.592L379.581 175.014L355.75 150.576Z" fill="#BF8256" stroke="#45413C" stroke-width="7" stroke-linecap="round" stroke-linejoin="round"/>
<path d="M424.358 55.8326C424.221 54.2245 423.632 52.6879 422.659 51.4001C421.686 50.1123 420.369 49.1258 418.86 48.5544C417.35 47.983 415.71 47.85 414.128 48.1707C412.547 48.4914 411.088 49.2528 409.92 50.3669L383.933 75.6326C376.869 82.1414 372.553 91.0982 371.863 100.678C371.173 110.259 374.162 119.742 380.22 127.195L429.101 79.2419C426.732 71.6194 425.143 63.7761 424.358 55.8326Z" fill="#00B8F0" stroke="#45413C" stroke-width="7" stroke-linecap="round" stroke-linejoin="round"/>
<path d="M476.128 108.942C477.752 109.099 479.297 109.717 480.581 110.722C481.866 111.728 482.836 113.08 483.378 114.619C483.92 116.158 484.011 117.819 483.64 119.408C483.269 120.996 482.452 122.446 481.284 123.586L455.297 149.367C448.649 156.304 439.588 160.419 429.99 160.861C420.392 161.302 410.991 158.036 403.734 151.739L452.512 104.198C460.211 106.544 468.121 108.132 476.128 108.942Z" fill="#00B8F0" stroke="#45413C" stroke-width="7" stroke-linecap="round" stroke-linejoin="round"/>
<path d="M218.523 200.929C216.207 189.979 211.754 179.594 205.418 170.368C199.083 161.143 190.989 153.258 181.601 147.165C172.213 141.072 161.715 136.892 150.709 134.863C139.702 132.834 128.404 132.997 117.46 135.342C59.1946 147.407 46.5103 211.242 56.204 256.926C82.5009 378.201 213.882 431.826 257.813 446.47C262.103 447.911 266.702 448.174 271.128 447.231C275.555 446.288 279.646 444.173 282.976 441.107C316.904 410.17 415.698 307.045 389.917 186.079C380.017 140.085 342.582 87.4915 284.213 99.5571C273.242 101.897 262.839 106.375 253.6 112.737C244.36 119.098 236.464 127.218 230.364 136.632C224.263 146.046 220.077 156.57 218.046 167.602C216.014 178.635 216.176 189.959 218.523 200.929Z" fill="#FF6242"/>
<path d="M297.309 140.395C280.368 143.988 264.833 152.419 252.588 164.664C240.342 176.91 231.912 192.445 228.318 209.386C227.967 210.97 227.168 212.42 226.015 213.562C224.863 214.704 223.406 215.491 221.819 215.828C220.231 216.165 218.581 216.038 217.063 215.463C215.546 214.887 214.227 213.887 213.262 212.582C203.094 198.565 189.083 187.794 172.923 181.571C156.763 175.349 139.146 173.942 122.203 177.52C80.9528 186.389 61.0496 220.111 55.9965 255.895C46.6121 210.004 59.5028 147.304 117.872 135.032C139.957 130.427 162.967 134.782 181.842 147.139C200.716 159.497 213.91 178.845 218.521 200.929C213.874 178.82 218.178 155.77 230.49 136.828C242.803 117.886 262.12 104.595 284.212 99.8668C342.168 87.4918 379.397 139.054 389.503 185.151C370.425 154.42 338.971 131.526 297.309 140.395Z" fill="#FF866E"/>
<path d="M218.523 200.929C216.207 189.979 211.754 179.594 205.418 170.368C199.083 161.143 190.989 153.258 181.601 147.165C172.213 141.072 161.715 136.892 150.709 134.863C139.702 132.834 128.404 132.997 117.46 135.342C59.1946 147.407 46.5103 211.242 56.204 256.926C82.5009 378.201 213.882 431.826 257.813 446.47C262.103 447.911 266.702 448.174 271.128 447.231C275.555 446.288 279.646 444.173 282.976 441.107C316.904 410.17 415.698 307.045 389.917 186.079C380.017 140.085 342.582 87.4915 284.213 99.5571C273.242 101.897 262.839 106.375 253.6 112.737C244.36 119.098 236.464 127.218 230.364 136.632C224.263 146.046 220.077 156.57 218.046 167.602C216.014 178.635 216.176 189.959 218.523 200.929V200.929Z" stroke="#45413C" stroke-width="7" stroke-linecap="round" stroke-linejoin="round"/>
<path d="M86.3167 446.78L131.073 432.445C133.077 431.769 134.88 430.601 136.318 429.05C137.756 427.498 138.784 425.612 139.306 423.562C139.829 421.512 139.831 419.364 139.311 417.313C138.792 415.262 137.768 413.374 136.332 411.82L117.564 392.227C116.059 390.659 114.178 389.504 112.099 388.873C110.02 388.241 107.814 388.154 105.692 388.62C103.57 389.086 101.604 390.089 99.9805 391.533C98.3574 392.977 97.1325 394.814 96.423 396.867L80.9542 441.314C80.7153 442.064 80.6854 442.866 80.8678 443.632C81.0502 444.398 81.4381 445.1 81.9896 445.662C82.5411 446.224 83.2354 446.625 83.9978 446.822C84.7603 447.019 85.562 447.004 86.3167 446.78Z" fill="#C0DCEB" stroke="#45413C" stroke-width="7" stroke-linecap="round" stroke-linejoin="round"/>
<path d="M223.784 305.602C216.826 306.37 209.784 305.595 203.159 303.333L114.781 389.546L138.603 413.986L229.044 325.711C225.572 319.579 223.76 312.648 223.784 305.602Z" fill="#BF8256" stroke="#45413C" stroke-width="7" stroke-linecap="round" stroke-linejoin="round"/>
<path d="M189.648 289.308C189.648 299.62 205.633 307.251 223.783 305.601C223.783 327.464 246.883 351.801 259.98 344.067" stroke="#45413C" stroke-width="7" stroke-linecap="round" stroke-linejoin="round"/>
<path d="M66.5165 122.245C48.7974 125.917 33.2611 136.474 23.3218 151.596C13.3826 166.717 9.85353 185.167 13.5102 202.889" stroke="#45413C" stroke-width="7" stroke-linecap="round" stroke-linejoin="round"/>
<path d="M74.4594 92.7515C69.7808 90.8727 64.7777 89.9345 59.7362 89.9907C54.6948 90.0468 49.7138 91.0962 45.0782 93.0788C40.4426 95.0614 36.2433 97.9383 32.7204 101.545C29.1974 105.152 26.42 109.417 24.5469 114.098" stroke="#45413C" stroke-width="7" stroke-linecap="round" stroke-linejoin="round"/>
</svg>
