<svg width="495" height="495" viewBox="0 0 495 495" fill="none" xmlns="http://www.w3.org/2000/svg">
<path d="M153.786 271.188L212.258 199.001C183.574 191.754 153.648 190.909 124.601 196.526C92.4265 204.466 87.3734 265.207 86.8577 293.979C86.8218 295.576 87.2128 297.153 87.9904 298.549C88.768 299.944 89.904 301.106 91.281 301.916C92.6581 302.725 94.2262 303.152 95.8235 303.153C97.4208 303.154 98.9894 302.728 100.367 301.919L153.786 271.188Z" fill="#FF6242"/>
<path d="M124.806 223.957C147.288 219.333 170.429 218.879 193.075 222.617L212.256 199.104C183.573 191.858 153.647 191.013 124.6 196.629C92.4252 204.467 87.372 265.207 86.8564 293.979C86.8305 295.737 87.3335 297.461 88.3002 298.929C91.3939 268.611 99.5408 230.248 124.806 223.957Z" fill="#FF866E"/>
<path d="M153.786 271.188L212.258 199.001C183.574 191.754 153.648 190.909 124.601 196.526C92.4265 204.466 87.3734 265.207 86.8577 293.979C86.8218 295.576 87.2128 297.153 87.9904 298.549C88.768 299.944 89.904 301.106 91.281 301.916C92.6581 302.725 94.2262 303.152 95.8235 303.153C97.4208 303.154 98.9894 302.728 100.367 301.919L153.786 271.188Z" stroke="#45413C" stroke-width="7" stroke-linecap="round" stroke-linejoin="round"/>
<path d="M224.013 341.52L296.201 283.048C303.442 311.697 304.287 341.589 298.676 370.601C291.147 402.776 230.819 407.829 201.635 408.345C200.038 408.381 198.46 407.99 197.065 407.212C195.67 406.434 194.508 405.298 193.698 403.921C192.889 402.544 192.462 400.976 192.461 399.379C192.46 397.782 192.886 396.213 193.694 394.835L224.013 341.52Z" fill="#FF6242"/>
<path d="M270.936 370.498C275.613 347.987 276.068 324.803 272.277 302.126L295.789 283.048C303.03 311.697 303.875 341.589 298.264 370.601C290.736 402.776 230.408 407.829 201.223 408.345C199.468 408.358 197.747 407.856 196.273 406.901C226.592 404.22 264.955 395.66 270.936 370.498Z" fill="#FF866E"/>
<path d="M224.013 341.52L296.201 283.048C303.442 311.697 304.287 341.589 298.676 370.601C291.147 402.776 230.819 407.829 201.635 408.345C200.038 408.381 198.46 407.99 197.065 407.212C195.67 406.434 194.508 405.298 193.698 403.921C192.889 402.544 192.462 400.976 192.461 399.379C192.46 397.782 192.886 396.213 193.694 394.835L224.013 341.52Z" stroke="#45413C" stroke-width="7" stroke-linecap="round" stroke-linejoin="round"/>
<path d="M416.032 219.419C471.926 160.638 454.291 88.141 445.526 62.6691C444.52 59.6411 442.826 56.8876 440.576 54.6254C438.315 52.4242 435.607 50.7359 432.635 49.6754C407.163 40.9097 334.563 23.2754 275.782 79.5816C203.182 148.263 153.27 270.363 153.27 270.363L225.457 342.55C225.457 342.55 346.938 292.019 416.032 219.419Z" fill="#E8F4FA"/>
<path d="M298.16 119.491C355.188 65.1441 425.107 80.3035 452.848 89.1722C451.261 80.1766 448.986 71.3161 446.041 62.6691C444.986 59.6016 443.222 56.8262 440.893 54.5685C438.563 52.3107 435.734 50.6343 432.635 49.6754C407.163 40.9097 334.563 23.2754 275.782 79.5816C203.182 148.263 153.27 270.363 153.27 270.363L181.01 298.103C195.757 265.207 239.585 175.178 298.16 119.491Z" fill="white"/>
<path d="M416.032 219.419C471.926 160.638 454.291 88.141 445.526 62.6691C444.52 59.6411 442.826 56.8876 440.576 54.6254C438.315 52.4242 435.607 50.7359 432.635 49.6754C407.163 40.9097 334.563 23.2754 275.782 79.5816C203.182 148.263 153.27 270.363 153.27 270.363L225.457 342.55C225.457 342.55 346.938 292.019 416.032 219.419Z" stroke="#45413C" stroke-width="7" stroke-linecap="round" stroke-linejoin="round"/>
<path d="M242.987 261.598C243.737 260.269 244.033 258.733 243.831 257.221C243.629 255.709 242.939 254.304 241.866 253.219C240.793 252.135 239.396 251.43 237.886 251.211C236.376 250.992 234.836 251.272 233.5 252.007C213.41 262.29 194.956 275.496 178.741 291.195C161.565 308.495 147.999 329.037 138.831 351.626C138.555 352.265 138.475 352.972 138.601 353.656C138.728 354.34 139.056 354.972 139.542 355.469C140.029 355.967 140.653 356.309 141.334 356.451C142.015 356.593 142.724 356.529 143.369 356.267C165.923 347.221 186.462 333.797 203.8 316.77C219.558 300.451 232.769 281.852 242.987 261.598Z" fill="#FF6242" stroke="#45413C" stroke-width="7" stroke-linecap="round" stroke-linejoin="round"/>
<path d="M300.117 138.57C300.117 153.585 306.082 167.986 316.7 178.603C327.317 189.221 341.717 195.185 356.733 195.185C371.748 195.185 386.149 189.221 396.766 178.603C407.384 167.986 413.348 153.585 413.348 138.57C413.348 123.554 407.384 109.154 396.766 98.5364C386.149 87.919 371.748 81.9541 356.733 81.9541C341.717 81.9541 327.317 87.919 316.7 98.5364C306.082 109.154 300.117 123.554 300.117 138.57Z" fill="#C0DCEB" stroke="#45413C" stroke-width="7" stroke-linecap="round" stroke-linejoin="round"/>
<path d="M317.855 138.26C317.855 143.406 318.869 148.502 320.838 153.256C322.808 158.011 325.694 162.331 329.333 165.97C332.972 169.608 337.292 172.495 342.047 174.464C346.801 176.434 351.897 177.447 357.043 177.447C362.189 177.447 367.285 176.434 372.039 174.464C376.794 172.495 381.114 169.608 384.753 165.97C388.392 162.331 391.278 158.011 393.247 153.256C395.217 148.502 396.23 143.406 396.23 138.26C396.23 133.114 395.217 128.018 393.247 123.263C391.278 118.509 388.392 114.189 384.753 110.55C381.114 106.911 376.794 104.025 372.039 102.055C367.285 100.086 362.189 99.0723 357.043 99.0723C351.897 99.0723 346.801 100.086 342.047 102.055C337.292 104.025 332.972 106.911 329.333 110.55C325.694 114.189 322.808 118.509 320.838 123.263C318.869 128.018 317.855 133.114 317.855 138.26Z" fill="#00B8F0"/>
<path d="M329.302 110.519C325.653 114.159 322.759 118.483 320.784 123.243C318.809 128.003 317.793 133.106 317.793 138.26C317.793 143.413 318.809 148.516 320.784 153.276C322.759 158.036 325.653 162.36 329.302 166C331.925 168.514 334.873 170.664 338.067 172.394L374.677 103.404C367.338 99.6169 358.984 98.2653 350.826 99.5446C342.668 100.824 335.129 104.668 329.302 110.519Z" fill="#4ACFFF"/>
<path d="M317.855 138.26C317.855 143.406 318.869 148.502 320.838 153.256C322.808 158.011 325.694 162.331 329.333 165.97C332.972 169.608 337.292 172.495 342.047 174.464C346.801 176.434 351.897 177.447 357.043 177.447C362.189 177.447 367.285 176.434 372.039 174.464C376.794 172.495 381.114 169.608 384.753 165.97C388.392 162.331 391.278 158.011 393.247 153.256C395.217 148.502 396.23 143.406 396.23 138.26C396.23 133.114 395.217 128.018 393.247 123.263C391.278 118.509 388.392 114.189 384.753 110.55C381.114 106.911 376.794 104.025 372.039 102.055C367.285 100.086 362.189 99.0723 357.043 99.0723C351.897 99.0723 346.801 100.086 342.047 102.055C337.292 104.025 332.972 106.911 329.333 110.55C325.694 114.189 322.808 118.509 320.838 123.263C318.869 128.018 317.855 133.114 317.855 138.26Z" stroke="#45413C" stroke-width="7" stroke-linecap="round" stroke-linejoin="round"/>
<path d="M125.837 424.741C118.619 431.96 72.6248 447.532 49.3186 455.06C44.9873 456.503 39.0061 450.213 40.1404 445.882C47.6686 422.678 63.2404 376.685 71.0779 369.363C80.8748 359.05 106.45 359.05 121.712 374.107C136.975 389.163 135.634 414.944 125.837 424.741Z" fill="#FF8A14" stroke="#45413C" stroke-width="7" stroke-linecap="round" stroke-linejoin="round"/>
<path d="M113.359 407.417C108.203 412.47 86.856 417.729 82.4216 413.192C77.9873 408.654 83.1435 386.998 88.2998 382.254C91.7161 379.922 95.8954 378.986 99.98 379.638C104.065 380.29 107.745 382.481 110.265 385.76C113.416 388.315 115.486 391.966 116.06 395.982C116.633 399.998 115.669 404.082 113.359 407.417Z" fill="#FFE500" stroke="#45413C" stroke-width="7" stroke-linecap="round" stroke-linejoin="round"/>
</svg>
