<svg width="474" height="496" viewBox="0 0 474 496" fill="none" xmlns="http://www.w3.org/2000/svg">
<path d="M50.299 68.6424C41.44 68.6225 32.6106 69.668 24 71.7566V359.719C68.7076 363.932 113.77 357.31 155.391 340.411C157.745 339.459 159.762 337.824 161.182 335.716C162.603 333.607 163.362 331.121 163.364 328.577V181.481C163.35 166.623 160.413 151.914 154.72 138.196C149.027 124.478 140.69 112.021 130.186 101.539C119.683 91.0566 107.22 82.7552 93.5119 77.1103C79.8034 71.4653 65.1186 68.5877 50.299 68.6424Z" fill="#724F3D"/>
<path d="M50.299 68.6424C41.44 68.6225 32.6106 69.668 24 71.7566V104.975C32.6021 102.817 41.4317 101.701 50.299 101.653C65.136 101.598 79.8377 104.483 93.5598 110.141C107.282 115.799 119.754 124.119 130.26 134.623C140.766 145.127 149.098 157.608 154.779 171.35C160.46 185.092 163.378 199.824 163.364 214.7V181.481C163.35 166.623 160.413 151.914 154.72 138.196C149.027 124.478 140.69 112.021 130.186 101.539C119.683 91.0566 107.22 82.7552 93.5119 77.1103C79.8034 71.4653 65.1186 68.5877 50.299 68.6424Z" fill="#A86C4D"/>
<path d="M50.299 68.6424C41.44 68.6225 32.6106 69.668 24 71.7566V359.719C68.7076 363.932 113.77 357.31 155.391 340.411C157.745 339.459 159.762 337.824 161.182 335.716C162.603 333.607 163.362 331.121 163.364 328.577V181.481C163.35 166.623 160.413 151.914 154.72 138.196C149.027 124.478 140.69 112.021 130.186 101.539C119.683 91.0566 107.22 82.7552 93.5119 77.1103C79.8034 71.4653 65.1186 68.5877 50.299 68.6424V68.6424Z" stroke="#45413C" stroke-width="7" stroke-linecap="round" stroke-linejoin="round"/>
<path d="M50.3731 327.123C41.6664 327.167 32.9891 328.142 24.4883 330.029V470.17H173.792V450.446C173.792 434.216 170.597 418.146 164.389 403.156C158.182 388.167 149.084 374.553 137.618 363.096C126.153 351.639 112.544 342.564 97.5722 336.391C82.6007 330.218 66.5612 327.068 50.3731 327.123Z" fill="#FF87AF"/>
<path d="M50.3731 327.123C41.6664 327.167 32.9891 328.142 24.4883 330.029V363.871C41.2915 360.138 58.6897 359.987 75.5545 363.43C92.4192 366.873 108.374 373.831 122.383 383.854C136.393 393.877 148.145 406.741 156.876 421.611C165.608 436.481 171.124 453.025 173.067 470.17H173.792V450.446C173.792 434.216 170.597 418.146 164.389 403.156C158.182 388.167 149.084 374.553 137.618 363.096C126.153 351.639 112.544 342.564 97.5722 336.391C82.6007 330.218 66.5612 327.068 50.3731 327.123Z" fill="#FF6196"/>
<path d="M50.3731 327.123C41.6664 327.167 32.9891 328.142 24.4883 330.029V470.17H173.792V450.446C173.792 434.216 170.597 418.146 164.389 403.156C158.182 388.167 149.084 374.553 137.618 363.096C126.153 351.639 112.544 342.564 97.5722 336.391C82.6007 330.218 66.5612 327.068 50.3731 327.123V327.123Z" stroke="#45413C" stroke-width="7" stroke-linecap="round" stroke-linejoin="round"/>
<path d="M24.4883 285.081H77.1898V367.504H24.4883V285.081Z" fill="#FFE500"/>
<path d="M50.3731 285.079C43.4702 285.188 36.8869 288.014 32.0441 292.947C27.2013 297.88 24.4874 304.525 24.4883 311.447V317.675C24.9087 324.396 27.8678 330.703 32.7634 335.313C37.6589 339.923 44.1227 342.489 50.8391 342.489C57.5554 342.489 64.0192 339.923 68.9147 335.313C73.8103 330.703 76.7694 324.396 77.1898 317.675V311.55C77.1903 308.039 76.4938 304.563 75.1412 301.324C73.7885 298.085 71.8066 295.148 69.3108 292.684C66.8151 290.221 63.8554 288.28 60.6042 286.974C57.3529 285.668 53.875 285.024 50.3731 285.079Z" fill="#EBCB00"/>
<path d="M24.4883 285.081H77.1898V367.504H24.4883V285.081Z" stroke="#45413C" stroke-width="7" stroke-linecap="round" stroke-linejoin="round"/>
<path d="M144.698 205.459C131.658 201.772 119.612 195.193 109.45 186.209C99.2881 177.224 91.2707 166.065 85.9907 153.555L79.4677 138.088C64.811 157.516 46.032 173.436 24.4883 184.698V318.921C32.891 321.426 41.6068 322.719 50.3731 322.762C72.9186 322.86 94.7455 314.815 111.858 300.098C128.971 285.381 140.224 264.978 143.559 242.622H144.698C149.668 242.622 154.435 240.643 157.949 237.119C161.464 233.595 163.438 228.816 163.438 223.833C163.438 218.85 161.464 214.071 157.949 210.547C154.435 207.023 149.668 205.044 144.698 205.044V205.459Z" fill="#FFE500" stroke="#45413C" stroke-width="7" stroke-linecap="round" stroke-linejoin="round"/>
<path d="M107.082 220.095C107.082 221.676 106.614 223.221 105.738 224.536C104.862 225.85 103.617 226.875 102.16 227.479C100.703 228.084 99.1004 228.243 97.5539 227.934C96.0074 227.626 94.5868 226.865 93.4718 225.747C92.3568 224.629 91.5975 223.205 91.2899 221.654C90.9823 220.104 91.1402 218.496 91.7436 217.036C92.347 215.575 93.3689 214.327 94.68 213.449C95.991 212.57 97.5324 212.102 99.1093 212.102C101.224 212.102 103.252 212.944 104.747 214.443C106.242 215.942 107.082 217.975 107.082 220.095Z" fill="#45413C" stroke="#45413C" stroke-width="7" stroke-linecap="round" stroke-linejoin="round"/>
<path d="M122.527 470.169V445.151" stroke="#45413C" stroke-width="7" stroke-linecap="round" stroke-linejoin="round"/>
<path d="M101.816 254.145C101.816 255.797 102.907 257.382 104.849 258.55C106.791 259.718 109.424 260.374 112.17 260.374C114.916 260.374 117.55 259.718 119.492 258.55C121.433 257.382 122.524 255.797 122.524 254.145C122.524 252.494 121.433 250.909 119.492 249.741C117.55 248.573 114.916 247.917 112.17 247.917C109.424 247.917 106.791 248.573 104.849 249.741C102.907 250.909 101.816 252.494 101.816 254.145Z" fill="#FFAA54"/>
<path d="M83.7128 270.447C83.2757 269.937 82.7361 269.526 82.1295 269.24C81.5229 268.954 80.8628 268.799 80.1925 268.786H24.4883V290.69C28.7396 295.702 34.3296 299.395 40.6015 301.333C46.8735 303.27 53.5668 303.373 59.895 301.629C66.2232 299.885 71.9235 296.366 76.326 291.486C80.7284 286.606 83.6503 280.568 84.7482 274.08C84.8375 273.436 84.7916 272.78 84.6133 272.154C84.435 271.528 84.1283 270.947 83.7128 270.447Z" fill="#FF6242"/>
<path d="M50.2437 283.734C41.372 283.707 32.8356 287.13 26.4297 293.284C32.8736 299.41 41.4154 302.825 50.2955 302.825C59.1756 302.825 67.7175 299.41 74.1613 293.284C67.7237 287.115 59.1492 283.691 50.2437 283.734Z" fill="#FFA694"/>
<path d="M83.7128 270.447C83.2757 269.937 82.7361 269.526 82.1295 269.24C81.5229 268.954 80.8628 268.799 80.1925 268.786H24.4883V290.69C28.7396 295.702 34.3296 299.395 40.6015 301.333C46.8735 303.27 53.5668 303.373 59.895 301.629C66.2232 299.885 71.9235 296.366 76.326 291.486C80.7284 286.606 83.6503 280.568 84.7482 274.08C84.8375 273.436 84.7916 272.78 84.6133 272.154C84.435 271.528 84.1283 270.947 83.7128 270.447V270.447Z" stroke="#45413C" stroke-width="7" stroke-linecap="round" stroke-linejoin="round"/>
<path d="M423.092 68.6424C431.951 68.6225 440.781 69.668 449.391 71.7566V359.719C404.684 363.932 359.621 357.31 318 340.411C315.646 339.459 313.63 337.824 312.209 335.716C310.789 333.607 310.029 331.121 310.027 328.577V181.481C310.041 166.623 312.978 151.914 318.672 138.196C324.365 124.478 332.702 112.021 343.205 101.539C353.708 91.0566 366.171 82.7552 379.879 77.1103C393.588 71.4653 408.273 68.5877 423.092 68.6424Z" fill="#724F3D"/>
<path d="M423.092 68.6424C431.951 68.6225 440.781 69.668 449.391 71.7566V104.975C440.789 102.817 431.96 101.701 423.092 101.653C408.255 101.598 393.554 104.483 379.832 110.141C366.11 115.799 353.638 124.119 343.132 134.623C332.626 145.127 324.293 157.608 318.612 171.35C312.931 185.092 310.014 199.824 310.027 214.7V181.481C310.041 166.623 312.978 151.914 318.672 138.196C324.365 124.478 332.702 112.021 343.205 101.539C353.708 91.0566 366.171 82.7552 379.88 77.1103C393.588 71.4653 408.273 68.5877 423.092 68.6424Z" fill="#A86C4D"/>
<path d="M423.092 68.6424C431.951 68.6225 440.781 69.668 449.391 71.7566V359.719C404.684 363.932 359.621 357.31 318 340.411C315.646 339.459 313.63 337.824 312.209 335.716C310.789 333.607 310.029 331.121 310.027 328.577V181.481C310.041 166.623 312.978 151.914 318.672 138.196C324.365 124.478 332.702 112.021 343.205 101.539C353.708 91.0566 366.171 82.7552 379.879 77.1103C393.588 71.4653 408.273 68.5877 423.092 68.6424V68.6424Z" stroke="#45413C" stroke-width="7" stroke-linecap="round" stroke-linejoin="round"/>
<path d="M423.091 327.123C431.798 327.167 440.475 328.142 448.976 330.029V470.17H299.672V450.446C299.672 434.216 302.867 418.146 309.075 403.156C315.282 388.167 324.379 374.553 335.845 363.096C347.311 351.639 360.92 342.564 375.892 336.391C390.863 330.218 406.903 327.068 423.091 327.123Z" fill="#87BBFF"/>
<path d="M423.091 327.123C431.798 327.167 440.475 328.142 448.976 330.029V363.871C432.172 360.138 414.774 359.987 397.909 363.43C381.045 366.873 365.09 373.831 351.08 383.854C337.071 393.877 325.319 406.741 316.588 421.611C307.856 436.481 302.34 453.025 300.397 470.17H299.672V450.446C299.672 434.216 302.867 418.146 309.075 403.156C315.282 388.167 324.379 374.553 335.845 363.096C347.311 351.639 360.92 342.564 375.892 336.391C390.863 330.218 406.903 327.068 423.091 327.123Z" fill="#6DACFF"/>
<path d="M423.091 327.123C431.798 327.167 440.475 328.142 448.976 330.029V470.17H299.672V450.446C299.672 434.216 302.867 418.146 309.075 403.156C315.282 388.167 324.379 374.553 335.845 363.096C347.311 351.639 360.92 342.564 375.892 336.391C390.863 330.218 406.903 327.068 423.091 327.123Z" stroke="#45413C" stroke-width="7" stroke-linecap="round" stroke-linejoin="round"/>
<path d="M448.996 367.505H396.295V285.082H448.996V367.505Z" fill="#FFE500"/>
<path d="M422.985 285.081C429.959 285.081 436.649 287.859 441.581 292.804C446.513 297.749 449.284 304.455 449.284 311.448V317.677C448.863 324.397 445.904 330.704 441.008 335.314C436.113 339.924 429.649 342.491 422.933 342.491C416.216 342.491 409.753 339.924 404.857 335.314C399.962 330.704 397.002 324.397 396.582 317.677V311.552C396.582 304.531 399.364 297.798 404.315 292.834C409.267 287.87 415.982 285.081 422.985 285.081Z" fill="#EBCB00"/>
<path d="M448.996 367.505H396.295V285.082H448.996V367.505Z" stroke="#45413C" stroke-width="7" stroke-linecap="round" stroke-linejoin="round"/>
<path d="M328.768 205.459C341.808 201.772 353.854 195.193 364.016 186.209C374.177 177.224 382.195 166.065 387.475 153.555L393.998 138.088C408.655 157.516 427.433 173.436 448.977 184.698V318.921C440.574 321.426 431.859 322.719 423.092 322.762C400.547 322.86 378.72 314.815 361.607 300.098C344.495 285.381 333.241 264.978 329.907 242.622H328.768C323.798 242.622 319.031 240.643 315.516 237.119C312.002 233.595 310.027 228.816 310.027 223.833C310.027 218.85 312.002 214.071 315.516 210.547C319.031 207.023 323.798 205.044 328.768 205.044V205.459Z" fill="#FFE500" stroke="#45413C" stroke-width="7" stroke-linecap="round" stroke-linejoin="round"/>
<path d="M366.328 220.095C366.328 221.676 366.796 223.221 367.672 224.536C368.548 225.85 369.793 226.875 371.25 227.479C372.706 228.084 374.309 228.243 375.856 227.934C377.403 227.626 378.823 226.865 379.938 225.747C381.053 224.629 381.812 223.205 382.12 221.654C382.428 220.104 382.27 218.496 381.666 217.036C381.063 215.575 380.041 214.327 378.73 213.449C377.419 212.57 375.877 212.102 374.301 212.102C373.254 212.102 372.217 212.308 371.25 212.71C370.282 213.112 369.404 213.7 368.663 214.443C367.923 215.185 367.336 216.066 366.935 217.036C366.534 218.006 366.328 219.045 366.328 220.095Z" fill="#45413C" stroke="#45413C" stroke-width="7" stroke-linecap="round" stroke-linejoin="round"/>
<path d="M350.797 470.169V445.151" stroke="#45413C" stroke-width="7" stroke-linecap="round" stroke-linejoin="round"/>
<path d="M350.797 254.145C350.797 255.797 351.888 257.382 353.829 258.55C355.771 259.718 358.405 260.374 361.151 260.374C363.897 260.374 366.53 259.718 368.472 258.55C370.414 257.382 371.505 255.797 371.505 254.145C371.505 252.494 370.414 250.909 368.472 249.741C366.53 248.573 363.897 247.917 361.151 247.917C358.405 247.917 355.771 248.573 353.829 249.741C351.888 250.909 350.797 252.494 350.797 254.145Z" fill="#FFAA54"/>
<path d="M389.736 270.447C390.173 269.937 390.713 269.526 391.319 269.24C391.926 268.954 392.586 268.799 393.256 268.786H448.961V290.69C444.709 295.702 439.119 299.395 432.847 301.333C426.575 303.27 419.882 303.373 413.554 301.629C407.226 299.885 401.525 296.366 397.123 291.486C392.72 286.606 389.798 280.568 388.701 274.08C388.611 273.436 388.657 272.78 388.836 272.154C389.014 271.528 389.321 270.947 389.736 270.447Z" fill="#FF6242"/>
<path d="M423.082 283.734C431.953 283.707 440.49 287.13 446.896 293.284C440.452 299.41 431.91 302.825 423.03 302.825C414.15 302.825 405.608 299.41 399.164 293.284C405.602 287.115 414.176 283.691 423.082 283.734Z" fill="#FFA694"/>
<path d="M389.736 270.447C390.173 269.937 390.713 269.526 391.319 269.24C391.926 268.954 392.586 268.799 393.256 268.786H448.961V290.69C444.709 295.702 439.119 299.395 432.847 301.333C426.575 303.27 419.882 303.373 413.554 301.629C407.226 299.885 401.525 296.366 397.123 291.486C392.72 286.606 389.798 280.568 388.701 274.08C388.611 273.436 388.657 272.78 388.836 272.154C389.014 271.528 389.321 270.947 389.736 270.447Z" stroke="#45413C" stroke-width="7" stroke-linecap="round" stroke-linejoin="round"/>
<path d="M331.591 36.0467C320.652 27.6546 306.907 23.8131 293.215 25.3211C279.524 26.8292 266.939 33.5707 258.078 44.1437L236.749 67.9156L215.419 44.1437C206.559 33.5707 193.974 26.8292 180.282 25.3211C166.59 23.8131 152.845 27.6546 141.906 36.0467C133.568 42.5719 126.872 50.9679 122.359 60.5594C117.845 70.151 115.639 80.6705 115.918 91.2723C115.779 103.229 118.098 115.087 122.729 126.106C127.361 137.125 134.206 147.07 142.838 155.322L236.749 241.793L330.659 155.01C339.253 146.795 346.075 136.9 350.705 125.938C355.336 114.975 357.675 103.177 357.579 91.2723C357.858 80.6705 355.652 70.151 351.139 60.5594C346.625 50.9679 339.929 42.5719 331.591 36.0467Z" fill="#FF6196"/>
<path d="M141.906 97.1894C152.845 88.7972 166.59 84.9557 180.282 86.4638C193.974 87.9719 206.559 94.7134 215.419 105.286L227.844 119.093C228.97 120.34 230.344 121.337 231.878 122.019C233.411 122.701 235.071 123.053 236.749 123.053C238.426 123.053 240.086 122.701 241.619 122.019C243.153 121.337 244.527 120.34 245.653 119.093L258.078 105.286C266.939 94.7134 279.523 87.9719 293.215 86.4638C306.907 84.9557 320.652 88.7972 331.591 97.1894C340.71 103.8 347.868 112.77 352.298 123.141C355.908 112.911 357.695 102.123 357.579 91.2723C357.809 80.7226 355.58 70.2647 351.068 60.7311C346.556 51.1976 339.887 42.8518 331.591 36.3581C320.652 27.966 306.907 24.1245 293.215 25.6325C279.523 27.1406 266.939 33.8821 258.078 44.4551L236.749 67.9156L215.419 44.1437C206.559 33.5707 193.974 26.8292 180.282 25.3211C166.59 23.8131 152.845 27.6546 141.906 36.0467C133.568 42.5719 126.872 50.9679 122.359 60.5594C117.845 70.151 115.639 80.6705 115.918 91.2723C115.931 102.259 117.895 113.156 121.716 123.453C125.956 113.03 132.933 103.954 141.906 97.1894Z" fill="#FF87AF"/>
<path d="M331.591 36.0467C320.652 27.6546 306.907 23.8131 293.215 25.3211C279.524 26.8292 266.939 33.5707 258.078 44.1437L236.749 67.9156L215.419 44.1437C206.559 33.5707 193.974 26.8292 180.282 25.3211C166.59 23.8131 152.845 27.6546 141.906 36.0467C133.568 42.5719 126.872 50.9679 122.359 60.5594C117.845 70.151 115.639 80.6705 115.918 91.2723C115.779 103.229 118.098 115.087 122.729 126.106C127.361 137.125 134.206 147.07 142.838 155.322L236.749 241.793L330.659 155.01C339.253 146.795 346.075 136.9 350.705 125.938C355.336 114.975 357.675 103.177 357.579 91.2723C357.858 80.6705 355.652 70.151 351.139 60.5594C346.625 50.9679 339.929 42.5719 331.591 36.0467V36.0467Z" stroke="#45413C" stroke-width="7" stroke-linecap="round" stroke-linejoin="round"/>
</svg>
