<svg width="474" height="496" viewBox="0 0 474 496" fill="none" xmlns="http://www.w3.org/2000/svg">
<g clip-path="url(#clip0_1163_5409)">
<path d="M50.9084 27.6424C42.0494 27.6225 33.22 28.668 24.6094 30.7566V318.719C69.317 322.932 114.38 316.31 156.001 299.411C158.355 298.459 160.371 296.824 161.792 294.716C163.212 292.607 163.972 290.121 163.973 287.577V140.481C163.96 125.623 161.022 110.914 155.329 97.1957C149.636 83.4777 141.299 71.0208 130.796 60.5387C120.293 50.0566 107.83 41.7552 94.1212 36.1103C80.4127 30.4653 65.728 27.5877 50.9084 27.6424Z" fill="#724F3D"/>
<path d="M50.9084 27.6424C42.0494 27.6225 33.22 28.668 24.6094 30.7566V63.975C33.2115 61.8165 42.041 60.7013 50.9084 60.6532C65.7454 60.5985 80.4471 63.4829 94.1691 69.1408C107.891 74.7987 120.363 83.1186 130.869 93.6228C141.375 104.127 149.708 116.608 155.389 130.35C161.07 144.092 163.987 158.824 163.973 173.7V140.481C163.96 125.623 161.022 110.914 155.329 97.1957C149.636 83.4777 141.299 71.0208 130.796 60.5387C120.293 50.0566 107.83 41.7552 94.1213 36.1103C80.4127 30.4653 65.728 27.5877 50.9084 27.6424Z" fill="#A86C4D"/>
<path d="M50.9084 27.6424C42.0494 27.6225 33.22 28.668 24.6094 30.7566V318.719C69.317 322.932 114.38 316.31 156.001 299.411C158.355 298.459 160.371 296.824 161.792 294.716C163.212 292.607 163.972 290.121 163.973 287.577V140.481C163.96 125.623 161.022 110.914 155.329 97.1957C149.636 83.4777 141.299 71.0208 130.796 60.5387C120.293 50.0566 107.83 41.7552 94.1212 36.1103C80.4127 30.4653 65.728 27.5877 50.9084 27.6424V27.6424Z" stroke="#45413C" stroke-width="7" stroke-linecap="round" stroke-linejoin="round"/>
<path d="M50.9825 286.123C42.2757 286.167 33.5985 287.142 25.0977 289.029V429.17H174.401V409.446C174.402 393.216 171.206 377.146 164.999 362.156C158.791 347.167 149.694 333.553 138.228 322.096C126.762 310.639 113.153 301.564 98.1816 295.391C83.2101 289.218 67.1705 286.068 50.9825 286.123Z" fill="#FF87AF"/>
<path d="M50.9825 286.123C42.2757 286.167 33.5985 287.142 25.0977 289.029V322.871C41.9008 319.138 59.2991 318.987 76.1638 322.43C93.0286 325.873 108.983 332.831 122.993 342.854C137.002 352.877 148.754 365.741 157.486 380.611C166.217 395.481 171.733 412.025 173.677 429.17H174.401V409.446C174.402 393.216 171.206 377.146 164.999 362.156C158.791 347.167 149.694 333.553 138.228 322.096C126.762 310.639 113.153 301.564 98.1816 295.391C83.2101 289.218 67.1705 286.068 50.9825 286.123Z" fill="#FF6196"/>
<path d="M50.9825 286.123C42.2757 286.167 33.5985 287.142 25.0977 289.029V429.17H174.401V409.446C174.402 393.216 171.206 377.146 164.999 362.156C158.791 347.167 149.694 333.553 138.228 322.096C126.762 310.639 113.153 301.564 98.1816 295.391C83.2101 289.218 67.1705 286.068 50.9825 286.123V286.123Z" stroke="#45413C" stroke-width="7" stroke-linecap="round" stroke-linejoin="round"/>
<path d="M25.0977 244.081H77.7992V326.504H25.0977V244.081Z" fill="#FFE500"/>
<path d="M50.9825 244.079C44.0796 244.188 37.4963 247.014 32.6535 251.947C27.8107 256.88 25.0968 263.525 25.0977 270.447V276.675C25.518 283.396 28.4772 289.703 33.3727 294.313C38.2682 298.923 44.7321 301.489 51.4484 301.489C58.1647 301.489 64.6286 298.923 69.5241 294.313C74.4196 289.703 77.3788 283.396 77.7992 276.675V270.55C77.7996 267.039 77.1032 263.563 75.7505 260.324C74.3979 257.085 72.416 254.148 69.9202 251.684C67.4245 249.221 64.4648 247.28 61.2135 245.974C57.9623 244.668 54.4844 244.024 50.9825 244.079Z" fill="#EBCB00"/>
<path d="M25.0977 244.081H77.7992V326.504H25.0977V244.081Z" stroke="#45413C" stroke-width="7" stroke-linecap="round" stroke-linejoin="round"/>
<path d="M145.307 164.459C132.267 160.772 120.221 154.193 110.059 145.209C99.8974 136.224 91.8801 125.065 86.6 112.555L80.0771 97.0879C65.4203 116.516 46.6414 132.436 25.0977 143.698V277.921C33.5004 280.426 42.2161 281.719 50.9825 281.762C73.528 281.86 95.3549 273.815 112.467 259.098C129.58 244.381 140.834 223.978 144.168 201.622H145.307C150.277 201.622 155.044 199.643 158.559 196.119C162.073 192.595 164.048 187.816 164.048 182.833C164.048 177.85 162.073 173.071 158.559 169.547C155.044 166.023 150.277 164.044 145.307 164.044V164.459Z" fill="#FFE500" stroke="#45413C" stroke-width="7" stroke-linecap="round" stroke-linejoin="round"/>
<path d="M107.691 179.095C107.691 180.676 107.224 182.221 106.348 183.536C105.472 184.85 104.226 185.875 102.77 186.479C101.313 187.084 99.7098 187.243 98.1633 186.934C96.6167 186.626 95.1962 185.865 94.0812 184.747C92.9662 183.629 92.2069 182.205 91.8993 180.654C91.5917 179.104 91.7495 177.496 92.353 176.036C92.9564 174.575 93.9783 173.327 95.2893 172.449C96.6004 171.57 98.1418 171.102 99.7186 171.102C101.833 171.102 103.861 171.944 105.356 173.443C106.851 174.942 107.691 176.975 107.691 179.095Z" fill="#45413C" stroke="#45413C" stroke-width="7" stroke-linecap="round" stroke-linejoin="round"/>
<path d="M123.137 429.169V404.151" stroke="#45413C" stroke-width="7" stroke-linecap="round" stroke-linejoin="round"/>
<path d="M102.426 213.145C102.426 214.797 103.517 216.382 105.458 217.55C107.4 218.718 110.034 219.374 112.78 219.374C115.526 219.374 118.159 218.718 120.101 217.55C122.043 216.382 123.134 214.797 123.134 213.145C123.134 211.494 122.043 209.909 120.101 208.741C118.159 207.573 115.526 206.917 112.78 206.917C110.034 206.917 107.4 207.573 105.458 208.741C103.517 209.909 102.426 211.494 102.426 213.145Z" fill="#FFAA54"/>
<path d="M84.3222 229.447C83.885 228.937 83.3455 228.526 82.7389 228.24C82.1322 227.954 81.4722 227.799 80.8018 227.786H25.0977V249.69C29.3489 254.702 34.939 258.395 41.2109 260.333C47.4829 262.27 54.1762 262.373 60.5044 260.629C66.8326 258.885 72.5328 255.366 76.9353 250.486C81.3378 245.606 84.2597 239.568 85.3576 233.08C85.4469 232.436 85.4009 231.78 85.2226 231.154C85.0443 230.528 84.7376 229.947 84.3222 229.447Z" fill="#FF6242"/>
<path d="M50.8531 242.734C41.9814 242.707 33.4449 246.13 27.0391 252.284C33.4829 258.41 42.0248 261.825 50.9049 261.825C59.785 261.825 68.3269 258.41 74.7707 252.284C68.3331 246.115 59.7586 242.691 50.8531 242.734Z" fill="#FFA694"/>
<path d="M84.3222 229.447C83.885 228.937 83.3455 228.526 82.7389 228.24C82.1322 227.954 81.4722 227.799 80.8018 227.786H25.0977V249.69C29.3489 254.702 34.939 258.395 41.2109 260.333C47.4829 262.27 54.1762 262.373 60.5044 260.629C66.8326 258.885 72.5328 255.366 76.9353 250.486C81.3378 245.606 84.2597 239.568 85.3576 233.08C85.4469 232.436 85.4009 231.78 85.2226 231.154C85.0443 230.528 84.7376 229.947 84.3222 229.447V229.447Z" stroke="#45413C" stroke-width="7" stroke-linecap="round" stroke-linejoin="round"/>
<path d="M423.702 27.6424C432.561 27.6225 441.39 28.668 450.001 30.7566V318.719C405.293 322.932 360.23 316.31 318.609 299.411C316.256 298.459 314.239 296.824 312.819 294.716C311.398 292.607 310.638 290.121 310.637 287.577V140.481C310.65 125.623 313.588 110.914 319.281 97.1957C324.974 83.4777 333.311 71.0208 343.814 60.5387C354.317 50.0566 366.78 41.7552 380.489 36.1103C394.197 30.4653 408.882 27.5877 423.702 27.6424Z" fill="#724F3D"/>
<path d="M423.702 27.6424C432.561 27.6225 441.39 28.668 450.001 30.7566V63.975C441.399 61.8165 432.569 60.7013 423.702 60.6532C408.865 60.5985 394.163 63.4829 380.441 69.1408C366.719 74.7987 354.247 83.1186 343.741 93.6228C333.235 104.127 324.902 116.608 319.221 130.35C313.54 144.092 310.623 158.824 310.637 173.7V140.481C310.65 125.623 313.588 110.914 319.281 97.1957C324.974 83.4777 333.311 71.0208 343.814 60.5387C354.318 50.0566 366.78 41.7552 380.489 36.1103C394.197 30.4653 408.882 27.5877 423.702 27.6424Z" fill="#A86C4D"/>
<path d="M423.702 27.6424C432.561 27.6225 441.39 28.668 450.001 30.7566V318.719C405.293 322.932 360.23 316.31 318.609 299.411C316.256 298.459 314.239 296.824 312.819 294.716C311.398 292.607 310.638 290.121 310.637 287.577V140.481C310.65 125.623 313.588 110.914 319.281 97.1957C324.974 83.4777 333.311 71.0208 343.814 60.5387C354.317 50.0566 366.78 41.7552 380.489 36.1103C394.197 30.4653 408.882 27.5877 423.702 27.6424V27.6424Z" stroke="#45413C" stroke-width="7" stroke-linecap="round" stroke-linejoin="round"/>
<path d="M423.7 286.123C432.407 286.167 441.084 287.142 449.585 289.029V429.17H300.281V409.446C300.281 393.216 303.476 377.146 309.684 362.156C315.891 347.167 324.989 333.553 336.455 322.096C347.921 310.639 361.53 301.564 376.501 295.391C391.473 289.218 407.512 286.068 423.7 286.123Z" fill="#87BBFF"/>
<path d="M423.7 286.123C432.407 286.167 441.084 287.142 449.585 289.029V322.871C432.782 319.138 415.384 318.987 398.519 322.43C381.654 325.873 365.699 332.831 351.69 342.854C337.68 352.877 325.929 365.741 317.197 380.611C308.466 395.481 302.949 412.025 301.006 429.17H300.281V409.446C300.281 393.216 303.476 377.146 309.684 362.156C315.891 347.167 324.989 333.553 336.455 322.096C347.921 310.639 361.53 301.564 376.501 295.391C391.473 289.218 407.512 286.068 423.7 286.123Z" fill="#6DACFF"/>
<path d="M423.7 286.123C432.407 286.167 441.084 287.142 449.585 289.029V429.17H300.281V409.446C300.281 393.216 303.476 377.146 309.684 362.156C315.891 347.167 324.989 333.553 336.455 322.096C347.921 310.639 361.53 301.564 376.501 295.391C391.473 289.218 407.512 286.068 423.7 286.123Z" stroke="#45413C" stroke-width="7" stroke-linecap="round" stroke-linejoin="round"/>
<path d="M449.605 326.505H396.904V244.082H449.605V326.505Z" fill="#FFE500"/>
<path d="M423.594 244.081C430.569 244.081 437.258 246.859 442.19 251.804C447.122 256.749 449.893 263.455 449.893 270.448V276.677C449.473 283.397 446.513 289.704 441.618 294.314C436.722 298.924 430.258 301.491 423.542 301.491C416.826 301.491 410.362 298.924 405.466 294.314C400.571 289.704 397.612 283.397 397.191 276.677V270.552C397.191 263.531 399.973 256.798 404.925 251.834C409.876 246.87 416.592 244.081 423.594 244.081Z" fill="#EBCB00"/>
<path d="M449.605 326.505H396.904V244.082H449.605V326.505Z" stroke="#45413C" stroke-width="7" stroke-linecap="round" stroke-linejoin="round"/>
<path d="M329.377 164.459C342.417 160.772 354.463 154.193 364.625 145.209C374.787 136.224 382.804 125.065 388.084 112.555L394.607 97.0879C409.264 116.516 428.043 132.436 449.587 143.698V277.921C441.184 280.426 432.468 281.719 423.702 281.762C401.156 281.86 379.329 273.815 362.217 259.098C345.104 244.381 333.851 223.978 330.516 201.622H329.377C324.407 201.622 319.64 199.643 316.126 196.119C312.611 192.595 310.637 187.816 310.637 182.833C310.637 177.85 312.611 173.071 316.126 169.547C319.64 166.023 324.407 164.044 329.377 164.044V164.459Z" fill="#FFE500" stroke="#45413C" stroke-width="7" stroke-linecap="round" stroke-linejoin="round"/>
<path d="M366.938 179.095C366.938 180.676 367.405 182.221 368.281 183.536C369.157 184.85 370.402 185.875 371.859 186.479C373.316 187.084 374.919 187.243 376.465 186.934C378.012 186.626 379.432 185.865 380.547 184.747C381.662 183.629 382.422 182.205 382.729 180.654C383.037 179.104 382.879 177.496 382.276 176.036C381.672 174.575 380.65 173.327 379.339 172.449C378.028 171.57 376.487 171.102 374.91 171.102C373.863 171.102 372.826 171.308 371.859 171.71C370.892 172.112 370.013 172.7 369.273 173.443C368.532 174.185 367.945 175.066 367.544 176.036C367.144 177.006 366.937 178.045 366.938 179.095Z" fill="#45413C" stroke="#45413C" stroke-width="7" stroke-linecap="round" stroke-linejoin="round"/>
<path d="M351.406 429.169V404.151" stroke="#45413C" stroke-width="7" stroke-linecap="round" stroke-linejoin="round"/>
<path d="M351.406 213.145C351.406 214.797 352.497 216.382 354.439 217.55C356.381 218.718 359.014 219.374 361.76 219.374C364.506 219.374 367.14 218.718 369.082 217.55C371.023 216.382 372.114 214.797 372.114 213.145C372.114 211.494 371.023 209.909 369.082 208.741C367.14 207.573 364.506 206.917 361.76 206.917C359.014 206.917 356.381 207.573 354.439 208.741C352.497 209.909 351.406 211.494 351.406 213.145Z" fill="#FFAA54"/>
<path d="M390.345 229.447C390.782 228.937 391.322 228.526 391.929 228.24C392.535 227.954 393.195 227.799 393.866 227.786H449.57V249.69C445.319 254.702 439.729 258.395 433.457 260.333C427.185 262.27 420.491 262.373 414.163 260.629C407.835 258.885 402.135 255.366 397.732 250.486C393.33 245.606 390.408 239.568 389.31 233.08C389.221 232.436 389.267 231.78 389.445 231.154C389.623 230.528 389.93 229.947 390.345 229.447Z" fill="#FF6242"/>
<path d="M423.691 242.734C432.563 242.707 441.099 246.13 447.505 252.284C441.061 258.41 432.519 261.825 423.639 261.825C414.759 261.825 406.217 258.41 399.773 252.284C406.211 246.115 414.786 242.691 423.691 242.734Z" fill="#FFA694"/>
<path d="M390.345 229.447C390.782 228.937 391.322 228.526 391.929 228.24C392.535 227.954 393.195 227.799 393.866 227.786H449.57V249.69C445.319 254.702 439.729 258.395 433.457 260.333C427.185 262.27 420.491 262.373 414.163 260.629C407.835 258.885 402.135 255.366 397.732 250.486C393.33 245.606 390.408 239.568 389.31 233.08C389.221 232.436 389.267 231.78 389.445 231.154C389.623 230.528 389.93 229.947 390.345 229.447Z" stroke="#45413C" stroke-width="7" stroke-linecap="round" stroke-linejoin="round"/>
<path d="M332.2 -4.95331C321.261 -13.3454 307.516 -17.1869 293.825 -15.6789C280.133 -14.1708 267.548 -7.42928 258.687 3.14368L237.358 26.9156L216.029 3.14368C207.168 -7.42928 194.583 -14.1708 180.891 -15.6789C167.199 -17.1869 153.455 -13.3454 142.516 -4.95331C134.177 1.57195 127.482 9.96787 122.968 19.5594C118.454 29.151 116.248 39.6705 116.527 50.2723C116.389 62.2292 118.707 74.0867 123.339 85.106C127.97 96.1253 134.815 106.07 143.448 114.322L237.358 200.793L331.268 114.01C339.862 105.795 346.685 95.9003 351.315 84.9376C355.945 73.975 358.284 62.177 358.188 50.2723C358.467 39.6705 356.262 29.151 351.748 19.5594C347.234 9.96787 340.539 1.57195 332.2 -4.95331Z" fill="#FF6196"/>
<path d="M142.516 56.1894C153.455 47.7972 167.199 43.9557 180.891 45.4638C194.583 46.9719 207.168 53.7134 216.029 64.2864L228.453 78.0928C229.579 79.3399 230.954 80.3366 232.487 81.0188C234.021 81.701 235.68 82.0534 237.358 82.0534C239.036 82.0534 240.695 81.701 242.229 81.0188C243.762 80.3366 245.136 79.3399 246.262 78.0928L258.687 64.2864C267.548 53.7134 280.133 46.9719 293.825 45.4638C307.516 43.9557 321.261 47.7972 332.2 56.1894C341.32 62.7999 348.477 71.7698 352.908 82.1413C356.517 71.9106 358.304 61.1235 358.188 50.2723C358.419 39.7226 356.189 29.2647 351.677 19.7311C347.165 10.1976 340.496 1.85176 332.2 -4.64189C321.261 -13.034 307.516 -16.8755 293.825 -15.3675C280.133 -13.8594 267.548 -7.11786 258.687 3.4551L237.358 26.9156L216.029 3.14367C207.168 -7.42929 194.583 -14.1708 180.891 -15.6789C167.199 -17.1869 153.455 -13.3454 142.516 -4.95332C134.177 1.57195 127.482 9.96787 122.968 19.5594C118.454 29.151 116.248 39.6705 116.527 50.2723C116.541 61.259 118.504 72.1557 122.326 82.4527C126.565 72.03 133.542 62.9539 142.516 56.1894Z" fill="#FF87AF"/>
<path d="M332.2 -4.95331C321.261 -13.3454 307.516 -17.1869 293.825 -15.6789C280.133 -14.1708 267.548 -7.42928 258.687 3.14368L237.358 26.9156L216.029 3.14368C207.168 -7.42928 194.583 -14.1708 180.891 -15.6789C167.199 -17.1869 153.455 -13.3454 142.516 -4.95331C134.177 1.57195 127.482 9.96787 122.968 19.5594C118.454 29.151 116.248 39.6705 116.527 50.2723C116.389 62.2292 118.707 74.0867 123.339 85.106C127.97 96.1253 134.815 106.07 143.448 114.322L237.358 200.793L331.268 114.01C339.862 105.795 346.685 95.9003 351.315 84.9376C355.945 73.975 358.284 62.177 358.188 50.2723C358.467 39.6705 356.262 29.151 351.748 19.5594C347.234 9.96787 340.539 1.57195 332.2 -4.95331V-4.95331Z" stroke="#45413C" stroke-width="7" stroke-linecap="round" stroke-linejoin="round"/>
</g>
<defs>
<clipPath id="clip0_1163_5409">
<rect width="474" height="496" fill="white"/>
</clipPath>
</defs>
</svg>
