<svg width="495" height="495" viewBox="0 0 495 495" fill="none" xmlns="http://www.w3.org/2000/svg">
<path d="M374.189 96.8789L328.814 142.563C293.229 113.205 247.709 98.6713 201.696 101.976C155.682 105.28 112.706 126.17 81.6814 160.311C50.6568 194.453 33.9646 239.227 35.0669 285.345C36.1693 331.464 54.9816 375.389 87.6019 408.01C120.222 440.63 164.147 459.442 210.266 460.545C256.385 461.647 301.159 444.955 335.3 413.93C369.442 382.906 390.331 339.93 393.636 293.916C396.94 247.902 382.406 202.382 353.048 166.798L398.733 121.113L374.189 96.8789Z" fill="#87898C"/>
<path d="M357.793 113.277L328.815 142.564C301.677 120.113 268.531 106.146 233.51 102.402C198.488 98.6587 163.139 105.305 131.869 121.512C100.598 137.719 74.7888 162.77 57.6571 193.544C40.5254 224.318 32.8291 259.453 35.5275 294.57C37.8218 263.513 48.1596 233.587 65.5244 207.736C82.8892 181.885 106.683 160.998 134.566 147.129C162.45 133.26 193.462 126.887 224.555 128.636C255.648 130.385 285.75 140.196 311.902 157.105C316.837 160.308 322.719 161.728 328.572 161.128C334.425 160.527 339.896 157.943 344.077 153.805L371.199 126.683L357.793 113.277Z" fill="#BDBEC0"/>
<path d="M374.189 96.8789L328.814 142.563C293.229 113.205 247.709 98.6713 201.696 101.976C155.682 105.28 112.706 126.17 81.6814 160.311C50.6568 194.453 33.9646 239.227 35.0669 285.345C36.1693 331.464 54.9816 375.389 87.6019 408.01C120.222 440.63 164.147 459.442 210.266 460.545C256.385 461.647 301.159 444.955 335.3 413.93C369.442 382.906 390.331 339.93 393.636 293.916C396.94 247.902 382.406 202.382 353.048 166.798L398.733 121.113L374.189 96.8789Z" stroke="#45413C" stroke-width="7" stroke-linecap="round" stroke-linejoin="round"/>
<path d="M451.942 43.6667C449.254 40.9228 446.045 38.7429 442.503 37.2547C438.962 35.7665 435.159 35 431.317 35C427.476 35 423.673 35.7665 420.132 37.2547C416.59 38.7429 413.381 40.9228 410.692 43.6667L357.789 96.8792C356.707 97.9529 355.849 99.23 355.263 100.637C354.677 102.044 354.375 103.553 354.375 105.078C354.375 106.602 354.677 108.111 355.263 109.518C355.849 110.925 356.707 112.202 357.789 113.276L382.333 137.82C383.407 138.902 384.684 139.76 386.091 140.347C387.498 140.933 389.007 141.234 390.532 141.234C392.056 141.234 393.565 140.933 394.972 140.347C396.379 139.76 397.656 138.902 398.73 137.82L451.942 84.298C457.295 78.8914 460.298 71.5906 460.298 63.9823C460.298 56.3741 457.295 49.0733 451.942 43.6667Z" fill="#FFE500"/>
<path d="M451.942 43.6667C449.254 40.9228 446.045 38.7429 442.503 37.2547C438.962 35.7665 435.159 35 431.317 35C427.476 35 423.673 35.7665 420.132 37.2547C416.59 38.7429 413.381 40.9228 410.692 43.6667L357.789 96.8792C356.707 97.9529 355.849 99.23 355.263 100.637C354.677 102.044 354.375 103.553 354.375 105.078C354.375 106.602 354.677 108.111 355.263 109.518C355.849 110.925 356.707 112.202 357.789 113.276L366.555 122.042C366.905 121.327 367.357 120.667 367.896 120.082L421.624 66.7667C426.775 61.6376 433.671 58.6401 440.935 58.3724C448.199 58.1048 455.297 60.5868 460.811 65.323C460.959 61.29 460.244 57.272 458.715 53.5374C457.185 49.8028 454.877 46.4376 451.942 43.6667Z" fill="#FFF48C"/>
<path d="M451.942 43.6663C454.686 46.3548 456.866 49.5638 458.355 53.1053C459.843 56.6469 460.609 60.4498 460.609 64.2913C460.609 68.1328 459.843 71.9357 458.355 75.4772C456.866 79.0188 454.686 82.2278 451.942 84.9163L398.73 138.129C397.656 139.211 396.379 140.069 394.972 140.655C393.565 141.241 392.056 141.543 390.532 141.543C389.007 141.543 387.498 141.241 386.091 140.655C384.684 140.069 383.407 139.211 382.333 138.129L357.789 113.585C356.707 112.511 355.849 111.234 355.263 109.827C354.677 108.42 354.375 106.911 354.375 105.387C354.375 103.862 354.677 102.353 355.263 100.946C355.849 99.539 356.707 98.2618 357.789 97.1881L411.311 43.6663C416.718 38.3133 424.019 35.3105 431.627 35.3105C439.235 35.3105 446.536 38.3133 451.942 43.6663V43.6663Z" stroke="#45413C" stroke-width="7" stroke-linecap="round" stroke-linejoin="round"/>
<path d="M69.6641 281.163C69.6641 300.177 73.4091 319.005 80.6854 336.571C87.9616 354.138 98.6266 370.099 112.071 383.544C125.516 396.988 141.477 407.653 159.044 414.93C176.61 422.206 195.438 425.951 214.452 425.951C233.465 425.951 252.293 422.206 269.859 414.93C287.426 407.653 303.387 396.988 316.832 383.544C330.277 370.099 340.942 354.138 348.218 336.571C355.494 319.005 359.239 300.177 359.239 281.163C359.239 262.15 355.494 243.322 348.218 225.756C340.942 208.189 330.277 192.228 316.832 178.783C303.387 165.338 287.426 154.674 269.859 147.397C252.293 140.121 233.465 136.376 214.452 136.376C195.438 136.376 176.61 140.121 159.044 147.397C141.477 154.674 125.516 165.338 112.071 178.783C98.6266 192.228 87.9616 208.189 80.6854 225.756C73.4091 243.322 69.6641 262.15 69.6641 281.163Z" fill="#656769"/>
<path d="M112.253 213.514C131.389 194.172 155.6 180.631 182.097 174.451C208.595 168.272 236.298 169.705 262.016 178.587C287.734 187.469 310.418 203.436 327.455 224.65C344.492 245.864 355.188 271.46 358.309 298.489C360.324 278.414 358.11 258.14 351.808 238.974C345.506 219.807 335.257 202.175 321.722 187.213C308.186 172.251 291.666 160.292 273.225 152.108C254.784 143.923 234.832 139.694 214.656 139.694C194.481 139.694 174.529 143.923 156.088 152.108C137.647 160.292 121.126 172.251 107.591 187.213C94.0558 202.175 83.8068 219.807 77.5049 238.974C71.2029 258.14 68.9881 278.414 71.0031 298.489C74.8362 266.34 89.3641 236.412 112.253 213.514Z" fill="#525252"/>
<path d="M69.6641 281.163C69.6641 300.177 73.4091 319.005 80.6854 336.571C87.9616 354.138 98.6266 370.099 112.071 383.544C125.516 396.988 141.477 407.653 159.044 414.93C176.61 422.206 195.438 425.951 214.452 425.951C233.465 425.951 252.293 422.206 269.859 414.93C287.426 407.653 303.387 396.988 316.832 383.544C330.277 370.099 340.942 354.138 348.218 336.571C355.494 319.005 359.239 300.177 359.239 281.163C359.239 262.15 355.494 243.322 348.218 225.756C340.942 208.189 330.277 192.228 316.832 178.783C303.387 165.338 287.426 154.674 269.859 147.397C252.293 140.121 233.465 136.376 214.452 136.376C195.438 136.376 176.61 140.121 159.044 147.397C141.477 154.674 125.516 165.338 112.071 178.783C98.6266 192.228 87.9616 208.189 80.6854 225.756C73.4091 243.322 69.6641 262.15 69.6641 281.163V281.163Z" stroke="#45413C" stroke-width="7" stroke-linecap="round" stroke-linejoin="round"/>
<path d="M272.615 263.941C268.047 263.941 263.667 262.127 260.437 258.897C257.207 255.668 255.393 251.287 255.393 246.72C255.772 239.367 254.486 232.024 251.63 225.238C248.775 218.453 244.423 212.4 238.9 207.531C233.377 202.663 226.826 199.105 219.736 197.123C212.645 195.141 205.199 194.786 197.952 196.085C182.414 199.155 168.009 206.412 156.294 217.071C144.579 227.731 135.999 241.388 131.48 256.569C126.962 271.749 126.676 287.876 130.654 303.207C134.632 318.538 142.723 332.49 154.053 343.558C165.383 354.626 179.522 362.388 194.942 366.007C210.362 369.625 226.477 368.962 241.548 364.089C256.618 359.216 270.071 350.318 280.453 338.357C290.836 326.396 297.753 311.826 300.458 296.22C301.106 292.21 300.868 288.107 299.761 284.199C298.655 280.29 296.707 276.672 294.054 273.596C291.401 270.52 288.107 268.062 284.403 266.395C280.7 264.727 276.676 263.89 272.615 263.941Z" fill="#F0F0F0"/>
<path d="M129.478 297.045C132.845 280.152 141.149 264.637 153.338 252.466C165.528 240.295 181.055 232.015 197.953 228.673C205.2 227.374 212.646 227.729 219.736 229.711C226.827 231.693 233.378 235.251 238.901 240.119C244.423 244.987 248.775 251.04 251.631 257.826C254.487 264.612 255.773 271.955 255.393 279.307C255.393 283.885 257.205 288.276 260.431 291.522C263.658 294.768 268.038 296.605 272.615 296.632C277.458 296.638 282.221 297.871 286.459 300.215C290.697 302.559 294.271 305.939 296.85 310.039C298.427 305.573 299.634 300.986 300.459 296.323C301.106 292.313 300.868 288.21 299.762 284.302C298.656 280.394 296.708 276.775 294.055 273.7C291.401 270.624 288.108 268.166 284.404 266.498C280.7 264.83 276.677 263.993 272.615 264.045C268.048 264.045 263.667 262.231 260.438 259.001C257.208 255.771 255.393 251.391 255.393 246.823C255.773 239.471 254.487 232.128 251.631 225.342C248.775 218.556 244.423 212.503 238.901 207.635C233.378 202.766 226.827 199.208 219.736 197.226C212.646 195.245 205.2 194.89 197.953 196.189C181.043 199.504 165.502 207.777 153.308 219.952C141.115 232.128 132.819 247.656 129.478 264.561C127.466 275.469 127.466 286.653 129.478 297.561V297.045Z" fill="white"/>
<path d="M272.615 263.941C268.047 263.941 263.667 262.127 260.437 258.897C257.207 255.668 255.393 251.287 255.393 246.72C255.772 239.367 254.486 232.024 251.63 225.238C248.775 218.453 244.423 212.4 238.9 207.531C233.377 202.663 226.826 199.105 219.736 197.123C212.645 195.141 205.199 194.786 197.952 196.085C182.414 199.155 168.009 206.412 156.294 217.071C144.579 227.731 135.999 241.388 131.48 256.569C126.962 271.749 126.676 287.876 130.654 303.207C134.632 318.538 142.723 332.49 154.053 343.558C165.383 354.626 179.522 362.388 194.942 366.007C210.362 369.625 226.477 368.962 241.548 364.089C256.618 359.216 270.071 350.318 280.453 338.357C290.836 326.396 297.753 311.826 300.458 296.22C301.106 292.21 300.868 288.107 299.761 284.199C298.655 280.29 296.707 276.672 294.054 273.596C291.401 270.52 288.107 268.062 284.403 266.395C280.7 264.727 276.676 263.89 272.615 263.941Z" stroke="#45413C" stroke-width="7" stroke-linecap="round" stroke-linejoin="round"/>
<path d="M168.453 292.92C168.453 302.137 172.115 310.977 178.632 317.494C185.15 324.012 193.989 327.673 203.206 327.673C212.423 327.673 221.263 324.012 227.78 317.494C234.298 310.977 237.959 302.137 237.959 292.92C237.959 283.703 234.298 274.863 227.78 268.346C221.263 261.828 212.423 258.167 203.206 258.167C193.989 258.167 185.15 261.828 178.632 268.346C172.115 274.863 168.453 283.703 168.453 292.92Z" fill="#FFAA54"/>
<path d="M203.209 278.792C210.566 278.844 217.713 281.242 223.612 285.638C229.51 290.034 233.851 296.198 236.003 303.233C237.111 299.905 237.702 296.427 237.756 292.92C237.756 283.703 234.095 274.863 227.577 268.346C221.06 261.828 212.22 258.167 203.003 258.167C193.786 258.167 184.946 261.828 178.429 268.346C171.911 274.863 168.25 283.703 168.25 292.92C168.304 296.427 168.896 299.905 170.003 303.233C172.19 296.139 176.597 289.936 182.575 285.536C188.554 281.136 195.787 278.772 203.209 278.792Z" fill="#FFCC99"/>
<path d="M168.453 292.92C168.453 302.137 172.115 310.977 178.632 317.494C185.15 324.012 193.989 327.673 203.206 327.673C212.423 327.673 221.263 324.012 227.78 317.494C234.298 310.977 237.959 302.137 237.959 292.92C237.959 283.703 234.298 274.863 227.78 268.346C221.263 261.828 212.423 258.167 203.206 258.167C193.989 258.167 185.15 261.828 178.632 268.346C172.115 274.863 168.453 283.703 168.453 292.92V292.92Z" stroke="#45413C" stroke-width="7" stroke-linecap="round" stroke-linejoin="round"/>
</svg>
