<svg width="496" height="496" viewBox="0 0 496 496" fill="none" xmlns="http://www.w3.org/2000/svg">
<path d="M440.609 119.7C446.261 111.882 449.298 102.479 449.289 92.8331C449.302 86.7228 448.109 80.67 445.777 75.0222C443.445 69.3744 440.02 64.2429 435.7 59.9222C431.379 55.6016 426.247 52.177 420.6 49.8449C414.952 47.5129 408.899 46.3195 402.789 46.3331C393.142 46.3234 383.739 49.3612 375.922 55.0131C374.649 50.3634 372.101 46.1625 368.565 42.8857C365.029 39.6089 360.647 37.3868 355.914 36.4707C351.181 35.5546 346.286 35.9812 341.783 37.7021C337.28 39.423 333.348 42.3696 330.433 46.2086C327.517 50.0477 325.734 54.626 325.284 59.4257C324.835 64.2255 325.738 69.0552 327.89 73.3687C330.043 77.6822 333.36 81.3072 337.465 83.834C341.571 86.3607 346.301 87.6882 351.122 87.6664C353.071 87.636 355.012 87.3934 356.909 86.9431C356.549 88.8873 356.342 90.8566 356.289 92.8331C356.275 98.9434 357.468 104.996 359.8 110.644C362.133 116.292 365.557 121.423 369.878 125.744C374.198 130.065 379.33 133.489 384.978 135.821C390.626 138.153 396.678 139.347 402.789 139.333C404.765 139.28 406.734 139.073 408.679 138.713C408.228 140.61 407.986 142.55 407.955 144.5C407.934 149.32 409.261 154.051 411.788 158.157C414.315 162.262 417.94 165.579 422.253 167.731C426.566 169.884 431.396 170.787 436.196 170.337C440.996 169.888 445.574 168.105 449.413 165.189C453.252 162.273 456.199 158.342 457.92 153.838C459.641 149.335 460.067 144.44 459.151 139.708C458.235 134.975 456.013 130.592 452.736 127.057C449.459 123.521 445.258 120.972 440.609 119.7Z" fill="#00B8F0" stroke="#45413C" stroke-width="7" stroke-linecap="round" stroke-linejoin="round"/>
<path d="M55.0131 119.7C49.3612 111.882 46.3234 102.479 46.3331 92.8331C46.3195 86.7228 47.5129 80.67 49.8449 75.0222C52.1769 69.3744 55.6016 64.2429 59.9222 59.9222C64.2429 55.6016 69.3744 52.177 75.0222 49.8449C80.67 47.5129 86.7228 46.3195 92.8331 46.3331C102.479 46.3234 111.882 49.3612 119.7 55.0131C120.972 50.3634 123.521 46.1625 127.057 42.8857C130.592 39.6089 134.975 37.3868 139.708 36.4707C144.44 35.5546 149.335 35.9812 153.838 37.7021C158.342 39.423 162.273 42.3696 165.189 46.2086C168.105 50.0477 169.888 54.626 170.337 59.4257C170.787 64.2255 169.884 69.0552 167.731 73.3687C165.579 77.6822 162.262 81.3072 158.157 83.834C154.051 86.3607 149.32 87.6882 144.5 87.6664C142.55 87.636 140.61 87.3934 138.713 86.9431C139.073 88.8873 139.28 90.8566 139.333 92.8331C139.347 98.9434 138.153 104.996 135.821 110.644C133.489 116.292 130.065 121.423 125.744 125.744C121.423 130.065 116.292 133.489 110.644 135.821C104.996 138.153 98.9434 139.347 92.8331 139.333C90.8566 139.28 88.8873 139.073 86.9431 138.713C87.3934 140.61 87.636 142.55 87.6664 144.5C87.6882 149.32 86.3607 154.051 83.834 158.157C81.3072 162.262 77.6822 165.579 73.3687 167.731C69.0552 169.884 64.2255 170.787 59.4257 170.337C54.626 169.888 50.0477 168.105 46.2086 165.189C42.3696 162.273 39.423 158.342 37.7021 153.838C35.9812 149.335 35.5546 144.44 36.4707 139.708C37.3868 134.975 39.6089 130.592 42.8857 127.057C46.1625 123.521 50.3634 120.972 55.0131 119.7Z" fill="#F00004" stroke="#45413C" stroke-width="7" stroke-linecap="round" stroke-linejoin="round"/>
<path d="M41.168 253C41.168 307.811 62.9417 360.378 101.699 399.135C140.457 437.893 193.023 459.666 247.835 459.666C302.646 459.666 355.213 437.893 393.97 399.135C432.728 360.378 454.501 307.811 454.501 253C454.501 198.188 432.728 145.622 393.97 106.864C355.213 68.1068 302.646 46.333 247.835 46.333C193.023 46.333 140.457 68.1068 101.699 106.864C62.9417 145.622 41.168 198.188 41.168 253Z" fill="#FFFCE5"/>
<path d="M247.835 46.333C206.96 46.333 167.003 58.4538 133.017 81.1626C99.0307 103.871 72.5417 136.148 56.8996 173.912C41.2575 211.675 37.1648 253.229 45.1391 293.318C53.1134 333.408 72.7965 370.232 101.699 399.135C130.602 428.038 167.427 447.721 207.516 455.695C247.605 463.67 289.159 459.577 326.923 443.935C364.686 428.293 396.963 401.804 419.672 367.818C442.381 333.831 454.501 293.874 454.501 253C454.501 198.188 432.728 145.622 393.97 106.864C355.213 68.1068 302.646 46.333 247.835 46.333ZM247.835 428.666C210.536 428.666 174.076 417.606 143.063 396.884C112.051 376.163 87.8799 346.71 73.6064 312.251C59.333 277.792 55.5984 239.874 62.875 203.292C70.1515 166.711 88.1123 133.108 114.486 106.734C140.86 80.3606 174.462 62.3998 211.044 55.1233C247.626 47.8467 285.543 51.5813 320.002 65.8547C354.462 80.1282 383.914 104.299 404.636 135.312C425.358 166.324 436.418 202.785 436.418 240.083C436.418 290.098 416.549 338.065 381.183 373.432C345.817 408.798 297.85 428.666 247.835 428.666Z" fill="#FFFACF"/>
<path d="M185.832 87.667C185.832 91.7778 192.364 95.7203 203.991 98.6271C215.619 101.534 231.389 103.167 247.832 103.167C264.275 103.167 280.045 101.534 291.673 98.6271C303.3 95.7203 309.832 91.7778 309.832 87.667C309.832 83.5561 303.3 79.6136 291.673 76.7068C280.045 73.8 264.275 72.167 247.832 72.167C231.389 72.167 215.619 73.8 203.991 76.7068C192.364 79.6136 185.832 83.5561 185.832 87.667Z" fill="white"/>
<path d="M41.168 253C41.168 307.811 62.9417 360.378 101.699 399.135C140.457 437.893 193.023 459.666 247.835 459.666C302.646 459.666 355.213 437.893 393.97 399.135C432.728 360.378 454.501 307.811 454.501 253C454.501 198.188 432.728 145.622 393.97 106.864C355.213 68.1068 302.646 46.333 247.835 46.333C193.023 46.333 140.457 68.1068 101.699 106.864C62.9417 145.622 41.168 198.188 41.168 253V253Z" stroke="#45413C" stroke-width="7" stroke-linecap="round" stroke-linejoin="round"/>
<path d="M402.835 304.667C402.835 313.244 391.261 320.167 377.001 320.167C362.741 320.167 351.168 313.244 351.168 304.667C351.168 296.09 362.741 289.167 377.001 289.167C391.261 289.167 402.835 296.09 402.835 304.667Z" fill="#FF87AF"/>
<path d="M92.832 304.667C92.832 313.244 104.405 320.167 118.665 320.167C132.925 320.167 144.499 313.244 144.499 304.667C144.499 296.09 132.925 289.167 118.665 289.167C104.405 289.167 92.832 296.09 92.832 304.667Z" fill="#FF87AF"/>
<path d="M201.332 289.167C201.332 298.759 206.231 307.958 214.952 314.74C223.672 321.523 235.499 325.333 247.832 325.333C260.165 325.333 271.992 321.523 280.712 314.74C289.433 307.958 294.332 298.759 294.332 289.167C294.332 279.575 289.433 270.376 280.712 263.593C271.992 256.81 260.165 253 247.832 253C235.499 253 223.672 256.81 214.952 263.593C206.231 270.376 201.332 279.575 201.332 289.167Z" fill="#FF6242"/>
<path d="M247.832 273.667C256.945 273.122 266.016 275.284 273.903 279.88C281.791 284.477 288.144 291.303 292.162 299.5C293.504 296.215 294.239 292.714 294.332 289.167C294.332 269.223 273.665 253 247.832 253C221.999 253 201.332 269.223 201.332 289.167C201.425 292.714 202.16 296.215 203.502 299.5C207.521 291.303 213.873 284.477 221.761 279.88C229.648 275.284 238.719 273.122 247.832 273.667Z" fill="#FF866E"/>
<path d="M201.332 289.167C201.332 298.759 206.231 307.958 214.952 314.74C223.672 321.523 235.499 325.333 247.832 325.333C260.165 325.333 271.992 321.523 280.712 314.74C289.433 307.958 294.332 298.759 294.332 289.167C294.332 279.575 289.433 270.376 280.712 263.593C271.992 256.81 260.165 253 247.832 253C235.499 253 223.672 256.81 214.952 263.593C206.231 270.376 201.332 279.575 201.332 289.167V289.167Z" stroke="#45413C" stroke-width="7" stroke-linecap="round" stroke-linejoin="round"/>
<path d="M247.835 413.167C230.225 413.698 212.722 410.258 196.622 403.103C180.523 395.947 166.241 385.26 154.835 371.833C152.799 369.119 151.318 366.031 150.476 362.745C149.634 359.458 149.448 356.038 149.928 352.68C150.407 349.322 151.544 346.091 153.272 343.172C155.001 340.252 157.287 337.702 160.001 335.667C165.482 331.556 172.372 329.791 179.155 330.76C185.937 331.729 192.057 335.352 196.168 340.833C202.77 347.814 210.809 353.278 219.73 356.846C228.65 360.414 238.24 362.002 247.835 361.5C257.434 362.044 267.036 360.476 275.963 356.905C284.89 353.334 292.925 347.848 299.501 340.833C303.689 335.482 309.796 331.971 316.528 331.045C323.26 330.12 330.088 331.851 335.565 335.873C338.28 337.883 340.571 340.408 342.306 343.306C344.042 346.204 345.187 349.416 345.677 352.758C346.167 356.099 345.991 359.505 345.16 362.779C344.329 366.053 342.859 369.13 340.835 371.833C329.428 385.26 315.146 395.947 299.047 403.103C282.948 410.258 265.444 413.698 247.835 413.167Z" fill="#FF6242"/>
<path d="M335.621 335.872C330.145 331.85 323.317 330.118 316.585 331.044C309.853 331.97 303.746 335.481 299.558 340.832C292.982 347.847 284.947 353.333 276.02 356.904C267.093 360.475 257.491 362.043 247.891 361.499C238.297 362.001 228.707 360.413 219.786 356.845C210.866 353.276 202.826 347.813 196.225 340.832C193.111 336.593 188.773 333.41 183.795 331.712C178.817 330.014 173.438 329.882 168.383 331.334C163.328 332.787 158.839 335.754 155.521 339.835C152.204 343.917 150.217 348.917 149.828 354.162C152.803 351.632 156.268 349.743 160.005 348.612C163.743 347.481 167.674 347.132 171.553 347.588C175.431 348.043 179.174 349.294 182.548 351.261C185.922 353.227 188.854 355.868 191.161 359.019C198.373 366.76 207.183 372.84 216.979 376.836C226.775 380.833 237.323 382.652 247.891 382.166C258.48 382.75 269.069 381.018 278.92 377.092C288.771 373.166 297.647 367.139 304.931 359.432C307.229 356.269 310.157 353.616 313.531 351.64C316.905 349.664 320.652 348.409 324.535 347.953C328.418 347.496 332.353 347.849 336.093 348.989C339.833 350.129 343.296 352.031 346.265 354.576C345.946 350.874 344.83 347.286 342.992 344.058C341.155 340.829 338.641 338.037 335.621 335.872Z" fill="#FF866E"/>
<path d="M247.835 413.167C230.225 413.698 212.722 410.258 196.622 403.103C180.523 395.947 166.241 385.26 154.835 371.833C152.799 369.119 151.318 366.031 150.476 362.745C149.634 359.458 149.448 356.038 149.928 352.68C150.407 349.322 151.544 346.091 153.272 343.172C155.001 340.252 157.287 337.702 160.001 335.667C165.482 331.556 172.372 329.791 179.155 330.76C185.937 331.729 192.057 335.352 196.168 340.833C202.77 347.814 210.809 353.278 219.73 356.846C228.65 360.414 238.24 362.002 247.835 361.5C257.434 362.044 267.036 360.476 275.963 356.905C284.89 353.334 292.925 347.848 299.501 340.833C303.689 335.482 309.796 331.971 316.528 331.045C323.26 330.12 330.088 331.851 335.565 335.873C338.28 337.883 340.571 340.408 342.306 343.306C344.042 346.204 345.187 349.416 345.677 352.758C346.167 356.099 345.991 359.505 345.16 362.779C344.329 366.053 342.859 369.13 340.835 371.833C329.428 385.26 315.146 395.947 299.047 403.103C282.948 410.258 265.444 413.698 247.835 413.167V413.167Z" stroke="#45413C" stroke-width="7" stroke-linecap="round" stroke-linejoin="round"/>
<path d="M180.668 361.5C180.668 361.5 200.095 387.333 247.835 387.333C295.575 387.333 315.001 361.5 315.001 361.5" stroke="#45413C" stroke-width="7" stroke-linecap="round" stroke-linejoin="round"/>
<path d="M309.832 232.333C309.832 243.296 313.642 253.809 320.425 261.56C327.208 269.312 336.407 273.667 345.999 273.667C355.591 273.667 364.79 269.312 371.572 261.56C378.355 253.809 382.165 243.296 382.165 232.333C382.165 221.371 378.355 210.858 371.572 203.106C364.79 195.355 355.591 191 345.999 191C336.407 191 327.208 195.355 320.425 203.106C313.642 210.858 309.832 221.371 309.832 232.333Z" fill="white" stroke="#45413C" stroke-width="7" stroke-linecap="round" stroke-linejoin="round"/>
<path d="M113.5 232.333C113.5 237.761 114.435 243.136 116.253 248.151C118.071 253.166 120.735 257.722 124.093 261.56C127.451 265.399 131.438 268.443 135.826 270.52C140.214 272.598 144.917 273.667 149.667 273.667C154.416 273.667 159.119 272.598 163.507 270.52C167.895 268.443 171.882 265.399 175.24 261.56C178.599 257.722 181.263 253.166 183.08 248.151C184.898 243.136 185.833 237.761 185.833 232.333C185.833 226.905 184.898 221.531 183.08 216.516C181.263 211.501 178.599 206.944 175.24 203.106C171.882 199.268 167.895 196.224 163.507 194.146C159.119 192.069 154.416 191 149.667 191C144.917 191 140.214 192.069 135.826 194.146C131.438 196.224 127.451 199.268 124.093 203.106C120.735 206.944 118.071 211.501 116.253 216.516C114.435 221.531 113.5 226.905 113.5 232.333Z" fill="white" stroke="#45413C" stroke-width="7" stroke-linecap="round" stroke-linejoin="round"/>
<path d="M159.999 232.333C159.999 234.377 159.393 236.375 158.257 238.074C157.122 239.774 155.508 241.098 153.62 241.88C151.732 242.662 149.654 242.867 147.649 242.468C145.645 242.069 143.804 241.085 142.359 239.64C140.913 238.195 139.929 236.354 139.531 234.349C139.132 232.345 139.337 230.267 140.119 228.379C140.901 226.491 142.225 224.877 143.924 223.741C145.624 222.606 147.622 222 149.665 222C152.406 222 155.034 223.089 156.972 225.027C158.91 226.964 159.999 229.593 159.999 232.333Z" fill="#45413C" stroke="#45413C" stroke-width="7" stroke-linecap="round" stroke-linejoin="round"/>
<path d="M335.668 232.333C335.668 234.377 336.274 236.375 337.409 238.074C338.545 239.774 340.159 241.098 342.047 241.88C343.935 242.662 346.013 242.867 348.017 242.468C350.022 242.069 351.863 241.085 353.308 239.64C354.753 238.195 355.737 236.354 356.136 234.349C356.535 232.345 356.33 230.267 355.548 228.379C354.766 226.491 353.441 224.877 351.742 223.741C350.043 222.606 348.045 222 346.001 222C343.261 222 340.632 223.089 338.695 225.027C336.757 226.964 335.668 229.593 335.668 232.333Z" fill="#45413C" stroke="#45413C" stroke-width="7" stroke-linecap="round" stroke-linejoin="round"/>
<path d="M309.832 165.166C312.774 157.863 317.74 151.551 324.148 146.975C330.555 142.398 338.136 139.747 345.999 139.333C353.862 139.747 361.443 142.398 367.85 146.975C374.257 151.551 379.224 157.863 382.165 165.166" stroke="#45413C" stroke-width="7" stroke-linecap="round" stroke-linejoin="round"/>
<path d="M113.5 165.166C116.442 157.863 121.408 151.551 127.816 146.975C134.223 142.398 141.804 139.747 149.667 139.333C157.53 139.747 165.111 142.398 171.518 146.975C177.925 151.551 182.892 157.863 185.833 165.166" stroke="#45413C" stroke-width="7" stroke-linecap="round" stroke-linejoin="round"/>
</svg>
