<svg width="496" height="496" viewBox="0 0 496 496" fill="none" xmlns="http://www.w3.org/2000/svg">
<path d="M247.998 316.852C280.556 316.852 311.781 329.785 334.803 352.807C357.825 375.829 370.758 407.054 370.758 439.612V459.245H125.238V439.612C125.238 407.054 138.172 375.829 161.194 352.807C184.216 329.785 215.44 316.852 247.998 316.852Z" fill="white"/>
<path d="M247.998 316.852C215.44 316.852 184.216 329.785 161.194 352.807C138.172 375.829 125.238 407.054 125.238 439.612V459.245H126.375C130.403 429.849 144.942 402.906 167.301 383.402C189.661 363.898 218.327 353.152 247.998 353.152C277.669 353.152 306.336 363.898 328.695 383.402C351.055 402.906 365.593 429.849 369.622 459.245H370.758V439.612C370.758 407.054 357.825 375.829 334.803 352.807C311.781 329.785 280.556 316.852 247.998 316.852Z" fill="#F0F0F0"/>
<path d="M247.998 316.852C280.556 316.852 311.781 329.785 334.803 352.807C357.825 375.829 370.758 407.054 370.758 439.612V459.245H125.238V439.612C125.238 407.054 138.172 375.829 161.194 352.807C184.216 329.785 215.44 316.852 247.998 316.852V316.852Z" stroke="#45413C" stroke-width="7" stroke-linecap="round" stroke-linejoin="round"/>
<path d="M199.328 341.962C199.328 351.663 204.456 360.968 213.583 367.828C222.711 374.688 235.09 378.542 247.998 378.542C260.906 378.542 273.286 374.688 282.413 367.828C291.54 360.968 296.668 351.663 296.668 341.962C296.668 332.26 291.54 322.956 282.413 316.096C273.286 309.236 260.906 305.382 247.998 305.382C235.09 305.382 222.711 309.236 213.583 316.096C204.456 322.956 199.328 332.26 199.328 341.962Z" fill="#00DBA8"/>
<path d="M248 305.381C238.597 304.754 229.212 306.846 220.966 311.409C212.721 315.971 205.963 322.811 201.5 331.111C205.938 339.439 212.688 346.308 220.937 350.891C229.187 355.474 238.584 357.576 248 356.945C257.416 357.576 266.813 355.474 275.063 350.891C283.312 346.308 290.062 339.439 294.5 331.111C290.037 322.811 283.279 315.971 275.034 311.409C266.788 306.846 257.403 304.754 248 305.381Z" fill="#00AD85"/>
<path d="M199.328 341.962C199.328 351.663 204.456 360.968 213.583 367.828C222.711 374.688 235.09 378.542 247.998 378.542C260.906 378.542 273.286 374.688 282.413 367.828C291.54 360.968 296.668 351.663 296.668 341.962C296.668 332.26 291.54 322.956 282.413 316.096C273.286 309.236 260.906 305.382 247.998 305.382C235.09 305.382 222.711 309.236 213.583 316.096C204.456 322.956 199.328 332.26 199.328 341.962V341.962Z" stroke="#45413C" stroke-width="7" stroke-linecap="round" stroke-linejoin="round"/>
<path d="M248.001 274.898C244.545 274.898 241.124 275.581 237.933 276.906C234.742 278.232 231.844 280.174 229.405 282.622C226.966 285.071 225.035 287.976 223.722 291.173C222.409 294.369 221.741 297.793 221.754 301.248V330.595C221.754 337.556 224.519 344.232 229.442 349.154C234.364 354.076 241.04 356.842 248.001 356.842C254.962 356.842 261.638 354.076 266.56 349.154C271.482 344.232 274.247 337.556 274.247 330.595V301.248C274.261 297.793 273.592 294.369 272.279 291.173C270.966 287.976 269.035 285.071 266.597 282.622C264.158 280.174 261.26 278.232 258.069 276.906C254.878 275.581 251.456 274.898 248.001 274.898Z" fill="#FFCEBF"/>
<path d="M248.001 274.898C241.04 274.898 234.364 277.664 229.441 282.586C224.519 287.508 221.754 294.184 221.754 301.145V307.345C221.754 314.306 224.519 320.982 229.441 325.904C234.364 330.826 241.04 333.592 248.001 333.592C254.962 333.592 261.638 330.826 266.56 325.904C271.482 320.982 274.247 314.306 274.247 307.345V301.248C274.261 297.793 273.592 294.369 272.279 291.173C270.966 287.976 269.035 285.071 266.596 282.622C264.158 280.174 261.26 278.232 258.069 276.906C254.878 275.581 251.456 274.898 248.001 274.898Z" fill="#FFB59E"/>
<path d="M248.001 274.898C244.545 274.898 241.124 275.581 237.933 276.906C234.742 278.232 231.844 280.174 229.405 282.622C226.966 285.071 225.035 287.976 223.722 291.173C222.409 294.369 221.741 297.793 221.754 301.248V330.595C221.754 337.556 224.519 344.232 229.442 349.154C234.364 354.076 241.04 356.842 248.001 356.842C254.962 356.842 261.638 354.076 266.56 349.154C271.482 344.232 274.247 337.556 274.247 330.595V301.248C274.261 297.793 273.592 294.369 272.279 291.173C270.966 287.976 269.035 285.071 266.597 282.622C264.158 280.174 261.26 278.232 258.069 276.906C254.878 275.581 251.456 274.898 248.001 274.898V274.898Z" stroke="#45413C" stroke-width="7" stroke-linecap="round" stroke-linejoin="round"/>
<path d="M176.285 459.245V434.342" stroke="#45413C" stroke-width="7" stroke-linecap="round" stroke-linejoin="round"/>
<path d="M319.715 459.245V434.238" stroke="#45413C" stroke-width="7" stroke-linecap="round" stroke-linejoin="round"/>
<path d="M269.701 377.405C274.853 384.417 282.085 389.624 290.368 392.285C303.801 396.005 312.481 390.425 318.268 394.042C309.795 370.689 289.748 358.599 276.935 364.489C264.121 370.379 269.701 377.405 269.701 377.405Z" fill="#00DBA8" stroke="#45413C" stroke-width="7" stroke-linecap="round" stroke-linejoin="round"/>
<path d="M258.331 377.818C253.885 387.065 252.474 397.481 254.301 407.578C258.021 423.388 268.458 429.175 268.045 437.132C287.265 415.432 288.711 388.152 275.278 378.232C261.845 368.312 258.331 377.818 258.331 377.818Z" fill="#00DBA8" stroke="#45413C" stroke-width="7" stroke-linecap="round" stroke-linejoin="round"/>
<path d="M248 356.945C251.669 358.789 254.616 361.808 256.37 365.521C257.642 369.498 258.304 373.643 258.333 377.818C261.345 379.148 264.6 379.834 267.892 379.834C271.183 379.834 274.439 379.148 277.45 377.818C279.575 376.458 281.397 374.676 282.804 372.582C284.21 370.489 285.171 368.128 285.627 365.647C286.082 363.166 286.023 360.617 285.451 358.161C284.88 355.704 283.81 353.39 282.307 351.365C275.28 342.271 260.09 340.205 248 356.945Z" fill="#00DBA8" stroke="#45413C" stroke-width="7" stroke-linecap="round" stroke-linejoin="round"/>
<path d="M248.001 65.6484C239.495 65.6564 231.025 66.7326 222.787 68.8518C203.567 73.1918 178.561 80.4251 155.931 76.0851C155.049 81.9137 155.364 87.8608 156.856 93.5636C158.349 99.2665 160.987 104.606 164.611 109.255C152.821 126.248 146.511 146.44 146.527 167.122V220.235H349.474V167.122C349.474 140.209 338.783 114.399 319.753 95.3693C300.723 76.3393 274.913 65.6484 248.001 65.6484Z" fill="#A86C4D" stroke="#45413C" stroke-width="7" stroke-linecap="round" stroke-linejoin="round"/>
<path d="M360.322 212.485C359.82 208.691 358.178 205.138 355.613 202.297C353.049 199.455 349.682 197.459 345.959 196.572L339.862 194.919C335.37 193.65 331.419 190.94 328.619 187.206C325.818 183.471 324.322 178.92 324.362 174.252V153.172C324.351 148.911 322.939 144.771 320.343 141.392C317.748 138.012 314.113 135.579 309.999 134.469C290.294 142.335 269.211 146.165 247.999 145.732C226.787 146.165 205.703 142.335 185.999 134.469C181.866 135.56 178.208 137.985 175.592 141.366C172.977 144.747 171.55 148.897 171.532 153.172V174.459C171.572 179.126 170.076 183.678 167.276 187.412C164.475 191.146 160.524 193.857 156.032 195.125L149.935 196.779C146.212 197.666 142.846 199.662 140.281 202.504C137.716 205.345 136.074 208.898 135.572 212.692C135.296 215.308 135.575 217.953 136.39 220.454C137.206 222.955 138.539 225.255 140.305 227.206C142.07 229.156 144.226 230.712 146.634 231.773C149.041 232.833 151.645 233.373 154.275 233.359H155.412C157.83 256.201 168.616 277.341 185.692 292.705C202.768 308.069 224.925 316.569 247.895 316.569C270.866 316.569 293.023 308.069 310.099 292.705C327.175 277.341 337.961 256.201 340.379 233.359H341.515C344.174 233.391 346.809 232.857 349.245 231.791C351.68 230.725 353.861 229.152 355.64 227.176C357.42 225.201 358.758 222.869 359.566 220.336C360.373 217.802 360.631 215.126 360.322 212.485Z" fill="#FFCEBF" stroke="#45413C" stroke-width="7" stroke-linecap="round" stroke-linejoin="round"/>
<path d="M191.891 210.315C191.891 211.888 192.358 213.427 193.232 214.735C194.107 216.044 195.349 217.064 196.803 217.666C198.257 218.268 199.857 218.426 201.4 218.119C202.944 217.812 204.361 217.054 205.474 215.941C206.587 214.828 207.345 213.41 207.652 211.867C207.959 210.324 207.801 208.724 207.199 207.27C206.597 205.816 205.577 204.573 204.268 203.699C202.96 202.825 201.422 202.358 199.848 202.358C198.799 202.344 197.758 202.541 196.787 202.935C195.815 203.33 194.932 203.916 194.191 204.658C193.449 205.399 192.864 206.282 192.469 207.254C192.074 208.225 191.877 209.266 191.891 210.315Z" fill="#45413C" stroke="#45413C" stroke-width="7" stroke-linecap="round" stroke-linejoin="round"/>
<path d="M304.109 210.315C304.109 211.888 303.642 213.427 302.768 214.735C301.893 216.044 300.651 217.064 299.197 217.666C297.743 218.268 296.143 218.426 294.6 218.119C293.056 217.812 291.639 217.054 290.526 215.941C289.413 214.828 288.655 213.41 288.348 211.867C288.041 210.324 288.199 208.724 288.801 207.27C289.403 205.816 290.423 204.573 291.731 203.699C293.04 202.825 294.578 202.358 296.152 202.358C297.201 202.344 298.242 202.541 299.213 202.935C300.185 203.33 301.068 203.916 301.809 204.658C302.551 205.399 303.136 206.282 303.531 207.254C303.926 208.225 304.123 209.266 304.109 210.315Z" fill="#45413C" stroke="#45413C" stroke-width="7" stroke-linecap="round" stroke-linejoin="round"/>
<path d="M218.654 258.778C218 258.792 217.357 258.947 216.769 259.233C216.18 259.518 215.66 259.927 215.244 260.432C214.812 260.918 214.494 261.496 214.315 262.122C214.137 262.748 214.101 263.407 214.211 264.048C215.606 271.997 219.759 279.199 225.939 284.389C232.119 289.579 239.931 292.423 248.001 292.423C256.071 292.423 263.883 289.579 270.063 284.389C276.243 279.199 280.396 271.997 281.791 264.048C281.901 263.407 281.865 262.748 281.686 262.122C281.508 261.496 281.19 260.918 280.758 260.432C280.342 259.927 279.822 259.518 279.233 259.233C278.645 258.947 278.001 258.792 277.348 258.778H218.654Z" fill="#FF6242"/>
<path d="M248.001 273.245C238.671 272.881 229.493 275.685 221.961 281.202C225.217 284.828 229.2 287.728 233.651 289.714C238.102 291.699 242.921 292.725 247.794 292.725C252.668 292.725 257.487 291.699 261.938 289.714C266.388 287.728 270.371 284.828 273.628 281.202C266.208 275.774 257.19 272.974 248.001 273.245Z" fill="#FFA694"/>
<path d="M218.654 258.778C218 258.792 217.357 258.947 216.769 259.233C216.18 259.518 215.66 259.927 215.244 260.432C214.812 260.918 214.494 261.496 214.315 262.122C214.137 262.748 214.101 263.407 214.211 264.048C215.606 271.997 219.759 279.199 225.939 284.389C232.119 289.579 239.931 292.423 248.001 292.423C256.071 292.423 263.883 289.579 270.063 284.389C276.243 279.199 280.396 271.997 281.791 264.048C281.901 263.407 281.865 262.748 281.686 262.122C281.508 261.496 281.19 260.918 280.758 260.432C280.342 259.927 279.822 259.518 279.233 259.233C278.645 258.947 278.001 258.792 277.348 258.778H218.654Z" stroke="#45413C" stroke-width="7" stroke-linecap="round" stroke-linejoin="round"/>
<path d="M176.285 244.209C176.285 245.853 177.374 247.43 179.312 248.593C181.25 249.756 183.878 250.409 186.618 250.409C189.359 250.409 191.987 249.756 193.925 248.593C195.863 247.43 196.952 245.853 196.952 244.209C196.952 242.564 195.863 240.987 193.925 239.825C191.987 238.662 189.359 238.009 186.618 238.009C183.878 238.009 181.25 238.662 179.312 239.825C177.374 240.987 176.285 242.564 176.285 244.209Z" fill="#FFB59E"/>
<path d="M299.047 244.209C299.047 245.853 300.136 247.43 302.073 248.593C304.011 249.756 306.64 250.409 309.38 250.409C312.121 250.409 314.749 249.756 316.687 248.593C318.625 247.43 319.714 245.853 319.714 244.209C319.714 242.564 318.625 240.987 316.687 239.825C314.749 238.662 312.121 238.009 309.38 238.009C306.64 238.009 304.011 238.662 302.073 239.825C300.136 240.987 299.047 242.564 299.047 244.209Z" fill="#FFB59E"/>
<path d="M141.258 176.732C141.258 165.779 188.998 156.892 248.001 156.892C307.004 156.892 354.744 165.779 354.744 176.732L351.334 137.052C351.334 126.099 305.041 117.315 248.001 117.315C190.961 117.315 144.668 126.099 144.668 137.052L141.258 176.732Z" fill="#8CA4B8"/>
<path d="M248.001 117.315C190.961 117.315 144.668 126.099 144.668 137.052L141.258 176.112C143.014 165.779 190.134 156.892 248.001 156.892H264.638C284.933 148.718 303.748 137.268 320.334 122.999C296.438 118.976 272.233 117.074 248.001 117.315Z" fill="#627B8C"/>
<path d="M141.258 176.732C141.258 165.779 188.998 156.892 248.001 156.892C307.004 156.892 354.744 165.779 354.744 176.732L351.334 137.052C351.334 126.099 305.041 117.315 248.001 117.315C190.961 117.315 144.668 126.099 144.668 137.052L141.258 176.732Z" stroke="#45413C" stroke-width="7" stroke-linecap="round" stroke-linejoin="round"/>
<path d="M364.663 87.2449C342.756 52.1115 287.37 43.0182 248 45.9115C201.82 51.3422 157.716 68.1742 119.66 94.8915C101.68 107.912 95.3762 121.758 100.646 129.922C111.703 150.588 170.396 155.445 260.296 117.418C311.963 118.555 351.333 126.925 351.333 137.052C351.333 137.052 384.09 117.315 364.663 87.2449Z" fill="#8CA4B8"/>
<path d="M104.573 134.882C108.875 129.354 113.957 124.481 119.66 120.415C157.746 93.8076 201.848 77.0831 248 71.7449C287.37 68.5415 342.756 77.6349 364.663 112.252C365.964 114.206 367.071 116.282 367.97 118.452C370.245 113.426 371.138 107.885 370.557 102.399C369.975 96.9131 367.941 91.6818 364.663 87.2449C342.756 52.1115 287.37 43.0182 248 45.9115C201.82 51.3422 157.716 68.1742 119.66 94.8915C101.68 107.912 95.3762 121.758 100.646 129.922C101.707 131.757 103.03 133.428 104.573 134.882Z" fill="#ADC4D9"/>
<path d="M364.663 87.2449C342.756 52.1115 287.37 43.0182 248 45.9115C201.82 51.3422 157.716 68.1742 119.66 94.8915C101.68 107.912 95.3762 121.758 100.646 129.922C111.703 150.588 170.396 155.445 260.296 117.418C311.963 118.555 351.333 126.925 351.333 137.052C351.333 137.052 384.09 117.315 364.663 87.2449Z" stroke="#45413C" stroke-width="7" stroke-linecap="round" stroke-linejoin="round"/>
<path d="M260.297 117.419C274.144 111.529 288.817 104.605 304.11 96.752" stroke="#45413C" stroke-width="7" stroke-linecap="round" stroke-linejoin="round"/>
<path d="M230.945 48.2635C231.121 49.7321 231.736 51.1336 232.754 52.3879C233.772 53.6422 235.175 54.7248 236.881 55.5739C238.586 56.4229 240.563 57.0218 242.696 57.3363C244.83 57.6508 247.079 57.6748 249.316 57.4069C251.553 57.139 253.733 56.5845 255.732 55.775C257.731 54.9655 259.51 53.9168 260.967 52.6889C262.424 51.461 263.531 50.0779 264.224 48.6186C264.918 47.1592 265.184 45.6522 265.008 44.1836C264.832 42.715 264.218 41.3135 263.199 40.0592C262.181 38.8049 260.778 37.7223 259.073 36.8732C257.367 36.0242 255.39 35.4253 253.257 35.1108C251.123 34.7962 248.874 34.7722 246.637 35.0401C244.4 35.308 242.22 35.8626 240.221 36.6721C238.222 37.4816 236.443 38.5302 234.986 39.7581C233.529 40.986 232.422 42.3691 231.729 43.8285C231.035 45.2878 230.769 46.7949 230.945 48.2635Z" fill="#627B8C" stroke="#45413C" stroke-width="7" stroke-linecap="round" stroke-linejoin="round"/>
<path d="M74.9166 459.246C74.9166 459.246 6.19998 380.919 65.41 371.929C129.58 362.319 199.743 459.246 199.743 459.246H74.9166Z" fill="#DEBB7E"/>
<path d="M65.4097 401.379C105.916 395.282 148.593 431.552 174.633 459.246H199.33C199.33 459.246 129.58 362.319 64.9964 371.929C38.7497 375.959 37.613 393.422 44.3297 411.816C46.8855 408.662 50.092 406.097 53.73 404.295C57.3681 402.494 61.352 401.499 65.4097 401.379Z" fill="#F0D5A8"/>
<path d="M74.9166 459.246C74.9166 459.246 6.19998 380.919 65.41 371.929C129.58 362.319 199.743 459.246 199.743 459.246H74.9166Z" stroke="#45413C" stroke-width="7" stroke-linecap="round" stroke-linejoin="round"/>
<path d="M87.7024 408.262C89.6039 409.592 91.6231 410.714 93.6448 411.564C95.6664 412.414 97.6509 412.976 99.485 413.216C101.319 413.457 102.967 413.372 104.334 412.967C105.701 412.561 106.761 411.843 107.453 410.854C108.145 409.864 108.456 408.622 108.368 407.199C108.28 405.775 107.794 404.199 106.939 402.558C106.084 400.918 104.876 399.247 103.384 397.639C101.893 396.032 100.146 394.52 98.2445 393.19C96.343 391.86 94.3237 390.738 92.3021 389.888C90.2804 389.038 88.2959 388.477 86.4619 388.236C84.6279 387.995 82.9802 388.08 81.613 388.485C80.2459 388.891 79.1859 389.609 78.4937 390.599C77.8015 391.588 77.4906 392.83 77.5788 394.253C77.6669 395.677 78.1524 397.253 79.0075 398.894C79.8626 400.534 81.0706 402.206 82.5625 403.813C84.0543 405.42 85.8009 406.932 87.7024 408.262Z" fill="#FF6242" stroke="#45413C" stroke-width="7" stroke-linecap="round" stroke-linejoin="round"/>
<path d="M135.441 433.543C139.281 436.229 143.519 438.011 147.223 438.496C150.927 438.982 153.793 438.133 155.191 436.134C156.589 434.135 156.405 431.151 154.678 427.839C152.951 424.526 149.823 421.156 145.983 418.47C142.142 415.784 137.904 414.002 134.2 413.516C130.496 413.03 127.63 413.88 126.232 415.879C124.834 417.878 125.019 420.861 126.746 424.174C128.473 427.487 131.6 430.857 135.441 433.543Z" fill="#FFE500" stroke="#45413C" stroke-width="7" stroke-linecap="round" stroke-linejoin="round"/>
<path d="M403.415 369.759L381.715 364.385L396.698 292.672L423.462 299.285L403.415 369.759Z" fill="#DAEDF7" stroke="#45413C" stroke-width="7" stroke-linecap="round" stroke-linejoin="round"/>
<path d="M381.691 364.33L403.467 369.683L383.117 452.468L361.342 447.116L381.691 364.33Z" fill="#BF8256" stroke="#45413C" stroke-width="7" stroke-linecap="round" stroke-linejoin="round"/>
<path d="M396.694 292.671C389.978 279.858 398.554 264.151 408.371 256.091C414.625 251.302 419.186 244.64 421.391 237.078C427.516 241.339 432.265 247.294 435.055 254.214C437.845 261.134 438.555 268.717 437.098 276.035C436.503 280.605 435.01 285.012 432.705 289.002C430.399 292.993 427.327 296.487 423.664 299.285L396.694 292.671Z" fill="#FFF5E3" stroke="#45413C" stroke-width="7" stroke-linecap="round" stroke-linejoin="round"/>
<path d="M400.211 265.081C405.509 268.121 411.216 270.383 417.158 271.798C423.907 273.493 430.886 274.086 437.824 273.555C438.685 266.575 437.629 259.492 434.771 253.066C431.913 246.641 427.361 241.114 421.601 237.078C419.396 244.64 414.835 251.302 408.581 256.091C405.349 258.644 402.526 261.676 400.211 265.081Z" fill="#FF6242" stroke="#45413C" stroke-width="7" stroke-linecap="round" stroke-linejoin="round"/>
<path d="M363.942 369.044C368.04 370.051 371.571 372.646 373.757 376.256C375.942 379.866 376.604 384.197 375.597 388.296L358.997 455.829C352.769 454.298 347.405 450.356 344.083 444.87C340.762 439.384 339.757 432.803 341.287 426.576L354.04 374.697C354.556 372.594 355.887 370.783 357.739 369.662C359.592 368.541 361.813 368.201 363.916 368.718L363.942 369.044Z" fill="#FFCEBF"/>
<path d="M363.938 369.035C362.866 368.693 361.735 368.579 360.616 368.701C359.497 368.822 358.416 369.177 357.443 369.741C356.47 370.306 355.625 371.068 354.964 371.978C354.303 372.889 353.84 373.928 353.605 375.028L348.852 394.248C349.101 393.156 349.573 392.126 350.237 391.224C350.902 390.322 351.745 389.566 352.714 389.004C353.684 388.442 354.759 388.085 355.872 387.956C356.985 387.827 358.113 387.929 359.185 388.255C361.231 388.739 363.16 389.625 364.859 390.863C366.558 392.101 367.994 393.665 369.081 395.465C370.168 397.264 370.886 399.262 371.192 401.342C371.497 403.422 371.385 405.542 370.862 407.578L375.615 388.358C376.124 386.323 376.226 384.206 375.913 382.131C375.601 380.056 374.882 378.063 373.797 376.267C372.712 374.471 371.282 372.908 369.59 371.667C367.898 370.425 365.977 369.531 363.938 369.035Z" fill="#FFDCD1"/>
<path d="M363.942 369.044C368.04 370.051 371.571 372.646 373.757 376.256C375.942 379.866 376.604 384.197 375.597 388.296L358.997 455.829C352.769 454.298 347.405 450.356 344.083 444.87C340.762 439.384 339.757 432.803 341.287 426.576L354.04 374.697C354.556 372.594 355.887 370.783 357.739 369.662C359.592 368.541 361.813 368.201 363.916 368.718L363.942 369.044Z" stroke="#45413C" stroke-width="7" stroke-linecap="round" stroke-linejoin="round"/>
<path d="M401.968 393.009L382.335 388.049C379.313 387.288 376.114 387.745 373.425 389.321C370.737 390.896 368.775 393.464 367.962 396.472C367.149 399.48 367.55 402.687 369.079 405.402C370.607 408.118 373.141 410.124 376.135 410.989C373.172 410.58 370.164 411.303 367.711 413.015C365.258 414.726 363.54 417.299 362.901 420.221C362.262 423.143 362.748 426.198 364.263 428.778C365.777 431.357 368.208 433.27 371.071 434.136C369.551 433.762 367.973 433.692 366.426 433.929C364.879 434.166 363.394 434.705 362.055 435.516C360.717 436.327 359.551 437.393 358.625 438.655C357.698 439.916 357.029 441.347 356.656 442.867C356.283 444.387 356.213 445.966 356.45 447.512C356.687 449.059 357.226 450.545 358.037 451.883C358.847 453.222 359.914 454.387 361.175 455.314C362.437 456.24 363.868 456.909 365.388 457.282L385.331 462.139C391.155 463.575 397.31 462.64 402.445 459.539C407.579 456.439 411.273 451.428 412.715 445.606L418.915 420.392C420.35 414.569 419.415 408.413 416.315 403.279C413.215 398.144 408.203 394.45 402.381 393.009H401.968Z" fill="#FFCEBF"/>
<path d="M401.968 393.009L382.335 388.049C380.815 387.68 379.237 387.614 377.692 387.856C376.146 388.098 374.664 388.642 373.329 389.458C371.995 390.274 370.835 391.346 369.915 392.611C368.996 393.876 368.335 395.311 367.971 396.832C367.4 398.824 367.4 400.937 367.971 402.929C369.391 401.432 371.176 400.33 373.151 399.732C375.126 399.134 377.223 399.061 379.235 399.519L399.281 404.479C402.16 405.181 404.872 406.444 407.262 408.196C409.652 409.948 411.673 412.154 413.208 414.688C414.744 417.223 415.765 420.035 416.212 422.964C416.66 425.893 416.524 428.882 415.815 431.759L418.605 420.392C419.314 417.502 419.446 414.5 418.994 411.558C418.541 408.616 417.512 405.793 415.967 403.249C414.422 400.706 412.39 398.492 409.988 396.735C407.586 394.978 404.86 393.711 401.968 393.009Z" fill="#FFDCD1"/>
<path d="M401.968 393.009L382.335 388.049C379.313 387.288 376.114 387.745 373.425 389.321C370.737 390.896 368.775 393.464 367.962 396.472C367.149 399.48 367.55 402.687 369.079 405.402C370.607 408.118 373.141 410.124 376.135 410.989C373.172 410.58 370.164 411.303 367.711 413.015C365.258 414.726 363.54 417.299 362.901 420.221C362.262 423.143 362.748 426.198 364.263 428.778C365.777 431.357 368.208 433.27 371.071 434.136C369.551 433.762 367.973 433.692 366.426 433.929C364.879 434.166 363.394 434.705 362.055 435.516C360.717 436.327 359.551 437.393 358.625 438.655C357.698 439.916 357.029 441.347 356.656 442.867C356.283 444.387 356.213 445.966 356.45 447.512C356.687 449.059 357.226 450.545 358.037 451.883C358.847 453.222 359.914 454.387 361.175 455.314C362.437 456.24 363.868 456.909 365.388 457.282L385.331 462.139C391.155 463.575 397.31 462.64 402.445 459.539C407.579 456.439 411.273 451.428 412.715 445.606L418.915 420.392C420.35 414.569 419.415 408.413 416.315 403.279C413.215 398.144 408.203 394.45 402.381 393.009H401.968Z" stroke="#45413C" stroke-width="7" stroke-linecap="round" stroke-linejoin="round"/>
</svg>
