<svg width="495" height="495" viewBox="0 0 495 495" fill="none" xmlns="http://www.w3.org/2000/svg">
<path d="M264.447 141.491C264.453 143.369 264.069 145.227 263.322 146.95C262.574 148.672 261.478 150.222 260.103 151.5C258.727 152.779 257.102 153.759 255.33 154.379C253.557 154.999 251.676 155.246 249.803 155.103C237.738 155.103 236.397 141.903 236.397 141.903C234.388 115.447 239.218 88.9194 250.422 64.869C273.522 15.7815 304.666 8.45963 320.444 50.5346C336.222 92.6096 309.616 58.8877 285.382 85.494C272.506 101.39 265.157 121.047 264.447 141.491Z" fill="#6DD627"/>
<path d="M262.797 88.7943C281.566 49.2974 305.697 37.2318 322.507 56.4131L320.444 50.5349C304.666 8.45993 273.522 15.7818 250.422 64.4568C239.218 88.5072 234.388 115.035 236.397 141.491C236.397 141.491 237.222 153.66 248.36 155.104C248.312 132.216 253.238 109.591 262.797 88.7943Z" fill="#9CEB60"/>
<path d="M264.447 141.491C264.453 143.369 264.069 145.227 263.322 146.95C262.574 148.672 261.478 150.222 260.103 151.5C258.727 152.779 257.102 153.759 255.33 154.379C253.557 154.999 251.676 155.246 249.803 155.103C237.738 155.103 236.397 141.903 236.397 141.903C234.388 115.447 239.218 88.9194 250.422 64.869C273.522 15.7815 304.666 8.45963 320.444 50.5346C336.222 92.6096 309.616 58.8877 285.382 85.494C272.506 101.39 265.157 121.047 264.447 141.491V141.491Z" stroke="#45413C" stroke-width="7" stroke-linecap="round" stroke-linejoin="round"/>
<path d="M377.99 119.835C361.259 114.097 343.438 112.257 325.888 114.455C308.337 116.653 291.521 122.832 276.722 132.52C268.132 138.417 257.957 141.574 247.537 141.574C237.118 141.574 226.943 138.417 218.353 132.52C203.554 122.832 186.737 116.653 169.187 114.455C151.636 112.257 133.815 114.097 117.084 119.835C52.2186 138.81 22.4155 232.448 50.6717 328.869C78.928 425.291 154.725 488.094 219.281 469.016C224.425 467.543 229.402 465.539 234.131 463.035C238.248 460.806 242.856 459.638 247.537 459.638C252.219 459.638 256.827 460.806 260.944 463.035C265.673 465.539 270.65 467.543 275.794 469.016C340.35 488.094 416.147 425.291 444.403 328.869C472.659 232.448 442.856 138.81 377.99 119.835Z" fill="#FF6242"/>
<path d="M117.087 165.416C133.839 160.205 151.491 158.532 168.924 160.502C186.356 162.473 203.189 168.044 218.356 176.863C227.164 182.174 237.254 184.982 247.54 184.982C257.826 184.982 267.916 182.174 276.724 176.863C291.891 168.044 308.724 162.473 326.156 160.502C343.589 158.532 361.241 160.205 377.993 165.416C422.131 177.069 450.181 220.072 454.409 273.697C459.771 199.035 430.277 135.2 377.993 119.938C361.262 114.199 343.441 112.359 325.89 114.558C308.34 116.756 291.523 122.935 276.724 132.622C268.134 138.519 257.959 141.676 247.54 141.676C237.12 141.676 226.945 138.519 218.356 132.622C203.557 122.935 186.74 116.756 169.189 114.558C151.639 112.359 133.818 114.199 117.087 119.938C64.8025 135.2 35.3087 199.035 40.6712 273.697C45.1056 219.969 72.9494 176.966 117.087 165.416Z" fill="#FF866E"/>
<path d="M377.99 119.835C361.259 114.097 343.438 112.257 325.888 114.455C308.337 116.653 291.521 122.832 276.722 132.52C268.132 138.417 257.957 141.574 247.537 141.574C237.118 141.574 226.943 138.417 218.353 132.52C203.554 122.832 186.737 116.653 169.187 114.455C151.636 112.257 133.815 114.097 117.084 119.835C52.2186 138.81 22.4155 232.448 50.6717 328.869C78.928 425.291 154.725 488.094 219.281 469.016C224.425 467.543 229.402 465.539 234.131 463.035C238.248 460.806 242.856 459.638 247.537 459.638C252.219 459.638 256.827 460.806 260.944 463.035C265.673 465.539 270.65 467.543 275.794 469.016C340.35 488.094 416.147 425.291 444.403 328.869C472.659 232.448 442.856 138.81 377.99 119.835Z" stroke="#45413C" stroke-width="7" stroke-linecap="round" stroke-linejoin="round"/>
<path d="M236.3 140.253C236.3 140.253 251.563 81.1627 201.341 56.3096C173.085 42.2846 136.166 55.2784 122.657 60.9502C121.131 61.5524 119.879 62.6932 119.137 64.1566C118.396 65.62 118.217 67.3044 118.635 68.8909C122.553 85.1846 137.507 130.766 180.51 133.241C234.135 136.335 236.3 140.253 236.3 140.253Z" fill="#6DD627"/>
<path d="M124.921 87.8667C139.874 81.8854 174.421 70.851 201.336 84.1542C211.067 88.8485 219.457 95.9209 225.73 104.717C232.002 113.514 235.956 123.75 237.224 134.479C239.596 118.907 241.658 76.626 201.13 56.5167C172.874 42.4917 135.955 55.4854 122.446 61.1573C120.92 61.7595 119.668 62.9003 118.926 64.3637C118.185 65.8271 118.006 67.5115 118.424 69.0979C120.057 75.5261 122.23 81.8047 124.921 87.8667Z" fill="#9CEB60"/>
<path d="M236.3 140.253C236.3 140.253 251.563 81.1627 201.341 56.3096C173.085 42.2846 136.166 55.2784 122.657 60.9502C121.131 61.5524 119.879 62.6932 119.137 64.1566C118.396 65.62 118.217 67.3044 118.635 68.8909C122.553 85.1846 137.507 130.766 180.51 133.241C234.135 136.335 236.3 140.253 236.3 140.253Z" stroke="#45413C" stroke-width="7" stroke-linecap="round" stroke-linejoin="round"/>
<path d="M236.297 140.254C227.647 116.06 210.141 96.0478 187.312 84.2568L236.297 140.254Z" fill="#6DD627"/>
<path d="M236.297 140.254C227.647 116.06 210.141 96.0478 187.312 84.2568" stroke="#45413C" stroke-width="7" stroke-linecap="round" stroke-linejoin="round"/>
</svg>
