<svg width="495" height="495" viewBox="0 0 495 495" fill="none" xmlns="http://www.w3.org/2000/svg">
<path d="M264.408 141.491C264.414 143.369 264.03 145.227 263.283 146.95C262.535 148.672 261.439 150.222 260.064 151.5C258.688 152.779 257.063 153.759 255.291 154.379C253.518 154.999 251.637 155.246 249.764 155.103C237.699 155.103 236.358 141.903 236.358 141.903C234.349 115.447 239.179 88.9194 250.383 64.869C273.483 15.7815 304.627 8.45963 320.405 50.5346C336.183 92.6096 309.577 58.8877 285.343 85.494C272.466 101.39 265.118 121.047 264.408 141.491Z" fill="#6DD627"/>
<path d="M262.758 88.7943C281.527 49.2974 305.658 37.2318 322.468 56.4131L320.405 50.5349C304.627 8.45993 273.483 15.7818 250.383 64.4568C239.179 88.5072 234.349 115.035 236.358 141.491C236.358 141.491 237.183 153.66 248.321 155.104C248.273 132.216 253.199 109.591 262.758 88.7943Z" fill="#9CEB60"/>
<path d="M264.408 141.491C264.414 143.369 264.03 145.227 263.283 146.95C262.535 148.672 261.439 150.222 260.064 151.5C258.688 152.779 257.063 153.759 255.291 154.379C253.518 154.999 251.637 155.246 249.764 155.103C237.699 155.103 236.358 141.903 236.358 141.903C234.349 115.447 239.179 88.9194 250.383 64.869C273.483 15.7815 304.627 8.45963 320.405 50.5346C336.183 92.6096 309.577 58.8877 285.343 85.494C272.466 101.39 265.118 121.047 264.408 141.491V141.491Z" stroke="#45413C" stroke-width="7" stroke-linecap="round" stroke-linejoin="round"/>
<path d="M377.951 119.835C361.22 114.097 343.399 112.257 325.849 114.455C308.298 116.653 291.482 122.832 276.683 132.52C268.093 138.417 257.918 141.574 247.498 141.574C237.079 141.574 226.904 138.417 218.314 132.52C203.515 122.832 186.698 116.653 169.148 114.455C151.597 112.257 133.776 114.097 117.045 119.835C52.1795 138.81 22.3764 232.448 50.6326 328.869C78.8889 425.291 154.686 488.094 219.242 469.016C224.386 467.543 229.363 465.539 234.092 463.035C238.209 460.806 242.817 459.638 247.498 459.638C252.18 459.638 256.788 460.806 260.905 463.035C265.634 465.539 270.61 467.543 275.755 469.016C340.311 488.094 416.108 425.291 444.364 328.869C472.62 232.448 442.817 138.81 377.951 119.835Z" fill="#FF6242"/>
<path d="M117.048 165.416C133.8 160.205 151.452 158.532 168.884 160.502C186.317 162.473 203.15 168.044 218.317 176.863C227.125 182.174 237.215 184.982 247.501 184.982C257.787 184.982 267.877 182.174 276.685 176.863C291.852 168.044 308.685 162.473 326.117 160.502C343.55 158.532 361.202 160.205 377.954 165.416C422.092 177.069 450.142 220.072 454.37 273.697C459.732 199.035 430.238 135.2 377.954 119.938C361.223 114.199 343.402 112.359 325.851 114.558C308.301 116.756 291.484 122.935 276.685 132.622C268.095 138.519 257.92 141.676 247.501 141.676C237.081 141.676 226.906 138.519 218.317 132.622C203.518 122.935 186.701 116.756 169.15 114.558C151.6 112.359 133.779 114.199 117.048 119.938C64.7634 135.2 35.2697 199.035 40.6322 273.697C45.0665 219.969 72.9103 176.966 117.048 165.416Z" fill="#FF866E"/>
<path d="M377.951 119.835C361.22 114.097 343.399 112.257 325.849 114.455C308.298 116.653 291.482 122.832 276.683 132.52C268.093 138.417 257.918 141.574 247.498 141.574C237.079 141.574 226.904 138.417 218.314 132.52C203.515 122.832 186.698 116.653 169.148 114.455C151.597 112.257 133.776 114.097 117.045 119.835C52.1795 138.81 22.3764 232.448 50.6326 328.869C78.8889 425.291 154.686 488.094 219.242 469.016C224.386 467.543 229.363 465.539 234.092 463.035C238.209 460.806 242.817 459.638 247.498 459.638C252.18 459.638 256.788 460.806 260.905 463.035C265.634 465.539 270.61 467.543 275.755 469.016C340.311 488.094 416.108 425.291 444.364 328.869C472.62 232.448 442.817 138.81 377.951 119.835Z" stroke="#45413C" stroke-width="7" stroke-linecap="round" stroke-linejoin="round"/>
<path d="M236.261 140.253C236.261 140.253 251.524 81.1627 201.302 56.3096C173.046 42.2846 136.127 55.2784 122.617 60.9502C121.092 61.5524 119.839 62.6932 119.098 64.1566C118.357 65.62 118.178 67.3044 118.596 68.8909C122.514 85.1846 137.467 130.766 180.471 133.241C234.096 136.335 236.261 140.253 236.261 140.253Z" fill="#6DD627"/>
<path d="M124.882 87.8667C139.835 81.8854 174.382 70.851 201.297 84.1542C211.028 88.8485 219.418 95.9209 225.691 104.717C231.963 113.514 235.917 123.75 237.185 134.479C239.557 118.907 241.619 76.626 201.091 56.5167C172.835 42.4917 135.916 55.4854 122.407 61.1573C120.881 61.7595 119.629 62.9003 118.887 64.3637C118.146 65.8271 117.967 67.5115 118.385 69.0979C120.017 75.5261 122.191 81.8047 124.882 87.8667Z" fill="#9CEB60"/>
<path d="M236.261 140.253C236.261 140.253 251.524 81.1627 201.302 56.3096C173.046 42.2846 136.127 55.2784 122.617 60.9502C121.092 61.5524 119.839 62.6932 119.098 64.1566C118.357 65.62 118.178 67.3044 118.596 68.8909C122.514 85.1846 137.467 130.766 180.471 133.241C234.096 136.335 236.261 140.253 236.261 140.253Z" stroke="#45413C" stroke-width="7" stroke-linecap="round" stroke-linejoin="round"/>
<path d="M236.258 140.254C227.608 116.06 210.102 96.0478 187.273 84.2568L236.258 140.254Z" fill="#6DD627"/>
<path d="M236.258 140.254C227.608 116.06 210.102 96.0478 187.273 84.2568" stroke="#45413C" stroke-width="7" stroke-linecap="round" stroke-linejoin="round"/>
</svg>
