<svg width="507" height="507" viewBox="0 0 507 507" fill="none" xmlns="http://www.w3.org/2000/svg">
<path d="M253.502 331.553C286.782 331.553 318.699 344.773 342.232 368.306C365.764 391.838 378.985 423.755 378.985 457.035V477.104H128.02V457.035C128.02 423.755 141.24 391.838 164.773 368.306C188.305 344.773 220.222 331.553 253.502 331.553Z" fill="white"/>
<path d="M253.502 331.553C220.222 331.553 188.305 344.773 164.773 368.306C141.24 391.838 128.02 423.755 128.02 457.035V477.104H129.076C132.93 446.821 147.692 418.982 170.596 398.8C193.499 378.618 222.975 367.478 253.502 367.465C284.029 367.478 313.505 378.618 336.409 398.8C359.312 418.982 374.074 446.821 377.928 477.104H378.985V457.035C378.985 423.755 365.764 391.838 342.232 368.306C318.699 344.773 286.782 331.553 253.502 331.553Z" fill="#F0F0F0"/>
<path d="M253.502 331.553C286.782 331.553 318.699 344.773 342.232 368.306C365.764 391.838 378.985 423.755 378.985 457.035V477.104H128.02V457.035C128.02 423.755 141.24 391.838 164.773 368.306C188.305 344.773 220.222 331.553 253.502 331.553V331.553Z" stroke="#45413C" stroke-width="6" stroke-linecap="round" stroke-linejoin="round"/>
<path d="M253.501 288.881C246.385 288.881 239.561 291.707 234.53 296.739C229.498 301.77 226.672 308.594 226.672 315.71V345.813C226.672 352.928 229.498 359.752 234.53 364.784C239.561 369.815 246.385 372.641 253.501 372.641C260.616 372.641 267.44 369.815 272.471 364.784C277.503 359.752 280.329 352.928 280.329 345.813V315.71C280.329 308.594 277.503 301.77 272.471 296.739C267.44 291.707 260.616 288.881 253.501 288.881Z" fill="#FFB59E" stroke="#45413C" stroke-width="6" stroke-linecap="round" stroke-linejoin="round"/>
<path d="M180.199 477.104V451.648" stroke="#45413C" stroke-width="6" stroke-linecap="round" stroke-linejoin="round"/>
<path d="M326.805 477.104V451.648" stroke="#45413C" stroke-width="6" stroke-linecap="round" stroke-linejoin="round"/>
<path d="M226.672 331.553C226.672 343.171 234.383 352.678 253.501 352.678C272.619 352.678 280.33 343.277 280.33 331.553C285.417 337.032 288.214 344.251 288.146 351.727C288.146 365.142 272.619 372.852 253.501 372.852C234.383 372.852 218.856 364.719 218.856 351.727C218.722 344.239 221.528 336.996 226.672 331.553Z" fill="#00DFEB" stroke="#45413C" stroke-width="6" stroke-linecap="round" stroke-linejoin="round"/>
<path d="M253.5 372.746H282.864C284.953 372.733 287.025 373.132 288.959 373.922C290.894 374.712 292.653 375.877 294.135 377.349C295.618 378.822 296.794 380.573 297.597 382.503C298.4 384.432 298.813 386.501 298.813 388.59V477.104" fill="white"/>
<path d="M253.5 372.746H282.864C284.953 372.733 287.025 373.132 288.959 373.922C290.894 374.712 292.653 375.877 294.135 377.349C295.618 378.822 296.794 380.573 297.597 382.503C298.4 384.432 298.813 386.501 298.813 388.59V477.104" stroke="#45413C" stroke-width="6" stroke-linecap="round" stroke-linejoin="round"/>
<path d="M253.5 372.747V352.572" stroke="#45413C" stroke-width="6" stroke-linecap="round" stroke-linejoin="round"/>
<path d="M230.688 396.829C228.586 396.829 226.572 397.664 225.086 399.149C223.6 400.635 222.766 402.65 222.766 404.751C222.766 406.852 223.6 408.867 225.086 410.353C226.572 411.838 228.586 412.673 230.688 412.673C232.789 412.673 234.803 411.838 236.289 410.353C237.775 408.867 238.609 406.852 238.609 404.751C238.609 402.65 237.775 400.635 236.289 399.149C234.803 397.664 232.789 396.829 230.688 396.829Z" fill="#45413C"/>
<path d="M276.211 396.829C274.644 396.829 273.113 397.294 271.81 398.164C270.507 399.035 269.492 400.272 268.892 401.719C268.292 403.167 268.136 404.76 268.441 406.296C268.747 407.833 269.501 409.245 270.609 410.353C271.717 411.46 273.129 412.215 274.665 412.521C276.202 412.826 277.795 412.669 279.242 412.07C280.69 411.47 281.927 410.455 282.798 409.152C283.668 407.849 284.133 406.318 284.133 404.751C284.133 402.65 283.298 400.635 281.813 399.149C280.327 397.664 278.312 396.829 276.211 396.829Z" fill="#45413C"/>
<path d="M230.688 432.848C229.121 432.848 227.589 433.312 226.286 434.183C224.984 435.053 223.968 436.29 223.369 437.738C222.769 439.185 222.612 440.778 222.918 442.315C223.224 443.852 223.978 445.263 225.086 446.371C226.194 447.479 227.605 448.234 229.142 448.539C230.679 448.845 232.272 448.688 233.719 448.088C235.167 447.489 236.404 446.473 237.274 445.171C238.145 443.868 238.609 442.336 238.609 440.77C238.609 438.669 237.775 436.654 236.289 435.168C234.803 433.682 232.789 432.848 230.688 432.848Z" fill="#45413C"/>
<path d="M276.211 432.848C274.11 432.848 272.095 433.682 270.609 435.168C269.124 436.654 268.289 438.669 268.289 440.77C268.289 442.871 269.124 444.885 270.609 446.371C272.095 447.857 274.11 448.691 276.211 448.691C278.312 448.691 280.327 447.857 281.813 446.371C283.298 444.885 284.133 442.871 284.133 440.77C284.133 438.669 283.298 436.654 281.813 435.168C280.327 433.682 278.312 432.848 276.211 432.848Z" fill="#45413C"/>
<path d="M253.501 74.7783C244.807 74.7865 236.148 75.8865 227.729 78.0527C208.082 82.4889 182.521 89.8827 159.389 85.4464C158.488 91.4043 158.81 97.4833 160.335 103.313C161.861 109.142 164.558 114.599 168.262 119.352C156.211 136.721 149.761 157.361 149.777 178.502V232.793H357.225V178.502C357.225 150.993 346.297 124.61 326.845 105.158C307.393 85.7063 281.01 74.7783 253.501 74.7783Z" fill="#A86C4D"/>
<path d="M253.5 74.7783C244.806 74.7865 236.148 75.8865 227.728 78.0527C208.082 82.4889 182.52 89.8827 159.389 85.4464C157.958 96.5261 160.503 107.754 166.571 117.134C187.261 117.456 207.881 114.643 227.728 108.79C243.048 104.838 259.069 104.448 274.564 107.648C290.058 110.848 304.614 117.553 317.115 127.25C329.616 136.947 339.731 149.379 346.683 163.59C353.636 177.802 357.242 193.418 357.224 209.239V178.502C357.224 150.993 346.296 124.61 326.844 105.158C307.392 85.7063 281.01 74.7783 253.5 74.7783Z" fill="#DE926A"/>
<path d="M253.501 74.7783C244.807 74.7865 236.148 75.8865 227.729 78.0527C208.082 82.4889 182.521 89.8827 159.389 85.4464C158.488 91.4043 158.81 97.4833 160.335 103.313C161.861 109.142 164.558 114.599 168.262 119.352C156.211 136.721 149.761 157.361 149.777 178.502V232.793H357.225V178.502C357.225 150.993 346.297 124.61 326.845 105.158C307.393 85.7063 281.01 74.7783 253.501 74.7783V74.7783Z" stroke="#45413C" stroke-width="6" stroke-linecap="round" stroke-linejoin="round"/>
<path d="M368.317 224.872C367.803 220.993 366.125 217.362 363.503 214.457C360.882 211.553 357.441 209.512 353.635 208.606L347.403 206.916C342.811 205.619 338.773 202.848 335.91 199.031C333.047 195.214 331.518 190.562 331.559 185.791V164.243C331.547 159.887 330.104 155.656 327.451 152.201C324.798 148.747 321.083 146.26 316.877 145.125C296.736 153.165 275.185 157.08 253.502 156.638C231.82 157.08 210.269 153.165 190.127 145.125C185.902 146.241 182.163 148.719 179.49 152.175C176.816 155.632 175.358 159.873 175.34 164.243V186.002C175.38 190.773 173.852 195.425 170.989 199.243C168.126 203.06 164.088 205.83 159.496 207.127L153.264 208.817C149.458 209.724 146.017 211.764 143.396 214.669C140.774 217.573 139.096 221.204 138.582 225.083C138.3 227.757 138.585 230.461 139.418 233.017C140.252 235.573 141.615 237.925 143.42 239.919C145.224 241.912 147.428 243.503 149.889 244.587C152.35 245.67 155.012 246.223 157.7 246.208H158.862C161.334 269.557 172.359 291.166 189.813 306.87C207.268 322.575 229.917 331.264 253.397 331.264C276.876 331.264 299.525 322.575 316.98 306.87C334.434 291.166 345.459 269.557 347.931 246.208H349.093C351.81 246.242 354.504 245.695 356.994 244.605C359.483 243.516 361.712 241.908 363.531 239.889C365.35 237.869 366.718 235.486 367.543 232.896C368.368 230.307 368.632 227.571 368.317 224.872Z" fill="#FFCEBF" stroke="#45413C" stroke-width="6" stroke-linecap="round" stroke-linejoin="round"/>
<path d="M196.149 222.653C196.149 224.262 196.626 225.834 197.52 227.172C198.413 228.509 199.684 229.552 201.17 230.167C202.656 230.783 204.291 230.944 205.869 230.63C207.447 230.316 208.896 229.542 210.033 228.404C211.171 227.267 211.945 225.818 212.259 224.24C212.573 222.662 212.412 221.027 211.796 219.541C211.181 218.055 210.138 216.785 208.801 215.891C207.463 214.997 205.891 214.52 204.282 214.52C203.21 214.506 202.146 214.707 201.153 215.11C200.16 215.514 199.258 216.113 198.5 216.871C197.742 217.629 197.143 218.531 196.739 219.524C196.336 220.517 196.135 221.581 196.149 222.653Z" fill="#45413C" stroke="#45413C" stroke-width="6" stroke-linecap="round" stroke-linejoin="round"/>
<path d="M310.856 222.653C310.856 224.262 310.379 225.834 309.485 227.172C308.592 228.509 307.322 229.552 305.835 230.167C304.349 230.783 302.714 230.944 301.136 230.63C299.559 230.316 298.109 229.542 296.972 228.404C295.835 227.267 295.06 225.818 294.746 224.24C294.432 222.662 294.593 221.027 295.209 219.541C295.825 218.055 296.867 216.785 298.204 215.891C299.542 214.997 301.114 214.52 302.723 214.52C303.795 214.506 304.859 214.707 305.852 215.11C306.845 215.514 307.748 216.113 308.506 216.871C309.264 217.629 309.862 218.531 310.266 219.524C310.67 220.517 310.87 221.581 310.856 222.653Z" fill="#45413C" stroke="#45413C" stroke-width="6" stroke-linecap="round" stroke-linejoin="round"/>
<path d="M223.504 272.191C222.833 272.191 222.171 272.343 221.567 272.636C220.963 272.929 220.434 273.354 220.019 273.881C219.576 274.379 219.252 274.97 219.069 275.609C218.886 276.249 218.85 276.922 218.962 277.578C220.389 285.703 224.633 293.065 230.951 298.37C237.268 303.675 245.253 306.583 253.502 306.583C261.751 306.583 269.736 303.675 276.053 298.37C282.37 293.065 286.615 285.703 288.041 277.578C288.154 276.922 288.117 276.249 287.934 275.609C287.751 274.97 287.427 274.379 286.985 273.881C286.56 273.366 286.028 272.948 285.426 272.656C284.825 272.364 284.168 272.206 283.499 272.191H223.504Z" fill="#FF6242"/>
<path d="M253.5 286.98C243.964 286.607 234.582 289.473 226.883 295.113C230.211 298.819 234.283 301.784 238.832 303.813C243.382 305.842 248.307 306.891 253.289 306.891C258.271 306.891 263.196 305.842 267.746 303.813C272.296 301.784 276.367 298.819 279.695 295.113C272.111 289.564 262.893 286.702 253.5 286.98Z" fill="#FFA694"/>
<path d="M223.504 272.191C222.833 272.191 222.171 272.343 221.567 272.636C220.963 272.929 220.434 273.354 220.019 273.881C219.576 274.379 219.252 274.97 219.069 275.609C218.886 276.249 218.85 276.922 218.962 277.578C220.389 285.703 224.633 293.065 230.951 298.37C237.268 303.675 245.253 306.583 253.502 306.583C261.751 306.583 269.736 303.675 276.053 298.37C282.37 293.065 286.615 285.703 288.041 277.578C288.154 276.922 288.117 276.249 287.934 275.609C287.751 274.97 287.427 274.379 286.985 273.881C286.56 273.366 286.028 272.948 285.426 272.656C284.825 272.364 284.168 272.206 283.499 272.191H223.504Z" stroke="#45413C" stroke-width="6" stroke-linecap="round" stroke-linejoin="round"/>
<path d="M180.199 257.298C180.199 258.979 181.312 260.591 183.293 261.78C185.274 262.968 187.96 263.636 190.762 263.636C193.563 263.636 196.25 262.968 198.231 261.78C200.211 260.591 201.324 258.979 201.324 257.298C201.324 255.618 200.211 254.006 198.231 252.817C196.25 251.629 193.563 250.961 190.762 250.961C187.96 250.961 185.274 251.629 183.293 252.817C181.312 254.006 180.199 255.618 180.199 257.298Z" fill="#FFB59E"/>
<path d="M305.68 257.298C305.68 258.979 306.793 260.591 308.773 261.78C310.754 262.968 313.441 263.636 316.242 263.636C319.044 263.636 321.73 262.968 323.711 261.78C325.692 260.591 326.805 258.979 326.805 257.298C326.805 255.618 325.692 254.006 323.711 252.817C321.73 251.629 319.044 250.961 316.242 250.961C313.441 250.961 310.754 251.629 308.773 252.817C306.793 254.006 305.68 255.618 305.68 257.298Z" fill="#FFB59E"/>
<path d="M316.243 56.8224C308.552 47.767 298.914 40.5655 288.05 35.7554C277.186 30.9453 265.377 28.6508 253.502 29.043C241.627 28.6508 229.817 30.9453 218.953 35.7554C208.09 40.5655 198.452 47.767 190.761 56.8224C163.087 43.408 114.922 59.9911 114.922 104.776C114.922 146.498 144.391 155.793 144.391 155.793H362.613C362.613 155.793 392.082 146.498 392.082 104.776C392.082 59.9911 343.917 43.408 316.243 56.8224Z" fill="#F0F0F0"/>
<path d="M190.758 106.572C198.45 97.5164 208.087 90.3149 218.951 85.5048C229.815 80.6947 241.625 78.4002 253.499 78.7924C265.374 78.4002 277.184 80.6947 288.048 85.5048C298.912 90.3149 308.549 97.5164 316.241 106.572C329.027 101.166 343.368 100.713 356.469 105.301C369.571 109.89 380.496 119.191 387.115 131.394C390.571 122.953 392.26 113.895 392.079 104.776C392.079 59.9911 343.914 43.408 316.241 56.8224C308.549 47.767 298.912 40.5655 288.048 35.7554C277.184 30.9453 265.374 28.6508 253.499 29.043C241.625 28.6508 229.815 30.9453 218.951 35.7554C208.087 40.5655 198.45 47.767 190.758 56.8224C163.084 43.408 114.919 59.9911 114.919 104.776C114.739 113.895 116.428 122.953 119.884 131.394C126.503 119.191 137.428 109.89 150.529 105.301C163.631 100.713 177.972 101.166 190.758 106.572Z" fill="white"/>
<path d="M316.243 56.8224C308.552 47.767 298.914 40.5655 288.05 35.7554C277.186 30.9453 265.377 28.6508 253.502 29.043C241.627 28.6508 229.817 30.9453 218.953 35.7554C208.09 40.5655 198.452 47.767 190.761 56.8224C163.087 43.408 114.922 59.9911 114.922 104.776C114.922 146.498 144.391 155.793 144.391 155.793H362.613C362.613 155.793 392.082 146.498 392.082 104.776C392.082 59.9911 343.917 43.408 316.243 56.8224Z" stroke="#45413C" stroke-width="6" stroke-linecap="round" stroke-linejoin="round"/>
<path d="M316.875 97.6992C316.875 125.901 288.462 148.716 253.5 148.716C218.538 148.716 190.125 125.901 190.125 97.6992" stroke="#45413C" stroke-width="6" stroke-linecap="round" stroke-linejoin="round"/>
<path d="M144.391 155.793C144.391 145.23 193.189 137.309 253.501 137.309C313.813 137.309 362.612 145.547 362.612 155.793V185.262C362.612 174.7 313.813 166.778 253.501 166.778C193.189 166.778 144.391 175.122 144.391 185.262V155.793Z" fill="#F0F0F0" stroke="#45413C" stroke-width="6" stroke-linecap="round" stroke-linejoin="round"/>
</svg>
