<svg width="131" height="78" viewBox="0 0 131 78" fill="none" xmlns="http://www.w3.org/2000/svg">
<g filter="url(#filter0_d_995_2203)">
<path d="M98.125 52.5V59.0869C98.125 63.7813 94.3194 67.5869 89.625 67.5869H40.625C35.9306 67.5869 32.125 63.7813 32.125 59.0869V52.5H98.125Z" fill="#42E96C" stroke="#34C759" stroke-width="3"/>
<path d="M40.6289 1.5H89.6289C94.3233 1.5 98.1289 5.30558 98.1289 10V19.1279L32.1289 19.3301V10L32.1396 9.5625C32.3673 5.07139 36.0812 1.5 40.6289 1.5Z" fill="#CB30E0" stroke="#A100B7" stroke-width="3"/>
<path d="M98.4764 25.0893L110.445 12.913" stroke="#3C3C3B" stroke-width="3" stroke-linecap="round"/>
<path d="M113.668 4.58691C116.574 4.58691 118.918 6.90957 118.918 9.76074C118.918 12.612 116.574 14.9346 113.668 14.9346C110.762 14.9346 108.418 12.612 108.418 9.76074C108.418 6.90957 110.762 4.58691 113.668 4.58691Z" fill="#42E96C" stroke="#3C3C3B"/>
<path d="M96.6987 40.8664L108.875 52.8353" stroke="#3C3C3B" stroke-width="3" stroke-linecap="round"/>
<path d="M117.199 56.058C117.199 58.9638 114.877 61.3079 112.025 61.308C109.174 61.308 106.852 58.9638 106.852 56.058C106.852 53.1522 109.174 50.808 112.025 50.808C114.877 50.808 117.199 53.1522 117.199 56.058Z" fill="#42E96C" stroke="#3C3C3B"/>
<path d="M99.2362 34.1166L116.176 34.269" stroke="#3C3C3B" stroke-width="3" stroke-linecap="round"/>
<path d="M124.345 30.8346C126.342 32.9064 126.294 36.1775 124.256 38.1414C122.218 40.1051 118.948 40.0315 116.952 37.9601C114.955 35.8884 115.002 32.6173 117.04 30.6533C119.078 28.6893 122.349 28.7628 124.345 30.8346Z" fill="#42E96C" stroke="#3C3C3B"/>
<path d="M31.8361 26.0024L19.8672 13.826" stroke="#3C3C3B" stroke-width="3" stroke-linecap="round"/>
<path d="M16.6445 5.5C13.7388 5.5 11.3946 7.82265 11.3945 10.6738C11.3945 13.525 13.7387 15.8477 16.6445 15.8477C19.5503 15.8477 21.8945 13.525 21.8945 10.6738C21.8945 7.82265 19.5503 5.5 16.6445 5.5Z" fill="#CB30E0" stroke="#3C3C3B"/>
<path d="M33.6138 41.7795L21.4375 53.7484" stroke="#3C3C3B" stroke-width="3" stroke-linecap="round"/>
<path d="M13.1133 56.9711C13.1133 59.8768 15.4359 62.221 18.2871 62.2211C21.1383 62.2211 23.4609 59.8769 23.4609 56.9711C23.4609 54.0653 21.1383 51.7211 18.2871 51.7211C15.4359 51.7211 13.1133 54.0653 13.1133 56.9711Z" fill="#CB30E0" stroke="#3C3C3B"/>
<path d="M31.0763 35.0297L14.1367 35.1821" stroke="#3C3C3B" stroke-width="3" stroke-linecap="round"/>
<path d="M5.96706 31.7477C3.97079 33.8194 4.01869 37.0906 6.05654 39.0545C8.0944 41.0182 11.3645 40.9446 13.361 38.8732C15.3575 36.8015 15.3106 33.5304 13.2729 31.5664C11.2349 29.6024 7.96361 29.6759 5.96706 31.7477Z" fill="#CB30E0" stroke="#3C3C3B"/>
<path d="M98.1328 55.5H32.1328V15.8018L98.1328 15.5059V55.5Z" fill="#888888" stroke="#3C3C3B" stroke-width="3"/>
<rect x="47.8125" y="44.8912" width="34.7778" height="5.30435" rx="2.65217" fill="#3C3C3B" stroke="#3C3C3B"/>
<path d="M47.8135 20.917C47.8135 20.5309 48.2331 20.2904 48.5664 20.4854L58.0645 26.04C58.2177 26.1296 58.3124 26.2942 58.3125 26.4717V26.7822C58.3125 29.2675 56.2978 31.2822 53.8125 31.2822H52.3135C49.8281 31.2822 47.8133 29.2676 47.8135 26.7822V20.917Z" fill="#3C3C3B" stroke="#3C3C3B"/>
<path d="M82.585 20.917C82.5849 20.5309 82.1653 20.2904 81.832 20.4854L72.334 26.04C72.1808 26.1296 72.0861 26.2942 72.0859 26.4717V26.7822C72.0859 29.2675 74.1007 31.2822 76.5859 31.2822H78.085C80.5704 31.2822 82.5851 29.2676 82.585 26.7822V20.917Z" fill="#3C3C3B" stroke="#3C3C3B"/>
</g>
<defs>
<filter id="filter0_d_995_2203" x="0" y="0" width="130.312" height="77.0869" filterUnits="userSpaceOnUse" color-interpolation-filters="sRGB">
<feFlood flood-opacity="0" result="BackgroundImageFix"/>
<feColorMatrix in="SourceAlpha" type="matrix" values="0 0 0 0 0 0 0 0 0 0 0 0 0 0 0 0 0 0 127 0" result="hardAlpha"/>
<feOffset dy="4"/>
<feGaussianBlur stdDeviation="2"/>
<feComposite in2="hardAlpha" operator="out"/>
<feColorMatrix type="matrix" values="0 0 0 0 0 0 0 0 0 0 0 0 0 0 0 0 0 0 0.25 0"/>
<feBlend mode="normal" in2="BackgroundImageFix" result="effect1_dropShadow_995_2203"/>
<feBlend mode="normal" in="SourceGraphic" in2="effect1_dropShadow_995_2203" result="shape"/>
</filter>
</defs>
</svg>
