<svg width="93" height="112" viewBox="0 0 93 112" fill="none" xmlns="http://www.w3.org/2000/svg">
<g filter="url(#filter0_d_1001_4956)">
<path d="M55.3299 25.1063L70.0742 10.5507" stroke="#EB9400" stroke-width="3" stroke-linecap="round"/>
<path d="M38.6315 25.6232L24.4648 10.5507" stroke="#EB9400" stroke-width="3" stroke-linecap="round"/>
<rect x="5.5" y="24.1087" width="82" height="78.3913" rx="39.1956" fill="#FFB22F" stroke="#EB9400" stroke-width="3"/>
<path d="M74.0439 0.5C77.7003 0.5 80.6277 3.33283 80.6279 6.78223C80.6279 10.2318 77.7005 13.0654 74.0439 13.0654C70.3876 13.0653 67.4609 10.2317 67.4609 6.78223C67.4612 3.33293 70.3877 0.500168 74.0439 0.5Z" fill="#F4C704" stroke="#EB9400"/>
<path d="M22.1025 0.5C25.7589 0.5 28.6863 3.33283 28.6865 6.78223C28.6865 10.2318 25.7591 13.0654 22.1025 13.0654C18.4462 13.0653 15.5195 10.2317 15.5195 6.78223C15.5197 3.33293 18.4463 0.500168 22.1025 0.5Z" fill="#F4C704" stroke="#EB9400"/>
</g>
<g filter="url(#filter1_d_1001_4956)">
<path d="M55.3299 25.1063L70.0742 10.5507" stroke="#EB9400" stroke-width="3" stroke-linecap="round"/>
<path d="M38.6315 25.6232L24.4648 10.5507" stroke="#EB9400" stroke-width="3" stroke-linecap="round"/>
<rect x="5.5" y="24.1087" width="82" height="78.3913" rx="39.1956" fill="#FFB22F" stroke="#EB9400" stroke-width="3"/>
<path d="M74.0439 0.5C77.7003 0.5 80.6277 3.33283 80.6279 6.78223C80.6279 10.2318 77.7005 13.0654 74.0439 13.0654C70.3876 13.0653 67.4609 10.2317 67.4609 6.78223C67.4612 3.33293 70.3877 0.500168 74.0439 0.5Z" fill="#F4C704" stroke="#EB9400"/>
<path d="M22.1025 0.5C25.7589 0.5 28.6863 3.33283 28.6865 6.78223C28.6865 10.2318 25.7591 13.0654 22.1025 13.0654C18.4462 13.0653 15.5195 10.2317 15.5195 6.78223C15.5197 3.33293 18.4463 0.500168 22.1025 0.5Z" fill="#F4C704" stroke="#EB9400"/>
</g>
<path d="M27.876 49.0061C27.876 48.6211 28.2927 48.3809 28.626 48.5735L38.8438 54.4807C38.9983 54.5701 39.0938 54.7358 39.0938 54.9143V55.5178C39.0938 58.0031 37.079 60.0178 34.5938 60.0178H32.376C29.8905 60.0178 27.8758 58.0032 27.876 55.5178V49.0061Z" fill="#3C3C3B" stroke="#3C3C3B"/>
<path d="M64.8857 49.0061C64.8857 48.6211 64.469 48.3809 64.1357 48.5735L53.918 54.4807C53.7634 54.5701 53.668 54.7358 53.668 54.9143V55.5178C53.668 58.0031 55.6827 60.0178 58.168 60.0178H60.3857C62.8712 60.0178 64.886 58.0032 64.8857 55.5178V49.0061Z" fill="#3C3C3B" stroke="#3C3C3B"/>
<rect x="27.875" y="74.2639" width="37.0139" height="5.62275" rx="2.81137" fill="#3C3C3B" stroke="#3C3C3B"/>
<defs>
<filter id="filter0_d_1001_4956" x="0" y="0" width="93" height="112" filterUnits="userSpaceOnUse" color-interpolation-filters="sRGB">
<feFlood flood-opacity="0" result="BackgroundImageFix"/>
<feColorMatrix in="SourceAlpha" type="matrix" values="0 0 0 0 0 0 0 0 0 0 0 0 0 0 0 0 0 0 127 0" result="hardAlpha"/>
<feOffset dy="4"/>
<feGaussianBlur stdDeviation="2"/>
<feComposite in2="hardAlpha" operator="out"/>
<feColorMatrix type="matrix" values="0 0 0 0 0 0 0 0 0 0 0 0 0 0 0 0 0 0 0.25 0"/>
<feBlend mode="normal" in2="BackgroundImageFix" result="effect1_dropShadow_1001_4956"/>
<feBlend mode="normal" in="SourceGraphic" in2="effect1_dropShadow_1001_4956" result="shape"/>
</filter>
<filter id="filter1_d_1001_4956" x="0" y="0" width="93" height="112" filterUnits="userSpaceOnUse" color-interpolation-filters="sRGB">
<feFlood flood-opacity="0" result="BackgroundImageFix"/>
<feColorMatrix in="SourceAlpha" type="matrix" values="0 0 0 0 0 0 0 0 0 0 0 0 0 0 0 0 0 0 127 0" result="hardAlpha"/>
<feOffset dy="4"/>
<feGaussianBlur stdDeviation="2"/>
<feComposite in2="hardAlpha" operator="out"/>
<feColorMatrix type="matrix" values="0 0 0 0 0 0 0 0 0 0 0 0 0 0 0 0 0 0 0.25 0"/>
<feBlend mode="normal" in2="BackgroundImageFix" result="effect1_dropShadow_1001_4956"/>
<feBlend mode="normal" in="SourceGraphic" in2="effect1_dropShadow_1001_4956" result="shape"/>
</filter>
</defs>
</svg>
