<svg width="128" height="112" viewBox="0 0 128 112" fill="none" xmlns="http://www.w3.org/2000/svg">
<path d="M73.6233 79.7068L88.1719 94.6645" stroke="#A100B7" stroke-width="3" stroke-linecap="round"/>
<path d="M98.2188 98.6916C98.2188 102.412 95.3804 105.378 91.9395 105.378C88.4985 105.378 85.6602 102.412 85.6602 98.6916C85.6603 94.9714 88.4986 92.006 91.9395 92.006C95.3803 92.0061 98.2186 94.9714 98.2188 98.6916Z" fill="#CB30E0" stroke="#A100B7"/>
<path d="M53.707 79.6977L39.4062 94.9146" stroke="#A100B7" stroke-width="3" stroke-linecap="round"/>
<path d="M35.5596 105.442C32.0562 105.442 29.1895 102.506 29.1895 98.8515C29.1895 95.1966 32.0562 92.2607 35.5596 92.2607C39.0629 92.2607 41.9297 95.1966 41.9297 98.8515C41.9297 102.506 39.0629 105.442 35.5596 105.442Z" fill="#CB30E0" stroke="#A100B7"/>
<path d="M34.37 57.0523L14.6523 62.6016" stroke="#A100B7" stroke-width="3" stroke-linecap="round"/>
<path d="M6.23997 69.6303C3.19603 67.7711 2.14696 63.725 3.90427 60.5911C5.66165 57.4572 9.55539 56.4304 12.5994 58.2897C15.6432 60.1491 16.6924 64.1951 14.935 67.3289C13.1777 70.4627 9.28389 71.4895 6.23997 69.6303Z" fill="#CB30E0" stroke="#A100B7"/>
<path d="M44.4381 39.119L39.0781 18.5514" stroke="#A100B7" stroke-width="3" stroke-linecap="round"/>
<path d="M32.3343 9.77369C34.1232 6.58351 38.007 5.51637 40.9969 7.34267C43.9867 9.169 44.9973 13.2256 43.2084 16.4158C41.4194 19.6058 37.5356 20.6729 34.5458 18.8468C31.5559 17.0205 30.5455 12.9638 32.3343 9.77369Z" fill="#CB30E0" stroke="#A100B7"/>
<path d="M93.63 57.0537L113.348 62.6031" stroke="#A100B7" stroke-width="3" stroke-linecap="round"/>
<path d="M121.76 69.6317C124.804 67.7725 125.853 63.7264 124.096 60.5926C122.338 57.4587 118.445 56.4318 115.401 58.2912C112.357 60.1505 111.308 64.1965 113.065 67.3303C114.822 70.4641 118.716 71.4909 121.76 69.6317Z" fill="#CB30E0" stroke="#A100B7"/>
<path d="M83.5619 39.1204L88.9219 18.5527" stroke="#A100B7" stroke-width="3" stroke-linecap="round"/>
<path d="M95.6696 9.77509C93.8807 6.58491 89.9969 5.51777 87.007 7.34407C84.0172 9.17041 83.0066 13.2271 84.7955 16.4172C86.5845 19.6072 90.4683 20.6743 93.4581 18.8482C96.448 17.0219 97.4584 12.9652 95.6696 9.77509Z" fill="#CB30E0" stroke="#A100B7"/>
<path d="M60.6943 8.54492C62.0299 6.15427 65.4701 6.15426 66.8057 8.54492L105.213 77.293C106.516 79.6259 104.83 82.5 102.157 82.5H25.3428C22.6706 82.4999 20.9839 79.6259 22.2871 77.293L60.6943 8.54492Z" fill="#CB30E0" stroke="#A100B7" stroke-width="3"/>
<path d="M45.4971 40.7334C45.4971 40.3484 45.9138 40.1082 46.2471 40.3008L56.4648 46.208C56.6194 46.2974 56.7148 46.4631 56.7148 46.6416V47.2451C56.7148 49.7304 54.7001 51.7451 52.2148 51.7451H49.9971C47.5116 51.7451 45.4969 49.7305 45.4971 47.2451V40.7334Z" fill="#3C3C3B" stroke="#3C3C3B"/>
<path d="M82.5068 40.7334C82.5068 40.3484 82.0901 40.1082 81.7568 40.3008L71.5391 46.208C71.3845 46.2974 71.2891 46.4631 71.2891 46.6416V47.2451C71.2891 49.7304 73.3038 51.7451 75.7891 51.7451H78.0068C80.4923 51.7451 82.507 49.7305 82.5068 47.2451V40.7334Z" fill="#3C3C3B" stroke="#3C3C3B"/>
<rect x="45.4961" y="65.9911" width="37.0139" height="5.62275" rx="2.81137" fill="#3C3C3B" stroke="#3C3C3B"/>
</svg>
